<svg id="Custom_React_Native_App_Development" data-name="Custom React Native App Development" xmlns="http://www.w3.org/2000/svg" width="45.301" height="45.65" viewBox="0 0 45.301 45.65">
  <path id="Path_20250" data-name="Path 20250" d="M47.831,28.538H45.944V6.831A.944.944,0,0,0,45,5.888V4a2.831,2.831,0,0,1,2.831,2.831Z" transform="translate(-2.53 -0.225)" fill="#037ca4"/>
  <path id="Path_20251" data-name="Path 20251" d="M42.47,37.976H2.831A2.831,2.831,0,0,1,0,35.144V6.831A2.831,2.831,0,0,1,2.831,4V5.888a.944.944,0,0,0-.944.944V35.144a.944.944,0,0,0,.944.944H42.47a.944.944,0,0,0,.944-.944V32.313H4.719V30.426H44.357a.944.944,0,0,1,.944.944v3.775A2.831,2.831,0,0,1,42.47,37.976Z" transform="translate(0 -0.225)" fill="#037ca4"/>
  <rect id="Rectangle_2925" data-name="Rectangle 2925" width="20" height="2" transform="translate(12.65 43.65)" fill="#037ca4"/>
  <path id="Path_20252" data-name="Path 20252" d="M15,47.494V45.606a1.776,1.776,0,0,0,1.888-1.888V39h1.888v4.719A3.669,3.669,0,0,1,15,47.494Z" transform="translate(-0.843 -2.193)" fill="#037ca4"/>
  <path id="Path_20253" data-name="Path 20253" d="M32.775,47.494A3.669,3.669,0,0,1,29,43.719V39h1.888v4.719a1.776,1.776,0,0,0,1.888,1.888Z" transform="translate(-1.631 -2.193)" fill="#037ca4"/>
  <path id="Path_20254" data-name="Path 20254" d="M36.426,29.213H34.538V27.325h-4.49a.944.944,0,0,1-.667-1.611l3.175-3.175-2.67-2.67-3.175,3.175a.944.944,0,0,1-1.611-.666v-4.49H21.325v4.49a.944.944,0,0,1-1.611.667l-3.175-3.176-2.67,2.67,3.174,3.175a.944.944,0,0,1-.666,1.611h-4.49v1.888H10V26.381a.944.944,0,0,1,.944-.944H14.1l-2.231-2.231a.944.944,0,0,1,0-1.334l4-4a.944.944,0,0,1,1.334,0L19.438,20.1V16.944A.944.944,0,0,1,20.381,16h5.663a.944.944,0,0,1,.944.944V20.1l2.231-2.232a.944.944,0,0,1,1.334,0l4,4a.944.944,0,0,1,0,1.334l-2.231,2.231h3.155a.944.944,0,0,1,.944.944Z" transform="translate(-0.562 -0.9)" fill="#7e75e4"/>
  <path id="Path_20255" data-name="Path 20255" d="M27.55,29.775H25.663a1.888,1.888,0,0,0-3.775,0H20a3.775,3.775,0,0,1,7.55,0Z" transform="translate(-1.125 -1.462)" fill="#3580e9"/>
  <path id="Path_20256" data-name="Path 20256" d="M34.325,16.988a.932.932,0,0,1-.361-.072.944.944,0,0,1-.582-.872V13.213h-7.55A2.831,2.831,0,0,1,23,10.381V2.831A2.831,2.831,0,0,1,25.831,0H39.044a2.831,2.831,0,0,1,2.831,2.831v7.55a2.831,2.831,0,0,1-2.831,2.831h-.553l-3.5,3.5A.944.944,0,0,1,34.325,16.988Zm-8.494-15.1a.944.944,0,0,0-.944.944v7.55a.944.944,0,0,0,.944.944h8.494a.944.944,0,0,1,.944.944v1.5L37.433,11.6a.944.944,0,0,1,.667-.277h.944a.944.944,0,0,0,.944-.944V2.831a.944.944,0,0,0-.944-.944Z" transform="translate(-1.293 0)" fill="#7e75e4"/>
  <path id="Path_20257" data-name="Path 20257" d="M14.438,15.1a.944.944,0,0,1-.667-.276l-3.5-3.5H7.831A2.831,2.831,0,0,1,5,8.494V2.831A2.831,2.831,0,0,1,7.831,0H20.1V1.888H7.831a.944.944,0,0,0-.944.944V8.494a.944.944,0,0,0,.944.944h2.831a.944.944,0,0,1,.667.276l2.164,2.164v-1.5a.944.944,0,0,1,.944-.944H20.1v1.888H15.381v2.831a.944.944,0,0,1-.582.872.932.932,0,0,1-.361.072Z" transform="translate(-0.281 0)" fill="#7e75e4"/>
  <rect id="Rectangle_2926" data-name="Rectangle 2926" width="11" height="2" transform="translate(8.65 4.65)" fill="#037ca4"/>
  <rect id="Rectangle_2927" data-name="Rectangle 2927" width="2" height="2" transform="translate(25.65 5.65)" fill="#037ca4"/>
  <rect id="Rectangle_2928" data-name="Rectangle 2928" width="1" height="2" transform="translate(30.65 5.65)" fill="#037ca4"/>
  <rect id="Rectangle_2929" data-name="Rectangle 2929" width="2" height="2" transform="translate(34.65 5.65)" fill="#037ca4"/>
</svg>
