<svg xmlns="http://www.w3.org/2000/svg" width="45.843" height="45.843" viewBox="0 0 45.843 45.843">
  <g id="MVP_React_native_app_development" data-name="MVP React native app development" transform="translate(-5472 10838)">
    <path id="Path_20258" data-name="Path 20258" d="M20.55,52.39a2.332,2.332,0,1,0,2.324,2.324A2.332,2.332,0,0,0,20.55,52.39Zm0,3.075a.751.751,0,1,1,.674-.747A.751.751,0,0,1,20.55,55.465Z" transform="translate(5465.812 -10851.353)" fill="#7e75e4"/>
    <path id="Path_20259" data-name="Path 20259" d="M22.6,7H18.12a.79.79,0,0,0,0,1.581H22.6A.79.79,0,1,0,22.6,7Z" transform="translate(5465.996 -10841.838)" fill="#7e75e4"/>
    <path id="Path_20260" data-name="Path 20260" d="M48.179,23.123l-3.083-.5a13.942,13.942,0,0,0-1.834-4.395L45.1,15.717a.79.79,0,0,0-.071-1.028l-2.861-2.869a.79.79,0,0,0-1.028-.087l-2.569,1.834a14.14,14.14,0,0,0-4.371-1.81l-.5-3.09A.79.79,0,0,0,32.908,8H31.715V3.79a.79.79,0,0,0-.79-.79H3.79A.79.79,0,0,0,3,3.79V48.052a.79.79,0,0,0,.79.79H30.925a.79.79,0,0,0,.79-.79V43.84h1.241a.79.79,0,0,0,.79-.672l.49-3.09a14.425,14.425,0,0,0,4.387-1.818l2.537,1.834a.79.79,0,0,0,1.028-.079l2.853-2.853a.79.79,0,0,0,.079-1.02l-1.857-2.553a14.14,14.14,0,0,0,1.818-4.379l3.09-.482a.79.79,0,0,0,.672-.79V23.906A.79.79,0,0,0,48.179,23.123ZM4.581,10.9H30.134V39.888H4.581Zm27.134,5.983a9.067,9.067,0,0,1,0,18.068ZM4.581,4.581H30.134V9.323H4.581ZM30.134,47.262H4.581V41.468H30.134ZM47.262,27.273l-2.964.458a.79.79,0,0,0-.648.632,12.646,12.646,0,0,1-2,4.8.79.79,0,0,0,0,.909l1.77,2.45-1.9,1.9-2.442-1.763a.79.79,0,0,0-.909,0,12.836,12.836,0,0,1-4.806,1.992.79.79,0,0,0-.624.656l-.5,2.956h-.561V36.552a10.642,10.642,0,0,0,.032-21.23V9.584h.53l.482,2.956a.79.79,0,0,0,.632.648,12.915,12.915,0,0,1,4.79,1.992.79.79,0,0,0,.909,0l2.427-1.755L43.4,15.338l-1.763,2.427a.79.79,0,0,0,0,.917,12.322,12.322,0,0,1,2.008,4.8.79.79,0,0,0,.648.64l2.956.474Z" transform="translate(5469 -10841)" fill="#037ca4"/>
    <path id="Path_20261" data-name="Path 20261" d="M17.409,17.5H9.37a.79.79,0,0,0-.79.79V25.27a.79.79,0,0,0,.79.79h8.038a.79.79,0,0,0,.79-.79V18.29A.79.79,0,0,0,17.409,17.5Zm-.79,6.979H10.161v-5.4h6.458Z" transform="translate(5467.831 -10844.039)" fill="#7e75e4"/>
    <path id="Path_20262" data-name="Path 20262" d="M31.305,19.39H23.48a.79.79,0,0,0,0,1.581h7.825a.79.79,0,0,0,0-1.581Z" transform="translate(5464.873 -10844.435)" fill="#7e75e4"/>
    <path id="Path_20263" data-name="Path 20263" d="M31.305,24.45H23.48a.79.79,0,0,0,0,1.581h7.825a.79.79,0,0,0,0-1.581Z" transform="translate(5464.873 -10845.496)" fill="#7e75e4"/>
    <path id="Path_20264" data-name="Path 20264" d="M17.409,34.42H9.37a.79.79,0,0,0-.79.79V42.19a.79.79,0,0,0,.79.79h8.038a.79.79,0,0,0,.79-.79V35.21A.79.79,0,0,0,17.409,34.42Zm-.79,6.979H10.161V36h6.458Z" transform="translate(5467.831 -10847.586)" fill="#7e75e4"/>
    <path id="Path_20265" data-name="Path 20265" d="M31.305,36.3H23.48a.79.79,0,0,0,0,1.581h7.825a.79.79,0,0,0,0-1.581Z" transform="translate(5464.873 -10847.979)" fill="#7e75e4"/>
    <path id="Path_20266" data-name="Path 20266" d="M31.305,41.36H23.48a.79.79,0,1,0,0,1.581h7.825a.79.79,0,0,0,0-1.581Z" transform="translate(5464.873 -10849.04)" fill="#7e75e4"/>
  </g>
</svg>
