<svg xmlns="http://www.w3.org/2000/svg" width="45.333" height="43.52" viewBox="0 0 45.333 43.52">
  <g id="React_native_UI_UX_design" data-name="React native UI/UX design" transform="translate(-7 -9)">
    <g id="Group_13808" data-name="Group 13808" transform="translate(7 9)">
      <path id="Path_20267" data-name="Path 20267" d="M51.426,9H7.907A.907.907,0,0,0,7,9.907V40.733a.906.906,0,0,0,.907.907H28.76v9.067H20.6a.907.907,0,1,0,0,1.813H38.733a.907.907,0,0,0,0-1.813h-8.16V41.64H51.426a.906.906,0,0,0,.907-.907V9.907A.906.906,0,0,0,51.426,9ZM50.52,39.826H8.813V10.813H50.52Z" transform="translate(-7 -9)" fill="#037ca4"/>
      <path id="Path_20268" data-name="Path 20268" d="M13.907,18.813h16.32a.907.907,0,0,0,0-1.813H13.907a.907.907,0,0,0,0,1.813Z" transform="translate(-7.56 -9.747)" fill="#7e75e4"/>
      <path id="Path_20269" data-name="Path 20269" d="M13.907,22.813h16.32a.907.907,0,0,0,0-1.813H13.907a.907.907,0,1,0,0,1.813Z" transform="translate(-7.56 -10.12)" fill="#7e75e4"/>
      <path id="Path_20270" data-name="Path 20270" d="M13.907,36.44h9.067a.906.906,0,0,0,.907-.907V31.907A.907.907,0,0,0,22.973,31H13.907a.907.907,0,0,0-.907.907v3.627A.906.906,0,0,0,13.907,36.44Zm.907-3.627h7.253v1.813H14.813Z" transform="translate(-7.56 -11.053)" fill="#7e75e4"/>
      <path id="Path_20271" data-name="Path 20271" d="M13.907,26.813h9.067a.907.907,0,0,0,0-1.813H13.907a.907.907,0,1,0,0,1.813Z" transform="translate(-7.56 -10.493)" fill="#7e75e4"/>
      <path id="Path_20272" data-name="Path 20272" d="M37.559,33.726a.905.905,0,0,0,.988-.2l2.713-2.71,2.035,3.922a.907.907,0,0,0,1.222.387l1.892-.979a.907.907,0,0,0,.388-1.222l-1.821-3.512h3.353a.907.907,0,0,0,.613-1.575L38.52,18.277a.907.907,0,0,0-1.52.668V32.888A.907.907,0,0,0,37.559,33.726Zm1.254-12.718L46,27.6H43.485a.906.906,0,0,0-.8,1.324l2.09,4.03-.282.145L42.3,28.884a.907.907,0,0,0-1.445-.225L38.813,30.7Z" transform="translate(-9.8 -9.844)" fill="#7e75e4"/>
    </g>
  </g>
</svg>
