<svg xmlns="http://www.w3.org/2000/svg" width="45.28" height="41.035" viewBox="0 0 45.28 41.035">
  <g id="Server-side_APIs_integration" data-name="Server-side APIs integration" transform="translate(0 -3)">
    <path id="Path_20287" data-name="Path 20287" d="M35.858,54.075H21.708a.708.708,0,0,1-.686-.879l1.415-5.66A.708.708,0,0,1,23.123,47h11.32a.708.708,0,0,1,.686.536l1.415,5.66a.708.708,0,0,1-.686.879ZM22.614,52.66H34.951L33.89,48.415H23.675Z" transform="translate(-6.143 -12.87)" fill="#037ca4"/>
    <g id="Group" transform="translate(12.028 39.79)">
      <path id="Path_20288" data-name="Path 20288" d="M36.81,59.245h-18.4A1.415,1.415,0,0,1,17,57.83V56.415A1.415,1.415,0,0,1,18.415,55h18.4a1.415,1.415,0,0,1,1.415,1.415V57.83A1.415,1.415,0,0,1,36.81,59.245Zm-19.1-1.415Zm.708,0h18.4V56.415h-18.4Z" transform="translate(-17 -55)" fill="#037ca4"/>
    </g>
    <path id="Path_20289" data-name="Path 20289" d="M44.573,35.545H.708A.708.708,0,0,1,0,34.838V3.708A.708.708,0,0,1,.708,3H44.573a.708.708,0,0,1,.708.708v31.13A.708.708,0,0,1,44.573,35.545ZM1.415,34.13h42.45V4.415H1.415Z" fill="#037ca4"/>
    <path id="Path_20290" data-name="Path 20290" d="M44.573,46.66H.708A.708.708,0,0,1,0,45.953V41.708A.708.708,0,0,1,.708,41H44.573a.708.708,0,0,1,.708.708v4.245A.708.708,0,0,1,44.573,46.66ZM1.415,45.245h42.45v-2.83H1.415Z" transform="translate(0 -11.115)" fill="#037ca4"/>
    <path id="Path_20291" data-name="Path 20291" d="M29.028,29.225H26.2a.708.708,0,0,1-.708-.657l-.179-2.526a7.771,7.771,0,0,1-1.324-.549l-1.915,1.659a.708.708,0,0,1-.964-.034l-2-2a.708.708,0,0,1-.034-.964l1.659-1.915a7.771,7.771,0,0,1-.549-1.324l-2.526-.179A.708.708,0,0,1,17,20.028V17.2a.708.708,0,0,1,.657-.708l2.526-.181a7.771,7.771,0,0,1,.549-1.324l-1.659-1.912a.708.708,0,0,1,.034-.964l2-2a.708.708,0,0,1,.964-.034l1.915,1.659a7.771,7.771,0,0,1,1.324-.549l.179-2.526A.708.708,0,0,1,26.2,8h2.83a.708.708,0,0,1,.708.657l.181,2.526a7.771,7.771,0,0,1,1.324.549l1.915-1.659a.708.708,0,0,1,.964.034l2,2a.708.708,0,0,1,.034.964l-1.659,1.915a7.771,7.771,0,0,1,.549,1.324l2.524.179a.708.708,0,0,1,.657.708v2.83a.708.708,0,0,1-.657.708l-2.526.181a7.771,7.771,0,0,1-.549,1.324l1.659,1.915a.708.708,0,0,1-.034.964l-2,2a.708.708,0,0,1-.964.034l-1.915-1.659a7.771,7.771,0,0,1-1.324.549l-.179,2.524A.708.708,0,0,1,29.028,29.225ZM26.856,27.81h1.513l.17-2.369a.708.708,0,0,1,.542-.637,6.343,6.343,0,0,0,1.87-.778.708.708,0,0,1,.835.071l1.8,1.557,1.069-1.069-1.557-1.8a.708.708,0,0,1-.067-.835,6.343,6.343,0,0,0,.778-1.87.708.708,0,0,1,.637-.542l2.368-.172V17.856l-2.369-.17a.708.708,0,0,1-.637-.542,6.344,6.344,0,0,0-.778-1.87.708.708,0,0,1,.067-.835l1.557-1.8L33.58,11.574l-1.8,1.557a.708.708,0,0,1-.835.067,6.343,6.343,0,0,0-1.87-.778.708.708,0,0,1-.542-.637l-.168-2.368H26.856l-.17,2.369a.708.708,0,0,1-.542.637,6.343,6.343,0,0,0-1.87.778.708.708,0,0,1-.835-.067l-1.8-1.557-1.069,1.069,1.557,1.8a.707.707,0,0,1,.071.835,6.343,6.343,0,0,0-.778,1.87.708.708,0,0,1-.637.542l-2.372.168v1.513l2.369.17a.708.708,0,0,1,.637.542,6.343,6.343,0,0,0,.778,1.87.708.708,0,0,1-.071.835l-1.557,1.8,1.069,1.069,1.8-1.557a.708.708,0,0,1,.835-.071,6.343,6.343,0,0,0,1.87.778.708.708,0,0,1,.542.637Z" transform="translate(-4.972 -1.462)" fill="#7e75e4"/>
    <path id="Path_20292" data-name="Path 20292" d="M30.245,25.49a4.245,4.245,0,1,1,4.245-4.245,4.245,4.245,0,0,1-4.245,4.245Zm0-7.075a2.83,2.83,0,1,0,2.83,2.83A2.83,2.83,0,0,0,30.245,18.415Z" transform="translate(-7.605 -4.095)" fill="#7e75e4"/>
    <path id="Path_20293" data-name="Path 20293" d="M7.83,13.66a2.83,2.83,0,1,1,2.83-2.83A2.83,2.83,0,0,1,7.83,13.66Zm0-4.245A1.415,1.415,0,1,0,9.245,10.83,1.415,1.415,0,0,0,7.83,9.415Z" transform="translate(-1.462 -1.462)" fill="#037ca4"/>
    <path id="Path_20294" data-name="Path 20294" d="M53.83,13.66a2.83,2.83,0,1,1,2.83-2.83A2.83,2.83,0,0,1,53.83,13.66Zm0-4.245a1.415,1.415,0,1,0,1.415,1.415A1.415,1.415,0,0,0,53.83,9.415Z" transform="translate(-14.917 -1.462)" fill="#037ca4"/>
    <path id="Path_20295" data-name="Path 20295" d="M53.83,35.66a2.83,2.83,0,1,1,2.83-2.83A2.83,2.83,0,0,1,53.83,35.66Zm0-4.245a1.415,1.415,0,1,0,1.415,1.415A1.415,1.415,0,0,0,53.83,31.415Z" transform="translate(-14.917 -7.897)" fill="#7e75e4"/>
    <path id="Path_20296" data-name="Path 20296" d="M7.83,35.66a2.83,2.83,0,1,1,2.83-2.83A2.83,2.83,0,0,1,7.83,35.66Zm0-4.245A1.415,1.415,0,1,0,9.245,32.83,1.415,1.415,0,0,0,7.83,31.415Z" transform="translate(-1.462 -7.897)" fill="#7e75e4"/>
    <path id="Path_20297" data-name="Path 20297" d="M14.83,33.916H12V32.5h2.537l1.208-1.208,1,1L15.33,33.708A.707.707,0,0,1,14.83,33.916Z" transform="translate(-3.51 -8.276)" fill="#7e75e4"/>
    <path id="Path_20298" data-name="Path 20298" d="M50.038,33.916h-2.83a.707.707,0,0,1-.5-.207l-1.415-1.415,1-1L47.5,32.5h2.537Z" transform="translate(-13.248 -8.276)" fill="#7e75e4"/>
    <path id="Path_20299" data-name="Path 20299" d="M51.123,20.66H49V19.245h1.83l1.708-1.708V15h1.415v2.83a.707.707,0,0,1-.207.5l-2.123,2.123A.708.708,0,0,1,51.123,20.66Z" transform="translate(-14.332 -3.51)" fill="#037ca4"/>
    <path id="Path_20300" data-name="Path 20300" d="M12.953,20.66H10.83a.707.707,0,0,1-.5-.207L8.207,18.33A.708.708,0,0,1,8,17.83V15H9.415v2.537l1.708,1.708h1.83Z" transform="translate(-2.34 -3.51)" fill="#037ca4"/>
  </g>
</svg>
