<svg xmlns="http://www.w3.org/2000/svg" width="40.25" height="49.409" viewBox="0 0 40.25 49.409">
  <g id="Startup_business_enterprise_react_native_apps" data-name="Startup/business/enterprise react native apps" transform="translate(-5654 10790)">
    <path id="Path_20281" data-name="Path 20281" d="M156.283,45.39h6.756a.695.695,0,0,0,0-1.39h-6.756a.695.695,0,0,0,0,1.39Z" transform="translate(5508.594 -10830.327)" fill="#7e75e4"/>
    <path id="Path_20282" data-name="Path 20282" d="M171.451,410.375a2.774,2.774,0,1,0,2.774,2.774A2.774,2.774,0,0,0,171.451,410.375Zm0,4.158a1.384,1.384,0,1,1,1.384-1.384A1.384,1.384,0,0,1,171.451,414.533Z" transform="translate(5496.804 -11160.339)" fill="#7e75e4"/>
    <path id="Path_20283" data-name="Path 20283" d="M315.465,272.834a5.177,5.177,0,1,0,5.177,5.177A5.177,5.177,0,0,0,315.465,272.834Zm0,8.965a3.788,3.788,0,1,1,3.788-3.788,3.788,3.788,0,0,1-3.788,3.788Z" transform="translate(5369.249 -11036.45)" fill="#7e75e4"/>
    <path id="Path_20284" data-name="Path 20284" d="M91.934,36.36l.12-2.18a.7.7,0,0,0-.38-.658l-1.94-.98-.98-1.94a.7.7,0,0,0-.658-.38l-2.18.12-1.82-1.2a.7.7,0,0,0-.765,0l-1.808,1.2-.038,0V11.683A4.706,4.706,0,0,0,76.8,7H57.713A4.727,4.727,0,0,0,53,11.683V50.517a4.674,4.674,0,0,0,4.713,4.62H76.8a4.5,4.5,0,0,0,1.611-.245v.822a.7.7,0,0,0,1.064.593l4.24-2.584,4.239,2.584a.7.7,0,0,0,.362.1.732.732,0,0,0,.35-.089.7.7,0,0,0,.365-.605v-9.7l.715-1.435,1.935-.98a.693.693,0,0,0,.378-.658l-.121-2.18,1.2-1.82a.7.7,0,0,0,0-.765Zm-12.59-6.138a.7.7,0,0,0-.664.38l-.983,1.94-1.208.61a9.475,9.475,0,1,0-1.026,2.642l.031.566-1.2,1.82a.7.7,0,0,0,0,.765l1.2,1.82-.12,2.18a.681.681,0,0,0,.38.649l1.653.826H54.39V16.23H80.1V30.262Zm-4.022.878a8.067,8.067,0,1,1-8.067-8.067A8.067,8.067,0,0,1,75.322,31.1ZM57.713,8.39H76.8a3.315,3.315,0,0,1,3.3,3.294v3.158H54.39V11.683A3.336,3.336,0,0,1,57.713,8.39ZM76.8,53.748H57.713a3.283,3.283,0,0,1-3.323-3.231V45.808H78.323l.086.21v7.343a3.184,3.184,0,0,1-1.611.387Zm7.288-1.431a.713.713,0,0,0-.734,0L79.8,54.477v-7.6l1.709-.094,1.822,1.2a.7.7,0,0,0,.767,0l1.83-1.2,1.714.094v7.6Zm6.562-12.126a.7.7,0,0,0-.114.421l.108,1.955-1.738.878a.7.7,0,0,0-.307.307l-.878,1.738-1.955-.108a.693.693,0,0,0-.421.114L83.714,46.57,82.085,45.5a.7.7,0,0,0-.382-.115h-.038l-1.956.108-.878-1.738a.7.7,0,0,0-.307-.307l-1.738-.878.108-1.955a.7.7,0,0,0-.114-.421l-1.074-1.629,1.074-1.629a.7.7,0,0,0,.114-.421l-.108-1.955,1.738-.878a.7.7,0,0,0,.307-.307l.878-1.738,1.955.108a.7.7,0,0,0,.421-.114l1.629-1.074,1.629,1.074a.693.693,0,0,0,.421.114l1.955-.108.878,1.738a.7.7,0,0,0,.307.307l1.738.878-.108,1.955a.7.7,0,0,0,.114.421l1.074,1.629Z" transform="translate(5601 -10797)" fill="#037ca4"/>
    <path id="Path_20285" data-name="Path 20285" d="M174.911,202.28l.06,0a.691.691,0,0,0,.192-.027.979.979,0,0,1,.947.977.695.695,0,1,0,1.39,0,2.371,2.371,0,0,0-1.834-2.306v-.231a.695.695,0,0,0-1.39,0v.33a2.367,2.367,0,0,0,.856,4.575.978.978,0,1,1-.978.978.695.695,0,1,0-1.39,0,2.371,2.371,0,0,0,1.611,2.243v.509a.695.695,0,1,0,1.39,0v-.471a2.368,2.368,0,0,0-.633-4.649.978.978,0,0,1-.221-1.93Z" transform="translate(5493.123 -10970.844)" fill="#7e75e4"/>
    <path id="Path_20286" data-name="Path 20286" d="M132.7,178.849a7.044,7.044,0,1,0,7.044,7.044A7.044,7.044,0,0,0,132.7,178.849Zm0,12.7a5.654,5.654,0,1,1,5.654-5.654,5.654,5.654,0,0,1-5.654,5.654Z" transform="translate(5535.555 -10951.793)" fill="#7e75e4"/>
  </g>
</svg>
