<svg xmlns="http://www.w3.org/2000/svg" width="45.785" height="45.785" viewBox="0 0 45.785 45.785">
  <g id="Support_Maintain_upgrade_react_native_apps" data-name="Support, Maintain &amp; upgrade react native apps" transform="translate(-5414 10750)">
    <path id="Path_20273" data-name="Path 20273" d="M17.573,5.646A1.073,1.073,0,1,0,16.5,4.573,1.073,1.073,0,0,0,17.573,5.646Zm0-1.431a.358.358,0,1,1-.358.358A.358.358,0,0,1,17.573,4.215Z" transform="translate(5409.304 -10750.996)" fill="#7e75e4"/>
    <ellipse id="Ellipse_405" data-name="Ellipse 405" cx="1" cy="0.5" rx="1" ry="0.5" transform="translate(5428.893 -10747.107)" fill="#7e75e4"/>
    <ellipse id="Ellipse_406" data-name="Ellipse 406" cx="1" cy="0.5" rx="1" ry="0.5" transform="translate(5422.893 -10747.107)" fill="#7e75e4"/>
    <path id="Path_20274" data-name="Path 20274" d="M39,30.862A2.862,2.862,0,1,0,41.862,28,2.862,2.862,0,0,0,39,30.862Zm4.292,0a1.431,1.431,0,1,1-1.431-1.431A1.431,1.431,0,0,1,43.292,30.862Z" transform="translate(5402.9 -10757.969)" fill="#7e75e4"/>
    <path id="Path_20275" data-name="Path 20275" d="M43.639,20.746H43.3a.715.715,0,0,1-.7-.572,12.1,12.1,0,0,0-1.545-3.733.722.722,0,0,1,.087-.9l.238-.237a2.146,2.146,0,1,0-3.035-3.035l-.238.238a.715.715,0,0,1-.9.087,12.082,12.082,0,0,0-3.736-1.547.715.715,0,0,1-.572-.7v-.335a2.146,2.146,0,0,0-4.292,0v.335a.715.715,0,0,1-.572.7,12.1,12.1,0,0,0-3,1.132v-8.6A3.581,3.581,0,0,0,21.462,0H4.292A3.581,3.581,0,0,0,.715,3.577V5.723A.715.715,0,0,0,0,6.439V9.3a.715.715,0,0,0,.715.715v2.146A.715.715,0,0,0,0,12.877v2.862a.715.715,0,0,0,.715.715V42.208a3.581,3.581,0,0,0,3.577,3.577H21.462a3.581,3.581,0,0,0,3.577-3.577v-8.6a12.054,12.054,0,0,0,3,1.132.715.715,0,0,1,.572.7v.335a2.146,2.146,0,1,0,4.292,0v-.335a.715.715,0,0,1,.572-.7,12.1,12.1,0,0,0,3.733-1.545.72.72,0,0,1,.9.087l.238.238a2.146,2.146,0,1,0,3.035-3.035l-.238-.238a.72.72,0,0,1-.087-.9,12.081,12.081,0,0,0,1.547-3.736.715.715,0,0,1,.7-.572h.335a2.146,2.146,0,0,0,0-4.292ZM22.9,23.066a7.869,7.869,0,1,0,13.99-5.1,13.184,13.184,0,0,1,4.143,1.867c.065.215.129.436.18.66a2.141,2.141,0,0,0,2.09,1.682h.335a.715.715,0,0,1,0,1.431H43.3a2.146,2.146,0,0,0-2.091,1.683,10.617,10.617,0,0,1-1.364,3.291,2.146,2.146,0,0,0,.286,2.671l.238.238A.715.715,0,1,1,39.361,32.5l-.237-.238a2.146,2.146,0,0,0-2.672-.286,10.633,10.633,0,0,1-3.291,1.365,2.141,2.141,0,0,0-1.683,2.091v.335a.715.715,0,0,1-1.431,0v-.335a2.146,2.146,0,0,0-1.683-2.091,10.617,10.617,0,0,1-3.291-1.364,2.183,2.183,0,0,0-1.165-.338,2.124,2.124,0,0,0-1,.261c-.026.014-.052.026-.078.041a2.142,2.142,0,0,0-.429.323l-.238.238a.732.732,0,0,1-1.012,0,.707.707,0,0,1-.156-.235.677.677,0,0,1-.025-.126.706.706,0,0,1,0-.3.519.519,0,0,1,.179-.351l.238-.238a2.116,2.116,0,0,0,.546-.93,2.163,2.163,0,0,0-.259-1.742,10.777,10.777,0,0,1-.753-1.441A13.174,13.174,0,0,1,22.9,23.066Zm14.3-.174a6.439,6.439,0,1,1-6.439-6.439A6.439,6.439,0,0,1,37.2,22.893ZM28.365,12.441a2.141,2.141,0,0,0,1.682-2.09v-.335a.715.715,0,0,1,1.431,0v.335a2.146,2.146,0,0,0,1.683,2.091,10.617,10.617,0,0,1,3.291,1.364,2.146,2.146,0,0,0,2.671-.286l.238-.238a.715.715,0,1,1,1.012,1.012l-.238.237a2.146,2.146,0,0,0-.286,2.672,10.7,10.7,0,0,1,.791,1.525,13.932,13.932,0,0,0-4.65-1.7,7.848,7.848,0,0,0-13.012,4.749,13.987,13.987,0,0,0-2.463,4.262c-.076-.247-.143-.5-.2-.748a2.141,2.141,0,0,0-2.09-1.685h-.335a.715.715,0,0,1,0-1.431h.335a2.146,2.146,0,0,0,2.091-1.683A10.617,10.617,0,0,1,21.675,17.2a2.148,2.148,0,0,0-.287-2.672l-.238-.238a.715.715,0,0,1,0-1.012.732.732,0,0,1,1.012,0l.238.238a2.142,2.142,0,0,0,.425.321c.021.011.04.024.061.035a2.146,2.146,0,0,0,2.186-.072,10.633,10.633,0,0,1,3.293-1.364ZM4.292,1.431H21.462a2.146,2.146,0,0,1,2.11,1.788h-2.11a3.136,3.136,0,0,0-2.4,1.178,2.444,2.444,0,0,1-1.893.969H8.585A2.444,2.444,0,0,1,6.692,4.4a3.136,3.136,0,0,0-2.4-1.178H2.183a2.146,2.146,0,0,1,2.11-1.788ZM23.608,42.208a2.146,2.146,0,0,1-2.146,2.146H4.292a2.146,2.146,0,0,1-2.146-2.146V3.935H4.292A2.444,2.444,0,0,1,6.185,4.9a3.136,3.136,0,0,0,2.4,1.178h8.585a3.136,3.136,0,0,0,2.4-1.178,2.444,2.444,0,0,1,1.893-.969h2.146v8.708a.654.654,0,0,1-.2-.135l-.238-.238a2.146,2.146,0,0,0-3.664,1.517,2.176,2.176,0,0,0,.041.422,2.134,2.134,0,0,0,.587,1.1l.238.238a.694.694,0,0,1,.2.429.751.751,0,0,1-.114.471,12.082,12.082,0,0,0-1.547,3.731.715.715,0,0,1-.7.572h-.335a2.146,2.146,0,0,0,0,4.292h.335a.715.715,0,0,1,.7.572,12.939,12.939,0,0,0,1.545,3.733.751.751,0,0,1,.114.471.693.693,0,0,1-.2.429l-.238.238a2.2,2.2,0,0,0-.273.335c-.012.018-.019.039-.031.057a2.2,2.2,0,0,0-.167.317.2.2,0,0,1-.006.019,2.122,2.122,0,0,0,0,1.574.026.026,0,0,0,.006.021,2.171,2.171,0,0,0,.171.326c.01.016.016.033.026.049a2.13,2.13,0,0,0,.273.335c.009.009.02.014.029.023a2.146,2.146,0,0,0,3-.023l.238-.238c.006-.006.015-.009.021-.015a.655.655,0,0,1,.18-.118Z" transform="translate(5414 -10750)" fill="#037ca4"/>
    <circle id="Ellipse_407" data-name="Ellipse 407" cx="1" cy="1" r="1" transform="translate(5453.893 -10746.107)" fill="#7e75e4"/>
    <path id="Path_20276" data-name="Path 20276" d="M59.3,4.292h-.787a3.549,3.549,0,0,0-.524-1.254l.56-.56a.716.716,0,1,0-1.012-1.012l-.56.56A3.549,3.549,0,0,0,55.723,1.5V.715a.715.715,0,0,0-1.431,0V1.5a3.549,3.549,0,0,0-1.254.524l-.56-.56a.716.716,0,1,0-1.012,1.012l.56.56A3.549,3.549,0,0,0,51.5,4.292h-.787a.715.715,0,0,0,0,1.431H51.5a3.549,3.549,0,0,0,.524,1.254l-.56.56a.715.715,0,1,0,1.012,1.012l.56-.56a3.549,3.549,0,0,0,1.255.524V9.3a.715.715,0,0,0,1.431,0V8.513a3.549,3.549,0,0,0,1.254-.524l.56.56a.715.715,0,1,0,1.012-1.012l-.56-.56a3.549,3.549,0,0,0,.524-1.255H59.3a.715.715,0,0,0,0-1.431ZM55.008,7.154a2.146,2.146,0,1,1,2.146-2.146A2.146,2.146,0,0,1,55.008,7.154Z" transform="translate(5399.77 -10750)" fill="#7e75e4"/>
    <circle id="Ellipse_408" data-name="Ellipse 408" cx="1" cy="1" r="1" transform="translate(5453.893 -10710.107)" fill="#7e75e4"/>
    <path id="Path_20277" data-name="Path 20277" d="M59.3,54.292h-.787a3.549,3.549,0,0,0-.524-1.254l.56-.56a.715.715,0,1,0-1.012-1.012l-.56.56a3.549,3.549,0,0,0-1.255-.524v-.787a.715.715,0,0,0-1.431,0V51.5a3.549,3.549,0,0,0-1.254.524l-.56-.56a.715.715,0,1,0-1.012,1.012l.56.56a3.549,3.549,0,0,0-.524,1.255h-.787a.715.715,0,0,0,0,1.431H51.5a3.549,3.549,0,0,0,.524,1.254l-.56.56a.715.715,0,1,0,1.012,1.012l.56-.56a3.549,3.549,0,0,0,1.255.524V59.3a.715.715,0,0,0,1.431,0v-.787a3.549,3.549,0,0,0,1.254-.524l.56.56a.715.715,0,1,0,1.012-1.012l-.56-.56a3.549,3.549,0,0,0,.524-1.255H59.3a.715.715,0,0,0,0-1.431Zm-4.292,2.862a2.146,2.146,0,1,1,2.146-2.146A2.146,2.146,0,0,1,55.008,57.154Z" transform="translate(5399.77 -10764.23)" fill="#7e75e4"/>
    <path id="Path_20278" data-name="Path 20278" d="M16.008,43.43a3.563,3.563,0,0,1,1.922.564.717.717,0,1,0,.77-1.208A5,5,0,0,0,11.79,49.7.715.715,0,1,0,13,48.926a3.572,3.572,0,0,1,3.012-5.5Z" transform="translate(5410.869 -10761.952)" fill="#7e75e4"/>
    <path id="Path_20279" data-name="Path 20279" d="M21.037,46.166a.715.715,0,0,0-.456.9,3.573,3.573,0,0,1-4.512,4.512.715.715,0,1,0-.446,1.359,5,5,0,0,0,6.318-6.318A.715.715,0,0,0,21.037,46.166Z" transform="translate(5409.694 -10763.129)" fill="#7e75e4"/>
    <path id="Path_20280" data-name="Path 20280" d="M15.5,48.288A1.788,1.788,0,1,0,17.288,46.5,1.788,1.788,0,0,0,15.5,48.288Zm2.862,0a1.073,1.073,0,1,1-1.073-1.073A1.073,1.073,0,0,1,18.362,48.288Z" transform="translate(5409.588 -10763.234)" fill="#7e75e4"/>
  </g>
</svg>
