<svg xmlns="http://www.w3.org/2000/svg" width="71" height="73" viewBox="0 0 71 73">
  <g id="Group_12988" data-name="Group 12988" transform="translate(-918 -2887)">
    <rect id="Rectangle_2435" data-name="Rectangle 2435" width="71" height="73" rx="12" transform="translate(918 2887)" fill="#f36290" opacity="0.15"/>
    <g id="browser" transform="translate(938 2908)">
      <g id="Group_11534" data-name="Group 11534" transform="translate(26.941 2.597)">
        <g id="Group_11533" data-name="Group 11533">
          <path id="Path_18246" data-name="Path 18246" d="M446.6,43a.6.6,0,1,0,.6.6A.6.6,0,0,0,446.6,43Z" transform="translate(-446 -43)" fill="#f36290"/>
        </g>
      </g>
      <g id="Group_11536" data-name="Group 11536" transform="translate(23.317 2.597)">
        <g id="Group_11535" data-name="Group 11535">
          <path id="Path_18247" data-name="Path 18247" d="M386.6,43a.6.6,0,1,0,.6.6A.6.6,0,0,0,386.6,43Z" transform="translate(-386 -43)" fill="#f36290"/>
        </g>
      </g>
      <g id="Group_11538" data-name="Group 11538" transform="translate(19.692 2.597)">
        <g id="Group_11537" data-name="Group 11537">
          <path id="Path_18248" data-name="Path 18248" d="M326.6,43a.6.6,0,1,0,.6.6A.6.6,0,0,0,326.6,43Z" transform="translate(-326 -43)" fill="#f36290"/>
        </g>
      </g>
      <g id="Group_11540" data-name="Group 11540" transform="translate(16.068 18.665)">
        <g id="Group_11539" data-name="Group 11539">
          <path id="Path_18249" data-name="Path 18249" d="M266.6,309a.6.6,0,1,0,.6.6A.6.6,0,0,0,266.6,309Z" transform="translate(-266 -309)" fill="#f36290"/>
        </g>
      </g>
      <g id="Group_11542" data-name="Group 11542" transform="translate(16.068 22.29)">
        <g id="Group_11541" data-name="Group 11541">
          <path id="Path_18250" data-name="Path 18250" d="M266.6,369a.6.6,0,1,0,.6.6A.6.6,0,0,0,266.6,369Z" transform="translate(-266 -369)" fill="#f36290"/>
        </g>
      </g>
      <g id="Group_11544" data-name="Group 11544" transform="translate(16.068 25.914)">
        <g id="Group_11543" data-name="Group 11543">
          <path id="Path_18251" data-name="Path 18251" d="M266.6,429a.6.6,0,1,0,.6.6A.6.6,0,0,0,266.6,429Z" transform="translate(-266 -429)" fill="#f36290"/>
        </g>
      </g>
      <g id="Group_11546" data-name="Group 11546">
        <g id="Group_11545" data-name="Group 11545">
          <path id="Path_18252" data-name="Path 18252" d="M29.116,0H1.812A1.814,1.814,0,0,0,0,1.812v27.3a1.814,1.814,0,0,0,1.812,1.812h27.3a1.814,1.814,0,0,0,1.812-1.812V1.812A1.814,1.814,0,0,0,29.116,0Zm.6,29.116a.6.6,0,0,1-.6.6H1.812a.6.6,0,0,1-.6-.6V6.4H29.72Zm0-23.921H1.208V1.812a.6.6,0,0,1,.6-.6h27.3a.6.6,0,0,1,.6.6Z" fill="#f36290"/>
        </g>
      </g>
      <g id="Group_11548" data-name="Group 11548" transform="translate(3.987 8.819)">
        <g id="Group_11547" data-name="Group 11547">
          <path id="Path_18253" data-name="Path 18253" d="M88.35,146H66.6l-.041,0-.02,0-.037.006-.023,0-.031.008-.027.008-.026.009-.03.012-.023.011-.029.015-.024.014-.025.016-.026.02-.019.015-.028.025-.015.014-.026.029-.012.014-.022.03-.013.018-.017.028-.014.024-.012.024c0,.01-.01.021-.014.031l-.008.021c0,.012-.009.024-.012.037l0,.007c0,.005,0,.01,0,.016s-.006.024-.008.036,0,.019,0,.029,0,.019,0,.029,0,.025,0,.037,0,.01,0,.016v6.041a.6.6,0,0,0,.6.6H88.35c.02,0,.039,0,.058,0h.011l.043-.007.018,0,.035-.009.02-.006.034-.013.017-.006.046-.022.018-.01.029-.018.017-.012.028-.021.014-.011.03-.028.009-.009a.6.6,0,0,0,.071-.086l0-.008q.012-.018.023-.038l.009-.018.015-.03.01-.023.01-.027.008-.026,0-.008c0-.005,0-.01,0-.016s.006-.024.008-.036,0-.019,0-.029,0-.019,0-.029,0-.025,0-.037,0-.01,0-.016V146.6A.6.6,0,0,0,88.35,146Zm-21.142,6.041V147.4l16.711,4.642Zm20.538-.191-16.711-4.642H87.746Z" transform="translate(-66 -146)" fill="#f36290"/>
        </g>
      </g>
      <g id="Group_11550" data-name="Group 11550" transform="translate(3.987 18.665)">
        <g id="Group_11549" data-name="Group 11549">
          <path id="Path_18254" data-name="Path 18254" d="M75.06,309H66.584l-.035,0-.029,0-.029,0-.031.007-.027.007-.03.01-.026.01-.027.012-.027.013-.024.013-.027.017-.022.015-.026.019-.022.018-.022.02-.023.024-.014.015,0,0-.022.028-.015.019-.018.029-.013.022-.014.028-.012.026c0,.009-.007.017-.01.026s-.008.019-.011.029,0,.017-.007.025-.006.021-.008.032,0,.016,0,.023,0,.024-.005.035,0,.015,0,.023,0,.025,0,.037,0,0,0,.005v7.249a.6.6,0,0,0,.6.6H75.06a.627.627,0,0,0,.063,0h0c.02,0,.039-.005.058-.009l.011,0,.048-.013.018-.007.039-.015.023-.011.032-.017.024-.015.028-.019.023-.017.027-.022.02-.018.028-.03.012-.012,0,0,.022-.028.015-.019.018-.029.013-.022.014-.028.012-.026c0-.008.007-.017.01-.026s.008-.019.011-.029,0-.017.007-.025.006-.022.008-.032,0-.016,0-.023,0-.024.005-.035,0-.015,0-.023,0-.025,0-.037,0,0,0-.005V309.6A.6.6,0,0,0,75.06,309Zm-7.853,7.249v-5.331l6.22,5.331Zm7.249-.709-6.22-5.331h6.22Z" transform="translate(-65.999 -309)" fill="#f36290"/>
        </g>
      </g>
      <g id="Group_11552" data-name="Group 11552" transform="translate(18.484 18.665)">
        <g id="Group_11551" data-name="Group 11551">
          <path id="Path_18255" data-name="Path 18255" d="M313.853,309H306.6a.6.6,0,1,0,0,1.208h7.249a.6.6,0,1,0,0-1.208Z" transform="translate(-306 -309)" fill="#f36290"/>
        </g>
      </g>
      <g id="Group_11554" data-name="Group 11554" transform="translate(18.484 22.29)">
        <g id="Group_11553" data-name="Group 11553">
          <path id="Path_18256" data-name="Path 18256" d="M313.853,369H306.6a.6.6,0,1,0,0,1.208h7.249a.6.6,0,1,0,0-1.208Z" transform="translate(-306 -369)" fill="#f36290"/>
        </g>
      </g>
      <g id="Group_11556" data-name="Group 11556" transform="translate(18.484 25.914)">
        <g id="Group_11555" data-name="Group 11555">
          <path id="Path_18257" data-name="Path 18257" d="M313.853,429H306.6a.6.6,0,1,0,0,1.208h7.249a.6.6,0,1,0,0-1.208Z" transform="translate(-306 -429)" fill="#f36290"/>
        </g>
      </g>
    </g>
  </g>
</svg>
