<svg xmlns="http://www.w3.org/2000/svg" width="71" height="73" viewBox="0 0 71 73">
  <g id="Group_12990" data-name="Group 12990" transform="translate(-464 -3306)">
    <rect id="Rectangle_2437" data-name="Rectangle 2437" width="71" height="73" rx="12" transform="translate(464 3306)" fill="#fc5d5d" opacity="0.15"/>
    <g id="Outline" transform="translate(482 3325)">
      <path id="Path_18269" data-name="Path 18269" d="M31.217,40.234l-1.131.655a4.032,4.032,0,0,0-.966-.561v-1.3H26.1v1.3a4.032,4.032,0,0,0-.966.559l-.042-.024V38.016c0-1.385-2.873-2.016-5.544-2.016S14,36.631,14,38.016v9.072c0,1.385,2.873,2.016,5.544,2.016,2.543,0,5.264-.574,5.519-1.824l.068-.039a4.032,4.032,0,0,0,.966.559v1.3H29.12V47.8a4.032,4.032,0,0,0,.966-.559l1.131.655,1.512-2.621L31.6,44.623a3.833,3.833,0,0,0,0-1.116l1.129-.653Zm-7.217,0-.746,1.293a11.652,11.652,0,0,1-3.709.522c-2.949,0-4.46-.736-4.536-1.008v-1.8l.023.01q.182.09.39.169c.037.014.077.027.115.041.107.038.217.075.331.109l.165.046q.164.045.336.085c.055.013.109.026.165.038q.216.046.441.085l.085.016q.269.044.549.078l.161.017c.137.015.274.029.413.04l.2.015c.136.009.272.017.408.023l.179.008c.194.007.387.011.579.011s.386,0,.579-.011l.179-.008c.137-.006.273-.014.408-.023l.2-.015c.139-.011.276-.025.413-.04l.161-.017q.28-.034.549-.078l.085-.016q.225-.039.441-.085c.056-.012.11-.025.165-.038q.172-.04.336-.085l.165-.046c.114-.034.224-.071.331-.109.038-.014.079-.027.115-.041q.207-.079.39-.169l.023-.01v1.039Zm-4.455-3.226c.183,0,.361,0,.534.008.061,0,.117.006.177.009.108,0,.218.009.322.015.085.006.165.013.247.02s.151.011.219.018c.1.01.193.021.287.032.048.006.1.011.145.017.124.016.241.034.356.05l.04.006c1.4.232,2.134.634,2.206.83a.173.173,0,0,1-.013.025.219.219,0,0,1-.019.031c-.008.009-.019.019-.028.028a.5.5,0,0,1-.04.039c-.016.014-.026.019-.038.029s-.038.029-.062.045l-.05.03c-.027.016-.05.032-.084.05l-.061.03c-.034.018-.068.035-.106.05l-.071.03c-.042.018-.083.036-.129.054l-.083.03c-.05.018-.1.036-.151.054l-.1.031c-.055.017-.108.035-.167.05l-.119.032c-.059.016-.118.032-.181.048l-.141.032c-.063.015-.124.029-.191.043s-.112.021-.169.031-.13.025-.2.036l-.2.03c-.066.01-.131.021-.2.03l-.229.026-.205.023c-.086.008-.177.014-.266.021-.067.005-.131.012-.2.016-.112.007-.23.012-.348.016-.05,0-.1.006-.151.008-.173.005-.353.008-.534.008-.368,0-.715-.012-1.038-.032-2.258-.144-3.423-.733-3.5-.973C15.1,37.736,16.61,37.008,19.544,37.008Zm-4.536,5.255a11.1,11.1,0,0,0,4.536.793,14.834,14.834,0,0,0,2.991-.284l-.047.082,1.129.652a3.9,3.9,0,0,0-.041.558c0,.113.015.23.025.345a10.3,10.3,0,0,1-4.057.663c-2.949,0-4.46-.736-4.536-1.008h0Zm0,4.825v-1.8a11.158,11.158,0,0,0,4.536.79,14.329,14.329,0,0,0,3.214-.338l.947,1.641a9.748,9.748,0,0,1-4.16.714C16.6,48.1,15.084,47.36,15.008,47.088Zm15.539-3.724a2.92,2.92,0,0,1,0,1.4l-.086.365.891.515-.5.873L29.956,46l-.273.257a3.031,3.031,0,0,1-1.21.7l-.361.107V48.1H27.1V47.068l-.36-.107a3.031,3.031,0,0,1-1.21-.7L25.261,46l-.892.515-.5-.873.891-.515-.086-.365a2.92,2.92,0,0,1,0-1.4L24.756,43l-.891-.515.5-.873.892.515.273-.257a3.031,3.031,0,0,1,1.21-.7l.36-.107V40.032h1.008V41.06l.36.107a3.031,3.031,0,0,1,1.21.7l.273.257.892-.515.5.873-.89.515Z" transform="translate(-5.952 -16.864)" fill="#fc5d5d"/>
      <path id="Path_18270" data-name="Path 18270" d="M39.016,48a2.016,2.016,0,1,0,2.016,2.016A2.016,2.016,0,0,0,39.016,48Zm0,3.024a1.008,1.008,0,1,1,1.008-1.008A1.008,1.008,0,0,1,39.016,51.024Z" transform="translate(-17.36 -22.816)" fill="#fc5d5d"/>
      <path id="Path_18271" data-name="Path 18271" d="M32.048,2H26V12.08h6.048ZM31.04,3.008V9.056H27.008V3.008Zm-2.016,8.064H27.008V10.064H31.04v1.008Z" transform="translate(-11.904)" fill="#fc5d5d"/>
      <path id="Path_18272" data-name="Path 18272" d="M32.008,18.5a.529.529,0,0,0-.146-.358.513.513,0,0,0-.459-.136.321.321,0,0,0-.091.03.394.394,0,0,0-.091.045.857.857,0,0,0-.075.06A.527.527,0,0,0,31,18.5a.5.5,0,1,0,1.008,0Z" transform="translate(-14.384 -7.936)" fill="#fc5d5d"/>
      <path id="Path_18273" data-name="Path 18273" d="M12.008,24H11v3.024H21.08V29.04h1.008V27.024h10.08V24H31.16v2.016H22.088V24H21.08v2.016H12.008Z" transform="translate(-4.464 -10.912)" fill="#fc5d5d"/>
      <path id="Path_18274" data-name="Path 18274" d="M5.024,11.072H4.016V12.08h6.048V11.072H9.056V10.064H12.08V2H2v8.064H5.024Zm3.024,0H6.032V10.064H8.048ZM3.008,3.008h8.064V7.04H3.008Zm0,6.048V8.048h8.064V9.056Z" fill="#fc5d5d"/>
      <path id="Path_18275" data-name="Path 18275" d="M42,12.08H52.08V2H42Zm9.072-1.008H43.008V6.032h8.064ZM43.008,3.008h8.064V5.024H43.008Z" transform="translate(-19.84)" fill="#fc5d5d"/>
      <path id="Path_18276" data-name="Path 18276" d="M45.781,5.086a.286.286,0,0,0-.086-.045.307.307,0,0,0-.1-.03.5.5,0,0,0-.454.136.52.52,0,0,0-.106.166.5.5,0,0,0,.106.549.582.582,0,0,0,.166.106.475.475,0,0,0,.383,0,.589.589,0,0,0,.166-.106.5.5,0,0,0,.147-.358.529.529,0,0,0-.146-.358.5.5,0,0,0-.081-.06Z" transform="translate(-21.327 -1.488)" fill="#fc5d5d"/>
      <path id="Path_18277" data-name="Path 18277" d="M48.862,5.152a.528.528,0,0,0-.716,0,.52.52,0,0,0-.106.166A.5.5,0,0,0,48,5.51a.422.422,0,0,0,.04.192.589.589,0,0,0,.106.166.5.5,0,0,0,.549.106.454.454,0,0,0,.272-.272.475.475,0,0,0,0-.383.582.582,0,0,0-.106-.166Z" transform="translate(-22.816 -1.494)" fill="#fc5d5d"/>
      <path id="Path_18278" data-name="Path 18278" d="M51.862,5.146A.589.589,0,0,0,51.7,5.04a.478.478,0,0,0-.292-.03.321.321,0,0,0-.091.03.394.394,0,0,0-.091.045.856.856,0,0,0-.075.06.47.47,0,0,0-.106.166.475.475,0,0,0,0,.383.589.589,0,0,0,.106.166.582.582,0,0,0,.166.106.5.5,0,0,0,.192.04.521.521,0,0,0,.358-.146.589.589,0,0,0,.106-.166.521.521,0,0,0-.106-.549Z" transform="translate(-24.304 -1.488)" fill="#fc5d5d"/>
    </g>
  </g>
</svg>
