<svg xmlns="http://www.w3.org/2000/svg" width="71" height="73" viewBox="0 0 71 73">
  <g id="Group_12989" data-name="Group 12989" transform="translate(-1386 -2887)">
    <rect id="Rectangle_2436" data-name="Rectangle 2436" width="71" height="73" rx="12" transform="translate(1386 2887)" fill="#7e75e4" opacity="0.15"/>
    <g id="report" transform="translate(1406 2908)">
      <path id="Path_18258" data-name="Path 18258" d="M48,448h1v1H48Zm0,0" transform="translate(-45.008 -420.074)" fill="#7e75e4"/>
      <path id="Path_18259" data-name="Path 18259" d="M80,448h1v1H80Zm0,0" transform="translate(-75.013 -420.074)" fill="#7e75e4"/>
      <path id="Path_18260" data-name="Path 18260" d="M112,448h1v1h-1Zm0,0" transform="translate(-105.019 -420.074)" fill="#7e75e4"/>
      <path id="Path_18261" data-name="Path 18261" d="M384,448h3.989v1H384Zm0,0" transform="translate(-360.064 -420.074)" fill="#7e75e4"/>
      <path id="Path_18262" data-name="Path 18262" d="M29.921,25.931V9.475a2.5,2.5,0,0,0-2.493-2.493h-1.5a6.981,6.981,0,1,0-13.963,0H3.491A2.5,2.5,0,0,0,1,9.475V25.931H0v2.493a2.5,2.5,0,0,0,2.493,2.493H28.425a2.5,2.5,0,0,0,2.493-2.493V25.931ZM27.427,7.979a1.5,1.5,0,0,1,1.5,1.5V25.931h-1V9.974a1,1,0,0,0-1-1H25.637a6.932,6.932,0,0,0,.214-1ZM13.255,5.149l5.293,2.206,1.812,5.436a5.975,5.975,0,0,1-7.105-7.642Zm8.053,7.33L19.52,7.116l3.994-3.995a5.973,5.973,0,0,1-2.207,9.358ZM18.95,1a5.956,5.956,0,0,1,3.86,1.419L18.834,6.393,13.642,4.23A5.985,5.985,0,0,1,18.95,1ZM1.995,9.475a1.5,1.5,0,0,1,1.5-1.5h8.557a6.867,6.867,0,0,0,.214,1H3.989a1,1,0,0,0-1,1V25.931h-1Zm27.926,18.95a1.5,1.5,0,0,1-1.5,1.5H2.493a1.5,1.5,0,0,1-1.5-1.5v-1.5H11.271a3.875,3.875,0,0,0,2.607,1h3.163a3.875,3.875,0,0,0,2.607-1h6.284v-1H19.242l-.146.146a2.887,2.887,0,0,1-2.056.851H13.877a2.888,2.888,0,0,1-2.056-.851l-.146-.146H3.989V9.974h8.662a6.966,6.966,0,0,0,12.6,0h1.681V26.929h2.992Zm0,0" fill="#7e75e4"/>
      <path id="Path_18263" data-name="Path 18263" d="M99.448,290.992a1.488,1.488,0,0,0-.828.252l-1.74-1.3a1.473,1.473,0,0,0,.075-.443,1.5,1.5,0,1,0-2.992,0,1.481,1.481,0,0,0,.088.488l-2.793,2.235a1.466,1.466,0,0,0-1.678.073l-2.15-1.434a1.463,1.463,0,0,0,.05-.365,1.5,1.5,0,0,0-2.992,0,1.463,1.463,0,0,0,.05.365l-2.15,1.434a1.48,1.48,0,0,0-.892-.3,1.5,1.5,0,1,0,1.5,1.5,1.463,1.463,0,0,0-.05-.365l2.15-1.434a1.468,1.468,0,0,0,1.784,0l2.15,1.434a1.466,1.466,0,0,0-.05.365,1.5,1.5,0,1,0,2.992,0A1.481,1.481,0,0,0,91.88,293l2.793-2.235a1.477,1.477,0,0,0,1.614-.023l1.74,1.3a1.473,1.473,0,0,0-.075.443,1.5,1.5,0,1,0,1.5-1.5ZM81.5,293.984a.5.5,0,1,1,.5-.5A.5.5,0,0,1,81.5,293.984Zm4.488-2.992a.5.5,0,1,1,.5-.5A.5.5,0,0,1,85.984,290.992Zm4.488,2.992a.5.5,0,1,1,.5-.5A.5.5,0,0,1,90.472,293.984Zm4.987-3.989a.5.5,0,1,1,.5-.5A.5.5,0,0,1,95.459,289.995Zm3.989,2.992a.5.5,0,1,1,.5-.5A.5.5,0,0,1,99.448,292.987Zm0,0" transform="translate(-75.013 -270.048)" fill="#7e75e4"/>
      <path id="Path_18264" data-name="Path 18264" d="M87.979,176H80v6.981h7.979Zm-1,5.984H81V177h5.984Zm0,0" transform="translate(-75.013 -165.029)" fill="#7e75e4"/>
      <path id="Path_18265" data-name="Path 18265" d="M112,208h3.989v1H112Zm0,0" transform="translate(-105.019 -195.034)" fill="#7e75e4"/>
      <path id="Path_18266" data-name="Path 18266" d="M112,240h3.989v1H112Zm0,0" transform="translate(-105.019 -225.04)" fill="#7e75e4"/>
      <path id="Path_18267" data-name="Path 18267" d="M224,256h1v1h-1Zm0,0" transform="translate(-210.037 -240.042)" fill="#7e75e4"/>
      <path id="Path_18268" data-name="Path 18268" d="M256,256h9.974v1H256Zm0,0" transform="translate(-240.042 -240.042)" fill="#7e75e4"/>
    </g>
  </g>
</svg>
