<svg xmlns="http://www.w3.org/2000/svg" width="71" height="73" viewBox="0 0 71 73">
  <g id="Group_12992" data-name="Group 12992" transform="translate(-1386 -3306)">
    <rect id="Rectangle_2439" data-name="Rectangle 2439" width="71" height="73" rx="12" transform="translate(1386 3306)" fill="#f9c201" opacity="0.1"/>
    <g id="support" transform="translate(1404.807 3327)">
      <g id="Group_12977" data-name="Group 12977" transform="translate(1.193 0)">
        <g id="Group_12976" data-name="Group 12976" transform="translate(0 0)">
          <path id="Path_18833" data-name="Path 18833" d="M31.038,25.787H3.558V9.044A1.515,1.515,0,0,1,5.052,7.512H8.121A4.719,4.719,0,0,0,9.557,8.869V10.51a1.324,1.324,0,0,0,1.322,1.322h.7a5.23,5.23,0,0,0,2.5,3.3v.595a1.488,1.488,0,0,1-1.154,1.455l-1.963.459a4,4,0,0,0-3.1,3.907v2.1h-2.1V9.7H7.745a.455.455,0,1,0,0-.91H5.317a.455.455,0,0,0-.455.455V24.1a.455.455,0,0,0,.455.455H27.58a.455.455,0,0,0,.455-.455V9.241a.455.455,0,0,0-.455-.455H23.73V7.932a1.315,1.315,0,0,0-.069-.419h3.972a1.515,1.515,0,0,1,1.494,1.532V23.893a.455.455,0,0,0,.91,0V9.044a2.425,2.425,0,0,0-2.4-2.441H22.87a.455.455,0,0,0,.274-.542c-.087-.323-.185-.638-.292-.938a8.379,8.379,0,0,0-2-3.259A6.09,6.09,0,0,0,16.9,0a6.3,6.3,0,0,0-2.769.621A4.717,4.717,0,0,0,7.633,6.6H5.052a2.425,2.425,0,0,0-2.4,2.441V25.787h-1a.455.455,0,0,0-.455.455v.939a3.265,3.265,0,0,0,3.261,3.261H28.231a3.265,3.265,0,0,0,3.261-3.261v-.939A.455.455,0,0,0,31.038,25.787Zm-19.606-15.2v.331H10.88a.413.413,0,0,1-.413-.412V7.932a.413.413,0,0,1,.413-.412h.552Zm.356-4.333a.452.452,0,0,0-.17.077c-.1.045-.21.088-.317.126a5.126,5.126,0,0,1,.46-2.133A10.278,10.278,0,0,0,12.9,5.539a5.752,5.752,0,0,1-.894.609C11.935,6.187,11.862,6.223,11.788,6.259Zm.554,4.333V7l.1-.05a6.8,6.8,0,0,0,1.18-.825,8.366,8.366,0,0,0,4.989,1.689,8.016,8.016,0,0,0,2.338-.4v3.178a4.275,4.275,0,0,1-.676,2.31H17.136a.455.455,0,0,0,0,.91h2.356a4.3,4.3,0,0,1-7.15-3.22ZM24.692,23.61H8.777V21.544a3.09,3.09,0,0,1,2.4-3.021l.3-.069a6.1,6.1,0,0,0,1.279,1.537.455.455,0,0,0,.595-.688,5.2,5.2,0,0,1-.938-1.068l.731-.171a2.394,2.394,0,0,0,1.856-2.341v-.189a5.2,5.2,0,0,0,3.484-.064v.253a2.394,2.394,0,0,0,1.856,2.341l.732.171a5.193,5.193,0,0,1-6.6,1.806.455.455,0,0,0-.4.818A6.1,6.1,0,0,0,22,18.453l.3.069a3.09,3.09,0,0,1,2.4,3.021Zm-.962-13.1V9.7h3.4V23.642H25.6v-2.1a4,4,0,0,0-3.1-3.907l-1.963-.459a1.488,1.488,0,0,1-1.154-1.455v-.7a5.253,5.253,0,0,0,1.351-1.21,2.074,2.074,0,0,0,2.054-2.036A1.324,1.324,0,0,0,23.73,10.51Zm-2.3,2.151a5.159,5.159,0,0,0,.279-.829h.173A1.16,1.16,0,0,1,21.426,12.661ZM22.82,7.932V10.51a.413.413,0,0,1-.413.412h-.552v-3.4h.552A.413.413,0,0,1,22.82,7.932ZM16.85.911a5.21,5.21,0,0,1,3.367,1.607,7.483,7.483,0,0,1,1.778,2.91c.1.277.19.569.271.869a.454.454,0,0,0,.275.305h-.133a.456.456,0,0,0-.077.007h-.485a.454.454,0,0,0-.695-.287,5.993,5.993,0,0,1-2.544.582A7.518,7.518,0,0,1,13.9,5.195L12.267,3.433a5.756,5.756,0,0,1,1.066-1.224A5.578,5.578,0,0,1,16.85.911Zm-4.843.12a3.825,3.825,0,0,1,1.136.173c-.134.1-.268.2-.4.312a6.838,6.838,0,0,0-1.432,1.729h0l0,0,0,.006h0A6.033,6.033,0,0,0,10.4,6.7a1.325,1.325,0,0,0-.829,1.061,3.807,3.807,0,0,1,2.439-6.731Zm18.575,26.15a2.354,2.354,0,0,1-2.351,2.351H4.454A2.354,2.354,0,0,1,2.1,27.181V26.7h28.48Z" transform="translate(-1.193 0)" fill="#f9c201"/>
        </g>
      </g>
      <g id="Group_12979" data-name="Group 12979" transform="translate(14.311 8.113)">
        <g id="Group_12978" data-name="Group 12978" transform="translate(0)">
          <circle id="Ellipse_341" data-name="Ellipse 341" cx="0.446" cy="0.446" r="0.446" fill="#f9c201"/>
        </g>
      </g>
      <g id="Group_12981" data-name="Group 12981" transform="translate(17.896 8.113)">
        <g id="Group_12980" data-name="Group 12980">
          <circle id="Ellipse_342" data-name="Ellipse 342" cx="0.446" cy="0.446" r="0.446" fill="#f9c201"/>
        </g>
      </g>
      <g id="Group_12983" data-name="Group 12983" transform="translate(14.872 11.221)">
        <g id="Group_12982" data-name="Group 12982">
          <path id="Path_18834" data-name="Path 18834" d="M234.6,188.859a.446.446,0,0,0-.631,0,1.382,1.382,0,0,1-1.953,0,.446.446,0,1,0-.631.631,2.275,2.275,0,0,0,3.214,0A.446.446,0,0,0,234.6,188.859Z" transform="translate(-231.254 -188.728)" fill="#f9c201"/>
        </g>
      </g>
    </g>
  </g>
</svg>
