<svg xmlns="http://www.w3.org/2000/svg" xmlns:xlink="http://www.w3.org/1999/xlink" width="63" height="63" viewBox="0 0 63 63"><defs><style>.a{fill:#9c0;}.b{fill:#f5fae5;}.c{clip-path:url(#a);}</style><clipPath id="a"><rect class="a" width="35" height="35" transform="translate(611 3917)"/></clipPath></defs><g transform="translate(-597 -3903)"><rect class="b" width="63" height="63" rx="10" transform="translate(597 3903)"/><g class="c"><g transform="translate(613.473 3917)"><path class="a" d="M20.986,28.148c0,1.6.016,3.112,0,4.628A2.088,2.088,0,0,1,19.695,34.8a1.986,1.986,0,0,1-2.18-.333,2.107,2.107,0,0,1-.72-1.778c.018-1.471,0-2.945,0-4.474H13.3v4.316c0,1.518-.829,2.469-2.1,2.467a2.226,2.226,0,0,1-2.107-2.492c-.013-1.4,0-2.8,0-4.381-.667,0-1.285.036-1.9,0a1.537,1.537,0,0,1-1.627-1.609c-.024-5.154-.011-10.293-.011-15.507H24.449v14.8c0,1.9-.431,2.309-2.374,2.338C21.726,28.152,21.4,28.148,20.986,28.148Z"/><path class="a" d="M21.164.087c-.171,1.145-1.1,1.854-1.534,2.874C22.264,4.343,24.238,6.2,24.442,9.48H5.557c.222-3.287,2.183-5.188,4.91-6.55L8.544,0c1.125.329,1.345,1.1,1.694,1.654a1.427,1.427,0,0,0,1.943.767,9.806,9.806,0,0,1,5.8.036,1.276,1.276,0,0,0,1.756-.691A4.32,4.32,0,0,1,21.164.087Zm-9.2,5.754a1,1,0,0,0-1.076-.922.925.925,0,0,0-.967,1A.958.958,0,0,0,10.931,6.99C11.573,6.995,11.924,6.595,11.967,5.841Zm8.2.191c-.047-.667-.389-1.111-1.022-1.111A.966.966,0,0,0,18.09,5.957a.962.962,0,0,0,.945,1.036,1.032,1.032,0,0,0,1.131-.96Z"/><path class="a" d="M30.041,17.363c0,1.369.018,2.738,0,4.107a2.065,2.065,0,0,1-2.052,2.265,2.09,2.09,0,0,1-2.132-2.307q-.027-4.105,0-8.213a2.069,2.069,0,0,1,2.056-2.269,2.1,2.1,0,0,1,2.136,2.312c.022,1.367,0,2.736,0,4.105Z"/><path class="a" d="M4.223,17.3c0,1.369.02,2.738,0,4.105a2.089,2.089,0,0,1-2.109,2.327A2.047,2.047,0,0,1,.027,21.486q-.06-4.161,0-8.322a2.026,2.026,0,0,1,2.116-2.2A2.045,2.045,0,0,1,4.223,13.2C4.254,14.569,4.223,15.932,4.223,17.3Z"/></g></g></g></svg>