<svg xmlns="http://www.w3.org/2000/svg" width="577.099" height="413.651" viewBox="0 0 577.099 413.651"><defs><style>.a{fill:#fff;}.b{fill:#e5e5e5;}.c{fill:#c6c6c6;}</style></defs><g transform="translate(-40.585 -68.353)"><g transform="translate(40.585 252.108)"><g transform="translate(402.907 29.528)"><rect class="a" width="136.014" height="193.82" rx="5.233" transform="translate(8.294 3.272)"/><path d="M358.2,166.139H240a14.7,14.7,0,0,0-14.688,14.685V351.818A14.7,14.7,0,0,0,240,366.5H358.2a14.7,14.7,0,0,0,14.688-14.686V180.824A14.7,14.7,0,0,0,358.2,166.139Zm8.144,185.679a8.153,8.153,0,0,1-8.144,8.142H245.019a8.152,8.152,0,0,1-8.142-8.142V180.824a8.152,8.152,0,0,1,8.142-8.142H358.2a8.153,8.153,0,0,1,8.144,8.142Z" transform="translate(-225.31 -166.139)"/><path d="M273.03,252.205a8.267,8.267,0,1,1-8.264-8.519A8.394,8.394,0,0,1,273.03,252.205Z" transform="translate(-188.466 -74.547)"/><path d="M4.191,0H62.534a4.191,4.191,0,0,1,4.191,4.191V9.914a0,0,0,0,1,0,0H0a0,0,0,0,1,0,0V4.191A4.191,4.191,0,0,1,4.191,0Z" transform="translate(109.663 13.186) rotate(180)"/><path class="b" d="M1.765,0h45.5a1.765,1.765,0,0,1,1.765,1.765V43.751a1.765,1.765,0,0,1-1.765,1.765H1.764A1.764,1.764,0,0,1,0,43.751V1.765A1.765,1.765,0,0,1,1.765,0Z" transform="translate(21.764 107.078)"/><rect class="b" width="49.031" height="45.516" rx="1.764" transform="translate(80.331 107.078)"/><g transform="translate(21.763 26.799)"><path class="b" d="M342.887,183.8v60.853a5.373,5.373,0,0,1-5.37,5.37H240.632a5.351,5.351,0,0,1-5.344-5.37V183.8a5.351,5.351,0,0,1,5.344-5.37h96.885A5.373,5.373,0,0,1,342.887,183.8Z" transform="translate(-235.288 -178.426)"/><path class="c" d="M342.887,213.707v17.863a5.373,5.373,0,0,1-5.37,5.37H240.632a5.351,5.351,0,0,1-5.344-5.37V213.707L269.124,189.5l30.913,23.957,20.341-15.471Z" transform="translate(-235.288 -165.348)"/><circle class="c" cx="9.266" cy="9.266" r="9.266" transform="translate(56.524 10.446)"/></g></g><g transform="translate(62.199)"><g transform="translate(72.969 197.156)"><path class="a" d="M128.067,244.493H413.235v1.2c0,13.8-11.429,24.993-25.541,24.993H102.557" transform="translate(-102.557 -241.221)"/><path d="M387.7,275.729H102.557v-6.543H387.7a22.093,22.093,0,0,0,22.167-19.65h-281.8v-6.543h288.44v4.471C416.507,263.051,403.582,275.729,387.7,275.729Z" transform="translate(-102.557 -242.993)"/></g><path d="M69.1,242.987v20.967a11.8,11.8,0,0,0,11.787,11.787h61.183c15.874,0,28.791-12.683,28.791-28.274v-4.48Z" transform="translate(-69.102 -45.845)"/><path class="a" d="M0,0H319.8a0,0,0,0,1,0,0V187.677a9.465,9.465,0,0,1-9.465,9.465H9.465A9.465,9.465,0,0,1,0,187.677V0A0,0,0,0,1,0,0Z" transform="translate(323.075 200.414) rotate(180)"/><path d="M395.45,356.287H69.1V176.517A23.942,23.942,0,0,1,93.018,152.6H371.531a23.944,23.944,0,0,1,23.918,23.916Zm-319.8-6.543H388.906V176.517a17.394,17.394,0,0,0-17.375-17.373H93.018a17.392,17.392,0,0,0-17.373,17.373Z" transform="translate(-69.102 -152.601)"/><g transform="translate(12.642 12.426)"><path d="M375.96,349.558H74.9V170.069A11.784,11.784,0,0,1,86.667,158.3H364.188a11.785,11.785,0,0,1,11.772,11.771ZM81.441,343.015H369.416V170.069a5.233,5.233,0,0,0-5.228-5.228H86.667a5.233,5.233,0,0,0-5.226,5.228Z" transform="translate(-74.898 -158.298)"/></g><path d="M4.578,0H69.725A4.578,4.578,0,0,1,74.3,4.578v6.046a0,0,0,0,1,0,0H0a0,0,0,0,1,0,0V4.578A4.578,4.578,0,0,1,4.578,0Z" transform="translate(274.611 211.051) rotate(180)"/><rect class="b" width="118.333" height="49.951" rx="1.73" transform="translate(170.375 128.083)"/><rect class="b" width="118.333" height="40.593" rx="1.559" transform="translate(37.637 137.441)"/><rect class="b" width="118.333" height="40.593" rx="1.559" transform="translate(37.637 40.166)"/><rect class="b" width="118.333" height="40.593" rx="1.559" transform="translate(37.637 89.502)"/><g transform="translate(170.376 40.165)"><path class="b" d="M265.548,176.922v66.923a5.911,5.911,0,0,1-5.906,5.906H153.092a5.885,5.885,0,0,1-5.876-5.906V176.922a5.885,5.885,0,0,1,5.876-5.906h106.55A5.911,5.911,0,0,1,265.548,176.922Z" transform="translate(-147.216 -171.016)"/><path class="c" d="M265.548,209.817v19.645a5.911,5.911,0,0,1-5.906,5.906H153.092a5.885,5.885,0,0,1-5.876-5.906V209.817l37.21-26.623,34,26.348,22.37-17.015Z" transform="translate(-147.216 -156.632)"/><circle class="c" cx="10.19" cy="10.19" r="10.19" transform="translate(62.162 11.489)"/></g></g><g transform="translate(0 53.056)"><rect class="a" width="85.599" height="170.293" rx="5.726" transform="translate(6.656 3.271)"/><path d="M120.351,176.926H59.731c-.028,0-.057,0-.085,0H56.335a15.768,15.768,0,0,0-15.75,15.748v145.33a15.768,15.768,0,0,0,15.75,15.75h3.311c.028,0,.057,0,.085,0h60.62A15.779,15.779,0,0,0,136.111,338V192.687A15.778,15.778,0,0,0,120.351,176.926ZM129.568,338a9.23,9.23,0,0,1-9.217,9.22H69.291v0h-9.6A9.227,9.227,0,0,1,50.513,338V192.687a9.227,9.227,0,0,1,9.174-9.213h9.6v0h51.06a9.228,9.228,0,0,1,9.217,9.217Z" transform="translate(-40.585 -176.926)"/><path d="M73.64,253.476a6.734,6.734,0,1,1-6.733-6.733A6.733,6.733,0,0,1,73.64,253.476Z" transform="translate(-17.45 -94.464)"/><path d="M79.481,178.428a10.523,10.523,0,1,1-21.046,0Z" transform="translate(-19.502 -175.152)"/><rect class="b" width="61.817" height="21.206" rx="0.815" transform="translate(18.544 69.477)"/><rect class="b" width="27.937" height="50.839" rx="1.211" transform="translate(18.551 96.356)"/><rect class="b" width="27.937" height="50.839" rx="1.211" transform="translate(52.424 96.356)"/><g transform="translate(18.55 22.871)"><path class="b" d="M110.907,190.5v34.961a3.087,3.087,0,0,1-3.086,3.084H52.161a3.074,3.074,0,0,1-3.071-3.084V190.5a3.074,3.074,0,0,1,3.071-3.084h55.66A3.087,3.087,0,0,1,110.907,190.5Z" transform="translate(-49.09 -187.412)"/><path class="c" d="M110.907,207.682v10.262a3.087,3.087,0,0,1-3.086,3.084H52.161a3.074,3.074,0,0,1-3.071-3.084V207.682l19.438-13.909,17.761,13.765,11.686-8.888Z" transform="translate(-49.09 -179.899)"/><path class="c" d="M74.625,195.487a5.323,5.323,0,1,1-5.324-5.324A5.323,5.323,0,0,1,74.625,195.487Z" transform="translate(-31.504 -184.163)"/></g></g></g><g transform="translate(461.643 166.089)"><path d="M259.882,165.665a26.251,26.251,0,1,1,26.25-26.25A26.28,26.28,0,0,1,259.882,165.665Zm0-49.206a22.955,22.955,0,1,0,22.956,22.956A22.982,22.982,0,0,0,259.882,116.459Z" transform="translate(-233.632 -113.163)"/><g transform="translate(9.294 15.591)"><path d="M237.893,129.009v-2.375l9.928-3.656v2.406L241,127.82l6.823,2.436v2.408Z" transform="translate(-237.893 -117.161)"/><path d="M251.483,120.311h2.892l-8.406,21.32h-2.892Z" transform="translate(-231.77 -120.311)"/><path d="M248.888,132.664v-2.408l6.823-2.436-6.823-2.436v-2.406l9.931,3.656v2.375Z" transform="translate(-224.907 -117.161)"/></g><g transform="translate(24.788 50.55)"><path d="M247.921,136.339l-1.463,39.645L245,136.339Z" transform="translate(-244.997 -136.339)"/></g></g><g transform="translate(52.721 172.645)"><path d="M78.275,180.42A32.126,32.126,0,1,1,110.4,148.3,32.16,32.16,0,0,1,78.275,180.42Zm0-60.28A28.154,28.154,0,1,0,106.426,148.3,28.186,28.186,0,0,0,78.275,120.141Z" transform="translate(-46.149 -116.169)"/><g transform="translate(30.635 62.266)"><path d="M63.174,144.717l-1.489,44.24-1.49-44.24Z" transform="translate(-60.195 -144.717)"/></g><g transform="translate(21.933 19.569)"><path d="M60.574,125.141V146.59c0,1.985.875,2.7,2.264,2.7s2.264-.715,2.264-2.7V125.141h4.129v21.17c0,4.449-2.223,6.99-6.513,6.99s-6.513-2.541-6.513-6.99v-21.17Z" transform="translate(-56.205 -125.141)"/><path d="M63.547,125.141h4.369v27.8H63.547Z" transform="translate(-47.533 -125.141)"/></g></g><g transform="translate(351.004 68.353)"><g transform="translate(0)"><path d="M224.921,152.383a42.015,42.015,0,1,1,42.015-42.013A42.061,42.061,0,0,1,224.921,152.383Zm0-80.174a38.159,38.159,0,1,0,38.161,38.161A38.2,38.2,0,0,0,224.921,72.209Z" transform="translate(-182.906 -68.353)"/></g><g transform="translate(40.067 81.435)"><path d="M205.172,105.689l-1.948,86.725-1.948-86.725Z" transform="translate(-201.276 -105.689)"/></g><g transform="translate(21.375 26.453)"><path d="M209.826,111.606h-4.938l-.842-5.645h-6l-.844,5.645h-4.491l4.98-31.125h7.158Zm-11.161-9.87h4.711L201.02,85.995Z" transform="translate(-192.706 -80.481)"/><path d="M216.095,88.174V92.22c0,4.979-2.4,7.693-7.294,7.693h-2.312v11.693H201.6V80.481h7.2C213.691,80.481,216.095,83.194,216.095,88.174Zm-9.606-3.248V95.465H208.8c1.555,0,2.4-.711,2.4-2.934v-4.67c0-2.223-.846-2.936-2.4-2.936Z" transform="translate(-182.202 -80.481)"/><path d="M209.391,80.481h4.89v31.125h-4.89Z" transform="translate(-172.999 -80.481)"/></g></g><g transform="translate(144.653 96.769)"><path d="M125.065,154.913a36.766,36.766,0,1,1,36.765-36.765A36.808,36.808,0,0,1,125.065,154.913Zm0-68.987a32.219,32.219,0,1,0,32.219,32.222A32.256,32.256,0,0,0,125.065,85.926Z" transform="translate(-88.298 -81.381)"/><g transform="translate(35.061 71.26)"><path d="M107.783,114.052l-1.7,61.389-1.7-61.389Z" transform="translate(-104.373 -114.052)"/></g><g transform="translate(21.037 19.748)"><path d="M105.529,111.782l.242,4.862c.146,2.674.875,3.453,2.576,3.453h.779v4.375H106.4c-3.014,0-5.156-1.7-5.4-5.4l-.388-6.517c-.146-2.236-.633-2.918-2.674-2.918v-4.375c2.042,0,2.528-.681,2.674-2.918l.388-6.515c.242-3.695,2.384-5.4,5.4-5.4h2.722V94.81h-.779c-1.7,0-2.43.779-2.576,3.453l-.242,4.862c-.1,1.8-.683,3.7-3.16,4.327C104.846,108.085,105.431,109.98,105.529,111.782Z" transform="translate(-97.943 -90.435)"/><path d="M110.838,103.125l-.244-4.862c-.144-2.674-.875-3.453-2.576-3.453h-.779V90.435h2.724c3.014,0,5.154,1.7,5.4,5.4l.388,6.515c.146,2.238.633,2.918,2.674,2.918v4.375c-2.042,0-2.528.683-2.674,2.918l-.388,6.517c-.242,3.695-2.382,5.4-5.4,5.4h-2.724V120.1h.779c1.7,0,2.432-.779,2.576-3.453l.244-4.862c.1-1.8.68-3.7,3.16-4.329C111.518,106.822,110.936,104.924,110.838,103.125Z" transform="translate(-86.963 -90.435)"/></g></g><g transform="translate(563.108 257.607)"><g transform="translate(27.01 1.4)"><path d="M294.36,168.336a3.567,3.567,0,0,0,4.844-1.374l3.3-5.9a3.561,3.561,0,1,0-6.218-3.472l-3.3,5.9A3.567,3.567,0,0,0,294.36,168.336Z" transform="translate(-292.535 -155.764)"/></g><g transform="translate(40.949 26.49)"><path d="M300.749,175.768a3.53,3.53,0,0,0,2.709.318l6.5-1.843a3.559,3.559,0,0,0,2.456-4.4,3.647,3.647,0,0,0-4.395-2.454l-6.5,1.843a3.56,3.56,0,0,0-.768,6.532Z" transform="translate(-298.926 -167.267)"/></g><path d="M282.131,166.158a3.56,3.56,0,1,0,6.851-1.941l-1.843-6.5a3.56,3.56,0,1,0-6.851,1.941Z" transform="translate(-280.152 -155.122)"/></g><g transform="translate(247.067 144.138)"><path d="M145.455,128.342a2.367,2.367,0,0,0-1.684.694l-4.439,4.443a2.38,2.38,0,0,0,3.365,3.365l4.441-4.443a2.377,2.377,0,0,0-1.684-4.059Z" transform="translate(-131.262 -73.284)"/><path d="M164.378,111.211A21.057,21.057,0,0,0,150.8,148.377l.332.279v17.512a9.463,9.463,0,0,0,2.652,6.43c2.345,2.438,5.906,3.673,10.589,3.673s8.245-1.235,10.589-3.673a9.455,9.455,0,0,0,2.652-6.43V148.656l.332-.279a21.057,21.057,0,0,0-13.573-37.166Zm7.44,54.314c-.009.728-.408,4.358-7.44,4.358-7.01,0-7.427-3.6-7.44-4.34V151.867l1.16.39.534.17a19.99,19.99,0,0,0,11.488,0l1.7-.552Zm3.819-23.179a15.1,15.1,0,1,1,3.852-10.066A15.131,15.131,0,0,1,175.637,142.346Z" transform="translate(-125.739 -93.518)"/><path d="M154.257,114.138a2.381,2.381,0,0,0,2.38-2.38v-6.279a2.38,2.38,0,0,0-4.759,0v6.279A2.381,2.381,0,0,0,154.257,114.138Z" transform="translate(-115.618 -103.099)"/><path d="M164.5,116.707a2.364,2.364,0,0,0,1.684-.7l4.441-4.443a2.377,2.377,0,0,0,0-3.365,2.458,2.458,0,0,0-3.363,0l-4.443,4.441a2.38,2.38,0,0,0,1.682,4.063Z" transform="translate(-103.521 -97.856)"/><path d="M174.281,119.125H168a2.381,2.381,0,1,0,0,4.761h6.279a2.381,2.381,0,1,0,0-4.761Z" transform="translate(-99.386 -84.17)"/><path d="M167.148,129.073a2.382,2.382,0,0,0-4.063,1.684,2.357,2.357,0,0,0,.7,1.682l4.439,4.441a2.381,2.381,0,1,0,3.368-3.365Z" transform="translate(-102.38 -73.206)"/><path d="M145.466,116.025a2.381,2.381,0,1,0,3.368-3.365l-4.441-4.441a2.381,2.381,0,0,0-3.368,3.365Z" transform="translate(-129.256 -97.871)"/><path d="M146.294,121.5a2.381,2.381,0,0,0-2.38-2.38h-6.279a2.381,2.381,0,1,0,0,4.761h6.279A2.383,2.383,0,0,0,146.294,121.5Z" transform="translate(-135.253 -84.17)"/></g></g></svg>