<svg xmlns="http://www.w3.org/2000/svg" width="588.323" height="480.999" viewBox="0 0 588.323 480.999"><defs><style>.a{fill:#f5f5f5;}.b{fill:#e0e0e0;}.c{fill:#ebebeb;}.d{fill:#263238;}.e{fill:#fff;}.f{fill:#455a64;}.g{fill:#e8505b;}.h{fill:#eb996e;}.i{fill:#484ce7;}.j{fill:#898fdb;}.k{opacity:0.2;}.l{fill:#ffbe9d;}.m{fill:#ac5548;}.n{fill:#374888;}.o{fill:#49609b;}.p{fill:#e3964d;}.q{fill:#273860;}.r{fill:#cc8f71;}.s{fill:#a8674a;}.t{fill:#304787;}.u{fill:#ae5649;}.v{opacity:0.5;}.w{fill:#cc7871;}.x{fill:#85b6bd;}.y{fill:#729cac;}</style></defs><g transform="translate(-24.162 -64.028)"><g transform="translate(52.503 64.028)"><g transform="translate(371.152 47.533)"><path class="a" d="M376.752,102.408c-4.862-2.95-11.069-.655-13.932,4.023s-3.316,9.031-1.9,14.784a18.066,18.066,0,0,0-12.2-8.9c-5.367-1.248-11.413,1.566-12.763,7.1a13.878,13.878,0,0,0,1.833,9.935c1.745,3.01,4.026,5.938,6.963,7.5,10.46,5.548,14.869,5.47,26.278,7.753,6.343-9.683,8.555-12.366,11.925-23.68.945-3.177.464-6.855-.449-10.211A13.96,13.96,0,0,0,376.752,102.408Z" transform="translate(-335.661 -101.091)"/></g><g transform="translate(0 257.961)"><path class="b" d="M58.913,278.326a7.727,7.727,0,0,0,1.32-8.4,7.263,7.263,0,1,0-13.284,5.8,7.715,7.715,0,0,0,7.142,4.732c-9.522,6.047-4.157,16.93-4.157,16.93l24.171-10.556S69.7,275.382,58.913,278.326Z" transform="translate(-46.26 -265.17)"/></g><g transform="translate(92.276)"><path class="c" d="M155.8,94.129a15.172,15.172,0,0,0,12.607-10.949c2.376-8.037-1.8-16.364-9.34-18.6S143.5,67.056,141.12,75.094a15.151,15.151,0,0,0,4.744,16.14c-21.95-2.957-27.653,20.172-27.653,20.172l49.654,14.713S175.728,103.349,155.8,94.129Z" transform="translate(-118.211 -64.028)"/></g><g transform="translate(460.919 75.451)"><path class="b" d="M424.761,123.954a4.434,4.434,0,0,0-6.188.368,7.581,7.581,0,0,0-2.185,5.987,7.721,7.721,0,0,0-4.249-4.861,4.487,4.487,0,0,0-5.991,1.762,5.929,5.929,0,0,0-.171,4.316,8.157,8.157,0,0,0,2.2,3.781c3.841,3.3,5.687,3.679,10.23,5.7,3.555-3.442,4.73-4.351,7.2-8.753a8.19,8.19,0,0,0,.773-4.3A5.967,5.967,0,0,0,424.761,123.954Z" transform="translate(-405.656 -122.86)"/></g><g transform="translate(96.811 82.824)"><path class="b" d="M127.217,128.609l1.69,3.425,3.779.549-2.735,2.666.646,3.764-3.381-1.777-3.38,1.777.646-3.764-2.735-2.666,3.779-.549Z" transform="translate(-121.747 -128.609)"/></g><g transform="translate(364.863 127.522)"><path class="b" d="M340.654,163.462l3.058,6.2,6.838.994-4.948,4.823,1.168,6.81-6.116-3.215-6.116,3.215,1.168-6.81-4.948-4.823,6.838-.994Z" transform="translate(-330.758 -163.462)"/></g><g transform="translate(74.515 160.142)"><path class="b" d="M107.1,188.9l.845,1.712,1.89.275-1.368,1.333.323,1.882-1.69-.889-1.69.889.323-1.882-1.368-1.333,1.89-.275Z" transform="translate(-104.362 -188.897)"/></g><g transform="translate(291.77 311.126)"><path class="c" d="M299.442,455.3c-21.55-15.056-26.44-43-25.587-68.124.142-4.194-.318-8.614,1.676-12.294s6.65-6.193,10.4-4.426c3.114,1.466,4.471,5.089,6.214,8.085a24.538,24.538,0,0,0,9.834,9.393c2.67,1.385,5.974,2.233,8.611.778,3.617-2,4.042-6.992,4.017-11.164q-.073-11.66-.145-23.318c-.027-4.171-.038-8.428,1.258-12.388s4.163-7.635,8.131-8.747,8.874,1.176,9.712,5.258c.348,1.7,0,3.463.118,5.194s.922,3.646,2.566,4.128c1.665.49,3.333-.693,4.58-1.913,4.305-4.212,7.227-9.635,9.956-15.031s5.38-10.918,9.286-15.51,9.308-8.232,15.281-8.571S387.691,310,389.2,315.859c1.513,5.879-1.917,11.845-5.651,16.6a93.137,93.137,0,0,1-19.382,18.477c-1.315.932-2.739,1.94-3.242,3.486-.907,2.78,1.729,5.542,4.473,6.456,3.109,1.035,6.482.712,9.734,1.1s6.774,1.817,8.005,4.89c1.708,4.263-1.857,8.731-5.366,11.658a79.753,79.753,0,0,1-23.6,13.625c-3.068,1.122-6.3,2.107-8.771,4.262s-3.967,5.9-2.473,8.841,5.333,3.882,8.546,3.284,6.089-2.341,9.152-3.495c5.731-2.164,13.133-1.769,16.8,3.184,2.412,3.256,2.625,7.79,1.4,11.672s-3.695,7.224-6.323,10.307c-9.186,10.777-20.945,19.453-34.242,24.063s-25.614,5.858-38.827,1.026" transform="translate(-273.764 -306.625)"/><g transform="translate(25.348 3.512)"><path class="b" d="M293.529,473.146a183.171,183.171,0,0,1,6.815-34.373,373.566,373.566,0,0,1,14.833-40.234q2.245-5.24,4.431-10.347c1.462-3.392,2.911-6.757,4.532-9.96a186.62,186.62,0,0,1,10.37-17.873c3.573-5.525,7.165-10.638,10.559-15.394s6.664-9.12,9.8-12.974a148.029,148.029,0,0,1,16.15-17.07c2.057-1.86,3.7-3.25,4.827-4.177l1.286-1.045a3.206,3.206,0,0,1,.455-.336,2.871,2.871,0,0,1-.4.4l-1.239,1.1c-1.093.966-2.7,2.391-4.727,4.281a156.744,156.744,0,0,0-15.93,17.194c-3.1,3.865-6.328,8.241-9.7,13s-6.937,9.888-10.486,15.409a188.53,188.53,0,0,0-10.289,17.825c-1.608,3.187-3.041,6.524-4.5,9.925s-2.93,6.851-4.425,10.343a383.209,383.209,0,0,0-14.864,40.134,186.234,186.234,0,0,0-6.95,34.22" transform="translate(-293.529 -309.363)"/></g><g transform="translate(50.075 26.466)"><path class="b" d="M318.914,373.147a8.522,8.522,0,0,1-.408-1.78c-.219-1.152-.481-2.829-.773-4.907-.59-4.153-1.208-9.915-1.866-16.27s-1.357-12.1-2.008-16.229c-.321-2.066-.6-3.737-.8-4.889a8.253,8.253,0,0,1-.232-1.811,8.418,8.418,0,0,1,.525,1.748c.295,1.135.654,2.8,1.041,4.858.791,4.123,1.579,9.874,2.237,16.239.634,6.274,1.207,11.949,1.644,16.285.209,1.958.387,3.608.531,4.931A8.432,8.432,0,0,1,318.914,373.147Z" transform="translate(-312.809 -327.262)"/></g><g transform="translate(56.179 62.274)"><path class="b" d="M371.19,355.238a11.692,11.692,0,0,1-2.139.255c-1.376.123-3.368.29-5.821.575-4.911.53-11.669,1.5-19.078,2.9s-14.061,2.972-18.838,4.24c-2.4.617-4.319,1.168-5.651,1.542a11.655,11.655,0,0,1-2.093.514,11.264,11.264,0,0,1,2-.8c1.307-.462,3.213-1.1,5.6-1.784,4.754-1.407,11.41-3.057,18.841-4.473a189.233,189.233,0,0,1,19.168-2.678c2.469-.215,4.472-.3,5.858-.328A11.277,11.277,0,0,1,371.19,355.238Z" transform="translate(-317.569 -355.183)"/></g><g transform="translate(5.821 63.452)"><path class="b" d="M305.3,424.584a2.735,2.735,0,0,1-.368-.654c-.247-.525-.55-1.164-.917-1.939-.789-1.688-1.866-4.16-3.157-7.233-2.01-4.521-4.291-10.238-9.413-24.276-3.523-9.54-6.746-18.157-9.2-24.344-1.2-3.009-2.193-5.483-2.929-7.322l-.786-2a2.8,2.8,0,0,1-.226-.718,2.841,2.841,0,0,1,.368.655c.248.525.55,1.163.917,1.938.789,1.689,1.866,4.162,3.157,7.233,2.587,6.143,5.893,14.741,9.415,24.28s6.743,18.154,9.2,24.343c1.2,3.006,2.193,5.481,2.928,7.319.316.8.575,1.458.786,2A2.838,2.838,0,0,1,305.3,424.584Z" transform="translate(-278.303 -356.101)"/></g><g transform="translate(32.822 108.964)"><path class="b" d="M370.61,391.6a2.88,2.88,0,0,1-.708.291l-2.069.694-7.631,2.473c-6.442,2.089-15.306,5.077-25.1,8.391s-18.695,6.226-25.183,8.182c-3.243.98-5.875,1.745-7.705,2.237l-2.11.555a2.826,2.826,0,0,1-.75.141,2.942,2.942,0,0,1,.707-.292l2.07-.693c1.911-.619,4.49-1.454,7.628-2.473,6.443-2.088,15.309-5.077,25.1-8.393s18.691-6.225,25.179-8.181c3.243-.98,5.875-1.745,7.706-2.237l2.11-.555A2.811,2.811,0,0,1,370.61,391.6Z" transform="translate(-299.357 -391.589)"/></g></g><g transform="translate(231.709 4.445)"><path class="c" d="M273.045,74.282V90.806a6.789,6.789,0,0,1-6.788,6.788h-28.6v9.451l-5.133-9.034h0a6.043,6.043,0,0,1-5.593-6.025v-17.7a6.789,6.789,0,0,1,6.789-6.788h32.535A6.789,6.789,0,0,1,273.045,74.282Z" transform="translate(-226.932 -67.494)"/><g transform="translate(30.528 13.139)"><circle class="b" cx="2.795" cy="2.795" r="2.795"/></g><g transform="translate(19.911 13.139)"><circle class="b" cx="2.795" cy="2.795" r="2.795"/></g><g transform="translate(9.293 13.139)"><path class="b" d="M234.178,80.534a2.8,2.8,0,1,0,2.8-2.795A2.795,2.795,0,0,0,234.178,80.534Z" transform="translate(-234.178 -77.739)"/></g></g><g transform="translate(312.714 17.583)"><path class="b" d="M304.25,77.739l4.374,8.863,9.781,1.421-7.077,6.9L313,104.663l-8.748-4.6-8.748,4.6,1.671-9.741-7.078-6.9,9.781-1.421Z" transform="translate(-290.095 -77.739)"/></g><g transform="translate(202.792 62.556)"><path class="b" d="M211.462,112.806l2.187,4.431,4.89.711L215,121.4l.835,4.871-4.374-2.3-4.374,2.3.835-4.871-3.539-3.449,4.891-.711Z" transform="translate(-204.384 -112.806)"/></g></g><g transform="translate(24.162 544.164)"><path class="d" d="M603.429,438.743c0,.185-129.683.333-289.619.333-159.992,0-289.647-.149-289.647-.333s129.655-.335,289.647-.335C473.745,438.408,603.429,438.558,603.429,438.743Z" transform="translate(-24.162 -438.408)"/></g><g transform="translate(192.521 154.025)"><g transform="translate(0 0)"><g transform="translate(8.776 11.31)"><path class="e" d="M315.817,143.63l-25.627-.118a6.366,6.366,0,0,0-6.25,6.477l-.021,4.648a6.364,6.364,0,0,1-6.25,6.477l-49.953-.231a6.371,6.371,0,0,1-6.194-6.533l.019-4.649a6.373,6.373,0,0,0-6.2-6.534l-9.013-.041-22.429-.1a20.166,20.166,0,0,0-20.257,20.08l-1.367,323.438a20.164,20.164,0,0,0,20.071,20.25l131.912.609a20.165,20.165,0,0,0,20.257-20.079l1.367-323.441A20.165,20.165,0,0,0,315.817,143.63Z" transform="translate(-162.281 -143.021)"/><g transform="translate(17.182 38.726)"><g transform="translate(2.532 2.534)"><path class="f" d="M185.862,183.306a4.205,4.205,0,0,0,2.506-3.89,3.951,3.951,0,1,0-7.886-.037,4.2,4.2,0,0,0,2.512,3.927,6.312,6.312,0,0,0-5.342,4.587,8.944,8.944,0,0,0,5.472,2.948l2.429.012a8.94,8.94,0,0,0,5.556-2.972A6.206,6.206,0,0,0,185.862,183.306Z" transform="translate(-177.653 -175.193)"/></g><path class="f" d="M184.934,191.5c0-.076.8-.044,2.157-.41a8.948,8.948,0,0,0,4.779-3.279,8.735,8.735,0,0,0,1.189-8.225,8.558,8.558,0,0,0-3.023-4,8.609,8.609,0,0,0-10.2,0,8.552,8.552,0,0,0-3.024,4,8.733,8.733,0,0,0,1.19,8.225,8.934,8.934,0,0,0,4.777,3.279c1.357.367,2.161.335,2.156.41a1.78,1.78,0,0,1-.575.041,7.013,7.013,0,0,1-1.647-.191,8.926,8.926,0,0,1-5.1-3.243,9.087,9.087,0,0,1-1.767-3.867,9.244,9.244,0,0,1,.368-4.871,9.151,9.151,0,0,1,3.222-4.332,9.231,9.231,0,0,1,11,0,9.19,9.19,0,0,1,1.821,13.067,8.929,8.929,0,0,1-5.1,3.245,7.01,7.01,0,0,1-1.645.191A1.8,1.8,0,0,1,184.934,191.5Z" transform="translate(-175.678 -173.217)"/><g transform="translate(29.082 8.567)"><rect class="f" width="72.07" height="3.594"/></g><g transform="translate(139.784 5.264)"><g transform="translate(0.001)"><circle class="f" cx="0.881" cy="0.881" r="0.881"/></g><g transform="translate(0 3.169)"><path class="f" d="M286.435,180.672a.881.881,0,1,1-.881-.88A.881.881,0,0,1,286.435,180.672Z" transform="translate(-284.673 -179.792)"/></g><g transform="translate(0.001 6.336)"><circle class="f" cx="0.881" cy="0.881" r="0.881"/></g></g></g><g transform="translate(1.223 65.326)"><rect class="a" width="172.385" height="149.653"/><g transform="translate(17.789 11.233)"><g transform="translate(146.721 123.616)"><path class="b" d="M291.509,302.311c0-.185,1.435-.335,3.206-.335-.668.668-.186.185-.335.333h0v-.326l.005-.318.019-.6c.017-.385.041-.73.072-1.02.06-.58.144-.939.236-.939s.176.359.236.939c.03.29.054.635.072,1.02l.019.6.005.318v.326h0c-.149.149.333-.332-.333.335C292.944,302.645,291.509,302.495,291.509,302.311Z" transform="translate(-291.509 -299.105)"/></g><g transform="translate(134.274 126.488)"><path class="b" d="M281.8,301.679c0-.185,1.393-.335,3.111-.335s3.113.15,3.113.335-1.394.333-3.113.333S281.8,301.862,281.8,301.679Z" transform="translate(-281.803 -301.344)"/></g><g transform="translate(121.826 126.488)"><path class="b" d="M272.1,301.679c0-.185,1.393-.335,3.111-.335s3.113.15,3.113.335-1.394.333-3.113.333S272.1,301.862,272.1,301.679Z" transform="translate(-272.097 -301.344)"/></g><g transform="translate(109.378 126.488)"><path class="b" d="M262.391,301.679c0-.185,1.393-.335,3.111-.335s3.113.15,3.113.335-1.394.333-3.113.333S262.391,301.862,262.391,301.679Z" transform="translate(-262.391 -301.344)"/></g><g transform="translate(96.929 126.488)"><path class="b" d="M252.684,301.679c0-.185,1.394-.335,3.113-.335s3.113.15,3.113.335-1.394.333-3.113.333S252.684,301.862,252.684,301.679Z" transform="translate(-252.684 -301.344)"/></g><g transform="translate(84.481 126.488)"><path class="b" d="M242.978,301.679c0-.185,1.394-.335,3.113-.335s3.111.15,3.111.335-1.393.333-3.111.333S242.978,301.862,242.978,301.679Z" transform="translate(-242.978 -301.344)"/></g><g transform="translate(72.034 126.488)"><path class="b" d="M233.272,301.679c0-.185,1.394-.335,3.113-.335s3.111.15,3.111.335-1.393.333-3.111.333S233.272,301.862,233.272,301.679Z" transform="translate(-233.272 -301.344)"/></g><g transform="translate(59.586 126.488)"><path class="b" d="M223.566,301.679c0-.185,1.394-.335,3.113-.335s3.111.15,3.111.335-1.393.333-3.111.333S223.566,301.862,223.566,301.679Z" transform="translate(-223.566 -301.344)"/></g><g transform="translate(47.138 126.488)"><path class="b" d="M213.86,301.679c0-.185,1.394-.335,3.113-.335s3.111.15,3.111.335-1.393.333-3.111.333S213.86,301.862,213.86,301.679Z" transform="translate(-213.86 -301.344)"/></g><g transform="translate(34.69 126.488)"><path class="b" d="M204.154,301.679c0-.185,1.394-.335,3.113-.335s3.111.15,3.111.335-1.393.333-3.111.333S204.154,301.862,204.154,301.679Z" transform="translate(-204.154 -301.344)"/></g><g transform="translate(22.242 126.488)"><path class="b" d="M194.448,301.679c0-.185,1.394-.335,3.111-.335s3.113.15,3.113.335-1.393.333-3.113.333S194.448,301.862,194.448,301.679Z" transform="translate(-194.448 -301.344)"/></g><g transform="translate(9.795 126.488)"><path class="b" d="M184.742,301.679c0-.185,1.394-.335,3.111-.335s3.113.15,3.113.335-1.393.333-3.113.333S184.742,301.862,184.742,301.679Z" transform="translate(-184.742 -301.344)"/></g><g transform="translate(0.031 123.616)"><path class="b" d="M177.462,299.1c.185,0,.333,1.435.333,3.206-.667-.668-.183-.186-.332-.335h.327l.318.005.6.019c.383.017.73.041,1.02.072.58.06.939.144.939.236s-.359.176-.939.236c-.29.029-.636.054-1.02.072l-.6.019-.318.005h-.327c-.15-.149.332.333-.335-.333C177.129,300.54,177.278,299.1,177.462,299.1Z" transform="translate(-177.129 -299.105)"/></g><g transform="translate(0.031 110.98)"><path class="b" d="M177.462,289.252c.185,0,.333,1.415.333,3.159s-.149,3.159-.333,3.159-.333-1.413-.333-3.159S177.278,289.252,177.462,289.252Z" transform="translate(-177.129 -289.252)"/></g><g transform="translate(0.031 98.343)"><path class="b" d="M177.462,279.4c.185,0,.333,1.415.333,3.159s-.149,3.159-.333,3.159-.333-1.415-.333-3.159S177.278,279.4,177.462,279.4Z" transform="translate(-177.129 -279.399)"/></g><g transform="translate(0.031 85.707)"><path class="b" d="M177.462,269.546c.185,0,.333,1.415.333,3.159s-.149,3.159-.333,3.159-.333-1.413-.333-3.159S177.278,269.546,177.462,269.546Z" transform="translate(-177.129 -269.546)"/></g><g transform="translate(0.031 73.071)"><path class="b" d="M177.462,259.693c.185,0,.333,1.415.333,3.159s-.149,3.159-.333,3.159-.333-1.413-.333-3.159S177.278,259.693,177.462,259.693Z" transform="translate(-177.129 -259.693)"/></g><g transform="translate(0.031 60.435)"><path class="b" d="M177.462,249.84c.185,0,.333,1.415.333,3.159s-.149,3.159-.333,3.159-.333-1.413-.333-3.159S177.278,249.84,177.462,249.84Z" transform="translate(-177.129 -249.84)"/></g><g transform="translate(0.031 47.798)"><path class="b" d="M177.462,239.987c.185,0,.333,1.415.333,3.159s-.149,3.159-.333,3.159-.333-1.413-.333-3.159S177.278,239.987,177.462,239.987Z" transform="translate(-177.129 -239.987)"/></g><g transform="translate(0.031 35.162)"><path class="b" d="M177.462,230.134c.185,0,.333,1.415.333,3.159s-.149,3.159-.333,3.159-.333-1.413-.333-3.159S177.278,230.134,177.462,230.134Z" transform="translate(-177.129 -230.134)"/></g><g transform="translate(0.031 22.526)"><path class="b" d="M177.462,220.281c.185,0,.333,1.415.333,3.159s-.149,3.159-.333,3.159-.333-1.413-.333-3.159S177.278,220.281,177.462,220.281Z" transform="translate(-177.129 -220.281)"/></g><g transform="translate(0.031 9.889)"><path class="b" d="M177.462,210.428c.185,0,.333,1.415.333,3.159s-.149,3.159-.333,3.159-.333-1.413-.333-3.159S177.278,210.428,177.462,210.428Z" transform="translate(-177.129 -210.428)"/></g><g transform="translate(0 0.031)"><path class="b" d="M180.675,203.074c0,.185-1.435.335-3.206.335l.333-.333h0v.326l-.005.318-.019.6c-.017.383-.041.728-.072,1.018-.06.581-.144.939-.236.939s-.176-.358-.236-.939c-.031-.29-.055-.635-.072-1.018l-.019-.6-.005-.318v-.326h0c.149-.149-.333.333.333-.335C179.24,202.741,180.675,202.891,180.675,203.074Z" transform="translate(-177.105 -202.741)"/></g><g transform="translate(9.795 0.031)"><path class="b" d="M190.966,203.074c0,.185-1.393.335-3.111.335s-3.113-.15-3.113-.335,1.393-.333,3.113-.333S190.966,202.891,190.966,203.074Z" transform="translate(-184.742 -202.741)"/></g><g transform="translate(22.242 0.031)"><path class="b" d="M200.672,203.074c0,.185-1.393.335-3.111.335s-3.113-.15-3.113-.335,1.393-.333,3.113-.333S200.672,202.891,200.672,203.074Z" transform="translate(-194.448 -202.741)"/></g><g transform="translate(34.69 0.031)"><path class="b" d="M210.378,203.074c0,.185-1.393.335-3.111.335s-3.113-.15-3.113-.335,1.393-.333,3.113-.333S210.378,202.891,210.378,203.074Z" transform="translate(-204.154 -202.741)"/></g><g transform="translate(47.138 0.031)"><path class="b" d="M220.084,203.074c0,.185-1.393.335-3.111.335s-3.113-.15-3.113-.335,1.393-.333,3.113-.333S220.084,202.891,220.084,203.074Z" transform="translate(-213.86 -202.741)"/></g><g transform="translate(59.586 0.031)"><path class="b" d="M229.79,203.074c0,.185-1.393.335-3.111.335s-3.113-.15-3.113-.335,1.394-.333,3.113-.333S229.79,202.891,229.79,203.074Z" transform="translate(-223.566 -202.741)"/></g><g transform="translate(72.034 0.031)"><path class="b" d="M239.5,203.074c0,.185-1.393.335-3.111.335s-3.113-.15-3.113-.335,1.394-.333,3.113-.333S239.5,202.891,239.5,203.074Z" transform="translate(-233.272 -202.741)"/></g><g transform="translate(84.481 0.031)"><path class="b" d="M249.2,203.074c0,.185-1.393.335-3.111.335s-3.113-.15-3.113-.335,1.394-.333,3.113-.333S249.2,202.891,249.2,203.074Z" transform="translate(-242.978 -202.741)"/></g><g transform="translate(96.929 0.031)"><path class="b" d="M258.909,203.074c0,.185-1.394.335-3.113.335s-3.113-.15-3.113-.335,1.394-.333,3.113-.333S258.909,202.891,258.909,203.074Z" transform="translate(-252.684 -202.741)"/></g><g transform="translate(109.378 0.031)"><path class="b" d="M268.615,203.074c0,.185-1.394.335-3.113.335s-3.111-.15-3.111-.335,1.393-.333,3.111-.333S268.615,202.891,268.615,203.074Z" transform="translate(-262.391 -202.741)"/></g><g transform="translate(121.826 0.031)"><path class="b" d="M278.321,203.074c0,.185-1.394.335-3.113.335s-3.111-.15-3.111-.335,1.393-.333,3.111-.333S278.321,202.891,278.321,203.074Z" transform="translate(-272.097 -202.741)"/></g><g transform="translate(134.274 0.031)"><path class="b" d="M288.027,203.074c0,.185-1.394.335-3.113.335s-3.111-.15-3.111-.335,1.393-.333,3.111-.333S288.027,202.891,288.027,203.074Z" transform="translate(-281.803 -202.741)"/></g><g transform="translate(146.721)"><path class="b" d="M294.715,206.287c-.185,0-.335-1.435-.335-3.2.668.667.185.185.333.333h-.327l-.318-.005-.6-.021c-.383-.017-.73-.041-1.02-.071-.58-.062-.939-.145-.939-.237s.359-.176.939-.236c.29-.03.636-.054,1.02-.071l.6-.021.318-.005h.327c.149.149-.332-.333.335.335C295.049,204.852,294.9,206.287,294.715,206.287Z" transform="translate(-291.509 -202.717)"/></g><g transform="translate(149.593 9.889)"><path class="b" d="M294.083,216.746c-.185,0-.335-1.413-.335-3.159s.15-3.159.335-3.159.333,1.415.333,3.159S294.267,216.746,294.083,216.746Z" transform="translate(-293.748 -210.428)"/></g><g transform="translate(149.593 22.526)"><path class="b" d="M294.083,226.6c-.185,0-.335-1.413-.335-3.159s.15-3.159.335-3.159.333,1.415.333,3.159S294.267,226.6,294.083,226.6Z" transform="translate(-293.748 -220.281)"/></g><g transform="translate(149.593 35.162)"><path class="b" d="M294.083,236.452c-.185,0-.335-1.415-.335-3.159s.15-3.159.335-3.159.333,1.413.333,3.159S294.267,236.452,294.083,236.452Z" transform="translate(-293.748 -230.134)"/></g><g transform="translate(149.593 47.798)"><path class="b" d="M294.083,246.3c-.185,0-.335-1.415-.335-3.159s.15-3.159.335-3.159.333,1.415.333,3.159S294.267,246.3,294.083,246.3Z" transform="translate(-293.748 -239.987)"/></g><g transform="translate(149.593 60.435)"><path class="b" d="M294.083,256.158c-.185,0-.335-1.415-.335-3.159s.15-3.159.335-3.159.333,1.415.333,3.159S294.267,256.158,294.083,256.158Z" transform="translate(-293.748 -249.84)"/></g><g transform="translate(149.593 73.071)"><path class="b" d="M294.083,266.01c-.185,0-.335-1.415-.335-3.159s.15-3.159.335-3.159.333,1.415.333,3.159S294.267,266.01,294.083,266.01Z" transform="translate(-293.748 -259.693)"/></g><g transform="translate(149.593 85.707)"><path class="b" d="M294.083,275.863c-.185,0-.335-1.415-.335-3.159s.15-3.159.335-3.159.333,1.413.333,3.159S294.267,275.863,294.083,275.863Z" transform="translate(-293.748 -269.546)"/></g><g transform="translate(149.593 98.343)"><path class="b" d="M294.083,285.717c-.185,0-.335-1.415-.335-3.159s.15-3.159.335-3.159.333,1.413.333,3.159S294.267,285.717,294.083,285.717Z" transform="translate(-293.748 -279.399)"/></g><g transform="translate(149.593 110.98)"><path class="b" d="M294.083,295.57c-.185,0-.335-1.415-.335-3.159s.15-3.159.335-3.159.333,1.413.333,3.159S294.267,295.57,294.083,295.57Z" transform="translate(-293.748 -289.252)"/></g></g><g transform="translate(66.865 44.802)"><g transform="translate(0 26.011)"><path class="b" d="M215.371,249.174v21.618H252.8V249.174h-8.011v13.716H223.307V249.174Z" transform="translate(-215.371 -249.174)"/></g><g transform="translate(6.188)"><path class="b" d="M228.455,262.984h8.682V248.373h8.258l-12.146-19.481L220.2,247.95h8.47Z" transform="translate(-220.196 -228.892)"/></g></g></g><g transform="translate(13.952 228.862)"><g transform="translate(17.605 0.671)"><path class="d" d="M195.436,331.479l-1.679-.766a4.617,4.617,0,1,1,2.494-4.035,4.668,4.668,0,0,1-1.191,3.113Zm-3.867-9.162a4.361,4.361,0,1,0,0,8.722,4.5,4.5,0,0,0,2.106-.645l.069-.038,1.239.564-.272-1.223.056-.062a4.355,4.355,0,0,0-3.2-7.318Z" transform="translate(-186.887 -321.996)"/></g><g transform="translate(31.505 1.457)"><path class="d" d="M203.216,330.669l-1.894-4.731-3.6-3.329h8.788Zm-4.672-7.74,3.063,2.856,1.613,4.03,2.816-6.886Z" transform="translate(-197.726 -322.609)"/></g><g transform="translate(35.151 1.481)"><rect class="d" width="5.716" height="0.321" transform="matrix(0.843, -0.539, 0.539, 0.843, 0, 3.078)"/></g><g transform="translate(67.293 1.393)"><path class="d" d="M229.218,324.3a1.794,1.794,0,1,1-1.786-1.745A1.765,1.765,0,0,1,229.218,324.3Z" transform="translate(-225.631 -322.559)"/><g transform="translate(5.558 0.026)"><path class="d" d="M233.553,324.324a1.8,1.8,0,1,1-1.786-1.745A1.765,1.765,0,0,1,233.553,324.324Z" transform="translate(-229.965 -322.579)"/></g><g transform="translate(11.118 0.051)"><path class="d" d="M237.888,324.344A1.8,1.8,0,1,1,236.1,322.6,1.765,1.765,0,0,1,237.888,324.344Z" transform="translate(-234.3 -322.599)"/></g></g><g transform="translate(135.313)"><path class="d" d="M285.756,332.08l-3.636-3.637-3.451,3.454V321.473h7.087Zm-3.636-4.09.114.113,3.2,3.2v-9.512H278.99v9.329Z" transform="translate(-278.669 -321.473)"/></g><g transform="translate(0 27.95)"><path class="d" d="M308.329,343.6c0,.185-30.26.333-67.582.333s-67.587-.149-67.587-.333,30.254-.333,67.587-.333S308.329,343.416,308.329,343.6Z" transform="translate(-173.16 -343.267)"/></g><g transform="translate(0 35.94)"><path class="d" d="M240.453,349.83c0,.185-15.065.333-33.646.333s-33.647-.149-33.647-.333,15.061-.333,33.647-.333S240.453,349.646,240.453,349.83Z" transform="translate(-173.16 -349.497)"/></g><g transform="translate(0 59.907)"><g transform="translate(32.898)"><path class="d" d="M266.105,368.518c0,.185-15.065.335-33.645.335s-33.648-.15-33.648-.335,15.063-.333,33.648-.333S266.105,368.334,266.105,368.518Z" transform="translate(-198.812 -368.185)"/></g><path class="d" d="M199.969,368.518c0,.185-6,.335-13.4.335s-13.4-.15-13.4-.335,6-.333,13.4-.333S199.969,368.334,199.969,368.518Z" transform="translate(-173.16 -368.185)"/></g><g transform="translate(0 87.844)"><g transform="translate(32.898)"><path class="d" d="M266.105,390.3c0,.185-15.065.335-33.645.335s-33.648-.15-33.648-.335,15.063-.333,33.648-.333S266.105,390.118,266.105,390.3Z" transform="translate(-198.812 -389.968)"/></g><path class="d" d="M199.969,390.3c0,.185-6,.335-13.4.335s-13.4-.15-13.4-.335,6-.333,13.4-.333S199.969,390.118,199.969,390.3Z" transform="translate(-173.16 -389.968)"/></g><g transform="translate(33.787 69.988)"><path class="d" d="M240.33,376.378c0,.185-9.139.333-20.412.333s-20.413-.149-20.413-.333,9.138-.333,20.413-.333S240.33,376.194,240.33,376.378Z" transform="translate(-199.505 -376.045)"/></g><g transform="translate(33.787 98.8)"><path class="d" d="M240.33,398.846c0,.183-9.139.333-20.412.333s-20.413-.15-20.413-.333,9.138-.335,20.413-.335S240.33,398.661,240.33,398.846Z" transform="translate(-199.505 -398.511)"/></g><g transform="translate(1.619 0.082)"><path class="g" d="M185.193,323.743a2.718,2.718,0,0,0-5.361.136,2.718,2.718,0,0,0-5.361-.136,3.665,3.665,0,0,0,.646,2.65,10.935,10.935,0,0,0,1.908,2.034c.971.873,1.87,1.693,2.841,2.566.972-.873,1.8-1.693,2.771-2.566a10.885,10.885,0,0,0,1.907-2.034A3.666,3.666,0,0,0,185.193,323.743Z" transform="translate(-174.422 -321.537)"/></g></g></g><path class="d" d="M317.94,134.813l-132.176-.61a28.793,28.793,0,0,0-28.925,28.671l-1.4,331.367A28.79,28.79,0,0,0,184.1,523.153l132.176.612A28.791,28.791,0,0,0,345.2,495.1l1.4-331.369A28.793,28.793,0,0,0,317.94,134.813Zm18.515,355.126A20.166,20.166,0,0,1,316.2,510.017l-131.911-.608a20.168,20.168,0,0,1-20.072-20.252l1.368-323.438a20.165,20.165,0,0,1,20.257-20.08l22.429.1,9.012.042a6.373,6.373,0,0,1,6.2,6.534l-.02,4.648a6.371,6.371,0,0,0,6.2,6.534l49.951.231a6.365,6.365,0,0,0,6.25-6.477l.021-4.649a6.366,6.366,0,0,1,6.25-6.477l25.628.119A20.164,20.164,0,0,1,337.822,166.5Z" transform="translate(-155.438 -134.202)"/></g></g><g transform="translate(300.479 182.308)"><g transform="translate(0 0)"><g transform="translate(100.58 79.411)"><path class="h" d="M426.776,225.915l-23.146-7.74s-10.228,29.468-13.363,29.754c-17.369,1.584-35.953-4.174-42.469-6.451-.662-.743-1.416-1.635-2.258-2.727a10.422,10.422,0,0,1-1.634-3.122,15.857,15.857,0,0,1-.93-4.29,1.362,1.362,0,0,0-2.342-1.073c-.753.971-.944,4.694.771,8.7s-4.354.818-6.586-.3-9.3-4.266-10.191-3.853c-1.3.607-.893,2.114,1.363,3.182,2.283,1.08,8.793,4.745,8.142,5.9-.637,1.134-11.924-4.729-11.924-4.729s-2.208-1.643-3-.34c-1.433,2.353,11.024,7.7,12.222,8.181.832.333.172,1.608-.7,1.2-.9-.418-11.122-6.11-12.6-3.727-1.136,1.826,10.206,4.494,11.669,6.851s-8.4-2.9-9.408-1.105c-.377.666-.567,1.214,5.531,3.415a129.911,129.911,0,0,0,13.591,3.47l-.022.063s60.913,27.239,74.051.981C427.475,230.287,426.776,225.915,426.776,225.915Z" transform="translate(-318.043 -218.175)"/></g><g transform="translate(0 45.439)"><g transform="translate(0.299 0.061)"><rect class="c" width="172.039" height="137.541" transform="translate(0 0.316) rotate(-0.105)"/></g><path class="d" d="M411.956,191.748s-.285.012-.826.018l-2.406.022-9.333.053-35.2.145-124.27.377.3-.3c.086,40.934.185,87.865.289,137.526v.014l-.335-.333,172.039-.259-.277.277c-.017-41.441-.03-75.792-.04-99.8.009-12.012.017-21.433.021-27.865.008-3.209.014-5.67.018-7.342s.027-2.537.027-2.537.022.832.035,2.476c.01,1.661.026,4.1.045,7.29.028,6.418.069,15.817.123,27.8.078,24.048.191,58.458.327,99.972v.277h-.278l-172.039.372h-.335v-.349c-.078-49.66-.153-96.591-.218-137.526v-.3h.3c51.163-.032,94.2-.06,124.465-.078l35.136.014,9.274.018,2.373.013C411.694,191.736,411.956,191.748,411.956,191.748Z" transform="translate(-239.617 -191.686)"/><g transform="translate(6.246 8.731)"><rect class="i" width="159.953" height="120.224" transform="translate(0 0.294) rotate(-0.105)"/></g><g transform="translate(86.289 32.601)"><path class="j" d="M332.088,229.677a12.594,12.594,0,1,1-12.617-12.571A12.594,12.594,0,0,1,332.088,229.677Z" transform="translate(-306.9 -217.106)"/></g><g class="k" transform="translate(6.467 54.416)"><path class="e" d="M244.66,308.949l55.73-74.832,34.693,46.691,23.426-25.038,46.1,52.885Z" transform="translate(-244.66 -234.116)"/></g></g><g transform="translate(134.472)"><g transform="translate(119.605 282.505)"><path class="l" d="M491.372,403.751l-44.882-27.216-8.761,21.936,46.382,23.458s-3.314,12.894-2.606,15.717l12.449-32.293Z" transform="translate(-437.73 -376.535)"/><g transform="translate(43.776 27.833)"><path class="m" d="M471.864,431.515l1.285.513,12.868-33.239-1.382-.552Z" transform="translate(-471.864 -398.237)"/></g><g transform="translate(44.728 49.556)"><path class="m" d="M477.073,415.32c.006.194-1.19.323-2.392,1.082-1.218.734-1.871,1.745-2.042,1.653-.169-.053.294-1.368,1.69-2.221S477.1,415.144,477.073,415.32Z" transform="translate(-472.606 -415.175)"/></g><g transform="translate(52.076 26.418)"><path class="m" d="M479.109,397.135c.2.041-.263,2.458-.077,5.445.159,2.99.893,5.338.7,5.4-.153.072-1.2-2.257-1.368-5.362C478.176,399.517,478.95,397.083,479.109,397.135Z" transform="translate(-478.336 -397.134)"/></g><g transform="translate(43.727 26.85)"><path class="m" d="M479.868,397.472c.168.077-1.494,4.057-3.711,8.886s-4.153,8.684-4.319,8.607,1.494-4.054,3.713-8.886S479.7,397.4,479.868,397.472Z" transform="translate(-471.826 -397.471)"/></g></g><g transform="translate(0 305.288)"><g transform="translate(0)"><path class="l" d="M388.232,394.3H364.611l-4.58,51.775s-13.2,1.7-15.562,3.41l34.607-.418.528-2.992h0Z" transform="translate(-344.47 -394.3)"/></g><g transform="translate(0 54.7)"><path class="m" d="M344.47,437.436v1.384l35.641-.379v-1.488Z" transform="translate(-344.47 -436.952)"/></g><g transform="translate(8.421 52.779)"><path class="m" d="M355.221,438.659c-.178.077-.743-.986-1.893-1.82-1.134-.859-2.314-1.09-2.292-1.282-.014-.177,1.38-.235,2.689.745S355.4,438.622,355.221,438.659Z" transform="translate(-351.036 -435.453)"/></g><g transform="translate(25.735 50.691)"><path class="m" d="M374.383,433.878c.035.2-2.38.668-5.085,1.948-2.718,1.257-4.626,2.81-4.755,2.655-.123-.114,1.652-1.952,4.472-3.259C371.824,433.894,374.374,433.71,374.383,433.878Z" transform="translate(-364.536 -433.825)"/></g><g transform="translate(15.556 48.828)"><path class="m" d="M375.823,433.447c-.009.183-4.321.117-9.629-.151s-9.6-.635-9.6-.82,4.319-.115,9.629.153S375.832,433.262,375.823,433.447Z" transform="translate(-356.599 -432.373)"/></g></g><g transform="translate(12.606 144.544)"><g transform="translate(55.063 7.336)"><path class="n" d="M397.234,292.714s4.914,106.458,8.277,110.845,64.619,43.554,64.619,43.554L484.584,413.2s-44.451-30.876-44.419-32.869.331-105.651.331-105.651Z" transform="translate(-397.234 -274.682)"/><g transform="translate(12.643 81.733)"><path class="o" d="M407.1,338.412a4.5,4.5,0,0,1,.145.8c.078.585.181,1.359.31,2.337.254,2.1.61,5.058,1.055,8.745.858,7.526,2.052,18.01,3.431,30.117l-.092-.192c3.454,3.458,7.172,7.178,11.014,11.023l.6.6-.023-.021a212.152,212.152,0,0,0,17.912,13.1l15.154,9.934c4.3,2.846,7.728,5.218,10.062,6.9,1.172.839,2.061,1.516,2.668,1.97l.681.527c.151.122.226.189.219.2a.946.946,0,0,1-.259-.142l-.719-.475-2.737-1.866c-2.378-1.618-5.843-3.93-10.173-6.723s-9.528-6.061-15.235-9.816a203.415,203.415,0,0,1-18-13.094l-.012-.009-.012-.012-.6-.6-11-11.04-.079-.081-.013-.112c-1.284-12.117-2.4-22.611-3.195-30.143-.366-3.695-.661-6.66-.868-8.766l-.205-2.347A4.563,4.563,0,0,1,407.1,338.412Z" transform="translate(-407.092 -338.412)"/></g><g transform="translate(26.798 56.629)"><path class="o" d="M418.466,318.838a1.164,1.164,0,0,1,.033.323l.033.949c.015.888.036,2.106.063,3.649.026,3.224.061,7.795.106,13.417.021,5.683.045,12.422.072,19.9.006,3.747.013,7.678.019,11.751a24.471,24.471,0,0,0,.5,6.1,19.765,19.765,0,0,0,6.415,10.582c1.61,1.3,3.315,2.523,4.939,3.738,3.275,2.423,6.457,4.73,9.5,6.915l16.176,11.591c4.6,3.313,8.286,6.037,10.81,7.953l2.889,2.229.74.6c.164.137.245.212.237.221a1.2,1.2,0,0,1-.278-.167l-.78-.543-2.964-2.125-10.929-7.778-16.261-11.476c-3.051-2.173-6.243-4.471-9.528-6.889-1.642-1.222-3.31-2.415-4.98-3.758a20.367,20.367,0,0,1-6.633-10.941,24.992,24.992,0,0,1-.507-6.252c.006-4.073.013-8,.019-11.751.027-7.477.051-14.216.072-19.9l.105-13.417c.027-1.543.047-2.761.063-3.649l.033-.949A1.189,1.189,0,0,1,418.466,318.838Z" transform="translate(-418.129 -318.838)"/></g><g transform="translate(35.215 39.566)"><path class="o" d="M426.457,305.533a1.186,1.186,0,0,1,.026.308l.014.9q0,1.268-.008,3.474c-.035,3.075-.086,7.44-.147,12.832-.187,10.914-.446,25.978-.735,42.829v.033l-.006.033a10.805,10.805,0,0,0-.037,4.336,16.08,16.08,0,0,0,2.594,5.9A29.632,29.632,0,0,0,432.31,381c3.1,2.814,6.279,5.4,9.256,7.871,5.989,4.926,11.533,9.172,16.282,12.611s8.7,6.064,11.462,7.84l3.184,2.031.825.536a1.3,1.3,0,0,1,.269.2,1.364,1.364,0,0,1-.305-.144l-.858-.48c-.753-.426-1.856-1.064-3.254-1.926-2.8-1.711-6.8-4.285-11.6-7.676s-10.378-7.612-16.4-12.518c-3-2.473-6.159-5.021-9.316-7.873a30.136,30.136,0,0,1-4.254-4.914,16.694,16.694,0,0,1-2.7-6.153,11.422,11.422,0,0,1,.042-4.607l-.009.067c.372-16.849.7-31.911.945-42.825.149-5.392.269-9.755.355-12.829.054-1.468.1-2.628.128-3.472l.049-.9A1.1,1.1,0,0,1,426.457,305.533Z" transform="translate(-424.692 -305.533)"/></g></g><path class="n" d="M455.63,268.962l.948,3.867a45.517,45.517,0,0,1-4.782,33.581l-42.527,73.716a59.217,59.217,0,0,0-6.518,16.756l-11.885,58.152-36.567-.79s7.3-42.355,11.136-66.24c2.9-18.012,27-73.927,38.678-100.331l5.334-11h0Z" transform="translate(-354.299 -268.962)"/><g transform="translate(8.99 13.372)"><path class="o" d="M411.362,279.389a2.358,2.358,0,0,1-.156.432c-.131.312-.3.722-.522,1.243l-2.066,4.749c-.912,2.055-2.016,4.575-3.238,7.526s-2.686,6.28-4.157,10.021c-1.508,3.726-3.154,7.809-4.813,12.236-1.724,4.4-3.415,9.16-5.23,14.153-3.531,10.024-7.2,21.12-10.681,32.879-3.447,11.774-6.382,23.09-8.849,33.428-1.181,5.181-2.341,10.1-3.277,14.731-1,4.619-1.835,8.943-2.587,12.892-.793,3.942-1.376,7.532-1.939,10.674s-1.011,5.858-1.358,8.08c-.359,2.188-.64,3.9-.839,5.109-.1.555-.176.994-.235,1.327a2.363,2.363,0,0,1-.1.449,2.51,2.51,0,0,1,.036-.459c.042-.335.1-.776.169-1.336.168-1.213.408-2.933.714-5.13.308-2.228.708-4.952,1.247-8.1s1.08-6.748,1.842-10.7c.723-3.958,1.529-8.29,2.51-12.919.914-4.643,2.053-9.567,3.22-14.757,2.437-10.357,5.357-21.689,8.807-33.477,3.488-11.772,7.177-22.876,10.742-32.9,1.833-4.994,3.545-9.751,5.293-14.147,1.684-4.421,3.355-8.5,4.893-12.214,1.5-3.733,2.987-7.056,4.251-9.991s2.394-5.444,3.343-7.485l2.18-4.7c.244-.509.437-.911.582-1.215A2.339,2.339,0,0,1,411.362,279.389Z" transform="translate(-361.309 -279.389)"/></g><g transform="translate(19.375 10.103)"><path class="o" d="M429.725,276.84a2.461,2.461,0,0,1-.195.442c-.156.315-.365.734-.631,1.264-.585,1.14-1.418,2.763-2.482,4.834-1.1,2.089-2.419,4.654-3.886,7.667s-3.222,6.4-4.988,10.232q-1.352,2.861-2.827,5.985c-.98,2.083-1.93,4.281-2.952,6.539-2.07,4.505-4.1,9.4-6.287,14.528-4.245,10.31-8.661,21.748-12.863,33.909-4.159,12.181-7.706,23.921-10.692,34.664-1.431,5.389-2.833,10.5-3.969,15.327-.581,2.41-1.182,4.728-1.689,6.973l-1.449,6.46c-.959,4.107-1.669,7.855-2.352,11.136s-1.225,6.115-1.645,8.435c-.433,2.289-.772,4.08-1.011,5.338-.118.582-.21,1.041-.28,1.386a2.565,2.565,0,0,1-.118.468,2.624,2.624,0,0,1,.05-.48c.054-.348.124-.809.214-1.4.21-1.264.508-3.064.889-5.362.381-2.329.875-5.174,1.535-8.461s1.326-7.047,2.257-11.165q.671-3.093,1.407-6.474c.5-2.249,1.084-4.573,1.653-6.988,1.114-4.839,2.5-9.958,3.914-15.358,2.956-10.764,6.491-22.524,10.655-34.719,4.208-12.176,8.645-23.622,12.927-33.928,2.2-5.13,4.254-10.019,6.348-14.52,1.035-2.256,2-4.45,2.99-6.529l2.869-5.973c1.8-3.819,3.57-7.2,5.08-10.194s2.859-5.548,3.988-7.619c1.112-2.048,1.983-3.65,2.594-4.776.29-.519.518-.927.69-1.234A2.56,2.56,0,0,1,429.725,276.84Z" transform="translate(-369.406 -276.84)"/></g><g transform="translate(30.679 6.098)"><path class="o" d="M451.265,273.717a3.018,3.018,0,0,1-.274.427c-.21.3-.494.7-.855,1.213l-3.34,4.623-2.426,3.329-2.769,4.045c-1.962,2.919-4.294,6.176-6.615,9.947l-3.727,5.863c-1.289,2.043-2.521,4.234-3.859,6.466-2.714,4.441-5.329,9.351-8.144,14.479-5.442,10.357-11.011,21.966-16.146,34.456-5.062,12.526-9.2,24.722-12.544,35.935-1.572,5.637-3.136,10.974-4.3,16.049-.6,2.53-1.254,4.959-1.761,7.322s-.976,4.631-1.434,6.8c-.976,4.319-1.586,8.278-2.223,11.737q-.456,2.6-.848,4.827-.325,2.232-.592,4.077c-.362,2.42-.645,4.314-.844,5.64-.1.618-.177,1.1-.236,1.465a2.813,2.813,0,0,1-.1.5,2.917,2.917,0,0,1,.035-.5l.171-1.474c.169-1.331.41-3.232.72-5.661.162-1.231.34-2.6.536-4.089.219-1.492.509-3.1.794-4.841.6-3.468,1.181-7.437,2.128-11.768q.668-3.257,1.394-6.815c.494-2.369,1.132-4.8,1.726-7.342,1.143-5.086,2.688-10.439,4.246-16.09,3.323-11.24,7.446-23.466,12.517-36.013,5.144-12.514,10.741-24.135,16.222-34.495,2.834-5.129,5.471-10.035,8.21-14.472,1.349-2.23,2.594-4.418,3.9-6.456l3.768-5.848c2.35-3.759,4.711-7,6.7-9.9,1.011-1.441,1.93-2.8,2.816-4.017l2.475-3.3,3.443-4.552c.383-.494.684-.882.908-1.172A2.8,2.8,0,0,1,451.265,273.717Z" transform="translate(-378.221 -273.717)"/></g><g transform="translate(54.968 37.447)"><path class="o" d="M397.161,371.877c-.16-.092,9.231-16.671,20.972-37.023s21.394-36.785,21.555-36.693-9.23,16.667-20.976,37.027S397.32,371.968,397.161,371.877Z" transform="translate(-397.159 -298.161)"/></g></g><g transform="translate(38.307 62.753)"><path class="p" d="M433.758,205.186h0l10.111.182L451.9,228.38l-8.523,29.353c-1.911,7.7,12.34,21.971,12.337,33.987l-60.374,8.643,3.862-25.524-5.208-17.164-.028-1.27-19.626-9.793,6.477-15.864c9.964-23.342,27.364-24.763,27.364-24.763Z" transform="translate(-374.339 -205.186)"/><g transform="translate(14.76 20.42)"><path class="f" d="M391.054,251.627a3.462,3.462,0,0,1-1.218-.641,9.821,9.821,0,0,1-2.621-2.7,8.639,8.639,0,0,1-1.336-5.416,11.994,11.994,0,0,1,2.2-6.469A11.847,11.847,0,0,1,392.1,232.8l-.173.237c.469-3.478.9-6.466,1.222-8.582a21.245,21.245,0,0,1,.626-3.35,21.771,21.771,0,0,1-.241,3.4c-.219,2.13-.564,5.13-.99,8.614l-.019.151-.153.086a11.561,11.561,0,0,0-3.762,3.414,11.679,11.679,0,0,0-2.135,6.126,8.369,8.369,0,0,0,1.127,5.135,10.757,10.757,0,0,0,2.384,2.743C390.661,251.332,391.076,251.586,391.054,251.627Z" transform="translate(-385.848 -221.108)"/></g><g transform="translate(54.153 0.182)"><path class="p" d="M431.941,205.328s19.032,2.246,17.02,24.875c-2.053,23.085-5.56,25.887-5.56,25.887l-26.837-10.469c5.6-11.342,5.751-11.454,8.439-23.673l6.938-16.62Z" transform="translate(-416.564 -205.328)"/></g><g transform="translate(54.378 16.658)"><path class="f" d="M425.96,218.175a19.858,19.858,0,0,1-1,3.505c-.7,2.134-1.693,5.079-2.938,8.282s-2.548,6.034-3.533,8.055a18.936,18.936,0,0,1-1.74,3.2,20.508,20.508,0,0,1,1.311-3.4c.873-2.07,2.1-4.916,3.341-8.1,1.176-3.1,2.239-5.9,3.115-8.2A19.656,19.656,0,0,1,425.96,218.175Z" transform="translate(-416.74 -218.175)"/></g></g><g transform="translate(93.919 18.027)"><path class="q" d="M430.15,170.312c2.392,4.785,3.656,8.927,8.4,11.392,2.139,1.109,4.748,1.742,6.038,3.777,1.406,2.216.745,5.427,2.52,7.359,2.582,2.81,7.851.528,10.748,3.01,2.587,2.216,1.758,6.973,4.548,8.926,1.568,1.1,3.706.852,5.492,1.542,2.928,1.131,4.316,4.507,4.7,7.621a13.319,13.319,0,0,1-.916,7.378,7.544,7.544,0,0,1-5.729,4.385c-3.32.351-7.082-1.938-9.769.044a13.287,13.287,0,0,0-2.238,2.739,8.38,8.38,0,0,1-13.77-.862c-1.856-3.088-1.739-7.35-4.457-9.715-1.421-1.238-3.341-1.679-5.106-2.338s-3.591-1.752-4.122-3.56c-.517-1.756-1.539-2.874-2.557-4.394-1.359-2.03-3.168.451-4.965-.548s-1.116-2.956-1.268-5.006" transform="translate(-417.702 -170.312)"/></g><g transform="translate(76.225 61.859)"><path class="f" d="M424.979,204.489a3.583,3.583,0,0,1,.14,1.317,10.2,10.2,0,0,1-.709,3.55,10.884,10.884,0,0,1-3.143,4.367,10.829,10.829,0,0,1-12.521.755,10.875,10.875,0,0,1-3.645-3.958,10.192,10.192,0,0,1-1.131-3.438,3.586,3.586,0,0,1-.02-1.325,14.538,14.538,0,0,0,1.563,4.531,10.816,10.816,0,0,0,3.561,3.669,10.454,10.454,0,0,0,11.8-.712,10.813,10.813,0,0,0,3.095-4.071A14.468,14.468,0,0,0,424.979,204.489Z" transform="translate(-403.905 -204.489)"/></g><g transform="translate(65.149)"><g transform="translate(3.21 11.211)"><path class="l" d="M426.473,216.83l1.717-39.854L412.357,165l-14.382,7.042s-.468,18.064.017,25.9,8.384,8.664,8.384,8.664-.181,4.59-.359,9.413a10.236,10.236,0,0,0,10.333,10.613h0A10.237,10.237,0,0,0,426.473,216.83Z" transform="translate(-397.772 -164.997)"/></g><g transform="translate(3.999 29.158)"><g transform="translate(0.989 1.305)"><path class="d" d="M399.158,181.012a1,1,0,1,0,1-1A1,1,0,0,0,399.158,181.012Z" transform="translate(-399.158 -180.009)"/></g><path class="d" d="M398.4,180.207c.131.131.87-.5,1.949-.558,1.079-.076,1.89.46,2,.315.054-.065-.079-.3-.435-.546a2.661,2.661,0,0,0-3.154.194C398.446,179.9,398.342,180.15,398.4,180.207Z" transform="translate(-398.387 -178.991)"/></g><g transform="translate(15.964 29.151)"><g transform="translate(0.642 1.305)"><path class="d" d="M408.217,181.006a1,1,0,1,0,1-1A1,1,0,0,0,408.217,181.006Z" transform="translate(-408.217 -180.003)"/></g><path class="d" d="M407.734,180.2c.129.13.87-.5,1.949-.558,1.079-.076,1.889.459,2,.314.055-.064-.078-.3-.434-.545a2.663,2.663,0,0,0-3.155.194C407.775,179.89,407.671,180.144,407.734,180.2Z" transform="translate(-407.716 -178.985)"/></g><g transform="translate(0 5.997)"><path class="q" d="M451.7,200.674a5.634,5.634,0,0,1-2.839-.64,7.893,7.893,0,0,1-3.1-3,32.459,32.459,0,0,1-2.317-4.961c-1.466-3.64-2.571-7.019-3.32-9.48-.118-.39-.226-.746-.327-1.086-.067-.419-.135-.794-.206-1.068-4.285-16.332-18.643-19.368-21.484-19.365-3.046,0-8.376-1.67-16.138,6.406a17.617,17.617,0,0,0-2.945,4.069,17.535,17.535,0,0,0-3.456,7.379,8.859,8.859,0,0,0-.178,3.887c.146.006.171-1.479.777-3.746a18.976,18.976,0,0,1,1.5-3.858,14.889,14.889,0,0,0,.8,9.022l2.787-.769,9.973-3.4c-.909-3.089.423-6.925,1.176-8.714l.076-.069a15.588,15.588,0,0,0,13.2,12.8l1.861,25.652c13.26-2.843,12.945-20.588,12.858-24.193.6,2.033,1.386,4.366,2.371,6.81A29.451,29.451,0,0,0,445.2,197.4a8.1,8.1,0,0,0,3.443,3.1,5.406,5.406,0,0,0,3.092.455c.736-.141,1.086-.378,1.068-.412C452.779,200.485,452.4,200.626,451.7,200.674Z" transform="translate(-395.269 -160.931)"/></g><g transform="translate(9.327 30.07)"><path class="d" d="M405.308,189.118a7.267,7.267,0,0,0-1.766-.221c-.274-.013-.546-.053-.6-.255a1.543,1.543,0,0,1,.153-.872q.352-1.064.739-2.238c.513-1.592.953-3.039,1.252-4.094a7.191,7.191,0,0,0,.395-1.736,7.367,7.367,0,0,0-.689,1.642c-.373,1.031-.859,2.464-1.372,4.055q-.369,1.179-.707,2.248a1.748,1.748,0,0,0-.105,1.129.671.671,0,0,0,.459.387,1.8,1.8,0,0,0,.468.042A7.2,7.2,0,0,0,405.308,189.118Z" transform="translate(-402.542 -179.702)"/></g><g transform="translate(34.45 32.828)"><path class="l" d="M422.152,188.169a9.718,9.718,0,0,1,.418-3.868,3.649,3.649,0,0,1,2.815-2.435,3.087,3.087,0,0,1,3.182,2.57,3.8,3.8,0,0,1-1.934,3.768,4.994,4.994,0,0,1-4.352.124" transform="translate(-422.131 -181.853)"/><g transform="translate(2.283 1.643)"><path class="h" d="M423.932,186.665c.047-.086.424.105.977-.063a1.76,1.76,0,0,0,1.172-1.666,1.33,1.33,0,0,0-.28-1.044,1.183,1.183,0,0,0-.854-.254c-.587.053-1,.209-1.035.109-.024-.065.264-.366.966-.566a1.542,1.542,0,0,1,1.315.254,1.792,1.792,0,0,1,.54,1.543,2.437,2.437,0,0,1-.584,1.465,1.8,1.8,0,0,1-1.152.612C424.224,187.132,423.869,186.712,423.932,186.665Z" transform="translate(-423.911 -183.134)"/></g></g><g transform="translate(26.377)"><path class="q" d="M419.64,166.583a6,6,0,0,1-3.66-4.068,5.266,5.266,0,0,1,1.612-5.161,4.7,4.7,0,0,1,5.308-.5,6.738,6.738,0,0,1,2.641,3.7,5.4,5.4,0,0,1,.321,3.033,4.463,4.463,0,0,1-3.282,2.963,13.147,13.147,0,0,1-4.611.127" transform="translate(-415.836 -156.255)"/></g><g transform="translate(31.21 9.508)"><path class="q" d="M450.023,186.2a3.89,3.89,0,0,0,.069-1.6,3.622,3.622,0,0,0-.852-1.627,4.3,4.3,0,0,0-2.1-1.206,9.041,9.041,0,0,0-3.01-.212c-1.1.072-2.289.269-3.581.3a7.049,7.049,0,0,1-3.973-.939,6.36,6.36,0,0,1-2.378-3.669,19.49,19.49,0,0,0-3.908-7,20.759,20.759,0,0,0-5.052-4.213,29.4,29.4,0,0,0-5.636-2.364,6.252,6.252,0,0,1,1.642.276,17.526,17.526,0,0,1,4.23,1.677,20.156,20.156,0,0,1,5.279,4.217,19.547,19.547,0,0,1,4.078,7.193,5.791,5.791,0,0,0,2.1,3.334,6.514,6.514,0,0,0,3.609.872c1.231-.012,2.421-.186,3.558-.237a9.275,9.275,0,0,1,3.174.31,4.616,4.616,0,0,1,2.248,1.415,3.753,3.753,0,0,1,.825,1.828,2.652,2.652,0,0,1-.114,1.257C450.136,186.092,450.036,186.211,450.023,186.2Z" transform="translate(-419.604 -163.669)"/></g><g transform="translate(26.356 6.714)"><path class="d" d="M425.39,166.637c-.156.135-1.728-1.84-4.412-3.233-2.665-1.431-5.181-1.617-5.158-1.821-.028-.164,2.646-.28,5.47,1.231C424.128,164.293,425.543,166.567,425.39,166.637Z" transform="translate(-415.82 -161.49)"/></g><g transform="translate(11.727 49.335)"><path class="h" d="M404.485,198.229a19.558,19.558,0,0,0,10.379-3.505s-2.6,5.778-10.451,5.453Z" transform="translate(-404.413 -194.724)"/></g><g transform="translate(10.441 40.488)"><path class="e" d="M408.628,187.825a19.846,19.846,0,0,1-5.218,1.8,3.037,3.037,0,0,0,3.578,1.014C409.316,189.721,408.628,187.825,408.628,187.825Z" transform="translate(-403.41 -187.825)"/></g></g><g transform="translate(15.08 101.097)"><path class="l" d="M436.309,238.217c-2.948,7.4-6.291,14.841-7.858,14.985-17.369,1.584-35.953-4.174-42.468-6.451-.662-.743-1.417-1.635-2.258-2.727a10.411,10.411,0,0,1-1.635-3.122,15.855,15.855,0,0,1-.93-4.29,1.362,1.362,0,0,0-2.342-1.073c-.752.971-.943,4.694.771,8.7s-4.353.818-6.586-.3-9.3-4.266-10.189-3.853c-1.3.607-.894,2.114,1.362,3.181,2.283,1.081,8.793,4.746,8.144,5.9-.639,1.134-11.925-4.729-11.925-4.729s-2.21-1.643-3-.34c-1.433,2.353,11.024,7.7,12.222,8.181.832.332.172,1.608-.7,1.2-.9-.418-11.12-6.11-12.6-3.728-1.135,1.828,10.206,4.5,11.671,6.852s-8.4-2.9-9.41-1.107c-.377.667-.567,1.216,5.531,3.417a129.925,129.925,0,0,0,13.59,3.47l-.022.063s62.272,27.876,74.051.981c2.825-6.451,5.6-12.663,7.172-16.345" transform="translate(-356.228 -235.085)"/></g></g><g transform="translate(74.195 45.283)"><path class="d" d="M306.031,329.857l.864-138.121-8.776-.172-.649,138.291Z" transform="translate(-297.47 -191.564)"/></g></g></g><g transform="translate(60.618 196.573)"><g transform="translate(0 0)"><g transform="translate(14.286 144.22)"><path class="r" d="M135.726,279.832,71.336,338.3a24.224,24.224,0,0,0-7.609,17.626h0c0,13.415,11.376,22.19,24.79,22.137,32.723-.126,85.837-2.075,85.453-1.692-.548.549.526-20.12.526-20.12l-75.21-3.275L158.5,302.447l-22.776-22.615" transform="translate(-63.727 -279.832)"/><g transform="translate(67.536 14.515)"><path class="r" d="M124.229,291.15s-8.5,76.01-7.8,81.676,2.83,100.325,2.83,100.325l19.948-.791,5.385-99.786,16.724-75.818Z" transform="translate(-116.387 -291.15)"/></g><g transform="translate(66.473 76.408)"><path class="s" d="M116.149,339.41a27.233,27.233,0,0,1,.032,3.9c-.031,2.4-.024,5.716.142,9.371s.472,6.959.723,9.347a27.266,27.266,0,0,1,.328,3.882,19.292,19.292,0,0,1-.8-3.822,90.96,90.96,0,0,1-.87-18.795A19.255,19.255,0,0,1,116.149,339.41Z" transform="translate(-115.559 -339.41)"/></g><g transform="translate(28.24 73.011)"><path class="s" d="M85.751,341.247c-.094-.159,1.536-1.288,3.64-2.521s3.885-2.1,3.978-1.945-1.536,1.288-3.641,2.521S85.843,341.406,85.751,341.247Z" transform="translate(-85.747 -336.761)"/></g></g><g transform="translate(0 52.577)"><path class="d" d="M81.16,227.333l-27.3-18.958-1.272,2.135,27.132,19.2Z" transform="translate(-52.588 -208.375)"/><g transform="translate(1.696 1.56)"><path class="r" d="M71.524,226.643s-3.433-9.438-4.208-11.449-2.084-5.515-2.594-5.593-2.393.181-.05,6.187-2.941,2.266-2.941,2.266l-5.226-3.7s-4.186,12.037-1.924,15.755a59.1,59.1,0,0,0,5.985,7.874Z" transform="translate(-53.91 -209.591)"/></g></g><g transform="translate(57.927)"><g transform="translate(0 13.632)"><path class="d" d="M118.207,178.008c-5.566,3.851-1.509,11.374-4.716,14.57-1.188,1.185-2.879,1.767-4.048,2.973-4.009,4.141.623,11.972-2.895,16.539-1.2,1.557-3.11,2.358-4.668,3.556a11.232,11.232,0,0,0-2.6,14.325l30.953-6.81-4.826-42.2Z" transform="translate(-97.756 -178.008)"/></g><g transform="translate(42.382 8.839)"><path class="d" d="M146.286,174.27c1.953,4.616,9.056,4.145,12.382,7.894,2.156,2.428,2.288,6.173,4.45,8.6,2.184,2.446,5.794,2.891,8.668,4.467,5.781,3.172,7.827,10.327,9.335,16.745a162.377,162.377,0,0,1-33.864,9.693,136.147,136.147,0,0,0-13.9,1.8L130.8,179.921l15.483-5.651" transform="translate(-130.803 -174.27)"/></g><g transform="translate(20.651 5.582)"><path class="r" d="M125.685,229.4c-.054-2.509-1.34-14.133-1.34-14.133s-8.25-.462-9.153-8.576-1.334-26.908-1.334-26.908l14.587-8.05,13.573,12.127,3.015,40.334Z" transform="translate(-113.858 -171.731)"/></g><g transform="translate(19.27)"><path class="d" d="M144.671,190.942s-13.487-.6-16.465-12.666l-13.9,14.171s-4.868-8.8,2.786-17.587,13.279-7.32,16.443-7.477c2.951-.146,18.027,2.278,23.309,19.032.382,1.214.8,4.249,1.072,5.619Z" transform="translate(-112.781 -167.378)"/></g><g transform="translate(21.677 24.775)"><g transform="translate(1.084 1.362)"><path class="d" d="M115.5,188.853a1.043,1.043,0,1,0,.99-1.094A1.043,1.043,0,0,0,115.5,188.853Z" transform="translate(-115.503 -187.758)"/></g><path class="d" d="M114.679,188.068c.141.127.878-.566,2-.681,1.117-.132,1.988.382,2.1.227.054-.071-.1-.312-.48-.546a2.77,2.77,0,0,0-3.266.363C114.705,187.743,114.611,188.012,114.679,188.068Z" transform="translate(-114.658 -186.696)"/></g><g transform="translate(34.109 24.158)"><g transform="translate(0.724 1.381)"><path class="d" d="M124.917,188.386a1.043,1.043,0,1,0,.99-1.093A1.042,1.042,0,0,0,124.917,188.386Z" transform="translate(-124.916 -187.292)"/></g><path class="d" d="M124.373,187.587c.141.128.879-.564,2-.68,1.117-.133,1.988.382,2.1.226.054-.069-.1-.31-.478-.545a2.769,2.769,0,0,0-3.268.362C124.4,187.263,124.3,187.531,124.373,187.587Z" transform="translate(-124.352 -186.215)"/></g><g transform="translate(27.638 25.412)"><path class="d" d="M122.222,196.985a7.433,7.433,0,0,0-1.847-.142c-.287,0-.568-.028-.636-.233a1.584,1.584,0,0,1,.114-.911q.312-1.125.654-2.364a43.124,43.124,0,0,0,1.411-6.142,43.366,43.366,0,0,0-1.857,6.023q-.325,1.243-.618,2.373a1.8,1.8,0,0,0-.053,1.18.7.7,0,0,0,.5.381,1.912,1.912,0,0,0,.489.021A7.407,7.407,0,0,0,122.222,196.985Z" transform="translate(-119.306 -187.193)"/></g><g transform="translate(28.98 35.936)"><path class="e" d="M125.683,195.544c1.1-.809-3.041,2.022-5.33,2.135a3.107,3.107,0,0,0,3.77.871C126.468,197.42,125.683,195.544,125.683,195.544Z" transform="translate(-120.353 -195.399)"/></g><g transform="translate(30.936 44.939)"><path class="s" d="M121.878,206.6a20.339,20.339,0,0,0,10.6-4.177s-2.148,6.1-10.327,6.165Z" transform="translate(-121.878 -202.419)"/></g><g transform="translate(20.623 9.7)"><path class="d" d="M128.261,175.143s-2.694,5.911-1.206,10.187l-12.883,4.015S110.378,172.952,128.261,175.143Z" transform="translate(-113.836 -174.942)"/></g></g><g transform="translate(28.416 139.742)"><path class="t" d="M156.125,381.014l-81.38-53.664c17.221-18.425,35.947-34.678,56.906-47.707l49.377-3.3C186.241,316.165,156.354,349.1,156.125,381.014Z" transform="translate(-74.745 -276.34)"/></g><g transform="translate(70.704 339.07)"><g transform="translate(0.062)"><path class="u" d="M121.767,431.764l-.123,3.54s-17.384,3.4-13.238,4.788c3.718,1.243,26.679,1.017,32.3.864l1.262-.045.059-8.422Z" transform="translate(-107.767 -431.764)"/><g transform="translate(26.834 3.135)"><path class="u" d="M128.69,439.851a7.047,7.047,0,0,1,2.716-4.26,6.854,6.854,0,0,1,4.794-1.344l-.156,5.683Z" transform="translate(-128.69 -434.209)"/></g></g><g transform="translate(0 5.502)"><g class="v"><path class="w" d="M113.154,436.054s-6.1,1.575-5.376,2.593,23.939,1.663,34.2,1.052l-.019-.455-27.081-.521S114.337,436.137,113.154,436.054Z" transform="translate(-107.718 -436.054)"/></g></g><g transform="translate(0.063 7.749)"><path class="w" d="M142.266,438.745a1.825,1.825,0,0,1-.35.028l-1.005.032-3.7.056c-3.124.026-7.44,0-12.205-.123s-9.079-.341-12.2-.535l-3.691-.257-1-.087a1.928,1.928,0,0,1-.348-.046,1.882,1.882,0,0,1,.351,0l1.005.041,3.694.178c3.119.15,7.429.332,12.194.462s9.076.178,12.2.2l3.7.021,1.007.014A1.868,1.868,0,0,1,142.266,438.745Z" transform="translate(-107.767 -437.806)"/></g><g transform="translate(6.577 5.248)"><path class="w" d="M114.709,439.094a5.374,5.374,0,0,0-1.861-3.232,3.283,3.283,0,0,1,1.861,3.232Z" transform="translate(-112.846 -435.856)"/></g><g transform="translate(12.203 3.885)"><path class="w" d="M118.27,436.518c-.058.035-.335-.322-.619-.8s-.466-.889-.407-.925.335.323.618.8S118.329,436.483,118.27,436.518Z" transform="translate(-117.233 -434.793)"/></g><g transform="translate(13.668 3.603)"><path class="w" d="M119.619,435.755c-.047.049-.362-.174-.7-.5s-.58-.627-.534-.676.362.173.7.5S119.665,435.705,119.619,435.755Z" transform="translate(-118.376 -434.574)"/></g><g transform="translate(13.88 2.752)"><path class="w" d="M120.666,434.052a4.624,4.624,0,0,1-2.125-.035,4.624,4.624,0,0,1,2.125.035Z" transform="translate(-118.541 -433.91)"/></g><g transform="translate(13.989 1.529)"><path class="w" d="M121.037,432.979a2.985,2.985,0,0,1-2.411.114,6.615,6.615,0,0,1,1.206-.049A6.4,6.4,0,0,1,121.037,432.979Z" transform="translate(-118.626 -432.956)"/></g><g transform="translate(8.801 1.917)"><path class="w" d="M118.38,435.158a3.728,3.728,0,0,1-1.307-.045,7.628,7.628,0,0,1-1.381-.345,3.8,3.8,0,0,1-.787-.35.7.7,0,0,1-.312-.414.514.514,0,0,1,.212-.517,2.4,2.4,0,0,1,2.943.782,2.36,2.36,0,0,1,.4.884c.046.226.038.353.023.354a3.663,3.663,0,0,0-.563-1.131,2.365,2.365,0,0,0-1.1-.755,2.02,2.02,0,0,0-1.559.063c-.212.147-.139.394.088.537a3.927,3.927,0,0,0,.726.335,9.1,9.1,0,0,0,1.336.387C117.883,435.1,118.381,435.119,118.38,435.158Z" transform="translate(-114.581 -433.258)"/></g><g transform="translate(12.116 1.378)"><path class="w" d="M117.31,435.332a1.283,1.283,0,0,1-.126-.911,2.146,2.146,0,0,1,.383-.945,1.309,1.309,0,0,1,1.105-.635.52.52,0,0,1,.386.614,1.428,1.428,0,0,1-.239.577,3.945,3.945,0,0,1-.639.773,1.881,1.881,0,0,1-.762.508c-.022-.032.267-.227.639-.631a4.539,4.539,0,0,0,.568-.768c.187-.272.323-.763,0-.832-.326-.041-.669.276-.876.531a2.139,2.139,0,0,0-.392.839A4.679,4.679,0,0,0,117.31,435.332Z" transform="translate(-117.165 -432.839)"/></g><g transform="translate(26.918 2.945)"><path class="w" d="M136.09,434.229c-.005.045-.581-.072-1.5.01a6.373,6.373,0,0,0-5.442,4.1c-.335.862-.381,1.447-.427,1.44a1.178,1.178,0,0,1,.01-.41,5.457,5.457,0,0,1,.253-1.09,6.178,6.178,0,0,1,5.594-4.21,5.346,5.346,0,0,1,1.117.059A1.156,1.156,0,0,1,136.09,434.229Z" transform="translate(-128.707 -434.06)"/></g><g transform="translate(18.45 6.593)"><path class="w" d="M128.047,437.036a16.684,16.684,0,0,1-5.943-.108c.009-.072,1.334.046,2.972.073S128.041,436.965,128.047,437.036Z" transform="translate(-122.104 -436.905)"/></g><g transform="translate(27.769 6.821)"><path class="w" d="M129.978,437.091c.049.051-.115.278-.26.58s-.226.568-.295.562-.1-.324.073-.671S129.935,437.041,129.978,437.091Z" transform="translate(-129.37 -437.082)"/></g><g transform="translate(29.138 4.991)"><path class="w" d="M131.231,435.666c.047.049-.09.258-.307.464s-.43.336-.477.287.09-.258.307-.464S131.183,435.618,131.231,435.666Z" transform="translate(-130.438 -435.656)"/></g><g transform="translate(30.933 4.082)"><path class="w" d="M133.008,435.073c-.017.068-.286.059-.589.155s-.521.25-.572.2.124-.323.5-.437S133.03,435.01,133.008,435.073Z" transform="translate(-131.838 -434.947)"/></g><g transform="translate(33.024 3.798)"><path class="w" d="M134.088,434.775c.023.064-.1.165-.267.226s-.327.058-.35-.006.1-.164.267-.226S134.064,434.711,134.088,434.775Z" transform="translate(-133.468 -434.725)"/></g></g><g transform="translate(121.904 220.489)"><g transform="translate(0 0.155)"><g transform="translate(0 0.086)"><path class="u" d="M147.641,359.749l3.541.123s3.4,17.383,4.786,13.237c1.244-3.718,1.017-26.678.864-32.3l-.045-1.263-8.421-.059Z" transform="translate(-147.641 -339.49)"/></g><g transform="translate(3.136)"><path class="u" d="M155.729,346.934a7.061,7.061,0,0,1-4.262-2.718,6.852,6.852,0,0,1-1.343-4.794l5.681.158Z" transform="translate(-150.087 -339.423)"/></g></g><g transform="translate(5.503 0.3)"><g class="v"><path class="w" d="M151.932,368.361s1.575,6.1,2.593,5.377,1.662-23.939,1.05-34.2l-.455.019-.521,27.082S152.014,367.18,151.932,368.361Z" transform="translate(-151.932 -339.536)"/></g></g><g transform="translate(7.749)"><path class="w" d="M154.622,339.3a1.826,1.826,0,0,1,.028.35c.01.3.021.634.033,1.007.015,1,.033,2.241.056,3.7.026,3.124,0,7.441-.124,12.205s-.34,9.079-.535,12.2c-.1,1.454-.186,2.688-.257,3.69-.032.372-.06.7-.086,1a1.8,1.8,0,0,1-.047.348,1.825,1.825,0,0,1,0-.35c.013-.3.026-.632.041-1.005.047-1,.108-2.238.177-3.695.15-3.119.333-7.429.463-12.194s.177-9.076.2-12.2c.009-1.458.015-2.693.022-3.7.005-.373.009-.7.014-1.005A1.965,1.965,0,0,1,154.622,339.3Z" transform="translate(-153.683 -339.302)"/></g><g transform="translate(5.249 27.362)"><path class="w" d="M154.972,360.679a5.366,5.366,0,0,0-3.233,1.862,3.287,3.287,0,0,1,3.233-1.862Z" transform="translate(-151.733 -360.637)"/></g><g transform="translate(3.886 21.31)"><path class="w" d="M152.395,355.929c.036.059-.322.336-.8.619s-.889.466-.923.408.322-.336.8-.619S152.36,355.87,152.395,355.929Z" transform="translate(-150.671 -355.918)"/></g><g transform="translate(3.603 19.645)"><path class="w" d="M151.632,354.626c.05.046-.173.362-.5.7s-.627.581-.677.533.174-.362.5-.7S151.583,354.579,151.632,354.626Z" transform="translate(-150.451 -354.62)"/></g><g transform="translate(2.753 18.558)"><path class="w" d="M149.93,353.772a4.647,4.647,0,0,1-.036,2.125,4.647,4.647,0,0,1,.036-2.125Z" transform="translate(-149.788 -353.772)"/></g><g transform="translate(1.529 18.162)"><path class="w" d="M148.856,353.464a2.992,2.992,0,0,1,.115,2.411,6.427,6.427,0,0,1-.05-1.206A6.659,6.659,0,0,1,148.856,353.464Z" transform="translate(-148.833 -353.463)"/></g><g transform="translate(1.917 21.961)"><path class="w" d="M151.037,356.426a3.808,3.808,0,0,1-.045,1.307,7.635,7.635,0,0,1-.345,1.383,3.853,3.853,0,0,1-.35.786.706.706,0,0,1-.416.313.515.515,0,0,1-.517-.213,2.4,2.4,0,0,1,.784-2.943,2.316,2.316,0,0,1,.884-.4.735.735,0,0,1,.354-.024,3.688,3.688,0,0,0-1.131.564,2.355,2.355,0,0,0-.757,1.1,2.035,2.035,0,0,0,.063,1.561c.149.212.395.137.539-.09a3.922,3.922,0,0,0,.333-.726,8.828,8.828,0,0,0,.387-1.335C150.98,356.924,151,356.425,151.037,356.426Z" transform="translate(-149.136 -356.426)"/></g><g transform="translate(1.379 20.54)"><path class="w" d="M151.21,357.08a1.29,1.29,0,0,1-.912.126,2.156,2.156,0,0,1-.944-.383,1.313,1.313,0,0,1-.636-1.107.521.521,0,0,1,.614-.386,1.429,1.429,0,0,1,.577.238,3.961,3.961,0,0,1,.773.639,1.884,1.884,0,0,1,.509.763c-.033.022-.228-.267-.631-.639a4.613,4.613,0,0,0-.77-.569c-.271-.186-.763-.323-.832,0-.04.327.276.669.531.876a2.157,2.157,0,0,0,.84.394A4.81,4.81,0,0,0,151.21,357.08Z" transform="translate(-148.716 -355.318)"/></g><g transform="translate(2.945 0.26)"><path class="w" d="M150.106,339.505c.046.006-.072.581.012,1.5a6.373,6.373,0,0,0,4.1,5.443c.863.335,1.448.381,1.44.426a1.132,1.132,0,0,1-.409-.01,5.292,5.292,0,0,1-1.091-.253,6.178,6.178,0,0,1-4.21-5.594A5.341,5.341,0,0,1,150,339.9,1.142,1.142,0,0,1,150.106,339.505Z" transform="translate(-149.938 -339.505)"/></g><g transform="translate(6.594 10.17)"><path class="w" d="M152.914,347.232a16.719,16.719,0,0,1-.109,5.942c-.071-.008.047-1.334.074-2.97S152.842,347.238,152.914,347.232Z" transform="translate(-152.783 -347.232)"/></g><g transform="translate(6.821 6.177)"><path class="w" d="M152.968,344.127c.051-.049.278.117.58.26s.568.226.562.295-.323.1-.669-.073S152.918,344.169,152.968,344.127Z" transform="translate(-152.959 -344.118)"/></g><g transform="translate(4.992 4.623)"><path class="w" d="M151.544,342.916c.049-.047.256.09.464.305s.336.43.286.477-.256-.09-.464-.306S151.494,342.962,151.544,342.916Z" transform="translate(-151.534 -342.907)"/></g><g transform="translate(4.082 2.459)"><path class="w" d="M150.95,341.22c.069.015.059.286.156.587s.25.521.2.573-.323-.126-.437-.5S150.888,341.2,150.95,341.22Z" transform="translate(-150.824 -341.219)"/></g><g transform="translate(3.798 0.916)"><path class="w" d="M150.652,340.019c.064-.022.165.1.227.268s.058.327-.006.35-.165-.1-.226-.268S150.588,340.042,150.652,340.019Z" transform="translate(-150.602 -340.016)"/></g></g><g transform="translate(5.807 52.765)"><path class="x" d="M70.313,226.037c.553-1.215,33.157,27.684,39.756,25.41,3.079-1.062,11.7-9.948,20.014-19.124l-.019-.2a77.877,77.877,0,0,1,17.68-20.521,13.856,13.856,0,0,1,21.494,5.439c6.384,15.3,5.6,34.4,12.558,63.165l.482,1.756-.1-.169c1.05,4.225,2.271,8.656,3.705,13.31l-3.609-13.14a30.543,30.543,0,0,0,3,4.3c1.209,1.448,2.6,2.87,3.06,4.7s-.5,4.177-2.374,4.386c.015.05.029.1.046.15l-48.625,3.251,0,.186a4.41,4.41,0,0,1-4.428-2.519,7.782,7.782,0,0,1-.337-5.331,37.786,37.786,0,0,1,1.937-5.1c.233-.573.453-1.157.641-1.749l-1.424-14.456c-10.126,7.341-20.027,13.176-25,12.314-12.5-2.167-51.66-41.754-51.66-41.754S69.76,227.253,70.313,226.037Z" transform="translate(-57.116 -208.521)"/><g transform="translate(75.598 19.392)"><path class="y" d="M149.753,223.642a13.306,13.306,0,0,1-.73,2.026c-.5,1.294-1.317,3.128-2.415,5.352s-2.524,4.814-4.25,7.605a91.858,91.858,0,0,1-13.307,16.645c-2.344,2.3-4.549,4.268-6.484,5.821s-3.536,2.762-4.689,3.533a13.2,13.2,0,0,1-1.815,1.157,13.274,13.274,0,0,1,1.661-1.367c1.1-.832,2.661-2.087,4.54-3.686s4.046-3.586,6.351-5.893c2.282-2.33,4.693-4.986,7.052-7.918,2.341-2.947,4.4-5.884,6.171-8.621,1.743-2.756,3.213-5.3,4.35-7.492s2.026-3.982,2.6-5.24A13.4,13.4,0,0,1,149.753,223.642Z" transform="translate(-116.062 -223.642)"/></g><g transform="translate(51.601 43.24)"><path class="y" d="M98.418,252.606c-.183.017-.549-2.291-.814-5.153s-.332-5.2-.149-5.216.548,2.29.814,5.154S98.6,252.589,98.418,252.606Z" transform="translate(-97.351 -242.237)"/></g><g transform="translate(52.881 43.846)"><path class="y" d="M100.734,251.917c-.18.046-.848-1.979-1.494-4.521s-1.026-4.641-.846-4.686.846,1.979,1.494,4.522S100.913,251.872,100.734,251.917Z" transform="translate(-98.349 -242.709)"/></g></g></g></g></g></svg>