<svg xmlns="http://www.w3.org/2000/svg" xmlns:xlink="http://www.w3.org/1999/xlink" width="164" height="175.918" viewBox="0 0 164 175.918"><defs><style>.a{fill:none;}.b,.f,.g{fill:#fff;}.c{opacity:0.3;clip-path:url(#a);}.d{fill:#585ce9;}.e{clip-path:url(#b);}.f{opacity:0.501;}.g{opacity:0.5;}</style><clipPath id="a"><rect class="a" width="93" height="175.918"/></clipPath><clipPath id="b"><rect class="b" width="64" height="64" transform="translate(929 1882)"/></clipPath></defs><g transform="translate(-858 -1826)"><g class="c" transform="translate(858 1826)"><g transform="translate(-1472 -2365)"><circle class="d" cx="2" cy="2" r="2" transform="translate(1472 2365)"/></g><g transform="translate(-1450 -2365)"><circle class="d" cx="2" cy="2" r="2" transform="translate(1472 2365)"/></g><g transform="translate(-1428 -2365)"><circle class="d" cx="2" cy="2" r="2" transform="translate(1472 2365)"/></g><g transform="translate(-1406 -2365)"><circle class="d" cx="2" cy="2" r="2" transform="translate(1472 2365)"/></g><g transform="translate(-1384 -2365)"><circle class="d" cx="2" cy="2" r="2" transform="translate(1472 2365)"/></g><g transform="translate(-1472 -2337)"><circle class="d" cx="2" cy="2" r="2" transform="translate(1472 2365)"/></g><g transform="translate(-1450 -2337)"><circle class="d" cx="2" cy="2" r="2" transform="translate(1472 2365)"/></g><g transform="translate(-1428 -2337)"><circle class="d" cx="2" cy="2" r="2" transform="translate(1472 2365)"/></g><g transform="translate(-1406 -2337)"><circle class="d" cx="2" cy="2" r="2" transform="translate(1472 2365)"/></g><g transform="translate(-1384 -2337)"><circle class="d" cx="2" cy="2" r="2" transform="translate(1472 2365)"/></g><g transform="translate(-1472 -2309)"><circle class="d" cx="2" cy="2" r="2" transform="translate(1472 2365)"/></g><g transform="translate(-1450 -2309)"><circle class="d" cx="2" cy="2" r="2" transform="translate(1472 2365)"/></g><g transform="translate(-1428 -2309)"><circle class="d" cx="2" cy="2" r="2" transform="translate(1472 2365)"/></g><g transform="translate(-1406 -2309)"><circle class="d" cx="2" cy="2" r="2" transform="translate(1472 2365)"/></g><g transform="translate(-1384 -2309)"><circle class="d" cx="2" cy="2" r="2" transform="translate(1472 2365)"/></g><g transform="translate(-1472 -2281)"><circle class="d" cx="2" cy="2" r="2" transform="translate(1472 2365)"/></g><g transform="translate(-1450 -2281)"><circle class="d" cx="2" cy="2" r="2" transform="translate(1472 2365)"/></g><g transform="translate(-1428 -2281)"><circle class="d" cx="2" cy="2" r="2" transform="translate(1472 2365)"/></g><g transform="translate(-1406 -2281)"><circle class="d" cx="2" cy="2" r="2" transform="translate(1472 2365)"/></g><g transform="translate(-1384 -2281)"><circle class="d" cx="2" cy="2" r="2" transform="translate(1472 2365)"/></g><g transform="translate(-1472 -2253)"><circle class="d" cx="2" cy="2" r="2" transform="translate(1472 2365)"/></g><g transform="translate(-1450 -2253)"><circle class="d" cx="2" cy="2" r="2" transform="translate(1472 2365)"/></g><g transform="translate(-1428 -2253)"><circle class="d" cx="2" cy="2" r="2" transform="translate(1472 2365)"/></g><g transform="translate(-1406 -2253)"><circle class="d" cx="2" cy="2" r="2" transform="translate(1472 2365)"/></g><g transform="translate(-1384 -2253)"><circle class="d" cx="2" cy="2" r="2" transform="translate(1472 2365)"/></g><g transform="translate(-1472 -2225)"><circle class="d" cx="2" cy="2" r="2" transform="translate(1472 2365)"/></g><g transform="translate(-1450 -2225)"><circle class="d" cx="2" cy="2" r="2" transform="translate(1472 2365)"/></g><g transform="translate(-1428 -2225)"><circle class="d" cx="2" cy="2" r="2" transform="translate(1472 2365)"/></g><g transform="translate(-1406 -2225)"><circle class="d" cx="2" cy="2" r="2" transform="translate(1472 2365)"/></g><g transform="translate(-1384 -2225)"><circle class="d" cx="2" cy="2" r="2" transform="translate(1472 2365)"/></g><g transform="translate(-1472 -2197)"><circle class="d" cx="2" cy="2" r="2" transform="translate(1472 2365)"/></g><g transform="translate(-1450 -2197)"><circle class="d" cx="2" cy="2" r="2" transform="translate(1472 2365)"/></g><g transform="translate(-1428 -2197)"><circle class="d" cx="2" cy="2" r="2" transform="translate(1472 2365)"/></g><g transform="translate(-1406 -2197)"><circle class="d" cx="2" cy="2" r="2" transform="translate(1472 2365)"/></g><g transform="translate(-1384 -2197)"><circle class="d" cx="2" cy="2" r="2" transform="translate(1472 2365)"/></g></g><rect class="d" width="122" height="122" rx="18" transform="translate(900 1853)"/><g class="e"><g transform="translate(929 1880.667)"><path class="f" d="M-16988.324-1828.894a2.666,2.666,0,0,1,.217-3.765l12-10.668a2.655,2.655,0,0,1,2.088-.652l20.756,2.516,7.516-7.119-2.672-2.671a2,2,0,0,1-.434-2.179,2,2,0,0,1,1.85-1.232h9.334a2,2,0,0,1,2,2v9.333a2.006,2.006,0,0,1-1.236,1.846,1.99,1.99,0,0,1-.764.153,2,2,0,0,1-1.416-.588l-2.891-2.89-8.527,8.083a2.685,2.685,0,0,1-2.158.712l-20.807-2.528-11.1,9.871a2.653,2.653,0,0,1-1.768.674A2.656,2.656,0,0,1-16988.324-1828.894Z" transform="translate(16994.334 1857.333)"/><path class="b" d="M18.667,48.667V56h-16V48.667A3.335,3.335,0,0,1,6,45.333h9.333A3.335,3.335,0,0,1,18.667,48.667Z"/><path class="b" d="M40,32.667V56H24V32.667a3.335,3.335,0,0,1,3.333-3.333h9.333A3.335,3.335,0,0,1,40,32.667Z"/><path class="b" d="M61.333,38V56h-16V38a3.335,3.335,0,0,1,3.333-3.333H58A3.335,3.335,0,0,1,61.333,38Z"/><path class="g" d="M62,64H2a2,2,0,0,1,0-4H62a2,2,0,0,1,0,4Z"/></g></g></g></svg>