<svg xmlns="http://www.w3.org/2000/svg" xmlns:xlink="http://www.w3.org/1999/xlink" width="164" height="175.918" viewBox="0 0 164 175.918"><defs><style>.a{fill:none;}.b,.f{fill:#fff;}.c{opacity:0.3;clip-path:url(#a);}.d{fill:#e743af;}.e{clip-path:url(#b);}.f{opacity:0.5;}</style><clipPath id="a"><rect class="a" width="93" height="175.918"/></clipPath><clipPath id="b"><rect class="b" width="64" height="64" transform="translate(1397 1882)"/></clipPath></defs><g transform="translate(-1326 -1826)"><g class="c" transform="translate(1326 1826)"><g transform="translate(-1472 -2365)"><circle class="d" cx="2" cy="2" r="2" transform="translate(1472 2365)"/></g><g transform="translate(-1450 -2365)"><circle class="d" cx="2" cy="2" r="2" transform="translate(1472 2365)"/></g><g transform="translate(-1428 -2365)"><circle class="d" cx="2" cy="2" r="2" transform="translate(1472 2365)"/></g><g transform="translate(-1406 -2365)"><circle class="d" cx="2" cy="2" r="2" transform="translate(1472 2365)"/></g><g transform="translate(-1384 -2365)"><circle class="d" cx="2" cy="2" r="2" transform="translate(1472 2365)"/></g><g transform="translate(-1472 -2337)"><circle class="d" cx="2" cy="2" r="2" transform="translate(1472 2365)"/></g><g transform="translate(-1450 -2337)"><circle class="d" cx="2" cy="2" r="2" transform="translate(1472 2365)"/></g><g transform="translate(-1428 -2337)"><circle class="d" cx="2" cy="2" r="2" transform="translate(1472 2365)"/></g><g transform="translate(-1406 -2337)"><circle class="d" cx="2" cy="2" r="2" transform="translate(1472 2365)"/></g><g transform="translate(-1384 -2337)"><circle class="d" cx="2" cy="2" r="2" transform="translate(1472 2365)"/></g><g transform="translate(-1472 -2309)"><circle class="d" cx="2" cy="2" r="2" transform="translate(1472 2365)"/></g><g transform="translate(-1450 -2309)"><circle class="d" cx="2" cy="2" r="2" transform="translate(1472 2365)"/></g><g transform="translate(-1428 -2309)"><circle class="d" cx="2" cy="2" r="2" transform="translate(1472 2365)"/></g><g transform="translate(-1406 -2309)"><circle class="d" cx="2" cy="2" r="2" transform="translate(1472 2365)"/></g><g transform="translate(-1384 -2309)"><circle class="d" cx="2" cy="2" r="2" transform="translate(1472 2365)"/></g><g transform="translate(-1472 -2281)"><circle class="d" cx="2" cy="2" r="2" transform="translate(1472 2365)"/></g><g transform="translate(-1450 -2281)"><circle class="d" cx="2" cy="2" r="2" transform="translate(1472 2365)"/></g><g transform="translate(-1428 -2281)"><circle class="d" cx="2" cy="2" r="2" transform="translate(1472 2365)"/></g><g transform="translate(-1406 -2281)"><circle class="d" cx="2" cy="2" r="2" transform="translate(1472 2365)"/></g><g transform="translate(-1384 -2281)"><circle class="d" cx="2" cy="2" r="2" transform="translate(1472 2365)"/></g><g transform="translate(-1472 -2253)"><circle class="d" cx="2" cy="2" r="2" transform="translate(1472 2365)"/></g><g transform="translate(-1450 -2253)"><circle class="d" cx="2" cy="2" r="2" transform="translate(1472 2365)"/></g><g transform="translate(-1428 -2253)"><circle class="d" cx="2" cy="2" r="2" transform="translate(1472 2365)"/></g><g transform="translate(-1406 -2253)"><circle class="d" cx="2" cy="2" r="2" transform="translate(1472 2365)"/></g><g transform="translate(-1384 -2253)"><circle class="d" cx="2" cy="2" r="2" transform="translate(1472 2365)"/></g><g transform="translate(-1472 -2225)"><circle class="d" cx="2" cy="2" r="2" transform="translate(1472 2365)"/></g><g transform="translate(-1450 -2225)"><circle class="d" cx="2" cy="2" r="2" transform="translate(1472 2365)"/></g><g transform="translate(-1428 -2225)"><circle class="d" cx="2" cy="2" r="2" transform="translate(1472 2365)"/></g><g transform="translate(-1406 -2225)"><circle class="d" cx="2" cy="2" r="2" transform="translate(1472 2365)"/></g><g transform="translate(-1384 -2225)"><circle class="d" cx="2" cy="2" r="2" transform="translate(1472 2365)"/></g><g transform="translate(-1472 -2197)"><circle class="d" cx="2" cy="2" r="2" transform="translate(1472 2365)"/></g><g transform="translate(-1450 -2197)"><circle class="d" cx="2" cy="2" r="2" transform="translate(1472 2365)"/></g><g transform="translate(-1428 -2197)"><circle class="d" cx="2" cy="2" r="2" transform="translate(1472 2365)"/></g><g transform="translate(-1406 -2197)"><circle class="d" cx="2" cy="2" r="2" transform="translate(1472 2365)"/></g><g transform="translate(-1384 -2197)"><circle class="d" cx="2" cy="2" r="2" transform="translate(1472 2365)"/></g></g><rect class="d" width="122" height="122" rx="18" transform="translate(1368 1853)"/><g class="e"><g transform="translate(1397 1880)"><circle class="f" cx="5.333" cy="5.333" r="5.333" transform="translate(5.333 21.333)"/><path class="f" d="M17.787,35.733a11.175,11.175,0,0,0-4.453,8.933v.667H2a2.015,2.015,0,0,1-2-2V42a7.329,7.329,0,0,1,7.333-7.333H14A7.286,7.286,0,0,1,17.787,35.733Z"/><circle class="f" cx="5.333" cy="5.333" r="5.333" transform="translate(48 21.333)"/><path class="f" d="M64,42v1.333a2.015,2.015,0,0,1-2,2H50.667v-.667a11.175,11.175,0,0,0-4.453-8.933A7.286,7.286,0,0,1,50,34.667h6.667A7.329,7.329,0,0,1,64,42Z"/><circle class="b" cx="8" cy="8" r="8" transform="translate(24 17.333)"/><path class="b" d="M39.333,37.333H24.667a7.339,7.339,0,0,0-7.333,7.333v4a2,2,0,0,0,2,2H44.667a2,2,0,0,0,2-2v-4A7.339,7.339,0,0,0,39.333,37.333Z"/></g></g></g></svg>