<svg xmlns="http://www.w3.org/2000/svg" xmlns:xlink="http://www.w3.org/1999/xlink" width="164" height="175.918" viewBox="0 0 164 175.918"><defs><style>.a{fill:none;}.b,.g,.h{fill:#fff;}.b,.c{stroke:#707070;}.c,.e{fill:#ffd100;}.d{opacity:0.3;clip-path:url(#a);}.f{clip-path:url(#b);}.h{opacity:0.5;}.i{opacity:0.37;clip-path:url(#c);}</style><clipPath id="a"><rect class="a" width="93" height="175.918"/></clipPath><clipPath id="b"><rect class="b" width="64" height="64" transform="translate(462 1982)"/></clipPath><clipPath id="c"><rect class="c" width="7" height="64" transform="translate(0.133)"/></clipPath></defs><g transform="translate(-389 -1826)"><g class="d" transform="translate(389 1826)"><g transform="translate(-1472 -2365)"><circle class="e" cx="2" cy="2" r="2" transform="translate(1472 2365)"/></g><g transform="translate(-1450 -2365)"><circle class="e" cx="2" cy="2" r="2" transform="translate(1472 2365)"/></g><g transform="translate(-1428 -2365)"><circle class="e" cx="2" cy="2" r="2" transform="translate(1472 2365)"/></g><g transform="translate(-1406 -2365)"><circle class="e" cx="2" cy="2" r="2" transform="translate(1472 2365)"/></g><g transform="translate(-1384 -2365)"><circle class="e" cx="2" cy="2" r="2" transform="translate(1472 2365)"/></g><g transform="translate(-1472 -2337)"><circle class="e" cx="2" cy="2" r="2" transform="translate(1472 2365)"/></g><g transform="translate(-1450 -2337)"><circle class="e" cx="2" cy="2" r="2" transform="translate(1472 2365)"/></g><g transform="translate(-1428 -2337)"><circle class="e" cx="2" cy="2" r="2" transform="translate(1472 2365)"/></g><g transform="translate(-1406 -2337)"><circle class="e" cx="2" cy="2" r="2" transform="translate(1472 2365)"/></g><g transform="translate(-1384 -2337)"><circle class="e" cx="2" cy="2" r="2" transform="translate(1472 2365)"/></g><g transform="translate(-1472 -2309)"><circle class="e" cx="2" cy="2" r="2" transform="translate(1472 2365)"/></g><g transform="translate(-1450 -2309)"><circle class="e" cx="2" cy="2" r="2" transform="translate(1472 2365)"/></g><g transform="translate(-1428 -2309)"><circle class="e" cx="2" cy="2" r="2" transform="translate(1472 2365)"/></g><g transform="translate(-1406 -2309)"><circle class="e" cx="2" cy="2" r="2" transform="translate(1472 2365)"/></g><g transform="translate(-1384 -2309)"><circle class="e" cx="2" cy="2" r="2" transform="translate(1472 2365)"/></g><g transform="translate(-1472 -2281)"><circle class="e" cx="2" cy="2" r="2" transform="translate(1472 2365)"/></g><g transform="translate(-1450 -2281)"><circle class="e" cx="2" cy="2" r="2" transform="translate(1472 2365)"/></g><g transform="translate(-1428 -2281)"><circle class="e" cx="2" cy="2" r="2" transform="translate(1472 2365)"/></g><g transform="translate(-1406 -2281)"><circle class="e" cx="2" cy="2" r="2" transform="translate(1472 2365)"/></g><g transform="translate(-1384 -2281)"><circle class="e" cx="2" cy="2" r="2" transform="translate(1472 2365)"/></g><g transform="translate(-1472 -2253)"><circle class="e" cx="2" cy="2" r="2" transform="translate(1472 2365)"/></g><g transform="translate(-1450 -2253)"><circle class="e" cx="2" cy="2" r="2" transform="translate(1472 2365)"/></g><g transform="translate(-1428 -2253)"><circle class="e" cx="2" cy="2" r="2" transform="translate(1472 2365)"/></g><g transform="translate(-1406 -2253)"><circle class="e" cx="2" cy="2" r="2" transform="translate(1472 2365)"/></g><g transform="translate(-1384 -2253)"><circle class="e" cx="2" cy="2" r="2" transform="translate(1472 2365)"/></g><g transform="translate(-1472 -2225)"><circle class="e" cx="2" cy="2" r="2" transform="translate(1472 2365)"/></g><g transform="translate(-1450 -2225)"><circle class="e" cx="2" cy="2" r="2" transform="translate(1472 2365)"/></g><g transform="translate(-1428 -2225)"><circle class="e" cx="2" cy="2" r="2" transform="translate(1472 2365)"/></g><g transform="translate(-1406 -2225)"><circle class="e" cx="2" cy="2" r="2" transform="translate(1472 2365)"/></g><g transform="translate(-1384 -2225)"><circle class="e" cx="2" cy="2" r="2" transform="translate(1472 2365)"/></g><g transform="translate(-1472 -2197)"><circle class="e" cx="2" cy="2" r="2" transform="translate(1472 2365)"/></g><g transform="translate(-1450 -2197)"><circle class="e" cx="2" cy="2" r="2" transform="translate(1472 2365)"/></g><g transform="translate(-1428 -2197)"><circle class="e" cx="2" cy="2" r="2" transform="translate(1472 2365)"/></g><g transform="translate(-1406 -2197)"><circle class="e" cx="2" cy="2" r="2" transform="translate(1472 2365)"/></g><g transform="translate(-1384 -2197)"><circle class="e" cx="2" cy="2" r="2" transform="translate(1472 2365)"/></g></g><rect class="e" width="122" height="122" rx="18" transform="translate(431 1853)"/><g class="f" transform="translate(2 -100)"><g transform="translate(459.867 1982)"><path class="g" d="M34.747,4.957,5.44.5a4.726,4.726,0,0,0-3.787,1.04A4.768,4.768,0,0,0,0,5.117V61.3A2.675,2.675,0,0,0,2.667,63.97h8.667v-14A4.655,4.655,0,0,1,16,45.3h6.667a4.655,4.655,0,0,1,4.667,4.667v14H38.667V9.57a4.669,4.669,0,0,0-3.92-4.613ZM14.667,39.3h-4a2,2,0,0,1,0-4h4a2,2,0,0,1,0,4Zm0-8h-4a2,2,0,0,1,0-4h4a2,2,0,0,1,0,4Zm0-8h-4a2,2,0,0,1,0-4h4a2,2,0,0,1,0,4Zm0-8h-4a2,2,0,0,1,0-4h4a2,2,0,0,1,0,4ZM28,39.3H24a2,2,0,0,1,0-4h4a2,2,0,1,1,0,4Zm0-8H24a2,2,0,0,1,0-4h4a2,2,0,0,1,0,4Zm0-8H24a2,2,0,0,1,0-4h4a2,2,0,0,1,0,4Zm0-8H24a2,2,0,0,1,0-4h4a2,2,0,0,1,0,4Z" transform="translate(2.133 -0.208)"/><path class="h" d="M57.737,27.354,38.75,23.377V62.442h18a4.672,4.672,0,0,0,4.667-4.667V31.914A4.644,4.644,0,0,0,57.737,27.354Zm-6.32,27.088h-4a2,2,0,0,1,0-4h4a2,2,0,0,1,0,4Zm0-8h-4a2,2,0,0,1,0-4h4a2,2,0,0,1,0,4Zm0-8h-4a2,2,0,0,1,0-4h4a2,2,0,0,1,0,4Z" transform="translate(4.717 1.321)"/><g class="i" transform="translate(0 0)"><path class="e" d="M28.081,4.957,4.4.5a3.322,3.322,0,0,0-3.06,1.04A5.3,5.3,0,0,0,0,5.117V61.3A2.46,2.46,0,0,0,2.155,63.97h7v-14c0-2.587,1.681-4.667,3.771-4.667h5.388c2.09,0,3.771,2.08,3.771,4.667v14h9.159V9.57c0-2.293-1.336-4.24-3.168-4.613ZM11.853,39.3H8.62a2.046,2.046,0,0,1,0-4h3.233a2.046,2.046,0,0,1,0,4Zm0-8H8.62A1.84,1.84,0,0,1,7,29.3a1.84,1.84,0,0,1,1.616-2h3.233a1.84,1.84,0,0,1,1.616,2A1.84,1.84,0,0,1,11.853,31.3Zm0-8H8.62A1.84,1.84,0,0,1,7,21.3a1.84,1.84,0,0,1,1.616-2h3.233a1.84,1.84,0,0,1,1.616,2A1.84,1.84,0,0,1,11.853,23.3Zm0-8H8.62A1.84,1.84,0,0,1,7,13.3a1.84,1.84,0,0,1,1.616-2h3.233a1.84,1.84,0,0,1,1.616,2A1.84,1.84,0,0,1,11.853,15.3Zm10.775,24H19.4a2.046,2.046,0,0,1,0-4h3.233a2.046,2.046,0,0,1,0,4Zm0-8H19.4a1.84,1.84,0,0,1-1.616-2,1.84,1.84,0,0,1,1.616-2h3.233a1.84,1.84,0,0,1,1.616,2A1.84,1.84,0,0,1,22.628,31.3Zm0-8H19.4a1.84,1.84,0,0,1-1.616-2,1.84,1.84,0,0,1,1.616-2h3.233a1.84,1.84,0,0,1,1.616,2A1.84,1.84,0,0,1,22.628,23.3Zm0-8H19.4a1.84,1.84,0,0,1-1.616-2,1.84,1.84,0,0,1,1.616-2h3.233a1.84,1.84,0,0,1,1.616,2A1.84,1.84,0,0,1,22.628,15.3Z" transform="translate(1.724 -0.208)"/></g></g></g></g></svg>