<svg xmlns="http://www.w3.org/2000/svg" xmlns:xlink="http://www.w3.org/1999/xlink" width="63" height="63" viewBox="0 0 63 63"><defs><style>.a{fill:#ededed;}.b{clip-path:url(#a);}.c{fill:#4e4e4e;}</style><clipPath id="a"><rect width="35" height="35" transform="translate(611 3917)"/></clipPath></defs><g transform="translate(-597 -3903)"><rect class="a" width="63" height="63" rx="10" transform="translate(597 3903)"/><g class="b"><g transform="translate(614.145 3917.006)"><path class="c" d="M27.6,11.858c-5.07,5.249-4.721,9.665,1.108,14a19.322,19.322,0,0,1-5.236,8.174,3.772,3.772,0,0,1-3.493.836,5.713,5.713,0,0,1-1.178-.378c-2.605-1.309-5.17-.92-7.762.072-2.265.865-3.428.419-5.1-1.359A22.516,22.516,0,0,1,.165,20.781a11.6,11.6,0,0,1,1.787-8.545C4.261,8.894,7.637,7.544,11.42,8.992a8.873,8.873,0,0,0,6.837-.066,7.663,7.663,0,0,1,8.249,1.414A2.79,2.79,0,0,1,27.6,11.858Z"/><path class="c" d="M21.391,0c.564,4.125-3,8.264-6.8,7.893C13.684,4.27,17.524-.193,21.391,0Z"/></g></g></g></svg>