<svg xmlns="http://www.w3.org/2000/svg" xmlns:xlink="http://www.w3.org/1999/xlink" width="63" height="63" viewBox="0 0 63 63"><defs><style>.a{fill:#61dbfb;}.b{fill:#effcff;}.c{clip-path:url(#a);}</style><clipPath id="a"><rect class="a" width="35" height="35" transform="translate(611 3917)"/></clipPath></defs><g transform="translate(-597 -3903)"><rect class="b" width="63" height="63" rx="10" transform="translate(597 3903)"/><g class="c"><g transform="translate(611 3918.58)"><path class="a" d="M0,16.061c.05-.131.094-.264.15-.392a2.08,2.08,0,0,1,1.032-1.089,2.247,2.247,0,0,0,.666-.5A10.637,10.637,0,0,1,6.307,11.42c.336-.117.672-.233,1.017-.324.137-.036.212-.012.262.134.133.386.24.778.343,1.173.044.165-.012.244-.171.3-.686.233-1.377.455-2.039.754a7.763,7.763,0,0,0-2.372,1.508,2.062,2.062,0,0,1,.164,2.683,6.689,6.689,0,0,0,1.178.817A16.09,16.09,0,0,0,8.2,19.856a32.6,32.6,0,0,0,4.491.9c.113.015.227.017.382.029-.457-.9-.956-1.726-1.463-2.6-.148.353-.283.669-.413.987-.1.255-.194.29-.467.22-.326-.083-.657-.143-.986-.216-.249-.055-.3-.126-.21-.368.1-.285.227-.564.345-.844q.331-.784.667-1.566a.356.356,0,0,0,.009-.246,7.734,7.734,0,0,0-.389-1.013,30.608,30.608,0,0,1-2.21-6.961A11.684,11.684,0,0,1,7.9,4.055a3.6,3.6,0,0,1,1.28-2.292,3.252,3.252,0,0,1,3.076-.495A10.16,10.16,0,0,1,15.68,3.138a28.2,28.2,0,0,1,5.045,5.289q.452.595.881,1.217a.422.422,0,0,0,.345.2,35.9,35.9,0,0,1,5.968,1.011,16.77,16.77,0,0,1,4.536,1.789,6.391,6.391,0,0,1,1.969,1.735A4.184,4.184,0,0,1,35,15.594v1.361c-.01.039-.064.024-.078.071a4.492,4.492,0,0,1-1.807,2.336,11.555,11.555,0,0,1-2.546,1.361,15.392,15.392,0,0,1-2.014.707l-.5-1.6c.164-.055.311-.1.456-.152a13.588,13.588,0,0,0,3.4-1.541,3.554,3.554,0,0,0,1.236-1.266A1.283,1.283,0,0,0,33,15.318a6.124,6.124,0,0,0-1.741-1.4,14.26,14.26,0,0,0-2.874-1.188,31.4,31.4,0,0,0-5.25-1.075c-.05-.007-.1-.006-.194-.011.5.861,1,1.679,1.473,2.552a2.77,2.77,0,0,0,.311-.544c.354-.807.238-.666.972-.521.228.045.454.1.679.163s.236.082.167.311a7.856,7.856,0,0,1-.344.887c-.226.516-.452,1.032-.687,1.544a.386.386,0,0,0,0,.347,46.363,46.363,0,0,1,1.756,4.5,22.956,22.956,0,0,1,1.02,4.621,9.458,9.458,0,0,1-.069,2.691,2.014,2.014,0,0,0,.078,1,1.87,1.87,0,0,1-.461,2.058,1.92,1.92,0,0,1-2.142.416,6.27,6.27,0,0,0-1.332-.392,8.067,8.067,0,0,1-3.142-1.377,24.02,24.02,0,0,1-2.45-1.964L19.9,26.715l.672.56c.308.258.6.534.924.772A10.773,10.773,0,0,0,24.1,29.515c.049.018.1.03.148.047.17.059.24.024.311-.174a1.972,1.972,0,0,1,1.5-1.423,3.593,3.593,0,0,1,.38-.075c.15-.014.182-.089.189-.227a16.831,16.831,0,0,0-.824-5.817,33.1,33.1,0,0,0-1.15-3.175c-.045-.107-.1-.211-.15-.315a.8.8,0,0,0-.067-.087c-.544.812-.962,1.68-1.517,2.528.34-.034.632-.061.924-.093.431-.047.432-.049.588.357a7.17,7.17,0,0,1,.35,1.167,6.472,6.472,0,0,1-.958.163c-.655.084-1.312.158-1.969.228a.288.288,0,0,0-.233.14A31.978,31.978,0,0,1,18.1,27.072a18.353,18.353,0,0,1-3.9,3.245,7.114,7.114,0,0,1-2.462.965A3.16,3.16,0,0,1,8.082,29.1,8.046,8.046,0,0,1,7.756,26.1a15.409,15.409,0,0,1,.484-3.28c.006-.024.014-.049.027-.092.376.078.749.147,1.118.236.523.126.5-.009.4.591-.109.69-.268,1.373-.316,2.072a8.2,8.2,0,0,0,.168,2.741,2.212,2.212,0,0,0,.276.64,1.415,1.415,0,0,0,1.439.6,4.214,4.214,0,0,0,1.629-.538,13.462,13.462,0,0,0,3.005-2.256,32.953,32.953,0,0,0,3.449-3.9c.026-.035.051-.071.091-.126H16.518l.838,1.055a12.607,12.607,0,0,1-1.128,1.218c-.1-.026-.132-.1-.177-.156-.49-.645-.985-1.286-1.464-1.939a.886.886,0,0,0-.645-.382c-.8-.1-1.608-.19-2.408-.315a24.8,24.8,0,0,1-7.066-2.026A8.658,8.658,0,0,1,2.2,18.732a2.12,2.12,0,0,0-.826-.507,1.983,1.983,0,0,1-1.336-1.5c-.01-.042.005-.093-.041-.123Zm18.041,5.01c.881.012,1.761-.03,2.642-.07a.252.252,0,0,0,.223-.147q1.366-2.193,2.587-4.472a.267.267,0,0,0,0-.284c-.461-.891-.94-1.773-1.454-2.636-.389-.65-.753-1.315-1.206-1.924a.281.281,0,0,0-.259-.13c-.22.007-.44,0-.661,0-1.483,0-2.967-.051-4.449.028a.277.277,0,0,0-.261.123A45.216,45.216,0,0,0,12.595,16.1a.283.283,0,0,0,.012.285c.778,1.547,1.662,3.031,2.576,4.5a.248.248,0,0,0,.233.126C16.294,21.042,17.166,21.078,18.041,21.072ZM19.548,9.638c-.044-.061-.065-.092-.087-.122A35.034,35.034,0,0,0,16.3,5.959a14.089,14.089,0,0,0-3.276-2.565A4.115,4.115,0,0,0,10.959,2.8a1.015,1.015,0,0,0-.692.262,2.148,2.148,0,0,0-.7,1.225,10.539,10.539,0,0,0,.048,3.656,26.4,26.4,0,0,0,1.115,4.1c.261.744.555,1.475.887,2.233l1.47-2.58a.294.294,0,0,0-.213-.02c-.317.019-.629.086-.948.078-.08,0-.156-.005-.194-.1a7.942,7.942,0,0,1-.444-1.4.174.174,0,0,1,.136-.072c.843-.145,1.69-.259,2.543-.321A.633.633,0,0,0,14.48,9.6c.072-.1.151-.194.223-.294.4-.544.789-1.092,1.227-1.606a1.672,1.672,0,0,1,.329-.322c.381.389.732.791,1.089,1.2-.259.354-.553.677-.8,1.056a28.431,28.431,0,0,0,3,0Z"/><path class="a" d="M25.589,0c.14.039.28.07.419.111a1.9,1.9,0,0,1,1.469,1.711,2.946,2.946,0,0,0,.265.947,7.153,7.153,0,0,1,.59,3.677,21.251,21.251,0,0,1-.411,2.823c-.075.373-.177.439-.554.358-.247-.053-.493-.109-.739-.166-.331-.078-.4-.162-.35-.506.069-.5.166-1,.229-1.5a11.682,11.682,0,0,0,.061-2.906,5.138,5.138,0,0,0-.135-.514c-.028-.122-.13-.14-.247-.128a4.465,4.465,0,0,1-.933.009,1.741,1.741,0,0,1-1.3-.751c-.089-.128-.164-.147-.316-.078A14.285,14.285,0,0,0,20.29,5.4c-.117.1-.233.2-.372.322-.243-.26-.494-.509-.721-.778-.42-.5-.475-.345.031-.825a14.246,14.246,0,0,1,3.639-2.527,1.632,1.632,0,0,1,.436-.168.7.7,0,0,0,.5-.344A2.129,2.129,0,0,1,25.356.035c.015,0,.026-.023.039-.035Z"/><path class="a" d="M21.074,16.242a3.073,3.073,0,0,1-3.014,3.068,3.175,3.175,0,0,1-3.1-3.121,3.182,3.182,0,0,1,3.033-3.054A3.016,3.016,0,0,1,21.074,16.242Z"/></g></g></g></svg>