<svg xmlns="http://www.w3.org/2000/svg" xmlns:xlink="http://www.w3.org/1999/xlink" width="63" height="63" viewBox="0 0 63 63"><defs><style>.a{fill:#fb4d2b;}.b{fill:#ffede9;}.c{clip-path:url(#a);}</style><clipPath id="a"><rect class="a" width="35" height="35" transform="translate(611 3917)"/></clipPath></defs><g transform="translate(-597 -3903)"><rect class="b" width="63" height="63" rx="10" transform="translate(597 3903)"/><g class="c"><g transform="translate(611 3918.807)"><path class="a" d="M19.85,22.428C13.353,17.365,8.179,11.156,3.32,4.653c3.83,2.664,7.424,5.626,11.006,8.6l.117-.118L7.571,3.008l.086-.075A103.774,103.774,0,0,0,24.679,16.727c.229-.853.489-1.628.641-2.423A17.034,17.034,0,0,0,23.609,3.432C23.03,2.251,22.323,1.136,21.681,0a.443.443,0,0,1,.146.048c5.156,3.36,8.819,7.841,10.363,13.888a14.577,14.577,0,0,1,.005,7.421A1.131,1.131,0,0,0,32.4,22.42,12.372,12.372,0,0,1,35,29.374a9.892,9.892,0,0,1-.1,1.475,2.408,2.408,0,0,1-.209.538,1.483,1.483,0,0,1-.225-.25c-1.325-2.57-3.6-3.376-6.445-2.549a12.452,12.452,0,0,0-2.1.828,15.009,15.009,0,0,1-8.226,1.6c-7.568-.693-13.307-4.45-17.6-10.6a1.225,1.225,0,0,1-.08-.144.545.545,0,0,1-.013-.1c.123.077.217.133.308.2a20.729,20.729,0,0,0,13.14,4.029,13.555,13.555,0,0,0,6.078-1.756C19.62,22.579,19.708,22.514,19.85,22.428Z"/></g></g></g></svg>