<svg xmlns="http://www.w3.org/2000/svg" xmlns:xlink="http://www.w3.org/1999/xlink" width="63" height="63" viewBox="0 0 63 63"><defs><style>.a{fill:#3199dc;}.b{fill:#eaf5fc;}.c{clip-path:url(#a);}</style><clipPath id="a"><rect class="a" width="35" height="35" transform="translate(611 3917)"/></clipPath></defs><g transform="translate(-597 -3903)"><rect class="b" width="63" height="63" rx="10" transform="translate(597 3903)"/><g class="c"><g transform="translate(611 3918.376)"><path class="a" d="M17.493,0h6.673a3.76,3.76,0,0,1,3.5,2.037q3.408,6.08,6.8,12.168A3.725,3.725,0,0,1,34.5,17.98q-3.428,6.212-6.928,12.384a3.558,3.558,0,0,1-3.256,1.873q-6.82.024-13.64,0a3.588,3.588,0,0,1-3.283-1.9Q3.937,24.211.531,18.058a3.815,3.815,0,0,1,0-3.884q3.429-6.165,6.9-12.307A3.58,3.58,0,0,1,10.694.009C12.96-.008,15.226,0,17.493,0Zm-.018,29.551c2.2,0,4.391-.008,6.588.006a1.4,1.4,0,0,0,1.35-.8Q28.687,22.874,31.99,17A1.63,1.63,0,0,0,32,15.261q-3.31-5.892-6.6-11.8a1.38,1.38,0,0,0-1.318-.779q-6.587.013-13.174,0a1.386,1.386,0,0,0-1.319.781q-3.291,5.905-6.6,11.8a1.6,1.6,0,0,0-.008,1.7Q6.3,22.879,9.6,28.8a1.343,1.343,0,0,0,1.289.756c2.2-.008,4.391,0,6.588,0Z"/><path class="a" d="M17.493,16.219c-.1.176-.175.3-.244.432q-1.573,2.909-3.139,5.82a.591.591,0,0,1-.616.376c-.6-.026-1.2-.005-1.8-.008-.482,0-.579-.162-.351-.588q1.554-2.9,3.119-5.783a.62.62,0,0,0,0-.683c-1.025-1.887-2.032-3.78-3.051-5.675-.327-.608-.266-.7.441-.7.517,0,1.037.024,1.552-.008a.692.692,0,0,1,.751.437c1.017,1.924,2.062,3.833,3.1,5.748.071.131.148.259.252.439l.24-.428c1.038-1.931,2.081-3.854,3.106-5.793a.642.642,0,0,1,.684-.407c.588.031,1.175.007,1.763.009.515,0,.609.154.366.606-1.028,1.918-2.053,3.838-3.1,5.748a.66.66,0,0,0,0,.724c1.038,1.9,2.057,3.8,3.081,5.709.269.5.182.643-.388.644s-1.148-.021-1.72.008a.645.645,0,0,1-.688-.4c-1.053-1.985-2.123-3.959-3.19-5.937C17.617,16.428,17.568,16.349,17.493,16.219Z"/></g></g></g></svg>