<svg xmlns="http://www.w3.org/2000/svg" width="58" height="58" viewBox="0 0 58 58"><defs><style>.a{fill:rgba(18,191,102,0.1);}.b{fill:none;stroke:#000;}.c{fill:#12bf66;}</style></defs><g transform="translate(-290 -3276)"><rect class="a" width="58" height="58" rx="10" transform="translate(290 3276)"/><g transform="translate(305.127 3295.282)"><g transform="translate(3.687)"><path class="b" d="M126.53,0a5.531,5.531,0,1,0,5.531,5.531A5.537,5.537,0,0,0,126.53,0Z" transform="translate(-120.999)"/></g><g transform="translate(0 12.374)"><path class="b" d="M49.333,305.961a8.878,8.878,0,0,0-7.4-3.961H38.5a8.878,8.878,0,0,0-7.4,3.961l-.1.155V310.6H49.436v-4.488Z" transform="translate(-30.999 -302)"/></g></g><g transform="translate(323.049 3290.069)"><path class="c" d="M11.485,11.7l-7.15,7.15a.161.161,0,0,1-.228,0l-4.06-4.06a.161.161,0,0,1,0-.228l.987-.987a.161.161,0,0,1,.228,0l2.96,2.96,6.05-6.05a.161.161,0,0,1,.228,0l.986.987A.161.161,0,0,1,11.485,11.7Z" transform="translate(0)"/></g></g></svg>