<svg xmlns="http://www.w3.org/2000/svg" width="645.668" height="397.938" viewBox="0 0 645.668 397.938">
  <g id="header_img" data-name="header img" transform="translate(-306.032 -177.064)">
    <g id="Group_10059" data-name="Group 10059" transform="translate(306.032 534.635)">
      <ellipse id="Ellipse_214" data-name="Ellipse 214" cx="322.834" cy="20.184" rx="322.834" ry="20.184" fill="#e6f5ff"/>
    </g>
    <g id="Group_10077" data-name="Group 10077" transform="translate(441.49 284.877)">
      <g id="Group_10060" data-name="Group 10060" transform="translate(146.836 45.23)">
        <rect id="Rectangle_1353" data-name="Rectangle 1353" width="11.42" height="93.4" transform="translate(55.169 131.325)" fill="#5c87c7"/>
        <rect id="Rectangle_1354" data-name="Rectangle 1354" width="4.486" height="93.4" transform="translate(62.103 131.325)" fill="#4674b8"/>
        <path id="Path_16117" data-name="Path 16117" d="M553.327,393.412H490.9a3.822,3.822,0,0,0-3.824,3.824h0a3.824,3.824,0,0,0,3.824,3.825h62.424a3.825,3.825,0,0,0,3.824-3.825h0A3.823,3.823,0,0,0,553.327,393.412Z" transform="translate(-459.645 -176.336)" fill="#5c87c7"/>
        <path id="Path_16118" data-name="Path 16118" d="M553.1,393.412H490.672a3.808,3.808,0,0,0-3.266,1.86h54.062a3.8,3.8,0,0,1,3.266,5.789H553.1a3.824,3.824,0,0,0,0-7.649Z" transform="translate(-459.413 -176.336)" fill="#4674b8"/>
        <rect id="Rectangle_1355" data-name="Rectangle 1355" width="11.42" height="8.316" transform="translate(55.169 131.325)" fill="#4674b8"/>
        <path id="Path_16119" data-name="Path 16119" d="M596.8,267.63a13,13,0,0,0-5.286-1.107h-64.29a13.089,13.089,0,0,0-12.856,10.632L494.215,382.478a13.134,13.134,0,0,0,0,4.953c.007.036.017.07.026.106H476.369a5.326,5.326,0,1,0,0,10.651h57.771v-.161h37.235a13.091,13.091,0,0,0,12.858-10.632l20.136-105.323A13.107,13.107,0,0,0,596.8,267.63Z" transform="translate(-471.043 -266.523)" fill="#e6973e"/>
        <path id="Path_16120" data-name="Path 16120" d="M604.363,281.611,584.234,386.936a13.083,13.083,0,0,1-12.855,10.626H534.136v.168H476.372a5.326,5.326,0,1,1,0-10.653h17.871a.34.34,0,0,1-.027-.113c.154.015.335.015.491.015h64.282a18.009,18.009,0,0,0,17.689-14.62l20.115-105.184A13.1,13.1,0,0,1,604.363,281.611Z" transform="translate(-471.042 -266.06)" fill="#4674b8"/>
        <path id="Path_16121" data-name="Path 16121" d="M576.8,328.289l-.127.631a18.009,18.009,0,0,1-17.689,14.62H494.7c-.156,0-.337,0-.491-.015a.339.339,0,0,0,.027.113H476.369a5.315,5.315,0,0,0-5.257,4.513v-14.4c0-.027-.014-.068-.014-.111a4.816,4.816,0,0,1,4.864-5.355Z" transform="translate(-471.038 -222.622)" fill="#fff"/>
        <path id="Path_16122" data-name="Path 16122" d="M587.266,267.63,567.155,372.816c-1.622,8.482-7.745,14.627-17.687,14.627h-64.29c-.159,0-.332,0-.491-.012a13.133,13.133,0,0,1,0-4.953l20.147-105.323a13.089,13.089,0,0,1,12.856-10.632h64.29A13,13,0,0,1,587.266,267.63Z" transform="translate(-461.514 -266.523)" fill="#5c87c7"/>
      </g>
      <g id="Group_10064" data-name="Group 10064" transform="translate(6.616 21.086)">
        <path id="Path_16123" data-name="Path 16123" d="M502.7,252.41H393.255a4.175,4.175,0,0,0-4.131,4.776l9.372,64.347a4.173,4.173,0,0,0,4.131,3.574H512.069a4.176,4.176,0,0,0,4.131-4.776l-9.372-64.348A4.175,4.175,0,0,0,502.7,252.41Z" transform="translate(-389.079 -252.41)" fill="#275cab"/>
        <path id="Path_16124" data-name="Path 16124" d="M487.388,252.41H393.255a4.175,4.175,0,0,0-4.131,4.776l4.142,28.441a84.01,84.01,0,0,0,33.669,6.922C458.318,292.549,476.812,275.876,487.388,252.41Z" transform="translate(-389.079 -252.41)" fill="#366dbf"/>
        <g id="Group_10061" data-name="Group 10061" transform="translate(40.308 49.112)">
          <path id="Path_16125" data-name="Path 16125" d="M436.3,281.119H415.579a2.933,2.933,0,0,0-2.907,3.357l6.279,43.094a3.288,3.288,0,0,0,.026.409l.282,1.7a2.931,2.931,0,0,0,2.9,2.506H442.61Z" transform="translate(-412.641 -281.117)" fill="#366dbf"/>
          <path id="Path_16126" data-name="Path 16126" d="M458.664,329.172a2.971,2.971,0,0,0-2.97-2.924H440.016a4.621,4.621,0,0,1-4.58-3.995l-4.6-33.57h2.724a2.934,2.934,0,0,0,2.9-3.355l-.279-1.7a2.932,2.932,0,0,0-2.9-2.51h-5.437a4.1,4.1,0,0,0-4.063,4.645l5.733,42.706a4.285,4.285,0,0,0,4.248,3.716l21.927,0a2.97,2.97,0,0,0,2.97-3.016Z" transform="translate(-404.745 -281.118)" fill="#275cab"/>
        </g>
        <g id="Group_10062" data-name="Group 10062" transform="translate(79.037 61.444)">
          <path id="Path_16127" data-name="Path 16127" d="M439.2,290.288a1.962,1.962,0,1,1-1.962-1.962A1.963,1.963,0,0,1,439.2,290.288Z" transform="translate(-435.279 -288.326)" fill="#fff"/>
          <path id="Path_16128" data-name="Path 16128" d="M445.094,290.288a1.962,1.962,0,1,1-1.962-1.962A1.963,1.963,0,0,1,445.094,290.288Z" transform="translate(-431.092 -288.326)" fill="#fff"/>
          <circle id="Ellipse_217" data-name="Ellipse 217" cx="1.962" cy="1.962" r="1.962" transform="translate(18.907 0)" fill="#fff"/>
        </g>
        <path id="Path_16129" data-name="Path 16129" d="M455.787,282.254l5.719,39.279a4.175,4.175,0,0,0,4.131,3.574h1.644a4.176,4.176,0,0,0,4.131-4.776l-9.372-64.348a4.175,4.175,0,0,0-4.131-3.572h-1.642a4.174,4.174,0,0,0-4.131,4.776l3.651,25.068" transform="translate(-344.292 -252.41)" fill="#366dbf"/>
        <g id="Group_10063" data-name="Group 10063" transform="translate(30.351 7.024)">
          <path id="Path_16130" data-name="Path 16130" d="M446.557,256.516H408.339a1.517,1.517,0,0,0-1.5,1.759l.257,1.582a1.516,1.516,0,0,0,1.5,1.275h38.22a1.517,1.517,0,0,0,1.5-1.759l-.257-1.583A1.518,1.518,0,0,0,446.557,256.516Z" transform="translate(-406.82 -256.516)" fill="#6a99de"/>
        </g>
      </g>
      <g id="Group_10073" data-name="Group 10073" transform="translate(125.494)">
        <path id="Path_16131" data-name="Path 16131" d="M547.844,287.8c-1.213-9.315-14.856-4.958-9.734-13.638,4.737-8.029-.777-11.58-7.291-12.832-8.309-1.6-3.592-4.869-7.635-12.622-5.137-9.849-13.062-6.923-13.062-6.923s-9.933-5.4-20.053,3.138c-10.663,9-8.338,16.957-2.63,27.887,2.884,5.524-.657,10.444-3.18,20.6-3.03,12.182,12.013,36.708,44.2,20.142C540.905,307.142,548.487,292.739,547.844,287.8Z" transform="translate(-441.477 -240.076)" fill="#0b3e8a"/>
        <path id="Path_16132" data-name="Path 16132" d="M505.806,319.944c8.94-12.6,16.923-25.817,16.923-25.817l-4.693-22.635s-4.913.525-9.914,5.526c-3.362,3.362-19.819,36.118-19.819,36.118l-15.186-46.514-11.12.855s12.521,74.808,22.262,74.947c4.4.063,13.373-10.954,21.547-22.479" transform="translate(-456.13 -221.224)" fill="#81c4ef"/>
        <path id="Path_16133" data-name="Path 16133" d="M532.987,291.9l9.738,36.453-57.574,4.706.263,10.4s66.372.3,78.873.164c8.328-.089-7.349-66.02-17.35-73.564-7.909-5.967-29.774-4.376-29.774-4.376L501.579,272.3s-18.074,17.9-7.283,34.742c8.5,13.269-2.333,39.046-2.333,39.046l36.8,2.19,32.867.311Z" transform="translate(-439.673 -222.028)" fill="#81c4ef"/>
        <path id="Path_16134" data-name="Path 16134" d="M493.876,329.313l2.061-.376c1.974-8.619,2.327-20.4-2.171-26.057-8.913-11.216.263-27.5,5.416-33.394h-.007c-.826.833-17.778,18.269-7.25,34.713C496.953,312.053,495.723,322.278,493.876,329.313Z" transform="translate(-437.3 -219.187)" fill="#60b1e6"/>
        <path id="Path_16135" data-name="Path 16135" d="M491.87,306.391c-6.089.222-12.6,2.4-15.65,5.983a1.229,1.229,0,0,0,.944,2.019h14.8Z" transform="translate(-446.228 -192.957)" fill="#edbc9c"/>
        <g id="Group_10067" data-name="Group 10067" transform="translate(50.206)">
          <path id="Path_16136" data-name="Path 16136" d="M515.207,264.87v12.293l-11.017,12.615-.07-.14-3-6.419v-6.9a13.986,13.986,0,0,1-11.649-10.891l-1.557-8.508a26.7,26.7,0,0,0,14.747-7.514,31.44,31.44,0,0,0,4.78,6.391c2.046,2.032,4.877,2.537,5.957,3.644A6.774,6.774,0,0,1,515.207,264.87Z" transform="translate(-487.915 -233.457)" fill="#edbc9c"/>
          <path id="Path_16137" data-name="Path 16137" d="M508.082,260.849a34.082,34.082,0,0,0-2.369-9.6c-2.253-5.095-5.427-11.062-12.009-11.079,0,0,15.985-2.484,18.663,19.77Z" transform="translate(-483.801 -240.085)" fill="#c9515b"/>
          <g id="Group_10065" data-name="Group 10065" transform="translate(19.452 17.406)">
            <path id="Path_16138" data-name="Path 16138" d="M513.679,257.275c-.462-4.28-4.048-7.4-8.008-6.976s-6.8,4.244-6.337,8.525,4.048,7.4,8.01,6.976S514.141,261.555,513.679,257.275Z" transform="translate(-499.285 -250.259)" fill="#c9515b"/>
            <path id="Path_16139" data-name="Path 16139" d="M508.692,265.041a7.241,7.241,0,0,1-7.71-6.716,7.324,7.324,0,0,1,5.283-8.061c-.2.005-.4.01-.594.033-3.962.428-6.8,4.244-6.337,8.525s4.048,7.4,8.01,6.976a6.765,6.765,0,0,0,3.276-1.276A6.477,6.477,0,0,1,508.692,265.041Z" transform="translate(-499.285 -250.256)" fill="#983f46"/>
            <path id="Path_16140" data-name="Path 16140" d="M508.978,255.888a3.507,3.507,0,1,0-3.071,4.131A3.644,3.644,0,0,0,508.978,255.888Z" transform="translate(-497.354 -248.674)" fill="#983f46"/>
          </g>
          <path id="Path_16141" data-name="Path 16141" d="M506.049,262.093a44.355,44.355,0,0,1-5.16,5.635,3.654,3.654,0,0,0-1.288,2.831l-.968,10.064-3-6.419v-6.869l.07-.07S502.641,266.214,506.049,262.093Z" transform="translate(-482.429 -224.442)" fill="#dd9f80"/>
          <g id="Group_10066" data-name="Group 10066" transform="translate(15.56 30.278)">
            <path id="Path_16142" data-name="Path 16142" d="M499.031,264.629l-.12-.7c4.019-.688,6.958-6.094,6.987-6.147l.626.335C506.4,258.353,503.388,263.885,499.031,264.629Z" transform="translate(-495.66 -257.783)" fill="#c9515b"/>
            <path id="Path_16143" data-name="Path 16143" d="M501.131,261.914c-.094-.66-1.093-1.021-2.229-.809s-1.979.919-1.883,1.579,1.093,1.021,2.229.808S501.227,262.573,501.131,261.914Z" transform="translate(-497.011 -255.465)" fill="#c9515b"/>
          </g>
        </g>
        <path id="Path_16144" data-name="Path 16144" d="M473.755,274.588s1.569-12.872.156-13.342-2.824,5.023-2.824,5.023-5.965-11.616-10.047-10.36,3.423,19.118,3.423,19.118Z" transform="translate(-457.675 -228.905)" fill="#edbc9c"/>
        <path id="Path_16145" data-name="Path 16145" d="M491.625,320.608l45.339-3.793a2.613,2.613,0,0,0,2.35-3.11c-1.675-8.475-6.515-32.775-6.805-32.051-.351.878,4.563,28.6-1.228,31.41C527.322,314.983,491.625,320.608,491.625,320.608Z" transform="translate(-435.072 -210.55)" fill="#60b1e6"/>
        <g id="Group_10069" data-name="Group 10069" transform="translate(0 123.998)">
          <g id="Group_10068" data-name="Group 10068" transform="translate(63.348 111.639)">
            <path id="Path_16146" data-name="Path 16146" d="M515.586,386.355a1.5,1.5,0,0,0-.864.587c-2.884,4.015-5.444,4.963-10.506,5.644a3.013,3.013,0,0,0-.949.318c.388-.583,2.075-3.346.912-5.834a28.359,28.359,0,0,0-2.886-4.845l7.4-4.4S513.222,383.055,515.586,386.355Z" transform="translate(-491.549 -377.823)" fill="#edbc9c"/>
            <path id="Path_16147" data-name="Path 16147" d="M525.109,392.23c-1.307,1.252-22.409,12.786-27.422,15.681-.612.352-1.853,1-2.08.33-.356-1.045,8.769-18.654,12.658-19.181,5.059-.684,7.621-1.63,10.5-5.647a1.472,1.472,0,0,1,2.428.027C523.221,386.5,526.161,391.224,525.109,392.23Z" transform="translate(-495.597 -374.295)" fill="#0b3e8a"/>
          </g>
          <path id="Path_16148" data-name="Path 16148" d="M511.147,312.566s-51.206,23.737-52.565,40.2c-1.208,14.641,74.261,81.62,74.261,81.62l11.932-4.913-41.3-66.576s43.754-21.566,54.447-47.533Z" transform="translate(-458.568 -312.566)" fill="#164fa6"/>
          <path id="Path_16149" data-name="Path 16149" d="M473.469,346.3c-3.476,6.684-6.025,16.018-7.806,24.478,5.8,6.882,13.11,14.632,20.668,22.252-5.582-22.057-10.537-44.179-8.826-47.345,3.266-6.042,24.965-22.106,40.3-30.1C517.805,315.589,481.529,330.8,473.469,346.3Z" transform="translate(-453.525 -310.417)" fill="#0b3e8a"/>
        </g>
        <g id="Group_10072" data-name="Group 10072" transform="translate(23.633 125.148)">
          <g id="Group_10070" data-name="Group 10070" transform="translate(0.185 121.953)">
            <path id="Path_16150" data-name="Path 16150" d="M497.808,395.34a1.477,1.477,0,0,0-1.04.089c-4.479,2.094-7.175,1.671-11.924-.207a2.978,2.978,0,0,0-.984-.187c.623-.32,3.445-1.907,3.646-4.646a28.3,28.3,0,0,0-.152-5.635l8.6-.229S497.358,391.3,497.808,395.34Z" transform="translate(-464.409 -384.524)" fill="#edbc9c"/>
            <path id="Path_16151" data-name="Path 16151" d="M506.074,402.453c-1.754.453-26.659.178-32.448.253a1.118,1.118,0,0,1-1.117-1.321c.2-1.086,16.764-11.992,20.414-10.552,4.749,1.873,7.445,2.3,11.922.2a1.473,1.473,0,0,1,2.106,1.21C507.222,395.907,507.482,402.088,506.074,402.453Z" transform="translate(-472.49 -380.133)" fill="#0b3e8a"/>
          </g>
          <g id="Group_10071" data-name="Group 10071">
            <path id="Path_16152" data-name="Path 16152" d="M570.526,314.536s4.289,29-21.7,36.338a352.867,352.867,0,0,1-42.461,8.74l1.572,82.3H494.266s-25.088-88.008-21.54-94.562c4.031-7.44,35.958-30.043,49.6-34.119Z" transform="translate(-472.382 -313.238)" fill="#164fa6"/>
            <path id="Path_16153" data-name="Path 16153" d="M496.654,359.255a353.055,353.055,0,0,0,42.463-8.739c25.991-7.341,21.7-36.34,21.7-36.34l-16.093-.433c-4.834,10.4-20.558,36.136-58.686,38.913l8.632,88.9h3.555Z" transform="translate(-462.675 -312.878)" fill="#0b3e8a"/>
          </g>
        </g>
      </g>
      <g id="Group_10076" data-name="Group 10076" transform="translate(0 121.358)">
        <g id="Group_10074" data-name="Group 10074" transform="translate(8.226 3.907)">
          <path id="Path_16154" data-name="Path 16154" d="M395.744,457.323l-5.723-.044,23.793-143,5.758-.044Z" transform="translate(-390.021 -312.647)" fill="#5c87c7"/>
          <path id="Path_16155" data-name="Path 16155" d="M543.377,457.936l6.079.047-29.5-144.676-6.041.046Z" transform="translate(-301.962 -313.307)" fill="#5c87c7"/>
        </g>
        <g id="Group_10075" data-name="Group 10075" transform="translate(30.46 3.907)">
          <path id="Path_16156" data-name="Path 16156" d="M408.765,322.164l1.569-7.928-5.758.044-1.559,7.884Z" transform="translate(-403.017 -312.647)" fill="#4674b8"/>
          <path id="Path_16157" data-name="Path 16157" d="M521.892,322.824l-1.935-9.517-6.041.046,1.924,9.47Z" transform="translate(-324.196 -313.307)" fill="#4674b8"/>
        </g>
        <path id="Path_16158" data-name="Path 16158" d="M646.142,311.023H388.119a2.906,2.906,0,0,0-2.907,2.906h0a2.907,2.907,0,0,0,2.907,2.907H646.142a2.907,2.907,0,0,0,2.907-2.907h0A2.906,2.906,0,0,0,646.142,311.023Z" transform="translate(-385.212 -311.023)" fill="#5c87c7"/>
      </g>
    </g>
    <g id="Group_10092" data-name="Group 10092" transform="translate(450.812 177.064)">
      <g id="Group_10082" data-name="Group 10082" transform="translate(72.224 59.865)">
        <path id="Path_16159" data-name="Path 16159" d="M510.311,254.6l-6.8-39.37a3.709,3.709,0,0,0-3.67-3.173l-63.255.691a3.709,3.709,0,0,0-3.67,4.243l5.965,34.545,3.018,19.557a1.146,1.146,0,0,0,2.087.46l8.051-12.114,54.6-.6A3.708,3.708,0,0,0,510.311,254.6Z" transform="translate(-432.879 -212.057)" fill="#5c87c7"/>
        <g id="Group_10081" data-name="Group 10081" transform="translate(17.255 12.215)">
          <g id="Group_10078" data-name="Group 10078">
            <path id="Path_16160" data-name="Path 16160" d="M480.65,219.2H443.99a1.024,1.024,0,0,0-1.011,1.189l.173,1.069a1.026,1.026,0,0,0,1.013.861h36.658a1.025,1.025,0,0,0,1.011-1.189l-.173-1.069A1.024,1.024,0,0,0,480.65,219.2Z" transform="translate(-442.965 -219.197)" fill="#fff"/>
          </g>
          <g id="Group_10079" data-name="Group 10079" transform="translate(1.232 9.731)">
            <path id="Path_16161" data-name="Path 16161" d="M481.37,224.885H444.71a1.025,1.025,0,0,0-1.011,1.189l.173,1.069a1.026,1.026,0,0,0,1.013.86h36.658a1.025,1.025,0,0,0,1.011-1.189l-.173-1.069A1.024,1.024,0,0,0,481.37,224.885Z" transform="translate(-443.685 -224.885)" fill="#fff"/>
          </g>
          <g id="Group_10080" data-name="Group 10080" transform="translate(12.194 20.295)">
            <path id="Path_16162" data-name="Path 16162" d="M468.083,231.06l-16.966.029a1.025,1.025,0,0,0-1.011,1.189l.173,1.069a1.026,1.026,0,0,0,1.013.86l16.964-.029a1.025,1.025,0,0,0,1.011-1.189l-.173-1.069A1.025,1.025,0,0,0,468.083,231.06Z" transform="translate(-450.093 -231.06)" fill="#fff"/>
          </g>
        </g>
      </g>
      <g id="Group_10087" data-name="Group 10087" transform="translate(336.029)">
        <path id="Path_16163" data-name="Path 16163" d="M657.669,217.082l8.415-37.033a2.207,2.207,0,0,0-2.257-2.985l-59.76.652a5.727,5.727,0,0,0-5.048,3.989L591.634,214.2l-4.52,18.4c-.24.972.917,1.252,1.789.433l12.131-11.4,51.586-.561A5.729,5.729,0,0,0,657.669,217.082Z" transform="translate(-587.082 -177.064)" fill="#c9515b"/>
        <g id="Group_10086" data-name="Group 10086" transform="translate(23.145 12.027)">
          <g id="Group_10083" data-name="Group 10083" transform="translate(2.381)">
            <path id="Path_16164" data-name="Path 16164" d="M636.393,184.094H603.585a1.5,1.5,0,0,0-1.331,1.062l-.227.956a.579.579,0,0,0,.6.772h32.809a1.5,1.5,0,0,0,1.329-1.064l.228-.956A.578.578,0,0,0,636.393,184.094Z" transform="translate(-602.003 -184.094)" fill="#fff"/>
          </g>
          <g id="Group_10084" data-name="Group 10084" transform="translate(0 8.708)">
            <path id="Path_16165" data-name="Path 16165" d="M635,189.184H602.193a1.5,1.5,0,0,0-1.329,1.064l-.229.956a.578.578,0,0,0,.6.77h32.809a1.5,1.5,0,0,0,1.329-1.062l.229-.958A.579.579,0,0,0,635,189.184Z" transform="translate(-600.611 -189.184)" fill="#fff"/>
          </g>
          <g id="Group_10085" data-name="Group 10085" transform="translate(6.02 18.161)">
            <path id="Path_16166" data-name="Path 16166" d="M620.9,194.71l-15.191.027a1.5,1.5,0,0,0-1.331,1.062l-.228.958a.578.578,0,0,0,.6.77l15.192-.027a1.5,1.5,0,0,0,1.331-1.062l.228-.958A.578.578,0,0,0,620.9,194.71Z" transform="translate(-604.13 -194.71)" fill="#fff"/>
          </g>
        </g>
      </g>
      <g id="Group_10091" data-name="Group 10091" transform="translate(0 51.596)">
        <path id="Path_16167" data-name="Path 16167" d="M456.852,257.75a1.145,1.145,0,0,0,1.861-1.076L450.6,209.917a3.144,3.144,0,0,0-3.114-2.693l-53.68.587a3.145,3.145,0,0,0-3.114,3.6l5.769,33.411a3.148,3.148,0,0,0,3.114,2.694l41.335-.453a8.3,8.3,0,0,1,5.392,1.916Z" transform="translate(-390.661 -207.224)" fill="#c9515b"/>
        <g id="Group_10090" data-name="Group 10090" transform="translate(11.792 14.033)">
          <g id="Group_10088" data-name="Group 10088">
            <path id="Path_16168" data-name="Path 16168" d="M435.238,215.427h-36.66a1.024,1.024,0,0,0-1.011,1.189l.173,1.069a1.024,1.024,0,0,0,1.011.861h36.66a1.025,1.025,0,0,0,1.011-1.189l-.173-1.069A1.025,1.025,0,0,0,435.238,215.427Z" transform="translate(-397.554 -215.427)" fill="#fff"/>
          </g>
          <g id="Group_10089" data-name="Group 10089" transform="translate(1.232 9.731)">
            <path id="Path_16169" data-name="Path 16169" d="M435.958,221.115H399.3a1.024,1.024,0,0,0-1.011,1.189l.173,1.069a1.025,1.025,0,0,0,1.011.861h36.66a1.025,1.025,0,0,0,1.011-1.189l-.173-1.069A1.025,1.025,0,0,0,435.958,221.115Z" transform="translate(-398.274 -221.115)" fill="#fff"/>
          </g>
        </g>
      </g>
    </g>
    <g id="Group_10107" data-name="Group 10107" transform="translate(689.042 190.422)">
      <g id="Group_10105" data-name="Group 10105">
        <g id="Group_10095" data-name="Group 10095" transform="translate(0 56.408)">
          <path id="Path_16170" data-name="Path 16170" d="M633.5,282.409l-.2,7.36-4.417,170.9H611.227L595.586,314.236a.056.056,0,0,0-.015.041l-19.882,49.372,13.568,97.019-6.525.056-10.793.1S539.651,364,540.3,357.73c.664-6.258,24.9-74.687,24.9-74.687Z" transform="translate(-522.54 -171.955)" fill="#164fa6"/>
          <path id="Path_16171" data-name="Path 16171" d="M624.4,222.518l-33.172-4.56-.777-.113-15.864.071-.141.028L555.5,222.684v106.55h68.9Z" transform="translate(-511.729 -217.845)" fill="#c9515b"/>
          <path id="Path_16172" data-name="Path 16172" d="M628.958,239.913s2.412-15.063,4.162-15.135,1.56,6.6,1.56,6.6,10.523-11.192,14.728-8.444-10.088,20.5-10.088,20.5Z" transform="translate(-459.52 -214.539)" fill="#edbc9c"/>
          <path id="Path_16173" data-name="Path 16173" d="M592.8,217.958,594.6,335.617H569.793l-1.753-32.2-32.915-.535a5.042,5.042,0,0,1-5.009-6.434l16.4-57.013a19.38,19.38,0,0,1,13.943-13.477l32.181-8.051Z" transform="translate(-529.915 -217.803)" fill="#81c4ef"/>
          <path id="Path_16174" data-name="Path 16174" d="M677.8,247.168l-31.914,65.558a5.444,5.444,0,0,1-9.423.183l-24.975-41.39-1.244,64.092h-26.5l-7.416-117.673.1-.027,33.705,4.633a19.539,19.539,0,0,1,14.649,10.793l17.051,35.16a1.335,1.335,0,0,0,2.217.269l21.689-25.908Z" transform="translate(-496.926 -217.798)" fill="#81c4ef"/>
          <path id="Path_16175" data-name="Path 16175" d="M552.109,275.145h32.341l.313-16.561-32.341-.469Z" transform="translate(-514.141 -189.222)" fill="#81c4ef"/>
          <path id="Path_16176" data-name="Path 16176" d="M571.191,270.376c9.122-.334,18.878-3.6,23.444-8.961a1.842,1.842,0,0,0-1.413-3.026H571.049Z" transform="translate(-500.679 -189.028)" fill="#edbc9c"/>
          <path id="Path_16177" data-name="Path 16177" d="M571.966,268.747l.031-.531-19.787-.146,1.736,31.889,5.9-26.422Z" transform="translate(-514.069 -182.146)" fill="#60b1e6"/>
          <path id="Path_16178" data-name="Path 16178" d="M601.938,286.711l-4.417,170.9h-1.243l-11.857-170.9Z" transform="translate(-491.175 -168.897)" fill="#0b3e8a"/>
          <path id="Path_16179" data-name="Path 16179" d="M589.284,268.25s-43.872,3.177-43.59,2.344l7.616-26.243.113.4.748,18.309C554.27,265.54,586.995,267.6,589.284,268.25Z" transform="translate(-518.701 -199.005)" fill="#60b1e6"/>
          <path id="Path_16180" data-name="Path 16180" d="M631.279,300.592l31.914-65.558-.149-.05c-3.387-.015-33.081,62.07-36.2,63.632-3.559,1.779-29.959-39.231-29.959-39.231l24.975,41.39A5.444,5.444,0,0,0,631.279,300.592Z" transform="translate(-482.319 -205.663)" fill="#60b1e6"/>
          <g id="Group_10093" data-name="Group 10093" transform="translate(29.09 288.561)">
            <path id="Path_16181" data-name="Path 16181" d="M569.232,386.642c-3.808,7.8-21.906,11.741-21.906,11.741s-1.305,2.3.761,5.213,21.111,1.127,23.5.6a8.3,8.3,0,0,0,4.031-2.465,13.35,13.35,0,0,0,2.5,2.171c.895.431,5.758-.544,5.758-.544,1.144-3.1,0-14.947-.325-16.836Z" transform="translate(-546.919 -386.519)" fill="#0b3e8a"/>
          </g>
          <g id="Group_10094" data-name="Group 10094" transform="translate(89.553 288.561)">
            <path id="Path_16182" data-name="Path 16182" d="M597.4,386.642c3.808,7.8,21.906,11.741,21.906,11.741s1.305,2.3-.761,5.213-21.111,1.127-23.5.6a8.3,8.3,0,0,1-4.031-2.465,13.352,13.352,0,0,1-2.5,2.171c-.895.431-5.759-.544-5.759-.544-1.145-3.1,0-14.947.325-16.836Z" transform="translate(-582.262 -386.519)" fill="#0b3e8a"/>
          </g>
          <path id="Path_16183" data-name="Path 16183" d="M565.366,350.409l13.568,97.019-6.525.056c-4.027-20.892-18.1-90.747-17.581-95.125.607-5.228,29.531-49.839,30.421-51.323Z" transform="translate(-512.218 -158.715)" fill="#0b3e8a"/>
        </g>
        <g id="Group_10104" data-name="Group 10104" transform="translate(50.004)">
          <g id="Group_10097" data-name="Group 10097" transform="translate(1.383)">
            <path id="Path_16184" data-name="Path 16184" d="M583.239,223.8c-2.4,1.919-8.217,6.012-8.217,6.012s-5.912-4.051-8.357-6l-.019-14.044h16.593Z" transform="translate(-555.195 -167.175)" fill="#edbc9c" fill-rule="evenodd"/>
            <path id="Path_16185" data-name="Path 16185" d="M583.243,209.772v5.873a13.08,13.08,0,0,1-16.593.068v-5.941Z" transform="translate(-555.192 -167.174)" fill="#edbc9c" fill-rule="evenodd"/>
            <path id="Path_16186" data-name="Path 16186" d="M561.284,218.393h37.282l.575-10.379c8.242-3.488,2.062-23.141,2.062-23.141.476,4.754-12.364,4.913-17.436,4.121a13.807,13.807,0,0,0-8.559,1.268s-16.167-3.487-15.215,19.179A41.666,41.666,0,0,0,561.284,218.393Z" transform="translate(-559.952 -184.872)" fill="#0b3e8a" fill-rule="evenodd"/>
            <g id="Group_10096" data-name="Group 10096" transform="translate(0.071 15.392)">
              <path id="Path_16187" data-name="Path 16187" d="M592.645,201.6v9.354a14.516,14.516,0,0,1-4.552,10.567c-.474.421-.95.878-1.444,1.334a13.074,13.074,0,0,1-17.917,0l-1.425-1.334a14.427,14.427,0,0,1-4.571-10.537v-7.139s4.321-2.895,10.263-9.979C573,193.869,579.57,200.175,592.645,201.6Z" transform="translate(-558.045 -193.869)" fill="#edbc9c" fill-rule="evenodd"/>
              <path id="Path_16188" data-name="Path 16188" d="M583.243,211.132v3.546a13.08,13.08,0,0,1-16.593.068v-3.56A13.063,13.063,0,0,0,583.243,211.132Z" transform="translate(-555.263 -181.599)" fill="#dd9f80" fill-rule="evenodd"/>
              <path id="Path_16189" data-name="Path 16189" d="M568.4,208.222a4.747,4.747,0,0,0-6.629-6.629,2.876,2.876,0,0,0-.9.9,4.748,4.748,0,0,0,6.631,6.631A2.858,2.858,0,0,0,568.4,208.222Z" transform="translate(-559.994 -188.997)" fill="#edbc9c" fill-rule="evenodd"/>
              <path id="Path_16190" data-name="Path 16190" d="M585.808,208.224c2.83-4.53-1.762-9.3-6.3-6.823a3.589,3.589,0,0,0-1.427,1.427c-2.476,4.537,2.292,9.13,6.822,6.3A2.864,2.864,0,0,0,585.808,208.224Z" transform="translate(-547.619 -188.997)" fill="#edbc9c" fill-rule="evenodd"/>
            </g>
          </g>
          <g id="Group_10103" data-name="Group 10103" transform="translate(0 3.702)">
            <path id="Path_16191" data-name="Path 16191" d="M597.474,208.077h-1.418v-4.908c0-8.15-7.433-14.783-16.574-14.783h-.7c-9.139,0-16.576,6.633-16.576,14.783v4.908h-1.417v-4.908c0-8.894,8.071-16.132,17.992-16.132h.7c9.921,0,17.992,7.238,17.992,16.132Z" transform="translate(-557.973 -187.036)" fill="#983f46"/>
            <g id="Group_10102" data-name="Group 10102" transform="translate(0 18.425)">
              <g id="Group_10100" data-name="Group 10100">
                <g id="Group_10098" data-name="Group 10098" transform="translate(34.323)">
                  <path id="Path_16192" data-name="Path 16192" d="M583.205,197.806h0a4.011,4.011,0,0,0-4,4v7.125a4.011,4.011,0,0,0,4,4h0a4.011,4.011,0,0,0,4-4V201.8A4.011,4.011,0,0,0,583.205,197.806Z" transform="translate(-579.207 -197.806)" fill="#c9515b"/>
                  <path id="Path_16193" data-name="Path 16193" d="M582.042,197.806a3.918,3.918,0,0,0-1.2.205,4,4,0,0,1,2.8,3.793v7.125a4,4,0,0,1-2.8,3.793,3.918,3.918,0,0,0,1.2.205,4.011,4.011,0,0,0,4-4V201.8A4.011,4.011,0,0,0,582.042,197.806Z" transform="translate(-578.043 -197.806)" fill="#983f46"/>
                </g>
                <g id="Group_10099" data-name="Group 10099">
                  <path id="Path_16194" data-name="Path 16194" d="M563.142,197.806h0a4.011,4.011,0,0,0-4,4v7.125a4.011,4.011,0,0,0,4,4h0a4.009,4.009,0,0,0,4-4V201.8A4.009,4.009,0,0,0,563.142,197.806Z" transform="translate(-559.144 -197.806)" fill="#c9515b"/>
                  <path id="Path_16195" data-name="Path 16195" d="M561.979,197.806a3.928,3.928,0,0,0-1.2.205,4,4,0,0,1,2.8,3.793v7.125a4,4,0,0,1-2.8,3.793,3.928,3.928,0,0,0,1.2.205,4.009,4.009,0,0,0,4-4V201.8A4.009,4.009,0,0,0,561.979,197.806Z" transform="translate(-557.981 -197.806)" fill="#983f46"/>
                </g>
              </g>
              <g id="Group_10101" data-name="Group 10101" transform="translate(23.733 12.774)">
                <path id="Path_16196" data-name="Path 16196" d="M575.254,212.084l-.051-.794c4.559-.289,8.473-5.96,8.513-6.017l.659.448C584.207,205.968,580.2,211.772,575.254,212.084Z" transform="translate(-571.463 -205.273)" fill="#c9515b"/>
                <path id="Path_16197" data-name="Path 16197" d="M577.689,209.536c-.027-.746-1.1-1.266-2.386-1.165s-2.313.789-2.286,1.535,1.1,1.268,2.386,1.165S577.717,210.282,577.689,209.536Z" transform="translate(-573.017 -203.08)" fill="#c9515b"/>
              </g>
            </g>
          </g>
        </g>
      </g>
      <g id="Group_10106" data-name="Group 10106" transform="translate(33.941 77.153)">
        <path id="Path_16198" data-name="Path 16198" d="M613.154,229.971H555.243A5.629,5.629,0,0,0,549.76,236l1.519,37.274a5.7,5.7,0,0,0,5.622,5.437h54.6a5.707,5.707,0,0,0,5.623-5.437L618.637,236A5.629,5.629,0,0,0,613.154,229.971Z" transform="translate(-549.755 -229.971)" fill="#275cab"/>
        <path id="Path_16199" data-name="Path 16199" d="M612.533,229.971H554.622a5.338,5.338,0,0,0-3.993,1.8,5.256,5.256,0,0,1,1.493-.239h57.911a5.629,5.629,0,0,1,5.483,6.034L614,274.841a5.639,5.639,0,0,1-1.543,3.613,5.713,5.713,0,0,0,4.044-5.175L618.016,236A5.629,5.629,0,0,0,612.533,229.971Z" transform="translate(-549.134 -229.971)" fill="#366dbf"/>
        <path id="Path_16200" data-name="Path 16200" d="M578.931,247.508a6.562,6.562,0,1,0-6.562,6.562A6.563,6.563,0,0,0,578.931,247.508Z" transform="translate(-538.345 -222.17)" fill="#fff"/>
      </g>
    </g>
    <g id="Group_10114" data-name="Group 10114" transform="translate(358.402 403.216)">
      <g id="Group_10113" data-name="Group 10113">
        <g id="Group_10108" data-name="Group 10108" transform="translate(22.054)">
          <path id="Path_16201" data-name="Path 16201" d="M375.549,421.954s-3.823-3.57-1.257-17.12,9.077-26.56,5.883-41.257-28.239-51.759-28.323-54.224-7.727,43.115,5.225,61.071,14.511,24.182,13.936,33.625.133,17.046,1.553,19.241Z" transform="translate(-349.535 -309.258)" fill="#5c87c7"/>
          <path id="Path_16202" data-name="Path 16202" d="M372.217,394.665c-1.507,6.044-2.415,21.2-.008,24.825.224.339.547.145.949-.479-.734-2.506-1.215-6.9.171-14.216,2.566-13.549,9.077-26.559,5.883-41.257s-28.239-51.759-28.323-54.224c0,0,3.774,30.877,16.485,52.13C376.473,376.661,373.722,388.621,372.217,394.665Z" transform="translate(-348.573 -309.218)" fill="#6a99de"/>
        </g>
        <g id="Group_10109" data-name="Group 10109" transform="translate(50.479 33.061)">
          <path id="Path_16203" data-name="Path 16203" d="M368.307,407.278s-7.358-18.37,5.112-34.275,32.412-36.33,32.809-44.42c0,0,5.125,38.413-11.106,49.287s-27.612,12.608-24.8,29.339Z" transform="translate(-366.151 -328.583)" fill="#5c87c7"/>
          <path id="Path_16204" data-name="Path 16204" d="M385.08,370.148c-18.1,13.173-19.578,28.347-16.769,35.385a1.787,1.787,0,0,0,1.177,1.059c-2.426-16.148,8.863-17.985,24.888-28.722,16.232-10.874,11.106-49.287,11.106-49.287S403.178,356.975,385.08,370.148Z" transform="translate(-365.405 -328.583)" fill="#6a99de"/>
        </g>
        <g id="Group_10111" data-name="Group 10111" transform="translate(0 25.747)">
          <path id="Path_16205" data-name="Path 16205" d="M377.177,410.729a64.211,64.211,0,0,0,1.105-20.228c-1.256-10.5-12.227-16.41-22.476-27.5-5.274-5.705-6.834-35.887-3.564-38.69,0,0-18.1,21.932-15.306,37.989s32.313,26.493,35.047,34.251a43.094,43.094,0,0,1,2.506,14.273Z" transform="translate(-336.644 -324.308)" fill="#5c87c7"/>
          <g id="Group_10110" data-name="Group 10110" transform="translate(7.291)">
            <path id="Path_16206" data-name="Path 16206" d="M343.1,332.771c-5.983,16.2.149,35.813,20.018,48,14.629,8.971,9.969,27.624,9.969,27.624l2.39-7.36a58.23,58.23,0,0,0-.221-10.7c-1.256-10.5-12.227-16.41-22.476-27.5-5.086-5.5-6.716-33.765-3.892-38.282A96.621,96.621,0,0,0,343.1,332.771Z" transform="translate(-340.906 -324.138)" fill="#6a99de"/>
            <path id="Path_16207" data-name="Path 16207" d="M345.57,324.717c.205-.258.328-.409.328-.409A1.751,1.751,0,0,0,345.57,324.717Z" transform="translate(-337.59 -324.308)" fill="#74b1d3"/>
          </g>
        </g>
        <g id="Group_10112" data-name="Group 10112" transform="translate(56.421 72.437)">
          <path id="Path_16208" data-name="Path 16208" d="M369.624,390.116s4.241-15.737,14.731-17.857,22.537-17.619,23.188-20.659C407.543,351.6,405.774,380.835,369.624,390.116Z" transform="translate(-369.624 -351.6)" fill="#5c87c7"/>
          <path id="Path_16209" data-name="Path 16209" d="M382.06,377.463c-6.427,3.213-9.1,7.536-10.049,11.46,32.185-10.35,33.835-37.324,33.835-37.324a11.478,11.478,0,0,1-1.635,3.074C401.055,360.205,393.414,371.785,382.06,377.463Z" transform="translate(-367.927 -351.6)" fill="#6a99de"/>
        </g>
      </g>
      <path id="Path_16210" data-name="Path 16210" d="M405.688,370.727H350.822l6.516,40.978a6.4,6.4,0,0,0,6.321,5.4h29.192a6.4,6.4,0,0,0,6.321-5.4Z" transform="translate(-326.567 -265.568)" fill="#afddfd"/>
      <path id="Path_16211" data-name="Path 16211" d="M392.4,370.727H350.822l1.08,6.78h39.418l-5.438,34.2a6.4,6.4,0,0,1-6.321,5.4h13.293a6.4,6.4,0,0,0,6.321-5.4l6.515-40.978Z" transform="translate(-326.567 -265.568)" fill="#5c87c7" opacity="0.56"/>
    </g>
  </g>
</svg>
