<svg xmlns="http://www.w3.org/2000/svg" width="737.594" height="413.898" viewBox="0 0 737.594 413.898">
  <g id="what_we_are" data-name="what we are" transform="translate(-229.12 -126.563)">
    <path id="Path_16724" data-name="Path 16724" d="M336.083,236.256c100.747-37.4,203.145-4.335,272.592,67.685s215.193-49.71,292.489,22.194c52.751,49.07,28.589,175.232-43.742,229.875-98.314,74.273-397.3,36.586-461.975,23.946-74.511-14.562-128.985-58.744-151.117-112.368C191,338.38,291.561,252.784,336.083,236.256Z" transform="translate(0 -71.324)" fill="#e7f3fe"/>
    <g id="Group_10352" data-name="Group 10352" transform="translate(305.512 126.563)">
      <g id="Group_10347" data-name="Group 10347" transform="translate(210.042 0)">
        <path id="Path_16725" data-name="Path 16725" d="M1575.234,216.893a83.569,83.569,0,0,0,.522-9.286c0-1.657-.054-3.3-.151-4.933l-15.344-4.964a67.449,67.449,0,0,0-5.433-18.384L1565,166.805a82.87,82.87,0,0,0-8.059-11.716L1541.6,160.1a68.193,68.193,0,0,0-15.192-11.677l.873-16.123a82.088,82.088,0,0,0-13.4-4.748l-9.476,13.077a68.226,68.226,0,0,0-19.157-.5l-8.773-13.56a82.058,82.058,0,0,0-13.63,4.028l.02,16.147a68.078,68.078,0,0,0-15.788,10.86l-15.055-5.809a83.027,83.027,0,0,0-8.67,11.273l9.5,13.043a67.448,67.448,0,0,0-6.405,18.07l-15.583,4.147a83.636,83.636,0,0,0-.522,9.286c0,1.657.054,3.3.151,4.933l15.344,4.964a67.453,67.453,0,0,0,5.433,18.385l-10.174,12.52a82.866,82.866,0,0,0,8.059,11.716l15.346-5.007a68.17,68.17,0,0,0,15.191,11.677l-.873,16.123a82.083,82.083,0,0,0,13.4,4.748l9.476-13.077a68.231,68.231,0,0,0,19.157.5l8.773,13.561a82.057,82.057,0,0,0,13.63-4.028l-.02-16.147a68.067,68.067,0,0,0,15.789-10.86l15.055,5.809a83.016,83.016,0,0,0,8.67-11.273l-9.5-13.043a67.437,67.437,0,0,0,6.405-18.07Zm-82.184,23.153a32.439,32.439,0,1,1,32.439-32.439A32.439,32.439,0,0,1,1493.05,240.046Z" transform="translate(-1410.344 -126.563)" fill="#9ec8ff"/>
        <g id="Group_10344" data-name="Group 10344" transform="translate(125.738 61.586)">
          <path id="Path_16726" data-name="Path 16726" d="M1930.085,436.992a1.213,1.213,0,0,1-.932-1.988,54.878,54.878,0,0,0,9.669-52.859,1.212,1.212,0,0,1,2.293-.79,57.305,57.305,0,0,1-10.1,55.2A1.211,1.211,0,0,1,1930.085,436.992Z" transform="translate(-1928.874 -380.537)" fill="#fff"/>
        </g>
        <g id="Group_10345" data-name="Group 10345" transform="translate(101.762 27.173)">
          <path id="Path_16727" data-name="Path 16727" d="M1850.49,252.925a1.207,1.207,0,0,1-.831-.33,54.469,54.469,0,0,0-18.861-11.621,1.213,1.213,0,0,1,.827-2.28,56.884,56.884,0,0,1,19.7,12.135,1.212,1.212,0,0,1-.832,2.1Z" transform="translate(-1829.999 -238.622)" fill="#fff"/>
        </g>
        <g id="Group_10346" data-name="Group 10346" transform="translate(68.912 23.831)">
          <path id="Path_16728" data-name="Path 16728" d="M1695.741,228.966a1.213,1.213,0,0,1-.3-2.389,57.44,57.44,0,0,1,14.046-1.737,1.212,1.212,0,0,1,0,2.425,55,55,0,0,0-13.452,1.663A1.22,1.22,0,0,1,1695.741,228.966Z" transform="translate(-1694.53 -224.841)" fill="#fff"/>
        </g>
      </g>
      <g id="Group_10351" data-name="Group 10351" transform="translate(0 233.161)">
        <path id="Path_16729" data-name="Path 16729" d="M658.363,1150.661a57.883,57.883,0,0,0,.361-6.432c0-1.148-.037-2.286-.1-3.417l-10.628-3.439a46.718,46.718,0,0,0-3.763-12.734l7.047-8.672a57.421,57.421,0,0,0-5.582-8.115l-10.629,3.468a47.239,47.239,0,0,0-10.522-8.088l.6-11.167a56.866,56.866,0,0,0-9.279-3.289l-6.564,9.057a47.253,47.253,0,0,0-13.269-.348l-6.076-9.393a56.822,56.822,0,0,0-9.441,2.79l.014,11.184a47.15,47.15,0,0,0-10.936,7.522l-10.428-4.023a57.5,57.5,0,0,0-6.005,7.808l6.581,9.034a46.718,46.718,0,0,0-4.436,12.516l-10.793,2.872a57.83,57.83,0,0,0-.362,6.432c0,1.148.038,2.286.1,3.417l10.628,3.438a46.7,46.7,0,0,0,3.763,12.734l-7.047,8.672a57.421,57.421,0,0,0,5.582,8.115l10.629-3.468a47.219,47.219,0,0,0,10.522,8.088l-.6,11.168a56.847,56.847,0,0,0,9.279,3.288l6.564-9.057a47.254,47.254,0,0,0,13.269.348l6.076,9.393a56.835,56.835,0,0,0,9.441-2.79l-.014-11.184a47.147,47.147,0,0,0,10.936-7.522l10.427,4.023a57.474,57.474,0,0,0,6.005-7.808l-6.581-9.034a46.713,46.713,0,0,0,4.437-12.516ZM601.439,1166.7a22.469,22.469,0,1,1,22.469-22.469A22.468,22.468,0,0,1,601.439,1166.7Z" transform="translate(-544.153 -1088.095)" fill="#9ec8ff"/>
        <g id="Group_10348" data-name="Group 10348" transform="translate(86.718 42.284)">
          <path id="Path_16730" data-name="Path 16730" d="M902.983,1302.32a1.213,1.213,0,0,1-.932-1.988,37.638,37.638,0,0,0,6.632-36.253,1.212,1.212,0,1,1,2.293-.789,40.064,40.064,0,0,1-7.06,38.593A1.211,1.211,0,0,1,902.983,1302.32Z" transform="translate(-901.771 -1262.472)" fill="#fff"/>
        </g>
        <g id="Group_10349" data-name="Group 10349" transform="translate(70.112 18.448)">
          <path id="Path_16731" data-name="Path 16731" d="M847.852,1174.827a1.208,1.208,0,0,1-.831-.329,37.361,37.361,0,0,0-12.936-7.971,1.212,1.212,0,0,1,.827-2.279,39.764,39.764,0,0,1,13.771,8.485,1.212,1.212,0,0,1-.832,2.095Z" transform="translate(-833.286 -1164.174)" fill="#fff"/>
        </g>
        <g id="Group_10350" data-name="Group 10350" transform="translate(47.358 16.134)">
          <path id="Path_16732" data-name="Path 16732" d="M740.666,1158.233a1.212,1.212,0,0,1-.3-2.388,40.144,40.144,0,0,1,9.82-1.215,1.212,1.212,0,0,1,0,2.425,37.724,37.724,0,0,0-9.226,1.141A1.214,1.214,0,0,1,740.666,1158.233Z" transform="translate(-739.454 -1154.63)" fill="#fff"/>
        </g>
      </g>
      <path id="Path_16733" data-name="Path 16733" d="M2054.931,624.532q0-.94-.051-1.868l7.962-6.393a42.376,42.376,0,0,0-2.893-9.148l-10.282-.777a34.22,34.22,0,0,0-8.9-9.444l-.034-10.246a42.439,42.439,0,0,0-9.116-3.517l-7.027,7.563a34.187,34.187,0,0,0-12.636.991l-8.058-6.382a42.7,42.7,0,0,0-8.523,4.943l1.524,10.157a34.089,34.089,0,0,0-7.177,10.475l-10.025,2.323a42.668,42.668,0,0,0-1.48,9.663l8.828,5.1a33.8,33.8,0,0,0,3.777,12.476l-4.42,9.259a42.962,42.962,0,0,0,6.5,7.068l9.467-3.708a33.825,33.825,0,0,0,12.483,4.953l4.463,9.188c.532.02,1.065.033,1.6.033a42.969,42.969,0,0,0,7.829-.718l3.009-9.731a34,34,0,0,0,11.747-6.82l9.951,2.236a42.773,42.773,0,0,0,5.3-7.829l-5.767-8.471A33.968,33.968,0,0,0,2054.931,624.532Zm-34.4,14.993a14.333,14.333,0,1,1,14.333-14.333A14.333,14.333,0,0,1,2020.528,639.525Z" transform="translate(-1630.471 -472.424)" fill="#9ec8ff"/>
    </g>
    <path id="Path_16734" data-name="Path 16734" d="M1060.527,1705.271c-50.431-2.465-221.99,1.711-274.166,3.34s-112.741-2.148-144.2-7.7-213.311.473-205.059,15.4,81.023,6.68,163.546,12.682,268.12-.751,309.984,0,80.254-1.5,134.205-4.5S1089.759,1706.7,1060.527,1705.271Z" transform="translate(-157.342 -1191.041)" fill="#cce2ff"/>
    <g id="Group_10357" data-name="Group 10357" transform="translate(282.294 201.985)">
      <rect id="Rectangle_1421" data-name="Rectangle 1421" width="105.421" height="172.791" transform="translate(0)" fill="#99bbeb"/>
      <rect id="Rectangle_1422" data-name="Rectangle 1422" width="96.434" height="162.684" transform="translate(5.521 3.521)" fill="#fff"/>
      <g id="Group_10356" data-name="Group 10356" transform="translate(11.109 10.134)">
        <g id="Group_10353" data-name="Group 10353" transform="translate(23.256 9.988)">
          <path id="Path_16735" data-name="Path 16735" d="M590.122,688.94c3.63-7.808,9.773-10.309,19.86-10.309,12.012,0,18.248,4.352,20.016,10.687C608.489,689.612,590.122,688.94,590.122,688.94Z" transform="translate(-590.122 -640.304)" fill="#9bd6e8"/>
          <path id="Path_16736" data-name="Path 16736" d="M607.306,520.925c-5.085,1.427-4.862,4.284-6.556,6.936s-5.377,4.42-5.82,6.188,1.134,5.451-.736,7.514-2.5,3.094-1.768,5.157,2.357,5.3,2.5,5.746,2.21,3.536,4.715,3.978,7.219,1.179,9.576,2.21,9.936-1.32,14.144-1.173,7.072-2.952,6.777-5.015,3.1-6.188,3.094-9.724c-.009-3.8-4.42-6.63-5.6-9.134s.147-6.924-4.272-9.542c-2.793-1.654-4.715-1.507-6.925-2.244S610.547,520.016,607.306,520.925Z" transform="translate(-591.64 -520.576)" fill="#3a384d"/>
          <path id="Path_16737" data-name="Path 16737" d="M660.914,625.175c-1.15,1.7-1.993,1.768-3.241,0-.992-1.406-2.947-4.6-2.947-6.22V602.781a2.955,2.955,0,0,1,2.947-2.947h3.241a2.955,2.955,0,0,1,2.946,2.947v16.174C663.86,620.576,661.945,623.653,660.914,625.175Z" transform="translate(-639.06 -580.615)" fill="#f09959"/>
          <path id="Path_16738" data-name="Path 16738" d="M660.914,599.835h-3.241a2.955,2.955,0,0,0-2.947,2.947v14.431c3.639,1.159,6.961-1.145,9.134-3.739V602.781A2.955,2.955,0,0,0,660.914,599.835Z" transform="translate(-639.06 -580.615)" fill="#e38540"/>
          <ellipse id="Ellipse_224" data-name="Ellipse 224" cx="9.797" cy="13.35" rx="9.797" ry="13.35" transform="translate(10.436 6.034)" fill="#f09959"/>
          <path id="Path_16739" data-name="Path 16739" d="M644.53,540.235c-6.188,10.46-15.322,9.429-15.322,9.429s.221-13.849,7.477-14.585,11.528,2.175,13,6.981,0,7.973,0,7.973a12.719,12.719,0,0,1-3.536-4.788A34.386,34.386,0,0,1,644.53,540.235Z" transform="translate(-619.73 -531.476)" fill="#3a384d"/>
          <ellipse id="Ellipse_225" data-name="Ellipse 225" cx="2.578" cy="3.867" rx="2.578" ry="3.867" transform="translate(5.122 17.896) rotate(-25.405)" fill="#f09959"/>
          <path id="Path_16740" data-name="Path 16740" d="M706.347,591.667c-.916,1.929-.617,3.988.67,4.6s3.072-.458,3.988-2.387.617-3.989-.67-4.6S707.263,589.738,706.347,591.667Z" transform="translate(-677.761 -572.49)" fill="#f09959"/>
          <path id="Path_16741" data-name="Path 16741" d="M665.738,630.368s-1.649,2.138-3.683,2.138-3.683-2.138-3.683-2.138Z" transform="translate(-641.822 -603.745)" fill="#fff"/>
        </g>
        <path id="Path_16742" data-name="Path 16742" d="M635.379,790.5H610.637a2.877,2.877,0,0,1,0-5.754h24.742a2.877,2.877,0,0,1,0,5.754Z" transform="translate(-580.227 -710.703)" fill="#99bbeb"/>
        <path id="Path_16743" data-name="Path 16743" d="M625.757,826.956h-33.8a2.877,2.877,0,0,1,0-5.754h33.8a2.877,2.877,0,1,1,0,5.754Z" transform="translate(-566.076 -738.316)" fill="#99bbeb"/>
        <path id="Path_16744" data-name="Path 16744" d="M578.109,965.6H495.887a1.669,1.669,0,1,1,0-3.339h82.222a1.669,1.669,0,0,1,0,3.339Z" transform="translate(-494.217 -845.166)" fill="#99bbeb"/>
        <path id="Path_16745" data-name="Path 16745" d="M578.109,997.592H495.887a1.669,1.669,0,1,1,0-3.339h82.222a1.669,1.669,0,0,1,0,3.339Z" transform="translate(-494.217 -869.404)" fill="#99bbeb"/>
        <path id="Path_16746" data-name="Path 16746" d="M578.109,1029.588H495.887a1.669,1.669,0,1,1,0-3.339h82.222a1.669,1.669,0,0,1,0,3.339Z" transform="translate(-494.217 -893.641)" fill="#99bbeb"/>
        <g id="Group_10354" data-name="Group 10354" transform="translate(10.189)">
          <path id="Path_16747" data-name="Path 16747" d="M598.438,539.93H539.215a2.984,2.984,0,0,1-2.98-2.98V482.367a2.984,2.984,0,0,1,2.98-2.98h59.223a2.984,2.984,0,0,1,2.98,2.98V536.95A2.984,2.984,0,0,1,598.438,539.93Zm-59.223-58.118a.563.563,0,0,0-.555.556V536.95a.563.563,0,0,0,.555.556h59.223a.563.563,0,0,0,.556-.556V482.367a.563.563,0,0,0-.556-.556Z" transform="translate(-536.235 -479.387)" fill="#99bbeb"/>
        </g>
        <g id="Group_10355" data-name="Group 10355" transform="translate(16.167 96.146)">
          <path id="Path_16748" data-name="Path 16748" d="M566.436,875.882l1.714,3.474,3.834.557-2.774,2.7.655,3.818-3.429-1.8-3.429,1.8.655-3.818-2.774-2.7,3.834-.557Z" transform="translate(-560.887 -875.882)" fill="#99bbeb"/>
          <path id="Path_16749" data-name="Path 16749" d="M624.35,875.882l1.715,3.474,3.834.557-2.774,2.7.655,3.818-3.429-1.8-3.429,1.8.655-3.818-2.774-2.7,3.834-.557Z" transform="translate(-604.758 -875.882)" fill="#99bbeb"/>
          <path id="Path_16750" data-name="Path 16750" d="M682.264,875.882l1.715,3.474,3.834.557-2.774,2.7.655,3.818-3.429-1.8-3.429,1.8.655-3.818-2.774-2.7,3.834-.557Z" transform="translate(-648.629 -875.882)" fill="#99bbeb"/>
          <path id="Path_16751" data-name="Path 16751" d="M740.178,875.882l1.715,3.474,3.834.557-2.774,2.7.655,3.818-3.429-1.8-3.429,1.8.655-3.818-2.774-2.7,3.834-.557Z" transform="translate(-692.499 -875.882)" fill="#99bbeb"/>
        </g>
      </g>
    </g>
    <g id="Group_10362" data-name="Group 10362" transform="translate(517.318 201.985)">
      <rect id="Rectangle_1423" data-name="Rectangle 1423" width="105.421" height="172.791" fill="#99bbeb"/>
      <rect id="Rectangle_1424" data-name="Rectangle 1424" width="96.434" height="162.684" transform="translate(5.521 3.521)" fill="#fff"/>
      <g id="Group_10361" data-name="Group 10361" transform="translate(11.109 10.134)">
        <g id="Group_10358" data-name="Group 10358" transform="translate(23.256 11.027)">
          <path id="Path_16752" data-name="Path 16752" d="M1578.225,596.877c0,7.74,4.66,20.227,15.653,19.826s13.424-12.3,13.849-15.663S1578.225,596.877,1578.225,596.877Z" transform="translate(-1573.644 -579.414)" fill="#7a4e34"/>
          <path id="Path_16753" data-name="Path 16753" d="M1559.335,688.94c3.63-7.808,9.773-10.309,19.86-10.309,12.011,0,18.249,4.352,20.016,10.687C1577.7,689.612,1559.335,688.94,1559.335,688.94Z" transform="translate(-1559.335 -641.343)" fill="#d54a41"/>
          <path id="Path_16754" data-name="Path 16754" d="M1630.128,625.175c-1.15,1.7-1.993,1.768-3.241,0-.992-1.406-2.946-4.6-2.946-6.22V602.781a2.955,2.955,0,0,1,2.946-2.947h3.241a2.955,2.955,0,0,1,2.946,2.947v16.174C1633.074,620.576,1631.159,623.653,1630.128,625.175Z" transform="translate(-1608.274 -581.654)" fill="#f09959"/>
          <path id="Path_16755" data-name="Path 16755" d="M1630.128,599.835h-3.241a2.955,2.955,0,0,0-2.946,2.947v14.431c3.639,1.159,6.961-1.145,9.134-3.739V602.781A2.955,2.955,0,0,0,1630.128,599.835Z" transform="translate(-1608.274 -581.654)" fill="#e38540"/>
          <ellipse id="Ellipse_226" data-name="Ellipse 226" cx="9.797" cy="13.35" rx="9.797" ry="13.35" transform="translate(10.436 4.995)" fill="#f09959"/>
          <path id="Path_16756" data-name="Path 16756" d="M1599.159,533.058c-1.164,4.105-3.716,4.058-7.273,5.406s-5.258,2.7-6.422,5.331c-1.484,3.349.674,13.114.674,13.114s-9.008-6.741-7.966-17.342,7.292-14.706,13.175-14.706,8.119,3.585,8.119,3.585,3.133.013,6.1,3.523c3.983,4.718,2.758,16.177,0,20.283s-4.6,5.393-4.535,5.208,2.574-9.612,1.226-15.442A37.249,37.249,0,0,0,1599.159,533.058Z" transform="translate(-1573.541 -524.86)" fill="#7a4e34"/>
          <path id="Path_16757" data-name="Path 16757" d="M1634.951,630.368s-1.649,2.138-3.683,2.138-3.683-2.138-3.683-2.138Z" transform="translate(-1611.035 -604.783)" fill="#fff"/>
        </g>
        <path id="Path_16758" data-name="Path 16758" d="M1604.592,790.5h-24.742a2.877,2.877,0,0,1,0-5.754h24.742a2.877,2.877,0,0,1,0,5.754Z" transform="translate(-1549.441 -710.703)" fill="#99bbeb"/>
        <path id="Path_16759" data-name="Path 16759" d="M1594.971,826.956h-33.8a2.877,2.877,0,1,1,0-5.754h33.8a2.877,2.877,0,1,1,0,5.754Z" transform="translate(-1535.289 -738.316)" fill="#99bbeb"/>
        <path id="Path_16760" data-name="Path 16760" d="M1547.323,965.6H1465.1a1.669,1.669,0,1,1,0-3.339h82.223a1.669,1.669,0,0,1,0,3.339Z" transform="translate(-1463.431 -845.166)" fill="#99bbeb"/>
        <path id="Path_16761" data-name="Path 16761" d="M1547.323,997.592H1465.1a1.669,1.669,0,1,1,0-3.339h82.223a1.669,1.669,0,0,1,0,3.339Z" transform="translate(-1463.431 -869.404)" fill="#99bbeb"/>
        <path id="Path_16762" data-name="Path 16762" d="M1547.323,1029.588H1465.1a1.669,1.669,0,1,1,0-3.339h82.223a1.669,1.669,0,0,1,0,3.339Z" transform="translate(-1463.431 -893.641)" fill="#99bbeb"/>
        <g id="Group_10359" data-name="Group 10359" transform="translate(10.189)">
          <path id="Path_16763" data-name="Path 16763" d="M1567.652,539.93h-59.223a2.984,2.984,0,0,1-2.98-2.98V482.367a2.984,2.984,0,0,1,2.98-2.98h59.223a2.984,2.984,0,0,1,2.98,2.98V536.95A2.984,2.984,0,0,1,1567.652,539.93Zm-59.223-58.118a.563.563,0,0,0-.555.556V536.95a.563.563,0,0,0,.555.556h59.223a.563.563,0,0,0,.555-.556V482.367a.563.563,0,0,0-.555-.556Z" transform="translate(-1505.449 -479.387)" fill="#99bbeb"/>
        </g>
        <g id="Group_10360" data-name="Group 10360" transform="translate(16.167 96.146)">
          <path id="Path_16764" data-name="Path 16764" d="M1535.649,875.882l1.714,3.474,3.834.557-2.774,2.7.655,3.818-3.429-1.8-3.429,1.8.655-3.818-2.774-2.7,3.834-.557Z" transform="translate(-1530.1 -875.882)" fill="#99bbeb"/>
          <path id="Path_16765" data-name="Path 16765" d="M1593.564,875.882l1.715,3.474,3.834.557-2.774,2.7.655,3.818-3.429-1.8-3.429,1.8.655-3.818-2.774-2.7,3.834-.557Z" transform="translate(-1573.972 -875.882)" fill="#99bbeb"/>
          <path id="Path_16766" data-name="Path 16766" d="M1651.478,875.882l1.715,3.474,3.834.557-2.774,2.7.655,3.818-3.429-1.8-3.429,1.8.655-3.818-2.774-2.7,3.834-.557Z" transform="translate(-1617.842 -875.882)" fill="#99bbeb"/>
          <path id="Path_16767" data-name="Path 16767" d="M1709.392,875.882l1.715,3.474,3.834.557-2.774,2.7.655,3.818-3.429-1.8-3.429,1.8.655-3.818-2.774-2.7,3.834-.557Z" transform="translate(-1661.713 -875.882)" fill="#99bbeb"/>
        </g>
      </g>
    </g>
    <path id="Path_16768" data-name="Path 16768" d="M946.764,610.662H780.393l11.768-170.42h160.6Z" transform="translate(-417.595 -237.615)" fill="#99bbeb" opacity="0.2"/>
    <g id="Group_10367" data-name="Group 10367" transform="translate(380.274 170.378)">
      <rect id="Rectangle_1425" data-name="Rectangle 1425" width="143.989" height="236.006" fill="#99bbeb"/>
      <rect id="Rectangle_1426" data-name="Rectangle 1426" width="131.714" height="222.202" transform="translate(7.541 4.809)" fill="#fff"/>
      <g id="Group_10366" data-name="Group 10366" transform="translate(15.174 14.285)">
        <g id="Group_10363" data-name="Group 10363" transform="translate(30.1 10.266)">
          <path id="Path_16769" data-name="Path 16769" d="M1096.155,435.427c-.092-.276-2.4-13.511-2.673-18.659s8.273-5.883,8.273-5.883,6.985-3.768,12.041-1.838a20.378,20.378,0,0,1,10.793,9.222c2.3,4.044-2.022,16.648-2.022,16.648Z" transform="translate(-1080.306 -408.497)" fill="#2e2d3d"/>
          <path id="Path_16770" data-name="Path 16770" d="M1039.168,633.415c-.032-.217.59-5.426.613-5.637,1.164-10.968,14.684-14.053,28.176-14.053,15.852,0,26.605,2.9,28.321,14.3.05.334.965,5.556.919,5.908C1067.818,634.332,1039.168,633.415,1039.168,633.415Z" transform="translate(-1039.167 -563.959)" fill="#d5e1e8"/>
          <path id="Path_16771" data-name="Path 16771" d="M1136.915,540.712c-1.571,2.319-2.722,2.415-4.427,0-1.355-1.92-5.882-6.3-5.882-8.514l1.858-22.073a4.036,4.036,0,0,1,4.025-4.024h4.427a4.036,4.036,0,0,1,4.025,4.024l.863,22.073C1141.8,534.412,1138.324,538.633,1136.915,540.712Z" transform="translate(-1105.403 -482.433)" fill="#f09959"/>
          <path id="Path_16772" data-name="Path 16772" d="M1137.681,506.1h-4.427a4.036,4.036,0,0,0-4.025,4.024l-1.613,19.582c4.971,1.582,11.683-1.634,14.652-5.178l-.563-14.4A4.036,4.036,0,0,0,1137.681,506.1Z" transform="translate(-1106.169 -482.433)" fill="#e38540"/>
          <path id="Path_16773" data-name="Path 16773" d="M1097.339,619.036l7.1,13.118s3.8-3.125,4.167-2.512-.674,8.346-.674,8.346,8.456.115,8.824-.253-1.716-8.4-.858-8.4,3.438,2.329,3.438,2.329l7.924-12.628-1.742-.424-12.983,6.986-13.886-6.832Z" transform="translate(-1083.233 -567.661)" fill="#bdccd4"/>
          <path id="Path_16774" data-name="Path 16774" d="M1130.81,639.246l5.271,3.537-1.633,9.387,7.108-.4-1.775-8.538,4.369-3.989-2.052-1.934h-9.234Z" transform="translate(-1108.588 -581.826)" fill="#d54a41"/>
          <path id="Path_16775" data-name="Path 16775" d="M1107.757,591.933l-6.519,6.2s6.642,11.812,7.009,11.812,5.636-6.513,5.636-6.513l3.373-.059,5.329,5.591,6.193-10.954-6.315-6.693s-5.393,10.417-6.373,10.662-.987.368-1.78-.245S1107.757,591.933,1107.757,591.933Z" transform="translate(-1086.187 -546.987)" fill="#d5e1e8"/>
          <ellipse id="Ellipse_227" data-name="Ellipse 227" cx="13.382" cy="18.233" rx="13.382" ry="18.233" transform="translate(15.917 5.658)" fill="#f09959"/>
          <path id="Path_16776" data-name="Path 16776" d="M1088.318,494.945c1.251,2.635.842,5.448-.915,6.282s-4.2-.625-5.447-3.26-.842-5.448.915-6.282S1087.067,492.309,1088.318,494.945Z" transform="translate(-1071.031 -471.334)" fill="#f09959"/>
          <path id="Path_16777" data-name="Path 16777" d="M1204.773,494.945c-1.252,2.635-.842,5.448.915,6.282s4.2-.625,5.447-3.26.842-5.448-.915-6.282S1206.024,492.309,1204.773,494.945Z" transform="translate(-1164.066 -471.334)" fill="#f09959"/>
          <path id="Path_16778" data-name="Path 16778" d="M1147.383,537.875s-2.658,4.305-5.937,4.305-5.937-4.305-5.937-4.305Z" transform="translate(-1112.148 -506.502)" fill="#fff"/>
          <path id="Path_16779" data-name="Path 16779" d="M1110.126,432.461c5.515-3.86,8-3.217,12.133,3.125s9.1,6.454,9.1,6.454l.644-6.577s-6.161-11.918-14.432-10.356-12.975,9.008-12.975,9.008-.4,13.955.751,14.431,1.287-4.5,2.114-5.515-.827-5.791.276-8S1110.126,432.461,1110.126,432.461Z" transform="translate(-1088.678 -420.973)" fill="#2e2d3d"/>
          <path id="Path_16780" data-name="Path 16780" d="M1200.773,485.439c1.925,2.108,1.195,10.478,2.206,10.386s1.379-8,1.1-8.824S1200.773,485.439,1200.773,485.439Z" transform="translate(-1161.585 -466.781)" fill="#2e2d3d"/>
        </g>
        <path id="Path_16781" data-name="Path 16781" d="M1078.454,789.268h-61.466a3.929,3.929,0,0,1,0-7.859h61.466a3.929,3.929,0,0,1,0,7.859Z" transform="translate(-989.29 -680.716)" fill="#99bbeb"/>
        <path id="Path_16782" data-name="Path 16782" d="M1094.7,839.056h-46.168a3.929,3.929,0,0,1,0-7.859H1094.7a3.929,3.929,0,0,1,0,7.859Z" transform="translate(-1013.185 -718.431)" fill="#99bbeb"/>
        <path id="Path_16783" data-name="Path 16783" d="M1029.62,1028.416h-112.3a2.28,2.28,0,0,1,0-4.56h112.3a2.28,2.28,0,1,1,0,4.56Z" transform="translate(-915.037 -864.372)" fill="#99bbeb"/>
        <path id="Path_16784" data-name="Path 16784" d="M1029.62,1072.118h-112.3a2.28,2.28,0,0,1,0-4.56h112.3a2.28,2.28,0,1,1,0,4.56Z" transform="translate(-915.037 -897.477)" fill="#99bbeb"/>
        <path id="Path_16785" data-name="Path 16785" d="M1029.62,1115.819h-112.3a2.28,2.28,0,0,1,0-4.56h112.3a2.28,2.28,0,1,1,0,4.56Z" transform="translate(-915.037 -930.581)" fill="#99bbeb"/>
        <g id="Group_10364" data-name="Group 10364" transform="translate(14.36)">
          <path id="Path_16786" data-name="Path 16786" d="M1058.772,447.965H977.883a3.631,3.631,0,0,1-3.627-3.627V369.787a3.631,3.631,0,0,1,3.627-3.627h80.889a3.631,3.631,0,0,1,3.627,3.627v74.551A3.631,3.631,0,0,1,1058.772,447.965Zm-80.889-79.38a1.2,1.2,0,0,0-1.2,1.2v74.551a1.2,1.2,0,0,0,1.2,1.2h80.889a1.2,1.2,0,0,0,1.2-1.2V369.787a1.2,1.2,0,0,0-1.2-1.2Z" transform="translate(-974.256 -366.16)" fill="#99bbeb"/>
        </g>
        <g id="Group_10365" data-name="Group 10365" transform="translate(12.338 130.876)">
          <path id="Path_16787" data-name="Path 16787" d="M973.5,905.881l2.342,4.745,5.237.761-3.789,3.694.895,5.215-4.684-2.462-4.684,2.462.894-5.215-3.789-3.694,5.236-.761Z" transform="translate(-965.918 -905.881)" fill="#99bbeb"/>
          <path id="Path_16788" data-name="Path 16788" d="M1052.6,905.881l2.342,4.745,5.237.761-3.789,3.694.894,5.215-4.684-2.462-4.684,2.462.895-5.215-3.789-3.694,5.237-.761Z" transform="translate(-1025.839 -905.881)" fill="#99bbeb"/>
          <path id="Path_16789" data-name="Path 16789" d="M1131.7,905.881l2.342,4.745,5.237.761-3.789,3.694.895,5.215-4.684-2.462-4.684,2.462.894-5.215-3.789-3.694,5.236-.761Z" transform="translate(-1085.759 -905.881)" fill="#99bbeb"/>
          <path id="Path_16790" data-name="Path 16790" d="M1210.8,905.881l2.342,4.745,5.237.761-3.789,3.694.895,5.215-4.684-2.462-4.684,2.462.895-5.215-3.789-3.694,5.237-.761Z" transform="translate(-1145.68 -905.881)" fill="#99bbeb"/>
          <path id="Path_16791" data-name="Path 16791" d="M1291.161,905.881l2.342,4.745,5.236.761-3.789,3.694.894,5.215-4.684-2.462-4.684,2.462.894-5.215-3.789-3.694,5.236-.761Z" transform="translate(-1206.552 -905.881)" fill="#99bbeb"/>
        </g>
      </g>
    </g>
    <rect id="Rectangle_1427" data-name="Rectangle 1427" width="188.789" height="7.035" rx="3.518" transform="translate(568.735 391.763)" fill="#2e5b9a"/>
    <g id="Group_10372" data-name="Group 10372" transform="translate(643.315 271.559)">
      <path id="Path_16792" data-name="Path 16792" d="M2517.352,791.124c2.5,8.826-3.61,17.921-10.347,19.832s-11.542-4.087-14.045-12.913.927-17.53,7.663-19.441S2514.849,782.3,2517.352,791.124Z" transform="translate(-2357.579 -765.203)" fill="#f09959"/>
      <path id="Path_16793" data-name="Path 16793" d="M2416,1536.709s17.262,26.812,19.594,27.978,8.16,1.457,5.974,5.828-3.06,21.566-5.1,22.441-19.526,2.914-16.9,0,4.237-1.457,5.56-6.7,3.183-15.155.706-17.195-17.632-20.4-17.632-20.4Z" transform="translate(-2293.994 -1339.76)" fill="#f09959"/>
      <path id="Path_16794" data-name="Path 16794" d="M1972.345,1584.192s-20.984,34.585-24.87,37.694-16.71,7.772-6.218,8.549,15.544-3.5,22.15-5.44,14.766-3.109,11.658-8.161-1.818-16.08,4.884-23.075S1972.345,1584.192,1972.345,1584.192Z" transform="translate(-1937.219 -1375.729)" fill="#f09959"/>
      <path id="Path_16795" data-name="Path 16795" d="M2161.32,1253.382s-51.946-1.359-72.542,15.544c-12.046,18.264-41.189,72.152-43.454,78.091,1.554,1.555,10.3,4.359,14.184,3.971,11.464-13.669,26.616-25.486,32.642-36.207,7.426-13.212,9.715-19.818,21.761-20.984s39.248-5.052,47.409-5.052S2161.32,1253.382,2161.32,1253.382Z" transform="translate(-2019.11 -1125.117)" fill="#6791c9"/>
      <path id="Path_16796" data-name="Path 16796" d="M2640.985,1520.788h-2.723l-19.526-81.466h5.99Z" transform="translate(-2453.476 -1265.988)" fill="#2e5b9a"/>
      <path id="Path_16797" data-name="Path 16797" d="M2374.111,1511.791h2.723l22.406-84.346h-5.99Z" transform="translate(-2268.17 -1256.991)" fill="#2e5b9a"/>
      <path id="Path_16798" data-name="Path 16798" d="M2326.662,1238.789l-30.2,5.213s-40.134.369-58.479,3.786c-16.69,3.109-19.15,22.073,0,48.186,10.878,14.834,20.076,26.667,38.884,40.009,4.785-3.513,6.615-4.841,7.937-13.293-1.361-1.866-4.885-13.549-5.979-15.835-10.4-21.747-24.29-29.655-24.482-31.795,2.332-3.789,61.758,19.748,73.574,5.9C2339.2,1267.743,2326.662,1238.789,2326.662,1238.789Z" transform="translate(-2154.856 -1114.082)" fill="#75a1de"/>
      <path id="Path_16799" data-name="Path 16799" d="M2530.514,955.754a31.6,31.6,0,0,0-23.632,5.88c-6.62,6.748-14.112,17.878-13.653,36.236.583,23.315-3.608,24.812.764,31.223,18.232,7.529,49.416,39.878,42.073,5.2-5.317-25.112,11.662-43.829-2.035-71.684C2532.915,960.339,2531.522,958.141,2530.514,955.754Z" transform="translate(-2357.455 -899.42)" fill="#f37168"/>
      <path id="Path_16800" data-name="Path 16800" d="M2493.227,1024.839c-.354,12.154-2.071,15.735-.759,19.546,7.433.759,21.03,3.733,24.427,8.49,3.886,5.44,7.772,6.217,5.959,2.2s-6.606-9.715.777-29.274,10.881-32.772,3.627-46.373Z" transform="translate(-2357.457 -917.615)" fill="#d54a41"/>
      <path id="Path_16801" data-name="Path 16801" d="M2577.072,879.911a94.875,94.875,0,0,1-6.1-24.622l-12.823,3.789s7.286,16.32.292,22.149a66.769,66.769,0,0,0-5,4.565A31.6,31.6,0,0,1,2577.072,879.911Z" transform="translate(-2404.014 -823.577)" fill="#f09959"/>
      <path id="Path_16802" data-name="Path 16802" d="M2586.125,860.519c-.76-.676-1.71-1.519-2.709-2.4l-10.459,3.09-.022.057a42.709,42.709,0,0,1,3.267,12.774c3.117-1.891,6.53-4.974,10.432-10.36C2586.423,862.484,2586.255,861.418,2586.125,860.519Z" transform="translate(-2418.781 -825.72)" fill="#e38540"/>
      <path id="Path_16803" data-name="Path 16803" d="M2370.355,970.72c-13.207,4.619-11.742,18.533-23.9,39.052-6.291,10.619-12.133,10.461-12.133,10.461a281.416,281.416,0,0,1-32.6-2.064c-11.174-1.366-11.884,1.96-4.112,4.739,15.673,5.6,31.939,11.635,45.053,10.178s35.545-34.918,36.7-43.628C2380.97,977.411,2377.007,968.394,2370.355,970.72Z" transform="translate(-2206.312 -910.739)" fill="#f09959"/>
      <g id="Group_10368" data-name="Group 10368" transform="translate(110.813 88.725)">
        <path id="Path_16804" data-name="Path 16804" d="M2440.629,1178.41c-.822,0-1.662-.011-2.525-.032a125.613,125.613,0,0,1-23.978-2.951c-6.874-1.4-10.66-2.167-15.067-.061a3.395,3.395,0,0,1-2.927-6.126c6.459-3.086,11.865-1.988,19.347-.467a119.616,119.616,0,0,0,22.793,2.817c11.377.284,18.314-1.4,21.83-5.3,3.133-3.474,4.049-9.311,2.884-18.369-.4-3.1-.8-5.678-1.149-7.954-.992-6.418-1.648-10.658-.836-17.213.753-6.087,2.769-14.195,7.438-29.916a3.395,3.395,0,1,1,6.509,1.933c-8.7,29.3-8.258,32.149-6.4,44.158.358,2.315.763,4.939,1.173,8.125,1.437,11.17-.018,18.727-4.576,23.782C2460.45,1176.039,2452.831,1178.41,2440.629,1178.41Z" transform="translate(-2394.199 -1090.406)" fill="#2e5b9a"/>
      </g>
      <path id="Path_16805" data-name="Path 16805" d="M1973.771,1704.4c-13.923,6.81-21.417,10.712-25.881,10.34-1.054-.088-1.927-.2-2.66-.309-4.965,2.935-12.891,6.4-3.973,7.063,10.492.777,15.544-3.5,22.15-5.44s14.766-3.109,11.658-8.16A10.635,10.635,0,0,1,1973.771,1704.4Z" transform="translate(-1937.219 -1466.788)" fill="#d54a41"/>
      <path id="Path_16806" data-name="Path 16806" d="M2471.785,1654.431c-.341,11.024-1.856,21.948-8.6,24.011a11.33,11.33,0,0,1-4.858.433c-1.06,1.311-2.354,1.325-4.091,3.255-2.622,2.915,14.863.875,16.9,0s2.914-18.069,5.1-22.44C2478.038,1656.1,2474.425,1655.262,2471.785,1654.431Z" transform="translate(-2328.664 -1428.936)" fill="#d54a41"/>
      <g id="Group_10369" data-name="Group 10369" transform="translate(23.985 75.906)">
        <path id="Path_16807" data-name="Path 16807" d="M2101.634,1082.8H2057.4a3.4,3.4,0,0,1-3.079-1.964l-17.875-38.471a3.395,3.395,0,0,1,6.158-2.861l16.962,36.506h42.068a3.395,3.395,0,1,1,0,6.79Z" transform="translate(-2036.13 -1037.542)" fill="#75a1de"/>
      </g>
      <path id="Path_16808" data-name="Path 16808" d="M2221.558,1154.27c-8.938-.129-17.8-5.457-22.206-4.68s-18.782,10.751-16.969,11.14,13.213-5.52,13.6-5.609,2.85,4.092,8.938,5.628.043-4.563,18.914,1.137C2236.107,1165.591,2221.558,1154.27,2221.558,1154.27Z" transform="translate(-2122.815 -1046.455)" fill="#f09959"/>
      <path id="Path_16809" data-name="Path 16809" d="M2550.959,913.192l1.315,10.581s-11.566.688-17.321,3.926-14.249,12.594-14.249,12.594l6.939-11.947,1-7.643Z" transform="translate(-2379.215 -867.439)" fill="#f2e5de"/>
      <path id="Path_16810" data-name="Path 16810" d="M2414.713,965.948c-8.59-1.61-12.564,6.088-18.134,18.652s-15.078,27.825-16.969,29.793-31.865,0-31.865,0-.907,8.679,0,9.715,6.088.907,6.088.907,2.072,1.655,4.015,2.965,18.393,3.771,26.036,3.382,14.637-1.036,15.674-2.2,21.891-33.289,23.186-44.818S2419.1,966.77,2414.713,965.948Z" transform="translate(-2247.891 -907.242)" fill="#f2e5de"/>
      <path id="Path_16811" data-name="Path 16811" d="M2477.456,730.369c-16.247.777-13.7,25.219-13.7,25.219s4.22,1.3,13.061-.154c-.68-2.623-.389-9.326-.389-9.326a61.089,61.089,0,0,0,2.332,8.744c1.869.857,3.983.1,7.578-.772,1.846,7.766,7.062,11.048,10.633,12.17,3.946,1.24,8.123,2.72,12.786.388s2.1-26.165-.377-30.958c-3.717-7.194-9.894-13.633-20.58-10.233A79.376,79.376,0,0,0,2477.456,730.369Z" transform="translate(-2335.967 -724.512)" fill="#303c60"/>
      <path id="Path_16812" data-name="Path 16812" d="M2637.22,862.912l6.643,9.7s-7.362,18.394,14.049,26.727c16.768,6.527,14.793,18.026,7.216,29.59s4.534,21.664,4.534,21.664,1.847-12.811,18.139-15.229c22.215-3.3,28.5-33.122,11.913-48.035-13.73-12.341-17.908-2.121-27.2-13.2s-26.84-3.594-26.84-3.594l-6.43-9.378Z" transform="translate(-2467.477 -828.027)" fill="#303c60"/>
      <g id="Group_10370" data-name="Group 10370" transform="translate(177.603 38.288)">
        <path id="Path_16813" data-name="Path 16813" d="M2731.91,933.469a.591.591,0,0,1-.518-.875c5.586-10.208,1.028-22.576-1.265-25.926-.243-.355-.473-.715-.718-1.1-2.252-3.516-5.055-7.892-20.013-10.584-3.6-.649-6.519-2.79-9.607-5.056-6.378-4.682-13.608-9.99-29.315-2.76a.591.591,0,1,1-.494-1.073c16.339-7.521,23.867-1.995,30.509,2.881,2.975,2.184,5.784,4.246,9.117,4.846,15.465,2.784,18.423,7.4,20.8,11.11.239.373.465.726.7,1.066,2.4,3.51,7.177,16.467,1.326,27.16A.591.591,0,0,1,2731.91,933.469Z" transform="translate(-2669.636 -882.409)" fill="#303c60"/>
      </g>
      <g id="Group_10371" data-name="Group 10371" transform="translate(148.837 21.717)">
        <path id="Path_16814" data-name="Path 16814" d="M2568.364,837.181a23.4,23.4,0,0,1-3.45-.278c-5.684-.852-13.31-4.082-13.908-22.222a.591.591,0,1,1,1.181-.039c.247,7.477,1.73,13.009,4.409,16.443a12.392,12.392,0,0,0,8.494,4.649c5.26.788,8.747-.183,10.363-2.887a.591.591,0,1,1,1.014.606C2574.985,835.933,2572.266,837.181,2568.364,837.181Z" transform="translate(-2551.006 -814.071)" fill="#303c60"/>
      </g>
    </g>
    <path id="Path_16815" data-name="Path 16815" d="M1711.333,1369.781h4.365l16.981-129.8h-9.6Z" transform="translate(-1122.792 -843.423)" fill="#2e5b9a"/>
    <path id="Path_16816" data-name="Path 16816" d="M2255.5,1369.781h-4.365l-16.981-129.8h9.6Z" transform="translate(-1518.835 -843.423)" fill="#2e5b9a"/>
    <g id="Group_10373" data-name="Group 10373" transform="translate(855.094 386.552)">
      <path id="Path_16817" data-name="Path 16817" d="M3003.518,1323.431c7.552,6.9,4.269,13.791-1.313,26.6s-6.567,60.09-6.567,60.09l4.6-.656s-.657-48.6,5.582-61.732,8.866-19.7,14.448-15.433S3003.518,1323.431,3003.518,1323.431Z" transform="translate(-2950.76 -1293.193)" fill="#74b570"/>
      <path id="Path_16818" data-name="Path 16818" d="M3009.753,1220.042c.917-4.087,6.364-8.508,13.648-12.259-1.083,6.027-4.555,15.882-.962,17.9,4.847,2.726.473-11.033,2.342-18.6a89.988,89.988,0,0,1,22.644-7.428c-.011.028-.019.055-.031.083-4.269,10.836-9.851,15.1-7.552,16.747,1.729,1.235,7.362-11.282,14.8-17.7,5.583-.3,10.306.46,13.1,2.672,4.319,3.419,7.218,6.452,2.874,16.863a19.517,19.517,0,0,1-9.429,3.418c-9.851.985-14.448,1.313-7.553,4.6,3.377,1.608,9.037-.091,13.626-1.126-1.489,2.743-3.318,5.848-5.542,9.384a34.867,34.867,0,0,1-4.615,5.874c-3.175.609-5.943.615-7.409-.013-4.6-1.97-16.418-8.209-19.374-5.582-2.892,2.571,21.893,4.2,20.176,10.733-12.014,6.922-25.76,3.628-28.191-2.727C3019.042,1234.352,3006.992,1232.344,3009.753,1220.042Z" transform="translate(-2961.145 -1198.733)" fill="#9cd499"/>
      <path id="Path_16819" data-name="Path 16819" d="M2997.34,1466.028c-13.135-9.851-26.6-.657-33.493,9.851s-1.97,34.15-1.97,34.15,2.627,0,2.627-.985-7.224-27.911,9.85-40.06c10.682-7.6,18.389-3.94,19.374-.328s-4.269,10.179-4.269,10.179Z" transform="translate(-2923.895 -1398.028)" fill="#74b570"/>
      <path id="Path_16820" data-name="Path 16820" d="M2987.042,1395.649c13.134,0,17.4,20.359,13.792,32.18s-8.538,33.822-8.538,33.822l-3.284-3.284s12.478-30.866,9.523-44.657-10.18-16.09-11.493-16.09S2987.042,1395.649,2987.042,1395.649Z" transform="translate(-2943.808 -1347.899)" fill="#9cd499"/>
      <path id="Path_16821" data-name="Path 16821" d="M3024,1519.656a9.517,9.517,0,0,1,3.458-2.905,25.984,25.984,0,0,1-.682,2.814c-1.646,5.386-3.564,12.885-5.165,19.453-.145-.841-.37-2.137-.716-4.137-.081-.472-.146-.985-.19-1.528A127.147,127.147,0,0,0,3024,1519.656Z" transform="translate(-2969.748 -1439.635)" fill="#74b570"/>
      <path id="Path_16822" data-name="Path 16822" d="M3027.89,1471.3c24.956-10.508,11.808-24.927,33.808-15.4a16.323,16.323,0,0,1,5.329,4.695,16.379,16.379,0,0,1-6.971.559c-6.567-.985-4.269,4.269,6.567,5.582a24.317,24.317,0,0,1,5.078,1.071c5.162,9.915,7.489,22.961-3.436,27.5a24.737,24.737,0,0,1-7.775,1.6c-3.371-2.679.823-18.183-4.374-16.044-4.99,2.055,1.563,13.291.666,16.122a71.979,71.979,0,0,1-15.589-2.185,7.762,7.762,0,0,1-4.122-4.743c-1.642-6.9,9.195-11.164,9.523-17.075.3-5.433-3.972,11.954-15.294,14.513C3021.062,1482.705,3016.225,1476.216,3027.89,1471.3Z" transform="translate(-2970.048 -1391.184)" fill="#9cd499"/>
      <path id="Path_16823" data-name="Path 16823" d="M2850.631,1378.161c2.627-5.582-4.269-6.9-3.94-2.627.291,3.782.323,12.977-3.556,15.48a60.872,60.872,0,0,1-22.674-7.53,2.789,2.789,0,0,1,.29-1.711c2.955-5.911,22-10.836,16.089-12.807-4.708-1.569-12.955,7.693-19.6,12.358-3.992-3.029-6.667-6.639-6.667-10.67,0-5.455,6.628-11.63,15.2-14.582,3.858.389,7.441,2.5,13.039,5.67,8.269,4.686,6.357-2.89-1.462-7.387a23.55,23.55,0,0,1,18.441,10.122s-.47,2.945,2.646,7.5c8.5,12.427-1.31,19.68-13.039,19.209C2846.061,1387.912,2848.816,1382.018,2850.631,1378.161Z" transform="translate(-2810.571 -1316.619)" fill="#9cd499"/>
      <path id="Path_16824" data-name="Path 16824" d="M3101.012,1476.6c6.421,4.962,13.554,10.764,22.311,14.7s7.005,16.784,7.005,16.784,1.314-11.092-5.984-14.887-12.113-8.319-17.659-9.195a80.411,80.411,0,0,1-8.611-1.751s1.751-3.5.73-4.816S3101.012,1476.6,3101.012,1476.6Z" transform="translate(-3028.358 -1409.156)" fill="#74b570"/>
      <path id="Path_16825" data-name="Path 16825" d="M3093.456,1236.565c-23.5,6.275-40.719,21.308-43.93,24.956s-3.211,4.67-3.211,4.67l2.481,4.67,1.167-.584s-1.9-3.941,3.065-9.049c8.558-8.809,18.973-15.762,26.125-18.827S3093.456,1236.565,3093.456,1236.565Z" transform="translate(-2989.149 -1227.391)" fill="#74b570"/>
      <path id="Rectangle_1428" data-name="Rectangle 1428" d="M16.047,0h0A16.047,16.047,0,0,1,32.094,16.047V32.185a0,0,0,0,1,0,0H0a0,0,0,0,1,0,0V16.047A16.047,16.047,0,0,1,16.047,0Z" transform="translate(59.981 139.236) rotate(180)" fill="#75a1de"/>
      <rect id="Rectangle_1429" data-name="Rectangle 1429" width="32.094" height="2.259" transform="translate(27.887 110.739)" fill="#fff"/>
      <rect id="Rectangle_1430" data-name="Rectangle 1430" width="32.094" height="1.329" transform="translate(27.887 114.859)" fill="#fff"/>
    </g>
    <g id="Group_10374" data-name="Group 10374" transform="translate(257.012 485.547)">
      <rect id="Rectangle_1431" data-name="Rectangle 1431" width="13.514" height="12.163" rx="6.081" transform="translate(62.657 12.163) rotate(180)" fill="#9ec8ff"/>
      <rect id="Rectangle_1432" data-name="Rectangle 1432" width="13.514" height="12.163" rx="6.081" transform="translate(38.086 12.163) rotate(180)" fill="#9ec8ff"/>
      <rect id="Rectangle_1433" data-name="Rectangle 1433" width="13.514" height="12.163" rx="6.081" transform="translate(13.514 12.163) rotate(180)" fill="#9ec8ff"/>
    </g>
    <g id="Group_10375" data-name="Group 10375" transform="translate(947.044 260.465)">
      <path id="Rectangle_1434" data-name="Rectangle 1434" d="M6.081,0H7.433a6.081,6.081,0,0,1,6.081,6.081v0a6.082,6.082,0,0,1-6.082,6.082H6.081A6.081,6.081,0,0,1,0,6.082v0A6.081,6.081,0,0,1,6.081,0Z" transform="translate(12.163 0) rotate(90)" fill="#9ec8ff"/>
      <path id="Rectangle_1435" data-name="Rectangle 1435" d="M6.081,0H7.433a6.081,6.081,0,0,1,6.081,6.081v0a6.082,6.082,0,0,1-6.082,6.082H6.081A6.081,6.081,0,0,1,0,6.081v0A6.081,6.081,0,0,1,6.081,0Z" transform="translate(12.163 24.571) rotate(90)" fill="#9ec8ff"/>
      <path id="Rectangle_1436" data-name="Rectangle 1436" d="M6.081,0H7.433a6.081,6.081,0,0,1,6.081,6.081v0a6.082,6.082,0,0,1-6.082,6.082H6.081A6.081,6.081,0,0,1,0,6.082v0A6.081,6.081,0,0,1,6.081,0Z" transform="translate(12.163 49.143) rotate(90)" fill="#9ec8ff"/>
    </g>
  </g>
</svg>
