<svg xmlns="http://www.w3.org/2000/svg" width="45.357" height="46.315" viewBox="0 0 45.357 46.315">
  <g id="AI_ML_Capabilities_in_Xamarin" data-name="AI &amp; ML Capabilities in Xamarin" transform="translate(-2.621 -2)">
    <path id="Path_20311" data-name="Path 20311" d="M47.894,45.39,43.826,30.461V8.947A2.323,2.323,0,0,0,41.51,6.632h-6.97a11.533,11.533,0,0,0-18.48,0H9.089A2.323,2.323,0,0,0,6.773,8.947V30.461L2.705,45.39a2.307,2.307,0,0,0,2.231,2.926H45.663a2.307,2.307,0,0,0,2.231-2.926ZM25.3,3.544A10.035,10.035,0,1,1,15.264,13.579,10.035,10.035,0,0,1,25.3,3.544ZM8.317,8.947a.772.772,0,0,1,.772-.772h5.975a11.579,11.579,0,1,0,20.472,0H41.51a.772.772,0,0,1,.772.772V29.789H8.317ZM46.28,46.471a.764.764,0,0,1-.618.3H4.936a.764.764,0,0,1-.618-.3.787.787,0,0,1-.131-.679L8.132,31.333H42.467l3.945,14.458A.787.787,0,0,1,46.28,46.471Z" fill="#037ca4"/>
    <path id="Path_20312" data-name="Path 20312" d="M36.644,52.585A.772.772,0,0,0,35.895,52H23.544a.772.772,0,0,0-.749.585l-.772,3.088a.772.772,0,0,0,.749.959H36.667a.772.772,0,0,0,.749-.959Zm-12.883,2.5.386-1.544H35.292l.386,1.544Z" transform="translate(-4.42 -11.404)" fill="#7e75e4"/>
    <path id="Path_20313" data-name="Path 20313" d="M27,34h7.719v1.544H27Z" transform="translate(-5.56 -7.298)" fill="#7e75e4"/>
    <path id="Path_20314" data-name="Path 20314" d="M12,42h3.088v1.544H12Z" transform="translate(-2.139 -9.123)" fill="#7e75e4"/>
    <path id="Path_20315" data-name="Path 20315" d="M18,42h3.088v1.544H18Z" transform="translate(-3.508 -9.123)" fill="#7e75e4"/>
    <path id="Path_20316" data-name="Path 20316" d="M24,42h3.088v1.544H24Z" transform="translate(-4.876 -9.123)" fill="#7e75e4"/>
    <path id="Path_20317" data-name="Path 20317" d="M36,42h3.088v1.544H36Z" transform="translate(-7.613 -9.123)" fill="#7e75e4"/>
    <path id="Path_20318" data-name="Path 20318" d="M42,42h3.088v1.544H42Z" transform="translate(-8.981 -9.123)" fill="#7e75e4"/>
    <path id="Path_20319" data-name="Path 20319" d="M48,42h3.088v1.544H48Z" transform="translate(-10.35 -9.123)" fill="#7e75e4"/>
    <path id="Path_20320" data-name="Path 20320" d="M30,42h3.088v1.544H30Z" transform="translate(-6.244 -9.123)" fill="#7e75e4"/>
    <path id="Path_20321" data-name="Path 20321" d="M12,46h3.088v1.544H12Z" transform="translate(-2.139 -10.035)" fill="#7e75e4"/>
    <path id="Path_20322" data-name="Path 20322" d="M18,46h3.088v1.544H18Z" transform="translate(-3.508 -10.035)" fill="#7e75e4"/>
    <path id="Path_20323" data-name="Path 20323" d="M24,46h3.088v1.544H24Z" transform="translate(-4.876 -10.035)" fill="#7e75e4"/>
    <path id="Path_20324" data-name="Path 20324" d="M36,46h3.088v1.544H36Z" transform="translate(-7.613 -10.035)" fill="#7e75e4"/>
    <path id="Path_20325" data-name="Path 20325" d="M42,46h3.088v1.544H42Z" transform="translate(-8.981 -10.035)" fill="#7e75e4"/>
    <path id="Path_20326" data-name="Path 20326" d="M48,46h3.088v1.544H48Z" transform="translate(-10.35 -10.035)" fill="#7e75e4"/>
    <path id="Path_20327" data-name="Path 20327" d="M30,46h3.088v1.544H30Z" transform="translate(-6.244 -10.035)" fill="#7e75e4"/>
    <path id="Path_20328" data-name="Path 20328" d="M21.343,16.54l4.632,3.088.857-1.284L23.161,15.9l3.668-2.445-.857-1.284L21.34,15.256a.772.772,0,0,0,0,1.284Z" transform="translate(-4.191 -2.319)" fill="#7e75e4"/>
    <path id="Path_20329" data-name="Path 20329" d="M36.3,19.628l4.632-3.088a.772.772,0,0,0,0-1.284L36.3,12.168l-.857,1.284L39.116,15.9l-3.668,2.445Z" transform="translate(-7.486 -2.319)" fill="#7e75e4"/>
    <path id="Path_20330" data-name="Path 20330" d="M0,0H7.872V1.544H0Z" transform="matrix(0.196, -0.981, 0.981, 0.196, 23.769, 17.273)" fill="#7e75e4"/>
  </g>
</svg>
