<svg id="App_Upgrade_Maintenance" data-name="App Upgrade &amp; Maintenance" xmlns="http://www.w3.org/2000/svg" width="45.612" height="42.571" viewBox="0 0 45.612 42.571">
  <g id="_055---Refresh-Page" data-name="055---Refresh-Page">
    <path id="Shape" d="M26.76,5.52h4.561a.76.76,0,1,0,0-1.52H26.76a.76.76,0,0,0,0,1.52Z" transform="translate(-6.235 -0.959)" fill="#7e75e4"/>
    <path id="Shape-2" data-name="Shape" d="M43.76,5.52h8.362a.76.76,0,1,0,0-1.52H43.76a.76.76,0,1,0,0,1.52Z" transform="translate(-10.311 -0.959)" fill="#7e75e4"/>
    <path id="Shape-3" data-name="Shape" d="M41.811,0H3.8A3.806,3.806,0,0,0,0,3.8V32.689a3.806,3.806,0,0,0,3.8,3.8h6.848a15.171,15.171,0,0,0,24.293,0h6.869a3.806,3.806,0,0,0,3.8-3.8V3.8A3.806,3.806,0,0,0,41.811,0ZM3.8,1.52h38.01A2.281,2.281,0,0,1,44.092,3.8V6.082H1.52V3.8A2.281,2.281,0,0,1,3.8,1.52ZM22.806,41.051a13.752,13.752,0,0,1-11.069-5.638.76.76,0,0,1-.021-.88c.017-.018.036-.038.052-.057a.724.724,0,0,1,.572-.272h.02a.81.81,0,0,1,.632.338,12.087,12.087,0,0,0,1.535,1.72l.014.012a12.117,12.117,0,0,0,16.526,0l.027-.026a12.112,12.112,0,0,0,3.439-5.641.76.76,0,0,0-.733-.963H32.718l-.011-.119,2.053-2.5a.619.619,0,0,0,.043-.059l.94-1.112,3.01,3.672.588-.482-.594.6H36.922a.76.76,0,0,0-.743.6,13.736,13.736,0,0,1-13.373,10.8ZM17.375,36.49h10.9A10.52,10.52,0,0,1,17.375,36.49Zm24.436-1.52H35.958a14.976,14.976,0,0,0,1.571-3.8h1.216a1.533,1.533,0,0,0,1.392-.89,1.6,1.6,0,0,0-.2-1.713l-3.01-3.672a1.535,1.535,0,0,0-2.373,0l-.959,1.165c-.017.022-.034.044-.049.068l-2.005,2.445a1.6,1.6,0,0,0-.2,1.711,1.534,1.534,0,0,0,1.385.889h.03a10.609,10.609,0,0,1-2.509,3.8H15.393a10.623,10.623,0,0,1-1.178-1.325,2.316,2.316,0,0,0-1.816-.96,2.209,2.209,0,0,0-1.757.772c-.017.017-.036.037-.052.056a2.281,2.281,0,0,0-.516,1.457H3.8A2.281,2.281,0,0,1,1.52,32.689V7.6H44.092V32.689a2.281,2.281,0,0,1-2.281,2.281Z" fill="#037ca4"/>
    <ellipse id="Oval" cx="1" cy="0.5" rx="1" ry="0.5" transform="translate(2.806 3.286)" fill="#7e75e4"/>
    <ellipse id="Oval-2" data-name="Oval" cx="1" cy="0.5" rx="1" ry="0.5" transform="translate(5.806 3.286)" fill="#7e75e4"/>
    <ellipse id="Oval-3" data-name="Oval" cx="1" cy="0.5" rx="1" ry="0.5" transform="translate(8.806 3.286)" fill="#7e75e4"/>
    <path id="Shape-4" data-name="Shape" d="M24.484,16a15.124,15.124,0,0,0-14.9,12.163H8.551a1.534,1.534,0,0,0-1.392.889,1.6,1.6,0,0,0,.2,1.714l3.01,3.673a1.537,1.537,0,0,0,2.376,0l3.012-3.674a1.6,1.6,0,0,0,.2-1.711,1.534,1.534,0,0,0-1.392-.89h-.289a10.643,10.643,0,0,1,19.036-2.889A2.3,2.3,0,0,0,35.136,26.3a2.224,2.224,0,0,0,1.842-.819l0,0,0-.005a2.271,2.271,0,0,0,.132-2.715A15.152,15.152,0,0,0,24.484,16Zm11.322,8.514a.712.712,0,0,1-.6.269.8.8,0,0,1-.627-.36,12.163,12.163,0,0,0-22.015,4.348.76.76,0,0,0,.745.912h1.263l.011.12-3.036,3.672L8.538,29.8l-.588.482.6-.6h1.672a.76.76,0,0,0,.751-.641A13.675,13.675,0,0,1,35.852,23.6a.767.767,0,0,1-.043.907l.588.482Z" transform="translate(-1.678 -3.837)" fill="#7e75e4"/>
    <path id="Shape-5" data-name="Shape" d="M4.76,14.52h1.52a.76.76,0,1,0,0-1.52H4.76a.76.76,0,1,0,0,1.52Z" transform="translate(-0.959 -3.117)" fill="#7e75e4"/>
    <path id="Shape-6" data-name="Shape" d="M10.76,14.52H17.6a.76.76,0,0,0,0-1.52H10.76a.76.76,0,1,0,0,1.52Z" transform="translate(-2.398 -3.117)" fill="#7e75e4"/>
    <path id="Shape-7" data-name="Shape" d="M11.6,17.76a.76.76,0,0,0-.76-.76H4.76a.76.76,0,1,0,0,1.52h6.082A.76.76,0,0,0,11.6,17.76Z" transform="translate(-0.959 -4.077)" fill="#7e75e4"/>
    <path id="Shape-8" data-name="Shape" d="M54.281,13H52.76a.76.76,0,1,0,0,1.52h1.52a.76.76,0,0,0,0-1.52Z" transform="translate(-12.469 -3.117)" fill="#7e75e4"/>
    <path id="Shape-9" data-name="Shape" d="M39.76,14.52H46.6a.76.76,0,0,0,0-1.52H39.76a.76.76,0,0,0,0,1.52Z" transform="translate(-9.352 -3.117)" fill="#7e75e4"/>
    <path id="Shape-10" data-name="Shape" d="M52.842,17H46.76a.76.76,0,1,0,0,1.52h6.082a.76.76,0,0,0,0-1.52Z" transform="translate(-11.031 -4.077)" fill="#7e75e4"/>
  </g>
</svg>
