<svg xmlns="http://www.w3.org/2000/svg" width="45.348" height="45.583" viewBox="0 0 45.348 45.583">
  <g id="Cloud_Development_Integration" data-name="Cloud Development &amp; Integration" transform="translate(-1.165 -1)">
    <path id="Path_20334" data-name="Path 20334" d="M4.9,17.262h5.758a.712.712,0,1,0,1.424,0h6.453a.712.712,0,0,0,1.424,0h1.68a4.295,4.295,0,0,0,.28-8.58,4.292,4.292,0,0,0-5.777-4.709A4.295,4.295,0,0,0,7.8,4.787H7.682a3.744,3.744,0,0,0-3.5,5.06A3.744,3.744,0,0,0,4.9,17.262ZM4.885,11.2c.368,0,.874.224,1.173-.309a.711.711,0,0,0-.1-.831A2.315,2.315,0,0,1,7.682,6.21c.632,0,.9.286,1.3-.065a.712.712,0,0,0,.236-.629,2.859,2.859,0,1,1,5.7-.416.713.713,0,0,0,1.123.536A2.862,2.862,0,0,1,20.3,9.166a.712.712,0,0,0,.091.744c.354.44.741.188,1.278.188a2.87,2.87,0,0,1-.021,5.739H4.9A2.316,2.316,0,0,1,2.59,13.523,2.34,2.34,0,0,1,4.885,11.2Z" fill="#037ca4"/>
    <path id="Path_20335" data-name="Path 20335" d="M6.552,35.033V51.163a.712.712,0,0,0,.712.712H19.918a.712.712,0,0,0,.712-.712V46.72a.712.712,0,1,0,0-1.424V39.911a.8.8,0,0,0-.218-.51l-4.865-4.865c-.341-.353-.839-.165-1.956-.216a.7.7,0,0,0-1.334,0H7.264A.712.712,0,0,0,6.552,35.033Zm9.2,1.719L18.2,39.2H15.749ZM7.977,35.745h6.348v4.169a.712.712,0,0,0,.712.712h4.169v9.825H7.977Z" transform="translate(-1.55 -9.448)" fill="#7e75e4"/>
    <path id="Path_20336" data-name="Path 20336" d="M18.214,53.359H11.279a.712.712,0,1,0,0,1.424h6.936a.712.712,0,1,0,0-1.424Z" transform="translate(-2.705 -15.067)" fill="#7e75e4"/>
    <path id="Path_20337" data-name="Path 20337" d="M18.214,49.6H11.279a.712.712,0,1,0,0,1.424h6.936a.712.712,0,1,0,0-1.424Z" transform="translate(-2.705 -13.986)" fill="#7e75e4"/>
    <path id="Path_20338" data-name="Path 20338" d="M18.214,45.842H11.279a.712.712,0,1,0,0,1.424h6.936a.712.712,0,1,0,0-1.424Z" transform="translate(-2.705 -12.904)" fill="#7e75e4"/>
    <path id="Path_20339" data-name="Path 20339" d="M11.279,43.507h2.592a.712.712,0,0,0,0-1.424H11.279a.712.712,0,1,0,0,1.424Z" transform="translate(-2.705 -11.822)" fill="#7e75e4"/>
    <path id="Path_20340" data-name="Path 20340" d="M11.279,39.749h2.592a.712.712,0,0,0,0-1.424H11.279a.712.712,0,1,0,0,1.424Z" transform="translate(-2.705 -10.741)" fill="#7e75e4"/>
    <path id="Path_20341" data-name="Path 20341" d="M55.251,51.874h-.687V40.692a2.325,2.325,0,0,0-2.323-2.322H37.725A2.325,2.325,0,0,0,35.4,40.692V51.874h-.687a.712.712,0,0,0-.712.712,4.739,4.739,0,0,0,4.75,4.75h12.46a4.755,4.755,0,0,0,4.75-4.75A.712.712,0,0,0,55.251,51.874ZM36.827,40.692a.9.9,0,0,1,.9-.9H52.241a.9.9,0,0,1,.9.9V51.874H48.06a.712.712,0,0,0-.712.712v.77h-4.73v-.77a.712.712,0,0,0-.712-.712H36.827V40.692Zm14.386,15.22H38.753A3.311,3.311,0,0,1,35.5,53.3h5.689v.77a.712.712,0,0,0,.712.712H48.06a.712.712,0,0,0,.712-.712V53.3h5.689A3.331,3.331,0,0,1,51.213,55.912Z" transform="translate(-9.45 -10.754)" fill="#037ca4"/>
    <path id="Path_20342" data-name="Path 20342" d="M14.5,31.257a.712.712,0,0,0,1.424,0v-.712a.712.712,0,1,0-1.424,0v.712Z" transform="translate(-3.837 -8.297)" fill="#7e75e4"/>
    <path id="Path_20343" data-name="Path 20343" d="M15.211,27.969a.712.712,0,0,0,.712-.712v-.712a.712.712,0,0,0-1.424,0v.712A.712.712,0,0,0,15.211,27.969Z" transform="translate(-3.837 -7.146)" fill="#7e75e4"/>
    <path id="Path_20344" data-name="Path 20344" d="M33.031,51.351h.712a.712.712,0,0,0,0-1.424h-.712a.712.712,0,1,0,0,1.424Z" transform="translate(-8.965 -14.08)" fill="#7e75e4"/>
    <path id="Path_20345" data-name="Path 20345" d="M29.031,51.351h.712a.712.712,0,1,0,0-1.424h-.712a.712.712,0,0,0,0,1.424Z" transform="translate(-7.814 -14.08)" fill="#7e75e4"/>
    <path id="Path_20346" data-name="Path 20346" d="M58.017,15.994V4.978c0-1.943-2.639-3.466-6.007-3.466S46,3.034,46,4.978V15.994c0,1.943,2.639,3.466,6.007,3.466S58.017,17.937,58.017,15.994Zm-1.424,0c0,.963-1.96,2.041-4.583,2.041s-4.583-1.078-4.583-2.041V12.746a8.329,8.329,0,0,0,4.583,1.205,8.331,8.331,0,0,0,4.583-1.205Zm0-5.508c0,.963-1.96,2.041-4.583,2.041s-4.583-1.078-4.583-2.041V7.239a8.329,8.329,0,0,0,4.583,1.205,8.329,8.329,0,0,0,4.583-1.205ZM52.009,7.02c-2.623,0-4.583-1.078-4.583-2.042s1.96-2.041,4.583-2.041,4.583,1.078,4.583,2.041S54.632,7.02,52.009,7.02Z" transform="translate(-12.903 -0.147)" fill="#7e75e4"/>
    <path id="Path_20347" data-name="Path 20347" d="M36,30.239a.712.712,0,0,0-.712-.712h-.712a.712.712,0,0,0,0,1.424h.712A.712.712,0,0,0,36,30.239Z" transform="translate(-9.41 -8.209)" fill="#037ca4"/>
    <path id="Path_20348" data-name="Path 20348" d="M46.577,29.526a.712.712,0,1,0,0,1.424h.712a.712.712,0,0,0,0-1.424Z" transform="translate(-12.863 -8.209)" fill="#037ca4"/>
    <path id="Path_20349" data-name="Path 20349" d="M50.577,29.526a.712.712,0,0,0,0,1.424h.712a.712.712,0,0,0,0-1.424Z" transform="translate(-14.014 -8.209)" fill="#037ca4"/>
    <path id="Path_20350" data-name="Path 20350" d="M28,30.239a.712.712,0,0,0-.712-.712h-.712a.712.712,0,1,0,0,1.424h.712A.712.712,0,0,0,28,30.239Z" transform="translate(-7.108 -8.209)" fill="#037ca4"/>
    <path id="Path_20351" data-name="Path 20351" d="M32,30.239a.712.712,0,0,0-.712-.712h-.712a.712.712,0,1,0,0,1.424h.712A.712.712,0,0,0,32,30.239Z" transform="translate(-8.259 -8.209)" fill="#037ca4"/>
    <path id="Path_20352" data-name="Path 20352" d="M53.437,28.811v.712a.712.712,0,1,0,1.424,0v-.712a.712.712,0,0,0-1.424,0Z" transform="translate(-15.042 -7.798)" fill="#037ca4"/>
    <path id="Path_20353" data-name="Path 20353" d="M42.577,29.526a.712.712,0,1,0,0,1.424h.712a.712.712,0,0,0,0-1.424Z" transform="translate(-11.712 -8.209)" fill="#037ca4"/>
    <path id="Path_20354" data-name="Path 20354" d="M26.983,27.257v-.712a.712.712,0,0,0-1.424,0v.712a.712.712,0,0,0,1.424,0Z" transform="translate(-7.02 -7.146)" fill="#037ca4"/>
    <path id="Path_20355" data-name="Path 20355" d="M38.577,29.526a.712.712,0,0,0,0,1.424h.712a.712.712,0,0,0,0-1.424Z" transform="translate(-10.561 -8.209)" fill="#037ca4"/>
  </g>
</svg>
