<svg id="Prototyping_Wireframes" data-name="Prototyping, Wireframes" xmlns="http://www.w3.org/2000/svg" width="45.356" height="45.356" viewBox="0 0 45.356 45.356">
  <path id="Path_20301" data-name="Path 20301" d="M292.886,40a.886.886,0,1,0,.886.886A.886.886,0,0,0,292.886,40Zm0,0" transform="translate(-266.133 -36.457)" fill="#7e75e4"/>
  <path id="Path_20302" data-name="Path 20302" d="M336.429,40h-3.543a.886.886,0,1,0,0,1.772h3.543a.886.886,0,0,0,0-1.772Zm0,0" transform="translate(-302.589 -36.457)" fill="#7e75e4"/>
  <path id="Path_20303" data-name="Path 20303" d="M416.429,40h-3.543a.886.886,0,0,0,0,1.772h3.543a.886.886,0,0,0,0-1.772Zm0,0" transform="translate(-375.502 -36.457)" fill="#7e75e4"/>
  <path id="Path_20304" data-name="Path 20304" d="M42.7,0H2.658A2.661,2.661,0,0,0,0,2.658V42.7a2.661,2.661,0,0,0,2.658,2.658H42.7A2.661,2.661,0,0,0,45.356,42.7V2.658A2.661,2.661,0,0,0,42.7,0Zm.886,42.7a.887.887,0,0,1-.886.886H2.658a.887.887,0,0,1-.886-.886V8.859H43.585Zm0-35.612H1.772V2.658a.887.887,0,0,1,.886-.886H42.7a.887.887,0,0,1,.886.886Zm0,0" fill="#037ca4"/>
  <path id="Path_20305" data-name="Path 20305" d="M66.886,153.087H98.777a.886.886,0,0,0,.886-.886v-5.315a.886.886,0,0,0-.886-.886H66.886a.886.886,0,0,0-.886.886V152.2A.886.886,0,0,0,66.886,153.087Zm.886-5.315h30.12v3.543H67.772Zm0,0" transform="translate(-60.153 -133.066)" fill="#7e75e4"/>
  <path id="Path_20306" data-name="Path 20306" d="M66.886,284.946h10.63a.886.886,0,0,0,.886-.886V269.886a.886.886,0,0,0-.886-.886H66.886a.886.886,0,0,0-.886.886V284.06A.886.886,0,0,0,66.886,284.946Zm.886-14.174H76.63v12.4H67.772Zm0,0" transform="translate(-60.153 -245.17)" fill="#7e75e4"/>
  <path id="Path_20307" data-name="Path 20307" d="M262.831,269H246.86a.887.887,0,0,0-.86.884V284.06c0,.005,0,.01,0,.016a.887.887,0,0,0,.885.87h15.946a.886.886,0,0,0,.885-.87c0-.005,0-.01,0-.016V269.886A.888.888,0,0,0,262.831,269Zm-2.33,1.772-5.643,5.016-5.643-5.016Zm-12.73,1.087,5.754,5.114-5.754,5.114Zm1.444,11.315,5.643-5.016,5.643,5.016Zm12.73-1.087-5.754-5.114,5.754-5.114Zm0,0" transform="translate(-224.208 -245.17)" fill="#7e75e4"/>
</svg>
