<svg xmlns="http://www.w3.org/2000/svg" width="45.217" height="45.217" viewBox="0 0 45.217 45.217">
  <g id="Quality_Coding_Debugging" data-name="Quality Coding &amp; Debugging" transform="translate(-2 -2)">
    <path id="Path_20308" data-name="Path 20308" d="M43.449,8.029H41.188V4.261A2.261,2.261,0,0,0,38.927,2H10.29A2.261,2.261,0,0,0,8.029,4.261V8.029H5.768A3.773,3.773,0,0,0,2,11.8V34.405a3.773,3.773,0,0,0,3.768,3.768H18.479L17.914,42.7h-.842A1.507,1.507,0,0,0,15.565,44.2V45.71H14.058v1.507h21.1V45.71H33.652V44.2A1.507,1.507,0,0,0,32.145,42.7H31.3l-.565-4.522H43.449a3.773,3.773,0,0,0,3.768-3.768V11.8A3.773,3.773,0,0,0,43.449,8.029Zm-33.913,0H39.681v18.84a.754.754,0,0,1-.754.754H10.29a.754.754,0,0,1-.754-.754Zm.754-4.522H38.927a.754.754,0,0,1,.754.754V6.522H9.536V4.261A.754.754,0,0,1,10.29,3.507ZM5.768,9.536H8.029V26.869A2.261,2.261,0,0,0,10.29,29.13H38.927a2.261,2.261,0,0,0,2.261-2.261V9.536h2.261A2.261,2.261,0,0,1,45.71,11.8v18.84H3.507V11.8A2.261,2.261,0,0,1,5.768,9.536ZM32.145,45.71H17.072V44.2H32.145ZM29.783,42.7H19.433L20,38.173h9.22Zm13.665-6.029H5.768a2.261,2.261,0,0,1-2.261-2.261V32.145h42.2v2.261A2.261,2.261,0,0,1,43.449,36.666Z" fill="#037ca4"/>
    <rect id="Rectangle_2930" data-name="Rectangle 2930" width="2" height="2" transform="translate(41.608 33.608)" fill="#7e75e4"/>
    <rect id="Rectangle_2931" data-name="Rectangle 2931" width="2" height="1" transform="translate(10.608 4.608)" fill="#7e75e4"/>
    <rect id="Rectangle_2932" data-name="Rectangle 2932" width="2" height="1" transform="translate(13.608 4.608)" fill="#7e75e4"/>
    <rect id="Rectangle_2933" data-name="Rectangle 2933" width="2" height="1" transform="translate(16.608 4.608)" fill="#7e75e4"/>
    <path id="Path_20309" data-name="Path 20309" d="M24.482,18.88l1.066-1.066-1.728-1.728,1.728-1.728-1.066-1.066-2.261,2.261a.754.754,0,0,0,0,1.066Z" transform="translate(-4.928 -2.782)" fill="#7e75e4"/>
    <path id="Path_20310" data-name="Path 20310" d="M38.359,18.88l2.261-2.261a.754.754,0,0,0,0-1.066l-2.261-2.261-1.066,1.066,1.728,1.728-1.728,1.728Z" transform="translate(-8.696 -2.782)" fill="#7e75e4"/>
    <rect id="Rectangle_2934" data-name="Rectangle 2934" width="8.116" height="1.508" transform="translate(22.401 16.792) rotate(-68.193)" fill="#7e75e4"/>
    <rect id="Rectangle_2935" data-name="Rectangle 2935" width="1" height="1" transform="translate(15.608 18.608)" fill="#7e75e4"/>
    <rect id="Rectangle_2936" data-name="Rectangle 2936" width="4" height="1" transform="translate(18.608 18.608)" fill="#7e75e4"/>
    <rect id="Rectangle_2937" data-name="Rectangle 2937" width="3" height="1" transform="translate(16.608 21.608)" fill="#7e75e4"/>
    <rect id="Rectangle_2938" data-name="Rectangle 2938" width="3" height="1" transform="translate(21.608 21.608)" fill="#7e75e4"/>
    <rect id="Rectangle_2939" data-name="Rectangle 2939" width="9" height="2" transform="translate(13.608 24.608)" fill="#7e75e4"/>
  </g>
</svg>
