<svg xmlns="http://www.w3.org/2000/svg" xmlns:xlink="http://www.w3.org/1999/xlink" width="686.015" height="467.507" viewBox="0 0 686.015 467.507">
  <defs>
    <linearGradient id="linear-gradient" x1="0.017" y1="-0.116" x2="0.964" y2="1.179" gradientUnits="objectBoundingBox">
      <stop offset="0" stop-color="#e7effc"/>
      <stop offset="1" stop-color="#9cb5f6"/>
    </linearGradient>
    <linearGradient id="linear-gradient-2" x1="-0.044" y1="0.245" x2="0.998" y2="1.011" xlink:href="#linear-gradient"/>
    <linearGradient id="linear-gradient-3" x1="-0.045" y1="0.192" x2="1.045" y2="0.808" xlink:href="#linear-gradient"/>
    <linearGradient id="linear-gradient-4" x1="-0.114" y1="0.312" x2="1.085" y2="0.747" xlink:href="#linear-gradient"/>
    <linearGradient id="linear-gradient-5" x1="-0.121" y1="0.298" x2="1.121" y2="0.702" xlink:href="#linear-gradient"/>
    <linearGradient id="linear-gradient-6" x1="-0.156" y1="0.341" x2="1.132" y2="0.712" xlink:href="#linear-gradient"/>
    <linearGradient id="linear-gradient-7" x1="-0.179" y1="0.333" x2="1.179" y2="0.667" xlink:href="#linear-gradient"/>
    <linearGradient id="linear-gradient-8" y1="0.5" x2="1" y2="0.5" gradientUnits="objectBoundingBox">
      <stop offset="0" stop-color="#9cb5f6"/>
      <stop offset="1" stop-color="#e7effc"/>
    </linearGradient>
    <linearGradient id="linear-gradient-15" x1="0.492" y1="0.534" x2="0.541" y2="1.1" gradientUnits="objectBoundingBox">
      <stop offset="0" stop-color="#f9c795"/>
      <stop offset="1" stop-color="#fee3c2"/>
    </linearGradient>
    <linearGradient id="linear-gradient-16" x1="1.319" y1="1.19" x2="0.474" y2="0.257" xlink:href="#linear-gradient-15"/>
    <linearGradient id="linear-gradient-17" x1="0.862" y1="0.54" x2="0.168" y2="0.451" xlink:href="#linear-gradient-15"/>
    <linearGradient id="linear-gradient-18" x1="0.629" y1="0.894" x2="0.556" y2="0.743" xlink:href="#linear-gradient-15"/>
  </defs>
  <g id="Group_10790" data-name="Group 10790" transform="translate(-301.021 -148.83)">
    <g id="Group_10777" data-name="Group 10777" transform="translate(375.769 383.119)">
      <path id="Path_17176" data-name="Path 17176" d="M468.231,406.29s-32.518-36.3-126.893-25.409c0,0,25.409,28.131,52.632,31.761Z" transform="translate(-341.338 -186.684)" fill="url(#linear-gradient)"/>
      <g id="Group_10772" data-name="Group 10772" transform="translate(8.167 107.987)">
        <path id="Path_17177" data-name="Path 17177" d="M519.976,411.486S462.806,352.5,345.743,333.443c0,0,36.3,81.621,115.7,111.593h109.8Z" transform="translate(-345.743 -333.443)" fill="url(#linear-gradient-2)"/>
        <g id="Group_10771" data-name="Group 10771" transform="translate(26.769 18.604)">
          <path id="Path_17178" data-name="Path 17178" d="M360.916,344.211s97.1,54.751,143.833,92.714" transform="translate(-359.554 -342.851)" fill="url(#linear-gradient-3)"/>
          <path id="Path_17179" data-name="Path 17179" d="M505.376,438.912a1.366,1.366,0,0,1-.858-.3c-46.111-37.459-142.672-92.037-143.644-92.584a1.362,1.362,0,1,1,1.339-2.371c.971.547,97.735,55.242,144.022,92.842a1.362,1.362,0,0,1-.858,2.418Z" transform="translate(-360.181 -343.477)" fill="#9ab6f4"/>
        </g>
      </g>
      <g id="Group_10774" data-name="Group 10774" transform="translate(69.874 33.576)">
        <path id="Path_17180" data-name="Path 17180" d="M567.93,479.338s-82.73-148.826-188.9-186.03c0,0,30.855,135.212,152.454,189.659Z" transform="translate(-379.026 -293.308)" fill="url(#linear-gradient-4)"/>
        <g id="Group_10773" data-name="Group 10773" transform="translate(26.771 32.214)">
          <path id="Path_17181" data-name="Path 17181" d="M529.865,463.244S448.648,356.79,394.2,311.418" transform="translate(-392.839 -310.056)" fill="url(#linear-gradient-5)"/>
          <path id="Path_17182" data-name="Path 17182" d="M530.494,465.232a1.36,1.36,0,0,1-1.083-.536c-.812-1.062-81.749-106.851-135.457-151.6A1.361,1.361,0,1,1,395.7,311C449.64,355.95,530.76,461.98,531.574,463.044a1.362,1.362,0,0,1-1.081,2.188Z" transform="translate(-393.465 -310.683)" fill="#9ab6f4"/>
        </g>
      </g>
      <g id="Group_10776" data-name="Group 10776" transform="translate(134.305)">
        <path id="Path_17183" data-name="Path 17183" d="M413.778,275.2s22.686,137.933,137.933,219.581l36.3.026S533.562,327.83,413.778,275.2Z" transform="translate(-413.778 -275.198)" fill="url(#linear-gradient-6)"/>
        <g id="Group_10775" data-name="Group 10775" transform="translate(25.862 32.214)">
          <path id="Path_17184" data-name="Path 17184" d="M428.461,293.308s62.616,76.226,126.138,186.03" transform="translate(-427.101 -291.946)" fill="url(#linear-gradient-7)"/>
          <path id="Path_17185" data-name="Path 17185" d="M555.228,481.327a1.36,1.36,0,0,1-1.179-.68C491.307,372.2,428.661,295.56,428.036,294.8a1.361,1.361,0,1,1,2.1-1.728c.627.762,63.413,77.568,126.264,186.212a1.362,1.362,0,0,1-1.177,2.043Z" transform="translate(-427.727 -292.573)" fill="#9ab6f4"/>
        </g>
      </g>
    </g>
    <g id="Group_10784" data-name="Group 10784" transform="translate(665.25 383.143)">
      <path id="Path_17186" data-name="Path 17186" d="M595.448,406.3s32.518-36.3,126.895-25.407c0,0-25.409,28.131-52.634,31.761Z" transform="translate(-413.804 -186.696)" fill="url(#linear-gradient-8)"/>
      <g id="Group_10779" data-name="Group 10779" transform="translate(74.865 107.989)">
        <path id="Path_17187" data-name="Path 17187" d="M589.128,411.5s57.171-58.984,174.233-78.041c0,0-36.3,81.62-115.7,111.593h-109.8Z" transform="translate(-537.855 -333.457)" fill="url(#linear-gradient-8)"/>
        <g id="Group_10778" data-name="Group 10778" transform="translate(52.18 18.604)">
          <path id="Path_17188" data-name="Path 17188" d="M710.566,344.225s-97.1,54.751-143.833,92.712" transform="translate(-565.373 -342.865)" fill="url(#linear-gradient-8)"/>
          <path id="Path_17189" data-name="Path 17189" d="M567.361,438.926a1.352,1.352,0,0,0,.857-.306c46.111-37.457,142.674-92.035,143.644-92.582a1.361,1.361,0,1,0-1.337-2.371c-.972.547-97.735,55.241-144.024,92.842a1.362,1.362,0,0,0,.86,2.418Z" transform="translate(-565.999 -343.491)" fill="#9ab6f4"/>
        </g>
      </g>
      <g id="Group_10781" data-name="Group 10781" transform="translate(49.76 33.578)">
        <path id="Path_17190" data-name="Path 17190" d="M524.314,479.351s82.73-148.824,188.9-186.029c0,0-30.855,135.212-152.454,189.659Z" transform="translate(-524.314 -293.322)" fill="url(#linear-gradient-8)"/>
        <g id="Group_10780" data-name="Group 10780" transform="translate(23.745 32.214)">
          <path id="Path_17191" data-name="Path 17191" d="M537.855,463.258S619.074,356.8,673.521,311.431" transform="translate(-536.495 -310.071)" fill="url(#linear-gradient-8)"/>
          <path id="Path_17192" data-name="Path 17192" d="M538.481,465.246a1.36,1.36,0,0,0,1.083-.536c.812-1.064,81.749-106.851,135.455-151.6a1.362,1.362,0,0,0-1.743-2.093C619.335,355.965,538.213,461.992,537.4,463.058a1.362,1.362,0,0,0,1.081,2.188Z" transform="translate(-537.121 -310.697)" fill="#9ab6f4"/>
        </g>
      </g>
      <g id="Group_10783" data-name="Group 10783">
        <path id="Path_17193" data-name="Path 17193" d="M671.708,275.211S649.023,413.146,533.773,494.794l-36.3.024S551.922,327.845,671.708,275.211Z" transform="translate(-497.475 -275.211)" fill="url(#linear-gradient-8)"/>
        <g id="Group_10782" data-name="Group 10782" transform="translate(19.51 32.216)">
          <path id="Path_17194" data-name="Path 17194" d="M634.869,293.322s-62.614,76.226-126.136,186.029" transform="translate(-507.371 -291.96)" fill="url(#linear-gradient-8)"/>
          <path id="Path_17195" data-name="Path 17195" d="M509.359,481.341a1.363,1.363,0,0,0,1.179-.68c62.74-108.453,125.385-185.087,126.012-185.847a1.362,1.362,0,0,0-2.1-1.73c-.627.764-63.413,77.57-126.264,186.214a1.362,1.362,0,0,0,1.177,2.043Z" transform="translate(-507.998 -292.587)" fill="#9ab6f4"/>
        </g>
      </g>
    </g>
    <rect id="Rectangle_1525" data-name="Rectangle 1525" width="3.63" height="63.523" transform="translate(864.892 480.217)" fill="#f8fbff"/>
    <rect id="Rectangle_1526" data-name="Rectangle 1526" width="3.63" height="63.523" transform="translate(869.429 477.495)" fill="#e7eef7"/>
    <rect id="Rectangle_1527" data-name="Rectangle 1527" width="3.63" height="63.523" transform="translate(873.059 480.217)" fill="#f8fbff"/>
    <rect id="Rectangle_1528" data-name="Rectangle 1528" width="3.63" height="63.523" transform="translate(877.597 480.217)" fill="#e7eef7"/>
    <rect id="Rectangle_1529" data-name="Rectangle 1529" width="3.63" height="63.522" transform="translate(881.227 478.402)" fill="#f8fbff"/>
    <rect id="Rectangle_1530" data-name="Rectangle 1530" width="3.63" height="63.522" transform="translate(891.209 515.608)" fill="#f8fbff"/>
    <path id="Path_17196" data-name="Path 17196" d="M544.922,320.643s86.208-6.463,91.654,18.038S614.8,425.8,619.333,463H537.662S524.051,359.774,544.922,320.643Z" transform="translate(198.371 146.074)" fill="#04759a"/>
    <path id="Path_17197" data-name="Path 17197" d="M541.006,320.643s86.208-6.463,91.653,18.038S610.88,425.8,615.417,463H533.746S520.135,359.774,541.006,320.643Z" transform="translate(195.027 146.074)" fill="#0094c4"/>
    <path id="Path_17198" data-name="Path 17198" d="M605.156,441.717V337.359h25.409v51.726l19.057,21.779v30.854Z" transform="translate(259.736 161.008)" fill="#f36290"/>
    <rect id="Rectangle_1531" data-name="Rectangle 1531" width="23.594" height="15.427" transform="translate(871.245 573.686)" fill="#feebf1"/>
    <path id="Path_17199" data-name="Path 17199" d="M384.16,381.735h0a3.176,3.176,0,0,1-3.176-3.176v-8.167a3.176,3.176,0,0,1,3.176-3.176h0a3.176,3.176,0,0,1,3.176,3.176v8.167A3.176,3.176,0,0,1,384.16,381.735Z" transform="translate(68.29 186.506)" fill="#f36290"/>
    <path id="Path_17200" data-name="Path 17200" d="M401.291,381.735h0a3.176,3.176,0,0,1-3.176-3.176v-8.167a3.176,3.176,0,0,1,3.176-3.176h0a3.176,3.176,0,0,1,3.176,3.176v8.167A3.176,3.176,0,0,1,401.291,381.735Z" transform="translate(82.92 186.506)" fill="#f36290"/>
    <path id="Path_17201" data-name="Path 17201" d="M378.047,371.621h40.837c12.7,0,14.519,11.8,25.409,13.612s13.61,11.343,15.88,27H399.826Z" transform="translate(65.781 190.268)" fill="#fb719c"/>
    <path id="Path_17202" data-name="Path 17202" d="M370.7,414.273s5.445-42.652,13.612-42.652c7.483,0,10.891,14.519,25.409,16.334s18.6,24.477,18.6,24.477Z" transform="translate(59.511 190.268)" fill="#f36290"/>
    <path id="Path_17203" data-name="Path 17203" d="M414.135,379.361c6.747,4.783,10.269,11.406,7.867,14.793s-9.817,2.258-16.562-2.525-10.269-11.4-7.868-14.793S407.388,374.579,414.135,379.361Z" transform="translate(81.811 193.054)" fill="#feebf1"/>
    <g id="Group_10785" data-name="Group 10785" transform="translate(346.113 148.83)">
      <path id="Path_17204" data-name="Path 17204" d="M330.36,201.817a1.521,1.521,0,0,1-1.073-.443c-2.279-2.264-3.526-3.714-3.578-3.775a1.525,1.525,0,0,1,2.316-1.984c.011.013,1.227,1.428,3.411,3.595a1.525,1.525,0,0,1-1.075,2.607Z" transform="translate(-325.342 -109.328)" fill="#0094c4"/>
      <path id="Path_17205" data-name="Path 17205" d="M552.123,496.114a1.524,1.524,0,0,1-1.14-.512,96.437,96.437,0,0,1-6.326-7.939,1.524,1.524,0,1,1,2.483-1.769,92.864,92.864,0,0,0,6.124,7.683,1.524,1.524,0,0,1-1.14,2.536ZM537,472.711a1.522,1.522,0,0,1-1.394-.907,91.97,91.97,0,0,1-3.595-9.5,1.525,1.525,0,0,1,2.907-.921,88.989,88.989,0,0,0,3.474,9.183A1.527,1.527,0,0,1,537,472.711Zm-7.335-26.9a1.526,1.526,0,0,1-1.511-1.337c-.408-3.276-.677-6.673-.8-10.093a1.525,1.525,0,0,1,3.048-.109c.119,3.332.378,6.639.777,9.826a1.526,1.526,0,0,1-1.326,1.7A1.612,1.612,0,0,1,529.664,445.815Zm-.169-27.927a1.415,1.415,0,0,1-.152-.007,1.525,1.525,0,0,1-1.366-1.669c.323-3.256.764-6.623,1.313-10a1.524,1.524,0,1,1,3.009.488c-.538,3.32-.972,6.622-1.289,9.817A1.524,1.524,0,0,1,529.495,417.887Zm5.032-27.506a1.523,1.523,0,0,1-1.478-1.906c.821-3.169,1.741-6.426,2.733-9.684a1.524,1.524,0,1,1,2.916.888c-.981,3.217-1.887,6.433-2.7,9.559A1.524,1.524,0,0,1,534.527,390.381Zm8.528-26.65a1.508,1.508,0,0,1-.536-.1,1.526,1.526,0,0,1-.89-1.965c1.151-3.055,2.39-6.2,3.682-9.348a1.524,1.524,0,1,1,2.82,1.159c-1.281,3.118-2.508,6.237-3.649,9.265A1.525,1.525,0,0,1,543.055,363.732Zm10.891-25.795a1.523,1.523,0,0,1-1.381-2.165c1.374-2.961,2.827-6.005,4.32-9.049a1.524,1.524,0,0,1,2.739,1.34c-1.483,3.028-2.928,6.052-4.292,8.992A1.524,1.524,0,0,1,553.946,337.937Zm12.481-25.042a1.523,1.523,0,0,1-1.346-2.238c1.517-2.868,3.117-5.836,4.75-8.823a1.525,1.525,0,0,1,2.675,1.463c-1.628,2.976-3.22,5.931-4.731,8.786A1.521,1.521,0,0,1,566.427,312.894Zm13.542-24.506a1.525,1.525,0,0,1-1.322-2.282q2.531-4.419,5-8.671a1.525,1.525,0,0,1,2.636,1.533q-2.464,4.238-4.995,8.653A1.523,1.523,0,0,1,579.969,288.388Zm-209.091-21.1c-.057,0-.113,0-.171-.009a61.181,61.181,0,0,1-10.038-2,1.525,1.525,0,0,1,.84-2.933,57.692,57.692,0,0,0,9.533,1.9,1.525,1.525,0,0,1-.165,3.041Zm17.856-1.127a1.524,1.524,0,0,1-.365-3,50.63,50.63,0,0,0,9.137-3.22,1.525,1.525,0,1,1,1.279,2.768,53.878,53.878,0,0,1-9.685,3.411A1.458,1.458,0,0,1,388.734,266.16Zm205.268-2a1.526,1.526,0,0,1-1.339-2.251c1.585-2.928,3.031-5.909,4.3-8.864a1.525,1.525,0,0,1,2.8,1.2c-1.3,3.041-2.79,6.107-4.42,9.116A1.527,1.527,0,0,1,594,264.158Zm-249.418-5.883a1.52,1.52,0,0,1-.751-.2,100.3,100.3,0,0,1-8.553-5.462,1.526,1.526,0,0,1,1.769-2.486,97.044,97.044,0,0,0,8.289,5.3,1.525,1.525,0,0,1-.755,2.851Zm68.554-5.262a1.524,1.524,0,0,1-1-2.679q.971-.837,1.939-1.733c1.776-1.639,3.565-3.324,5.323-5.01a1.525,1.525,0,1,1,2.11,2.2c-1.771,1.7-3.576,3.4-5.364,5.049q-1.007.929-2.017,1.8A1.52,1.52,0,0,1,413.139,253.013Zm190.754-14.934a1.524,1.524,0,0,1-1.491-1.852,84.07,84.07,0,0,0,1.548-9.687,1.525,1.525,0,0,1,3.035.3,87.377,87.377,0,0,1-1.606,10.04A1.524,1.524,0,0,1,603.893,238.079Zm-170.729-4.585a1.523,1.523,0,0,1-1.1-2.579c2.234-2.331,4.464-4.706,6.821-7.259a1.525,1.525,0,1,1,2.241,2.069c-2.369,2.566-4.615,4.954-6.862,7.3A1.521,1.521,0,0,1,433.164,233.494Zm18.891-20.626a1.524,1.524,0,0,1-1.138-2.538l1.53-1.717q2.6-2.92,5.123-5.742a1.524,1.524,0,0,1,2.271,2.034q-2.528,2.817-5.117,5.734l-1.53,1.719A1.521,1.521,0,0,1,452.054,212.868Zm153.175-2.6a1.526,1.526,0,0,1-1.511-1.327,72.853,72.853,0,0,0-1.9-9.593,1.525,1.525,0,1,1,2.944-.794,75.832,75.832,0,0,1,1.984,9.993,1.523,1.523,0,0,1-1.316,1.708A1.4,1.4,0,0,1,605.23,210.267ZM470.917,192.22a1.525,1.525,0,0,1-1.094-2.586c2.5-2.573,4.839-4.885,7.157-7.069a1.525,1.525,0,0,1,2.091,2.219c-2.284,2.152-4.592,4.433-7.06,6.973A1.519,1.519,0,0,1,470.917,192.22Zm125.569-8.345a1.522,1.522,0,0,1-1.328-.773,67.007,67.007,0,0,0-5.423-8.117,1.525,1.525,0,0,1,2.4-1.876,69.945,69.945,0,0,1,5.67,8.49,1.526,1.526,0,0,1-1.324,2.277ZM491.749,173.606a1.525,1.525,0,0,1-.912-2.748c2.716-2.023,5.516-3.947,8.325-5.721a1.525,1.525,0,0,1,1.628,2.579c-2.742,1.732-5.477,3.61-8.13,5.588A1.52,1.52,0,0,1,491.749,173.606Zm86.336-10.54a1.513,1.513,0,0,1-.9-.293,59.107,59.107,0,0,0-8.293-5.078,1.524,1.524,0,1,1,1.37-2.724,62.238,62.238,0,0,1,8.721,5.34,1.524,1.524,0,0,1-.9,2.755Zm-62.29-3.608a1.525,1.525,0,0,1-.629-2.914c2.987-1.35,6.128-2.635,9.335-3.825a1.524,1.524,0,0,1,1.059,2.859c-3.141,1.164-6.216,2.425-9.138,3.745A1.509,1.509,0,0,1,515.8,159.458Zm36.719-7.023a1.493,1.493,0,0,1-.221-.017,51.534,51.534,0,0,0-9.68-.489,1.525,1.525,0,0,1-.134-3.048,54.8,54.8,0,0,1,10.253.521,1.525,1.525,0,0,1-.219,3.033Z" transform="translate(-317.402 -148.83)" fill="#0094c4"/>
      <path id="Path_17206" data-name="Path 17206" d="M463.816,347.369a1.522,1.522,0,0,1-.9-.293c-1.392-1.02-2.768-2.071-4.088-3.124a1.525,1.525,0,1,1,1.9-2.384c1.287,1.027,2.627,2.052,3.986,3.046a1.525,1.525,0,0,1-.9,2.755Z" transform="translate(-211.833 15.489)" fill="#5577e0"/>
    </g>
    <path id="Path_17207" data-name="Path 17207" d="M528.594,510.131a1.524,1.524,0,0,1-.02-3.048,52.187,52.187,0,0,0,9.752-1.452,1.525,1.525,0,0,1,.684,2.972,53.765,53.765,0,0,1-10.4,1.528Zm27.324-7.52a1.525,1.525,0,0,1-.649-2.905,96.812,96.812,0,0,0,8.821-4.713,1.524,1.524,0,0,1,1.572,2.612,99.679,99.679,0,0,1-9.1,4.861A1.518,1.518,0,0,1,555.919,502.611Zm23.724-15.542a1.524,1.524,0,0,1-1-2.675c2.486-2.153,4.937-4.468,7.284-6.884a1.524,1.524,0,1,1,2.188,2.123c-2.408,2.479-4.924,4.856-7.477,7.064A1.512,1.512,0,0,1,579.643,487.069Zm19.143-20.947a1.5,1.5,0,0,1-.9-.295,1.524,1.524,0,0,1-.33-2.13c1.943-2.651,3.845-5.445,5.655-8.306a1.525,1.525,0,1,1,2.577,1.63c-1.847,2.918-3.788,5.772-5.771,8.478A1.522,1.522,0,0,1,598.786,466.122ZM613.4,441.775a1.506,1.506,0,0,1-.671-.156,1.523,1.523,0,0,1-.7-2.039c1.452-2.953,2.864-6.035,4.2-9.159a1.525,1.525,0,0,1,2.8,1.2c-1.357,3.172-2.794,6.3-4.268,9.3A1.522,1.522,0,0,1,613.4,441.775Zm10.659-26.349a1.457,1.457,0,0,1-.467-.074,1.52,1.52,0,0,1-.984-1.917c1.029-3.2,1.978-6.456,2.82-9.674a1.525,1.525,0,1,1,2.95.773c-.857,3.271-1.821,6.58-2.868,9.834A1.524,1.524,0,0,1,624.059,415.426Zm6.574-27.654a1.476,1.476,0,0,1-.237-.019,1.524,1.524,0,0,1-1.27-1.741c.512-3.293.94-6.656,1.268-9.995a1.525,1.525,0,1,1,3.035.3c-.336,3.395-.769,6.815-1.292,10.164A1.524,1.524,0,0,1,630.634,387.772Zm2.182-28.344a1.526,1.526,0,0,1-1.526-1.524v-.36c0-3.183-.078-6.456-.234-9.726a1.525,1.525,0,0,1,1.452-1.594,1.542,1.542,0,0,1,1.594,1.45c.158,3.317.237,6.639.237,9.871v.36A1.524,1.524,0,0,1,632.816,359.427Zm-1.834-28.376a1.524,1.524,0,0,1-1.511-1.335c-.4-3.219-.886-6.585-1.435-10.008a1.525,1.525,0,0,1,3.011-.482c.554,3.456,1.042,6.858,1.45,10.11a1.524,1.524,0,0,1-1.324,1.7A1.69,1.69,0,0,1,630.982,331.052ZM626.2,303.006a1.523,1.523,0,0,1-1.491-1.216c-.693-3.356-1.409-6.661-2.125-9.919a1.525,1.525,0,0,1,2.978-.656c.719,3.27,1.437,6.591,2.132,9.958a1.525,1.525,0,0,1-1.185,1.8A1.479,1.479,0,0,1,626.2,303.006Zm-6.083-27.8a1.524,1.524,0,0,1-1.489-1.2c-.812-3.766-1.487-7.032-2.058-9.986a1.525,1.525,0,0,1,2.994-.58c.567,2.933,1.237,6.179,2.043,9.923a1.523,1.523,0,0,1-1.168,1.811A1.482,1.482,0,0,1,620.118,275.2Zm-4.835-28.029a1.524,1.524,0,0,1-1.515-1.368c-.36-3.5-.562-6.723-.621-9.852l-.007-.421a1.524,1.524,0,0,1,1.5-1.546,1.5,1.5,0,0,1,1.546,1.5l.007.395c.057,3.057.256,6.2.606,9.611a1.527,1.527,0,0,1-1.361,1.672C615.386,247.172,615.334,247.176,615.283,247.176Zm.988-28.315a1.5,1.5,0,0,1-.337-.037A1.524,1.524,0,0,1,614.782,217a41.094,41.094,0,0,1,3.508-9.917,1.525,1.525,0,0,1,2.705,1.407,38.08,38.08,0,0,0-3.239,9.183A1.525,1.525,0,0,1,616.271,218.861Zm53.694-13.071a1.518,1.518,0,0,1-.719-.182c-3.1-1.665-6.139-3.118-9.031-4.32a1.524,1.524,0,1,1,1.172-2.814c2.983,1.238,6.111,2.737,9.3,4.448a1.525,1.525,0,0,1-.721,2.868Zm-36.847-8.037a1.525,1.525,0,0,1-.432-2.987,29.892,29.892,0,0,1,10.6-1,1.524,1.524,0,1,1-.215,3.041,27.01,27.01,0,0,0-9.519.886A1.524,1.524,0,0,1,633.118,197.753Z" transform="translate(193.051 38.296)" fill="#0094c4"/>
    <g id="Group_10786" data-name="Group 10786" transform="translate(561.233 326.832)">
      <path id="Path_17208" data-name="Path 17208" d="M508.523,308.914s-13.623-5.451-24.512,9.976-14.521,39.021-22.688,50.817-6.352,66.246-6.352,66.246,14.519-1.815,22.688-18.149,15.425-24.5,15.425-24.5l9.075-55.354Z" transform="translate(-429.904 -190.915)" fill="#ee9849"/>
      <path id="Path_17209" data-name="Path 17209" d="M475.718,298.588s-.816-4.246,4.539-6.352-3.63-13.612-3.63-13.612-22.389,1.669-13.01,23.068S475.718,298.588,475.718,298.588Z" transform="translate(-424.335 -215.985)" fill="#f36290"/>
      <path id="Path_17210" data-name="Path 17210" d="M486.113,313.079s1.815,1.815-3.63,29.946-15.427,42.652-2.722,57.171,22.686,41.743,18.149,74.411H618.6s-3.63-32.668-13.612-49L585.027,312.171c-5.883-6.747-16.267-9.118-26.316-9.074C558.711,303.1,531.486,324.876,486.113,313.079Z" transform="translate(-413.857 -195.085)" fill="#ee9849"/>
      <path id="Path_17211" data-name="Path 17211" d="M496.5,263.01s.908-17.241,14.519-18.149,28.133,25.409,21.779,39.928-21.779,4.539-21.779,4.539Z" transform="translate(-394.294 -244.839)" fill="#2c3a64"/>
      <path id="Path_17212" data-name="Path 17212" d="M493.07,256.873a10.02,10.02,0,0,1,6.352-2.722c.908,0,12.7,4.537,19.057,19.057s-2.724,13.61-2.724,13.61Z" transform="translate(-397.22 -236.886)" fill="#f9ecdc"/>
      <path id="Path_17213" data-name="Path 17213" d="M475.22,314.923s-18.926-32.156-1.163-50.726c11.758-12.292,29.9-14,44.445-7.327a39.09,39.09,0,0,1,21.8,25.476c6.352,23.594-2.722,36.3-3.63,53.54Z" transform="translate(-419.951 -237.857)" fill="#2c3a64"/>
      <path id="Path_17214" data-name="Path 17214" d="M515.949,285.476s5.445,24.5,14.521,29.039,19.964,3.63,19.964,3.63S527.746,345.37,508.69,345.37s-25.409-17.242-25.409-17.242,9.982.907,15.425-3.63,0-9.076,0-9.076Z" transform="translate(-405.58 -210.134)" fill="url(#linear-gradient-15)"/>
      <path id="Path_17215" data-name="Path 17215" d="M470.555,295.926s22.686,34.485,35.391,35.391,20.871-18.149,20.871-35.391c0,0,7.26-10.889,1.815-18.149s-9.074,4.537-6.352,13.612c0,0-8.167-1.815-12.706-12.7,0,0-19.056,4.537-32.668-5.445C476.907,273.24,480.537,290.482,470.555,295.926Z" transform="translate(-416.448 -220.583)" fill="url(#linear-gradient-16)"/>
      <path id="Path_17216" data-name="Path 17216" d="M468.6,303.452s15.427,21.779,25.409,20.872,17.241-7.26,12.7-14.521-14.536-14.459-17.7-11.767-3.167,7.231-3.167,7.231-9.075-4.537-10.891-8.167S468.6,303.452,468.6,303.452Z" transform="translate(-418.121 -200.885)" fill="#f36290"/>
      <path id="Path_17217" data-name="Path 17217" d="M482.773,327.52s-4.537,33.576-3.628,63.522-1.815,58.077-12.706,62.614-16.334-4.537-21.779-10.889-3.63-23.594,1.815-49.91,19.964-60.8,23.594-73.5c0,0,1.815-18.151,9.982-25.409s11.8-6.352,14.519-3.63,9.075,11.8,8.167,14.519-4.537-.907-6.352,1.815S489.126,329.335,482.773,327.52Z" transform="translate(-441.372 -207.71)" fill="url(#linear-gradient-17)"/>
      <path id="Path_17218" data-name="Path 17218" d="M625.115,423.723c-2.4,6.9-16.588,13.992-34.511,20.4-36.326,12.986-88,23.159-88,23.159-4.537,3.63-28.131.907-29.946-.908s-17.242,3.63-21.779,0,9.982-12.7,19.057-12.7h29.038c24.3-6.624,54.992-24.011,75.293-36.608,13.049-8.095,21.805-14.211,21.805-14.211,4.539-29.039-6.352-34.483-13.612-67.152-4.982-22.413,7.26-37.207,20.872-27.224S634.734,396.054,625.115,423.723Z" transform="translate(-433.982 -193.203)" fill="url(#linear-gradient-18)"/>
      <path id="Path_17219" data-name="Path 17219" d="M567.884,423.723c-2.4,6.9-16.588,13.992-34.511,20.4-8.367-6.153-13.748-19.321-16.334-27.061,13.049-8.095,21.805-14.211,21.805-14.211,4.539-29.039-6.352-34.483-13.612-67.152-4.982-22.413,7.26-37.207,20.872-27.224S577.5,396.054,567.884,423.723Z" transform="translate(-376.75 -193.203)" fill="#ee9849"/>
    </g>
    <rect id="Rectangle_1532" data-name="Rectangle 1532" width="686.015" height="13.612" transform="translate(301.021 602.725)" fill="#e2ebfc"/>
    <g id="Group_10787" data-name="Group 10787" transform="translate(700.295 220.79)">
      <circle id="Ellipse_221" data-name="Ellipse 221" cx="26.997" cy="26.997" r="26.997" transform="translate(-0.273 53.01) rotate(-80.783)" fill="rgba(0,148,196,0.26)"/>
      <path id="Path_17220" data-name="Path 17220" d="M538.7,201.6s-2.7,1.011-3.369-1.011,2.7-7.077,4.38-6.74,4.043,4.946,4.043,7.077c0,2.359-3.706,13.479-8.424,16.511s-10.446,1.685-9.772-1.348,3.032-6.74,4.043-6.4,3.708,3.708,3.708,3.708S539.37,207.662,538.7,201.6Z" transform="translate(-503.773 -175.117)" fill="#0094c4"/>
    </g>
    <g id="Group_10788" data-name="Group 10788" transform="translate(862.169 315.966)">
      <path id="Path_17221" data-name="Path 17221" d="M679.915,243.061V283.9a4.077,4.077,0,0,1-4.084,4.083H607.771a4.077,4.077,0,0,1-4.084-4.083V243.061a4,4,0,0,1,.464-1.887,4.07,4.07,0,0,1,3.621-2.2h68.059a4.061,4.061,0,0,1,3.667,2.3A3.956,3.956,0,0,1,679.915,243.061Z" transform="translate(-603.687 -238.978)" fill="#ff6142"/>
      <path id="Path_17222" data-name="Path 17222" d="M679.284,241.273l-37.7,25.836-37.651-25.936a4.07,4.07,0,0,1,3.621-2.2h68.059A4.061,4.061,0,0,1,679.284,241.273Z" transform="translate(-603.474 -238.978)" fill="#fec5ba"/>
    </g>
    <g id="Group_10789" data-name="Group 10789" transform="translate(367.602 315.966)">
      <path id="Path_17223" data-name="Path 17223" d="M413.159,243.061V283.9a4.077,4.077,0,0,1-4.083,4.083H341.016a4.076,4.076,0,0,1-4.083-4.083V243.061a4.019,4.019,0,0,1,.462-1.887,4.069,4.069,0,0,1,3.621-2.2h68.061a4.058,4.058,0,0,1,3.665,2.3A3.955,3.955,0,0,1,413.159,243.061Z" transform="translate(-336.933 -238.978)" fill="#8659d5"/>
      <path id="Path_17224" data-name="Path 17224" d="M412.529,241.273l-37.7,25.836-37.651-25.936a4.069,4.069,0,0,1,3.621-2.2h68.061A4.058,4.058,0,0,1,412.529,241.273Z" transform="translate(-336.72 -238.978)" fill="#d8c3fe"/>
    </g>
    <path id="Path_17225" data-name="Path 17225" d="M340.375,208.142l-9.669-5.373a.866.866,0,0,0-1.222,1.085l4.324,10.573a.863.863,0,0,1-.206.955l-12.227,11.569a.866.866,0,0,1-1.416-.36L301.1,169.158a.865.865,0,0,1,1.235-1.031l50.578,27.432a.864.864,0,0,1,.182,1.389l-11.7,11.067A.866.866,0,0,1,340.375,208.142Z" transform="translate(0.028 16.388)" fill="rgba(0,148,196,0.2)"/>
    <path id="Path_17226" data-name="Path 17226" d="M618.214,215.3l10.216,4.244a.865.865,0,0,0,1.09-1.216l-5.494-10.015a.865.865,0,0,1,.1-.973l10.837-12.878a.865.865,0,0,1,1.448.195l25.248,54.929a.865.865,0,0,1-1.111,1.163l-53.36-21.521a.866.866,0,0,1-.338-1.361l10.373-12.322A.865.865,0,0,1,618.214,215.3Z" transform="translate(261.006 38.71)" fill="rgba(0,148,196,0.2)"/>
  </g>
</svg>
