<svg xmlns="http://www.w3.org/2000/svg" width="45.357" height="46.427" viewBox="0 0 45.357 46.427">
  <g id="Custom_PHP_development" data-name="Custom PHP development" transform="translate(-0.001)">
    <path id="Path_20413" data-name="Path 20413" d="M45.356,9.948c0-.01,0-.021,0-.032A.965.965,0,0,0,45.34,9.8v0a.934.934,0,0,0-.032-.117L45.3,9.663a.965.965,0,0,0-.046-.1l0-.008a.923.923,0,0,0-.063-.1l-.017-.022a.863.863,0,0,0-.078-.091h0L36.021.266h0a.861.861,0,0,0-.09-.078L35.907.17a.886.886,0,0,0-.1-.063L35.8.1a.991.991,0,0,0-.1-.045L35.673.05a.912.912,0,0,0-.117-.032h0A.963.963,0,0,0,35.441,0H35.41l-.03,0H9.979a.907.907,0,0,0-.907.907V5.533H2.788A2.791,2.791,0,0,0,0,8.321V19.075a2.79,2.79,0,0,0,2.788,2.787H9.072V45.519a.907.907,0,0,0,.907.907H44.45a.907.907,0,0,0,.907-.907V9.979c0-.01,0-.02,0-.03ZM36.286,3.1,42.26,9.072H36.286Zm-25.4,41.515V21.862H12.2a.907.907,0,0,0,0-1.814H2.788a.974.974,0,0,1-.973-.973V8.321a.974.974,0,0,1,.973-.973H24.428a.974.974,0,0,1,.973.973V19.075a.974.974,0,0,1-.973.973h-4.97a.907.907,0,0,0,0,1.815h4.97a2.791,2.791,0,0,0,2.788-2.788V8.321a2.791,2.791,0,0,0-2.788-2.788H10.887V1.814H34.472V9.979a.907.907,0,0,0,.907.907h8.164V44.612Zm0,0" transform="translate(0)" fill="#037ca4"/>
    <g id="Group_13846" data-name="Group 13846" transform="translate(2.209 1.004)">
      <path id="Path_20414" data-name="Path 20414" d="M42.135,101.043H40.722a.706.706,0,0,0-.706.706V107.4a.706.706,0,1,0,1.413,0v-2.119h.706a2.119,2.119,0,1,0,0-4.238Zm0,2.826h-.706v-1.413h.706a.706.706,0,0,1,0,1.413Zm0,0" transform="translate(-36.386 -91.881)" fill="#7e75e4"/>
      <path id="Path_20415" data-name="Path 20415" d="M122.876,107.4a.706.706,0,1,0,1.413,0v-5.651a.706.706,0,0,0-1.413,0v2.119h-1.413v-2.119a.706.706,0,0,0-1.413,0V107.4a.706.706,0,1,0,1.413,0v-2.119h1.413Zm0,0" transform="translate(-110.77 -91.881)" fill="#7e75e4"/>
      <path id="Path_20416" data-name="Path 20416" d="M200.788,108.107a.706.706,0,0,0,.706-.706v-2.119h.706a2.119,2.119,0,0,0,0-4.238h-1.413a.706.706,0,0,0-.706.706V107.4a.706.706,0,0,0,.706.706Zm.706-5.651h.706a.706.706,0,0,1,0,1.413h-.706Zm0,0" transform="translate(-185.151 -91.881)" fill="#7e75e4"/>
    </g>
    <path id="Path_20417" data-name="Path 20417" d="M222,302.833H240.14a.907.907,0,0,0,0-1.814H222a.907.907,0,0,0,0,1.814Zm0,0" transform="translate(-201.042 -273.724)" fill="#7e75e4"/>
    <path id="Path_20418" data-name="Path 20418" d="M158.663,288.374a.907.907,0,0,0,.641-1.549l-2.052-2.052,2.108-2.108a.907.907,0,1,0-1.283-1.283l-2.749,2.749a.908.908,0,0,0,0,1.283l2.694,2.694a.907.907,0,0,0,.641.266Zm0,0" transform="translate(-141.001 -255.626)" fill="#7e75e4"/>
    <path id="Path_20419" data-name="Path 20419" d="M396.768,381.426a.907.907,0,1,0-1.283,1.283l2.052,2.052-2.108,2.107a.907.907,0,1,0,1.283,1.283l2.749-2.749a.907.907,0,0,0,0-1.283Zm0,0" transform="translate(-359.332 -346.598)" fill="#7e75e4"/>
    <path id="Path_20420" data-name="Path 20420" d="M234.7,341.035H222a.907.907,0,0,0,0,1.815h12.7a.907.907,0,0,0,0-1.815Zm0,0" transform="translate(-201.041 -310.111)" fill="#7e75e4"/>
    <path id="Path_20421" data-name="Path 20421" d="M234.7,381.055H222a.907.907,0,1,0,0,1.814h12.7a.907.907,0,1,0,0-1.814Zm0,0" transform="translate(-201.041 -346.502)" fill="#7e75e4"/>
    <path id="Path_20422" data-name="Path 20422" d="M180.116,420.965H161.973a.907.907,0,1,0,0,1.814h18.143a.907.907,0,1,0,0-1.814Zm0,0" transform="translate(-146.46 -382.793)" fill="#7e75e4"/>
    <path id="Path_20423" data-name="Path 20423" d="M165.474,220.725a.959.959,0,0,0-.17-.052.893.893,0,0,0-.355,0,.926.926,0,0,0-.327.135.86.86,0,0,0-.138.113.9.9,0,0,0-.2.295.9.9,0,0,0,0,.694.954.954,0,0,0,.083.157.977.977,0,0,0,.113.138.9.9,0,0,0,.819.248.962.962,0,0,0,.17-.052.9.9,0,0,0,.156-.084.845.845,0,0,0,.138-.112,1.024,1.024,0,0,0,.113-.138.945.945,0,0,0,.084-.157.9.9,0,0,0,.052-.169.915.915,0,0,0,0-.355.9.9,0,0,0-.052-.169.942.942,0,0,0-.084-.157,1.022,1.022,0,0,0-.113-.138.843.843,0,0,0-.138-.112A.9.9,0,0,0,165.474,220.725Zm0,0" transform="translate(-149.328 -200.647)" fill="#7e75e4"/>
  </g>
</svg>
