<svg xmlns="http://www.w3.org/2000/svg" width="30.915" height="46.801" viewBox="0 0 30.915 46.801">
  <g id="PHP_Social_Networking_Applications" data-name="PHP Social Networking Applications" transform="translate(-5517.381 10273)">
    <path id="Path_20451" data-name="Path 20451" d="M49.569,76.477A4.181,4.181,0,1,1,53.75,72.3,4.186,4.186,0,0,1,49.569,76.477Zm0-7.113A2.931,2.931,0,1,0,52.5,72.3,2.936,2.936,0,0,0,49.569,69.365Z" transform="translate(5483.621 -10302.676)" fill="#7e75e4"/>
    <rect id="Rectangle_2963" data-name="Rectangle 2963" width="1.25" height="2.811" transform="translate(5532.37 -10238.649)" fill="#7e75e4"/>
    <rect id="Rectangle_2964" data-name="Rectangle 2964" width="5.777" height="1.249" transform="translate(5538.615 -10230.999)" fill="#7e75e4"/>
    <rect id="Rectangle_2965" data-name="Rectangle 2965" width="5.775" height="1.249" transform="translate(5521.44 -10230.999)" fill="#7e75e4"/>
    <path id="Path_20452" data-name="Path 20452" d="M60.211,31.8H33.465a2.086,2.086,0,0,1-2.084-2.085V23.9a2.085,2.085,0,0,1,2.084-2.084H60.212A2.085,2.085,0,0,1,62.3,23.9V29.72A2.087,2.087,0,0,1,60.211,31.8ZM33.465,23.06a.837.837,0,0,0-.835.836V29.72a.836.836,0,0,0,.835.836H60.212a.836.836,0,0,0,.835-.836V23.9a.836.836,0,0,0-.835-.836Z" transform="translate(5486 -10294.812)" fill="#037ca4"/>
    <path id="Path_20453" data-name="Path 20453" d="M60.211,45.722H33.465a2.085,2.085,0,0,1-2.084-2.083V37.813a2.086,2.086,0,0,1,2.084-2.084H60.212A2.086,2.086,0,0,1,62.3,37.813v5.826A2.086,2.086,0,0,1,60.211,45.722ZM33.465,36.978a.835.835,0,0,0-.835.834v5.826a.836.836,0,0,0,.835.834H60.212a.836.836,0,0,0,.835-.834V37.813a.835.835,0,0,0-.835-.834Z" transform="translate(5486 -10297.175)" fill="#037ca4"/>
    <path id="Path_20454" data-name="Path 20454" d="M60.211,59.264H33.465a2.086,2.086,0,0,1-2.084-2.084V51.355a2.086,2.086,0,0,1,2.084-2.085H60.212A2.086,2.086,0,0,1,62.3,51.355v5.826A2.087,2.087,0,0,1,60.211,59.264ZM33.465,50.52a.835.835,0,0,0-.835.834v5.826a.835.835,0,0,0,.835.834H60.212a.835.835,0,0,0,.835-.834V51.355a.835.835,0,0,0-.835-.834Z" transform="translate(5486 -10299.475)" fill="#037ca4"/>
    <rect id="Rectangle_2966" data-name="Rectangle 2966" width="1.25" height="4.529" transform="translate(5521.284 -10270.346)" fill="#7e75e4"/>
    <rect id="Rectangle_2967" data-name="Rectangle 2967" width="1.249" height="4.529" transform="translate(5524.563 -10270.346)" fill="#7e75e4"/>
    <rect id="Rectangle_2968" data-name="Rectangle 2968" width="1.249" height="4.529" transform="translate(5527.998 -10270.346)" fill="#7e75e4"/>
    <rect id="Rectangle_2969" data-name="Rectangle 2969" width="1.25" height="4.529" transform="translate(5531.276 -10270.346)" fill="#7e75e4"/>
    <rect id="Rectangle_2970" data-name="Rectangle 2970" width="1.25" height="4.528" transform="translate(5521.284 -10258.635)" fill="#7e75e4"/>
    <rect id="Rectangle_2971" data-name="Rectangle 2971" width="1.249" height="4.528" transform="translate(5524.563 -10258.635)" fill="#7e75e4"/>
    <rect id="Rectangle_2972" data-name="Rectangle 2972" width="1.249" height="4.528" transform="translate(5527.998 -10258.635)" fill="#7e75e4"/>
    <rect id="Rectangle_2973" data-name="Rectangle 2973" width="1.25" height="4.528" transform="translate(5531.276 -10258.635)" fill="#7e75e4"/>
    <rect id="Rectangle_2974" data-name="Rectangle 2974" width="1.25" height="4.527" transform="translate(5521.284 -10247.393)" fill="#7e75e4"/>
    <rect id="Rectangle_2975" data-name="Rectangle 2975" width="1.249" height="4.527" transform="translate(5524.563 -10247.393)" fill="#7e75e4"/>
    <rect id="Rectangle_2976" data-name="Rectangle 2976" width="1.249" height="4.527" transform="translate(5527.998 -10247.393)" fill="#7e75e4"/>
    <rect id="Rectangle_2977" data-name="Rectangle 2977" width="1.25" height="4.527" transform="translate(5531.276 -10247.393)" fill="#7e75e4"/>
    <path id="Path_20455" data-name="Path 20455" d="M62.393,29.622a2.175,2.175,0,1,1,2.174-2.175A2.178,2.178,0,0,1,62.393,29.622Zm0-3.1a.926.926,0,1,0,.924.926A.927.927,0,0,0,62.393,26.521Z" transform="translate(5481.103 -10295.399)" fill="#7e75e4"/>
    <path id="Path_20456" data-name="Path 20456" d="M62.393,43.464a2.175,2.175,0,1,1,2.174-2.175A2.178,2.178,0,0,1,62.393,43.464Zm0-3.1a.926.926,0,1,0,.924.926A.927.927,0,0,0,62.393,40.363Z" transform="translate(5481.103 -10297.749)" fill="#7e75e4"/>
    <path id="Path_20457" data-name="Path 20457" d="M62.393,57.3a2.175,2.175,0,1,1,2.174-2.174A2.178,2.178,0,0,1,62.393,57.3Zm0-3.1a.926.926,0,1,0,.924.926A.926.926,0,0,0,62.393,54.2Z" transform="translate(5481.103 -10300.101)" fill="#7e75e4"/>
  </g>
</svg>
