<svg id="PHP_Web_development" data-name="PHP  Web development" xmlns="http://www.w3.org/2000/svg" width="45.757" height="45.757" viewBox="0 0 45.757 45.757">
  <g id="Group_13813" data-name="Group 13813">
    <g id="Group_13812" data-name="Group 13812">
      <path id="Path_20424" data-name="Path 20424" d="M40.991,0H4.766A4.772,4.772,0,0,0,0,4.766V40.991a4.772,4.772,0,0,0,4.766,4.766H40.991a4.772,4.772,0,0,0,4.766-4.766V4.766A4.772,4.772,0,0,0,40.991,0Zm2.86,40.991a2.86,2.86,0,0,1-2.86,2.86H4.766a2.86,2.86,0,0,1-2.86-2.86V4.766a2.86,2.86,0,0,1,2.86-2.86H40.991a2.86,2.86,0,0,1,2.86,2.86V40.991Z" fill="#037ca4"/>
    </g>
  </g>
  <g id="Group_13815" data-name="Group 13815" transform="translate(3.813 7.626)">
    <g id="Group_13814" data-name="Group 13814">
      <rect id="Rectangle_2955" data-name="Rectangle 2955" width="14.299" height="1.907" fill="#7e75e4"/>
    </g>
  </g>
  <g id="Group_13817" data-name="Group 13817" transform="translate(4.766 3.813)">
    <g id="Group_13816" data-name="Group 13816">
      <rect id="Rectangle_2956" data-name="Rectangle 2956" width="1.907" height="1.907" fill="#7e75e4"/>
    </g>
  </g>
  <g id="Group_13819" data-name="Group 13819" transform="translate(8.579 3.813)">
    <g id="Group_13818" data-name="Group 13818">
      <rect id="Rectangle_2957" data-name="Rectangle 2957" width="1.907" height="1.907" fill="#7e75e4"/>
    </g>
  </g>
  <g id="Group_13821" data-name="Group 13821" transform="translate(39.084 3.813)">
    <g id="Group_13820" data-name="Group 13820">
      <rect id="Rectangle_2958" data-name="Rectangle 2958" width="1.907" height="1.907" fill="#7e75e4"/>
    </g>
  </g>
  <g id="Group_13823" data-name="Group 13823" transform="translate(3.813 15.252)">
    <g id="Group_13822" data-name="Group 13822">
      <path id="Path_20425" data-name="Path 20425" d="M78.891,170.667H44.574a1.906,1.906,0,0,0-1.907,1.906v20.972a1.906,1.906,0,0,0,1.907,1.907H78.891a1.906,1.906,0,0,0,1.907-1.907V172.574A1.906,1.906,0,0,0,78.891,170.667Zm0,22.878H44.574V172.574H78.891Z" transform="translate(-42.667 -170.667)" fill="#7e75e4"/>
    </g>
  </g>
  <g id="Group_13825" data-name="Group 13825" transform="translate(14.578 7.626)">
    <g id="Group_13824" data-name="Group 13824">
      <path id="Path_20426" data-name="Path 20426" d="M172.1,85.615a.953.953,0,0,0-1.348,0l-7.626,7.626,1.348,1.348,6.952-6.952,6.923,6.923,1.348-1.348Z" transform="translate(-163.125 -85.336)" fill="#7e75e4"/>
    </g>
  </g>
  <g id="Group_13827" data-name="Group 13827" transform="translate(27.645 7.626)">
    <g id="Group_13826" data-name="Group 13826">
      <rect id="Rectangle_2959" data-name="Rectangle 2959" width="13.346" height="1.907" fill="#7e75e4"/>
    </g>
  </g>
  <g id="Group_13845" data-name="Group 13845" transform="translate(2.776 1.388)">
    <g id="Group_13844" data-name="Group 13844" transform="translate(9.531 20.971)">
      <path id="Path_20427" data-name="Path 20427" d="M112.694,239.184v-2.265q0-.064,0-.129a2.2,2.2,0,0,0-2.265-2.136h-1.51q-.064,0-.129,0a2.2,2.2,0,0,0-2.136,2.265v8.3h1.51v-3.775h2.265q.064,0,.129,0A2.2,2.2,0,0,0,112.694,239.184Zm-1.509.129a.694.694,0,0,1-.756.626h-2.265v-3.02a.691.691,0,0,1,.755-.755h1.51a.691.691,0,0,1,.755.755v2.256A.689.689,0,0,1,111.185,239.314Z" transform="translate(-106.653 -234.653)" fill="#037ca4"/>
      <path id="Path_20428" data-name="Path 20428" d="M326.027,239.184v-2.265q0-.064,0-.129a2.2,2.2,0,0,0-2.265-2.136h-1.51q-.064,0-.129,0a2.2,2.2,0,0,0-2.136,2.265v8.3h1.51v-3.775h2.265q.064,0,.129,0A2.2,2.2,0,0,0,326.027,239.184Zm-1.509.129a.694.694,0,0,1-.756.626H321.5v-3.02a.691.691,0,0,1,.755-.755h1.51a.691.691,0,0,1,.755.755v2.256A.7.7,0,0,1,324.518,239.314Z" transform="translate(-304.886 -234.653)" fill="#037ca4"/>
      <rect id="Rectangle_2960" data-name="Rectangle 2960" width="1.51" height="10.57" transform="translate(7.551 0.001)" fill="#037ca4"/>
    </g>
    <g id="Group_13835" data-name="Group 13835" transform="translate(21.612 20.971)">
      <g id="Group_13834" data-name="Group 13834">
        <rect id="Rectangle_2961" data-name="Rectangle 2961" width="1.51" height="10.57" fill="#037ca4"/>
      </g>
    </g>
  </g>
  <g id="Group_13837" data-name="Group 13837" transform="translate(20.019 26.692)">
    <g id="Group_13836" data-name="Group 13836">
      <rect id="Rectangle_2962" data-name="Rectangle 2962" width="5.72" height="1.907" fill="#037ca4"/>
    </g>
  </g>
</svg>
