<svg xmlns="http://www.w3.org/2000/svg" width="45.92" height="45.871" viewBox="0 0 45.92 45.871">
  <g id="PHP_Real-Time_Collaboration_Tools" data-name="PHP Real-Time Collaboration Tools" transform="translate(0 -0.5)">
    <path id="Path_20458" data-name="Path 20458" d="M35.577,132.632a.672.672,0,1,0,.95-.95L34.9,130.049l1.632-1.632a.672.672,0,1,0-.951-.951l-2.107,2.107a.672.672,0,0,0,0,.951Zm0,0" transform="translate(-30.29 -115.401)" fill="#7e75e4"/>
    <path id="Path_20459" data-name="Path 20459" d="M114.76,130.046l-1.632,1.632a.672.672,0,1,0,.95.951l2.107-2.107a.672.672,0,0,0,0-.95l-2.107-2.107a.672.672,0,1,0-.95.951Zm0,0" transform="translate(-102.803 -115.397)" fill="#7e75e4"/>
    <path id="Path_20460" data-name="Path 20460" d="M76.844,132.777a.672.672,0,0,0,.871-.38l1.655-4.214a.672.672,0,1,0-1.251-.492l-1.656,4.214A.672.672,0,0,0,76.844,132.777Zm0,0" transform="translate(-69.564 -115.396)" fill="#7e75e4"/>
    <path id="Path_20461" data-name="Path 20461" d="M38.188,219.559h4.528a.672.672,0,0,0,0-1.344H38.188a.672.672,0,0,0,0,1.344Zm0,0" transform="translate(-34.151 -198.188)" fill="#7e75e4"/>
    <path id="Path_20462" data-name="Path 20462" d="M124.144,218.215h-7.96a.672.672,0,0,0,0,1.344h7.96a.672.672,0,1,0,0-1.344Zm0,0" transform="translate(-105.152 -198.188)" fill="#7e75e4"/>
    <path id="Path_20463" data-name="Path 20463" d="M38.188,251.165h1.929a.672.672,0,0,0,0-1.344H38.188a.672.672,0,0,0,0,1.344Zm0,0" transform="translate(-34.151 -226.959)" fill="#7e75e4"/>
    <path id="Path_20464" data-name="Path 20464" d="M177.52,249.82a.672.672,0,0,0,0,1.344h1.174a.672.672,0,1,0,0-1.344Zm0,0" transform="translate(-160.987 -226.959)" fill="#7e75e4"/>
    <path id="Path_20465" data-name="Path 20465" d="M92.425,250.493a.672.672,0,0,0-.672-.672H85.984a.672.672,0,0,0,0,1.344h5.769A.672.672,0,0,0,92.425,250.493Zm0,0" transform="translate(-77.661 -226.96)" fill="#7e75e4"/>
    <path id="Path_20466" data-name="Path 20466" d="M213.7,250.493a.672.672,0,0,0,.672.672h2.2a.672.672,0,1,0,0-1.344h-2.2A.672.672,0,0,0,213.7,250.493Zm0,0" transform="translate(-194.537 -226.96)" fill="#7e75e4"/>
    <path id="Path_20467" data-name="Path 20467" d="M166.071,150.622h2.32a.672.672,0,1,0,0-1.344h-2.32a.672.672,0,1,0,0,1.344Zm0,0" transform="translate(-150.565 -135.434)" fill="#7e75e4"/>
    <path id="Path_20468" data-name="Path 20468" d="M220.918,150.622h14.158a.672.672,0,0,0,0-1.344H220.918a.672.672,0,1,0,0,1.344Zm0,0" transform="translate(-200.493 -135.434)" fill="#7e75e4"/>
    <path id="Path_20469" data-name="Path 20469" d="M296.591,182.246h-5.735a.672.672,0,0,0,0,1.344h5.735a.672.672,0,0,0,0-1.344Zm0,0" transform="translate(-264.158 -165.445)" fill="#7e75e4"/>
    <path id="Path_20470" data-name="Path 20470" d="M246.87,182.246H244.9a.672.672,0,0,0,0,1.344h1.971a.672.672,0,0,0,0-1.344Zm0,0" transform="translate(-222.322 -165.445)" fill="#7e75e4"/>
    <path id="Path_20471" data-name="Path 20471" d="M166.071,183.59h4.83a.672.672,0,0,0,0-1.344h-4.83a.672.672,0,1,0,0,1.344Zm0,0" transform="translate(-150.565 -165.445)" fill="#7e75e4"/>
    <path id="Path_20472" data-name="Path 20472" d="M104.446,281.16H99.919a.672.672,0,1,0,0,1.344h4.527a.672.672,0,1,0,0-1.344Zm0,0" transform="translate(-90.345 -255.488)" fill="#7e75e4"/>
    <path id="Path_20473" data-name="Path 20473" d="M41.666,281.16H38.188a.672.672,0,0,0,0,1.344h3.478a.672.672,0,1,0,0-1.344Zm0,0" transform="translate(-34.151 -255.488)" fill="#7e75e4"/>
    <path id="Path_20474" data-name="Path 20474" d="M181.876,281.16h-5.914a.672.672,0,0,0,0,1.344h5.914a.672.672,0,1,0,0-1.344Zm0,0" transform="translate(-159.568 -255.488)" fill="#7e75e4"/>
    <path id="Path_20475" data-name="Path 20475" d="M298.253,242.668h-3.234a.672.672,0,0,0,0,1.344h3.234a.672.672,0,0,0,0-1.344Zm0,0" transform="translate(-267.948 -220.448)" fill="#7e75e4"/>
    <path id="Path_20476" data-name="Path 20476" d="M393.649,244.012h4.565a.672.672,0,1,0,0-1.344h-4.565a.672.672,0,0,0,0,1.344Zm0,0" transform="translate(-357.732 -220.448)" fill="#7e75e4"/>
    <path id="Path_20477" data-name="Path 20477" d="M357.574,242.668h-1.046a.672.672,0,1,0,0,1.344h1.046a.672.672,0,0,0,0-1.344Zm0,0" transform="translate(-323.94 -220.448)" fill="#7e75e4"/>
    <path id="Path_20478" data-name="Path 20478" d="M295.02,325.673h3.234a.672.672,0,1,0,0-1.344H295.02a.672.672,0,0,0,0,1.344Zm0,0" transform="translate(-267.948 -294.785)" fill="#7e75e4"/>
    <path id="Path_20479" data-name="Path 20479" d="M393.649,325.673h4.565a.672.672,0,1,0,0-1.344h-4.565a.672.672,0,0,0,0,1.344Zm0,0" transform="translate(-357.732 -294.785)" fill="#7e75e4"/>
    <path id="Path_20480" data-name="Path 20480" d="M356.532,325.673h1.046a.672.672,0,1,0,0-1.344h-1.046a.672.672,0,1,0,0,1.344Zm0,0" transform="translate(-323.944 -294.785)" fill="#7e75e4"/>
    <path id="Path_20481" data-name="Path 20481" d="M298.253,405.988h-3.234a.672.672,0,1,0,0,1.344h3.234a.672.672,0,1,0,0-1.344Zm0,0" transform="translate(-267.948 -369.12)" fill="#7e75e4"/>
    <path id="Path_20482" data-name="Path 20482" d="M398.214,405.988h-4.565a.672.672,0,1,0,0,1.344h4.565a.672.672,0,1,0,0-1.344Zm0,0" transform="translate(-357.731 -369.12)" fill="#7e75e4"/>
    <path id="Path_20483" data-name="Path 20483" d="M357.574,405.988h-1.046a.672.672,0,1,0,0,1.344h1.046a.672.672,0,1,0,0-1.344Zm0,0" transform="translate(-323.94 -369.12)" fill="#7e75e4"/>
    <path id="Path_20484" data-name="Path 20484" d="M42.963.5H2.958A2.961,2.961,0,0,0,0,3.458V35.976a2.961,2.961,0,0,0,2.958,2.958H5.487a.672.672,0,0,0,0-1.344H2.958a1.615,1.615,0,0,1-1.614-1.614V33.427H25.829v1.158H25.3a1.323,1.323,0,0,0-1.322,1.322V37.59H9.573a.672.672,0,0,0,0,1.344h6.462v2.41H14.005A2.458,2.458,0,0,0,11.551,43.8v1.452a1.121,1.121,0,0,0,1.12,1.12H33.2a1.121,1.121,0,0,0,1.12-1.12V43.8a2.458,2.458,0,0,0-2.455-2.455H29.834v-.85H42.258a1.323,1.323,0,0,0,1.322-1.322v-.316a2.962,2.962,0,0,0,2.289-2.88L45.92,3.458A2.96,2.96,0,0,0,42.963.5ZM25.318,31.827V28.605H42.236v3.221Zm1.854-4.566V25.847H40.381v1.414Zm13.209,5.91v1.414H27.173V33.17Zm-23,5.763h6.6v.239A1.323,1.323,0,0,0,25.3,40.495H28.49v.85H17.378Zm14.485,3.755A1.112,1.112,0,0,1,32.974,43.8v1.228H12.894V43.8a1.112,1.112,0,0,1,1.111-1.111ZM42.236,39.15H25.318V35.929H42.236Zm2.289-3.174a1.614,1.614,0,0,1-.945,1.467V35.906a1.323,1.323,0,0,0-1.322-1.322h-.533V33.427h2.8Zm0-3.893h-.967c.014-.076.022-3.5.022-3.5a1.323,1.323,0,0,0-1.322-1.322h-.533V25.847h.533a1.324,1.324,0,0,0,1.322-1.322V21.259a1.324,1.324,0,0,0-1.322-1.322h-3.8a.672.672,0,0,0,0,1.344h3.774V24.5H25.318V21.281h8.963a.672.672,0,0,0,0-1.344H25.3a1.323,1.323,0,0,0-1.322,1.322v3.266A1.323,1.323,0,0,0,25.3,25.847h.533v1.414H25.3a1.323,1.323,0,0,0-1.322,1.322s.008,3.424.022,3.5H1.344V9.642H44.525Zm0-23.785H1.393V3.458A1.615,1.615,0,0,1,3.007,1.844h39.9a1.615,1.615,0,0,1,1.614,1.614Zm0,0" fill="#037ca4"/>
    <path id="Path_20485" data-name="Path 20485" d="M35.246,29.262a1.972,1.972,0,1,0,1.972,1.972A1.974,1.974,0,0,0,35.246,29.262Zm0,2.6a.628.628,0,1,1,.628-.628A.629.629,0,0,1,35.246,31.862Zm0,0" transform="translate(-30.29 -26.182)" fill="#7e75e4"/>
    <path id="Path_20486" data-name="Path 20486" d="M91.23,29.262A1.972,1.972,0,1,0,93.2,31.234,1.975,1.975,0,0,0,91.23,29.262Zm0,2.6a.628.628,0,1,1,.628-.628A.629.629,0,0,1,91.23,31.862Zm0,0" transform="translate(-81.253 -26.182)" fill="#7e75e4"/>
    <path id="Path_20487" data-name="Path 20487" d="M147.218,29.262a1.972,1.972,0,1,0,1.972,1.972A1.974,1.974,0,0,0,147.218,29.262Zm0,2.6a.628.628,0,1,1,.628-.628A.629.629,0,0,1,147.218,31.862Zm0,0" transform="translate(-132.219 -26.182)" fill="#7e75e4"/>
  </g>
</svg>
