<svg xmlns="http://www.w3.org/2000/svg" xmlns:xlink="http://www.w3.org/1999/xlink" width="620.24" height="348.189" viewBox="0 0 620.24 348.189">
  <defs>
    <clipPath id="clip-path">
      <path id="Path_19829" data-name="Path 19829" d="M960.776,411.844S935.437,378.4,947.538,338.3s43.183-70.744,33.155-117.144c-11.906-55.1,15.821-100.127,65.343-95.569,89.224,8.215,142.2-52.485,172.474-58.734,89.689-18.521,106.049,49.216,154.456,55.817,104.473,14.245,136.762,59.833,133.023,147.272-1.227,28.767,78.769,86.365,32.838,141.9Z" transform="translate(-944.264 -63.656)" fill="none"/>
    </clipPath>
  </defs>
  <g id="Backed_Developer_img" data-name="Backed Developer img" transform="translate(-944.264 -63.656)">
    <g id="Group_13663" data-name="Group 13663" transform="translate(944.264 63.656)">
      <path id="Path_19820" data-name="Path 19820" d="M960.776,411.844S935.437,378.4,947.538,338.3s43.183-70.744,33.155-117.144c-11.906-55.1,15.975-101.566,65.343-95.569,82.723,10.048,142.2-52.485,172.474-58.734,89.689-18.521,106.049,49.216,154.456,55.817,104.473,14.245,136.762,59.833,133.023,147.272-1.227,28.767,78.769,86.365,32.838,141.9Z" transform="translate(-944.264 -63.656)" fill="#282830"/>
      <g id="Group_13662" data-name="Group 13662">
        <g id="Group_13661" data-name="Group 13661" clip-path="url(#clip-path)">
          <path id="Path_19821" data-name="Path 19821" d="M1142.425,157.094c-16.528-12.452-26.333-23.8-30.312-28.854V50.381h-4.169V128.24c-3.979,5.055-13.783,16.4-30.313,28.854h24.076v0a8.136,8.136,0,0,0,16.271,0v0Z" transform="translate(-855.219 -72.519)" fill="#fff"/>
          <path id="Path_19822" data-name="Path 19822" d="M1187.927,136.456c-16.528-12.452-26.332-23.8-30.311-28.852V41.921h-4.171V107.6c-3.978,5.053-13.781,16.4-30.312,28.852h24.076a8.136,8.136,0,0,0,16.272,0h24.446Z" transform="translate(-824.838 -78.167)" fill="#fff"/>
          <path id="Path_19823" data-name="Path 19823" d="M948.294,60.216v124.5H1072.8V60.216ZM1054.178,166.1H966.915V78.839h87.262Z" transform="translate(-941.573 -65.952)" fill="#3f3f43"/>
          <path id="Path_19824" data-name="Path 19824" d="M948.294,150.107V274.614H1072.8V150.107Zm105.884,105.884H966.915V168.728h87.262Z" transform="translate(-941.573 -5.935)" fill="#3f3f43"/>
          <path id="Path_19825" data-name="Path 19825" d="M948.294,240V364.5H1072.8V240Zm105.884,105.884H966.915V258.619h87.262Z" transform="translate(-941.573 54.083)" fill="#3f3f43"/>
          <g id="Group_13658" data-name="Group 13658" transform="translate(106.163 226.914)">
            <path id="Path_19826" data-name="Path 19826" d="M1146.911,256.4c-2.088-3.981-16.884-17.069-26.129-15.866-7.591.989-26.449,17.087-32.656,22.822,2.283-4.436,7.2-14.917,9.441-19.275,5.23-10.178,10.818-33.075,10.353-32.626-8.253,7.925-15.331,17.264-19.087,28.174a93.482,93.482,0,0,0-2.556,9.873,57.35,57.35,0,0,0-2.292-11.333c-2.3-7.209-6.571-13.123-11.333-18.9-5.657-6.862-11.379-13.658-18.289-19.307a.922.922,0,0,0-1.439,1.112c7.51,15.563,15.1,31.321,19.075,48.224.063.265.112.534.17.8-2.07-5.185-4.878-10.35-8.794-13.943-10.458-9.592-33.89-11.575-41.74-9.392-.822.228,22.624,5.115,35.194,16.355,4.523,4.041,13.3,22.949,13.983,24.151-1.884-2.33-14.51-16.86-21.046-17.956-25.377-4.254-42.085,12.881-41.84,13.283-.042.579,20.726-5.8,39.479-3.177,14.791,2.07,20.506,13.081,28.991,19.592a21.269,21.269,0,0,0,4.931,8.9.905.905,0,0,0,1.538-.562.943.943,0,0,0,1.022-.6c.39-1.019.717-2.065,1.006-3.124a83.963,83.963,0,0,1,56.177-9.714.926.926,0,0,0,.894-1.533,31.415,31.415,0,0,0-30.183-9.447,68.133,68.133,0,0,0-23.993,11.22,29.669,29.669,0,0,1,4.885-6.781C1124.579,236.773,1147.342,257.218,1146.911,256.4Z" transform="translate(-1007.923 -199.722)" fill="#e7dcd3"/>
            <path id="Path_19827" data-name="Path 19827" d="M1079.458,290.706h-33.964l-9.762-45.615h53.488Z" transform="translate(-989.357 -169.43)" fill="#263238"/>
            <path id="Path_19828" data-name="Path 19828" d="M1054.23,290.706h-8.736l-9.762-45.615h8.583Z" transform="translate(-989.357 -169.43)" fill="#1c2a31"/>
          </g>
          <g id="Group_13659" data-name="Group 13659" transform="translate(407.321 249.235)">
            <rect id="Rectangle_2864" data-name="Rectangle 2864" width="246.106" height="41.799" fill="#2f2f37"/>
            <rect id="Rectangle_2865" data-name="Rectangle 2865" width="225.83" height="29.562" transform="translate(10.136 6.119)" fill="#3d3d46"/>
            <rect id="Rectangle_2866" data-name="Rectangle 2866" width="51.035" height="4.417" transform="translate(25.796 18.577)" fill="rgba(0,0,0,0.26)"/>
            <rect id="Rectangle_2867" data-name="Rectangle 2867" width="51.033" height="4.417" transform="translate(97.677 18.577)" fill="rgba(0,0,0,0.26)"/>
            <rect id="Rectangle_2868" data-name="Rectangle 2868" width="51.033" height="4.417" transform="translate(169.558 18.577)" fill="rgba(0,0,0,0.26)"/>
          </g>
          <g id="Group_13660" data-name="Group 13660" transform="translate(407.321 299.973)">
            <rect id="Rectangle_2869" data-name="Rectangle 2869" width="246.106" height="41.798" fill="#2f2f37"/>
            <rect id="Rectangle_2870" data-name="Rectangle 2870" width="225.83" height="29.562" transform="translate(10.136 6.119)" fill="#3d3d46"/>
            <rect id="Rectangle_2871" data-name="Rectangle 2871" width="51.035" height="4.418" transform="translate(25.796 18.576)" fill="rgba(0,0,0,0.26)"/>
            <rect id="Rectangle_2872" data-name="Rectangle 2872" width="51.033" height="4.418" transform="translate(97.677 18.576)" fill="rgba(0,0,0,0.26)"/>
            <rect id="Rectangle_2873" data-name="Rectangle 2873" width="51.033" height="4.418" transform="translate(169.558 18.576)" fill="rgba(0,0,0,0.26)"/>
          </g>
        </g>
      </g>
    </g>
    <g id="Group_13665" data-name="Group 13665" transform="translate(965.226 245.431)">
      <g id="Group_13664" data-name="Group 13664" transform="translate(28.363 47.801)">
        <path id="Path_19830" data-name="Path 19830" d="M999.748,271.525a4.605,4.605,0,1,0,4.606-4.6A4.6,4.6,0,0,0,999.748,271.525Z" transform="translate(-956.544 -157.517)" fill="#ebebeb"/>
        <path id="Path_19831" data-name="Path 19831" d="M987.578,271.525a4.6,4.6,0,1,0,4.6-4.6A4.6,4.6,0,0,0,987.578,271.525Z" transform="translate(-964.669 -157.517)" fill="#ebebeb"/>
        <path id="Path_19832" data-name="Path 19832" d="M975.407,271.525a4.605,4.605,0,1,0,4.6-4.6A4.6,4.6,0,0,0,975.407,271.525Z" transform="translate(-972.795 -157.517)" fill="#ebebeb"/>
        <rect id="Rectangle_2874" data-name="Rectangle 2874" width="10.233" height="111.535" transform="translate(32.63 111.535) rotate(180)" fill="#919191"/>
        <rect id="Rectangle_2875" data-name="Rectangle 2875" width="18.156" height="17.652" transform="translate(36.592 51.338) rotate(180)" fill="#434348"/>
        <rect id="Rectangle_2876" data-name="Rectangle 2876" width="13.687" height="17.652" transform="translate(34.356 58.16) rotate(180)" fill="#434348"/>
        <path id="Path_19833" data-name="Path 19833" d="M973.841,270.3h55.026a6.141,6.141,0,0,0-6.14-6.142H979.98a6.14,6.14,0,0,0-6.139,6.142Z" transform="translate(-973.841 -159.361)" fill="#434348"/>
      </g>
      <path id="Path_19834" data-name="Path 19834" d="M959.721,172.655l.68,4.026L973.046,254.1h55.869l-12.094-74.273a8.621,8.621,0,0,0-8.487-7.174Z" transform="translate(-954.905 -172.655)" fill="#434348"/>
      <path id="Path_19835" data-name="Path 19835" d="M960.129,175.069l12.644,77.422h52.752l-11.412-70.264a8.6,8.6,0,0,0-8.487-7.158Z" transform="translate(-954.633 -171.043)" fill="#919191"/>
      <path id="Path_19836" data-name="Path 19836" d="M969.505,255.673l10.251-1.568-12.578-77.12a5.212,5.212,0,0,0-5.136-4.331h0a5.21,5.21,0,0,0-5.133,6.09Z" transform="translate(-956.833 -172.655)" fill="#434348"/>
      <path id="Path_19837" data-name="Path 19837" d="M1051.907,229.606H986.772a4.7,4.7,0,0,1-4.7-4.7h0a4.7,4.7,0,0,1,4.7-4.7h65.134a4.7,4.7,0,0,1,4.7,4.7h0A4.7,4.7,0,0,1,1051.907,229.606Z" transform="translate(-939.982 -140.906)" fill="#434348"/>
      <path id="Path_19838" data-name="Path 19838" d="M1006.673,229.606H968.56a4.7,4.7,0,0,1-4.7-4.7h0a4.7,4.7,0,0,1,4.7-4.7h38.113a4.7,4.7,0,0,1,4.7,4.7h0A4.7,4.7,0,0,1,1006.673,229.606Z" transform="translate(-952.141 -140.906)" fill="#ebebeb"/>
      <path id="Path_19839" data-name="Path 19839" d="M968.134,183.418h35.708a1.288,1.288,0,0,0,1.286-1.286h0a1.284,1.284,0,0,0-1.286-1.284H968.134a1.283,1.283,0,0,0-1.286,1.284h0A1.286,1.286,0,0,0,968.134,183.418Z" transform="translate(-950.147 -167.185)" fill="#f8f8f8"/>
      <path id="Path_19840" data-name="Path 19840" d="M970.274,193.393h35.708a1.284,1.284,0,0,0,1.286-1.282h0a1.287,1.287,0,0,0-1.286-1.287H970.274a1.285,1.285,0,0,0-1.284,1.287h0A1.282,1.282,0,0,0,970.274,193.393Z" transform="translate(-948.717 -160.525)" fill="#f8f8f8"/>
      <path id="Path_19841" data-name="Path 19841" d="M972.415,203.37h35.708a1.285,1.285,0,0,0,1.286-1.286h0a1.285,1.285,0,0,0-1.286-1.284H972.415a1.285,1.285,0,0,0-1.284,1.284h0A1.285,1.285,0,0,0,972.415,203.37Z" transform="translate(-947.287 -153.863)" fill="#f8f8f8"/>
    </g>
    <g id="Group_13669" data-name="Group 13669" transform="translate(1081.85 193.475)">
      <path id="Path_19842" data-name="Path 19842" d="M1050.322,217.161a1.846,1.846,0,0,0,1.621-2.728L1032.887,179.4l25.169-32.558,17.339,13.014a1.848,1.848,0,0,0,2.218-2.957L1058.818,142.8a1.851,1.851,0,0,0-2.572.347l-27.018,34.951a1.847,1.847,0,0,0-.162,2.013L1048.7,216.2A1.849,1.849,0,0,0,1050.322,217.161Z" transform="translate(-1025.38 -140.882)" fill="#1f3445"/>
      <g id="Group_13666" data-name="Group 13666" transform="translate(44.82 11.959)">
        <path id="Path_19843" data-name="Path 19843" d="M1058.867,162.182l8.8-7.893-3.277-3.652a5.909,5.909,0,0,0-8.347-.454h0a5.911,5.911,0,0,0-.452,8.347Z" transform="translate(-1053.35 -148.672)" fill="#0c1540"/>
        <path id="Path_19844" data-name="Path 19844" d="M1083.907,161.194l-19.6,17.576-.043-.043-.3-.325-6.954-7.763a13.17,13.17,0,0,1-.662-16.8c.175-.235.367-.455.572-.692a13.15,13.15,0,0,1,19.677-.1Z" transform="translate(-1053.642 -148.663)" fill="#3580e9"/>
        <path id="Path_19845" data-name="Path 19845" d="M1077.879,163.316c.89-.624,1.764-1.269,2.6-1.975l-6.887-7.665a13.133,13.133,0,0,0-17.015-2.206c-.205.237-.4.455-.574.692a13.171,13.171,0,0,1,14.882,3.352Z" transform="translate(-1052.068 -148.252)" fill="#0e56bb"/>
        <path id="Path_19846" data-name="Path 19846" d="M1060.164,173.939c1.376,1.533,6.879-1.159,12.289-6.014s8.682-10.034,7.306-11.569c-1.005-1.121-4.208.013-7.963,2.592a44.425,44.425,0,0,0-8.2,7.353C1060.633,169.758,1059.158,172.818,1060.164,173.939Z" transform="translate(-1049.497 -143.829)" fill="#1f3445"/>
        <path id="Path_19847" data-name="Path 19847" d="M1062.1,165.091a5.516,5.516,0,0,0,8.2-7.353,44.425,44.425,0,0,0-8.2,7.353Z" transform="translate(-1047.996 -142.619)" fill="#f9c201"/>
      </g>
      <g id="Group_13667" data-name="Group 13667" transform="translate(28.938 0)">
        <circle id="Ellipse_403" data-name="Ellipse 403" cx="3.391" cy="3.391" r="3.391" fill="#6f8fe4"/>
        <path id="Path_19848" data-name="Path 19848" d="M1044.986,144.313a1.944,1.944,0,1,1,1.944,1.943A1.946,1.946,0,0,1,1044.986,144.313Z" transform="translate(-1043.539 -140.922)" fill="#2647c8"/>
      </g>
      <g id="Group_13668" data-name="Group 13668" transform="translate(2.823 35.522)">
        <path id="Path_19849" data-name="Path 19849" d="M1028.459,166.191a3.391,3.391,0,1,1,3.392,3.39A3.391,3.391,0,0,1,1028.459,166.191Z" transform="translate(-1028.459 -162.801)" fill="#6f8fe4"/>
        <path id="Path_19850" data-name="Path 19850" d="M1029.327,165.613a1.944,1.944,0,1,1,1.945,1.943A1.943,1.943,0,0,1,1029.327,165.613Z" transform="translate(-1027.879 -162.222)" fill="#2647c8"/>
      </g>
      <path id="Path_19851" data-name="Path 19851" d="M1026.766,193.79H1074.8a7.919,7.919,0,0,0-7.92-7.918h-32.194a7.919,7.919,0,0,0-7.918,7.918Z" transform="translate(-1026.766 -111.875)" fill="#697182"/>
    </g>
    <g id="Group_13671" data-name="Group 13671" transform="translate(1423.67 180.901)">
      <path id="Path_19852" data-name="Path 19852" d="M1297.285,208.3a17.111,17.111,0,0,1-3.38-2.787c-1.481-1.5-3.807-3.946-3.781-6.239.023-1.888,1.983-2.31,3.29-1.194,1.161.991,1.658,2.5,2.572,3.674a11.575,11.575,0,0,0,4.783,3.339c2.543-3.621,2.96-8.6,2.106-12.959-.987-5.031-4.308-12.2-9.274-18.9a26.466,26.466,0,0,1-2.292,4.671c-.935,1.553-2.436,4.509-4.226,5.141-1.9.672-2.281-1.084-2-2.51a.506.506,0,0,1,.053-.227l0,0c.033-.128.07-.253.113-.375a.489.489,0,0,1,.214-.252c1.037-2.008,2.24-3.932,3.147-6a32.188,32.188,0,0,0,1.519-4.711,44.56,44.56,0,0,0-15.394-11.65,56.282,56.282,0,0,1,2.748,7.65c.771,2.481,2.809,7.761.919,10.2a1.986,1.986,0,0,1-2.39.64c-1.323-.742-1.162-3.455-1.184-4.671a26.527,26.527,0,0,0-1.037-8.442,28.02,28.02,0,0,0-3.705-6.913,24.74,24.74,0,0,0-11.374-.068,6.56,6.56,0,0,1,2.285,3.761c.219,1.372-.62,4.533-2.421,4.639-2.368.143-2.535-5.363-2.823-7.528a30.955,30.955,0,0,0-6.492,3.27,28.226,28.226,0,0,0-8.735,9.247.5.5,0,0,1,.087.225c.765,6.019,8.452,8.1,13.028,10.426,1.416.72,6.742,3.21,6.055,5.36-.364,1.136-2.263,1.139-3.16.976-2.291-.424-4.351-2.255-6.134-3.639-4.113-3.2-8.177-6.274-11.579-10.138-3.762,8.052-4.621,17.322-4.486,24.181a.516.516,0,0,1,.41,0,18.2,18.2,0,0,0,8.569,1.349,23.6,23.6,0,0,1,5.54-.33c1.546.225,3.957,2.113,2.225,3.654-1.481,1.316-4.783,1-6.592.764a31.582,31.582,0,0,1-10.066-3.209c.108,2.008.292,3.741.5,5.045a24.787,24.787,0,0,0,10.725,16.55,26.073,26.073,0,0,0,6.063,2.94,29.085,29.085,0,0,0,9.112-12.934c.734-2.156,2.268-8.113,5.335-7.906,1.371.092,2.315,1.764,2.573,2.948.442,2.02-.782,4.039-1.891,5.613-1.634,2.313-3.429,4.481-5.021,6.831-1.544,2.276-3.145,4.5-4.828,6.677a27.537,27.537,0,0,0,11.687-.939c5.9-1.826,12.079-7.956,8.812-14.267C1283.835,210.683,1291.628,211.63,1297.285,208.3Zm-52.055-16.753a1.931,1.931,0,0,1-.265.042.485.485,0,0,1-.732.068c-.085-.082-.163-.172-.242-.262a3.28,3.28,0,0,1-1.207-1.941.455.455,0,0,1,.066-.4,5.7,5.7,0,0,1-.147-1.161c-.011-.922.422-1.965,1.521-1.771a3.408,3.408,0,0,1,2.582,2.738A2.55,2.55,0,0,1,1245.23,191.548Zm38.547,1.481a1.7,1.7,0,0,1-2.545.213,3.038,3.038,0,0,1-.769-3.059.447.447,0,0,1,.307-.322c.015-.007.025-.017.04-.023a3.025,3.025,0,0,1,3.025.277A2.069,2.069,0,0,1,1283.777,193.029Z" transform="translate(-1230.002 -119.857)" fill="#9cd499"/>
      <path id="Path_19853" data-name="Path 19853" d="M1324.952,187.614a41.523,41.523,0,0,0,9.949,2.423c1.876-6.489,1.584-13.545.865-20.3a28.238,28.238,0,0,1-8.253,6.064c-2.72,1.269-7.391,3.409-9.819.58a.5.5,0,0,1,0-.7c2.632-2.171,6.135-1.958,9.247-2.927a18.027,18.027,0,0,0,8.515-5.74c-.068-.564-.138-1.122-.207-1.678-.627-5-1.5-9.951-2.488-14.882-.043.09-.09.187-.135.279-.42.861-1.222,2.683-2.348,2.867-1.051.168-1.439-1.069-1.228-1.889.324-1.244,1.526-2.248,2.018-3.455.3-.724.557-1.464.78-2.211-.842-3.919-1.739-7.825-2.636-11.727a.509.509,0,0,0-.61-.345c-3.877.532-7.793,1.077-11.7,1.716-4.256,4.182-7.284,9.112-7.783,15.242-.142,1.744.952,10.878-3.214,9.759-4.4-1.182-2.324-9.4-1.471-12.132a39.552,39.552,0,0,1,6.224-11.752c-8.865,1.748-17.554,4.249-25.519,8.5-3,6.264-2.585,12.758,1.3,18.89.849,1.339,5.773,7.578,1.792,8.27-3.347.582-5.962-6-6.527-8.445-.839-3.646-.347-7.421-.095-11.107a24.05,24.05,0,0,1,1.239-6.337c-.093.057-.192.1-.283.16-6.007,3.577-11.714,8.2-13.555,15.253a26.4,26.4,0,0,0-.565,9.547,45.213,45.213,0,0,0,5.132,6.387c1.981,2,4.262,2.893,6.549,4.409,1.628,1.076,4.411,4.474,2,6.225-1.938,1.408-5.572-.315-7.425-1.089-.757-.315-1.494-.654-2.221-1.007-.3,19.072,16.315,9.2,16.313,9.291-.123,17.464,17.691,17.616,28.659,13.536-1.1-.208-2.2-.412-3.31-.6-2.183-.359-4.413-.485-6.579-.914-2.36-.472-5.648-1.948-5.163-4.966.417-2.6,3.8-.5,5.036.185,4.264,2.355,9.252,4.519,14.219,4.266.527-.315,1.047-.644,1.554-1a30.876,30.876,0,0,0,9.224-10.291,86.9,86.9,0,0,1-12.636-1.139c-3.032-.525-7.836-1.334-9.287-4.5a.505.505,0,0,1,.428-.747,19.2,19.2,0,0,1,10.33,2.381,20.08,20.08,0,0,0,11.994,2.363,28.787,28.787,0,0,0,1.282-3.132c.021-.065.04-.13.058-.193a42.233,42.233,0,0,1-9.916-2.428C1324.1,188.346,1324.355,187.388,1324.952,187.614Zm-6.559-35.845a.388.388,0,0,1,.229-.32,1.915,1.915,0,0,1,1.691-1.586c2.318-.355,3.934,2.376,2,3.964a3.024,3.024,0,0,1-2.783.657C1318.37,154.078,1318.232,152.828,1318.393,151.769Zm-21.445,46.8a1.848,1.848,0,0,1-2.392.12.426.426,0,0,1,.1-.73,2.676,2.676,0,0,1,.664-1.789,1.409,1.409,0,0,1,2.219.285A1.683,1.683,0,0,1,1296.949,198.567Zm2-37.489c-.19,1.164-.749,2.877-1.9,3.445-1.389.679-1.955-1.049-2.116-2.081a.622.622,0,0,1,.01-.217,6.321,6.321,0,0,1-.769-3.6c.229-1.763,1.983-2.216,3.416-1.381A3.593,3.593,0,0,1,1298.945,161.078Zm13.12,18.52a2.128,2.128,0,0,1-2.43.422,2.44,2.44,0,0,1-1.341-2.668.552.552,0,0,1,.76-.427,1.663,1.663,0,0,1,2.52-.242C1312.308,177.381,1312.8,178.735,1312.065,179.6Z" transform="translate(-1207.352 -133.961)" fill="#9cd499"/>
      <path id="Path_19854" data-name="Path 19854" d="M1240.966,225.6a25.326,25.326,0,0,1-5.93,2.692c-1.928-4.031-2.572-8.679-2.91-13.178a17.99,17.99,0,0,0,5.862,3.045c1.844.525,5.013,1.4,6.2-.715a.348.348,0,0,0-.082-.459c-1.9-1.124-4.061-.6-6.115-.882a11.408,11.408,0,0,1-5.987-2.8c-.023-.375-.045-.749-.067-1.119-.192-3.339-.229-6.674-.185-10.011.038.057.078.115.117.167.365.517,1.077,1.621,1.8,1.614.674-.007.772-.861.544-1.371-.347-.777-1.214-1.3-1.663-2.035q-.405-.663-.744-1.359c.067-2.657.17-5.31.277-7.963a.32.32,0,0,1,.338-.294c2.483-.083,4.993-.163,7.51-.182a16.129,16.129,0,0,1,6.637,9.1c.292,1.126.679,7.218,3.147,6.024,2.608-1.261.354-6.4-.5-8.095a26.7,26.7,0,0,0-5.258-6.993,56.022,56.022,0,0,1,16.925,2.713,12.893,12.893,0,0,1,1.394,12.5c-.372.969-2.72,5.6-.155,5.605,2.158.008,3.023-4.583,3.09-6.249a26.264,26.264,0,0,0-1.238-7.269,16.633,16.633,0,0,0-1.513-4.007c.065.025.132.047.2.072,4.167,1.669,8.271,4.061,10.241,8.462a18.325,18.325,0,0,1,1.469,6.182,29.977,29.977,0,0,1-2.458,4.748c-1,1.524-2.325,2.366-3.574,3.611-.89.887-2.231,3.419-.525,4.294,1.376.7,3.442-.826,4.51-1.539.434-.29.855-.6,1.267-.906,2.413,12.436-9.109,7.836-9.1,7.893,2.118,11.407-8.989,13.491-16.311,12.046.664-.258,1.327-.515,2-.759,1.321-.479,2.7-.809,4-1.331,1.416-.572,3.3-1.9,2.642-3.822-.562-1.653-2.43.1-3.124.684-2.388,2.013-5.25,3.987-8.38,4.373-.365-.147-.729-.305-1.087-.48a20.256,20.256,0,0,1-6.959-5.7,52.771,52.771,0,0,0,7.756-2.153c1.831-.682,4.736-1.746,5.273-3.982a.335.335,0,0,0-.355-.439,11.7,11.7,0,0,0-6.172,2.71,12.251,12.251,0,0,1-7.213,2.88,19.494,19.494,0,0,1-1.167-1.906c-.02-.038-.038-.077-.058-.118a25.848,25.848,0,0,0,5.907-2.692C1241.586,225.983,1241.313,225.385,1240.966,225.6Zm-.09-24.17a.26.26,0,0,0-.18-.185,1.241,1.241,0,0,0-1.241-.846,1.514,1.514,0,0,0-.789,2.815,1.859,1.859,0,0,0,1.814.118C1241.161,202.939,1241.1,202.1,1240.876,201.43Zm18.853,28.209a1.132,1.132,0,0,0,1.506-.188.288.288,0,0,0-.145-.467,1.836,1.836,0,0,0-.622-1.1.874.874,0,0,0-1.354.434A1.15,1.15,0,0,0,1259.729,229.639Zm-5.622-24.29c.252.739.8,1.8,1.589,2.04.946.289,1.1-.9,1.077-1.6a.378.378,0,0,0-.03-.142,4.343,4.343,0,0,0,.059-2.436,1.33,1.33,0,0,0-2.293-.522A2.444,2.444,0,0,0,1254.107,205.349Zm-6.03,13.572a1.308,1.308,0,0,0,1.566.005,1.645,1.645,0,0,0,.525-1.895.35.35,0,0,0-.525-.2,1.025,1.025,0,0,0-1.6.125A1.539,1.539,0,0,0,1248.077,218.921Z" transform="translate(-1231.734 -96.046)" fill="#9cd499"/>
      <path id="Path_19855" data-name="Path 19855" d="M1341.139,204.193c-1.17-.067-2.341-.143-3.512-.24-2.373-.192-5.7.205-7.658-1.418a.541.541,0,0,1-.035-.814c3.674-3.094,7.7.314,11.634.475a36.6,36.6,0,0,0,.205-8.877,21.559,21.559,0,0,0-1.476-6.352c-2.176,2.983-4.109,6.159-6.979,8.477-1.141.921-4.106,3.677-5.61,2.563-1.651-1.224,1.234-3.184,2.121-3.774,3.64-2.421,7.2-4.781,9.994-8.325a14.143,14.143,0,0,0-6.6-6.677,30.141,30.141,0,0,0-6.839-2.285c.53,3.694-.043,9.179-3.457,10.089-2.408.645-3.921-2.166-4.083-4.393-.185-2.582,1.471-4.9,3.47-6.355a58.038,58.038,0,0,0-10.828-.133c-.642.05-1.289.117-1.938.187a.539.539,0,0,1-.063.208c-1.718,3.327-3.667,7.129-4.006,10.935-.127,1.414.467,3.277-.279,4.6-1.176,2.095-3.374.367-3.7-1.324-.6-3.089.849-6.981,1.844-9.886.415-1.212.852-2.51,1.349-3.782a32.716,32.716,0,0,0-12.376,5.068,24.92,24.92,0,0,0-3.467,2.972,21.81,21.81,0,0,0,1.052,10.94c.991,2.431,3.766,7.014,1.059,9.559-1.863,1.751-2.962-1.589-3.349-2.985a60.708,60.708,0,0,1-1.923-13.677,40.849,40.849,0,0,0-4.584,8.907,68.5,68.5,0,0,0-2.8,9.561c2.283,1.614,4.973,2.27,7.453,3.687,1.161.662,3.452,2.065,2.34,3.834-2.3,3.662-7.53-.579-10.466-3.726a9.083,9.083,0,0,0,2.788,7.453c4.461,4.634,11.455,6.132,16.882,1.93-.213,5.418,3.837,9.854,9.119,9.105a9.02,9.02,0,0,0,4.86-2.5,26.6,26.6,0,0,1-3.692.138c-1.583-.057-4.274-.187-4.911-2.071-.614-1.814,1.039-1.919,2.193-1.474,1.429.545,2.345,1.332,3.971,1.364a13.966,13.966,0,0,0,5.386-1.244,22.021,22.021,0,0,1,6.731-5.94,31.161,31.161,0,0,1,3.344-1.471c-2.215-.188-5.468-.587-6.2-2.607-1.214-3.37,3.918-3.6,5.644-3.315,2.31.375,4.518,1.112,6.872,1.274a17.567,17.567,0,0,0,5.837-.634c.39-.284.777-.579,1.149-.9A12.039,12.039,0,0,0,1341.139,204.193Zm-41.6,2.475c-1.042-.037-1.536-1.287-1.655-2.233a4.793,4.793,0,0,1,.429-2.67.559.559,0,0,1,.027-.237c.225-.654.587-1.428,1.276-1.629a1.378,1.378,0,0,1,1.366.484,4.354,4.354,0,0,1,.9,3.562C1301.687,205.037,1300.755,206.711,1299.539,206.668Zm13-12.514a2.769,2.769,0,0,1,.777-3.307.458.458,0,0,1,.293-.118,1.626,1.626,0,0,1,2.565.6,2.855,2.855,0,0,1-.957,3.5A1.762,1.762,0,0,1,1312.539,194.154Zm-2.055,23.609a1.911,1.911,0,0,1-2.992.6,2.678,2.678,0,0,1-.344-2.767.479.479,0,0,1,.018-.732A2.243,2.243,0,0,1,1310.484,217.763Z" transform="translate(-1201.112 -105.915)" fill="#9cd499"/>
      <path id="Path_19856" data-name="Path 19856" d="M1307.3,197.085a69.826,69.826,0,0,0-19.583,24.261c-4.928,10.2-5.957,21.907-11.906,31.629-.617,1.009.968,1.933,1.583.926,5.707-9.327,6.8-20.427,11.275-30.285a68.455,68.455,0,0,1,19.927-25.235C1309.523,197.649,1308.218,196.358,1307.3,197.085Z" transform="translate(-1202.398 -91.958)" fill="#263238"/>
      <path id="Path_19857" data-name="Path 19857" d="M1293.31,165.3c-5.292,7.258-7.925,15.719-10.254,24.295-2.767,10.174-5.482,20.379-7.733,30.683-4.288,19.628-6.646,39.687-3.756,59.694.168,1.164,1.936.67,1.77-.487-2.927-20.256-.3-40.616,4.137-60.451,2.061-9.212,4.489-18.341,6.946-27.457,2.4-8.917,4.963-17.794,10.473-25.352C1295.588,165.275,1294,164.357,1293.31,165.3Z" transform="translate(-1205.99 -113.299)" fill="#263238"/>
      <path id="Path_19858" data-name="Path 19858" d="M1259.777,184.328c-.521-1.061-2.1-.133-1.583.924,12.513,25.575,13.148,54.478,13.548,82.383a.916.916,0,0,0,1.831,0C1273.172,239.379,1272.443,210.218,1259.777,184.328Z" transform="translate(-1214.136 -100.645)" fill="#263238"/>
      <path id="Path_19859" data-name="Path 19859" d="M1280.625,257.2a312.726,312.726,0,0,0-33.007-50.9c-.735-.924-2.131.265-1.4,1.191a310.224,310.224,0,0,1,32.748,50.5C1279.51,259.031,1281.17,258.247,1280.625,257.2Z" transform="translate(-1222.2 -85.89)" fill="#263238"/>
      <g id="Group_13670" data-name="Group 13670" transform="translate(31.318 146.531)">
        <path id="Path_19860" data-name="Path 19860" d="M1312.656,221.826l-1.477,12.48-2.658,22.352-5.78,48.729h-42.311l-5.781-48.729-2.658-22.352-1.477-12.48Z" transform="translate(-1250.514 -221.826)" fill="#1f3445"/>
        <path id="Path_19861" data-name="Path 19861" d="M1268.179,234.306l-1.477-12.48h-16.188l1.477,12.48,2.658,22.352,5.781,48.729h16.185l-5.78-48.729Z" transform="translate(-1250.514 -221.826)" opacity="0.08"/>
        <path id="Path_19862" data-name="Path 19862" d="M1279.653,300.568c-.055,0-.112,0-.168-.007a1.8,1.8,0,0,1-1.811-1.833l7.273-74.141a1.9,1.9,0,0,1,2.143-1.549,1.8,1.8,0,0,1,1.809,1.833l-7.273,74.141A1.888,1.888,0,0,1,1279.653,300.568Z" transform="translate(-1232.385 -221.022)" fill="#fff" opacity="0.64"/>
      </g>
    </g>
    <g id="Group_13672" data-name="Group 13672" transform="translate(1186.525 215.022)">
      <path id="Path_19863" data-name="Path 19863" d="M1210.5,246.071l5.935-19.417-11.92-4.8a51.17,51.17,0,0,0-1.714-17.727l10.786-6.989-9.524-17.911-11.824,5.033a51.261,51.261,0,0,0-13.74-11.33l2.682-12.568-19.418-5.937-4.8,11.919a51.422,51.422,0,0,0-17.727,1.716l-6.988-10.786-17.911,9.526,5.035,11.824a51.112,51.112,0,0,0-11.332,13.738l-12.569-2.682-5.935,19.418,11.919,4.8a51.368,51.368,0,0,0,1.713,17.726l-10.785,6.989,9.526,17.912,11.822-5.036a51.448,51.448,0,0,0,13.74,11.333l-2.68,12.568,19.417,5.937,4.8-11.922a51.18,51.18,0,0,0,17.729-1.713l6.986,10.785,17.913-9.522-5.036-11.824a51.392,51.392,0,0,0,11.333-13.74Zm-68.229,6.844a36.642,36.642,0,1,1,45.754-24.328A36.644,36.644,0,0,1,1142.273,252.915Z" transform="translate(-1089.533 -154.421)" fill="#626876" opacity="0.2"/>
    </g>
    <g id="Group_13678" data-name="Group 13678" transform="translate(1057.6 274.519)">
      <g id="Group_13673" data-name="Group 13673" transform="translate(204.352 6.628)">
        <rect id="Rectangle_2877" data-name="Rectangle 2877" width="6.57" height="130.656" transform="translate(6.57 130.656) rotate(180)" fill="#202027"/>
      </g>
      <g id="Group_13674" data-name="Group 13674" transform="translate(149.029 6.628)">
        <rect id="Rectangle_2879" data-name="Rectangle 2879" width="6.57" height="130.656" transform="translate(6.57 130.656) rotate(180)" fill="#202027"/>
      </g>
      <g id="Group_13675" data-name="Group 13675" transform="translate(69.855 6.628)">
        <rect id="Rectangle_2881" data-name="Rectangle 2881" width="6.57" height="130.656" transform="translate(6.57 130.656) rotate(180)" fill="#697182"/>
      </g>
      <g id="Group_13676" data-name="Group 13676" transform="translate(4.558 6.628)">
        <rect id="Rectangle_2883" data-name="Rectangle 2883" width="6.57" height="130.656" transform="translate(6.57 130.656) rotate(180)" fill="#697182"/>
      </g>
      <g id="Group_13677" data-name="Group 13677">
        <path id="Path_20174" data-name="Path 20174" d="M0,0H220.681V7.912H0Z" transform="translate(220.681 7.912) rotate(180)" fill="#202027"/>
        <rect id="Rectangle_2886" data-name="Rectangle 2886" width="85.352" height="7.912" transform="translate(85.352 7.912) rotate(180)" fill="#697182"/>
      </g>
    </g>
    <g id="Group_13684" data-name="Group 13684" transform="translate(1256.167 109.084)">
      <g id="Group_13679" data-name="Group 13679" transform="translate(55.808 278.752)">
        <path id="Path_19864" data-name="Path 19864" d="M1196.179,258.047l-11.919.612c.762,9.764-4.1,14.4-14.087,15.309-5.867.535-5.407,7.761-5.407,7.761h32.49s3.911-3.4-.235-10.7C1196.007,269.247,1196.179,258.047,1196.179,258.047Z" transform="translate(-1164.758 -258.047)" fill="#fbbcbe"/>
        <path id="Path_19865" data-name="Path 19865" d="M1170.173,269.506c-5.867.535-5.407,7.761-5.407,7.761h32.49s3.911-3.4-.235-10.7c-2.2,1.251-7.8,2.568-14.752-1.839A26.17,26.17,0,0,1,1170.173,269.506Z" transform="translate(-1164.758 -253.585)" fill="#0c1540"/>
        <path id="Path_19866" data-name="Path 19866" d="M1172.036,269.547s5.552-3.3,6.227-6.205,4.126-.27,4.464.542S1178.657,269.464,1172.036,269.547Z" transform="translate(-1159.898 -255.402)" fill="#0c1540"/>
      </g>
      <path id="Path_19867" data-name="Path 19867" d="M1179.02,167.416c-4.494,19.115-3.128,54.865-3.856,86.048-.579,24.818-.165,62-.839,77.475,0,0,13.422,2.685,19.108-.068,0,0,9.754-64.305,12.174-73.129s10.278-65.234,3.976-89.315S1180.784,159.913,1179.02,167.416Z" transform="translate(-1102.562 -47.758)" fill="#037ca4"/>
      <path id="Path_19868" data-name="Path 19868" d="M1201.351,177.775s-7.563,36.065-9.819,60.9c-.906,9.961-5.749,77.327-5.749,77.327s6.681-44.345,8.966-56.311c3.208-16.818,12.419-60.945,12.419-60.945Z" transform="translate(-1094.912 -32.89)" fill="#036788"/>
      <g id="Group_13680" data-name="Group 13680" transform="translate(124.422 278.752)">
        <path id="Path_19869" data-name="Path 19869" d="M1208.649,258.047l11.92.612c-.762,9.764,4.1,14.4,14.087,15.309,5.867.535,5.406,7.761,5.406,7.761h-32.491s-3.911-3.4.235-10.7C1208.821,269.247,1208.649,258.047,1208.649,258.047Z" transform="translate(-1205.901 -258.047)" fill="#fbbcbe"/>
        <path id="Path_19870" data-name="Path 19870" d="M1234.656,269.506c5.867.535,5.406,7.761,5.406,7.761h-32.491s-3.911-3.4.235-10.7c2.2,1.251,7.8,2.568,14.752-1.839A26.166,26.166,0,0,0,1234.656,269.506Z" transform="translate(-1205.901 -253.585)" fill="#0c1540"/>
        <path id="Path_19871" data-name="Path 19871" d="M1223.4,269.547s-5.553-3.3-6.229-6.205-4.126-.27-4.464.542S1216.779,269.464,1223.4,269.547Z" transform="translate(-1201.369 -255.402)" fill="#0c1540"/>
      </g>
      <path id="Path_19872" data-name="Path 19872" d="M1231.887,330.944s-13.423,2.677-19.108-.073c0,0-7.811-66.293-10.231-75.114s-12.214-63.246-5.924-87.324c6.309-24.1,28.809-8.525,30.568-1.009A92.842,92.842,0,0,1,1228.954,179c2.346,23.252,3.21,61.926,2.732,82.7-.127,5.7-.218,11.607-.273,17.511C1231.19,299.09,1231.357,319.007,1231.887,330.944Z" transform="translate(-1089.058 -47.76)" fill="#037ca4"/>
      <path id="Path_19873" data-name="Path 19873" d="M1222.147,172.162c-.349-.752-.716-1.486-1.1-2.183-.99-1.851-2.018-3.5-4.052-4.069a16.922,16.922,0,0,0-4.311-.038c-1.814.038-7.718-.622-7.938,2.183,4.218,9.02,8.417,18.1,11.259,27.672,2.918,9.866,5.428,19.64,5.025,29.891a156.5,156.5,0,0,0-.127,16.853c.42,5.94,1.668,11.789,2.677,17.657a91.5,91.5,0,0,1,1.028,12.249c.055-5.9.146-11.807.273-17.511C1225.357,234.088,1224.494,195.415,1222.147,172.162Z" transform="translate(-1082.251 -40.926)" fill="#036788"/>
      <path id="Path_19874" data-name="Path 19874" d="M1201.267,136.227c-.656,8.458-15.249,39.32-17.872,45.171-3.162,7.049-16.557,6.2-16.645-.879-.077-6.259,13.475-45.109,16.013-49.116C1187.346,124.168,1202.087,125.642,1201.267,136.227Z" transform="translate(-1107.62 -66.842)" fill="#fbbcbe"/>
      <path id="Path_19875" data-name="Path 19875" d="M1194.2,161.073c4.654-10.578,6.472-23.649,6.859-28.29.917-11.028-12.921-14.36-17.644-7.094-1.181,1.813-9.911,13.91-13.2,24.942C1176.459,157.844,1192.464,161.166,1194.2,161.073Z" transform="translate(-1105.301 -70.246)" fill="#e8b504"/>
      <path id="Path_19876" data-name="Path 19876" d="M1196.178,121.391s-7.083-.61-10.823,3.17-10.036,20.341-7.761,39.42-3.866,52.325-3.866,52.325,32.77,7.523,73.667-1.067c0,0-3.048-70.117-12.746-88.969-3.079-5.985-17.492-6-19.678-6.19S1196.178,121.391,1196.178,121.391Z" transform="translate(-1102.961 -71.422)" fill="#f9c201"/>
      <path id="Path_19877" data-name="Path 19877" d="M1190.567,119.333s1.134,6.6-.942,7.469a20.36,20.36,0,0,1-4.846,1.166s11.338,16.41,24.238-1.511c0,0-3.849.047-5.041-1.5s-1.928-9.246-1.334-14.32Z" transform="translate(-1095.582 -77.719)" fill="#ffbe9d"/>
      <path id="Path_19878" data-name="Path 19878" d="M1202.344,124.953c-1.193-1.554-1.928-9.246-1.334-14.32l-6.882,4.96a18.624,18.624,0,0,1,3.36,4.846c1.793,3.372,2.808,8.112-.694,10.708-2.692,1.993-6.267,1.894-9.572.921,4.431,3.309,11.98,5.757,20.164-5.61C1207.386,126.458,1203.537,126.5,1202.344,124.953Z" transform="translate(-1093.951 -77.719)" fill="#feab82"/>
      <path id="Path_19879" data-name="Path 19879" d="M1222.989,128.407c6.164,5.828,20.982,36.582,23.881,42.3,3.494,6.891-3.092,14.676-9.4,11.469-5.373-2.733-28.347-37.923-29.866-42.417C1204.86,131.645,1215.274,121.112,1222.989,128.407Z" transform="translate(-1080.644 -67.489)" fill="#ffbe9d"/>
      <path id="Path_19880" data-name="Path 19880" d="M1245.932,167.354c-8.1.962-37.561-5.028-43.146-6.054-6.731-1.234-8.51-11.822-1.481-11.327,6.784.475,45.559.839,49.38,2.12C1257.582,154.4,1256.065,166.147,1245.932,167.354Z" transform="translate(-1087.547 -51.464)" fill="#ffbe9d"/>
      <path id="Path_19881" data-name="Path 19881" d="M1192.877,169.664c-7.963,1.759-37.873-1.3-43.531-1.768-6.821-.564-9.634-10.923-2.59-11.127,6.8-.2,45.419-3.657,49.347-2.76C1203.2,155.629,1202.843,167.466,1192.877,169.664Z" transform="translate(-1123.704 -48.857)" fill="#fbbcbe"/>
      <path id="Path_19882" data-name="Path 19882" d="M1238.579,144.394c-6.649-9.454-16.9-17.767-20.671-20.5-8.965-6.486-18.971,3.637-15.2,11.437.942,1.948,6.114,12.721,13.855,21.236C1225.967,154.961,1237.759,145.934,1238.579,144.394Z" transform="translate(-1084.155 -70.246)" fill="#e8b504"/>
      <path id="Path_19883" data-name="Path 19883" d="M1185.849,157.175c2.6-1.708,5.078-3.414,3.02-2.295-2.63,1.429-5.47-.9-2.858-2.32,3.273-1.779,6.786-4.121,10.5-4.931,4.026-.879,12.049,4.469,15.913,4.811,1.561.138.43,7.463-.787,7.945-4.056,1.6-8.71-.642-9.331-.415a38.1,38.1,0,0,0-3.747,3.055c-1.789,1.509-5.448.017-3.67-1.481,1.131-.952.559-1.342-1.1-.055-2.118,1.653-5.792-.108-3.689-1.749.889-.69,1.012-1.219-.253-.389C1187.283,161.037,1183.3,158.847,1185.849,157.175Z" transform="translate(-1095.452 -53.083)" fill="#ffbe9d"/>
      <path id="Path_19884" data-name="Path 19884" d="M1201.9,106.181c-.1-.575-3.937-3.684-4.351-3.48-.06.007.21,13.211-.407,14.409-.455.882-1.131,2.88.142,3.385a2.966,2.966,0,0,0,3.317-1.177C1204.765,113.044,1202.146,107.634,1201.9,106.181Z" transform="translate(-1087.723 -83.021)" fill="#0c1540"/>
      <path id="Path_19885" data-name="Path 19885" d="M1184.779,99.986v19.957c0,5.4,4.77,9.773,10.651,9.773h0c5.884,0,10.653-4.376,10.653-9.773V119.5s5.471,1.191,5.471-4.8-3.442-5.15-3.442-5.15V99.986Z" transform="translate(-1095.582 -84.828)" fill="#ffbe9d"/>
      <path id="Path_19886" data-name="Path 19886" d="M1206.173,110.59V98.429h-8.283c0,.057.007,4.374.007,4.431v20.712c0,3.619-3.5,6.557-7.134,6.432a6.788,6.788,0,0,1-3.077-.849,11.213,11.213,0,0,0,5.805,1.6c5.884,0,10.653-4.376,10.653-9.773v-.447s5.472,1.191,5.472-4.8S1206.173,110.59,1206.173,110.59Z" transform="translate(-1093.642 -85.867)" fill="#ffbe9d"/>
      <path id="Path_19887" data-name="Path 19887" d="M1210.912,96.122a.331.331,0,0,0-.015-.052c-2.908-6.015-22.222-7.449-28.64-.725-2.613,2.74-.52,10.661,3.367,11.6,2.611.625,14.991.17,17.425-.886,1.1,4.319,2.051,12.853,4.424,12.844,1.159,0,3.56-1.93,3.1-3.28C1216.469,114.65,1216.587,97.832,1210.912,96.122Z" transform="translate(-1098.041 -90.896)" fill="#0c1540"/>
      <g id="Group_13683" data-name="Group 13683" transform="translate(0 73.969)">
        <g id="Group_13681" data-name="Group 13681" transform="translate(8.398 43.778)">
          <rect id="Rectangle_2887" data-name="Rectangle 2887" width="67.992" height="3.588" fill="#9ba1b2"/>
          <path id="Path_19888" data-name="Path 19888" d="M1177.1,165.089h31.3v-2.02a1.569,1.569,0,0,0-1.569-1.568H1177.1Z" transform="translate(-1109.107 -161.502)" fill="#747885"/>
        </g>
        <g id="Group_13682" data-name="Group 13682" transform="translate(0 0)">
          <path id="Path_19889" data-name="Path 19889" d="M1140.843,179.029h67.722l-8.916-41.7a2.556,2.556,0,0,0-2.453-2.081h-60.989a3.957,3.957,0,0,0-3.677,4.9Z" transform="translate(-1130.53 -135.251)" fill="#747885"/>
          <path id="Path_19890" data-name="Path 19890" d="M1139.96,179.029h67.722l-8.917-41.7a2.551,2.551,0,0,0-2.45-2.081H1134.04a2.881,2.881,0,0,0-2.677,3.57Z" transform="translate(-1131.293 -135.251)" fill="#9ba1b2"/>
        </g>
        <path id="Path_19891" data-name="Path 19891" d="M1160.068,135.251,1141,179.029h8.724l19.784-43.778Z" transform="translate(-1124.814 -135.251)" fill="#f0f5ff" opacity="0.11"/>
        <path id="Path_19892" data-name="Path 19892" d="M1168.616,135.251l-19.072,43.778h3.4l19.785-43.778Z" transform="translate(-1119.108 -135.251)" fill="#f0f5ff" opacity="0.11"/>
      </g>
      <path id="Path_19893" data-name="Path 19893" d="M1157.155,165.129c-.22-.645-.964-1.728-1.8-1.438a.735.735,0,0,0-.26.152,4.1,4.1,0,0,0-.269-1.372c-.37-.949-1.449-2.276-2.5-1.324a3.517,3.517,0,0,0-.891,1.453,2.849,2.849,0,0,0-1.946-1.839c-1.5-.432-2,.655-2.178,1.871-.428-1.151-1.327-2.778-2.555-1.768a5.8,5.8,0,0,0-1.279,2.557,15.2,15.2,0,0,0-.725,3.544.531.531,0,0,0,.013.137.488.488,0,0,0,0,.509c.632,1.186,2.183,2.321,3.307,1.054a5.968,5.968,0,0,0,.759-1.111c.093,1.121.485,2.066,1.6,2.181,1.181.12,1.988-.894,2.5-2.066a.316.316,0,0,0,.04.072c.388.464.894,1.081,1.593.989a1.933,1.933,0,0,0,1.232-1.062.47.47,0,0,0,.233.3A2.263,2.263,0,0,0,1157.155,165.129Z" transform="translate(-1123.68 -44.394)" fill="#ffbe9d"/>
    </g>
  </g>
</svg>
