<svg xmlns="http://www.w3.org/2000/svg" width="596.418" height="301.273" viewBox="0 0 596.418 301.273">
  <g id="Front_End_Developer_img" data-name="Front End Developer img" transform="translate(-1564.406 -754.827)">
    <g id="Group_13688" data-name="Group 13688" transform="translate(1588.847 1055.081)">
      <path id="Path_19894" data-name="Path 19894" d="M2225.925,1862.131H1654.966a.511.511,0,0,1-.509-.51h0a.511.511,0,0,1,.509-.509h570.958a.511.511,0,0,1,.51.509h0A.511.511,0,0,1,2225.925,1862.131Z" transform="translate(-1654.457 -1861.112)" fill="#283250"/>
    </g>
    <path id="Path_19895" data-name="Path 19895" d="M1799.6,871.125l-7.494-.172c2.408,3.121,2.948,6,1.45,8.428-1.5,2.482-5.087,4.521-10.443,6.069A96.866,96.866,0,0,0,1654.729,762.42c-1.425.614-2.85,1.253-4.226,1.917l-.013.006c-4.163-1.27-8.217-2.311-12.13-3.1-19.748-4.007-33.763-1.238-39.455,7.8-5.417,8.595-2.468,21.532,8.281,36.622l0,.007c-1.45,2.679-2.752,5.431-3.956,8.281-.909,2.138-1.72,4.275-2.457,6.462-20.2,1.2-31.01,4.759-34.941,11.2-4.57,7.494,1.671,17.552,21.648,27.332,2.752,1.351,5.7,2.678,8.8,4.005a94.669,94.669,0,0,0,6.954,26.341,96.817,96.817,0,0,0,177.974.909c9.853-2.04,16.34-5.234,18.92-9.46C1801.915,877.809,1801.693,874.565,1799.6,871.125Zm-23.122,15.849a149.275,149.275,0,0,1-24.3,1.966,356.086,356.086,0,0,1-49.818-3.356q2.266-4.933,4.436-10.123a137.037,137.037,0,0,0,16.132,4.386,81.72,81.72,0,0,0,16.108,1.791c11.277,0,19.357-3.256,23.347-9.59a16.547,16.547,0,0,0,1.605-3.318h-5.749c-.095.175-.2.348-.3.516-2.964,4.705-9.588,7.136-18.888,7.134a76.712,76.712,0,0,1-15.078-1.685,131.421,131.421,0,0,1-15.183-4.107q2.076-5.195,4.03-10.576c3.5-9.662,6.5-19.24,8.931-28.438a244.176,244.176,0,0,0,35.545,2.449q11.78,0,24.407-.951a91.662,91.662,0,0,1,1.88,18.545A90.6,90.6,0,0,1,1776.483,886.974Zm-119.771,47.983c-2.8-1.014-4.215-5.027-4.914-8.215-1.1-5.038-1.3-12.115-.577-20.464.367-4.223.957-8.713,1.752-13.409a248.991,248.991,0,0,1,33.86,11.716c-2.489,4.292-5.006,8.272-7.523,11.88-4.8,6.874-9.485,12.177-13.561,15.336C1663.169,933.8,1659.508,935.971,1656.712,934.958Zm32.653-34.865a254.105,254.105,0,0,0-35.471-12.284q.635-3.27,1.392-6.649,5.01,1.139,10.157,2.2c10.037,2.053,20.05,3.8,29.851,5.206Q1692.382,894.592,1689.365,900.093Zm-21.711-20.367q-5.817-1.2-11.456-2.5c1.768-7.358,3.94-15.028,6.476-22.844a224.166,224.166,0,0,0,39.279,19.372q-2.388,5.7-4.9,11.1C1687.415,883.47,1677.551,881.755,1667.654,879.726ZM1635.46,780.41a60.185,60.185,0,0,0,3.563,6.27,85.1,85.1,0,0,0,21.675,22.213,106.177,106.177,0,0,0,11.4,7.1c-3.681,8.022-7.187,16.583-10.411,25.473q-.9,2.486-1.757,4.963c-19.257-12.535-35.561-26.918-46.256-40.838l0-.006a91.538,91.538,0,0,1,9.186-12.943c1.425-1.671,2.9-3.293,4.448-4.865l.639-.639A92.083,92.083,0,0,1,1635.46,780.41Zm82.342-13.89c2.8,1.014,4.215,5.027,4.913,8.215,1.1,5.038,1.3,12.115.577,20.464a204.139,204.139,0,0,1-5.349,30.573q-4.934-.848-9.631-1.925a138.49,138.49,0,0,1-29.466-10.158,207.984,207.984,0,0,1,16.356-28.677c4.8-6.874,9.485-12.177,13.561-15.336,2.127-1.648,4.99-3.413,7.5-3.413A4.493,4.493,0,0,1,1717.8,766.52Zm-10.989,62.242q4.8,1.115,9.857,1.99c-2.364,8.894-5.275,18.157-8.668,27.51q-1.961,5.408-4.054,10.632a219.469,219.469,0,0,1-39.565-19.636q1.031-3.013,2.129-6.044c3.151-8.69,6.572-17.053,10.159-24.885A143.38,143.38,0,0,0,1706.812,828.762Zm50.063-41.623a90.835,90.835,0,0,1,23.636,40.876c-21.016,1.536-40.273,1.054-57.487-1.437a208.59,208.59,0,0,0,5.377-30.935c.891-10.241.782-22.372-3.37-29.2q1.444.555,2.874,1.159A90.517,90.517,0,0,1,1756.875,787.139Zm-64.452-26.709a91.326,91.326,0,0,1,18.6,1.9c-7.162,3.118-14.474,11.8-20.025,19.752a212.987,212.987,0,0,0-16.711,29.266,101.136,101.136,0,0,1-10.246-6.364,78.978,78.978,0,0,1-20.516-20.783,53.9,53.9,0,0,1-3.885-6.943,91.114,91.114,0,0,1,11.784-7.11h0q2.511-1.267,5.113-2.377c.126-.053.25-.109.376-.162l.087-.037c.37-.156.741-.308,1.113-.458l.3-.119A90.552,90.552,0,0,1,1692.423,760.429Zm-89.071,11.41c2.964-4.705,9.588-7.134,18.889-7.134a76.725,76.725,0,0,1,15.078,1.685q3.169.642,6.466,1.51l.006,0a95.162,95.162,0,0,0-19.824,15.28c-1.253,1.229-2.457,2.506-3.636,3.833-1.475,1.622-2.875,3.317-4.226,5.037a97.513,97.513,0,0,0-6,8.575l0,.008C1601.884,788.434,1599.413,778.087,1603.351,771.839Zm5.036,44.294c.811-1.867,1.646-3.71,2.555-5.5l0,0c11.262,14.076,27.861,28.466,47.255,40.946-2.75,8.37-5.1,16.6-6.99,24.479a374.951,374.951,0,0,1-38.646-11.411c-2.408-.86-4.742-1.745-6.978-2.629-1.327-.516-2.63-1.056-3.907-1.6-.2-1.966-.344-3.956-.393-5.947-.025-.958-.049-1.892-.049-2.85,0-1.106.024-2.236.049-3.342a92.205,92.205,0,0,1,4.177-24.179c.418-1.327.86-2.629,1.351-3.931C1607.306,818.812,1607.822,817.461,1608.387,816.134Zm-16.439,39.9c-17.421-8.5-25.383-16.709-21.82-22.532,2.875-4.718,13.342-7.912,29.363-9.091a94.126,94.126,0,0,0-3.636,20.443c-.148,2.064-.221,4.128-.246,6.217v.541c0,2.089.074,4.178.2,6.241C1594.479,857.267,1593.2,856.653,1591.948,856.038Zm13.22,10.443c2.359.885,4.767,1.769,7.249,2.629,11.408,3.953,24.2,7.627,37.876,10.887q-.745,3.325-1.376,6.551-1.677-.407-3.356-.792a203.835,203.835,0,0,0-39.682-5.329,89.092,89.092,0,0,1-3.586-15.053Zm3.219,20.616q-.308-.732-.6-1.467a205.335,205.335,0,0,1,36.639,5.127q1.783.406,3.564.844c-.855,4.988-1.486,9.754-1.876,14.234-.738,8.487-.791,18.273,1.577,25.262a91.7,91.7,0,0,1-39.3-44ZM1727.9,935.626a91.492,91.492,0,0,1-63.129,2.909c6.745-3.535,13.522-11.654,18.741-19.136,2.692-3.858,5.382-8.129,8.037-12.738a257.64,257.64,0,0,1,43.864,25.377Q1731.757,933.994,1727.9,935.626Zm28.97-19.534a90.5,90.5,0,0,1-16.583,13.145,263.013,263.013,0,0,0-46.221-27.063c2.224-4.074,4.415-8.377,6.554-12.868a393.876,393.876,0,0,0,42.024,3.443c3.391.1,6.684.1,9.878.074a175.778,175.778,0,0,0,21.968-1.474A90.6,90.6,0,0,1,1756.875,916.092Z" transform="translate(0)" fill="#adcbf9"/>
    <g id="Group_13689" data-name="Group 13689" transform="translate(1945.876 823.435)">
      <path id="Path_19896" data-name="Path 19896" d="M3113.15,1139.045s18.228,17.939,19.062,24.7-8.268,17.346-8.268,17.346Z" transform="translate(-3074.279 -1103.373)" fill="#e58638"/>
      <path id="Path_19897" data-name="Path 19897" d="M3026.02,1817.318s-.592,9.537-2.436,9.673c-.246.018-9.358.018-9.358.018l-11.633-.068a3.774,3.774,0,0,1,3.476-3.4c3.4-.593,9.092-2.982,11.151-7.477C3019.388,1811.343,3026.02,1817.318,3026.02,1817.318Z" transform="translate(-2993.728 -1595.322)" fill="#163560"/>
      <path id="Path_19898" data-name="Path 19898" d="M3121.485,1817.318s-.591,9.537-2.437,9.673c-.245.018-9.358.018-9.358.018l-11.633-.068a3.775,3.775,0,0,1,3.477-3.4c3.4-.593,9.091-2.982,11.152-7.477C3114.853,1811.343,3121.485,1817.318,3121.485,1817.318Z" transform="translate(-3063.283 -1595.322)" fill="#163560"/>
      <path id="Path_19899" data-name="Path 19899" d="M3041.442,1408.77s3.042,19.458,14.392,54,12.9,49.5,12.9,49.5l12.176-.341s.1-37.75-5.127-55.12-1.129-62.62-1.129-62.62Z" transform="translate(-3022.033 -1289.269)" fill="#163560"/>
      <path id="Path_19900" data-name="Path 19900" d="M3019.588,1398.116a472.189,472.189,0,0,0,4.643,65.326c5.073,36,3.353,51.286,3.353,51.286l12.151.4s7.262-36.016,5.18-54.037,9.944-61.836,9.944-61.836Z" transform="translate(-3006.104 -1292.13)" fill="#1c468a"/>
      <path id="Path_19901" data-name="Path 19901" d="M3068.66,1106.375l-5.731,4.245-8.283-1.744c.115-.756.661-3.886,1.159-6.721.03-.167.06-.334.088-.5.426-2.413.795-4.485.795-4.485l7.736-3.856,2.884-1.437c-.008.051-.224,2.678-.254,3.061A24.773,24.773,0,0,0,3068.66,1106.375Z" transform="translate(-3031.654 -1069.008)" fill="#ffb27d"/>
      <path id="Path_19902" data-name="Path 19902" d="M3046.733,1129.39c.182-.076,11.267-3.348,12.471-2.95s1.917,2.727,1.917,2.727l-18.132,4.1S3044.417,1130.365,3046.733,1129.39Z" transform="translate(-3023.161 -1094.165)" fill="#e58638"/>
      <path id="Path_19903" data-name="Path 19903" d="M3053.946,1210.925c-1.88,8.572-33.152,9.589-41.213,1.808-.917-.887-.962-5.013-.617-10.577.677-10.87,2.849-27.221,2.933-35.576a66.16,66.16,0,0,1,1.334-11.907,96.7,96.7,0,0,1,3.967-14.252s15.275-4.938,18.133-4.1C3052.252,1140.369,3055.824,1202.353,3053.946,1210.925Z" transform="translate(-3000.522 -1101.319)" fill="#ee9849"/>
      <path id="Path_19904" data-name="Path 19904" d="M3012.65,1247.323c.677-10.87,2.849-27.221,2.933-35.576a66.181,66.181,0,0,1,1.334-11.907l9.189-1.621S3035.089,1234.912,3012.65,1247.323Z" transform="translate(-3001.056 -1146.487)" fill="#e58638"/>
      <path id="Path_19905" data-name="Path 19905" d="M3023.959,1319.483a2.162,2.162,0,0,1-.689,2.5c-1.315,1.005-2.168,2.634-1.867,3.824s3.187,3.131,4.187,2.818,3.036-1.881,2.816-2.508,1.369-5.508-1.069-7.388S3023.959,1319.483,3023.959,1319.483Z" transform="translate(-3007.389 -1233.798)" fill="#ffb27d"/>
      <path id="Path_19906" data-name="Path 19906" d="M2996.757,1144.671s-8.943,1.38-16.083,11.9-11.838,18.345-10.523,22.138,13.3,16.946,15.372,16.946,5.4-1.5,5.59-4.886c0,0-8.441-12.651-6.778-14.546.71-.81,10.959-9.13,12.422-5.372C2999.178,1177.072,2996.757,1144.671,2996.757,1144.671Z" transform="translate(-2969.931 -1107.472)" fill="#ee9849"/>
      <path id="Path_19907" data-name="Path 19907" d="M3069.588,1098.915c-1.7,3.251-8.029,6.062-10.669,7.095.03-.167.06-.334.088-.5.426-2.413.795-4.485.795-4.485l7.736-3.856C3069.248,1097.145,3070.289,1097.577,3069.588,1098.915Z" transform="translate(-3034.767 -1072.863)" fill="#fca56b"/>
      <path id="Path_19908" data-name="Path 19908" d="M3043.638,1048.048s13.957,4.354,16.534-4.379,6.115-14.053-2.687-17.2-11.525-.33-13.094,2.376S3040.074,1046.69,3043.638,1048.048Z" transform="translate(-3022.362 -1020.337)" fill="#ffb27d"/>
      <path id="Path_19909" data-name="Path 19909" d="M3055.709,1015.609s.805,10.484,2.915,10.011,4.024-.827,3.689,2.338-3.285,6.842,3.2,7.346,15.961-16.82,14.2-20.07C3074.651,1005.857,3048.367,1004.179,3055.709,1015.609Z" transform="translate(-3031.492 -1007.611)" fill="#163560"/>
    </g>
    <g id="Group_13692" data-name="Group 13692" transform="translate(2031.839 837.786)">
      <g id="Group_13690" data-name="Group 13690" transform="translate(17.266 37.003)">
        <path id="Path_19910" data-name="Path 19910" d="M3369.749,1390.14s-5.353,1.375-8.755.35-9.26.658-10.2,1.9-.6,1.734,1.086,2.162,7.646,2.971,11.564,1.5a31.23,31.23,0,0,1,9.03-1.525Z" transform="translate(-3350.276 -1337.673)" fill="#e49963"/>
        <path id="Path_19911" data-name="Path 19911" d="M3457.531,1202.791s-6.013,42.74-15.97,46.568c-4.914,1.889-26.627,6.171-33.051,6.6,0,0-1.573-1.276-1.19-6.472,0,0,22.75-8.352,25.982-12.894,4.81-6.76-2.986-27.616,3.05-33.965S3452.552,1193.551,3457.531,1202.791Z" transform="translate(-3391.793 -1196.825)" fill="#4a75cb"/>
      </g>
      <path id="Path_19912" data-name="Path 19912" d="M3509.6,1643.1v-9.4h14.671a.722.722,0,0,0,.72-.719v-1.493a.722.722,0,0,0-.72-.72H3509.6v-53.046a2.714,2.714,0,0,0-2.706-2.706h-2.9a2.714,2.714,0,0,0-2.706,2.706v53.046h-14.671a.722.722,0,0,0-.72.72v1.493a.722.722,0,0,0,.72.719h14.671v9.4c-10.616.8-19.119,4.626-21.505,9.564H3531.1C3528.719,1647.721,3520.216,1643.9,3509.6,1643.1Z" transform="translate(-3427.365 -1435.367)" fill="#2b478b"/>
      <path id="Path_19913" data-name="Path 19913" d="M3422.627,1483.209a74.948,74.948,0,0,1-5.875,8.4c-6.463,8.159-13.5,14.886-14.724,21.245a28.793,28.793,0,0,1-1.136,4.07c-.512,1.456-1.145,2.988-1.875,4.572a140.819,140.819,0,0,1-10.939,18.7c-7.079,10.49-13.736,19.243-13.736,19.243l-12.208-.52c.489-1.224,5.813-15.707,12.936-33.407l8.935-22.2q.593-1.476,1.182-2.936c.907-2.256,1.8-4.476,2.672-6.638,6.688-16.62,12.015-29.854,12.015-29.854s26.731-10.126,29.506-3.564C3431.67,1465.736,3429.806,1471.036,3422.627,1483.209Z" transform="translate(-3341.651 -1350.195)" fill="#163560"/>
      <path id="Path_19914" data-name="Path 19914" d="M3339.023,1814.587s-.6,10.122-2.546,10.266c-.259.019-22.295,0-22.295,0a4.207,4.207,0,0,1,3.767-3.687c3.592-.626,9.6-3.15,11.779-7.9C3332.018,1808.275,3339.023,1814.587,3339.023,1814.587Z" transform="translate(-3306.712 -1607.558)" fill="#163560"/>
      <path id="Path_19915" data-name="Path 19915" d="M3492.7,1717.252s8.491,5.456,7.667,7.228c-.109.236-4.8,8.64-4.8,8.64l-6.052,10.694s-2.546-1.513-1.342-4.954,1.931-9.921-1.153-14.135C3483.777,1720.292,3492.7,1717.252,3492.7,1717.252Z" transform="translate(-3432.125 -1539.002)" fill="#163560"/>
      <path id="Path_19916" data-name="Path 19916" d="M3367.064,1461.261s-33.764,21.015-37.51,35.061,44.632,44.008,44.632,44.008,5.306-4.682,6.242-8.115c0,0-21.867-26.2-26.611-32.071-2.913-3.607,43.074-12.485,48.692-21.225s3.607-16.092,3.607-16.092Z" transform="translate(-3317.762 -1352.489)" fill="#1c468a"/>
      <path id="Rectangle_2888" data-name="Rectangle 2888" d="M9.2,0H64.462a9.2,9.2,0,0,1,9.2,9.2v.328a9.2,9.2,0,0,1-9.2,9.2H9.2A9.2,9.2,0,0,1,0,9.528V9.2A9.2,9.2,0,0,1,9.2,0Z" transform="translate(41.246 135.726)" fill="#ee9849"/>
      <path id="Path_19917" data-name="Path 19917" d="M3527.224,1153.729s-13.324,7.449-21.363,5.37a18.971,18.971,0,0,1,5.112-4.631c-.176-.782-.33-1.519-.462-2.2a52.425,52.425,0,0,1-.906-6.208l6.138-5.5,4.128.874c.08.406.167.8.265,1.186A19.714,19.714,0,0,0,3527.224,1153.729Z" transform="translate(-3446.368 -1118.824)" fill="#e49963"/>
      <path id="Path_19918" data-name="Path 19918" d="M3504.968,1219.248c-1.151,15.486.363,39.036-.943,43.115-1.128,3.52-13.971,1.427-19.1.254-1.9-.436-4.2-1.057-6.568-1.791-6.621-2.051-13.837-4.978-14.612-7.151a1.822,1.822,0,0,1-.07-.25v0a1.621,1.621,0,0,1-.03-.163,2.052,2.052,0,0,1,.043-.744c.258-1.108,1.252-2.306,1.369-5.05.131-3.062.112-6.669.227-10.546.006-.437.011-.915.059-1.348l0-.159c0-.083,0-.165.005-.248.112-4.324.339-8.873.6-13.38.167-2.833.36-5.639.581-8.326a111.209,111.209,0,0,1,2.385-17,27.3,27.3,0,0,1,8.774-13.543l2.442-2.1a14.118,14.118,0,0,0,8.867-1.182c3.154-1.5,4.245-2.571,4.794-2.166C3501.084,1183.088,3506.327,1200.318,3504.968,1219.248Z" transform="translate(-3415.599 -1145.654)" fill="#739af0"/>
      <path id="Path_19919" data-name="Path 19919" d="M3478.358,1385.495c-6.621-2.051-13.837-4.978-14.612-7.152a1.81,1.81,0,0,1-.07-.25v0a.5.5,0,0,0-.03-.163,2.051,2.051,0,0,1,.043-.744c.258-1.108,1.252-2.306,1.369-5.05.131-3.062.112-6.669.227-10.546.006-.437.011-.915.059-1.348l0-.159c0-.083,0-.164.005-.248l25.012-11.344S3491.8,1368.645,3478.358,1385.495Z" transform="translate(-3415.599 -1270.323)" fill="#4a75cb"/>
      <path id="Path_19920" data-name="Path 19920" d="M3530.184,1142.615c-.909,2.3-3.63,7.712-9.625,9.649a52.425,52.425,0,0,1-.906-6.208l6.138-5.5,4.128.874C3530,1141.835,3530.085,1142.229,3530.184,1142.615Z" transform="translate(-3456.417 -1118.824)" fill="#d68d5d"/>
      <path id="Path_19921" data-name="Path 19921" d="M3502.351,1101.81s13.172,1.486,13.971-6.731,3.037-13.559-5.339-14.855-10.318,1.68-11.251,4.358S3498.945,1101.212,3502.351,1101.81Z" transform="translate(-3441.543 -1074.639)" fill="#e49963"/>
      <path id="Path_19922" data-name="Path 19922" d="M3514.606,1081.5a13.534,13.534,0,0,0-12.826-12.037c-8.213-.774-3.634-7.842-2.758-8.97,0,0,6.292.863,12.742,1.928C3525.3,1064.654,3515.936,1079.8,3514.606,1081.5Z" transform="translate(-3439.884 -1060.489)" fill="#2b478b"/>
      <path id="Path_19923" data-name="Path 19923" d="M3329.732,1346.226l-32.639.7-9.28-28.56-1.153.375,9.81,30.191,33.3-.712Z" transform="translate(-3286.66 -1248.374)" fill="#4a75cb"/>
      <g id="Group_13691" data-name="Group 13691" transform="translate(20.503 39.746)">
        <path id="Path_19924" data-name="Path 19924" d="M3381.194,1414.35s-5.169,1.957-8.664,1.313-9.13,1.675-9.931,3.012-.4,1.789,1.318,2.029,7.926,2.111,11.659.216a31.217,31.217,0,0,1,8.806-2.512Z" transform="translate(-3362.203 -1358.056)" fill="#e49963"/>
        <path id="Path_19925" data-name="Path 19925" d="M3462.556,1211.911s-1.265,43.142-10.74,48.045c-4.675,2.419-25.784,9.069-32.121,10.2,0,0-1.7-1.1-1.9-6.3,0,0,21.69-10.809,24.4-15.68,4.035-7.249-6.012-27.119-.713-34.094S3456.589,1203.276,3462.556,1211.911Z" transform="translate(-3402.71 -1206.935)" fill="#739af0"/>
      </g>
    </g>
    <g id="Group_13706" data-name="Group 13706" transform="translate(1609.462 799.627)">
      <g id="Group_13693" data-name="Group 13693">
        <path id="Path_19926" data-name="Path 19926" d="M2229.706,1234.941l-13.385,159.15s-1.4,9.647,5.774,9.664c11.8.029,58.727,0,58.727,0s-8.88-2.008-8.772-6.526c.126-5.326,15.644-163.794,15.644-163.794Z" transform="translate(-2084.362 -1148.337)" fill="#d86713"/>
        <path id="Path_19927" data-name="Path 19927" d="M2294.984,1393.116c-2.321.007-47.143.148-58.633,0-5.008-.062-5.886-4.452-5.927-7.294a14.26,14.26,0,0,1,.152-2.369l.348-4.136.887-10.543.784-9.315,1.007-11.969.848-10.1,9.51-113.088,57.987-1.5s-6.535,66.318-11.158,114.592c-.516,5.379-1.007,10.536-1.461,15.35q-.221,2.305-.426,4.5c-.429,4.568-.821,8.762-1.162,12.465-.18,1.952-.346,3.765-.5,5.427-.59,6.51-.935,10.667-.94,11.458a6.722,6.722,0,0,0,.113,1.288C2287.37,1392.95,2294.113,1393.116,2294.984,1393.116Z" transform="translate(-2094.717 -1140.585)" fill="#ee9849"/>
        <path id="Path_19928" data-name="Path 19928" d="M1747.066,919.893l32.6,130.961,4.464,17.936,15.185,61h282.114l-55.969-209.895Z" transform="translate(-1742.547 -919.892)" fill="#f1a34f"/>
        <path id="Path_19929" data-name="Path 19929" d="M1734.935,919.892l-4.519,1.506,50.764,212.945,6.008-4.555Z" transform="translate(-1730.416 -919.892)" fill="#ee9849"/>
        <path id="Path_19930" data-name="Path 19930" d="M1917.457,1697.807h280.378l7.743-4.555H1923.465Z" transform="translate(-1866.693 -1483.356)" fill="#d86713"/>
        <rect id="Rectangle_2889" data-name="Rectangle 2889" width="60.706" height="2.885" transform="translate(149.225 252.595)" fill="#f1a34f"/>
        <path id="Path_19931" data-name="Path 19931" d="M2066.554,1091.111l-45.776-168.443H1745.4v-2.775h278.848l45.623,170.844Z" transform="translate(-1741.336 -919.892)" fill="#f1a34f"/>
        <path id="Path_19932" data-name="Path 19932" d="M2292.944,1710.032l-.313,2.205-57.091,11.534.783-9.315.373-4.425Z" transform="translate(-2098.446 -1495.582)" fill="#d86713"/>
        <path id="Path_19933" data-name="Path 19933" d="M2294.989,1802.064c-2.321.007-47.142.147-58.632,0-5.008-.062-5.886-4.452-5.927-7.294l56.821-10.69c-.59,6.51-.936,10.667-.94,11.458a6.724,6.724,0,0,0,.113,1.288C2287.375,1801.9,2294.118,1802.064,2294.989,1802.064Z" transform="translate(-2094.722 -1549.533)" fill="#d86713" opacity="0.4"/>
        <path id="Path_19934" data-name="Path 19934" d="M2022.754,1487.009,1898.826,1529.5l-15.186-61Z" transform="translate(-1842.054 -1319.605)" fill="#d86713" opacity="0.4"/>
        <path id="Path_19935" data-name="Path 19935" d="M1747.064,919.892h278.4l45.171,168.69H1787.626Z" transform="translate(-1742.546 -919.892)" fill="#699dee"/>
      </g>
      <path id="Path_19936" data-name="Path 19936" d="M2446.273,1599.889a9.54,9.54,0,0,0-8.947-7.491,6,6,0,0,0-6.035,7.491,9.54,9.54,0,0,0,8.947,7.491A6,6,0,0,0,2446.273,1599.889Z" transform="translate(-2240.966 -1409.875)" fill="#d86713"/>
      <path id="Path_19937" data-name="Path 19937" d="M2088.46,1105.528H1827.8l-29.52-117.6-2.263-9.018-1.931-7.692-4.527-18.037h256.908l4.971,18.037,2.121,7.692,2.486,9.018Z" transform="translate(-1773.504 -944.149)" fill="#e9f3fe"/>
      <path id="Path_19938" data-name="Path 19938" d="M2051.434,971.221H1794.082l-4.527-18.037h256.908Z" transform="translate(-1773.504 -944.149)" fill="#afcdfb"/>
      <g id="Group_13694" data-name="Group 13694" transform="translate(26.609 14.933)">
        <path id="Path_19939" data-name="Path 19939" d="M1830.219,974.911a1.7,1.7,0,0,0-1.693,2.255,3.08,3.08,0,0,0,2.817,2.255,1.7,1.7,0,0,0,1.693-2.255A3.08,3.08,0,0,0,1830.219,974.911Z" transform="translate(-1828.457 -974.911)" fill="#e9f3fe"/>
        <path id="Path_19940" data-name="Path 19940" d="M1857.822,974.911a1.7,1.7,0,0,0-1.693,2.255,3.08,3.08,0,0,0,2.817,2.255,1.7,1.7,0,0,0,1.693-2.255A3.079,3.079,0,0,0,1857.822,974.911Z" transform="translate(-1848.568 -974.911)" fill="#e9f3fe"/>
        <path id="Path_19941" data-name="Path 19941" d="M1890.362,977.166a3.08,3.08,0,0,0-2.817-2.255,1.7,1.7,0,0,0-1.693,2.255,3.08,3.08,0,0,0,2.817,2.255A1.7,1.7,0,0,0,1890.362,977.166Z" transform="translate(-1870.224 -974.911)" fill="#e9f3fe"/>
      </g>
      <g id="Group_13705" data-name="Group 13705" transform="translate(36.403 36.523)">
        <g id="Group_13695" data-name="Group 13695" transform="translate(168.836 29.545)">
          <path id="Path_19942" data-name="Path 19942" d="M2514.661,1177.01c-1.882-7.548-9.56-13.688-17.115-13.688a10.765,10.765,0,0,0-8.741,3.958,11.407,11.407,0,0,0-1.756,10c1.882,7.548,9.56,13.688,17.115,13.688a10.766,10.766,0,0,0,8.741-3.958A11.407,11.407,0,0,0,2514.661,1177.01Zm-2.627,9.318a9.685,9.685,0,0,1-7.87,3.533c-7.078,0-14.275-5.764-16.041-12.85a10.325,10.325,0,0,1,1.555-9.05,9.683,9.683,0,0,1,7.87-3.533c7.079,0,14.275,5.765,16.041,12.85A10.327,10.327,0,0,1,2512.033,1186.328Z" transform="translate(-2486.619 -1163.322)" fill="#f1a34f"/>
          <path id="Path_19943" data-name="Path 19943" d="M2531.084,1198.64l-1.376-9.622-.109-.435h-3.875l.109.435,3.421,9.622Z" transform="translate(-2515.111 -1181.727)" fill="#f1a34f"/>
          <path id="Path_19944" data-name="Path 19944" d="M2537.165,1231.894l.868,3.483h3.526l-.868-3.483Z" transform="translate(-2523.447 -1213.283)" fill="#f1a34f"/>
        </g>
        <g id="Group_13696" data-name="Group 13696" transform="translate(177.251 62.233)">
          <path id="Path_19945" data-name="Path 19945" d="M2545.665,1297.45c-1.882-7.548-9.559-13.688-17.114-13.688a10.765,10.765,0,0,0-8.741,3.958,11.407,11.407,0,0,0-1.756,10c1.882,7.548,9.56,13.688,17.115,13.688a10.765,10.765,0,0,0,8.741-3.958A11.406,11.406,0,0,0,2545.665,1297.45Zm-2.627,9.317a9.684,9.684,0,0,1-7.87,3.533c-7.079,0-14.275-5.765-16.041-12.85a10.326,10.326,0,0,1,1.555-9.05,9.683,9.683,0,0,1,7.87-3.532c7.078,0,14.274,5.764,16.041,12.85A10.327,10.327,0,0,1,2543.037,1306.767Z" transform="translate(-2517.623 -1283.761)" fill="#f1a34f"/>
          <path id="Path_19946" data-name="Path 19946" d="M2562.088,1319.078l-1.376-9.622-.108-.435h-3.875l.108.435,3.422,9.622Z" transform="translate(-2546.115 -1302.166)" fill="#f1a34f"/>
          <path id="Path_19947" data-name="Path 19947" d="M2568.168,1352.332l.869,3.483h3.526l-.868-3.483Z" transform="translate(-2554.45 -1333.721)" fill="#f1a34f"/>
        </g>
        <g id="Group_13697" data-name="Group 13697" transform="translate(199.801 15.346)">
          <path id="Path_19948" data-name="Path 19948" d="M2647.4,1189.909a1.18,1.18,0,0,0,1.169-1.558,2.134,2.134,0,0,0-1.946-1.558h-27.74a1.179,1.179,0,0,0-1.169,1.558,2.135,2.135,0,0,0,1.946,1.558Z" transform="translate(-2613.068 -1166.224)" fill="#afcdfb"/>
          <path id="Path_19949" data-name="Path 19949" d="M2631.614,1112.561a2.134,2.134,0,0,0-1.946-1.558h-27.74a1.179,1.179,0,0,0-1.169,1.558,2.135,2.135,0,0,0,1.946,1.558h27.74A1.18,1.18,0,0,0,2631.614,1112.561Z" transform="translate(-2600.711 -1111.003)" fill="#afcdfb"/>
          <path id="Path_19950" data-name="Path 19950" d="M2652.856,1211.772a1.179,1.179,0,0,0,1.169-1.558,2.134,2.134,0,0,0-1.945-1.558h-27.74a1.18,1.18,0,0,0-1.169,1.558,2.135,2.135,0,0,0,1.946,1.558Z" transform="translate(-2617.039 -1182.153)" fill="#afcdfb"/>
          <path id="Path_19951" data-name="Path 19951" d="M2659.476,1232.078a2.136,2.136,0,0,0-1.946-1.558h-27.74a1.179,1.179,0,0,0-1.169,1.558,2.135,2.135,0,0,0,1.946,1.558h27.74A1.18,1.18,0,0,0,2659.476,1232.078Z" transform="translate(-2621.011 -1198.082)" fill="#afcdfb"/>
          <path id="Path_19952" data-name="Path 19952" d="M2678.409,1310.348a1.18,1.18,0,0,0,1.169-1.557,2.135,2.135,0,0,0-1.946-1.558h-27.74a1.18,1.18,0,0,0-1.169,1.558,2.135,2.135,0,0,0,1.946,1.557Z" transform="translate(-2635.657 -1253.975)" fill="#afcdfb"/>
          <path id="Path_19953" data-name="Path 19953" d="M2683.86,1332.211a1.179,1.179,0,0,0,1.169-1.558,2.134,2.134,0,0,0-1.946-1.558h-27.74a1.18,1.18,0,0,0-1.169,1.558,2.135,2.135,0,0,0,1.946,1.558Z" transform="translate(-2639.629 -1269.904)" fill="#afcdfb"/>
          <path id="Path_19954" data-name="Path 19954" d="M2690.48,1352.516a2.135,2.135,0,0,0-1.946-1.557h-27.741a1.179,1.179,0,0,0-1.169,1.557,2.135,2.135,0,0,0,1.946,1.558h27.74A1.18,1.18,0,0,0,2690.48,1352.516Z" transform="translate(-2643.6 -1285.833)" fill="#afcdfb"/>
        </g>
        <path id="Path_19955" data-name="Path 19955" d="M2094.08,1064.817l-1.936-7.766a3.549,3.549,0,0,0-3.235-2.589H1866.567a1.961,1.961,0,0,0-1.944,2.589l1.936,7.766a3.549,3.549,0,0,0,3.235,2.589h222.342A1.961,1.961,0,0,0,2094.08,1064.817Z" transform="translate(-1864.544 -1054.462)" fill="#afcdfb"/>
        <path id="Path_19956" data-name="Path 19956" d="M2024.182,1054.463l3.227,12.944H1869.794a3.549,3.549,0,0,1-3.235-2.589l-1.936-7.766a1.961,1.961,0,0,1,1.944-2.589Z" transform="translate(-1864.544 -1054.463)" fill="#f1a34f"/>
        <path id="Path_19957" data-name="Path 19957" d="M2557.05,1069.539l.248.995h2.46l-1.283,4.239h1.3l1.259-4.367-.216-.867Z" transform="translate(-2369.098 -1065.447)" fill="#699dee"/>
        <path id="Path_19958" data-name="Path 19958" d="M2577.049,1069.208c-1.391,0-2.036,1.189-1.658,2.707a3.32,3.32,0,0,0,2.993,2.707c1.4,0,2.036-1.189,1.658-2.707A3.334,3.334,0,0,0,2577.049,1069.208Zm1.091,4.374c-.7,0-1.329-.71-1.568-1.667-.242-.972.033-1.667.721-1.667s1.331.718,1.568,1.667S2578.835,1073.582,2578.14,1073.582Z" transform="translate(-2382.384 -1065.206)" fill="#699dee"/>
        <path id="Path_19959" data-name="Path 19959" d="M2611.139,1080.519a1.719,1.719,0,0,0-1.6-1.338.97.97,0,0,0-.945,1.338,1.718,1.718,0,0,0,1.6,1.339A.973.973,0,0,0,2611.139,1080.519Zm-1.1.658c-.3,0-.57-.307-.658-.658s0-.658.315-.658.57.306.658.658S2610.353,1081.177,2610.039,1081.177Z" transform="translate(-2406.62 -1072.472)" fill="#699dee"/>
        <path id="Path_19960" data-name="Path 19960" d="M2602.5,1069.539l-2.516,5.234h.89l2.516-5.234Z" transform="translate(-2400.377 -1065.447)" fill="#699dee"/>
        <path id="Path_19961" data-name="Path 19961" d="M2596.833,1070.657a1.718,1.718,0,0,0-1.6-1.339.97.97,0,0,0-.944,1.339,1.717,1.717,0,0,0,1.6,1.338A.972.972,0,0,0,2596.833,1070.657Zm-1.757,0c-.09-.359,0-.658.314-.658.3,0,.57.307.658.658s0,.658-.315.658C2595.435,1071.314,2595.164,1071.008,2595.076,1070.657Z" transform="translate(-2396.198 -1065.286)" fill="#699dee"/>
        <g id="Group_13698" data-name="Group 13698" transform="translate(15.829 21.554)">
          <path id="Path_19962" data-name="Path 19962" d="M2056.26,1293.163a2.209,2.209,0,0,0,2.2-2.924h0a4,4,0,0,0-3.654-2.925H1925.153a2.21,2.21,0,0,0-2.2,2.925h0a4,4,0,0,0,3.654,2.924Z" transform="translate(-1922.867 -1245.67)" fill="#afcdfb"/>
          <path id="Path_19963" data-name="Path 19963" d="M2065.179,1328.939a2.21,2.21,0,0,0,2.2-2.925,4,4,0,0,0-3.654-2.925H1934.073a2.21,2.21,0,0,0-2.2,2.925,4,4,0,0,0,3.654,2.925Z" transform="translate(-1929.366 -1271.735)" fill="#afcdfb"/>
          <path id="Path_19964" data-name="Path 19964" d="M2076.691,1363.379a4,4,0,0,0-3.654-2.924H1943.389a2.21,2.21,0,0,0-2.2,2.924,4,4,0,0,0,3.654,2.925h129.648A2.21,2.21,0,0,0,2076.691,1363.379Z" transform="translate(-1936.154 -1298.96)" fill="#afcdfb"/>
          <path id="Path_19965" data-name="Path 19965" d="M2133.879,1165.588a5.022,5.022,0,0,0,4.593,3.676h14.461a2.777,2.777,0,0,0,2.759-3.676l-6.99-28.034a5.021,5.021,0,0,0-4.592-3.676h-14.461a2.778,2.778,0,0,0-2.76,3.676Z" transform="translate(-2071.434 -1133.877)" fill="#afcdfb"/>
          <path id="Path_19966" data-name="Path 19966" d="M2226.1,1165.588a5.021,5.021,0,0,0,4.592,3.676h14.46a2.777,2.777,0,0,0,2.76-3.676l-6.99-28.034a5.021,5.021,0,0,0-4.593-3.676h-14.46a2.778,2.778,0,0,0-2.76,3.676Z" transform="translate(-2138.621 -1133.877)" fill="#afcdfb"/>
          <path id="Path_19967" data-name="Path 19967" d="M2316.589,1165.588a5.022,5.022,0,0,0,4.593,3.676h14.46a2.777,2.777,0,0,0,2.76-3.676l-6.99-28.034a5.021,5.021,0,0,0-4.593-3.676h-14.461a2.777,2.777,0,0,0-2.759,3.676Z" transform="translate(-2204.555 -1133.877)" fill="#afcdfb"/>
        </g>
        <g id="Group_13700" data-name="Group 13700" transform="translate(6.154 21.554)">
          <path id="Path_19968" data-name="Path 19968" d="M1954.436,1163.1l-5.75-23.064a8.417,8.417,0,0,0-7.7-6.162h-48.957c-3.4,0-5.474,2.759-4.625,6.162l5.75,23.064a8.416,8.416,0,0,0,7.7,6.161h48.956C1953.214,1169.264,1955.285,1166.505,1954.436,1163.1Z" transform="translate(-1887.217 -1133.877)" fill="#afcdfb"/>
          <g id="Group_13699" data-name="Group 13699" transform="translate(5.615 6.042)">
            <path id="Path_19969" data-name="Path 19969" d="M1955.445,1158.942a1.062,1.062,0,0,0,1.053-1.4h0a1.921,1.921,0,0,0-1.752-1.4H1909a1.062,1.062,0,0,0-1.053,1.4h0a1.922,1.922,0,0,0,1.752,1.4Z" transform="translate(-1907.906 -1156.137)" fill="#699dee"/>
            <path id="Path_19970" data-name="Path 19970" d="M1960.4,1178.817a1.062,1.062,0,0,0,1.053-1.4h0a1.923,1.923,0,0,0-1.752-1.4h-45.744a1.062,1.062,0,0,0-1.053,1.4h0a1.923,1.923,0,0,0,1.752,1.4Z" transform="translate(-1911.516 -1170.618)" fill="#699dee"/>
            <path id="Path_19971" data-name="Path 19971" d="M1966.409,1197.29a1.922,1.922,0,0,0-1.752-1.4h-45.744a1.062,1.062,0,0,0-1.053,1.4,1.922,1.922,0,0,0,1.752,1.4h45.744A1.062,1.062,0,0,0,1966.409,1197.29Z" transform="translate(-1915.127 -1185.099)" fill="#699dee"/>
            <path id="Path_19972" data-name="Path 19972" d="M1935.255,1218.148h-10.792a1.062,1.062,0,0,0-1.053,1.4,1.923,1.923,0,0,0,1.752,1.4h10.792a1.062,1.062,0,0,0,1.053-1.4A1.922,1.922,0,0,0,1935.255,1218.148Z" transform="translate(-1919.171 -1201.318)" fill="#699dee"/>
          </g>
        </g>
        <path id="Path_19973" data-name="Path 19973" d="M2743.012,1427.294,2740,1415.2a4.414,4.414,0,0,0-4.037-3.232h-25.68a2.441,2.441,0,0,0-2.426,3.232l3.016,12.1a4.415,4.415,0,0,0,4.038,3.232h25.679A2.441,2.441,0,0,0,2743.012,1427.294Z" transform="translate(-2478.9 -1314.936)" fill="#afcdfb"/>
        <g id="Group_13701" data-name="Group 13701" transform="translate(231.799 100.198)">
          <path id="Path_19974" data-name="Path 19974" d="M2743.542,1425.112a.557.557,0,0,0,.552-.736,1.009,1.009,0,0,0-.919-.736h-23.994a.557.557,0,0,0-.552.736,1.008,1.008,0,0,0,.919.736Z" transform="translate(-2718.607 -1423.641)" fill="#699dee"/>
          <path id="Path_19975" data-name="Path 19975" d="M2746.141,1435.537a.557.557,0,0,0,.552-.736,1.008,1.008,0,0,0-.919-.736h-23.994a.557.557,0,0,0-.552.736,1.008,1.008,0,0,0,.919.736Z" transform="translate(-2720.5 -1431.236)" fill="#699dee"/>
          <path id="Path_19976" data-name="Path 19976" d="M2749.294,1445.227a1.008,1.008,0,0,0-.919-.736h-23.994a.557.557,0,0,0-.552.736,1.007,1.007,0,0,0,.918.736h23.994A.557.557,0,0,0,2749.294,1445.227Z" transform="translate(-2722.395 -1438.832)" fill="#699dee"/>
          <path id="Path_19977" data-name="Path 19977" d="M2732.952,1456.167h-5.66a.557.557,0,0,0-.552.736h0a1.008,1.008,0,0,0,.919.736h5.661a.557.557,0,0,0,.552-.736A1.008,1.008,0,0,0,2732.952,1456.167Z" transform="translate(-2724.515 -1447.339)" fill="#699dee"/>
        </g>
        <g id="Group_13704" data-name="Group 13704" transform="translate(26.265 95.874)">
          <g id="Group_13702" data-name="Group 13702" transform="translate(9.467 5.426)">
            <path id="Path_19978" data-name="Path 19978" d="M2046.514,1429.906a.833.833,0,0,0,.828-1.1h0a1.507,1.507,0,0,0-1.378-1.1h-48.9a.834.834,0,0,0-.828,1.1h0a1.506,1.506,0,0,0,1.378,1.1Z" transform="translate(-1996.199 -1427.7)" fill="#f1a34f"/>
            <path id="Path_19979" data-name="Path 19979" d="M2049.878,1443.4a.833.833,0,0,0,.828-1.1h0a1.507,1.507,0,0,0-1.378-1.1h-48.9a.834.834,0,0,0-.828,1.1h0a1.507,1.507,0,0,0,1.379,1.1Z" transform="translate(-1998.651 -1437.532)" fill="#f1a34f"/>
            <path id="Path_19980" data-name="Path 19980" d="M2052.842,1455.289h-48.9a.833.833,0,0,0-.828,1.1,1.508,1.508,0,0,0,1.378,1.1h48.9a.834.834,0,0,0,.828-1.1A1.507,1.507,0,0,0,2052.842,1455.289Z" transform="translate(-2001.211 -1447.801)" fill="#f1a34f"/>
            <path id="Path_19981" data-name="Path 19981" d="M2279.043,1429.906a.833.833,0,0,0,.828-1.1h0a1.508,1.508,0,0,0-1.378-1.1h-48.9a.834.834,0,0,0-.828,1.1h0a1.507,1.507,0,0,0,1.379,1.1Z" transform="translate(-2165.619 -1427.7)" fill="#f1a34f"/>
            <path id="Path_19982" data-name="Path 19982" d="M2282.408,1443.4a.833.833,0,0,0,.828-1.1h0a1.507,1.507,0,0,0-1.378-1.1h-48.9a.833.833,0,0,0-.828,1.1h0a1.506,1.506,0,0,0,1.378,1.1Z" transform="translate(-2168.07 -1437.532)" fill="#f1a34f"/>
            <path id="Path_19983" data-name="Path 19983" d="M2285.372,1455.289h-48.9a.834.834,0,0,0-.828,1.1,1.508,1.508,0,0,0,1.378,1.1h48.9a.834.834,0,0,0,.828-1.1A1.507,1.507,0,0,0,2285.372,1455.289Z" transform="translate(-2170.63 -1447.801)" fill="#f1a34f"/>
            <path id="Path_19984" data-name="Path 19984" d="M2504.418,1429.906a.833.833,0,0,0,.828-1.1h0a1.507,1.507,0,0,0-1.378-1.1h-48.9a.834.834,0,0,0-.828,1.1h0a1.507,1.507,0,0,0,1.378,1.1Z" transform="translate(-2329.825 -1427.7)" fill="#f1a34f"/>
            <path id="Path_19985" data-name="Path 19985" d="M2507.782,1443.4a.833.833,0,0,0,.828-1.1h0a1.507,1.507,0,0,0-1.378-1.1h-48.9a.833.833,0,0,0-.828,1.1h0a1.506,1.506,0,0,0,1.378,1.1Z" transform="translate(-2332.276 -1437.532)" fill="#f1a34f"/>
            <path id="Path_19986" data-name="Path 19986" d="M2512.125,1456.392a1.506,1.506,0,0,0-1.378-1.1h-48.9a.833.833,0,0,0-.828,1.1,1.507,1.507,0,0,0,1.378,1.1h48.9A.834.834,0,0,0,2512.125,1456.392Z" transform="translate(-2334.837 -1447.801)" fill="#f1a34f"/>
          </g>
          <g id="Group_13703" data-name="Group 13703">
            <path id="Path_19987" data-name="Path 19987" d="M2157.533,1429.1H1968.948a4.123,4.123,0,0,1-3.771-3.009l-3.766-15.1a2.693,2.693,0,0,1,.427-2.331,2.533,2.533,0,0,1,2.054-.945h188.585a4.123,4.123,0,0,1,3.771,3.008l3.766,15.1a2.693,2.693,0,0,1-.427,2.331A2.533,2.533,0,0,1,2157.533,1429.1Zm-193.642-20.283a1.454,1.454,0,0,0-1.182.52,1.58,1.58,0,0,0-.225,1.382l3.766,15.1a3,3,0,0,0,2.7,2.171h188.585a1.453,1.453,0,0,0,1.182-.521,1.578,1.578,0,0,0,.225-1.382l-3.766-15.1a3,3,0,0,0-2.7-2.17Z" transform="translate(-1961.317 -1407.709)" fill="#f1a34f"/>
          </g>
        </g>
      </g>
    </g>
    <g id="Group_13707" data-name="Group 13707" transform="translate(1660.844 769.249)">
      <path id="Path_19988" data-name="Path 19988" d="M1940.123,815.767a.389.389,0,0,0-.438-.331l-4.229.591a4.408,4.408,0,0,0-2.161-3.33l-.256-.149a4.412,4.412,0,0,0-4.129-.151l-1.671-4.19a.388.388,0,0,0-.721.287l1.717,4.305a4.344,4.344,0,0,0-.747.68,4.279,4.279,0,0,0-.477.668l-.465.8-3.887-2.258a.388.388,0,1,0-.39.671l3.887,2.258-.264.454a4.365,4.365,0,0,0-.511,1.364l-5.315.743a.388.388,0,0,0,.053.772.413.413,0,0,0,.054,0l5.127-.717a4.419,4.419,0,0,0,2.19,3.87l.256.149a4.416,4.416,0,0,0,4.286.075l1.823,4.571a.388.388,0,0,0,.721-.288l-1.88-4.715a4.367,4.367,0,0,0,1.079-1.241l.264-.454,3.888,2.258a.384.384,0,0,0,.194.053.388.388,0,0,0,.2-.724l-3.887-2.258.465-.8a4.335,4.335,0,0,0,.583-1.918l4.317-.6A.388.388,0,0,0,1940.123,815.767Z" transform="translate(-1919.732 -807.963)" fill="#afcdfb"/>
      <path id="Path_19989" data-name="Path 19989" d="M1949.839,833.536l-1.118,1.925a4.423,4.423,0,0,1-6.029,1.6l-.256-.149a4.423,4.423,0,0,1-1.6-6.029l1.118-1.925a4.263,4.263,0,0,1,.477-.668l7.75,4.5A4.4,4.4,0,0,1,1949.839,833.536Z" transform="translate(-1934.677 -822.772)" fill="#e57970"/>
    </g>
    <g id="Group_13708" data-name="Group 13708" transform="translate(1573.035 816.657)">
      <path id="Path_19990" data-name="Path 19990" d="M1615.751,993.7l-4.884-1.385a4.374,4.374,0,0,0-.326-1.612l-.2-.486,4.16-1.7a.388.388,0,0,0-.294-.718l-4.16,1.7-.351-.856a4.337,4.337,0,0,0-1.165-1.631l2.154-3.789a.388.388,0,0,0-.675-.384l-2.11,3.712a4.408,4.408,0,0,0-3.957-.318l-.274.112a4.41,4.41,0,0,0-2.637,3.18l-4.34-1.231a.388.388,0,0,0-.212.747l4.459,1.265a4.338,4.338,0,0,0,.083,1.007,4.262,4.262,0,0,0,.238.785l.351.856-4.16,1.7a.388.388,0,1,0,.294.718l4.159-1.7.2.486a4.373,4.373,0,0,0,.769,1.237l-2.652,4.665a.388.388,0,1,0,.675.383l2.558-4.5a4.42,4.42,0,0,0,4.4.624l.274-.112a4.417,4.417,0,0,0,2.673-3.352l4.734,1.343a.388.388,0,1,0,.212-.747Z" transform="translate(-1596.199 -982.64)" fill="#afcdfb"/>
      <path id="Path_19991" data-name="Path 19991" d="M1622.648,1002.795l.844,2.06a4.422,4.422,0,0,1-2.409,5.752l-.274.112a4.423,4.423,0,0,1-5.752-2.41l-.844-2.06a4.235,4.235,0,0,1-.238-.786l8.294-3.4A4.4,4.4,0,0,1,1622.648,1002.795Z" transform="translate(-1609.15 -996.794)" fill="#e57970"/>
    </g>
    <g id="Group_13710" data-name="Group 13710" transform="translate(1601.533 967.114)">
      <path id="Path_19992" data-name="Path 19992" d="M1741.245,1537c-.031.021-.066.05-.109.082-1.627,1.245-12.685,8.788-37.529,5.448q-.255,1.432-.476,2.835c-.075.468-.149.934-.217,1.4s-.137.911-.2,1.364l0,.024c-.065.455-.128.905-.188,1.356s-.12.9-.176,1.349-.11.884-.162,1.324l0,.021c-.049.438-.1.873-.147,1.307s-.093.87-.136,1.3-.086.861-.123,1.289-.077.851-.111,1.274c-.026.309-.052.615-.075.922-.021.253-.039.506-.055.758-.016.214-.031.429-.044.644-.008.112-.016.224-.021.337-.022.359-.045.715-.065,1.073-.022.381-.041.763-.06,1.142,0,.073-.006.145-.01.218-.012.284-.025.566-.036.846-.008.223-.018.444-.023.665-.025.712-.042,1.412-.054,2.109-.006.32-.011.638-.014.953,0,.375-.006.745-.006,1.112,0,.03,0,.057,0,.086,0,.361,0,.719.006,1.076q0,.445.011.883c0,.252.008.5.015.751,0,.087,0,.176,0,.263.007.261.015.519.023.777.009.278.019.552.029.825q.02.444.041.882c.015.344.032.683.053,1.022,0,.03,0,.062.005.092.019.334.041.665.063.994.024.348.048.693.076,1.033s.055.684.085,1.021.059.675.093,1.007.064.634.1.948c0,.038.008.076.012.113.034.307.068.61.1.913.039.321.078.639.119.958a.163.163,0,0,1,0,.025c.042.314.082.627.127.939s.088.623.136.933c0,.008,0,.016,0,.025.047.3.094.6.141.9a.04.04,0,0,1,0,.015c.049.305.1.606.153.907s.106.6.161.9c.067.368.135.731.206,1.092.046.226.089.451.135.674.058.282.117.559.176.834l.025.108c.055.259.114.519.172.774.062.283.128.561.2.84q.2.859.424,1.691c.065.254.134.5.2.753s.144.52.218.778c.052.19.107.377.163.565s.109.37.166.556c.043.146.089.29.134.437q.117.381.235.753.243.748.495,1.475c.083.241.167.482.253.719s.171.475.258.708q.357.961.731,1.88c.073.183.149.365.225.547.109.262.218.521.329.778.088.2.175.4.265.6q.72,1.618,1.481,3.1c.1.2.2.387.3.578q.359.679.725,1.333c.083.153.172.305.258.456s.162.281.243.419c.094.163.189.323.281.481.219.363.436.718.657,1.066.074.122.152.242.227.36q.359.561.721,1.1.128.193.258.38.851,1.239,1.7,2.334c.1.135.211.27.315.4q.82,1.036,1.624,1.952c.17.193.341.385.51.571a.584.584,0,0,1,.043.047c.1.109.2.221.3.329.605.655,1.2,1.255,1.771,1.805.095.091.19.182.285.271.187.179.374.351.559.518s.348.315.517.463l.026.022c.169.146.333.29.494.427.278.235.549.459.81.67l.219.172c.475.377.919.709,1.326,1l.357.252c.341.234.65.438.92.608.082.054.16.1.235.149.167.1.314.192.443.268.029.018.058.033.085.047s.055.035.083.05c.3.172.463.251.463.251q2.381-.775,4.612-1.71a60.071,60.071,0,0,0,22.709-16.824c.016-.019.031-.036.045-.056,12.659-14.922,18.1-34.233,20.427-47.019.255-1.416.476-2.752.662-3.992C1749.5,1549.6,1742.027,1538.292,1741.245,1537Z" transform="translate(-1701.2 -1536.998)" fill="#588fe0"/>
      <g id="Group_13709" data-name="Group 13709" transform="translate(2.836 3.795)">
        <path id="Path_19993" data-name="Path 19993" d="M1777.846,1571.592c-2.12,11.656-7.082,29.261-18.623,42.865-.012.018-.026.033-.041.051a54.764,54.764,0,0,1-20.7,15.338q-2.034.853-4.2,1.56s-.149-.072-.422-.229c-.025-.014-.049-.029-.075-.045s-.051-.027-.078-.043c-.118-.069-.252-.151-.4-.244-.069-.042-.14-.086-.214-.135-.247-.155-.529-.341-.839-.554l-.326-.23c-.371-.265-.776-.568-1.209-.911l-.2-.158c-.238-.191-.485-.4-.739-.61-.146-.125-.3-.256-.45-.389l-.024-.02q-.23-.2-.471-.423c-.168-.152-.339-.309-.51-.472-.087-.081-.173-.164-.259-.247-.522-.5-1.063-1.049-1.615-1.646-.093-.1-.185-.2-.277-.3-.013-.016-.026-.03-.04-.043-.154-.17-.31-.344-.465-.521q-.731-.834-1.48-1.779c-.1-.121-.193-.244-.287-.367q-.776-1-1.551-2.128c-.079-.113-.157-.228-.235-.346q-.331-.488-.658-1c-.069-.107-.139-.217-.207-.328-.2-.318-.4-.641-.6-.973-.084-.143-.171-.289-.256-.438-.074-.126-.148-.254-.222-.382s-.16-.276-.235-.416q-.335-.6-.661-1.216c-.093-.174-.183-.348-.274-.527q-.692-1.35-1.35-2.828c-.082-.181-.162-.365-.241-.548q-.153-.352-.3-.709c-.07-.165-.139-.331-.205-.5q-.342-.838-.666-1.714c-.079-.212-.157-.429-.235-.645s-.156-.436-.231-.656q-.229-.662-.451-1.345-.107-.339-.214-.687c-.041-.133-.083-.265-.122-.4-.053-.169-.1-.336-.152-.507s-.1-.342-.148-.515c-.068-.235-.134-.47-.2-.709s-.125-.454-.185-.686q-.2-.759-.387-1.542c-.062-.254-.122-.509-.179-.766-.053-.232-.107-.47-.157-.706l-.023-.1c-.054-.25-.107-.5-.16-.76-.042-.2-.082-.409-.124-.615-.065-.329-.126-.66-.188-1-.05-.272-.1-.547-.146-.823s-.095-.548-.139-.827a.035.035,0,0,0,0-.014c-.043-.274-.086-.547-.129-.822a.206.206,0,0,0,0-.023c-.044-.283-.085-.567-.124-.851s-.077-.57-.116-.856c0-.009,0-.016,0-.023-.038-.291-.074-.581-.109-.873-.034-.276-.065-.552-.1-.832,0-.034-.008-.069-.01-.1-.032-.287-.061-.574-.09-.865s-.059-.609-.084-.918-.053-.617-.078-.93-.047-.625-.069-.942c-.02-.3-.04-.6-.057-.906,0-.027,0-.057,0-.084-.019-.31-.035-.619-.049-.932q-.02-.4-.037-.8c-.009-.249-.019-.5-.027-.752-.007-.236-.014-.471-.021-.708,0-.079,0-.16,0-.24-.007-.226-.013-.454-.014-.684q-.009-.4-.01-.806c0-.325,0-.651-.006-.98,0-.027,0-.052,0-.078,0-.336,0-.673,0-1.015,0-.288.007-.578.013-.869.011-.635.027-1.274.049-1.923.005-.2.014-.4.021-.606.01-.255.022-.511.033-.771,0-.067.006-.131.009-.2.017-.346.035-.694.055-1.041q.027-.488.059-.978c0-.1.012-.2.019-.307.013-.2.026-.392.04-.587.014-.229.031-.46.05-.691.021-.28.044-.559.068-.841.031-.386.065-.774.1-1.161s.073-.781.113-1.175.08-.792.124-1.188.089-.792.134-1.192l0-.02c.047-.4.095-.8.147-1.207s.1-.819.161-1.229.112-.822.171-1.237l0-.022q.088-.619.183-1.243c.062-.421.13-.846.2-1.272.135-.851.28-1.715.434-2.585,22.649,3.046,32.73-3.831,34.214-4.967.039-.029.071-.055.1-.074.713,1.18,7.526,11.491,30.292,16.671C1778.28,1569.083,1778.078,1570.3,1777.846,1571.592Z" transform="translate(-1711.65 -1551.199)" fill="#afcdfb"/>
        <path id="Path_19994" data-name="Path 19994" d="M1748.256,1550.98l-14.4,79.977c-.149-.085-.336-.2-.557-.332-.069-.042-.14-.086-.214-.135-.247-.155-.529-.341-.839-.554l-.326-.23c-.371-.265-.776-.568-1.209-.911l-.2-.158c-.238-.191-.485-.4-.739-.61-.146-.125-.3-.256-.45-.389l-.024-.02q-.23-.2-.471-.423c-.168-.152-.339-.309-.51-.472-.087-.081-.173-.164-.259-.247-.522-.5-1.063-1.049-1.615-1.646-.093-.1-.185-.2-.277-.3-.013-.016-.026-.03-.04-.043-.154-.17-.31-.344-.465-.521q-.731-.834-1.48-1.779c-.1-.121-.193-.244-.287-.367q-.776-1-1.551-2.128c-.079-.113-.157-.228-.235-.346q-.331-.488-.658-1c-.069-.107-.139-.217-.207-.328-.2-.318-.4-.641-.6-.973-.084-.143-.171-.289-.256-.438-.074-.126-.148-.254-.222-.382s-.16-.276-.235-.416q-.335-.6-.661-1.216c-.093-.174-.183-.348-.274-.527q-.692-1.35-1.35-2.828c-.082-.181-.162-.365-.241-.548q-.153-.352-.3-.709c-.07-.165-.139-.331-.205-.5q-.342-.838-.666-1.714c-.079-.212-.157-.429-.235-.645s-.156-.436-.231-.656q-.229-.662-.451-1.345-.107-.339-.214-.687c-.041-.133-.083-.265-.122-.4-.053-.169-.1-.336-.152-.507s-.1-.342-.148-.515c-.068-.235-.134-.47-.2-.709s-.125-.454-.185-.686q-.2-.759-.387-1.542c-.062-.254-.122-.509-.179-.766-.053-.232-.107-.47-.157-.706l-.023-.1c-.054-.25-.107-.5-.16-.76-.042-.2-.082-.409-.124-.615-.065-.329-.126-.66-.188-1-.05-.272-.1-.547-.146-.823s-.095-.548-.139-.827a.035.035,0,0,0,0-.014c-.043-.274-.086-.547-.129-.822a.206.206,0,0,0,0-.023c-.044-.283-.085-.567-.124-.851s-.077-.57-.116-.856c0-.009,0-.016,0-.023-.038-.291-.074-.581-.109-.873-.034-.276-.065-.552-.1-.832,0-.034-.008-.069-.01-.1-.032-.287-.061-.574-.09-.865s-.059-.609-.084-.918-.053-.617-.078-.93-.047-.625-.069-.942c-.02-.3-.04-.6-.057-.906,0-.027,0-.057,0-.084-.019-.31-.035-.619-.049-.932q-.02-.4-.037-.8c-.009-.249-.019-.5-.027-.752-.007-.236-.014-.471-.021-.708,0-.079,0-.16,0-.24-.007-.226-.013-.454-.014-.684q-.009-.4-.01-.806c0-.325,0-.651-.006-.98,0-.027,0-.052,0-.078,0-.336,0-.673,0-1.015,0-.288.007-.578.013-.869.011-.635.027-1.274.049-1.923.005-.2.014-.4.021-.606.01-.255.022-.511.033-.771,0-.067.006-.131.009-.2.017-.346.035-.694.055-1.041q.027-.488.059-.978c0-.1.012-.2.019-.307.013-.2.026-.392.04-.587.014-.229.031-.46.05-.691.021-.28.044-.559.068-.841.031-.386.065-.774.1-1.161s.073-.781.113-1.175.08-.792.124-1.188.089-.792.134-1.192l0-.02c.047-.4.095-.8.147-1.207s.1-.819.161-1.229.112-.822.171-1.237l0-.022q.088-.619.183-1.243c.062-.421.13-.846.2-1.272.135-.851.28-1.715.434-2.585C1738.492,1559.418,1748.256,1550.98,1748.256,1550.98Z" transform="translate(-1711.65 -1550.98)" fill="#699dee"/>
      </g>
    </g>
  </g>
</svg>
