<svg xmlns="http://www.w3.org/2000/svg" width="33.127" height="30.118" viewBox="0 0 33.127 30.118">
  <g id="clock" transform="translate(0 -23.256)">
    <g id="Group_13722" data-name="Group 13722" transform="translate(3.931 26.734)">
      <g id="Group_13721" data-name="Group 13721">
        <path id="Path_20106" data-name="Path 20106" d="M73.39,77.017A12.633,12.633,0,1,0,86.022,89.65,12.647,12.647,0,0,0,73.39,77.017Zm0,22.976A10.343,10.343,0,1,1,83.732,89.65,10.355,10.355,0,0,1,73.39,99.993Z" transform="translate(-60.757 -77.017)" fill="#0c88d6"/>
      </g>
    </g>
    <g id="Group_13724" data-name="Group 13724" transform="translate(14.732 33.413)">
      <g id="Group_13723" data-name="Group 13723" transform="translate(0 0)">
        <path id="Path_20107" data-name="Path 20107" d="M233.031,185.815h-3.053v-4.427a1.145,1.145,0,0,0-2.29,0v5.572a1.145,1.145,0,0,0,1.145,1.145h4.2a1.145,1.145,0,1,0,0-2.29Z" transform="translate(-227.688 -180.243)" fill="#0c88d6"/>
      </g>
    </g>
    <g id="Group_13726" data-name="Group 13726" transform="translate(4.732 47.267)">
      <g id="Group_13725" data-name="Group 13725">
        <path id="Path_20108" data-name="Path 20108" d="M78.488,394.662a1.145,1.145,0,0,0-1.617.085l-3.435,3.817a1.145,1.145,0,1,0,1.7,1.532l3.435-3.816A1.145,1.145,0,0,0,78.488,394.662Z" transform="translate(-73.143 -394.368)" fill="#0c88d6"/>
      </g>
    </g>
    <g id="Group_13728" data-name="Group 13728" transform="translate(22.671 47.268)">
      <g id="Group_13727" data-name="Group 13727">
        <path id="Path_20109" data-name="Path 20109" d="M355.819,398.567l-3.435-3.816a1.145,1.145,0,1,0-1.7,1.532l3.435,3.816a1.145,1.145,0,1,0,1.7-1.532Z" transform="translate(-350.389 -394.371)" fill="#0c88d6"/>
      </g>
    </g>
    <g id="Group_13730" data-name="Group 13730" transform="translate(0 23.256)">
      <g id="Group_13729" data-name="Group 13729" transform="translate(0 0)">
        <path id="Path_20110" data-name="Path 20110" d="M9.884,24.928a5.83,5.83,0,0,0-8.175.008A5.769,5.769,0,0,0,0,29.073a5.681,5.681,0,0,0,1.718,4.056,1.145,1.145,0,0,0,1.611-.008l6.564-6.564a1.145,1.145,0,0,0-.009-1.628Zm-7.24,5.637a3.413,3.413,0,0,1-.355-1.5,3.5,3.5,0,0,1,3.5-3.514,3.576,3.576,0,0,1,1.532.345Z" transform="translate(0 -23.26)" fill="#0c88d6"/>
      </g>
    </g>
    <g id="Group_13732" data-name="Group 13732" transform="translate(22.899 23.256)">
      <g id="Group_13731" data-name="Group 13731" transform="translate(0 0)">
        <path id="Path_20111" data-name="Path 20111" d="M362.437,24.933a5.831,5.831,0,0,0-8.175-.008,1.145,1.145,0,0,0-.008,1.628l6.564,6.564a1.144,1.144,0,0,0,1.611.008,5.676,5.676,0,0,0,1.718-4.055A5.772,5.772,0,0,0,362.437,24.933Zm-.935,5.629-4.674-4.674a3.5,3.5,0,0,1,5.029,3.17A3.412,3.412,0,0,1,361.5,30.562Z" transform="translate(-353.918 -23.256)" fill="#0c88d6"/>
      </g>
    </g>
  </g>
</svg>
