<svg id="Header_image" data-name="Header image" xmlns="http://www.w3.org/2000/svg" xmlns:xlink="http://www.w3.org/1999/xlink" width="507.756" height="485.327" viewBox="0 0 507.756 485.327">
  <defs>
    <clipPath id="clip-path">
      <path id="Path_19795" data-name="Path 19795" d="M555.412,291.995s6.012,50.1,2.673,77.5,4.007,64.133,1.336,78.831-6.012,48.1-2.005,52.11c0,0-12.693,7.348-17.369,0,0,0-10.021-61.462-12.692-82.841s-13.362-101.546-16.035-102.214S518,400.221,516,417.59s-4.677,65.471-2.671,76.16c0,0-16.033,4.677-20.71-.668,0,0,1.336-53.444,0-66.806s-18.706-99.543-10.689-126.265S531.361,223.851,555.412,291.995Z" transform="translate(-479.82 -257.538)" fill="#506ac1"/>
    </clipPath>
    <clipPath id="clip-path-2">
      <path id="Path_19799" data-name="Path 19799" d="M542.708,191.181H515.316l-31.064,18.039-5.011,48.768s4.677,78.833-2,93.53,25.387-2.005,28.726-6.682,6.682-13.36,6.682-13.36-3.341,13.36,16.033,21.378,42.756,12.025,41.42,9.353-8.018-36.745-9.353-44.761.668-46.764.668-46.764S583.793,209.219,542.708,191.181Z" transform="translate(-476.324 -191.181)" fill="#506ac1"/>
    </clipPath>
    <clipPath id="clip-path-3">
      <path id="Path_19801" data-name="Path 19801" d="M523.769,184.05c0,.668,0,12.692,2.671,16.033s-13.36,4.009-13.36,4.009l-11.81-8.144s2.457-11.23,1.789-16.575S523.769,184.05,523.769,184.05Z" transform="translate(-501.27 -177.804)" fill="#fdab7d"/>
    </clipPath>
    <clipPath id="clip-path-4">
      <path id="Path_19808" data-name="Path 19808" d="M527.994,188.373l2.672,8.685L516.637,246.5l-11.385,32.479-7.321-59.2,1.559-23.605,3.118-7.794,12.025,7.349Z" transform="translate(-497.931 -188.373)" fill="#fdfefd"/>
    </clipPath>
  </defs>
  <path id="Path_19786" data-name="Path 19786" d="M605.063,378.915l4-1.142,2.666-61.535c5.145,1.334,10.859-1.714,10.859-1.714,3.05-12.574-8.764-68.775-8.764-68.775l-25.147-12-5.248-4.192c-4.953-10.859,3.239-7.24,6.011-18.86,0,0,.338-1.567.743-4.01.07,0,.138.008.21.008,2.945,0,5.333-2.047,5.333-4.572a4.563,4.563,0,0,0-3.014-4.11A4.269,4.269,0,0,0,594.236,195a4.211,4.211,0,0,0,1.646-3.694,3.873,3.873,0,0,0-.713-1.854,4.257,4.257,0,0,0,1.855-3.862,4.345,4.345,0,0,0-3.071-3.567,3.956,3.956,0,0,0,.813-2.382c0-2.42-2.26-4.382-5.048-4.382-.035,0-.07,0-.107,0-.112-2.333-2.322-4.2-5.036-4.2a5.759,5.759,0,0,0-1.422.178,4.983,4.983,0,0,0-4.865-3.228,5.285,5.285,0,0,0-4.179,1.924,5.51,5.51,0,0,0-8.126.113,5.49,5.49,0,0,0-3.318-1.084A5.1,5.1,0,0,0,558,171.684a5.731,5.731,0,0,0-1.62-.235c-2.788,0-5.048,1.962-5.048,4.382a3.972,3.972,0,0,0,.888,2.482,4.509,4.509,0,0,0-3.556,4.187,4.126,4.126,0,0,0,1.607,3.2,4.069,4.069,0,0,0-.157,7.221A4.273,4.273,0,0,0,547.8,196.6a4.457,4.457,0,0,0,3.293,4.1,6.025,6.025,0,0,0-.14,1.231c0,2.63,1.664,4.762,3.714,4.762a2.967,2.967,0,0,0,1.094-.21,19.436,19.436,0,0,0,1.86,5.544s7.9,9.908,4.468,16.385c-.378.714-32.665,20.383-32.665,20.383-12.954,21.719,11.43,71.823,11.43,71.823l-.761,53.916,7.619,1.142s.953,52.58-1.714,60.772-6.477,69.728-9.145,75.823.953,4.953,1.524,8.954-5.334,6.668-1.714,15.051,19.051,3.811,20.575,1.334-5.145-13.717-3.621-15.812.953-2.478.763-5.906,0-6.858,0-6.858c.381-20,11.24-69.918,11.24-69.918,3.048-5.334,14.859-62.869,14.859-62.869l-6.1,62.869c-6.477,20.384.381,65.344,1.334,67.821a22.686,22.686,0,0,1,1.332,11.811c-.761,5.526,1.905,8,1.905,8l-4.382,8.572c8.954,7.24,42.294,2.287,42.294,2.287s3.619-7.811-8-7.43-14.1-6.669-14.1-6.669c2.858-3.239-1.142-8.572.192-10.1s-1.334-56.772,2.858-71.821S605.063,378.915,605.063,378.915Z" transform="translate(-264.049 -88.181)" fill="#282830"/>
  <path id="Path_19787" data-name="Path 19787" d="M628.616,187.884s2.292-12.135,20.162-8.219,39.868,45.795,14.664,60.669l18.33,9.786s23.371,39.533,17.872,58.321c0,0-6.873,3.915-17.414-1.174l2.292,19.571-5.041,1.567s7.791,43.447-23.828,108.031l4.124,70.064,8.707,17.224s17.872,6.262,6.415,7.436-17.414-.783-18.33-3.131-3.666-14.091-3.666-14.091-1.834,16.048-2.292,14.874-3.666-18.4-3.666-18.4l3.666-8.612L641.9,468.142l-11,27.791s-2.292,22.7-.458,24.267,10.539,4.305,4.582,6.264-16.5,1.174-16.038-2.348c.185-1.431.9-5.376,1.684-9.558,1.146-6.122,2.44-12.754,2.44-12.754l-5.5,13.309s-.458-18.005,5.041-22.7,0-47.362,15.58-59.888l-.916-18.005s-6.415-25.835-16.956-41.1,8.249-45.405,8.249-45.405l-1.376-3.522s-3.666,2.74-10.539-9.785-22.912-54.8-8.707-63.019,21.538-9.395,21.538-9.395-16.038-5.088-15.58-18.005S618.993,184.361,628.616,187.884Z" transform="translate(-213.03 -80.949)" fill="#282830"/>
  <path id="Path_19788" data-name="Path 19788" d="M450.627,428.169s1.029-7.544,1.654-18.761c-3.291,1.727-3.371,1.727-.08,0,1.206-21.693.938-57.123-11.27-78.326l4.478-.636a3.519,3.519,0,0,0,2.9-2.548,3.5,3.5,0,0,1,1.026-1.669c4.54-4.129,28.214-25.929,31.642-34.63,0,0-16.633-34.142-32.683-42.9l-9.045-3.5s13.132-18.092,11.673-37.06S438.006,165.1,421.7,178.154c0,0-9.9-7.624-18.367,8.134s-4.367,62.723-4.367,62.723-15.462,18.375-13.712,59.23c0,0-11.378,46.979-12.254,47.854s-7.293,10.5-2.916,19.258,6.712,2.625,6.712,2.625,4.961-5.544,2.043-11.965c0,0,.883-5.836-.576-8.754L395.2,314.652v6.858s-16.849,29.717-4.025,89.585c.038.015,0,.032.043.048,1.182,5.518,2.573,11.287,4.3,17.319a584.245,584.245,0,0,1,9.318,91.921l-9.055,17.511s-9.928,1.166-6.134,3.209,11.963.292,11.963.292l4.96-11.673L407.73,541.4c2.626-.292,5.253-17.8,5.253-17.8l-4.085-5.253s14.789-54.314,4.377-90.756c-.163-.571.538-4.695,1.507-10.741a69.725,69.725,0,0,0,15.126-.343h0c1.75-.235,1.922-.235.158,0,2.4,8.186,4.877,14.774,7.138,17.5l25.1,82.585-1.461,19.842s-5.251,1.752-.874,3.211,10.213,1.167,10.213-2.044-3.209-21.01-3.209-22.177S467.26,446.263,450.627,428.169ZM435.08,320l14.962-42.119,17.217,16.341L445.374,322.24Z" transform="translate(-368.57 -83.911)" fill="#282830"/>
  <path id="Path_19789" data-name="Path 19789" d="M555.563,537.566c-15.121-1.2-26.4-10.561-26.4-10.561l6.72-156.241,3.6-.48-1.2-51.6a53.725,53.725,0,0,0,7.918.706,6.944,6.944,0,0,0,6.825-5.363c6.265-26.865-1.542-53.673-5.28-64.165a11.233,11.233,0,0,0-6.032-6.5l-20.623-9.143-2.728-4.092-.655-6.384a6.588,6.588,0,0,1,1.737-5.165,6.59,6.59,0,0,0,1.664-3.314l1.4-7.7.053,0a4.937,4.937,0,0,0,4.68-5.16,5.261,5.261,0,0,0-2.4-4.507c7.19-22.225-4.558-26.814-4.558-26.814-22.081-9.12-30.24,5.04-30.24,5.04-6.24-.959-5.521,7.679-5.521,7.679l-.375,9.923a21.527,21.527,0,0,0,.185,3.647,5.073,5.073,0,0,0-3.649,5.031,4.937,4.937,0,0,0,4.68,5.16,4.261,4.261,0,0,0,1.141-.162l1.769,7.824a5.848,5.848,0,0,0,1.319,2.578l1.329,1.506a4.442,4.442,0,0,1,1.089,3.381l-.768,7.673-2.879,3.6-21.191,9.395a11.234,11.234,0,0,0-6.032,6.5c-3.737,10.492-11.545,37.3-5.279,64.165a6.944,6.944,0,0,0,6.827,5.363,53.723,53.723,0,0,0,7.916-.706l-1.2,51.6,3.6.48,6.72,156.241s-11.28,9.36-26.4,10.561c0,0-4.08.24-2.641,4.56,0,0,6.72,3.359,25.442,1.679s23.04-1.439,23.04-1.439l-5.04-14.161,1.919-4.8-2.4-7.44,10.8-136.036,10.8,136.036-2.4,7.44,1.92,4.8-5.041,14.161s4.32-.24,23.042,1.439,25.44-1.679,25.44-1.679C559.641,537.806,555.563,537.566,555.563,537.566Z" transform="translate(-314.134 -88.18)" fill="#282830"/>
  <g id="Group_13649" data-name="Group 13649" transform="translate(159.44 38.707)">
    <path id="Path_19791" data-name="Path 19791" d="M515.441,398.875c0,.668,4.009,13.36,1.338,14.03s-9.353.668-10.691,0-2.671-.669-5.344.668-26.722,2-28.058,0,18.706-6.682,26.722-14.03S515.441,398.875,515.441,398.875Z" transform="translate(-458.768 24.886)" fill="#17161d"/>
    <path id="Path_19792" data-name="Path 19792" d="M531.55,403.065s13.36,8.685,12.692,11.358-17.369,4.675-24.051,2.671-10.019-2.671-5.344-8.016S524.2,399.726,531.55,403.065Z" transform="translate(-432.12 28.712)" fill="#17161d"/>
    <g id="Group_13642" data-name="Group 13642" transform="translate(25.841 190.221)">
      <path id="Path_19793" data-name="Path 19793" d="M555.412,291.995s6.012,50.1,2.673,77.5,4.007,64.133,1.336,78.831-6.012,48.1-2.005,52.11c0,0-12.693,7.348-17.369,0,0,0-10.021-61.462-12.692-82.841s-13.362-101.546-16.035-102.214S518,400.221,516,417.59s-4.677,65.471-2.671,76.16c0,0-16.033,4.677-20.71-.668,0,0,1.336-53.444,0-66.806s-18.706-99.543-10.689-126.265S531.361,223.851,555.412,291.995Z" transform="translate(-479.82 -257.538)" fill="#506ac1"/>
      <g id="Group_13641" data-name="Group 13641" clip-path="url(#clip-path)">
        <path id="Path_19794" data-name="Path 19794" d="M567.962,320.972s-40.752-2.227-52.778-27.836h0s-28.726,30.509-41.42,21.156S521.2,264.187,521.2,264.187,573.975,292.914,567.962,320.972Z" transform="translate(-485.021 -253.113)" fill="#20367b" opacity="0.35" style="mix-blend-mode: multiply;isolation: isolate"/>
      </g>
    </g>
    <g id="Group_13644" data-name="Group 13644" transform="translate(20.019 79.706)">
      <path id="Path_19796" data-name="Path 19796" d="M542.708,191.181H515.316l-31.064,18.039-5.011,48.768s4.677,78.833-2,93.53,25.387-2.005,28.726-6.682,6.682-13.36,6.682-13.36-3.341,13.36,16.033,21.378,42.756,12.025,41.42,9.353-8.018-36.745-9.353-44.761.668-46.764.668-46.764S583.793,209.219,542.708,191.181Z" transform="translate(-476.324 -191.181)" fill="#506ac1"/>
      <g id="Group_13643" data-name="Group 13643" clip-path="url(#clip-path-2)">
        <path id="Path_19797" data-name="Path 19797" d="M476.27,252.607s13.362-2.671,18.039-4.009c0,0,67.474,30.063,78.831,22.715s-31.4-20.042-31.4-20.042L480.947,233.9Z" transform="translate(-476.359 -162.753)" fill="#20367b" opacity="0.35" style="mix-blend-mode: multiply;isolation: isolate"/>
        <path id="Path_19798" data-name="Path 19798" d="M561.051,219.855c-.944-.06-6.682,24.417-12.694,24.567s-18.037.152-18.037.152l-2.005-3.341s-26.233-1.477-29.4-2c-8.016-1.337-10.021-28.393-10.021-28.393s-12.025,22.379-13.36,27.055,5.344,15.589,5.344,15.589,72.819,15.142,79.5,2.45S571.74,220.523,561.051,219.855Z" transform="translate(-476.964 -178.101)" fill="#20367b" opacity="0.35" style="mix-blend-mode: multiply;isolation: isolate"/>
      </g>
    </g>
    <g id="Group_13646" data-name="Group 13646" transform="translate(61.566 57.427)">
      <path id="Path_19800" data-name="Path 19800" d="M523.769,184.05c0,.668,0,12.692,2.671,16.033s-13.36,4.009-13.36,4.009l-11.81-8.144s2.457-11.23,1.789-16.575S523.769,184.05,523.769,184.05Z" transform="translate(-501.27 -177.804)" fill="#fdab7d"/>
      <g id="Group_13645" data-name="Group 13645" clip-path="url(#clip-path-3)">
        <ellipse id="Ellipse_401" data-name="Ellipse 401" cx="18.038" cy="17.37" rx="18.038" ry="17.37" transform="translate(-4.892 -19.141)" fill="#fdab7d" opacity="0.37" style="mix-blend-mode: multiply;isolation: isolate"/>
      </g>
    </g>
    <ellipse id="Ellipse_402" data-name="Ellipse 402" cx="21.378" cy="28.393" rx="21.378" ry="28.393" transform="translate(53.333 12.9)" fill="#fd907e"/>
    <path id="Path_19802" data-name="Path 19802" d="M541.155,182.943l2.01-2.67s1.337-16.7-2-21.38-14.7-13.995-23.383-15.365c-12.692-2-5.344,11.358-12.025,8.685s-14.7,5.344-12.025,14.03,4.677,18.037,4.677,18.037-.668-15.365,2.671-14.028,10.689,7.348,20.042-.668C525.9,165.482,539.813,160.9,541.155,182.943Z" transform="translate(-445.073 -143.322)" fill="#1f3445"/>
    <path id="Path_19803" data-name="Path 19803" d="M521.215,170.1c-.916,3.338-.218,6.439,1.562,6.928s3.965-1.82,4.883-5.156.218-6.439-1.562-6.927S522.133,166.766,521.215,170.1Z" transform="translate(-426.7 -128.976)" fill="#fdab7d"/>
    <path id="Path_19804" data-name="Path 19804" d="M500.408,170.1c.918,3.338.218,6.439-1.561,6.928s-3.965-1.82-4.883-5.156-.218-6.439,1.561-6.927S499.492,166.766,500.408,170.1Z" transform="translate(-444.835 -128.976)" fill="#fdab7d"/>
    <g id="Group_13648" data-name="Group 13648" transform="translate(56.005 75.03)">
      <path id="Path_19805" data-name="Path 19805" d="M527.994,188.373l2.672,8.685L516.637,246.5l-11.385,32.479-7.321-59.2,1.559-23.605,3.118-7.794,12.025,7.349Z" transform="translate(-497.931 -188.373)" fill="#fdfefd"/>
      <g id="Group_13647" data-name="Group 13647" clip-path="url(#clip-path-4)">
        <path id="Path_19806" data-name="Path 19806" d="M510.5,192.786s5.344,6.68,4.007,7.348-2.671,2.673-4.677,2.673-4.675-3.341-4.675-3.341Z" transform="translate(-493.126 -185.436)" fill="#ffa21f"/>
        <path id="Path_19807" data-name="Path 19807" d="M511.964,198.8l.334,26.369-6.514,29.248-3.841-8.184.668-22.046Z" transform="translate(-495.262 -181.433)" fill="#ffa21f"/>
      </g>
    </g>
    <path id="Path_19809" data-name="Path 19809" d="M527.594,190.379s17.371,21.378,13.362,22.046-10.689,3.341-9.353,6.68,8.018,12.026-2.673,18.039-27.39,40.084-29.394,75.492C499.536,312.635,503.421,229.414,527.594,190.379Z" transform="translate(-440.858 -112.009)" fill="#6181d8"/>
    <path id="Path_19810" data-name="Path 19810" d="M507.13,190.379s-21.3,17.486-17.561,19.068,9.621,5.732,7.545,8.67-10.592,9.833-1.594,18.165,17.324,45.354,11.044,80.257C506.564,316.539,521.568,233.964,507.13,190.379Z" transform="translate(-447.784 -112.009)" fill="#6181d8"/>
    <path id="Path_19811" data-name="Path 19811" d="M504.666,229.911l9.1.3-4.55,12.826-9.479-.8Z" transform="translate(-440.725 -85.702)" fill="#fff"/>
    <path id="Path_19812" data-name="Path 19812" d="M509.578,231.978s18.208-4.144,25.5.59-.728,16.092-10.749,14.086-19.374-3.341-19.374-3.341Z" transform="translate(-437.255 -85.443)" fill="#fdab7d"/>
    <path id="Path_19813" data-name="Path 19813" d="M542.682,195.73c-4-5.116-5.729-4.568-2.671-4.009,7.132,1.307,29.124,13.728,34.405,22.715,5.754,9.791,7.348,60.794-10.689,74.154-15.041,11.142-78.833-14.7-78.833-14.7l16.035-6.68s29.394,2,38.079,4.009,12.852-31.817,14.363-35.408C564.06,210.428,542.682,195.73,542.682,195.73Z" transform="translate(-450.602 -111.347)" fill="#506ac1"/>
    <path id="Path_19814" data-name="Path 19814" d="M520.308,191.983s-29.728,10.689-37.746,22.047-20.042,46.1-18.037,54.78,25.387,12,58.789-1.351l5.344-13.345s-31.512,5.191-32.067,1.336C490.245,211.357,520.308,191.983,520.308,191.983Z" transform="translate(-464.304 -110.941)" fill="#506ac1"/>
    <path id="Path_19815" data-name="Path 19815" d="M498.866,235.726s-5.276-9.043-14.033-12.328c-5.345-2-13.7-.335-14.363,5.011s7.022,8.849,12.864,8.1S498.866,235.726,498.866,235.726Z" transform="translate(-460.227 -90.581)" fill="#fdab7d"/>
    <path id="Path_19816" data-name="Path 19816" d="M538.881,164.514s-2.053,19.832-10.3,19.832-11.247-3.749-19.494,0-12.294-18.18-12.294-18.18l-1.2-.565s3,8.247,1.5,12.746c0,0-.749,15,1.5,17.244s17.994,10.5,21.743,9.748,19.494-10.5,20.244-12.746-.749-15-.749-15-.749-8.247.749-12.746S538.881,164.514,538.881,164.514Z" transform="translate(-443.483 -130.387)" fill="#1f3445"/>
  </g>
  <g id="Group_13651" data-name="Group 13651" transform="translate(75.331)">
    <path id="Path_19817" data-name="Path 19817" d="M713.267,457.489l-159.531-157L585.018,268.7l159.532,157a22.3,22.3,0,0,1,.253,31.537h0A22.3,22.3,0,0,1,713.267,457.489Z" transform="translate(-320.682 -21.179)" fill="#f9c201"/>
    <path id="Path_19818" data-name="Path 19818" d="M685.312,439.308,581.7,337.347l40.554-41.207L725.864,398.1a28.91,28.91,0,0,1,.328,40.88h0A28.908,28.908,0,0,1,685.312,439.308Z" transform="translate(-302.07 -2.923)" fill="#0094c4"/>
    <g id="Group_13650" data-name="Group 13650">
      <path id="Path_19819" data-name="Path 19819" d="M459.845,384.54c-60.7-59.735-61.485-157.715-1.75-218.416s157.717-61.484,218.416-1.749S738,322.092,678.261,382.791,520.544,444.275,459.845,384.54Zm201.6-204.859c-52.26-51.429-136.617-50.755-188.048,1.506s-50.753,136.619,1.507,188.048,136.617,50.755,188.046-1.506S713.709,231.11,661.449,179.681Z" transform="translate(-413.802 -120.082)" fill="#f9c201"/>
    </g>
  </g>
</svg>
