<svg xmlns="http://www.w3.org/2000/svg" width="23.58" height="30.956" viewBox="0 0 23.58 30.956">
  <g id="duration" transform="translate(-61)">
    <path id="Path_20112" data-name="Path 20112" d="M84.58,1.814V0H61V1.814h1.814v11.1a2.72,2.72,0,0,0,0,5.129v11.1H61v1.814H84.58V29.142H82.766v-11.1a2.72,2.72,0,0,0,0-5.129V1.814ZM77.324,6.409a5.694,5.694,0,0,1-.246,1.481,28.923,28.923,0,0,1-8.579,0,5.574,5.574,0,0,1-.245-1.481,4.535,4.535,0,1,1,9.069,0ZM72.79,29.141a4.532,4.532,0,0,1-4.027-2.486,28.879,28.879,0,0,1,8.053,0A4.532,4.532,0,0,1,72.79,29.141Zm-.907-11.665v7.1a30.781,30.781,0,0,0-3.613.321C68.095,22.539,70.119,19.266,71.883,17.476Zm5.427,7.418a30.781,30.781,0,0,0-3.613-.321v-7.1C75.859,19.653,77.461,22.866,77.31,24.894ZM72.79,14.32a14.369,14.369,0,0,1-3.524-4.5,30.736,30.736,0,0,0,3.524.2,30.731,30.731,0,0,0,3.53-.205q-.119.239-.254.486A14.174,14.174,0,0,1,72.79,14.32Zm-9.069.251a.907.907,0,1,1-.907.907.908.908,0,0,1,.907-.907Zm.907,3.472a2.72,2.72,0,0,0,0-5.129V1.814h3.742a6.42,6.42,0,0,0-1.928,4.595,10.707,10.707,0,0,0,1.484,4.771,16.072,16.072,0,0,0,3.428,4.3,16.072,16.072,0,0,0-3.428,4.3,10.708,10.708,0,0,0-1.484,4.771,6.42,6.42,0,0,0,1.928,4.6H64.628Zm17.231-1.658a.907.907,0,1,1,.907-.907A.908.908,0,0,1,81.859,16.385Zm-.907-3.472a2.72,2.72,0,0,0,0,5.129v11.1H77.21a6.42,6.42,0,0,0,1.928-4.6,10.7,10.7,0,0,0-1.482-4.768,16.068,16.068,0,0,0-3.431-4.3,16.069,16.069,0,0,0,3.431-4.3,10.7,10.7,0,0,0,1.482-4.768A6.42,6.42,0,0,0,77.21,1.814h3.742Z" fill="#9c0"/>
  </g>
</svg>
