<svg xmlns="http://www.w3.org/2000/svg" width="31.202" height="30.046" viewBox="0 0 31.202 30.046">
  <g id="time" transform="translate(0 -9.405)">
    <g id="Group_13734" data-name="Group 13734" transform="translate(5.984 9.405)">
      <g id="Group_13733" data-name="Group 13733" transform="translate(0 0)">
        <path id="Path_20113" data-name="Path 20113" d="M118.6,14.252l-.172-2.905a.868.868,0,0,0-1.732.1l.049.854a14.635,14.635,0,0,0-19.079,1.388.871.871,0,0,0,0,1.229.889.889,0,0,0,1.229,0,12.888,12.888,0,0,1,16.634-1.358l-.749.049a.867.867,0,0,0,.049,1.732c.018,0,2.955-.172,2.955-.172A.87.87,0,0,0,118.6,14.252Z" transform="translate(-97.414 -9.405)" fill="#fb4d2b"/>
      </g>
    </g>
    <g id="Group_13736" data-name="Group 13736" transform="translate(0 19.598)">
      <g id="Group_13735" data-name="Group 13735" transform="translate(0 0)">
        <path id="Path_20114" data-name="Path 20114" d="M13.24,192.219A12.9,12.9,0,0,1,3.756,178.5l.412.62a.914.914,0,0,0,1.2.246.856.856,0,0,0,.246-1.2l-1.6-2.433a.864.864,0,0,0-1.2-.252l-2.426,1.6a.865.865,0,1,0,.952,1.444l.719-.473A14.641,14.641,0,0,0,12.792,193.89a.925.925,0,0,0,1.063-.614A.849.849,0,0,0,13.24,192.219Z" transform="translate(0 -175.341)" fill="#fb4d2b"/>
      </g>
    </g>
    <g id="Group_13738" data-name="Group 13738" transform="translate(19.272 19.597)">
      <g id="Group_13737" data-name="Group 13737">
        <path id="Path_20115" data-name="Path 20115" d="M325.164,175.973a.868.868,0,0,0-1.677.448,12.911,12.911,0,0,1-7.144,15.08l.332-.67a.865.865,0,0,0-1.548-.774l-1.3,2.6a.862.862,0,0,0,.387,1.161l2.6,1.3a.951.951,0,0,0,1.161-.387.845.845,0,0,0-.387-1.161l-.78-.393A14.629,14.629,0,0,0,325.164,175.973Z" transform="translate(-313.732 -175.33)" fill="#fb4d2b"/>
      </g>
    </g>
    <g id="Group_13740" data-name="Group 13740" transform="translate(9.751 20.032)">
      <g id="Group_13739" data-name="Group 13739">
        <path id="Path_20116" data-name="Path 20116" d="M161.565,189.512l1.56-1.628a4.243,4.243,0,0,0,1.591-2.838,2.7,2.7,0,0,0-2.807-2.641,4,4,0,0,0-3.17,1.9l1.542.915c.485-.774,1-1.161,1.542-1.161,1.05,0,1.014.725,1.014,1.014,0,.762-.909,1.616-1.419,2.138l-2.531,2.592v1.431h6.087v-1.726Z" transform="translate(-158.739 -182.405)" fill="#fb4d2b"/>
      </g>
    </g>
    <g id="Group_13742" data-name="Group 13742" transform="translate(17.104 20.228)">
      <g id="Group_13741" data-name="Group 13741">
        <path id="Path_20117" data-name="Path 20117" d="M283.759,190.507V189H281.91v1.5h-1.222l2.924-4.9h-2.095l-3.078,5.1v1.468h3.471v2.064h1.849v-2.064h.977v-1.665Z" transform="translate(-278.439 -185.605)" fill="#fb4d2b"/>
      </g>
    </g>
    <g id="Group_13744" data-name="Group 13744" transform="translate(23.928 18.097)">
      <g id="Group_13743" data-name="Group 13743">
        <path id="Path_20118" data-name="Path 20118" d="M391.112,151.925a1.077,1.077,0,0,0-.792.356v-1.376h-.78v3.858h.78v-1.511c0-.221.055-.663.584-.663.313,0,.473.215.473.645v1.53h.78v-1.7A1.064,1.064,0,0,0,391.112,151.925Z" transform="translate(-389.539 -150.905)" fill="#fb4d2b"/>
      </g>
    </g>
  </g>
</svg>
