<svg id="Custom_Node.js_development" data-name="Custom Node.js development" xmlns="http://www.w3.org/2000/svg" width="45.553" height="46.166" viewBox="0 0 45.553 46.166">
  <path id="Path_20356" data-name="Path 20356" d="M45.552,9.893c0-.011,0-.021,0-.032a.867.867,0,0,0-.014-.11.02.02,0,0,0,0,0A.833.833,0,0,0,45.5,9.63L45.5,9.609a.886.886,0,0,0-.045-.1l0-.008a.916.916,0,0,0-.063-.1l-.017-.022a.908.908,0,0,0-.077-.09h0L36.269.264h0a.858.858,0,0,0-.09-.077L36.155.169a.946.946,0,0,0-.1-.063l-.009,0a.932.932,0,0,0-.1-.045L35.923.049a.838.838,0,0,0-.115-.032H35.8A.907.907,0,0,0,35.693,0L35.66,0H10.374a.9.9,0,0,0-.9.9v4.61h-6.7A2.775,2.775,0,0,0,0,8.284V18.977a2.775,2.775,0,0,0,2.772,2.772h6.7V45.264a.9.9,0,0,0,.9.9H44.651a.9.9,0,0,0,.9-.9V9.923c0-.01,0-.02,0-.03ZM36.533,3.08l5.94,5.941h-5.94ZM11.276,44.362V21.749h.314a.9.9,0,0,0,0-1.8H2.772a.969.969,0,0,1-.968-.968V8.284a.969.969,0,0,1,.968-.968H18.787a.969.969,0,0,1,.968.968V18.977a.969.969,0,0,1-.968.968.9.9,0,1,0,0,1.8h.045a2.775,2.775,0,0,0,2.727-2.772V8.284a2.775,2.775,0,0,0-2.772-2.772H11.275V1.8H34.729V9.923a.9.9,0,0,0,.9.9h8.118V44.362Zm0,0" fill="#037ca4"/>
  <path id="Path_20357" data-name="Path 20357" d="M226,302.929h18.041a.9.9,0,0,0,0-1.8H226a.9.9,0,0,0,0,1.8Zm0,0" transform="translate(-204.798 -273.974)" fill="#7e75e4"/>
  <path id="Path_20358" data-name="Path 20358" d="M162.647,288.439a.9.9,0,0,0,.638-1.54l-2.041-2.041,2.1-2.1a.9.9,0,0,0-1.276-1.276l-2.734,2.734a.9.9,0,0,0,0,1.276l2.679,2.679A.9.9,0,0,0,162.647,288.439Zm0,0" transform="translate(-144.724 -255.866)" fill="#7e75e4"/>
  <path id="Path_20359" data-name="Path 20359" d="M400.759,381.529a.9.9,0,1,0-1.276,1.276l2.041,2.041-2.1,2.1a.9.9,0,0,0,1.276,1.276l2.734-2.734a.9.9,0,0,0,0-1.276Zm0,0" transform="translate(-363.173 -346.888)" fill="#7e75e4"/>
  <path id="Path_20360" data-name="Path 20360" d="M238.624,341.145H226a.9.9,0,1,0,0,1.8h12.629a.9.9,0,0,0,0-1.8Zm0,0" transform="translate(-204.797 -310.385)" fill="#7e75e4"/>
  <path id="Path_20361" data-name="Path 20361" d="M238.624,381.16H226a.9.9,0,0,0,0,1.8h12.629a.9.9,0,0,0,0-1.8Zm0,0" transform="translate(-204.797 -346.792)" fill="#7e75e4"/>
  <path id="Path_20362" data-name="Path 20362" d="M184.013,421.07H165.972a.9.9,0,0,0,0,1.8h18.041a.9.9,0,0,0,0-1.8Zm0,0" transform="translate(-150.186 -383.103)" fill="#7e75e4"/>
  <path id="Path_20363" data-name="Path 20363" d="M43.526,101.043a.9.9,0,0,0-.9.9v5.427a.889.889,0,0,1-.888.888h-.029a.889.889,0,0,1-.888-.888.9.9,0,0,0-1.8,0,2.7,2.7,0,0,0,2.692,2.692h.029a2.7,2.7,0,0,0,2.692-2.692v-5.427a.9.9,0,0,0-.9-.9Zm0,0" transform="translate(-35.498 -91.932)" fill="#7e75e4"/>
  <path id="Path_20364" data-name="Path 20364" d="M124.824,107.441a2.81,2.81,0,0,0-3.067-2.728.88.88,0,1,1,0-1.76h1.181a.9.9,0,0,0,1.8-.119v-.783a.9.9,0,0,0-.9-.9h-2.075a2.684,2.684,0,1,0,0,5.368c.932,0,1.263.5,1.263.924s-.331.925-1.263.925h-.9a.9.9,0,0,0-1.8.021v.881a.9.9,0,0,0,.9.9h1.8a2.81,2.81,0,0,0,3.067-2.729Zm0,0" transform="translate(-108.316 -92.028)" fill="#7e75e4"/>
  <path id="Path_20365" data-name="Path 20365" d="M158.479,222.3a.872.872,0,0,0,.137.112.892.892,0,0,0,.156.083.934.934,0,0,0,.169.051.9.9,0,0,0,.176.018.909.909,0,0,0,.176-.018.97.97,0,0,0,.169-.051.911.911,0,0,0,.155-.083.872.872,0,0,0,.137-.112.9.9,0,0,0,.2-.293.9.9,0,0,0,0-.69.937.937,0,0,0-.083-.156.956.956,0,0,0-.113-.137.853.853,0,0,0-.137-.112.909.909,0,0,0-.155-.083.939.939,0,0,0-.169-.051.887.887,0,0,0-.353,0,.906.906,0,0,0-.169.051.89.89,0,0,0-.156.083.853.853,0,0,0-.137.112.9.9,0,0,0-.112.137.973.973,0,0,0-.083.156.908.908,0,0,0-.051.169.858.858,0,0,0,0,.353.9.9,0,0,0,.051.169.945.945,0,0,0,.083.156A.891.891,0,0,0,158.479,222.3Zm0,0" transform="translate(-143.949 -200.855)" fill="#7e75e4"/>
</svg>
