<svg xmlns="http://www.w3.org/2000/svg" width="124.322" height="94.087" viewBox="0 0 124.322 94.087">
  <g id="Layer_2" data-name="Layer 2" transform="translate(-9.944 -8.072)">
    <g id="Layer_1" data-name="Layer 1" transform="translate(9.944 8.072)">
      <path id="Path_11273" data-name="Path 11273" d="M101.739,91.3H33.5L58.552,12.831H126.8Z" transform="translate(-14.483 2.791)" fill="#e8ecfa"/>
      <path id="Path_11274" data-name="Path 11274" d="M95.274,84.884H27.03L52.086,6.413h68.244Z" transform="translate(-15.89 1.395)" fill="#dadaf5"/>
      <path id="Path_11275" data-name="Path 11275" d="M107.336,7.808,109.833,0H41.583L39.092,7.808Z" transform="translate(-13.266)" fill="#e8ecfa"/>
      <path id="Path_11276" data-name="Path 11276" d="M43.133,6.413,20.516,77.393H88.76l22.617-70.98Z" transform="translate(-17.307 1.395)" fill="#fbf5ff"/>
      <ellipse id="Ellipse_69" data-name="Ellipse 69" cx="1.426" cy="1.091" rx="1.426" ry="1.091" transform="translate(29.806 4.668) rotate(-45)" fill="#5669ef"/>
      <ellipse id="Ellipse_70" data-name="Ellipse 70" cx="1.426" cy="1.091" rx="1.426" ry="1.091" transform="translate(35.19 4.665) rotate(-45)" fill="#fa4a56"/>
      <ellipse id="Ellipse_71" data-name="Ellipse 71" cx="1.426" cy="1.091" rx="1.426" ry="1.091" transform="translate(40.581 4.663) rotate(-45)" fill="#fec95c"/>
      <path id="Path_11277" data-name="Path 11277" d="M53.437,64.672H27.523l9.518-29.8H62.954Z" transform="translate(-15.783 7.585)" fill="#f7f8fd"/>
      <path id="Path_11278" data-name="Path 11278" d="M92.785,28l-.7,2.226H36.9L37.614,28Z" transform="translate(-13.743 6.091)" fill="#a0e1ef"/>
      <path id="Path_11279" data-name="Path 11279" d="M83.43,39.416l-.736,2.3H59.529l.736-2.3Z" transform="translate(-8.821 8.573)" fill="#a0e1ef"/>
      <path id="Path_11280" data-name="Path 11280" d="M67.194,43.968l-.742,2.291H58.077l.729-2.291Z" transform="translate(-9.137 9.563)" fill="#a0e1ef"/>
      <path id="Path_11281" data-name="Path 11281" d="M79.964,43.968l-.729,2.291H67.3l.742-2.291Z" transform="translate(-7.13 9.563)" fill="#5669ef"/>
      <path id="Path_11282" data-name="Path 11282" d="M66.467,18.99l-.716,2.226H39.765l1.562-2.226Z" transform="translate(-13.12 4.13)" fill="#5669ef"/>
      <path id="Path_11283" data-name="Path 11283" d="M65.178,23.023l-.716,2.226H38.483l.71-2.226Z" transform="translate(-13.399 5.008)" fill="#a0e1ef"/>
      <path id="Path_11284" data-name="Path 11284" d="M67.749,14.956l-.7,2.233h-26l.71-2.233Z" transform="translate(-12.841 3.253)" fill="#a0e1ef"/>
      <path id="Path_11285" data-name="Path 11285" d="M84.876,34.874l-.729,2.3H60.981l.736-2.3Z" transform="translate(-8.505 7.585)" fill="#a0e1ef"/>
      <path id="Path_11286" data-name="Path 11286" d="M80.519,48.516l-.736,2.3H56.625l.729-2.3Z" transform="translate(-9.453 10.552)" fill="#fec95c"/>
      <path id="Path_11287" data-name="Path 11287" d="M79.068,53.063l-.736,2.3H55.167l.736-2.3Z" transform="translate(-9.77 11.541)" fill="#a0e1ef"/>
      <path id="Path_11288" data-name="Path 11288" d="M77.621,57.61l-.742,2.3H53.72l.736-2.3Z" transform="translate(-10.084 12.531)" fill="#fa4a56"/>
      <path id="Path_11289" data-name="Path 11289" d="M51.323,42.558a6.768,6.768,0,0,0-.987-1.245c-2.852-2.852-7.821-2.659-11.789.206l.981,1.749a9.408,9.408,0,0,1,5.543-2.039,5.349,5.349,0,0,1,3.872,1.484,4.768,4.768,0,0,1,.794,1.058,6.078,6.078,0,0,1,.645,3.788,10.221,10.221,0,0,1-3.007,5.769A11.538,11.538,0,0,1,45.9,54.573l.974,1.736A13.338,13.338,0,0,0,48.755,54.7a12.2,12.2,0,0,0,3.568-6.911A7.93,7.93,0,0,0,51.323,42.558Z" transform="translate(-13.385 8.541)" fill="#fa4a56"/>
      <path id="Path_11290" data-name="Path 11290" d="M37.441,52.255a4.756,4.756,0,0,1-.581-.729l-1.568,1.207a6.613,6.613,0,0,0,.755.923A7.291,7.291,0,0,0,41.306,55.7a11.241,11.241,0,0,0,6.259-2.058l-.974-1.736C43.41,54.159,39.583,54.4,37.441,52.255Z" transform="translate(-14.093 11.207)" fill="#c8d7fd"/>
      <path id="Path_11291" data-name="Path 11291" d="M39.262,43.9a11.54,11.54,0,0,1,1.207-1.039l-.981-1.749A13.394,13.394,0,0,0,37.862,42.5C34.087,46.28,33.2,51.617,35.52,55l1.555-1.207C35.339,51.184,36.2,46.964,39.262,43.9Z" transform="translate(-14.32 8.942)" fill="#1b59f7"/>
      <rect id="Rectangle_783" data-name="Rectangle 783" width="3.956" height="3.956" transform="translate(116.175 31.485) rotate(45)" fill="#e8ecfa"/>
      <rect id="Rectangle_784" data-name="Rectangle 784" width="3.401" height="3.401" transform="translate(9.336 22.985) rotate(45)" fill="#e8ecfa"/>
      <rect id="Rectangle_785" data-name="Rectangle 785" width="2.936" height="2.936" transform="translate(122.246 21.133) rotate(45)" fill="#e8ecfa"/>
      <rect id="Rectangle_786" data-name="Rectangle 786" width="2.529" height="2.529" transform="translate(1.789 17.605) rotate(45)" fill="#e8ecfa"/>
      <rect id="Rectangle_787" data-name="Rectangle 787" width="2.529" height="2.529" transform="translate(17.225 8.897) rotate(45)" fill="#e8ecfa"/>
      <path id="Path_11292" data-name="Path 11292" d="M43.277,9.105l-.369,2.226H53.246l.748-2.226Z" transform="translate(-12.436 1.98)" fill="#fa4a56"/>
      <path id="Path_11293" data-name="Path 11293" d="M94.554,9.105l-44.9.049-1.82,2.226,46-.049Z" transform="translate(-8.163 1.98)" fill="#a0e1ef"/>
      <path id="Path_11302" data-name="Path 11302" d="M87.595,27.875H64.352L68.3,14.956H91.544Z" transform="translate(-7.772 3.253)" fill="#f7f8fd"/>
      <g id="Group_3259" data-name="Group 3259" transform="translate(89.215 19.326)">
        <path id="Path_11294" data-name="Path 11294" d="M103.9,72.644l3.816,1.163,2.13-.42-1.03-1.9-3.747-1.692Z" transform="translate(-79.002 -19.68)" fill="#f49d64"/>
        <path id="Path_11295" data-name="Path 11295" d="M107.414,73.674c1.439,2.964.875,6.372,1.727,6.522s2.987-7.063,1.606-8.145a3.034,3.034,0,0,0-2.256-.7A2.075,2.075,0,0,1,107.414,73.674Z" transform="translate(-78.7 -19.547)" fill="#e8ecfa"/>
        <path id="Path_11296" data-name="Path 11296" d="M96.28,55.962s-8.185,9.9-6.637,12.531,17.234,6.8,17.234,6.8c2.487-1.111,1.5-3.88,1.5-3.88l-9.527-5.8L102.3,59.14Z" transform="translate(-80.247 -20.87)" fill="#0031a4"/>
        <path id="Path_11297" data-name="Path 11297" d="M101.086,84.023l1.439,3.713,1.652,1.416.852-1.98-.979-3.995Z" transform="translate(-79.245 -18.528)" fill="#f49d64"/>
        <path id="Path_11298" data-name="Path 11298" d="M105.822,60.142,103.611,70.8,105.6,87.449a2.878,2.878,0,0,1-1.479.961,3.23,3.23,0,0,1-.656.1,3.914,3.914,0,0,1-1.79-.345s-5.008-13.608-5.29-18.334V69.38c-.2-4.881.691-14.293.691-14.293h4.709a3.552,3.552,0,0,1,.656.058,4.122,4.122,0,0,1,2.2,1.117,4.179,4.179,0,0,1,1.18,3.88Z" transform="translate(-79.652 -20.946)" fill="#0c61ea"/>
        <path id="Path_11299" data-name="Path 11299" d="M103.851,88.473a3.229,3.229,0,0,1-.656.1c-.984-4.691-3.12-14.966-3.58-18.126-.535-3.667,1.284-12.583,1.877-15.3.1-.489.173-.783.178-.794l.633.184c0,.081-.081.311-.161.668-.576,2.585-2.383,11.651-1.877,15.139C100.732,73.49,102.873,83.8,103.851,88.473Z" transform="translate(-79.38 -21.009)" fill="#0244d5"/>
        <path id="Path_11300" data-name="Path 11300" d="M103.683,59.243a4.4,4.4,0,0,1-1.589.909,2.5,2.5,0,0,0-1.629,1.571A4.029,4.029,0,0,1,99.2,63.543l-.432.363a5.624,5.624,0,0,0-1.923,3.454,14.958,14.958,0,0,1-.409,1.773l-.075.259c-.2-4.881.691-14.293.691-14.293h4.663a4.127,4.127,0,0,1,2.878,1.151A3.6,3.6,0,0,1,103.683,59.243Z" transform="translate(-79.654 -20.945)" fill="#0244d5"/>
        <path id="Path_11301" data-name="Path 11301" d="M102.734,87.42c-1.439,2.959-4.467,4.6-4.029,5.411s7.4-2.015,7.4-3.776a3.033,3.033,0,0,0-.846-2.2A2.137,2.137,0,0,1,102.734,87.42Z" transform="translate(-79.454 -18.211)" fill="#e8ecfa"/>
        <path id="Path_11303" data-name="Path 11303" d="M104.372,32.691a4.21,4.21,0,1,0-8.393,0c0,1.9-.576,4.208,2.6,4.208l.944,3.534h3.546l-.944-3.713A4.605,4.605,0,0,0,104.372,32.691Z" transform="translate(-79.688 -23.266)" fill="#f49d64"/>
        <path id="Path_11304" data-name="Path 11304" d="M91.673,32.5,88.9,34.694,85.4,29.784a2.222,2.222,0,0,0-.875-.622,10.046,10.046,0,0,1-1.491-.691,3.212,3.212,0,0,1-.984-.9c-.178-.294-.53-.42-.524-1.117a1.1,1.1,0,0,1,.058-.311,1.151,1.151,0,0,1,.524-.794c-.5-.478-1.318-1.1-1.1-1.6s2.3,1.151,2.878,1.451l.328-1.036A16.972,16.972,0,0,1,85.4,26.083c.052.081.1.167.155.248l.248.466C86.078,27.32,91.673,32.5,91.673,32.5Z" transform="translate(-80.976 -23.652)" fill="#f49d64"/>
        <path id="Path_11305" data-name="Path 11305" d="M111.882,49.9c.058.806-1.117,2.02-2.256,2.993-.368.317-.737.61-1.053.846-.576.426-.956.7-.956.7l-.178,4.311a1.825,1.825,0,0,1,.075.489,1.727,1.727,0,0,1-1.226,1.635,11.512,11.512,0,0,1-7.483-.524A13.888,13.888,0,0,1,97,59.46a1.905,1.905,0,0,1-.84-2.107,16.607,16.607,0,0,0-.213-8.577,3.672,3.672,0,0,1-.576-3.154,4.027,4.027,0,0,1,.311-.662,1.641,1.641,0,0,0-.225-2.061,55.07,55.07,0,0,1-4.691-5.106l-.357-.443c-2.182-2.677-3.736-4.916-3.736-4.916a3.64,3.64,0,0,1,2.821-2.8l7.466,7.633a3.316,3.316,0,0,0,2.383,1.151h.15l1.151.092.4.035.386.035,2.435.19a5.791,5.791,0,0,1,3.247,1.335l.052.046c.1.086.19.184.294.282,0,0,1.514,2.976,2.769,5.6.15.317.3.633.437.933s.322.691.472,1.007A9.994,9.994,0,0,1,111.882,49.9Z" transform="translate(-80.486 -23.137)" fill="#ff4d7b"/>
        <path id="Path_11306" data-name="Path 11306" d="M109.5,46.271a4.369,4.369,0,0,1-4.369-2.061.2.2,0,0,0,0-.052,7.31,7.31,0,0,0-1.974-2.084,6.157,6.157,0,0,1-2.878-4.2l2.435.19a5.791,5.791,0,0,1,3.247,1.335l.052.046c.1.086.19.184.294.282,0,0,1.514,2.976,2.769,5.6C109.214,45.667,109.37,45.972,109.5,46.271Z" transform="translate(-79.315 -22.427)" fill="#ff4d7b"/>
        <path id="Path_11307" data-name="Path 11307" d="M98.579,59.81a13.891,13.891,0,0,1-1.807-.9,1.905,1.905,0,0,1-.84-2.107,16.606,16.606,0,0,0-.213-8.577,3.672,3.672,0,0,1-.576-3.154,4.03,4.03,0,0,1,.311-.662,1.641,1.641,0,0,0-.225-2.061,55.071,55.071,0,0,1-4.691-5.106l-.357-.443-.633-.8a63.894,63.894,0,0,0,6.614,5.94,1.94,1.94,0,0,1,.524,2.377,4.029,4.029,0,0,0-.282.823,3.914,3.914,0,0,0,1.065,3.609c.852.84,1.813,2.458.576,5.532C97.319,56.1,98.867,57.916,98.579,59.81Z" transform="translate(-80.238 -22.589)" fill="#f13c6b"/>
        <path id="Path_11308" data-name="Path 11308" d="M109.271,51.807l-3.765-3.719.5-2.239Z" transform="translate(-78.864 -21.741)" fill="#f36290"/>
        <path id="Path_11309" data-name="Path 11309" d="M105.541,47.911l7.483.305-.345,9.267-6.856-.294a13.175,13.175,0,0,1-.72-4.847C105.208,50.41,105.541,47.911,105.541,47.911Z" transform="translate(-78.899 -21.564)" fill="#fa4a56"/>
        <path id="Path_11310" data-name="Path 11310" d="M110.385,36.631a6.1,6.1,0,0,1-2.3-2.446,16.889,16.889,0,0,0-3.747-4.968,8.635,8.635,0,0,0-4.075-1.9,9.054,9.054,0,0,1-1.727-.449,2.412,2.412,0,0,0-2.2.224,1.311,1.311,0,0,0-.219.184,8.168,8.168,0,0,0,1.358.345,8.634,8.634,0,0,1,4.075,1.9,16.894,16.894,0,0,1,3.747,4.968,6.079,6.079,0,0,0,2.262,2.441,5.181,5.181,0,0,1,1.3,7.483,3.39,3.39,0,0,1-1.094.956,3.575,3.575,0,0,0,3.857-1.255,5.181,5.181,0,0,0-1.226-7.483Z" transform="translate(-79.673 -23.39)" fill="#5669ef"/>
        <path id="Path_11311" data-name="Path 11311" d="M108.929,44.363a5.181,5.181,0,0,0-1.278-7.483,6.1,6.1,0,0,1-2.3-2.446,16.894,16.894,0,0,0-3.747-4.968,8.634,8.634,0,0,0-4.075-1.9,8.168,8.168,0,0,1-1.358-.345c-1.03,1.071.265,3.454.265,3.454,3.177,0,2.878,2.187,2.878,4.254,0,1.589,1.98,6.153,4.6,7.564a6.28,6.28,0,0,1,1.974,1.525v.035a3.73,3.73,0,0,0,1.9,1.226A3.39,3.39,0,0,0,108.929,44.363Z" transform="translate(-79.702 -23.345)" fill="#0031a4"/>
        <circle id="Ellipse_72" data-name="Ellipse 72" cx="1.065" cy="1.065" r="1.065" transform="translate(18.537 9.96)" fill="#f49d64"/>
      </g>
    </g>
  </g>
</svg>
