<svg xmlns="http://www.w3.org/2000/svg" width="45.573" height="45.573" viewBox="0 0 45.573 45.573">
  <g id="Node.js_Back-end_Data_management_" data-name="Node.js Back-end Data management " transform="translate(-2 -1.998)">
    <path id="Path_20387" data-name="Path 20387" d="M46.812,2H24.026a.76.76,0,0,0-.76.76v9.874H5.8a3.8,3.8,0,0,0-3.8,3.8V36.179a3.8,3.8,0,0,0,3.8,3.8h9.114v3.038h-.76a2.285,2.285,0,0,0-2.279,2.279v1.519a.76.76,0,0,0,.76.76H26.3a.76.76,0,0,0,.76-.76V45.293a2.285,2.285,0,0,0-2.279-2.279h-.76V39.976h9.114a3.8,3.8,0,0,0,3.8-3.8V21.748h9.874a.76.76,0,0,0,.76-.76V2.76A.76.76,0,0,0,46.812,2ZM24.786,44.534a.76.76,0,0,1,.76.76v.76H13.393v-.76a.76.76,0,0,1,.76-.76Zm-8.355-1.519V39.976h6.076v3.038Zm18.988-6.836a2.285,2.285,0,0,1-2.279,2.279H5.8a2.285,2.285,0,0,1-2.279-2.279v-.76h31.9Zm0-2.279H3.519V16.431A2.285,2.285,0,0,1,5.8,14.152H23.267v6.836a.76.76,0,0,0,.76.76H35.419ZM46.053,20.229H24.786V3.519H46.053Z" transform="translate(0 0)" fill="#037ca4"/>
    <path id="Path_20388" data-name="Path 20388" d="M14.355,20a8.355,8.355,0,1,0,8.355,8.355A8.355,8.355,0,0,0,14.355,20Zm0,15.191a6.836,6.836,0,1,1,6.836-6.836A6.836,6.836,0,0,1,14.355,35.191Z" transform="translate(-0.962 -4.329)" fill="#7e75e4"/>
    <path id="Path_20389" data-name="Path 20389" d="M16.279,27.279a.76.76,0,0,1,.76.76h1.519A2.279,2.279,0,0,0,17.038,25.9V25H15.519v.9a2.273,2.273,0,0,0,.76,4.417.76.76,0,1,1-.76.76H14a2.279,2.279,0,0,0,1.519,2.139v.9h1.519v-.9a2.273,2.273,0,0,0-.76-4.417.76.76,0,1,1,0-1.519Z" transform="translate(-2.886 -5.531)" fill="#7e75e4"/>
    <path id="Path_20390" data-name="Path 20390" d="M58.939,34.834l-3.8-4.557a.784.784,0,0,0-1.17,0l-3.8,4.557a.76.76,0,0,0,.585,1.246h1.519V53.549a.76.76,0,0,0,.76.76h3.038a.76.76,0,0,0,.76-.76V36.08h1.519a.76.76,0,0,0,.585-1.246Zm-2.863-.273a.76.76,0,0,0-.76.76V52.789H53.8V35.32a.76.76,0,0,0-.76-.76h-.661l2.18-2.613,2.18,2.613Z" transform="translate(-11.542 -6.737)" fill="#7e75e4"/>
    <path id="Path_20391" data-name="Path 20391" d="M21.474,5.972l-4.557-3.8a.76.76,0,0,0-1.246.585V4.278H2.76a.76.76,0,0,0-.76.76V8.076a.76.76,0,0,0,.76.76H15.672v1.519a.76.76,0,0,0,.441.691.777.777,0,0,0,.319.068.76.76,0,0,0,.486-.175l4.557-3.8a.76.76,0,0,0,0-1.17ZM17.191,8.729V8.076a.76.76,0,0,0-.76-.76H3.519V5.8H16.431a.76.76,0,0,0,.76-.76V4.385L19.8,6.557Z" transform="translate(0)" fill="#7e75e4"/>
    <path id="Path_20392" data-name="Path 20392" d="M35.76,21.6H38.8a.76.76,0,0,0,.76-.76V14.76A.76.76,0,0,0,38.8,14H35.76a.76.76,0,0,0-.76.76v6.076A.76.76,0,0,0,35.76,21.6Zm.76-6.076h1.519v4.557H36.519Z" transform="translate(-7.936 -2.886)" fill="#7e75e4"/>
    <path id="Path_20393" data-name="Path 20393" d="M43.76,20.633H46.8a.76.76,0,0,0,.76-.76V10.76A.76.76,0,0,0,46.8,10H43.76a.76.76,0,0,0-.76.76v9.114A.76.76,0,0,0,43.76,20.633Zm.76-9.114h1.519v7.6H44.519Z" transform="translate(-9.859 -1.924)" fill="#7e75e4"/>
    <path id="Path_20394" data-name="Path 20394" d="M51.76,19.672H54.8a.76.76,0,0,0,.76-.76V6.76A.76.76,0,0,0,54.8,6H51.76a.76.76,0,0,0-.76.76V18.912A.76.76,0,0,0,51.76,19.672Zm.76-12.152h1.519V18.152H52.519Z" transform="translate(-11.783 -0.962)" fill="#7e75e4"/>
    <path id="Path_20395" data-name="Path 20395" d="M30,30h3.038v1.519H30Z" transform="translate(-6.733 -6.734)" fill="#7e75e4"/>
    <path id="Path_20396" data-name="Path 20396" d="M36,30h4.557v1.519H36Z" transform="translate(-8.176 -6.734)" fill="#7e75e4"/>
    <path id="Path_20397" data-name="Path 20397" d="M30,34h3.038v1.519H30Z" transform="translate(-6.733 -7.695)" fill="#7e75e4"/>
    <path id="Path_20398" data-name="Path 20398" d="M36,34h4.557v1.519H36Z" transform="translate(-8.176 -7.695)" fill="#7e75e4"/>
    <path id="Path_20399" data-name="Path 20399" d="M30,38h3.038v1.519H30Z" transform="translate(-6.733 -8.657)" fill="#7e75e4"/>
    <path id="Path_20400" data-name="Path 20400" d="M36,38h4.557v1.519H36Z" transform="translate(-8.176 -8.657)" fill="#7e75e4"/>
  </g>
</svg>
