<svg xmlns="http://www.w3.org/2000/svg" width="39.497" height="42.864" viewBox="0 0 39.497 42.864">
  <g id="Node.js_Real-Time_Collaboration_Tools" data-name="Node.js Real-Time Collaboration Tools" transform="translate(-20.116)">
    <path id="Path_20406" data-name="Path 20406" d="M183.263,10.682h-.434A12.123,12.123,0,0,0,181.757,8.1l.309-.309a1.88,1.88,0,0,0,0-2.653l-2.058-2.055a1.876,1.876,0,0,0-2.655,0l-.309.309a12.08,12.08,0,0,0-2.586-1.074V1.877A1.879,1.879,0,0,0,172.582,0h-2.909A1.879,1.879,0,0,0,167.8,1.877v.434a12.115,12.115,0,0,0-2.588,1.074l-.307-.307a1.876,1.876,0,0,0-2.655,0l-2.057,2.057a1.88,1.88,0,0,0,0,2.653l.309.309a12.063,12.063,0,0,0-1.072,2.586h-.436a1.879,1.879,0,0,0-1.877,1.877V15.47a1.879,1.879,0,0,0,1.877,1.877h.436a12.066,12.066,0,0,0,1.072,2.586l-.309.309a1.88,1.88,0,0,0,0,2.653l2.056,2.056a1.859,1.859,0,0,0,1.328.551h0a1.858,1.858,0,0,0,1.327-.55l.309-.309a12.056,12.056,0,0,0,2.588,1.073v.436a1.879,1.879,0,0,0,1.877,1.877h2.909a1.879,1.879,0,0,0,1.877-1.877v-.436a12.017,12.017,0,0,0,2.586-1.072l.307.307a1.876,1.876,0,0,0,2.654,0l2.06-2.058a1.88,1.88,0,0,0,0-2.653l-.309-.309a12.126,12.126,0,0,0,1.072-2.586h.435a1.879,1.879,0,0,0,1.877-1.877V12.558a1.879,1.879,0,0,0-1.877-1.877Zm-10.479,15.47a.2.2,0,0,1-.2.2h-2.909a.2.2,0,0,1-.2-.2V19.787a.837.837,0,0,0-.546-.785,5.734,5.734,0,0,1-1.241-10.133c.071-.048.133-.088.188-.12,0,.109-.011.212-.015.266-.006.085-.011.152-.011.219v3.951a3.464,3.464,0,0,0,3.226,3.448.844.844,0,0,0,.111,0,3.463,3.463,0,0,0,3.224-3.448V9.233c0-.066,0-.133-.011-.217,0-.054-.012-.158-.015-.268.055.032.117.072.187.12A5.735,5.735,0,0,1,173.33,19a.837.837,0,0,0-.546.785v6.365ZM183.465,15.47a.208.208,0,0,1-.2.2h-1.084a.837.837,0,0,0-.817.652A10.471,10.471,0,0,1,180,19.617a.837.837,0,0,0,.116,1.039l.769.769a.206.206,0,0,1,0,.285l-2.062,2.06a.2.2,0,0,1-.283,0L177.768,23a.837.837,0,0,0-1.04-.115,10.386,10.386,0,0,1-2.27,1.078V20.344a7.408,7.408,0,0,0,1.054-12.858c-.312-.213-1.26-.861-2.089-.384s-.733,1.568-.7,2.037c0,.041.006.075.007.094v3.951a1.614,1.614,0,1,1-3.212,0V9.239c0-.025,0-.059.007-.1.035-.469.117-1.567-.7-2.037-.829-.478-1.778.17-2.091.384A7.407,7.407,0,0,0,167.8,20.344v3.617a10.441,10.441,0,0,1-2.273-1.078.837.837,0,0,0-1.039.116l-.771.771a.2.2,0,0,1-.283,0l-2.057-2.058a.206.206,0,0,1,0-.285l.769-.769a.837.837,0,0,0,.116-1.039,10.417,10.417,0,0,1-1.365-3.291.837.837,0,0,0-.817-.654h-1.087a.208.208,0,0,1-.2-.2V12.558a.2.2,0,0,1,.2-.2h1.087a.837.837,0,0,0,.817-.654,10.414,10.414,0,0,1,1.365-3.291.837.837,0,0,0-.116-1.039l-.769-.769a.206.206,0,0,1,0-.285l2.059-2.059a.2.2,0,0,1,.283,0l.769.769a.837.837,0,0,0,1.039.116,10.465,10.465,0,0,1,3.294-1.367.837.837,0,0,0,.653-.817V1.877a.2.2,0,0,1,.2-.2h2.909a.2.2,0,0,1,.2.2V2.961a.837.837,0,0,0,.653.817,10.423,10.423,0,0,1,3.291,1.367.837.837,0,0,0,1.04-.115l.771-.771a.2.2,0,0,1,.284,0l2.06,2.057a.206.206,0,0,1,0,.285l-.769.769A.837.837,0,0,0,180,8.411a10.472,10.472,0,0,1,1.365,3.292.837.837,0,0,0,.816.652h1.084a.2.2,0,0,1,.2.2V15.47Z" transform="translate(-125.527)" fill="#037ca4"/>
    <path id="Path_20407" data-name="Path 20407" d="M380.1,437.632a.837.837,0,1,0,1.184,1.184l0,0a.837.837,0,0,0-1.186-1.182Z" transform="translate(-329.624 -400.769)"/>
    <path id="Path_20408" data-name="Path 20408" d="M54.356,333.19,47.71,336.6a3.087,3.087,0,0,0-2.226-.948H40.93a1.259,1.259,0,0,1-.321-.022,2.453,2.453,0,0,1-.247-.217l-.042-.039c-3.684-3.468-6.8-3.248-10.336-1.852a2.408,2.408,0,0,1-1.159.251H27.8a2.227,2.227,0,0,0-2.11-1.525H22.337a2.224,2.224,0,0,0-2.221,2.223v8.788a2.223,2.223,0,0,0,2.221,2.221h3.348a2.226,2.226,0,0,0,2.11-1.524h1.884a.891.891,0,0,1,.36.054l.266.074,8.664,2.318c.382.1.732.2,1.071.3a10.92,10.92,0,0,0,3.016.592,6.62,6.62,0,0,0,3.76-1.353l.022-.015,1.654-1.18a.837.837,0,0,0-.972-1.363l-1.643,1.172c-2.194,1.459-3.125,1.189-5.371.539-.346-.1-.7-.2-1.1-.312l-8.665-2.318-.246-.068a2.332,2.332,0,0,0-.814-.117H27.908v-6.833h.941l.048,0a3.925,3.925,0,0,0,1.7-.367c3.108-1.227,5.508-1.372,8.574,1.514l.041.039a2.027,2.027,0,0,0,1.715.693h4.554a1.423,1.423,0,0,1,1.243.734l.008.014a1.42,1.42,0,0,1-1.252,2.094H38.1a.837.837,0,0,0,0,1.674h7.38a3.092,3.092,0,0,0,3.021-3.769l6.616-3.4a1.347,1.347,0,1,1,1.427,2.283l-2.9,2.067a.837.837,0,1,0,.971,1.364l2.9-2.067a3.017,3.017,0,0,0-3.163-5.136ZM26.234,343.264a.555.555,0,0,1-.549.546H22.337a.554.554,0,0,1-.546-.546v-8.788a.548.548,0,0,1,.546-.549h3.348a.556.556,0,0,1,.549.549Z" transform="translate(0 -304.437)" fill="#7e75e4"/>
  </g>
</svg>
