<svg id="Node.js_Social_Networking_Applications" data-name="Node.js Social Networking Applications" xmlns="http://www.w3.org/2000/svg" width="45.296" height="45.296" viewBox="0 0 45.296 45.296">
  <path id="Path_20401" data-name="Path 20401" d="M44.632,4.4H23.954V.664A.663.663,0,0,0,23.291,0h-4.14a.664.664,0,0,0-.664.664V4.4h-8.12A.664.664,0,0,0,9.7,5.06v5.7a5.05,5.05,0,0,0-1.2.893V9.708c0-1.2-1.2-2.191-2.977-2.519V5.749a.664.664,0,0,0-.664-.664A5.079,5.079,0,0,0,1.585,6.324,4.526,4.526,0,0,0,0,9.789v2.78a.664.664,0,0,0,1.327,0V9.789A3.446,3.446,0,0,1,4.2,6.469V31.921A5.074,5.074,0,0,0,1.33,33.2c0-.9,0-17.107,0-17.107a.664.664,0,0,0-1.327,0V36.7a.662.662,0,0,0,.01.109c.065,1.946,1.866,3.4,4.241,3.4a5.078,5.078,0,0,0,2.937-.867v2.439c0,2.242,2.243,3.509,4.251,3.509,2.132,0,4.25-1.2,4.25-3.51l0-9.381h18.9L20.816,44.127a.668.668,0,0,0,.43,1.169H41.228a.663.663,0,0,0,.664-.664V41.414a.664.664,0,0,0-1.327,0v2.555H23.049L40.564,29.056v8.7a.664.664,0,0,0,1.327,0V32.4h2.741a.663.663,0,0,0,.664-.664V5.06A.663.663,0,0,0,44.632,4.4Zm-.664,1.327V21.816H28.429V5.723Zm-21.342-4.4V18.308H19.814v-1.7H20.3a.664.664,0,0,0,0-1.327h-.482V13.547h1.1a.664.664,0,0,0,0-1.327h-1.1V10.481H20.3a.664.664,0,1,0,0-1.327h-.482V7.415h1.1a.664.664,0,0,0,0-1.327h-1.1V4.35H20.3a.664.664,0,0,0,0-1.327h-.482v-1.7ZM10.48,11.835a3.5,3.5,0,0,1,.9-.285l0,25.453a5.067,5.067,0,0,0-2.868,1.281c0-.891,0-1.581,0-1.6l0-21.813a3.436,3.436,0,0,1,1.969-3.035Zm3.882,28.014-.068-.038a6.015,6.015,0,0,0-2.8-.658v-.825a3.879,3.879,0,0,1,.537-.041.663.663,0,0,0,.684-.663l0-23.993c.88.218,1.65.664,1.65,1.157ZM7.175,9.708V34.759A5.908,5.908,0,0,0,4.3,34.072v-.825a3.844,3.844,0,0,1,.537-.04.664.664,0,0,0,.685-.663v-24c1.011.242,1.65.744,1.65,1.162Zm0,27.311c0,1.013-1.339,1.868-2.924,1.868-1.663,0-2.917-.938-2.917-2.183a3.214,3.214,0,0,1,1.643-3.056v1.116a.664.664,0,0,0,.726.661,4.888,4.888,0,0,1,2.766.469,1.123,1.123,0,0,1,.707,1.125Zm4.265,6.95h0c-1.663,0-2.917-.938-2.917-2.182a3.214,3.214,0,0,1,1.643-3.057v1.116a.664.664,0,0,0,.726.66c1.126-.106,3.526.075,3.472,1.594,0,1.013-1.339,1.869-2.923,1.869Zm4.246-29.18c0-1.195-1.2-2.188-2.977-2.517V10.83a.664.664,0,0,0-.664-.663,4.805,4.805,0,0,0-1.013.111V5.723h7.456V18.972a.664.664,0,0,0,.664.664h4.14a.663.663,0,0,0,.664-.664V5.723H27.1V31.077H15.688ZM41.506,27.017a.663.663,0,0,0-.708.1l-4.655,3.963H28.429V23.143h15.54v7.934H41.891V27.619a.664.664,0,0,0-.385-.6Z" fill="#037ca4"/>
  <path id="Path_20402" data-name="Path 20402" d="M350.5,106.862h6.114a.67.67,0,0,0,.47-.2l3.057-3.054a.664.664,0,0,0,.195-.469v-6.1a.673.673,0,0,0-.664-.663h-6.114a.663.663,0,0,0-.469.194l-3.056,3.053a.671.671,0,0,0-.2.47V106.2a.664.664,0,0,0,.664.664Zm.664-6.106h4.787v4.779h-4.787Zm6.114,3.841v-4.23l1.73-1.729v4.229Zm-3.446-6.9h4.237l-1.729,1.727h-4.236Z" transform="translate(-318.889 -87.849)" fill="#7e75e4"/>
  <path id="Path_20403" data-name="Path 20403" d="M363.531,314.087h-2.2a.664.664,0,0,0,0,1.327h2.2A.664.664,0,0,0,363.531,314.087Z" transform="translate(-328.78 -286.3)" fill="#7e75e4"/>
  <path id="Path_20404" data-name="Path 20404" d="M366.966,284.242h-5.633a.664.664,0,0,0,0,1.327h5.633A.664.664,0,0,0,366.966,284.242Z" transform="translate(-328.78 -259.096)" fill="#7e75e4"/>
  <path id="Path_20405" data-name="Path 20405" d="M339.84,383.679l-8.011,6.821a.668.668,0,0,0,.43,1.169h8.011a.663.663,0,0,0,.664-.664v-6.821A.67.67,0,0,0,339.84,383.679Zm-.233,6.663h-5.545l5.545-4.721Z" transform="translate(-302.265 -349.591)" fill="#7e75e4"/>
</svg>
