<svg xmlns="http://www.w3.org/2000/svg" width="45.707" height="50.167" viewBox="0 0 45.707 50.167">
  <g id="Node.js_Web_development" data-name="Node.js Web development" transform="translate(-5574 10493)">
    <path id="Path_20366" data-name="Path 20366" d="M49.362,15h0a.557.557,0,1,0,0,1.115,2.263,2.263,0,0,1,2.23,2.257V40.64H8.115V18.372a2.263,2.263,0,0,1,2.23-2.257.557.557,0,0,0,0-1.115A3.389,3.389,0,0,0,7,18.372V43.985a3.372,3.372,0,0,0,3.372,3.344H23.081l-.964,6.722a3.9,3.9,0,0,0-3.411,3.868v.557H41V57.92a3.9,3.9,0,0,0-3.411-3.868l-.964-6.722H49.362a3.372,3.372,0,0,0,3.344-3.344V18.372A3.389,3.389,0,0,0,49.362,15ZM39.831,57.362H19.876a2.787,2.787,0,0,1,2.731-2.23H37.1a2.787,2.787,0,0,1,2.731,2.23Zm-3.372-3.344H23.248l.959-6.689H35.5ZM51.592,43.985a2.263,2.263,0,0,1-2.23,2.23H10.372a2.263,2.263,0,0,1-2.257-2.23v-2.23H51.592Z" transform="translate(5567 -10501.311)" fill="#037ca4"/>
    <path id="Path_20367" data-name="Path 20367" d="M51.231,34.214a.557.557,0,0,0,.557-.557V3H15V33.657a.557.557,0,0,0,1.115,0V7.459H50.674v26.2A.557.557,0,0,0,51.231,34.214ZM16.115,6.344V4.115H50.674v2.23Z" transform="translate(5563.459 -10496)" fill="#037ca4"/>
    <rect id="Rectangle_2952" data-name="Rectangle 2952" width="1" height="1" transform="translate(5580.854 -10490.917)" fill="#7e75e4"/>
    <rect id="Rectangle_2953" data-name="Rectangle 2953" width="2" height="1" transform="translate(5582.854 -10490.917)" fill="#7e75e4"/>
    <rect id="Rectangle_2954" data-name="Rectangle 2954" width="1" height="1" transform="translate(5584.854 -10490.917)" fill="#7e75e4"/>
    <path id="Path_20368" data-name="Path 20368" d="M30.557,58.115h9.916a.557.557,0,1,0,0-1.115H30.557a.557.557,0,1,0,0,1.115Z" transform="translate(5556.82 -10519.899)" fill="#7e75e4"/>
    <path id="Path_20369" data-name="Path 20369" d="M51.437,58.115H63.293a.557.557,0,0,0,0-1.115H51.437a.557.557,0,0,0,0,1.115Z" transform="translate(5547.579 -10519.899)" fill="#7e75e4"/>
    <path id="Path_20370" data-name="Path 20370" d="M22.707,57a.557.557,0,1,0,0,1.115h2.637a.557.557,0,1,0,0-1.115Z" transform="translate(5560.295 -10519.899)" fill="#7e75e4"/>
    <path id="Path_20371" data-name="Path 20371" d="M48.42,53.557A.557.557,0,0,0,47.863,53H39.847a.557.557,0,0,0,0,1.115h8.015A.557.557,0,0,0,48.42,53.557Z" transform="translate(5552.708 -10518.13)" fill="#7e75e4"/>
    <path id="Path_20372" data-name="Path 20372" d="M68.25,53H62.637a.557.557,0,0,0,0,1.115H68.25a.557.557,0,0,0,0-1.115Z" transform="translate(5542.622 -10518.13)" fill="#7e75e4"/>
    <path id="Path_20373" data-name="Path 20373" d="M58.562,54.115a.557.557,0,1,0,0-1.115H57.307a.557.557,0,0,0,0,1.115Z" transform="translate(5544.98 -10518.13)" fill="#7e75e4"/>
    <path id="Path_20374" data-name="Path 20374" d="M31.1,53.557A.557.557,0,0,0,30.544,53H22.707a.557.557,0,1,0,0,1.115h7.837A.557.557,0,0,0,31.1,53.557Z" transform="translate(5560.295 -10518.13)" fill="#7e75e4"/>
    <path id="Path_20375" data-name="Path 20375" d="M61.04,49H46.347a.557.557,0,0,0,0,1.115H61.04a.557.557,0,0,0,0-1.115Z" transform="translate(5549.832 -10516.359)" fill="#7e75e4"/>
    <path id="Path_20376" data-name="Path 20376" d="M22.707,50.115h11.46a.557.557,0,1,0,0-1.115H22.707a.557.557,0,1,0,0,1.115Z" transform="translate(5560.295 -10516.359)" fill="#7e75e4"/>
    <path id="Path_20377" data-name="Path 20377" d="M61.04,45H46.347a.557.557,0,0,0,0,1.115H61.04a.557.557,0,0,0,0-1.115Z" transform="translate(5549.832 -10514.589)" fill="#7e75e4"/>
    <path id="Path_20378" data-name="Path 20378" d="M22.707,46.115h11.46a.557.557,0,0,0,0-1.115H22.707a.557.557,0,1,0,0,1.115Z" transform="translate(5560.295 -10514.589)" fill="#7e75e4"/>
    <path id="Path_20379" data-name="Path 20379" d="M58.774,42.115a.557.557,0,1,0,0-1.115H57.057a.557.557,0,1,0,0,1.115Z" transform="translate(5545.091 -10512.818)" fill="#7e75e4"/>
    <path id="Path_20380" data-name="Path 20380" d="M68.512,41H63.227a.557.557,0,0,0,0,1.115h5.284a.557.557,0,0,0,0-1.115Z" transform="translate(5542.36 -10512.818)" fill="#7e75e4"/>
    <path id="Path_20381" data-name="Path 20381" d="M22.707,42.115h3.027a.557.557,0,1,0,0-1.115H22.707a.557.557,0,1,0,0,1.115Z" transform="translate(5560.295 -10512.818)" fill="#7e75e4"/>
    <path id="Path_20382" data-name="Path 20382" d="M30.67,41.557a.557.557,0,0,0,.557.557H43.908a.557.557,0,0,0,0-1.115H31.227A.557.557,0,0,0,30.67,41.557Z" transform="translate(5556.524 -10512.818)" fill="#7e75e4"/>
    <path id="Path_20383" data-name="Path 20383" d="M62.461,37h-12.9a.557.557,0,0,0,0,1.115h12.9a.557.557,0,0,0,0-1.115Z" transform="translate(5548.411 -10511.048)" fill="#7e75e4"/>
    <path id="Path_20384" data-name="Path 20384" d="M22.15,37.557a.557.557,0,0,0,.557.557H36A.557.557,0,1,0,36,37H22.707A.557.557,0,0,0,22.15,37.557Z" transform="translate(5560.295 -10511.048)" fill="#7e75e4"/>
    <path id="Path_20385" data-name="Path 20385" d="M42.2,21.7V16.127a.557.557,0,0,0-1.115,0V21.7a1.417,1.417,0,1,1-2.787,0,.557.557,0,1,0-1.115,0,2.522,2.522,0,1,0,5.017,0Z" transform="translate(5553.641 -10501.564)" fill="#7e75e4"/>
    <path id="Path_20386" data-name="Path 20386" d="M51.4,23.374A1.394,1.394,0,0,1,50,21.98a.557.557,0,0,0-1.115,0A2.508,2.508,0,1,0,51.4,19.472a1.394,1.394,0,1,1,1.394-1.394.557.557,0,1,0,1.115,0A2.508,2.508,0,1,0,51.4,20.587a1.394,1.394,0,1,1,0,2.787Z" transform="translate(5548.459 -10501.564)" fill="#7e75e4"/>
  </g>
</svg>
