<svg id="Node_Maintenance_and_Support" data-name="Node Maintenance and Support" xmlns="http://www.w3.org/2000/svg" width="42.652" height="42.652" viewBox="0 0 42.652 42.652">
  <g id="Group_13811" data-name="Group 13811">
    <g id="Group_13810" data-name="Group 13810">
      <path id="Path_20409" data-name="Path 20409" d="M69.248,392.656a.74.74,0,0,0-.775.15.731.731,0,0,0-.15.234.712.712,0,0,0-.057.27.7.7,0,0,0,.711.711.712.712,0,0,0,.27-.057.672.672,0,0,0,.235-.149.721.721,0,0,0,0-1.009A.666.666,0,0,0,69.248,392.656Z" transform="translate(-62.58 -359.899)" fill="#7e75e4"/>
      <path id="Path_20410" data-name="Path 20410" d="M102.606,392.846a.711.711,0,1,0,1.009,0A.746.746,0,0,0,102.606,392.846Z" transform="translate(-93.869 -359.94)" fill="#7e75e4"/>
      <path id="Path_20411" data-name="Path 20411" d="M136.974,392.625a.731.731,0,0,0-.234.15.721.721,0,0,0,0,1.009.735.735,0,0,0,.234.149.67.67,0,0,0,.54,0,.741.741,0,0,0,.235-.149.71.71,0,0,0-.775-1.159Z" transform="translate(-125.159 -359.868)" fill="#7e75e4"/>
      <path id="Path_20412" data-name="Path 20412" d="M42.155,6.861c-.006-.015-.01-.03-.016-.044a9.942,9.942,0,0,0-18.876,0c-.006.014-.011.029-.016.044a9.885,9.885,0,0,0-.462,2.381h-10.8A2.837,2.837,0,1,0,8.53,12.695V22.748H1.422A1.424,1.424,0,0,0,0,24.17V35.544a1.423,1.423,0,0,0,1.422,1.422H6.4v1.422H4.976A2.135,2.135,0,0,0,2.843,40.52v1.422a.711.711,0,0,0,.711.711H14.928a.711.711,0,0,0,.711-.711V40.52a2.135,2.135,0,0,0-2.133-2.133H12.085V36.965h4.976a1.423,1.423,0,0,0,1.422-1.422V33.411H29.958a2.837,2.837,0,1,0,3.453-3.453V19.868a9.962,9.962,0,0,0,8.716-6.75c0-.01.007-.019.011-.029A9.836,9.836,0,0,0,42.155,6.861ZM31.989,1.556V6.4H28.843C29.432,3.91,30.608,2.043,31.989,1.556ZM28.851,13.542h3.138v4.807C30.614,17.864,29.444,16.012,28.851,13.542Zm.209,4.114a8.571,8.571,0,0,1-4.088-4.114h2.415A11.5,11.5,0,0,0,29.061,17.656Zm-.475-5.536a15.619,15.619,0,0,1,0-4.3h3.408v4.3Zm.475-9.872A11.524,11.524,0,0,0,27.38,6.4H24.955A8.57,8.57,0,0,1,29.061,2.249ZM24.45,7.82h2.691a17.737,17.737,0,0,0,.005,4.3H24.46A8.247,8.247,0,0,1,24.45,7.82ZM7.82,9.952a1.422,1.422,0,1,1,1.422,1.422A1.422,1.422,0,0,1,7.82,9.952Zm5.687,29.857a.711.711,0,0,1,.711.711v.711H4.265V40.52a.711.711,0,0,1,.711-.711ZM7.82,38.387V36.965h2.843v1.422Zm3.554-2.843H1.422V24.17H17.061V35.544H11.374Zm18.584-3.554H18.483V24.17a1.423,1.423,0,0,0-1.422-1.422H9.952V12.695a2.839,2.839,0,0,0,2.032-2.032h10.8a9.879,9.879,0,0,0,.478,2.426c0,.01.006.019.011.029a9.962,9.962,0,0,0,8.716,6.75V29.957A2.839,2.839,0,0,0,29.958,31.989Zm4.164.711A1.422,1.422,0,1,1,32.7,31.278,1.422,1.422,0,0,1,34.122,32.7ZM40.445,6.4H38.02a11.524,11.524,0,0,0-1.68-4.149A8.571,8.571,0,0,1,40.445,6.4ZM33.411,1.556c1.382.487,2.557,2.355,3.147,4.842H33.411Zm0,6.264h3.408a15.619,15.619,0,0,1,0,4.3h-3.4Zm0,10.529V13.542h3.138C35.957,16.012,34.786,17.864,33.411,18.349Zm2.929-.693a11.5,11.5,0,0,0,1.673-4.114h2.415A8.57,8.57,0,0,1,36.34,17.656Zm4.6-5.536H38.254a17.736,17.736,0,0,0,.005-4.3H40.95A8.248,8.248,0,0,1,40.941,12.12Z" fill="#037ca4"/>
    </g>
  </g>
</svg>
