<svg xmlns="http://www.w3.org/2000/svg" xmlns:xlink="http://www.w3.org/1999/xlink" width="100.025" height="112.185" viewBox="0 0 100.025 112.185">
  <defs>
    <radialGradient id="radial-gradient" cx="0.5" cy="0.5" r="0.478" gradientTransform="translate(-0.049) scale(1.098 1)" gradientUnits="objectBoundingBox">
      <stop offset="0" stop-color="#ffc8af"/>
      <stop offset="1" stop-color="#ffbb9c"/>
    </radialGradient>
    <radialGradient id="radial-gradient-2" cx="0.506" cy="0.49" r="0.451" gradientTransform="matrix(1.232, -0.21, 0.265, 0.978, -0.31, 0.174)" xlink:href="#radial-gradient"/>
    <radialGradient id="radial-gradient-3" cx="0.5" cy="0.5" r="0.531" gradientTransform="translate(0.054) scale(0.891 1)" xlink:href="#radial-gradient"/>
    <radialGradient id="radial-gradient-4" cx="0.5" cy="0.5" r="0.511" gradientTransform="translate(0.021) scale(0.958 1)" xlink:href="#radial-gradient"/>
    <radialGradient id="radial-gradient-5" cx="1.47" cy="-0.006" r="4.15" gradientTransform="translate(0.306) scale(0.387 1)" xlink:href="#radial-gradient"/>
    <radialGradient id="radial-gradient-6" cx="0.183" cy="0.438" r="1.813" gradientTransform="translate(0.33) scale(0.34 1)" xlink:href="#radial-gradient"/>
    <linearGradient id="linear-gradient" x1="4.513" y1="-3.241" x2="3.024" y2="-2.458" gradientUnits="objectBoundingBox">
      <stop offset="0" stop-color="#606bf1"/>
      <stop offset="1" stop-color="#cfdfff"/>
    </linearGradient>
    <linearGradient id="linear-gradient-2" x1="8.927" y1="-5.136" x2="7.575" y2="-4.342" xlink:href="#linear-gradient"/>
    <linearGradient id="linear-gradient-3" x1="6.918" y1="-3.36" x2="5.26" y2="-2.587" xlink:href="#linear-gradient"/>
  </defs>
  <g id="OBJECTS" transform="translate(-94.623 -88.775)">
    <rect id="Rectangle_41" data-name="Rectangle 41" width="98.294" height="3.172" transform="translate(94.783 197.788)" fill="#bbd0e0"/>
    <g id="Group_80" data-name="Group 80" transform="translate(95.623 79.775)">
      <g id="Group_74" data-name="Group 74" transform="translate(0)">
        <g id="Group_39" data-name="Group 39" transform="translate(8.986 17.221)">
          <g id="Group_2" data-name="Group 2">
            <rect id="Rectangle_2" data-name="Rectangle 2" width="31.375" height="29.284" fill="#112b46"/>
          </g>
          <g id="Group_3" data-name="Group 3" style="mix-blend-mode: screen;isolation: isolate">
            <rect id="Rectangle_3" data-name="Rectangle 3" width="31.375" height="3.097" fill="#1d262d"/>
          </g>
          <g id="Group_7" data-name="Group 7" transform="translate(23.457 1.016)">
            <g id="Group_4" data-name="Group 4">
              <path id="Path_4" data-name="Path 4" d="M194.3,102.845a.568.568,0,1,1-.568-.568A.568.568,0,0,1,194.3,102.845Z" transform="translate(-193.168 -102.277)" fill="#606bf1"/>
            </g>
            <g id="Group_5" data-name="Group 5" transform="translate(2.371)">
              <path id="Path_5" data-name="Path 5" d="M201.674,102.845a.568.568,0,1,1-.568-.568A.568.568,0,0,1,201.674,102.845Z" transform="translate(-200.539 -102.277)" fill="#fbd15b"/>
            </g>
            <g id="Group_6" data-name="Group 6" transform="translate(4.572 0.06)">
              <path id="Path_6" data-name="Path 6" d="M208.518,103.031a.568.568,0,1,1-.568-.568A.568.568,0,0,1,208.518,103.031Z" transform="translate(-207.383 -102.463)" fill="#ff8578"/>
            </g>
          </g>
          <g id="Group_31" data-name="Group 31" transform="translate(5.579 5.976)">
            <g id="Group_17" data-name="Group 17">
              <g id="Group_8" data-name="Group 8">
                <rect id="Rectangle_4" data-name="Rectangle 4" width="4.444" height="0.374" fill="#ff8578"/>
              </g>
              <g id="Group_9" data-name="Group 9" transform="translate(5.216)">
                <rect id="Rectangle_5" data-name="Rectangle 5" width="4.444" height="0.374" fill="#fbd15b"/>
              </g>
              <g id="Group_10" data-name="Group 10" transform="translate(1.375 2.012)">
                <rect id="Rectangle_6" data-name="Rectangle 6" width="6.891" height="0.374" fill="#606bf1"/>
              </g>
              <g id="Group_11" data-name="Group 11" transform="translate(9.405 2.012)">
                <rect id="Rectangle_7" data-name="Rectangle 7" width="3.503" height="0.374" fill="#ff8578"/>
              </g>
              <g id="Group_12" data-name="Group 12" transform="translate(3.765 4.024)">
                <rect id="Rectangle_8" data-name="Rectangle 8" width="3.026" height="0.374" fill="#fbd15b"/>
              </g>
              <g id="Group_13" data-name="Group 13" transform="translate(8.54 4.024)">
                <rect id="Rectangle_9" data-name="Rectangle 9" width="10.04" height="0.374" fill="#fbd15b"/>
              </g>
              <g id="Group_14" data-name="Group 14" transform="translate(6.116 6.036)">
                <rect id="Rectangle_10" data-name="Rectangle 10" width="11.474" height="0.373" fill="#606bf1"/>
              </g>
              <g id="Group_15" data-name="Group 15" transform="translate(3.247 8.048)">
                <rect id="Rectangle_11" data-name="Rectangle 11" width="3.531" height="0.373" fill="#ff8578"/>
              </g>
              <g id="Group_16" data-name="Group 16" transform="translate(8.289 8.048)">
                <rect id="Rectangle_12" data-name="Rectangle 12" width="3.531" height="0.373" fill="#606bf1"/>
              </g>
            </g>
            <g id="Group_30" data-name="Group 30" transform="translate(0 10.438)">
              <g id="Group_18" data-name="Group 18" transform="translate(0 8.048)">
                <rect id="Rectangle_13" data-name="Rectangle 13" width="5.137" height="0.374" fill="#ff8578"/>
              </g>
              <g id="Group_19" data-name="Group 19" transform="translate(6.936 8.048)">
                <rect id="Rectangle_14" data-name="Rectangle 14" width="5.137" height="0.374" fill="#fbd15b"/>
              </g>
              <g id="Group_20" data-name="Group 20" transform="translate(13.686 8.048)">
                <rect id="Rectangle_15" data-name="Rectangle 15" width="5.137" height="0.374" fill="#ff8578"/>
              </g>
              <g id="Group_21" data-name="Group 21" transform="translate(1.375 6.036)">
                <rect id="Rectangle_16" data-name="Rectangle 16" width="10.04" height="0.373" fill="#606bf1"/>
              </g>
              <g id="Group_22" data-name="Group 22" transform="translate(12.98 6.036)">
                <rect id="Rectangle_17" data-name="Rectangle 17" width="10.04" height="0.373" fill="#ff8578"/>
              </g>
              <g id="Group_23" data-name="Group 23" transform="translate(3.765 4.024)">
                <rect id="Rectangle_18" data-name="Rectangle 18" width="9.963" height="0.373" fill="#ff8578"/>
              </g>
              <g id="Group_24" data-name="Group 24" transform="translate(14.596 4.024)">
                <rect id="Rectangle_19" data-name="Rectangle 19" width="2.773" height="0.373" fill="#fbd15b"/>
              </g>
              <g id="Group_25" data-name="Group 25" transform="translate(3.114 2.012)">
                <rect id="Rectangle_20" data-name="Rectangle 20" width="3.751" height="0.373" fill="#fbd15b"/>
              </g>
              <g id="Group_26" data-name="Group 26" transform="translate(8.857 2.012)">
                <rect id="Rectangle_21" data-name="Rectangle 21" width="3.751" height="0.373" fill="#606bf1"/>
              </g>
              <g id="Group_27" data-name="Group 27" transform="translate(15.02 2.012)">
                <rect id="Rectangle_22" data-name="Rectangle 22" width="3.751" height="0.373" fill="#ff8578"/>
              </g>
              <g id="Group_28" data-name="Group 28" transform="translate(7.462)">
                <rect id="Rectangle_23" data-name="Rectangle 23" width="5.259" height="0.373" fill="#fbd15b"/>
              </g>
              <g id="Group_29" data-name="Group 29" transform="translate(0.219)">
                <rect id="Rectangle_24" data-name="Rectangle 24" width="5.259" height="0.373" fill="#606bf1"/>
              </g>
            </g>
          </g>
          <g id="Group_38" data-name="Group 38" transform="translate(2.67 5.617)">
            <g id="Group_33" data-name="Group 33" transform="translate(0)">
              <g id="Group_32" data-name="Group 32">
                <rect id="Rectangle_25" data-name="Rectangle 25" width="0.478" height="0.478" fill="#f9fbfc"/>
              </g>
            </g>
            <g id="Group_35" data-name="Group 35" transform="translate(0 1.941)">
              <g id="Group_34" data-name="Group 34">
                <path id="Path_7" data-name="Path 7" d="M129.013,138.219h-.478v-.975h.478Zm0-2.438h-.478v-.975h.478Zm0-2.438h-.478v-.975h.478Zm0-2.437h-.478v-.975h.478Zm0-2.437h-.478v-.975h.478Zm0-2.438h-.478v-.975h.478Zm0-2.438h-.478v-.975h.478Z" transform="translate(-128.535 -122.619)" fill="#f9fbfc"/>
              </g>
            </g>
            <g id="Group_37" data-name="Group 37" transform="translate(0 19.004)">
              <g id="Group_36" data-name="Group 36">
                <rect id="Rectangle_26" data-name="Rectangle 26" width="0.478" height="0.478" fill="#f9fbfc"/>
              </g>
            </g>
          </g>
        </g>
        <g id="Group_42" data-name="Group 42" transform="translate(44.111 9)">
          <g id="Group_40" data-name="Group 40">
            <rect id="Rectangle_27" data-name="Rectangle 27" width="25.835" height="15.925" fill="#fbf5ff"/>
          </g>
          <g id="Group_41" data-name="Group 41" transform="translate(5.945 3.131)">
            <path id="Path_8" data-name="Path 8" d="M261.351,97.772l-3.074,1.312,3.074,1.293-.4.929-3.686-1.647V98.519l3.686-1.657Z" transform="translate(-257.262 -94.497)" fill="#8798b3"/>
            <path id="Path_9" data-name="Path 9" d="M277.112,89.748l-2.231,8.57-1.063-.249,2.241-8.56Z" transform="translate(-268.493 -89.509)" fill="#8798b3"/>
            <path id="Path_10" data-name="Path 10" d="M292.022,98.519v1.139l-3.687,1.647-.4-.929L291,99.083l-3.064-1.312.4-.91Z" transform="translate(-278.069 -94.497)" fill="#8798b3"/>
          </g>
        </g>
        <g id="Group_45" data-name="Group 45" transform="translate(70.059 35.592)">
          <g id="Group_43" data-name="Group 43">
            <rect id="Rectangle_28" data-name="Rectangle 28" width="14.715" height="10.483" fill="#fbf5ff"/>
          </g>
          <g id="Group_44" data-name="Group 44" transform="translate(4.119 1.572)">
            <path id="Path_11" data-name="Path 11" d="M331.191,181.279c-.473,0-.631.128-.631.481v1.578a.805.805,0,0,1-.684.924.79.79,0,0,1,.684.909v1.578c0,.353.165.481.631.481v.691c-1.194,0-1.533-.383-1.533-1.18v-1.5c0-.428-.113-.594-.5-.594v-.789c.391,0,.5-.173.5-.6v-1.495c0-.8.338-1.18,1.533-1.18Z" transform="translate(-329.155 -180.588)" fill="#8798b3"/>
            <path id="Path_12" data-name="Path 12" d="M344.495,181.768v1.495c0,.428.113.6.511.6v.789c-.4,0-.511.165-.511.594v1.5c0,.8-.338,1.18-1.533,1.18v-.691c.466,0,.631-.128.631-.481v-1.578a.789.789,0,0,1,.684-.909.8.8,0,0,1-.684-.924V181.76c0-.353-.158-.481-.631-.481v-.691C344.157,180.588,344.495,180.964,344.495,181.768Z" transform="translate(-338.521 -180.588)" fill="#8798b3"/>
          </g>
        </g>
        <g id="Group_49" data-name="Group 49" transform="translate(-1 13.284)">
          <g id="Group_46" data-name="Group 46">
            <rect id="Rectangle_29" data-name="Rectangle 29" width="16.508" height="11.042" fill="#fbd15b"/>
          </g>
          <g id="Group_48" data-name="Group 48" transform="translate(4.88 2.146)">
            <g id="Group_47" data-name="Group 47">
              <path id="Path_13" data-name="Path 13" d="M104.941,94.572a2.71,2.71,0,0,0,3.626,3.939l1.733,1.733a.188.188,0,0,0,.265,0l.487-.487a.187.187,0,0,0,0-.265l-1.733-1.733a2.71,2.71,0,0,0-4.377-3.187Zm3.478,3.039a1.916,1.916,0,1,1,0-2.709A1.918,1.918,0,0,1,108.418,97.611Z" transform="translate(-104.357 -93.548)" fill="#f9fbfc"/>
            </g>
          </g>
        </g>
        <g id="Group_73" data-name="Group 73" transform="translate(0.049 31.56)">
          <g id="Group_53" data-name="Group 53" transform="translate(49.454)">
            <path id="Path_14" data-name="Path 14" d="M273.13,183.384c-.036.365-.535,4.172-4.45,4.172-4.111,0-3.422-4.07-3.422-4.07l-.005-.025a4.1,4.1,0,0,1,1.29-.062v-1.927l4.666-2.61h.17v4.5A8.479,8.479,0,0,1,273.13,183.384Z" transform="translate(-258.103 -166.443)" fill="url(#radial-gradient)"/>
            <g id="Group_52" data-name="Group 52">
              <g id="Group_51" data-name="Group 51" transform="translate(2.828 2.124)">
                <g id="Group_50" data-name="Group 50">
                  <path id="Path_15" data-name="Path 15" d="M261.829,148.547a5.331,5.331,0,0,1,1.4,2.6,11.9,11.9,0,0,1-.547,5.973,3,3,0,0,1-.411.929,3.3,3.3,0,0,1-.511.517q-1.245,1.084-2.488,2.171c-.561.491-4.017.9-4.676.429-2.541-1.817-3.03-7.081-2.522-9.773A5.792,5.792,0,0,1,261.829,148.547Z" transform="translate(-251.897 -146.854)" fill="url(#radial-gradient-2)"/>
                </g>
              </g>
              <path id="Path_16" data-name="Path 16" d="M278.315,168.394c.034-.43.476-.9.919-.621.459.289.351,1.052.161,1.472-.149.329-.648.69-.986.384-.283-.257.157-.56.171-.794.013-.211-.409-.362-.236-.588" transform="translate(-266.982 -158.864)" fill="#f7b094"/>
              <path id="Path_17" data-name="Path 17" d="M278.55,171.334a1.312,1.312,0,0,0,1.446-.859,4.941,4.941,0,0,0,.177-1.382,3.311,3.311,0,0,1,.113,1.523c-.12.94-.449,1.835-1.187,1.847S278.55,171.334,278.55,171.334Z" transform="translate(-267.135 -159.816)" fill="#f7b094"/>
              <path id="Path_18" data-name="Path 18" d="M253.95,151.1a.163.163,0,0,1-.052.015c-.287.04-.4-.307-.444-.524a9.667,9.667,0,0,1-.1-1.533,1.155,1.155,0,0,0-.046-.41c-.161-.369-.59-.609-.722-.99-.152-.443.278-.885.107-1.37-.261-.743-1.216-.914-1.906-.906a21.67,21.67,0,0,0-3.068.363,4.723,4.723,0,0,1-3.409-.356,3.289,3.289,0,0,1-.769-4.139,2.777,2.777,0,0,1,2.125-1,6.956,6.956,0,0,1,2.268.717c.6.2,1.18-.378,1.741-.49.7-.141,1,.628,1.628.65.606.021,1.2-.452,1.789-.56,1.174-.215,1.1.965,1.892,1.368.49.25,1.122.1,1.617.353.376.193.429.533.511.918a9.052,9.052,0,0,0,.184,1.033,2.336,2.336,0,0,0,.524.686,2.518,2.518,0,0,1,.436.83,5.172,5.172,0,0,1,.217,2.109,14.334,14.334,0,0,1-.882,3.469,12.208,12.208,0,0,1-.748,2.165c-.106.184-.578.723-.753.322a.588.588,0,0,1-.025-.277c.052-.747.748-5.56-1.075-4.981a1.292,1.292,0,0,0-.782.8,3.128,3.128,0,0,0-.161,1.331c0,.066,0,.132,0,.2A.225.225,0,0,1,253.95,151.1Z" transform="translate(-243.103 -140.248)" fill="#3d3d7a"/>
            </g>
          </g>
          <path id="Path_19" data-name="Path 19" d="M269.08,187.442a6.277,6.277,0,0,0,3.441-1.971,3.778,3.778,0,0,1-3.565,2.906Z" transform="translate(-211.187 -170.927)" fill="#f7b094"/>
          <g id="Group_55" data-name="Group 55" transform="translate(47.381 53.715)">
            <path id="Rectangle_30" data-name="Rectangle 30" d="M1.484,0h0A1.484,1.484,0,0,1,2.967,1.484v27.51a0,0,0,0,1,0,0H0a0,0,0,0,1,0,0V1.484A1.484,1.484,0,0,1,1.484,0Z" transform="translate(16.883 28.994) rotate(180)" fill="#0a2033"/>
            <path id="Rectangle_31" data-name="Rectangle 31" d="M2.476,0H13.843a2.476,2.476,0,0,1,2.476,2.476v0a0,0,0,0,1,0,0H0a0,0,0,0,1,0,0v0A2.476,2.476,0,0,1,2.476,0Z" transform="translate(23.559 2.883) rotate(180)" fill="#30475e"/>
            <g id="Group_54" data-name="Group 54" transform="translate(0 23.407)">
              <path id="Rectangle_32" data-name="Rectangle 32" d="M1.484,0h0A1.484,1.484,0,0,1,2.967,1.484V7.12a0,0,0,0,1,0,0H0a0,0,0,0,1,0,0V1.484A1.484,1.484,0,0,1,1.484,0Z" transform="translate(16.883 9.332) rotate(180)" fill="#0a2033"/>
              <path id="Path_20" data-name="Path 20" d="M236.657,401.3a1.737,1.737,0,1,0,1.737-1.737A1.737,1.737,0,0,0,236.657,401.3Z" transform="translate(-236.657 -393.707)" fill="#0a2033"/>
              <path id="Path_21" data-name="Path 21" d="M321.617,401.3a1.737,1.737,0,1,0,1.737-1.737A1.736,1.736,0,0,0,321.617,401.3Z" transform="translate(-294.293 -393.707)" fill="#0a2033"/>
              <rect id="Rectangle_33" data-name="Rectangle 33" width="5.97" height="5.217" transform="translate(18.384 5.217) rotate(180)" fill="#30475e"/>
              <path id="Rectangle_34" data-name="Rectangle 34" d="M0,0H30.8a0,0,0,0,1,0,0V0a2.455,2.455,0,0,1-2.455,2.455H2.455A2.455,2.455,0,0,1,0,0V0A0,0,0,0,1,0,0Z" transform="translate(30.798 6.444) rotate(180)" fill="#fbd15b"/>
            </g>
            <rect id="Rectangle_35" data-name="Rectangle 35" width="1.029" height="19.473" transform="translate(14.37 3.468)" fill="#30475e"/>
          </g>
          <path id="Path_22" data-name="Path 22" d="M276.506,244.4a1.21,1.21,0,0,0-1.25,1.278c.2,3.535-.545,12.157-3.837,15.1-4.025,3.6-15.434,3.107-15.434,3.107s-1.884,2.312,1.884,2.826,14.388.171,16.957-2.227c2.487-2.321,3.964-8.4,2.851-18.987a1.218,1.218,0,0,0-1.17-1.1Z" transform="translate(-202.068 -211.12)" fill="#fbd15b"/>
          <g id="Group_57" data-name="Group 57" transform="translate(29.355 19.748)">
            <g id="Group_56" data-name="Group 56">
              <path id="Path_23" data-name="Path 23" d="M245.545,379.9,246.9,383l-4.157,1.824-1.362-3.1Z" transform="translate(-221.837 -322.994)" fill="url(#radial-gradient-3)"/>
              <path id="Path_24" data-name="Path 24" d="M244.448,273c-.257.514-18.727.01-20.472.17,0,0-11.3,5.4-12.928,10.446a5.519,5.519,0,0,0-.16,1.983c.452,7.112,8.55,24.141,8.55,24.141l1.244-.544,4.162-1.814.591-.257s-6.423-19.141-5.138-20.168,15.842-3.6,20.893-4.964S244.448,273,244.448,273Z" transform="translate(-201.136 -250.472)" fill="#56548c"/>
              <path id="Path_25" data-name="Path 25" d="M195.477,382.355,195.8,387h-4.537l-.325-4.658Z" transform="translate(-187.617 -324.651)" fill="url(#radial-gradient-4)"/>
              <path id="Path_26" data-name="Path 26" d="M203.355,273.031l-.165.072s-18.925,2.657-22.008,7.965c-2,3.453,1.875,28.684,1.875,28.684l6.7.015s-1-21.018-.667-22.189a3.028,3.028,0,0,1,1.274-1.958,5.519,5.519,0,0,1,.16-1.983c1.624-5.051,12.928-10.446,12.928-10.446A.322.322,0,0,1,203.355,273.031Z" transform="translate(-180.608 -250.494)" fill="#3d3d7a"/>
              <path id="Path_27" data-name="Path 27" d="M269.034,218.661l-1.269.175a62.04,62.04,0,0,1-1.064,6.845l-15.811,6-.216,1.146-.2-.015c.005.236.005.468.015.683a11.375,11.375,0,0,0,.262,2.651.325.325,0,0,0,.093.16c.429.35,6.022-.329,12.067,1.891,5.243,1.925,8.182,4.028,8.318,3.746C272.882,238.518,269.882,225.074,269.034,218.661Z" transform="translate(-228.007 -213.61)" fill="#ff4d7b"/>
              <path id="Path_28" data-name="Path 28" d="M267.385,226.871c-.421,2.025-1.511,6.053-3.648,6.593-2.79.709-8.185.673-13.242.4-.01-.216-.01-.447-.015-.683l.2.015.216-1.146,15.811-6a62.041,62.041,0,0,0,1.064-6.845.447.447,0,0,0,.005.057A33.95,33.95,0,0,1,267.385,226.871Z" transform="translate(-228.007 -213.978)" fill="#f36290"/>
              <path id="Path_29" data-name="Path 29" d="M245.029,202.956c-.283.514-.689,6.012-.91,11.469l-3.232-3.016C242.26,208.752,245.029,202.956,245.029,202.956Z" transform="translate(-221.501 -202.956)" fill="#ff4d7b"/>
              <path id="Path_30" data-name="Path 30" d="M220.537,229.119c-2.729.473-5.236.879-5.236.879l-.005.133c-3.037-2.425-7.656-9.3-7.656-9.3s1.382-1.66,1.726-2.1c.051-.067,7.585,5.118,7.97,5.072a7.37,7.37,0,0,0,1-1.7l3.232,3.016c-.051,1.3-.092,2.595-.118,3.823C221.143,229.011,220.84,229.063,220.537,229.119Z" transform="translate(-198.945 -213.663)" fill="#f7b094"/>
              <path id="Path_31" data-name="Path 31" d="M213.978,251.72l-.067,2.251H205.69s.817-3.212,3.042-3.212a3.785,3.785,0,0,1,3.083,1.177Z" transform="translate(-197.623 -235.385)" fill="url(#radial-gradient-5)"/>
              <path id="Path_32" data-name="Path 32" d="M198.275,213.7l.061.051c-.344.437-1.726,2.1-1.726,2.1l-.858-.607a2.133,2.133,0,0,1-2.045-.026c-1.146-.622-.437-2.106-.378-2.282-.222.063-1.6,1.172-1.811,1.054s-.375-.509,1.161-2.025,3.618.432,3.679.432Z" transform="translate(-187.917 -208.674)" fill="#f7b094"/>
              <path id="Path_33" data-name="Path 33" d="M198.972,220.746a.627.627,0,0,0,.258.89,5.868,5.868,0,0,0,2.227.417c.492-.048.883-.736.883-.736l-1.491-1.4h-1.192Z" transform="translate(-193.003 -214.463)" fill="#f7b094"/>
              <path id="Path_34" data-name="Path 34" d="M198.2,220.992c.088-.3.935-.142,1.459-.13.387.009.6-.092.718-.386s-.442-.764-.552-.617.2.354.212.55-.552.26-.984.26a10.529,10.529,0,0,0-1.179.113Z" transform="translate(-192.324 -214.404)" fill="#e8987c"/>
            </g>
          </g>
          <path id="Path_35" data-name="Path 35" d="M252.855,243.546l-8.052-2.852c-.586,1.094-1.213,1.916-1.835,2.081-.94.247-3.211.673-5.5,1.074-.3.056-.607.108-.91.164-2.729.473-5.236.879-5.236.879l-.005.133v.087l-.062,2.03v.515a56.9,56.9,0,0,1,6.182.1c4.825.344,11.048.55,13.108-.421.966-.457,1.737-1.958,2.343-3.808Z" transform="translate(-185.61 -208.558)" fill="url(#radial-gradient-6)"/>
          <path id="Path_36" data-name="Path 36" d="M272.79,240.694l8.052,2.852-.365,1.076-7.969-3.419Z" transform="translate(-213.597 -208.551)" fill="#f7b094"/>
          <path id="Path_37" data-name="Path 37" d="M257.908,208.286c-.586,1.094-1.213,1.917-1.834,2.081-.94.247-3.211.673-5.5,1.074.026-1.228.067-2.523.118-3.823.221-5.457.627-10.955.91-11.469a6.148,6.148,0,0,1,3.72-3.15l.005.025s-.689,4.07,3.422,4.07c3.916,0,4.414-3.808,4.45-4.172,2.014.226,5.1,1.233,5.529,5.282.087.8.211,1.829.37,3l-1.269.175a53.705,53.705,0,0,1-1.835,9.748l-.031.015Z" transform="translate(-198.714 -176.084)" fill="#ff4d7b"/>
          <path id="Path_38" data-name="Path 38" d="M273.126,221.969l3.215-7.783-2.369,8.1Z" transform="translate(-214.016 -190.532)" fill="#f36290" style="mix-blend-mode: screen;isolation: isolate"/>
          <path id="Path_39" data-name="Path 39" d="M264.846,192.922h-1.752s-2.493,2.738-4.1,2.738-.739-2.722-.739-2.722h-.782a4.42,4.42,0,0,0-4.391,3.919c-.029.256-.056.5-.078.718-.171,1.656,6.538,2.862,6.538,2.862l3.455-.193,2.1-4.093.418-1.676Z" transform="translate(-200.366 -176.07)" fill="#f36290"/>
          <g id="Group_61" data-name="Group 61" transform="translate(43.331 79.476)">
            <g id="Group_60" data-name="Group 60" transform="translate(0 0)">
              <g id="Group_59" data-name="Group 59">
                <g id="Group_58" data-name="Group 58">
                  <path id="Path_40" data-name="Path 40" d="M224.071,401.2a1.364,1.364,0,0,0,1.574,1.276l11.16-2.082a.52.52,0,0,0,.416-.607l-.185-.99s-11.737,2.054-12.971,2.4Z" transform="translate(-224.065 -395.538)" fill="#f1f2f2"/>
                  <path id="Path_41" data-name="Path 41" d="M227.391,391.518c.116-.1.228-.2.345-.3.224-.2.444-.4.656-.584l.328-.294.568-.507.343-.311.456-.408a.252.252,0,0,1,.332-.007c.459.386,1.942,1.267,4.627-.394a.258.258,0,0,1,.365.1l1.624,3.121s-11.737,2.054-12.971,2.4C224.471,394.069,225.969,392.772,227.391,391.518Z" transform="translate(-224.065 -388.669)" fill="#3d3d7a"/>
                </g>
              </g>
            </g>
          </g>
          <g id="Group_65" data-name="Group 65" transform="translate(25.756 80.792)">
            <g id="Group_64" data-name="Group 64">
              <g id="Group_63" data-name="Group 63">
                <g id="Group_62" data-name="Group 62">
                  <path id="Path_42" data-name="Path 42" d="M169.422,405.278c.021.851.5,1.531,1.35,1.511l11.349-.277a.52.52,0,0,0,.507-.533l-.025-1.007s-11.915.158-13.186.3Z" transform="translate(-169.418 -401.044)" fill="#f1f2f2"/>
                  <path id="Path_43" data-name="Path 43" d="M173.148,394.748l.389-.243.741-.472.37-.238.642-.41.388-.252.515-.331a.252.252,0,0,1,.329.046c.392.454,1.715,1.561,4.631.348a.258.258,0,0,1,.346.152l1.106,3.341s-11.915.158-13.186.3C169.858,396.8,171.544,395.759,173.148,394.748Z" transform="translate(-169.418 -392.759)" fill="#3d3d7a"/>
                </g>
              </g>
            </g>
          </g>
          <g id="Group_67" data-name="Group 67" transform="translate(11.626 22.967)">
            <path id="Path_44" data-name="Path 44" d="M131.544,228.248l-6.061-16.166h17.256l6.061,16.166Z" transform="translate(-125.483 -212.082)" fill="#bbd0e0"/>
            <path id="Path_45" data-name="Path 45" d="M186.264,228.248H185.2l-6.061-16.166.969.043,5.606,14.632Z" transform="translate(-161.881 -212.082)" fill="#8495a0"/>
            <path id="Path_46" data-name="Path 46" d="M128.369,256.914h21.725" transform="translate(-127.441 -242.496)" fill="none"/>
            <g id="Group_66" data-name="Group 66" transform="translate(23.816 15.146)">
              <path id="Path_47" data-name="Path 47" d="M199.767,260.2h11.4l-.031-1.019h-11.6" transform="translate(-199.534 -259.177)" fill="#8495a0"/>
            </g>
          </g>
          <g id="Group_72" data-name="Group 72" transform="translate(0 38.849)">
            <g id="Group_68" data-name="Group 68" transform="translate(81.507 3.083)">
              <rect id="Rectangle_36" data-name="Rectangle 36" width="2.745" height="45.101" fill="#8798b3"/>
            </g>
            <g id="Group_69" data-name="Group 69" transform="translate(66.605 3.083)">
              <rect id="Rectangle_37" data-name="Rectangle 37" width="2.745" height="45.101" fill="#bbd0e0"/>
            </g>
            <g id="Group_70" data-name="Group 70" transform="translate(18.866 3.083)">
              <rect id="Rectangle_38" data-name="Rectangle 38" width="2.745" height="45.101" fill="#8798b3"/>
            </g>
            <g id="Group_71" data-name="Group 71" transform="translate(3.964 3.083)">
              <rect id="Rectangle_39" data-name="Rectangle 39" width="2.745" height="45.101" fill="#bbd0e0"/>
            </g>
            <rect id="Rectangle_40" data-name="Rectangle 40" width="88.334" height="3.254" rx="1.627" fill="#141b56"/>
          </g>
          <path id="Path_48" data-name="Path 48" d="M134.441,217.366l.3.787h3.437l-.3-.787Z" transform="translate(-119.934 -192.684)" fill="#8495a0"/>
          <path id="Path_49" data-name="Path 49" d="M240.367,229.238l-.247.477,3.479,3.6v-1.056Z" transform="translate(-191.626 -200.762)" fill="#e8987c"/>
        </g>
      </g>
      <g id="Group_79" data-name="Group 79" transform="translate(78.515 77.066)">
        <g id="Group_78" data-name="Group 78">
          <g id="Group_75" data-name="Group 75" transform="translate(12.011 5.058)">
            <path id="Path_50" data-name="Path 50" d="M377.9,311.136c-.552,2.677-.386,7.238-3.928,7.961a2.588,2.588,0,0,1-2.429-1.224c-.726-.992-.9-3.09-.887-4.291.01-.951.334-2.012.439-2.972.113-1.037.2-2.075.325-3.111a11.213,11.213,0,0,1,5.685-8.726,17.716,17.716,0,0,0,1.35,3.439,12.179,12.179,0,0,1,.6,1.664,5.824,5.824,0,0,1-.3,2.955C378.4,308.241,378.2,309.71,377.9,311.136Z" transform="translate(-370.657 -298.773)" fill="url(#linear-gradient)"/>
            <path id="Path_51" data-name="Path 51" d="M374.724,322q.038-.337.083-.673a2.882,2.882,0,0,0,1.219-.426,6.475,6.475,0,0,0,1.6-1.267c.026-.026-.018-.068-.045-.045a7.206,7.206,0,0,1-1.558,1.066,4.384,4.384,0,0,1-1.184.441q.056-.4.123-.8a3.37,3.37,0,0,0,1.218-.565,13.917,13.917,0,0,0,1.745-1.332.006.006,0,0,0-.008-.01,7.928,7.928,0,0,1-2.922,1.718c.058-.334.119-.668.189-1,0-.017.007-.034.011-.052a8.381,8.381,0,0,0,3.092-2.116c.016-.013,0-.04-.018-.027a9.853,9.853,0,0,1-3.032,1.947c.1-.474.209-.946.316-1.419a6.759,6.759,0,0,0,2.861-2.029c.013-.016-.009-.038-.023-.023a8.728,8.728,0,0,1-2.793,1.849c.106-.468.211-.935.311-1.4a10.515,10.515,0,0,0,1.475-.713,4.036,4.036,0,0,0,1.148-1.164.022.022,0,0,0-.038-.024,6.012,6.012,0,0,1-2.542,1.693c.091-.437.176-.875.252-1.316a6.141,6.141,0,0,0,2.762-2.2c.006-.011-.009-.022-.016-.011a6.528,6.528,0,0,1-2.708,1.993c.013-.078.027-.157.039-.235.064-.408.123-.818.182-1.227a9.988,9.988,0,0,0,1.706-.928,3.248,3.248,0,0,0,1.04-.886.023.023,0,0,0-.037-.026,6.467,6.467,0,0,1-2.684,1.662q.088-.62.176-1.24c1-.606,2.181-.942,2.8-2.034a.029.029,0,0,0-.05-.031c-.638,1-1.763,1.306-2.721,1.872q.055-.384.113-.768a6.052,6.052,0,0,0,2.911-2.282.048.048,0,0,0-.082-.052,6.074,6.074,0,0,1-2.8,2.131c.064-.415.131-.828.2-1.242a.108.108,0,0,0,.016-.036,6.2,6.2,0,0,0,1.386-.745,3.787,3.787,0,0,0,1.3-1.187c.035-.057-.058-.109-.09-.051a4.744,4.744,0,0,1-2.565,1.76c.028-.151.055-.3.085-.452.044-.225.09-.45.136-.675.387-.267.877-.395,1.266-.677a7.164,7.164,0,0,0,.921-.839c.029-.03-.014-.076-.044-.047a6.093,6.093,0,0,1-1.272.977c-.267.143-.571.224-.829.38.076-.368.151-.735.223-1.1l.014,0,.014,0a.069.069,0,0,0,.064-.02,2.873,2.873,0,0,0,1.281-.971.01.01,0,0,0-.013-.014,3.508,3.508,0,0,1-1.288.869l-.005,0-.038-.006q.087-.45.162-.9a.069.069,0,0,0,.062-.077,5.532,5.532,0,0,0,.77-.659.019.019,0,0,0-.026-.028,4.492,4.492,0,0,1-.769.543,18.568,18.568,0,0,0,.209-1.877c0-.059-.085-.059-.09,0-.055.607-.143,1.209-.248,1.807a5.582,5.582,0,0,1-.79-1.208c-.009-.023-.045-.014-.037.011a3.447,3.447,0,0,0,.384.747,4.545,4.545,0,0,0,.407.657q-.088.482-.188.962a1.773,1.773,0,0,1-.967-.379,1.755,1.755,0,0,1-.594-1.208c0-.058-.1-.058-.09,0a2,2,0,0,0,.514,1.177,1.881,1.881,0,0,0,1.11.541q-.116.554-.238,1.108a8.621,8.621,0,0,1-.906-.673,12.344,12.344,0,0,1-1.145-1.236c-.041-.042-.107.019-.067.061a13.014,13.014,0,0,0,1.066,1.2,6.141,6.141,0,0,0,1.023.78l-.013.059-.012.01a.059.059,0,0,0-.008.083c-.078.353-.155.707-.23,1.061,0,.022-.009.045-.013.067-.824-.377-2.055-1.033-2.164-1.989a.064.064,0,1,0-.125.028c.244,1.082,1.433,1.561,2.252,2.151q-.121.6-.223,1.2a4.876,4.876,0,0,1-1.485-.765,3.371,3.371,0,0,1-1.164-1.214c-.006-.016-.029-.005-.024.01.169.5.685.839,1.06,1.179a3.968,3.968,0,0,0,1.576.969.108.108,0,0,0,0,.054q-.063.383-.122.767a4.572,4.572,0,0,1-2.912-1.594s-.007,0-.005,0a3.284,3.284,0,0,0,1.47,1.208,4.058,4.058,0,0,0,1.426.515c-.072.473-.141.947-.212,1.421-.434-.162-.894-.239-1.323-.411a3.277,3.277,0,0,1-1.5-1.279c-.022-.034-.079-.005-.057.03a4.756,4.756,0,0,0,2.857,1.837q-.088.583-.183,1.165a4.2,4.2,0,0,1-2.674-1.6c-.036-.061-.133-.01-.1.051a3.1,3.1,0,0,0,1.368,1.139,4.206,4.206,0,0,0,1.379.553l-.006.038c-.094.558-.2,1.113-.324,1.667a5.917,5.917,0,0,1-2.533-1.8c-.054-.051-.138.027-.085.08a6,6,0,0,0,2.582,1.881q-.148.675-.312,1.347a4.931,4.931,0,0,1-2.4-1.64c-.042-.052-.115.019-.075.071a5.307,5.307,0,0,0,2.43,1.743q-.177.721-.363,1.44a3.539,3.539,0,0,1-2.228-1.466c-.013-.017-.043.005-.031.023a3.474,3.474,0,0,0,2.214,1.618l-.118.459c-.024.092-.049.186-.074.28a5.3,5.3,0,0,1-1.939-.935c-.016-.013-.035.012-.02.026a5.054,5.054,0,0,0,1.92,1.05c-.078.288-.161.584-.243.885a3.947,3.947,0,0,0-.535-.228,3.848,3.848,0,0,1-.882-.51c-.028-.017-.059.023-.032.041a4,4,0,0,0,.761.515c.226.085.439.194.658.291a9.6,9.6,0,0,0-.451,3.616c.034.255.461.322.527.051A20.426,20.426,0,0,0,374.724,322Z" transform="translate(-372.006 -301.59)" fill="#b2b2db"/>
          </g>
          <g id="Group_76" data-name="Group 76" transform="translate(0 5.782)">
            <path id="Path_52" data-name="Path 52" d="M341.358,311.9c.63,2.66,2.705,6.725-.2,8.875a2.588,2.588,0,0,1-2.72-.084c-1.076-.593-2.119-2.422-2.614-3.516-.393-.867-.546-1.966-.856-2.88-.335-.987-.691-1.968-1.018-2.958a11.214,11.214,0,0,1,1.471-10.31,17.726,17.726,0,0,0,2.676,2.548,12.163,12.163,0,0,1,1.244,1.257,5.824,5.824,0,0,1,.976,2.805C340.586,309.063,341.023,310.48,341.358,311.9Z" transform="translate(-333.312 -301.024)" fill="url(#linear-gradient-2)"/>
            <path id="Path_53" data-name="Path 53" d="M341.888,324.086q-.108-.322-.209-.646a2.879,2.879,0,0,0,.926-.9,6.483,6.483,0,0,0,.916-1.824c.012-.034-.045-.054-.06-.022a7.216,7.216,0,0,1-.963,1.624,4.379,4.379,0,0,1-.887.9q-.119-.388-.228-.779a3.36,3.36,0,0,0,.865-1.026,13.951,13.951,0,0,0,1.02-1.945.007.007,0,0,0-.012-.006,7.934,7.934,0,0,1-1.924,2.791c-.089-.328-.174-.656-.25-.986,0-.017-.008-.034-.012-.052a8.382,8.382,0,0,0,1.91-3.224c.009-.019-.018-.036-.027-.017a9.859,9.859,0,0,1-1.927,3.045q-.161-.71-.313-1.42a6.752,6.752,0,0,0,1.738-3.047.016.016,0,0,0-.031-.011,8.725,8.725,0,0,1-1.751,2.855c-.1-.468-.2-.937-.311-1.4a10.44,10.44,0,0,0,1.036-1.268,4.031,4.031,0,0,0,.549-1.539.023.023,0,0,0-.045-.006,6.011,6.011,0,0,1-1.59,2.607q-.152-.652-.327-1.3a6.142,6.142,0,0,0,1.574-3.162c0-.012-.018-.016-.019,0a6.525,6.525,0,0,1-1.614,2.95c-.021-.077-.042-.153-.063-.23q-.172-.6-.353-1.189a10,10,0,0,0,1.156-1.562,3.253,3.253,0,0,0,.569-1.242.023.023,0,0,0-.044-.008,6.474,6.474,0,0,1-1.732,2.64q-.182-.6-.364-1.2c.653-.973,1.58-1.774,1.678-3.025a.029.029,0,0,0-.058-.007c-.158,1.174-1.047,1.928-1.676,2.846q-.112-.372-.222-.744a6.049,6.049,0,0,0,1.676-3.3.049.049,0,0,0-.1-.013,6.069,6.069,0,0,1-1.637,3.112c-.117-.4-.231-.806-.338-1.212a.119.119,0,0,0,0-.04,6.2,6.2,0,0,0,.942-1.259,3.789,3.789,0,0,0,.68-1.626.052.052,0,0,0-.1-.008,4.743,4.743,0,0,1-1.583,2.679c-.038-.148-.077-.3-.114-.445q-.082-.334-.161-.669c.238-.405.629-.728.862-1.148a7.134,7.134,0,0,0,.481-1.15.032.032,0,0,0-.06-.024,6.073,6.073,0,0,1-.741,1.422c-.181.242-.423.444-.59.7-.087-.365-.174-.73-.264-1.094l.011-.009.014,0a.068.068,0,0,0,.049-.045,2.87,2.87,0,0,0,.752-1.421.01.01,0,0,0-.018-.007,3.51,3.51,0,0,1-.8,1.332h-.006l-.037.011q-.111-.444-.233-.885a.069.069,0,0,0,.024-.1,5.494,5.494,0,0,0,.419-.922.019.019,0,0,0-.036-.015,4.489,4.489,0,0,1-.468.816,18.593,18.593,0,0,0-.6-1.79c-.022-.054-.1-.018-.083.037.206.574.38,1.156.538,1.743a5.585,5.585,0,0,1-1.226-.761c-.018-.017-.046.007-.029.025a3.459,3.459,0,0,0,.664.516,4.587,4.587,0,0,0,.646.424c.083.316.161.633.236.951a1.774,1.774,0,0,1-1.037.065,1.755,1.755,0,0,1-1.049-.845c-.028-.051-.111-.012-.082.039a2,2,0,0,0,.963.85,1.883,1.883,0,0,0,1.235.022q.129.551.252,1.1a8.632,8.632,0,0,1-1.106-.227,12.4,12.4,0,0,1-1.56-.637.045.045,0,0,0-.035.083,12.928,12.928,0,0,0,1.474.639,6.121,6.121,0,0,0,1.256.275l.013.058-.007.015a.059.059,0,0,0,.028.078c.078.353.157.707.239,1.059,0,.022.011.044.016.066-.906.006-2.3-.069-2.8-.889-.048-.078-.16,0-.1.077.677.878,1.958.81,2.949,1q.144.6.307,1.186a4.878,4.878,0,0,1-1.669-.067,3.373,3.373,0,0,1-1.568-.609c-.012-.012-.029.007-.017.019a3.284,3.284,0,0,0,1.459.621,3.964,3.964,0,0,0,1.837.214.112.112,0,0,0,.021.05q.1.373.213.746a4.571,4.571,0,0,1-3.312-.216s-.006,0,0,.005a3.283,3.283,0,0,0,1.843.475,4.066,4.066,0,0,0,1.51-.135c.135.459.272.918.408,1.377-.462.037-.911.16-1.374.186a3.278,3.278,0,0,1-1.9-.526c-.035-.021-.074.029-.039.051a4.755,4.755,0,0,0,3.365.46q.166.565.325,1.133a4.2,4.2,0,0,1-3.1-.318c-.058-.04-.124.047-.066.088a3.1,3.1,0,0,0,1.721.455,4.2,4.2,0,0,0,1.484-.08l.01.037c.15.546.284,1.1.41,1.647a5.914,5.914,0,0,1-3.055-.562c-.071-.024-.114.083-.043.108a6,6,0,0,0,3.135.616q.151.675.286,1.353a4.933,4.933,0,0,1-2.865-.475c-.06-.03-.1.065-.038.1a5.3,5.3,0,0,0,2.939.555c.1.486.188.972.278,1.459a3.539,3.539,0,0,1-2.639-.388c-.019-.01-.037.023-.018.034a3.475,3.475,0,0,0,2.69.532q.043.233.086.466c.017.094.034.189.051.285a5.3,5.3,0,0,1-2.152-.029c-.02-.005-.026.025-.007.032a5.052,5.052,0,0,0,2.184.141c.05.294.1.6.153.905a3.87,3.87,0,0,0-.581.019,3.861,3.861,0,0,1-1.015-.09c-.032,0-.044.046-.011.05a3.991,3.991,0,0,0,.907.145c.241-.018.48-.01.719-.014a9.59,9.59,0,0,0,1.118,3.469c.138.216.554.1.5-.176A20.475,20.475,0,0,0,341.888,324.086Z" transform="translate(-334.548 -304.003)" fill="#b2b2db"/>
          </g>
          <g id="Group_77" data-name="Group 77" transform="translate(5.168)">
            <path id="Path_54" data-name="Path 54" d="M358.4,297.638c.15,3.38,1.732,8.8-2.3,10.742a3.2,3.2,0,0,1-3.286-.732c-1.171-.97-2.016-3.435-2.365-4.879-.277-1.145-.209-2.516-.375-3.7-.179-1.278-.384-2.552-.553-3.832a13.878,13.878,0,0,1,4.176-12.193,21.92,21.92,0,0,0,2.663,3.717,15.068,15.068,0,0,1,1.221,1.816,7.2,7.2,0,0,1,.537,3.636C358.116,294.014,358.319,295.838,358.4,297.638Z" transform="translate(-349.382 -283.045)" fill="url(#linear-gradient-3)"/>
            <path id="Path_55" data-name="Path 55" d="M357.057,312.359q-.057-.415-.105-.833a3.568,3.568,0,0,0,1.333-.88,8.031,8.031,0,0,0,1.536-2.005c.023-.039-.042-.077-.068-.04a8.928,8.928,0,0,1-1.546,1.752,5.436,5.436,0,0,1-1.286.888q-.055-.5-.1-1a4.162,4.162,0,0,0,1.289-1.047,17.277,17.277,0,0,0,1.69-2.127.008.008,0,0,0-.013-.01c-.847,1.016-1.733,2.381-2.986,2.948-.032-.419-.06-.838-.076-1.257,0-.022,0-.043,0-.065,1.422-.768,2.149-2.22,3.069-3.477.015-.02-.013-.047-.03-.027a12.188,12.188,0,0,1-3.048,3.256c-.021-.6-.037-1.2-.051-1.8a8.361,8.361,0,0,0,2.818-3.3.02.02,0,0,0-.034-.02,10.8,10.8,0,0,1-2.79,3.065c-.014-.593-.03-1.185-.053-1.778a12.909,12.909,0,0,0,1.553-1.3,4.993,4.993,0,0,0,1.024-1.744.028.028,0,0,0-.053-.018c-.489,1.3-1.562,1.937-2.536,2.8-.023-.552-.054-1.1-.1-1.655,1.075-1,2.271-1.983,2.646-3.48,0-.015-.018-.023-.022-.008-.444,1.4-1.623,2.253-2.646,3.213-.008-.1-.014-.2-.024-.295-.047-.509-.1-1.019-.154-1.527a12.333,12.333,0,0,0,1.766-1.631,4.029,4.029,0,0,0,.979-1.378.028.028,0,0,0-.052-.02c-.427,1.129-1.754,2.054-2.716,2.808q-.083-.77-.165-1.541c1.018-1.031,2.331-1.791,2.74-3.289a.036.036,0,0,0-.069-.022c-.464,1.391-1.719,2.1-2.7,3.071q-.05-.478-.1-.956a7.486,7.486,0,0,0,2.8-3.62.06.06,0,0,0-.114-.038,7.515,7.515,0,0,1-2.71,3.4c-.049-.517-.094-1.034-.131-1.551a.142.142,0,0,0,.008-.049,7.693,7.693,0,0,0,1.437-1.313,4.69,4.69,0,0,0,1.2-1.819.064.064,0,0,0-.124-.034,5.868,5.868,0,0,1-2.545,2.89c-.012-.189-.025-.378-.035-.568q-.022-.426-.041-.851c.383-.437.933-.74,1.313-1.2a8.861,8.861,0,0,0,.851-1.286.04.04,0,0,0-.068-.043,7.53,7.53,0,0,1-1.229,1.557c-.277.252-.617.442-.879.708-.021-.464-.042-.928-.067-1.391l.015-.008h.018a.084.084,0,0,0,.07-.043A3.555,3.555,0,0,0,357,290.822a.012.012,0,0,0-.02-.013,4.344,4.344,0,0,1-1.282,1.434H355.7l-.047,0q-.032-.566-.078-1.13a.085.085,0,0,0,.051-.111,6.85,6.85,0,0,0,.723-1.024.024.024,0,0,0-.04-.026,5.574,5.574,0,0,1-.758.884,23.034,23.034,0,0,0-.318-2.316c-.014-.071-.12-.045-.109.026.118.745.195,1.494.251,2.243a6.911,6.911,0,0,1-1.314-1.21c-.018-.024-.058,0-.042.024a4.274,4.274,0,0,0,.688.78,5.69,5.69,0,0,0,.688.665c.028.4.049.807.067,1.211a2.2,2.2,0,0,1-1.275-.161,2.171,2.171,0,0,1-1.079-1.27c-.023-.068-.132-.04-.108.028a2.474,2.474,0,0,0,.974,1.256,2.329,2.329,0,0,0,1.5.313q.029.7.05,1.4a10.621,10.621,0,0,1-1.291-.533,15.246,15.246,0,0,1-1.749-1.136c-.061-.038-.123.055-.062.094a16.149,16.149,0,0,0,1.643,1.118,7.574,7.574,0,0,0,1.463.625l0,.074-.012.016a.074.074,0,0,0,.015.1c.014.447.028.9.046,1.342,0,.028,0,.056,0,.084-1.1-.2-2.779-.616-3.2-1.729a.08.08,0,1,0-.142.071c.62,1.224,2.192,1.439,3.354,1.9q.037.757.1,1.513a6.031,6.031,0,0,1-2.013-.468,4.169,4.169,0,0,1-1.765-1.1c-.012-.017-.037,0-.025.019a4.068,4.068,0,0,0,1.63,1.093,4.913,4.913,0,0,0,2.184.685.136.136,0,0,0,.014.065q.041.478.087.956a5.657,5.657,0,0,1-3.977-1.029s-.009,0-.005.006a4.062,4.062,0,0,0,2.131,1,5.022,5.022,0,0,0,1.867.186c.057.59.118,1.18.177,1.769-.57-.062-1.145-.016-1.713-.092a4.053,4.053,0,0,1-2.19-1.079c-.038-.034-.1.018-.06.054,1.165,1.111,2.459,1.2,3.984,1.338q.071.726.133,1.453a5.2,5.2,0,0,1-3.693-1.1c-.061-.062-.162.028-.1.091a3.834,3.834,0,0,0,1.987.952,5.2,5.2,0,0,0,1.823.246c0,.016,0,.032,0,.048.056.7.092,1.4.117,2.1a7.319,7.319,0,0,1-3.584-1.39c-.08-.045-.158.074-.077.121a7.428,7.428,0,0,0,3.669,1.475q.027.855.034,1.711a6.1,6.1,0,0,1-3.373-1.241c-.066-.051-.132.057-.068.108a6.565,6.565,0,0,0,3.444,1.355c0,.612,0,1.225,0,1.837a4.38,4.38,0,0,1-3.118-1.083c-.021-.017-.051.02-.03.037a4.3,4.3,0,0,0,3.147,1.27q0,.293,0,.587,0,.177,0,.359a6.566,6.566,0,0,1-2.61-.534c-.023-.011-.038.025-.015.037a6.258,6.258,0,0,0,2.622.677c-.007.369-.017.749-.023,1.136a4.864,4.864,0,0,0-.711-.111,4.766,4.766,0,0,1-1.213-.345c-.039-.012-.065.045-.025.059a4.96,4.96,0,0,0,1.069.386c.3.034.586.1.877.15a11.866,11.866,0,0,0,.556,4.476c.118.3.651.247.648-.1A25.376,25.376,0,0,0,357.057,312.359Z" transform="translate(-351.031 -286.734)" fill="#b2b2db"/>
          </g>
          <path id="Path_56" data-name="Path 56" d="M361.031,366.66l-.149,2.748-.233,4.278-.383,7.03h-9.517l-.383-7.03-.233-4.278-.149-2.748Z" transform="translate(-344.622 -339.768)" fill="#dadaf5"/>
          <path id="Path_57" data-name="Path 57" d="M361.2,375.2l-.031.551-.031.57-.172,3.157H350.681l-.172-3.157-.031-.57-.031-.551Z" transform="translate(-344.937 -345.564)" fill="#b2b2db"/>
          <path id="Path_58" data-name="Path 58" d="M361.231,376.916l-.031.57H350.573l-.031-.57Z" transform="translate(-345.001 -346.726)" fill="#a0a0de"/>
        </g>
      </g>
    </g>
  </g>
</svg>
