<svg id="Layer_1" data-name="Layer 1" xmlns="http://www.w3.org/2000/svg" viewBox="0 0 110.44 79.54"><defs><style>.cls-1,.cls-3,.cls-4,.cls-5{fill:none;}.cls-1,.cls-3{stroke:#7e74e3;}.cls-1,.cls-4,.cls-5{stroke-miterlimit:10;}.cls-1,.cls-3,.cls-5{stroke-width:2px;}.cls-2{fill:#7e74e3;}.cls-3{stroke-linecap:round;stroke-linejoin:round;}.cls-4,.cls-5{stroke:#0093c4;}.cls-4{stroke-width:2.09px;}.cls-6,.cls-7{fill:#0093c4;}.cls-7{isolation:isolate;font-size:18px;font-family:MyriadPro-Semibold, Myriad Pro;font-weight:700;}</style></defs><title>Delivered Time</title><path class="cls-1" d="M541.8,508.5H447.3a4.69,4.69,0,0,1-4.7-4.7v-.5a4.69,4.69,0,0,1,4.7-4.7h94.5a4.69,4.69,0,0,1,4.7,4.7v.5A4.69,4.69,0,0,1,541.8,508.5Z" transform="translate(-441.6 -429.96)"/><path class="cls-2" d="M530.5,479v19a1,1,0,1,0,1.9,0V479c.1-1.3-1.9-1.3-1.9,0Z" transform="translate(-441.6 -429.96)"/><polyline class="cls-3" points="15.9 68.04 15.9 19.04 61.4 19.04"/><polyline class="cls-3" points="63.4 13.44 10.4 13.04 10.4 68.54"/><line class="cls-1" x1="96.3" y1="46.24" x2="96.3" y2="69.54"/><path class="cls-4" d="M551,455a24,24,0,1,1-24-24A23.77,23.77,0,0,1,551,455Z" transform="translate(-441.6 -429.96)"/><path class="cls-5" d="M508.8,449.5A19,19,0,0,1,546,455a18,18,0,0,1-1.2,6.6,19.34,19.34,0,0,1-9.3,10.4A19,19,0,0,1,508,455a19.76,19.76,0,0,1,.8-5.5" transform="translate(-441.6 -429.96)"/><line class="cls-5" x1="85.4" y1="38.04" x2="85.4" y2="44.04"/><path class="cls-6" d="M526,436v6a1,1,0,0,0,2,0v-6a1,1,0,0,0-2,0Z" transform="translate(-441.6 -429.96)"/><path class="cls-6" d="M546,454h-6a1,1,0,0,0,0,2h6a1,1,0,0,0,0-2Z" transform="translate(-441.6 -429.96)"/><path class="cls-6" d="M514,454h-6a1,1,0,0,0,0,2h6a1,1,0,0,0,0-2Z" transform="translate(-441.6 -429.96)"/><path class="cls-6" d="M530.1,448.5c-1.3,2-2.7,4-4,6,.6.2,1.2.3,1.9.5v-9a1,1,0,0,0-2,0v9a1,1,0,0,0,1.9.5c1.3-2,2.7-4,4-6,.7-1.1-1.1-2.1-1.8-1Z" transform="translate(-441.6 -429.96)"/><text class="cls-7" transform="translate(25.4 58.54)">24/7</text></svg>