<svg id="Layer_1" data-name="Layer 1" xmlns="http://www.w3.org/2000/svg" viewBox="0 0 96.8 79.19"><defs><style>.cls-1,.cls-2,.cls-3,.cls-8{fill:none;stroke-linecap:round;stroke-linejoin:round;}.cls-1,.cls-8{stroke:#7e74e3;}.cls-1,.cls-3{stroke-width:2.2px;}.cls-2,.cls-3{stroke:#0093c4;}.cls-2{stroke-width:1.2px;}.cls-4,.cls-6{fill:#0093c4;}.cls-5,.cls-6{isolation:isolate;}.cls-6{font-size:9.9px;font-family:Nunito-Regular, Nunito;}.cls-7{letter-spacing:-0.05em;}.cls-8{stroke-width:2.17px;}</style></defs><title>Software Expertise</title><path class="cls-1" d="M495.2,473.9h-70a3.54,3.54,0,0,1-3.5-3.5V423.5a3.54,3.54,0,0,1,3.5-3.5h55.9s1.1,7.7,5.5,12.1,12.1,6.6,12.1,6.6v31.7A3.54,3.54,0,0,1,495.2,473.9Z" transform="translate(-420.6 -402.4)"/><line class="cls-1" x1="2.2" y1="29.7" x2="66" y2="29.7"/><circle class="cls-2" cx="9.4" cy="23.6" r="2.8"/><circle class="cls-2" cx="19.3" cy="23.6" r="2.8"/><circle class="cls-2" cx="29.2" cy="23.6" r="2.8"/><circle class="cls-3" cx="80.3" cy="16.5" r="15.4"/><polyline class="cls-1" points="71.5 13.2 77 22 90.2 12.1"/><path class="cls-4" d="M476.3,455.4l-3.9,3.9a.61.61,0,0,0,0,.8l3.8,3.8c.5.5,1.2-.3.8-.8l-3.8-3.8v.8l3.9-3.9c.4-.6-.4-1.3-.8-.8Z" transform="translate(-420.6 -402.4)"/><path class="cls-4" d="M483.7,463.8l3.9-3.9a.61.61,0,0,0,0-.8l-3.8-3.8c-.5-.5-1.2.3-.8.8l3.8,3.8v-.8l-3.9,3.9c-.4.5.3,1.3.8.8Z" transform="translate(-420.6 -402.4)"/><path class="cls-4" d="M481.4,455.1c-1.2,2.9-2.4,5.9-3.5,8.8-.3.6.8.9,1,.3,1.2-2.9,2.4-5.9,3.5-8.8.3-.7-.7-1-1-.3Z" transform="translate(-420.6 -402.4)"/><g class="cls-5"><text class="cls-6" transform="translate(11 42.9)"><tspan class="cls-7">1010</tspan><tspan x="21.69" y="0">1</tspan></text><text class="cls-6" transform="translate(11 54.8)"><tspan class="cls-7">0101</tspan><tspan x="21.69" y="0">0</tspan></text><text class="cls-6" transform="translate(11 66.7)"><tspan class="cls-7">1010</tspan><tspan x="21.69" y="0">1</tspan></text></g><path class="cls-8" d="M491,465.2V450a1.62,1.62,0,0,0-1.8-1.4H470.9a1.62,1.62,0,0,0-1.8,1.4v29a1.69,1.69,0,0,0,1.8,1.5h18.3A1.62,1.62,0,0,0,491,479v-7.9" transform="translate(-420.6 -402.4)"/></svg>