<svg id="Layer_1" data-name="Layer 1" xmlns="http://www.w3.org/2000/svg" viewBox="0 0 106.1 79.6"><defs><style>.cls-1,.cls-2,.cls-4,.cls-5{fill:none;stroke-linejoin:round;}.cls-1,.cls-2{stroke:#7e74e3;}.cls-1,.cls-2,.cls-4{stroke-width:2px;}.cls-2,.cls-4,.cls-5{stroke-linecap:round;}.cls-3{fill:#0093c4;}.cls-4,.cls-5{stroke:#0093c4;}.cls-5{stroke-width:1.37px;}</style></defs><title>web Solutions</title><path class="cls-1" d="M542.4,467.3H442.5a2.11,2.11,0,0,1-2.1-2.1V391.8a2.11,2.11,0,0,1,2.1-2.1h99.9a2.11,2.11,0,0,1,2.1,2.1v73.4A2.11,2.11,0,0,1,542.4,467.3Z" transform="translate(-439.4 -388.7)"/><polyline class="cls-2" points="1.1 16.3 53.6 16.3 60.6 9.1 105.1 9.1"/><circle class="cls-3" cx="12.6" cy="8.3" r="2.5"/><circle class="cls-3" cx="22.6" cy="8.3" r="2.5"/><circle class="cls-3" cx="32.6" cy="8.3" r="2.5"/><polygon class="cls-4" points="43.6 70.3 43.6 40.3 50.9 25.7 58.6 40.3 58.6 70.3 43.6 70.3"/><path class="cls-4" d="M483,429h0Z" transform="translate(-439.4 -388.7)"/><path class="cls-4" d="M490.7,429v0Z" transform="translate(-439.4 -388.7)"/><rect class="cls-4" x="74.2" y="24.3" width="14.9" height="46.5"/><line class="cls-4" x1="84.4" y1="63" x2="88.5" y2="63"/><line class="cls-4" x1="84.4" y1="51.5" x2="88.5" y2="51.5"/><line class="cls-4" x1="84.4" y1="41.6" x2="88.5" y2="41.6"/><line class="cls-4" x1="84.4" y1="32.3" x2="88.5" y2="32.3"/><path class="cls-5" d="M469.8,428.9l-.6-1a1.76,1.76,0,0,0-2.4-.6h0a2,2,0,0,1-1.3.2,2.1,2.1,0,0,1-1.1-.8,2.35,2.35,0,0,1-.2-.8h0a2.11,2.11,0,0,0-.5-1.3,1.46,1.46,0,0,0-1.2-.5h-1.1a1.66,1.66,0,0,0-1.2.5,1.85,1.85,0,0,0-.5,1.2h0a1.69,1.69,0,0,1-1.7,1.7,1.88,1.88,0,0,1-.8-.2h0a1.78,1.78,0,0,0-2.4.6l-.6,1a1.78,1.78,0,0,0,.6,2.4h0a1.86,1.86,0,0,1,.9,1.5,1.65,1.65,0,0,1-.9,1.5h0a1.76,1.76,0,0,0-.6,2.4h0l.6,1a1.59,1.59,0,0,0,1,.8,1.53,1.53,0,0,0,1.3-.2h0a2,2,0,0,1,1.3-.2,2.1,2.1,0,0,1,1.1.8,2.35,2.35,0,0,1,.2.8h0a1.69,1.69,0,0,0,1.7,1.7h1.1a1.69,1.69,0,0,0,1.7-1.7h0a1.66,1.66,0,0,1,.5-1.2,1.85,1.85,0,0,1,1.2-.5,1.88,1.88,0,0,1,.8.2h0a1.78,1.78,0,0,0,2.4-.6h0l.6-1a2,2,0,0,0,.2-1.3,2.1,2.1,0,0,0-.8-1.1h0a1.55,1.55,0,0,1-.8-1.1,1.48,1.48,0,0,1,.2-1.3,1.7,1.7,0,0,1,.6-.6h0a1.6,1.6,0,0,0,.7-2.3Z" transform="translate(-439.4 -388.7)"/><circle class="cls-5" cx="22.6" cy="44.1" r="2.4"/></svg>