<svg xmlns="http://www.w3.org/2000/svg" width="690.269" height="470.326" viewBox="0 0 690.269 470.326">
  <g id="Benefit_vector" data-name="Benefit vector" transform="translate(-75.638 -70.854)">
    <g id="Background_Complete" data-name="Background Complete" transform="translate(58.638 70.854)">
      <g id="Group_1" data-name="Group 1" transform="translate(238.752 42.241)">
        <rect id="Rectangle_1" data-name="Rectangle 1" width="76.823" height="105.126" transform="translate(0 16.218) rotate(-12.187)" fill="#f5f5f5"/>
      </g>
      <g id="Group_10" data-name="Group 10" transform="translate(415.422)">
        <g id="Group_2" data-name="Group 2" transform="translate(0)">
          <rect id="Rectangle_2" data-name="Rectangle 2" width="255.932" height="166.431" fill="#f5f5f5"/>
        </g>
        <g id="Group_5" data-name="Group 5" transform="translate(86.003 34.215)">
          <g id="Group_3" data-name="Group 3" transform="translate(0 0)">
            <circle id="Ellipse_1" data-name="Ellipse 1" cx="34.826" cy="34.826" r="34.826" transform="matrix(0.232, -0.973, 0.973, 0.232, 0, 67.747)" fill="#e0e0e0"/>
          </g>
          <g id="Group_4" data-name="Group 4" transform="translate(35.478 31.462)">
            <path id="Path_1" data-name="Path 1" d="M473.083,129.828l-9.095,5.251-9.095,5.251v-21l9.095,5.251Z" transform="translate(-454.893 -119.327)" fill="#f5f5f5"/>
          </g>
        </g>
        <g id="Group_6" data-name="Group 6" transform="translate(0 136.533)">
          <rect id="Rectangle_3" data-name="Rectangle 3" width="255.932" height="29.897" fill="#e0e0e0"/>
        </g>
        <g id="Group_7" data-name="Group 7" transform="translate(17.491 147.22)">
          <path id="Path_2" data-name="Path 2" d="M385.526,183.771l-3.691,2.131-3.691,2.131v-8.523l3.691,2.131Z" transform="translate(-378.144 -179.509)" fill="#f5f5f5"/>
        </g>
        <g id="Group_8" data-name="Group 8" transform="translate(46.085 150.804)">
          <rect id="Rectangle_4" data-name="Rectangle 4" width="188.784" height="1.355" fill="#f5f5f5"/>
        </g>
        <g id="Group_9" data-name="Group 9" transform="translate(44.279 148.669)">
          <path id="Path_3" data-name="Path 3" d="M403.543,183.391a2.814,2.814,0,1,1-2.814-2.813A2.814,2.814,0,0,1,403.543,183.391Z" transform="translate(-397.915 -180.578)" fill="#f5f5f5"/>
        </g>
      </g>
      <g id="Group_53" data-name="Group 53" transform="translate(17 227.918)">
        <g id="Group_48" data-name="Group 48">
          <g id="Group_42" data-name="Group 42">
            <g id="Group_37" data-name="Group 37">
              <path id="Rectangle_19" data-name="Rectangle 19" d="M0,0H303a0,0,0,0,1,0,0V166.085a4.651,4.651,0,0,1-4.651,4.651H4.651A4.651,4.651,0,0,1,0,166.085V0A0,0,0,0,1,0,0Z" fill="#f5f5f5"/>
            </g>
            <g id="Group_38" data-name="Group 38">
              <rect id="Rectangle_20" data-name="Rectangle 20" width="303" height="31.719" fill="#ebebeb"/>
            </g>
            <g id="Group_39" data-name="Group 39" transform="translate(16.748 13.426)">
              <circle id="Ellipse_6" data-name="Ellipse 6" cx="2.486" cy="2.486" r="2.486" fill="#fafafa"/>
            </g>
            <g id="Group_40" data-name="Group 40" transform="translate(31.667 13.426)">
              <circle id="Ellipse_7" data-name="Ellipse 7" cx="2.486" cy="2.486" r="2.486" fill="#fafafa"/>
            </g>
            <g id="Group_41" data-name="Group 41" transform="translate(46.586 13.426)">
              <circle id="Ellipse_8" data-name="Ellipse 8" cx="2.486" cy="2.486" r="2.486" fill="#fafafa"/>
            </g>
          </g>
          <g id="Group_43" data-name="Group 43" transform="translate(146.068 57.291)">
            <rect id="Rectangle_21" data-name="Rectangle 21" width="119.028" height="4.308" fill="#ebebeb"/>
          </g>
          <g id="Group_44" data-name="Group 44" transform="translate(146.068 75.018)">
            <rect id="Rectangle_22" data-name="Rectangle 22" width="119.028" height="4.308" fill="#ebebeb"/>
          </g>
          <g id="Group_45" data-name="Group 45" transform="translate(146.068 92.746)">
            <rect id="Rectangle_23" data-name="Rectangle 23" width="119.028" height="4.308" fill="#ebebeb"/>
          </g>
          <g id="Group_46" data-name="Group 46" transform="translate(146.068 110.474)">
            <rect id="Rectangle_24" data-name="Rectangle 24" width="119.028" height="4.308" fill="#ebebeb"/>
          </g>
          <g id="Group_47" data-name="Group 47" transform="translate(150.723 128.201)">
            <rect id="Rectangle_25" data-name="Rectangle 25" width="59.514" height="4.308" fill="#ebebeb"/>
          </g>
        </g>
        <g id="Group_52" data-name="Group 52" transform="translate(26.047 54.273)">
          <g id="Group_49" data-name="Group 49" transform="translate(0.174)">
            <rect id="Rectangle_26" data-name="Rectangle 26" width="101.855" height="84.748" fill="#fafafa"/>
          </g>
          <g id="Group_50" data-name="Group 50" transform="translate(0 24.646)">
            <path id="Path_7" data-name="Path 7" d="M77.861,333.3l30.1-21.09,21,14.53,33.031-27.949,17.9,17.728V358.89H78.035Z" transform="translate(-77.861 -298.788)" fill="#ebebeb"/>
          </g>
          <g id="Group_51" data-name="Group 51" transform="translate(44.331 16.115)">
            <path id="Path_8" data-name="Path 8" d="M127.642,301.023a8.531,8.531,0,1,1-8.531-8.531A8.531,8.531,0,0,1,127.642,301.023Z" transform="translate(-110.579 -292.492)" fill="#ebebeb"/>
          </g>
        </g>
      </g>
    </g>
    <g id="Document" transform="translate(287.498 131.269)">
      <g id="Group_74" data-name="Group 74" transform="translate(0)">
        <g id="Group_57" data-name="Group 57">
          <g id="Group_54" data-name="Group 54" transform="translate(0.419 0.379)">
            <rect id="Rectangle_27" data-name="Rectangle 27" width="76.823" height="105.126" transform="translate(0 16.218) rotate(-12.187)" fill="#fff"/>
          </g>
          <g id="Group_56" data-name="Group 56">
            <g id="Group_55" data-name="Group 55">
              <path id="Path_10" data-name="Path 10" d="M325.249,218.578s-.05-.172-.127-.5c-.08-.346-.19-.825-.332-1.448-.289-1.294-.707-3.171-1.249-5.605-1.081-4.909-2.653-12.051-4.642-21.086-3.943-18.075-9.536-43.71-16.155-74.049l.379.245-75.074,16.248h-.009l.271-.419c8.265,38.387,15.918,73.927,22.129,102.77l-.341-.221,54.566-11.631,15.186-3.2,4-.832c.909-.186,1.4-.27,1.4-.27s-.438.117-1.322.318l-3.937.883L304.9,223.115l-54.68,11.963-.28.062-.061-.283c-6.246-28.835-13.944-64.365-22.256-102.742l-.074-.344.345-.075h.008l75.089-16.183.313-.068.066.312c6.51,30.45,12.01,56.179,15.889,74.32,1.911,9.021,3.421,16.149,4.459,21.052.5,2.414.893,4.276,1.161,5.559.125.611.22,1.081.289,1.421C325.229,218.425,325.249,218.578,325.249,218.578Z" transform="translate(-227.546 -115.443)" fill="#263238"/>
            </g>
          </g>
        </g>
        <g id="Group_59" data-name="Group 59" transform="translate(14.312 27.316)">
          <g id="Group_58" data-name="Group 58">
            <path id="Path_11" data-name="Path 11" d="M274.6,135.619c.041.191-8.1,2.11-18.171,4.286s-18.279,3.786-18.32,3.6,8.093-2.11,18.171-4.286S274.558,135.428,274.6,135.619Z" transform="translate(-238.109 -135.604)" fill="#263238"/>
          </g>
        </g>
        <g id="Group_61" data-name="Group 61" transform="translate(16.24 31.988)">
          <g id="Group_60" data-name="Group 60">
            <path id="Path_12" data-name="Path 12" d="M295.759,139.062c.041.191-12.514,3.064-28.038,6.416s-28.149,5.918-28.19,5.727,12.51-3.062,28.04-6.417S295.717,138.871,295.759,139.062Z" transform="translate(-239.532 -139.052)" fill="#263238"/>
          </g>
        </g>
        <g id="Group_63" data-name="Group 63" transform="translate(18.252 41.303)">
          <g id="Group_62" data-name="Group 62">
            <path id="Path_13" data-name="Path 13" d="M297.244,145.937c.041.19-12.514,3.064-28.038,6.416s-28.149,5.918-28.19,5.727,12.51-3.062,28.04-6.417S297.2,145.746,297.244,145.937Z" transform="translate(-241.017 -145.927)" fill="#263238"/>
          </g>
        </g>
        <g id="Group_65" data-name="Group 65" transform="translate(20.263 50.619)">
          <g id="Group_64" data-name="Group 64">
            <path id="Path_14" data-name="Path 14" d="M298.728,152.812c.042.19-12.513,3.064-28.038,6.416s-28.148,5.918-28.19,5.727,12.511-3.062,28.04-6.417S298.688,152.621,298.728,152.812Z" transform="translate(-242.501 -152.802)" fill="#263238"/>
          </g>
        </g>
        <g id="Group_67" data-name="Group 67" transform="translate(22.275 59.934)">
          <g id="Group_66" data-name="Group 66">
            <path id="Path_15" data-name="Path 15" d="M300.213,159.687c.042.19-12.513,3.064-28.038,6.416s-28.147,5.918-28.19,5.727,12.512-3.062,28.041-6.417S300.173,159.5,300.213,159.687Z" transform="translate(-243.986 -159.677)" fill="#263238"/>
          </g>
        </g>
        <g id="Group_69" data-name="Group 69" transform="translate(24.287 69.248)">
          <g id="Group_68" data-name="Group 68">
            <path id="Path_16" data-name="Path 16" d="M301.7,166.561c.041.191-12.513,3.065-28.038,6.417s-28.149,5.918-28.19,5.727,12.51-3.064,28.04-6.417S301.658,166.371,301.7,166.561Z" transform="translate(-245.471 -166.551)" fill="#263238"/>
          </g>
        </g>
        <g id="Group_71" data-name="Group 71" transform="translate(26.299 78.563)">
          <g id="Group_70" data-name="Group 70">
            <path id="Path_17" data-name="Path 17" d="M303.183,173.436c.041.191-12.514,3.064-28.038,6.417S247,185.77,246.956,185.58s12.51-3.064,28.041-6.417S303.141,173.246,303.183,173.436Z" transform="translate(-246.956 -173.426)" fill="#263238"/>
          </g>
        </g>
        <g id="Group_73" data-name="Group 73" transform="translate(28.311 93.486)">
          <g id="Group_72" data-name="Group 72">
            <path id="Path_18" data-name="Path 18" d="M278.663,184.458c.041.191-6.692,1.806-15.036,3.608s-15.146,3.11-15.186,2.92,6.689-1.806,15.037-3.61S278.622,184.268,278.663,184.458Z" transform="translate(-248.441 -184.439)" fill="#263238"/>
          </g>
        </g>
      </g>
    </g>
    <g id="Pointer" transform="translate(688.411 369.625)">
      <g id="Group_84" data-name="Group 84">
        <g id="Group_75" data-name="Group 75" transform="translate(25.925 25.049)">
          <path id="Path_19" data-name="Path 19" d="M542.569,309.846l19.218,49.343,8.013-12.943,11.1,14.576L594.14,348.23l-12.617-12.155,11.643-7.876Z" transform="translate(-542.569 -309.846)" fill="#7e75e4"/>
        </g>
        <g id="Group_77" data-name="Group 77" transform="translate(4.303 32.333)">
          <g id="Group_76" data-name="Group 76">
            <path id="Path_20" data-name="Path 20" d="M541,315.232c.1.165-3.031,2.341-7,4.86s-7.277,4.428-7.382,4.264,3.031-2.34,7-4.86S540.895,315.068,541,315.232Z" transform="translate(-526.611 -315.222)" fill="#263238"/>
          </g>
        </g>
        <g id="Group_79" data-name="Group 79" transform="translate(0 14.36)">
          <g id="Group_78" data-name="Group 78">
            <path id="Path_21" data-name="Path 21" d="M543.619,310a13.524,13.524,0,0,1-3.089-.814c-1.875-.6-4.441-1.513-7.226-2.643s-5.268-2.24-7.048-3.077a14.208,14.208,0,0,1-2.82-1.5,14.565,14.565,0,0,1,3.017,1.039l7.116,2.881,7.128,2.828A15.336,15.336,0,0,1,543.619,310Z" transform="translate(-523.435 -301.957)" fill="#263238"/>
          </g>
        </g>
        <g id="Group_81" data-name="Group 81" transform="translate(25.944)">
          <g id="Group_80" data-name="Group 80">
            <path id="Path_22" data-name="Path 22" d="M542.621,291.359a10.754,10.754,0,0,1,.7,2.722c.333,1.7.721,4.061,1.05,6.683s.534,5.006.63,6.737a10.708,10.708,0,0,1-.007,2.81c-.2.015-.667-4.233-1.324-9.459S542.423,291.394,542.621,291.359Z" transform="translate(-542.583 -291.359)" fill="#263238"/>
          </g>
        </g>
        <g id="Group_83" data-name="Group 83" transform="translate(37.787 11.025)">
          <g id="Group_82" data-name="Group 82">
            <path id="Path_23" data-name="Path 23" d="M566.12,299.511c.081.2-3.477,1.729-7.485,4.3s-7.18,4.813-7.309,4.633a9.036,9.036,0,0,1,1.911-1.691c1.24-.962,2.986-2.257,5.023-3.539C562.328,300.606,566.066,299.343,566.12,299.511Z" transform="translate(-551.324 -299.496)" fill="#263238"/>
          </g>
        </g>
      </g>
    </g>
    <g id="Plus" transform="translate(217.743 378.221)">
      <g id="Group_91" data-name="Group 91">
        <g id="Group_86" data-name="Group 86">
          <g id="Group_85" data-name="Group 85">
            <path id="Path_24" data-name="Path 24" d="M225.575,322.558a38.187,38.187,0,0,0-.9-5.969,23.533,23.533,0,0,0-2.742-6.482,24.313,24.313,0,0,0-29.2-10.329,22.75,22.75,0,0,0-6.131,3.306,22.139,22.139,0,0,0-5.122,5.149,24.131,24.131,0,0,0,0,28.646,22.151,22.151,0,0,0,5.122,5.151,22.793,22.793,0,0,0,6.132,3.306,24.385,24.385,0,0,0,29.2-10.33,23.526,23.526,0,0,0,2.741-6.482,38.163,38.163,0,0,0,.9-5.967,1.655,1.655,0,0,1,.016.4l-.024,1.172a11.3,11.3,0,0,1-.159,1.9,17.215,17.215,0,0,1-.469,2.562,23.219,23.219,0,0,1-2.668,6.618,24.781,24.781,0,0,1-16.685,11.78,24.888,24.888,0,0,1-13.074-1.041,23.363,23.363,0,0,1-6.313-3.375,22.792,22.792,0,0,1-5.278-5.284,24.761,24.761,0,0,1,0-29.465,28.024,28.024,0,0,1,2.447-2.885,27.708,27.708,0,0,1,2.83-2.4,23.357,23.357,0,0,1,6.311-3.375,24.9,24.9,0,0,1,13.072-1.041,24.775,24.775,0,0,1,16.685,11.779,23.226,23.226,0,0,1,2.669,6.618,17.26,17.26,0,0,1,.469,2.563,11.29,11.29,0,0,1,.159,1.9l.024,1.172A1.666,1.666,0,0,1,225.575,322.558Z" transform="translate(-176.064 -297.703)" fill="#263238"/>
          </g>
        </g>
        <g id="Group_88" data-name="Group 88" transform="translate(24.579 12.513)">
          <g id="Group_87" data-name="Group 87">
            <path id="Path_25" data-name="Path 25" d="M194.558,331.622c-.2,0-.354-5.527-.354-12.342s.159-12.342.354-12.342.352,5.525.352,12.342S194.753,331.622,194.558,331.622Z" transform="translate(-194.204 -306.938)" fill="#263238"/>
          </g>
        </g>
        <g id="Group_90" data-name="Group 90" transform="translate(12.59 24.503)">
          <g id="Group_89" data-name="Group 89">
            <path id="Path_26" data-name="Path 26" d="M210.039,316.139c0,.2-5.525.352-12.341.352s-12.342-.157-12.342-.352,5.525-.352,12.342-.352S210.039,315.944,210.039,316.139Z" transform="translate(-185.356 -315.787)" fill="#263238"/>
          </g>
        </g>
      </g>
    </g>
    <g id="Search_Engine" data-name="Search Engine" transform="translate(293.609 296.575)">
      <g id="Group_153" data-name="Group 153" transform="translate(0 0)">
        <g id="Group_103" data-name="Group 103" transform="translate(275.355 67.993)">
          <g id="Group_93" data-name="Group 93">
            <g id="Group_92" data-name="Group 92">
              <path id="Path_27" data-name="Path 27" d="M510.711,405.587c-.164.1-17.185-26.218-38.012-58.787s-37.583-59.069-37.419-59.173,17.181,26.213,38.014,58.792S510.875,405.481,510.711,405.587Z" transform="translate(-435.279 -287.627)" fill="#263238"/>
            </g>
          </g>
          <g id="Group_102" data-name="Group 102" transform="translate(43.321 96.154)">
            <g id="Group_97" data-name="Group 97">
              <g id="Group_94" data-name="Group 94" transform="translate(0.007 0.293)">
                <circle id="Ellipse_9" data-name="Ellipse 9" cx="39.495" cy="39.495" r="39.495" fill="#fff"/>
              </g>
              <g id="Group_96" data-name="Group 96">
                <g id="Group_95" data-name="Group 95">
                  <path id="Path_28" data-name="Path 28" d="M467.259,398.381s-.013-.217,0-.641c.015-.454.034-1.078.06-1.882.016-.416.034-.879.053-1.387.045-.508.142-1.06.222-1.66a28.264,28.264,0,0,1,.771-4.107,37.418,37.418,0,0,1,4.311-10.593A39.722,39.722,0,0,1,499.41,359.3a36.82,36.82,0,0,1,5.03-.6c.858-.032,1.722-.118,2.593-.107l2.634.129a17.324,17.324,0,0,1,2.658.283c.886.145,1.787.247,2.679.429a42.12,42.12,0,0,1,5.314,1.546,41.438,41.438,0,0,1,5.2,2.274c.841.454,1.649.984,2.482,1.477a20.269,20.269,0,0,1,2.406,1.652,36.453,36.453,0,0,1,8.433,8.448,38.563,38.563,0,0,1,5.7,10.972,39.437,39.437,0,0,1,0,25.148,38.545,38.545,0,0,1-5.7,10.976,36.466,36.466,0,0,1-8.434,8.449A20.243,20.243,0,0,1,528,432.028c-.833.495-1.641,1.023-2.482,1.478a41.447,41.447,0,0,1-5.2,2.274A42.174,42.174,0,0,1,515,437.326c-.891.183-1.794.285-2.68.43a17.347,17.347,0,0,1-2.658.283l-2.634.129c-.871.011-1.736-.074-2.593-.107a37,37,0,0,1-5.029-.6,39.732,39.732,0,0,1-26.738-18.815,37.427,37.427,0,0,1-4.31-10.593,28.051,28.051,0,0,1-.771-4.107c-.08-.6-.179-1.152-.222-1.66q-.029-.762-.053-1.388c-.026-.8-.045-1.427-.06-1.881-.01-.424,0-.639,0-.639s.035.215.068.638c.031.453.074,1.075.13,1.874l.087,1.378c.054.505.164,1.053.255,1.648a28.683,28.683,0,0,0,.828,4.07,37.729,37.729,0,0,0,4.383,10.457,39.433,39.433,0,0,0,26.507,18.441,36.61,36.61,0,0,0,4.956.572c.845.029,1.7.11,2.555.1l2.594-.135a16.8,16.8,0,0,0,2.616-.286c.871-.145,1.759-.248,2.635-.429a41.447,41.447,0,0,0,5.223-1.535,40.908,40.908,0,0,0,5.108-2.248c.827-.448,1.619-.972,2.438-1.457a20.016,20.016,0,0,0,2.363-1.63,35.866,35.866,0,0,0,8.279-8.318,37.917,37.917,0,0,0,5.594-10.788,38.8,38.8,0,0,0,0-24.7,37.927,37.927,0,0,0-5.594-10.784A35.815,35.815,0,0,0,530,366.925a19.927,19.927,0,0,0-2.362-1.629c-.82-.486-1.612-1.009-2.439-1.458a40.992,40.992,0,0,0-5.107-2.247,41.652,41.652,0,0,0-5.222-1.535c-.878-.182-1.764-.283-2.637-.428a16.8,16.8,0,0,0-2.615-.287l-2.594-.135c-.858-.014-1.71.068-2.554.1a36.194,36.194,0,0,0-4.956.57,39.423,39.423,0,0,0-26.508,18.439,37.672,37.672,0,0,0-4.383,10.457,28.552,28.552,0,0,0-.829,4.07c-.091.595-.2,1.142-.255,1.648q-.049.758-.087,1.379c-.056.8-.1,1.421-.13,1.874C467.294,398.164,467.259,398.381,467.259,398.381Z" transform="translate(-467.251 -358.592)" fill="#263238"/>
                </g>
              </g>
            </g>
            <g id="Group_101" data-name="Group 101" transform="translate(23.325 18.471)">
              <g id="Group_98" data-name="Group 98" transform="translate(0 6.805)">
                <path id="Path_29" data-name="Path 29" d="M489.873,377.247l-5.407,30.9,16.177-2.226,16.177,2.226-6.505-30.9Z" transform="translate(-484.466 -377.247)" fill="#484ce7"/>
              </g>
              <g id="Group_100" data-name="Group 100" transform="translate(9.325)">
                <g id="Group_99" data-name="Group 99">
                  <path id="Path_30" data-name="Path 30" d="M505.036,379.435c-.117.038-.442-1.1-1.3-2.74a8.61,8.61,0,0,0-1.943-2.507,5.981,5.981,0,0,0-1.58-.92,6.373,6.373,0,0,0-1.937-.337,6.7,6.7,0,0,0-3.688.892,5.881,5.881,0,0,0-2.022,2.363c-.81,1.653-1.08,2.814-1.2,2.776a7.477,7.477,0,0,1,.751-2.99,6.071,6.071,0,0,1,2.114-2.692,7.057,7.057,0,0,1,4.055-1.054,6.774,6.774,0,0,1,2.173.4,6.44,6.44,0,0,1,1.76,1.074,8.37,8.37,0,0,1,1.966,2.779A7.719,7.719,0,0,1,505.036,379.435Z" transform="translate(-491.348 -372.225)" fill="#263238"/>
                </g>
              </g>
            </g>
          </g>
        </g>
        <g id="Group_112" data-name="Group 112" transform="translate(160.264 67.112)">
          <g id="Group_105" data-name="Group 105" transform="translate(39.956)">
            <g id="Group_104" data-name="Group 104">
              <path id="Path_31" data-name="Path 31" d="M380.181,408.464c-.2,0-.354-27.2-.354-60.742s.159-60.746.354-60.746.352,27.192.352,60.746S380.374,408.464,380.181,408.464Z" transform="translate(-379.827 -286.976)" fill="#263238"/>
            </g>
          </g>
          <g id="Group_111" data-name="Group 111" transform="translate(0 97.918)">
            <g id="Group_109" data-name="Group 109">
              <g id="Group_106" data-name="Group 106" transform="translate(0.007 0.293)">
                <circle id="Ellipse_10" data-name="Ellipse 10" cx="39.495" cy="39.495" r="39.495" fill="#fff"/>
              </g>
              <g id="Group_108" data-name="Group 108">
                <g id="Group_107" data-name="Group 107">
                  <path id="Path_32" data-name="Path 32" d="M350.345,399.031s-.013-.215,0-.64c.015-.454.034-1.078.06-1.882.016-.416.034-.879.053-1.388.045-.508.144-1.06.224-1.66a28.081,28.081,0,0,1,.77-4.107,37.46,37.46,0,0,1,4.312-10.593,39.721,39.721,0,0,1,26.74-18.813,36.773,36.773,0,0,1,5.028-.6c.858-.032,1.723-.118,2.595-.107l2.634.129a17.331,17.331,0,0,1,2.657.283c.886.145,1.789.247,2.68.429a42.1,42.1,0,0,1,5.313,1.546,41.337,41.337,0,0,1,5.2,2.274c.841.454,1.65.984,2.484,1.477a20.344,20.344,0,0,1,2.405,1.652,36.372,36.372,0,0,1,8.433,8.448,38.542,38.542,0,0,1,5.7,10.972,39.433,39.433,0,0,1,0,25.146,38.555,38.555,0,0,1-5.7,10.978,36.491,36.491,0,0,1-8.433,8.449,20.545,20.545,0,0,1-2.408,1.653c-.833.492-1.641,1.022-2.482,1.477a41.457,41.457,0,0,1-5.2,2.274,42.117,42.117,0,0,1-5.314,1.546c-.891.183-1.793.285-2.68.43a17.326,17.326,0,0,1-2.658.283l-2.634.129c-.871.011-1.736-.075-2.593-.107a37,37,0,0,1-5.029-.6A39.732,39.732,0,0,1,355.757,419.3a37.425,37.425,0,0,1-4.31-10.593,28.28,28.28,0,0,1-.771-4.107c-.079-.6-.178-1.152-.222-1.66q-.028-.762-.053-1.388c-.026-.8-.045-1.427-.06-1.881-.009-.424,0-.641,0-.641s.035.217.068.639c.031.453.075,1.074.13,1.873.026.415.056.875.087,1.379.054.505.164,1.053.255,1.648a28.713,28.713,0,0,0,.829,4.07A37.658,37.658,0,0,0,356.1,419.1,39.438,39.438,0,0,0,382.6,437.538a36.441,36.441,0,0,0,4.958.57c.844.028,1.7.111,2.554.1l2.593-.135a16.817,16.817,0,0,0,2.616-.287c.871-.145,1.759-.247,2.635-.428a41.657,41.657,0,0,0,5.223-1.535,40.9,40.9,0,0,0,5.108-2.248c.826-.448,1.619-.972,2.439-1.458a19.962,19.962,0,0,0,2.363-1.629,35.826,35.826,0,0,0,8.277-8.318,37.932,37.932,0,0,0,5.594-10.788,38.8,38.8,0,0,0,0-24.7,37.874,37.874,0,0,0-5.594-10.784,35.813,35.813,0,0,0-8.277-8.315,19.825,19.825,0,0,0-2.362-1.629c-.818-.486-1.611-1.009-2.439-1.458a40.779,40.779,0,0,0-5.107-2.247,41.359,41.359,0,0,0-5.222-1.535c-.877-.182-1.764-.285-2.635-.43a16.97,16.97,0,0,0-2.616-.286l-2.593-.135c-.858-.014-1.709.068-2.554.1a36.611,36.611,0,0,0-4.956.57A39.43,39.43,0,0,0,356.1,378.964a37.715,37.715,0,0,0-4.383,10.457,28.712,28.712,0,0,0-.829,4.07c-.091.595-.2,1.142-.255,1.648-.031.505-.061.965-.087,1.379-.056.8-.1,1.421-.13,1.874C350.38,398.815,350.345,399.031,350.345,399.031Z" transform="translate(-350.337 -359.243)" fill="#263238"/>
                </g>
              </g>
            </g>
            <g id="Group_110" data-name="Group 110" transform="translate(22.368 22.098)">
              <path id="Path_33" data-name="Path 33" d="M383.98,375.553l-17.134,15.566v19.738h13.343V399.029h8.491v11.827h12.434V391.118Z" transform="translate(-366.846 -375.553)" fill="#f9c201"/>
            </g>
          </g>
        </g>
        <g id="Group_139" data-name="Group 139" transform="translate(1.443 67.613)">
          <g id="Group_114" data-name="Group 114" transform="translate(46.243)">
            <g id="Group_113" data-name="Group 113">
              <path id="Path_34" data-name="Path 34" d="M267.251,407.065c-.165-.106,16.841-26.993,37.978-60.047s38.413-59.777,38.577-59.672-16.838,26.986-37.982,60.052S267.415,407.169,267.251,407.065Z" transform="translate(-267.25 -287.346)" fill="#263238"/>
            </g>
          </g>
          <g id="Group_138" data-name="Group 138" transform="translate(0 96.916)">
            <g id="Group_118" data-name="Group 118">
              <g id="Group_115" data-name="Group 115" transform="translate(0.352 0.293)">
                <circle id="Ellipse_11" data-name="Ellipse 11" cx="39.495" cy="39.495" r="39.495" fill="#fff"/>
              </g>
              <g id="Group_117" data-name="Group 117">
                <g id="Group_116" data-name="Group 116">
                  <path id="Path_35" data-name="Path 35" d="M312.464,398.662s-.035-.217-.069-.64c-.031-.453-.073-1.074-.129-1.874-.026-.415-.056-.874-.087-1.379-.056-.505-.164-1.051-.255-1.648a28.964,28.964,0,0,0-.829-4.07,37.715,37.715,0,0,0-4.383-10.457A39.443,39.443,0,0,0,280.2,360.155a36.389,36.389,0,0,0-4.956-.57c-.846-.028-1.7-.111-2.555-.1l-2.593.135a16.809,16.809,0,0,0-2.615.287c-.871.145-1.759.247-2.635.428a41.585,41.585,0,0,0-5.222,1.535,41.1,41.1,0,0,0-5.108,2.246c-.826.45-1.619.971-2.437,1.458a20.019,20.019,0,0,0-2.363,1.629,35.842,35.842,0,0,0-8.276,8.315,37.92,37.92,0,0,0-5.6,10.785,38.819,38.819,0,0,0,0,24.7,37.928,37.928,0,0,0,5.6,10.789,35.786,35.786,0,0,0,8.277,8.317,19.86,19.86,0,0,0,2.363,1.63c.818.486,1.612,1.008,2.439,1.458a40.8,40.8,0,0,0,5.108,2.246,41.326,41.326,0,0,0,5.223,1.535c.877.182,1.763.285,2.635.429a16.785,16.785,0,0,0,2.615.286l2.595.136c.858.014,1.709-.068,2.554-.1a36.444,36.444,0,0,0,4.958-.572,39.432,39.432,0,0,0,26.507-18.441A37.666,37.666,0,0,0,311.1,408.27a28.728,28.728,0,0,0,.829-4.069c.091-.6.2-1.143.255-1.648l.087-1.379c.056-.8.1-1.421.129-1.874.034-.421.069-.638.069-.638s.013.217,0,.639c-.015.454-.035,1.078-.061,1.881q-.022.626-.053,1.387c-.043.51-.142,1.06-.222,1.66a28.1,28.1,0,0,1-.77,4.108,37.418,37.418,0,0,1-4.31,10.592,39.721,39.721,0,0,1-26.738,18.815,36.776,36.776,0,0,1-5.029.6c-.858.033-1.722.118-2.595.107l-2.634-.129a17.2,17.2,0,0,1-2.658-.283c-.886-.144-1.787-.247-2.679-.43a41.885,41.885,0,0,1-5.314-1.546,41.457,41.457,0,0,1-5.2-2.274c-.841-.455-1.65-.984-2.484-1.477a20.647,20.647,0,0,1-2.406-1.653,36.42,36.42,0,0,1-8.433-8.449,38.548,38.548,0,0,1-5.7-10.976,39.438,39.438,0,0,1,0-25.148,38.522,38.522,0,0,1,5.7-10.972,36.477,36.477,0,0,1,8.432-8.448,20.811,20.811,0,0,1,2.406-1.652c.833-.493,1.641-1.022,2.484-1.477a41.354,41.354,0,0,1,5.2-2.274,42.085,42.085,0,0,1,5.313-1.546c.891-.182,1.793-.284,2.68-.428a17.173,17.173,0,0,1,2.657-.284l2.634-.129c.871-.011,1.736.074,2.593.107a37.2,37.2,0,0,1,5.03.6,39.733,39.733,0,0,1,26.74,18.813,37.429,37.429,0,0,1,4.31,10.593,27.91,27.91,0,0,1,.771,4.108c.08.6.179,1.15.222,1.66q.031.762.053,1.387c.026.8.046,1.427.061,1.881C312.477,398.445,312.464,398.662,312.464,398.662Z" transform="translate(-233.121 -358.873)" fill="#263238"/>
                </g>
              </g>
            </g>
            <g id="Group_137" data-name="Group 137" transform="translate(24.111 19.228)">
              <g id="Group_119" data-name="Group 119">
                <rect id="Rectangle_28" data-name="Rectangle 28" width="31.009" height="41.122" fill="#f36290"/>
              </g>
              <g id="Group_136" data-name="Group 136" transform="translate(5.626 6.215)">
                <g id="Group_121" data-name="Group 121" transform="translate(1.206)">
                  <g id="Group_120" data-name="Group 120">
                    <path id="Path_36" data-name="Path 36" d="M266.142,378c0,.2-2.28.352-5.092.352s-5.092-.157-5.092-.352,2.279-.354,5.092-.354S266.142,377.809,266.142,378Z" transform="translate(-255.958 -377.651)" fill="#fff"/>
                  </g>
                </g>
                <g id="Group_123" data-name="Group 123" transform="translate(0 5.784)">
                  <g id="Group_122" data-name="Group 122">
                    <path id="Path_37" data-name="Path 37" d="M275.434,382.272c0,.2-4.559.354-10.182.354s-10.184-.159-10.184-.354,4.558-.352,10.184-.352S275.434,382.078,275.434,382.272Z" transform="translate(-255.068 -381.92)" fill="#fff"/>
                  </g>
                </g>
                <g id="Group_125" data-name="Group 125" transform="translate(0 9.3)">
                  <g id="Group_124" data-name="Group 124">
                    <path id="Path_38" data-name="Path 38" d="M275.434,384.867c0,.2-4.559.354-10.182.354s-10.184-.159-10.184-.354,4.558-.352,10.184-.352S275.434,384.672,275.434,384.867Z" transform="translate(-255.068 -384.515)" fill="#fff"/>
                  </g>
                </g>
                <g id="Group_127" data-name="Group 127" transform="translate(0 12.816)">
                  <g id="Group_126" data-name="Group 126">
                    <path id="Path_39" data-name="Path 39" d="M275.434,387.462c0,.2-4.559.354-10.182.354s-10.184-.159-10.184-.354,4.558-.352,10.184-.352S275.434,387.267,275.434,387.462Z" transform="translate(-255.068 -387.11)" fill="#fff"/>
                  </g>
                </g>
                <g id="Group_129" data-name="Group 129" transform="translate(0 16.332)">
                  <g id="Group_128" data-name="Group 128">
                    <path id="Path_40" data-name="Path 40" d="M275.434,390.057c0,.2-4.559.352-10.182.352s-10.184-.157-10.184-.352,4.558-.352,10.184-.352S275.434,389.862,275.434,390.057Z" transform="translate(-255.068 -389.705)" fill="#fff"/>
                  </g>
                </g>
                <g id="Group_131" data-name="Group 131" transform="translate(0 19.849)">
                  <g id="Group_130" data-name="Group 130">
                    <path id="Path_41" data-name="Path 41" d="M275.434,392.652c0,.2-4.559.352-10.182.352s-10.184-.157-10.184-.352,4.558-.352,10.184-.352S275.434,392.457,275.434,392.652Z" transform="translate(-255.068 -392.3)" fill="#fff"/>
                  </g>
                </g>
                <g id="Group_133" data-name="Group 133" transform="translate(0 23.363)">
                  <g id="Group_132" data-name="Group 132">
                    <path id="Path_42" data-name="Path 42" d="M275.434,395.248c0,.2-4.559.352-10.182.352s-10.184-.157-10.184-.352,4.558-.354,10.184-.354S275.434,395.052,275.434,395.248Z" transform="translate(-255.068 -394.894)" fill="#fff"/>
                  </g>
                </g>
                <g id="Group_135" data-name="Group 135" transform="translate(0 26.879)">
                  <g id="Group_134" data-name="Group 134">
                    <path id="Path_43" data-name="Path 43" d="M275.434,397.843c0,.2-4.559.352-10.182.352s-10.184-.157-10.184-.352,4.558-.354,10.184-.354S275.434,397.647,275.434,397.843Z" transform="translate(-255.068 -397.489)" fill="#fff"/>
                  </g>
                </g>
              </g>
            </g>
          </g>
        </g>
        <g id="Group_152" data-name="Group 152">
          <g id="Group_149" data-name="Group 149" transform="translate(0.354)">
            <g id="Group_147" data-name="Group 147">
              <g id="Group_140" data-name="Group 140" transform="translate(0 0.617)">
                <rect id="Rectangle_29" data-name="Rectangle 29" width="414.142" height="68.004" rx="23.79" fill="#fff"/>
              </g>
              <g id="Group_141" data-name="Group 141" transform="translate(322.386)">
                <path id="Path_44" data-name="Path 44" d="M470.251,237.445v68.621h57.86a34.31,34.31,0,0,0,34.31-34.31h0a34.31,34.31,0,0,0-34.31-34.311Z" transform="translate(-470.251 -237.445)" fill="#818588"/>
              </g>
              <g id="Group_146" data-name="Group 146" transform="translate(346.905 17.631)">
                <g id="Group_143" data-name="Group 143">
                  <g id="Group_142" data-name="Group 142">
                    <path id="Path_45" data-name="Path 45" d="M517.672,265.231a30.534,30.534,0,0,0-.585-3.5,14.448,14.448,0,0,0-5.287-7.814,14.2,14.2,0,0,0-13.437-1.984,14.216,14.216,0,0,0-6.563,4.943,14.091,14.091,0,0,0,0,16.714,14.21,14.21,0,0,0,6.565,4.943,14.194,14.194,0,0,0,13.438-1.984,14.446,14.446,0,0,0,5.286-7.813,30.524,30.524,0,0,0,.585-3.5,11.213,11.213,0,0,1-.32,3.57,14.42,14.42,0,0,1-5.249,8.143,14.568,14.568,0,0,1-6.189,2.8,14.777,14.777,0,0,1-7.773-.606,14.791,14.791,0,0,1-6.9-5.145,14.721,14.721,0,0,1,0-17.533,14.8,14.8,0,0,1,6.9-5.145,14.791,14.791,0,0,1,7.773-.606,14.564,14.564,0,0,1,6.188,2.8,14.417,14.417,0,0,1,5.25,8.142A11.213,11.213,0,0,1,517.672,265.231Z" transform="translate(-488.347 -250.457)" fill="#fff"/>
                  </g>
                </g>
                <g id="Group_145" data-name="Group 145" transform="translate(26.491 23.371)">
                  <g id="Group_144" data-name="Group 144">
                    <path id="Path_46" data-name="Path 46" d="M524.186,279.375c-.112.159-3.851-2.324-8.348-5.543s-8.051-5.96-7.937-6.119,3.849,2.324,8.348,5.544S524.3,279.216,524.186,279.375Z" transform="translate(-507.898 -267.706)" fill="#fff"/>
                  </g>
                </g>
              </g>
            </g>
            <g id="Group_148" data-name="Group 148" transform="translate(39.381 28.25)">
              <rect id="Rectangle_30" data-name="Rectangle 30" width="253.169" height="14.555" fill="#ebebeb"/>
            </g>
          </g>
          <g id="Group_151" data-name="Group 151" transform="translate(0 0.264)">
            <g id="Group_150" data-name="Group 150">
              <path id="Path_47" data-name="Path 47" d="M614.317,306s.793-.065,2.34-.154a21.256,21.256,0,0,0,2.862-.358,29.622,29.622,0,0,0,3.885-.882,32.818,32.818,0,0,0,9.926-4.982l1.347-1.013c.435-.371.858-.775,1.3-1.172a26.678,26.678,0,0,0,2.569-2.637c.878-.919,1.576-2.041,2.406-3.1l1.065-1.76.541-.9.461-.961a31.114,31.114,0,0,0,2.84-8.565q.179-1.179.36-2.385.063-1.217.129-2.465c.073-1.66.056-3.386,0-5.123a32.026,32.026,0,0,0-31.04-31.268c-9.246-.091-19.046-.009-29.324-.024l-321.317.1a32.078,32.078,0,0,0-21.144,8.046,31.549,31.549,0,0,0-10.467,19.725,21.822,21.822,0,0,0-.229,2.82c-.066.938-.077,1.887-.066,2.841a54.943,54.943,0,0,0,.226,5.649,30.844,30.844,0,0,0,3.206,10.673,31.654,31.654,0,0,0,26.328,17.446c1.8.129,3.634.112,5.459.108h5.459l21.568,0,41.757.012,144.457.076,97.388.113c11.49.028,20.415.05,26.477.066l6.886.034c1.551.012,2.347.037,2.347.037s-.8.024-2.347.037l-6.886.034c-6.062.016-14.987.038-26.477.066l-97.388.112-144.457.076-41.757.012-21.568,0h-5.459c-1.824,0-3.649.023-5.505-.108a32.339,32.339,0,0,1-26.9-17.817,31.551,31.551,0,0,1-3.28-10.907,55.957,55.957,0,0,1-.23-5.729c-.011-.95,0-1.9.065-2.87a22.532,22.532,0,0,1,.234-2.881,32.257,32.257,0,0,1,10.695-20.163,32.787,32.787,0,0,1,21.613-8.224l321.317.1c10.283.03,20.064-.035,29.337.075a32.4,32.4,0,0,1,31.363,31.71c.047,1.756.061,3.458-.018,5.139q-.069,1.258-.138,2.488-.187,1.217-.371,2.406a31.413,31.413,0,0,1-2.894,8.634c-.157.324-.314.646-.469.967l-.549.906q-.549.9-1.081,1.77c-.841,1.069-1.549,2.2-2.437,3.119a26.833,26.833,0,0,1-2.6,2.644c-.446.4-.874.8-1.312,1.175q-.7.516-1.362,1.013a32.785,32.785,0,0,1-10.01,4.95,29.45,29.45,0,0,1-3.909.852,20.45,20.45,0,0,1-2.872.323C615.11,305.98,614.317,306,614.317,306Z" transform="translate(-232.056 -237.64)" fill="#263238"/>
            </g>
          </g>
        </g>
      </g>
    </g>
    <g id="Character" transform="translate(362.984 157.424)">
      <g id="Group_204" data-name="Group 204">
        <g id="Group_160" data-name="Group 160" transform="translate(105.661 153.18)">
          <g id="Group_155" data-name="Group 155">
            <g id="Group_154" data-name="Group 154">
              <path id="Path_48" data-name="Path 48" d="M389.034,260.113c-1.233-1.436-1.356-2.652,1.416-2.9,6.113-.55,10.617-3.219,11.327-4.764s-1.228-3.055-2.885-2.127a22.894,22.894,0,0,1-5.954,1.685,14.941,14.941,0,0,1-4.96.068c-1.424-.224-2.675-.463-3.794-.7,0,0-6.47-1.394-9.264-3.574l-13.682,14.624,6.417,7.252s3.064,4.582,8.57,4.039,12.91-4.5,12.91-4.5c1-1.538,9.867,3.929,12.722,5.979,2.82,2.026,4.964,1.534,4.857-.438-.075-1.343-8.662-7.825-11.533-9.788a36,36,0,0,1-6.147-4.859" transform="translate(-361.239 -247.799)" fill="#ffbe9d"/>
            </g>
          </g>
          <g id="Group_157" data-name="Group 157" transform="translate(14.353 20.993)">
            <g id="Group_156" data-name="Group 156">
              <path id="Path_49" data-name="Path 49" d="M377.231,267.319c.015.083-.394.259-1.1.24a4.716,4.716,0,0,1-4.151-3.141c-.211-.675-.154-1.116-.07-1.125.2-.045.53,1.61,2.1,2.757C375.539,267.247,377.222,267.12,377.231,267.319Z" transform="translate(-371.832 -263.292)" fill="#eb996e"/>
            </g>
          </g>
          <g id="Group_159" data-name="Group 159" transform="translate(20.015 18.926)">
            <g id="Group_158" data-name="Group 158">
              <path id="Path_50" data-name="Path 50" d="M381.169,265.725c.01.085-.389.233-1.064.19a4.672,4.672,0,0,1-3.946-3.069c-.207-.644-.163-1.066-.077-1.077.2-.047.56,1.512,2.038,2.627C379.565,265.555,381.166,265.523,381.169,265.725Z" transform="translate(-376.011 -261.767)" fill="#eb996e"/>
            </g>
          </g>
        </g>
        <g id="Group_161" data-name="Group 161" transform="translate(82.667 23.959)">
          <path id="Path_51" data-name="Path 51" d="M407.188,152.429c.572,12.008,15.216,28.455,26.108,31.116,5.726,1.4,12.315.74,16.851,4.586,7.781,6.6,3.23,20.275,8.479,29.126,3.227,5.441,9.635,8.111,13.265,13.277,6.031,8.586,1.982,21.565-6.248,27.959s-19.194,7.617-29.509,7.351c-22.69-.587-45.926-7.8-62.327-23.882-7.706-7.554-37.852-30.883-27.339-86.17" transform="translate(-344.269 -152.429)" fill="#263238"/>
        </g>
        <g id="Group_178" data-name="Group 178" transform="translate(0 80.294)">
          <path id="Path_52" data-name="Path 52" d="M510.742,223.535l-86.27-25.612a54.713,54.713,0,0,0-12.564-3.782l-29.126.2a28.318,28.318,0,0,0-11.173,2.337l-78.526,26.083c-5.811,1.837-9.826,7.8-9.826,14.587h0c0,8.368,6.034,15.152,13.475,15.152h36.261c-.1.341-.159.533-.159.533l126.125.473v-.049l48.137.108c7.441,0,13.474-6.849,13.474-15.3C520.568,231.409,516.553,225.39,510.742,223.535Z" transform="translate(-283.257 -193.958)" fill="#ff4d7b"/>
          <g id="Group_163" data-name="Group 163" transform="translate(133.799 35.865)">
            <g id="Group_162" data-name="Group 162">
              <path id="Path_53" data-name="Path 53" d="M458.4,223.513a3.2,3.2,0,0,1-.783-.039l-2.222-.252c-1.925-.244-4.717-.556-8.169-.888a245.991,245.991,0,0,0-54.085.709c-3.442.423-6.225.806-8.142,1.1l-2.215.31a3.309,3.309,0,0,1-.78.061,3.255,3.255,0,0,1,.756-.2l2.194-.442c1.906-.378,4.683-.837,8.124-1.324a216.815,216.815,0,0,1,54.2-.71c3.454.4,6.241.783,8.157,1.111l2.2.383A3.327,3.327,0,0,1,458.4,223.513Z" transform="translate(-382.006 -220.476)" fill="#263238"/>
            </g>
          </g>
          <g id="Group_165" data-name="Group 165" transform="translate(59.146 12.776)" opacity="0.6">
            <g id="Group_164" data-name="Group 164">
              <path id="Path_54" data-name="Path 54" d="M457.715,208.6a1.417,1.417,0,0,1-.241.29l-.76.8c-.68.692-1.685,1.714-3.05,2.958a49.065,49.065,0,0,1-5.242,4.222,25.95,25.95,0,0,1-8.055,3.839,20.557,20.557,0,0,1-10.78-.214,53.444,53.444,0,0,1-11.349-5.013c-3.839-2.038-7.794-4.4-12.289-5.761a18.958,18.958,0,0,0-14.052.724c-4.539,2.046-8.4,5.166-12.623,7.416-1.045.583-2.15,1.031-3.221,1.515a33.861,33.861,0,0,1-3.311,1.1,32.151,32.151,0,0,1-6.646,1.146,34.235,34.235,0,0,1-22.071-6.07,60.257,60.257,0,0,1-6.666-5.92,32.488,32.488,0,0,0-5.161-4.219,14.326,14.326,0,0,0-5.287-1.982,8.107,8.107,0,0,1,1.473.175,12.436,12.436,0,0,1,3.956,1.572,31.663,31.663,0,0,1,5.29,4.168,61.873,61.873,0,0,0,6.683,5.8,33.921,33.921,0,0,0,21.737,5.829,31.54,31.54,0,0,0,6.509-1.146,33.774,33.774,0,0,0,3.238-1.088c1.046-.478,2.123-.916,3.149-1.49,4.147-2.215,8.006-5.348,12.663-7.452a19.629,19.629,0,0,1,14.541-.74c4.6,1.408,8.571,3.8,12.4,5.851a53.431,53.431,0,0,0,11.195,5.021,20.148,20.148,0,0,0,10.5.3,25.863,25.863,0,0,0,7.959-3.683,52.05,52.05,0,0,0,5.28-4.1c1.387-1.209,2.421-2.2,3.134-2.855l.808-.751A1.6,1.6,0,0,1,457.715,208.6Z" transform="translate(-326.909 -203.435)" fill="#fff"/>
            </g>
          </g>
          <g id="Group_166" data-name="Group 166" transform="translate(55.895 38.729)" opacity="0.2">
            <path id="Path_55" data-name="Path 55" d="M324.51,222.589l54.532,10.28-6.3,10.26-1.659.025Z" transform="translate(-324.51 -222.589)"/>
          </g>
          <g id="Group_168" data-name="Group 168" transform="translate(156.663 27.954)" opacity="0.6">
            <g id="Group_167" data-name="Group 167">
              <path id="Path_56" data-name="Path 56" d="M463.183,214.637a3.741,3.741,0,0,1,.027.836,18.23,18.23,0,0,1-.24,2.386,20.674,20.674,0,0,1-13.582,16.06,20.984,20.984,0,0,1-7.674,1.2,34.948,34.948,0,0,1-8.181-1.5c-2.732-.77-5.355-1.619-7.945-2.142a23.069,23.069,0,0,0-7.536-.392,24.07,24.07,0,0,0-11.758,4.815,23.626,23.626,0,0,0-5.841,6.383q-.39.648-.706,1.176c-.168.337-.317.634-.45.9a3.831,3.831,0,0,1-.412.726,3.632,3.632,0,0,1,.282-.785c.117-.275.247-.585.394-.936.2-.366.415-.771.654-1.219a22.72,22.72,0,0,1,5.773-6.638,24.209,24.209,0,0,1,11.986-5.066,23.453,23.453,0,0,1,7.75.359c2.643.524,5.287,1.377,8,2.141a34.839,34.839,0,0,0,8.016,1.484,20.66,20.66,0,0,0,17.536-8.692,21.455,21.455,0,0,0,3.427-7.928C463.112,215.787,463.111,214.632,463.183,214.637Z" transform="translate(-398.88 -214.637)" fill="#fff"/>
            </g>
          </g>
          <g id="Group_176" data-name="Group 176" transform="translate(8.806 30.309)">
            <g id="Group_169" data-name="Group 169" transform="translate(1.093)">
              <path id="Path_57" data-name="Path 57" d="M290.563,242.855s98.583,43.5,98.075,42.513S404.29,255.85,404.29,255.85l-79.872-39.475Z" transform="translate(-290.563 -216.375)" fill="#ff4d7b"/>
            </g>
            <g id="Group_171" data-name="Group 171" transform="translate(46.345 5.628)">
              <g id="Group_170" data-name="Group 170">
                <path id="Path_58" data-name="Path 58" d="M323.961,220.533a13.166,13.166,0,0,1,2.031.851l5.425,2.557c4.568,2.186,10.856,5.249,17.782,8.673s13.184,6.559,17.7,8.86l5.328,2.759a13.27,13.27,0,0,1,1.913,1.1,12.956,12.956,0,0,1-2.03-.85l-5.424-2.557c-4.567-2.186-10.857-5.25-17.788-8.674s-13.181-6.559-17.694-8.861l-5.328-2.757A13.028,13.028,0,0,1,323.961,220.533Z" transform="translate(-323.961 -220.529)" fill="#263238"/>
              </g>
            </g>
            <g id="Group_173" data-name="Group 173" transform="translate(0 17.972)" opacity="0.6">
              <g id="Group_172" data-name="Group 172">
                <path id="Path_59" data-name="Path 59" d="M357.751,230.5a8.473,8.473,0,0,1-.917,2.924,13.8,13.8,0,0,1-5.879,5.876,18.059,18.059,0,0,1-5.475,1.95,21.586,21.586,0,0,1-6.666.079c-4.688-.6-9.524-2.555-14.377-4.824s-9.486-4.463-13.982-5.515a25.144,25.144,0,0,0-6.458-.748,20.149,20.149,0,0,0-5.576.942,15.228,15.228,0,0,0-6.879,4.309,28.134,28.134,0,0,0-1.786,2.451,9.128,9.128,0,0,1,1.576-2.629,15.007,15.007,0,0,1,6.933-4.605,20.31,20.31,0,0,1,5.711-1.053,25.31,25.31,0,0,1,6.626.7c4.6,1.038,9.284,3.24,14.131,5.508s9.6,4.2,14.167,4.82a21.329,21.329,0,0,0,6.478-.011,17.83,17.83,0,0,0,5.34-1.813,13.93,13.93,0,0,0,5.872-5.563A23.24,23.24,0,0,0,357.751,230.5Z" transform="translate(-289.756 -229.639)" fill="#fff"/>
              </g>
            </g>
            <g id="Group_175" data-name="Group 175" transform="translate(73.371 47.807)" opacity="0.6">
              <g id="Group_174" data-name="Group 174">
                <path id="Path_60" data-name="Path 60" d="M380.386,252.5c-.02.131-2.187-.23-5.708-.287a47.844,47.844,0,0,0-6.165.313,47.138,47.138,0,0,0-14.482,4.1,48.09,48.09,0,0,0-5.414,2.967c-2.969,1.894-4.623,3.34-4.708,3.237a6.44,6.44,0,0,1,1.1-1.081,32.028,32.028,0,0,1,3.332-2.573,42.153,42.153,0,0,1,5.41-3.137,43.87,43.87,0,0,1,14.69-4.161,41.9,41.9,0,0,1,6.25-.165,31.725,31.725,0,0,1,4.187.443A6.379,6.379,0,0,1,380.386,252.5Z" transform="translate(-343.907 -251.658)" fill="#fff"/>
              </g>
            </g>
          </g>
          <g id="Group_177" data-name="Group 177" transform="translate(130.282)" opacity="0.2">
            <path id="Path_61" data-name="Path 61" d="M379.94,194.006c-1.631,4.561.817,9.474,3.191,13.694a37.2,37.2,0,0,0,5.718,8.3c2.382,2.383,5.6,4.139,8.964,4.028,4.425-.145,8.388-3.413,12.81-3.158,3.007.173,5.649,1.95,8.144,3.635,4.325,2.923,8.762,5.776,13.665,7.57s10.363,2.471,15.362.965,9.417-5.447,10.631-10.524" transform="translate(-379.411 -194.006)"/>
          </g>
        </g>
        <g id="Group_201" data-name="Group 201" transform="translate(84.868)">
          <g id="Group_194" data-name="Group 194">
            <g id="Group_193" data-name="Group 193">
              <g id="Group_179" data-name="Group 179" transform="translate(13.186 4.853)">
                <path id="Path_62" data-name="Path 62" d="M388.753,212.511c.226-5.307.512-10.111.512-10.111s11.861-1.5,12.373-13.6-.694-39.986-.694-39.986l-21.832-10.484-23.488,18.923,3.684,55.6A14.744,14.744,0,0,0,374.7,226.609h0A14.747,14.747,0,0,0,388.753,212.511Z" transform="translate(-355.625 -138.328)" fill="#ffbe9d"/>
              </g>
              <g id="Group_183" data-name="Group 183" transform="translate(51.955 32.173)">
                <g id="Group_180" data-name="Group 180" transform="translate(1.489 3.533)">
                  <path id="Path_63" data-name="Path 63" d="M388.353,162.622a1.509,1.509,0,1,1-1.535-1.523A1.529,1.529,0,0,1,388.353,162.622Z" transform="translate(-385.337 -161.099)" fill="#263238"/>
                </g>
                <g id="Group_182" data-name="Group 182">
                  <g id="Group_181" data-name="Group 181">
                    <path id="Path_64" data-name="Path 64" d="M390.208,160.315c-.191.2-1.321-.751-2.947-.812-1.625-.085-2.832.763-3,.542-.085-.1.111-.47.637-.855a3.922,3.922,0,0,1,4.75.214C390.137,159.835,390.3,160.224,390.208,160.315Z" transform="translate(-384.238 -158.491)" fill="#263238"/>
                  </g>
                </g>
              </g>
              <g id="Group_187" data-name="Group 187" transform="translate(33.954 32.486)">
                <g id="Group_184" data-name="Group 184" transform="translate(1.489 3.22)">
                  <path id="Path_65" data-name="Path 65" d="M375.068,162.622a1.509,1.509,0,1,1-1.536-1.523A1.529,1.529,0,0,1,375.068,162.622Z" transform="translate(-372.052 -161.099)" fill="#263238"/>
                </g>
                <g id="Group_186" data-name="Group 186">
                  <g id="Group_185" data-name="Group 185">
                    <path id="Path_66" data-name="Path 66" d="M376.923,160.544c-.191.2-1.322-.749-2.947-.81-1.625-.087-2.832.762-3,.541-.085-.1.11-.47.637-.855a3.927,3.927,0,0,1,4.75.214C376.851,160.065,377.016,160.454,376.923,160.544Z" transform="translate(-370.953 -158.722)" fill="#263238"/>
                  </g>
                </g>
              </g>
              <g id="Group_189" data-name="Group 189" transform="translate(45.492 33.749)">
                <g id="Group_188" data-name="Group 188">
                  <path id="Path_67" data-name="Path 67" d="M380,174.188a9.881,9.881,0,0,1,2.648-.4c.416-.03.81-.1.886-.4a2.44,2.44,0,0,0-.258-1.329q-.559-1.636-1.175-3.433c-1.629-4.887-2.8-8.9-2.618-8.964s1.652,3.844,3.282,8.733c.392,1.2.766,2.352,1.122,3.452a2.757,2.757,0,0,1,.188,1.752,1.034,1.034,0,0,1-.692.623,2.6,2.6,0,0,1-.707.076A9.96,9.96,0,0,1,380,174.188Z" transform="translate(-379.468 -159.654)" fill="#263238"/>
                </g>
              </g>
              <g id="Group_190" data-name="Group 190" transform="translate(40.414 49.755)">
                <path id="Path_68" data-name="Path 68" d="M376,171.665c-1.663-1.091,4.586,2.695,7.9,2.638a4.44,4.44,0,0,1-5.356,1.66C375.048,174.521,376,171.665,376,171.665Z" transform="translate(-375.72 -171.467)" fill="#fff"/>
              </g>
              <g id="Group_191" data-name="Group 191" transform="translate(31.12 63.784)">
                <path id="Path_69" data-name="Path 69" d="M384.567,186.963a28.887,28.887,0,0,1-15.707-5.142s3.692,8.819,15.5,8.113Z" transform="translate(-368.861 -181.821)" fill="#eb996e"/>
              </g>
              <g id="Group_192" data-name="Group 192">
                <path id="Path_70" data-name="Path 70" d="M346.34,170.453h0c-.042,10.479-2.786,38.188,16.313,42.03l-.694-38.161s18.495-8.72,21.618-26.885l.112.1c1.186,2.741,3.3,8.63,2.013,13.425l17.319,4.268,1.992,1.824s6.168-13.514-5.731-25.774-22.065-3.375-28.444-4.141c-4.242-.509-18.954-.411-24.946,24.924Z" transform="translate(-345.893 -134.746)" fill="#263238"/>
              </g>
            </g>
          </g>
          <g id="Group_200" data-name="Group 200" transform="translate(9.659 39.563)">
            <g id="Group_198" data-name="Group 198">
              <g id="Group_195" data-name="Group 195">
                <path id="Path_71" data-name="Path 71" d="M359.905,164.385c-1.615-1-3.82-.177-5.1,1.221a6.958,6.958,0,0,0,6.925,11.423" transform="translate(-353.022 -163.945)" fill="#ffbe9d"/>
              </g>
              <g id="Group_197" data-name="Group 197" transform="translate(2.437 3.559)">
                <g id="Group_196" data-name="Group 196">
                  <path id="Path_72" data-name="Path 72" d="M358.894,172.47c0,.085-.542.179-1.387-.049a3.654,3.654,0,0,1-2.534-2.246,2.7,2.7,0,0,1,.072-1.976,2.857,2.857,0,0,1,1.032-1.2c.761-.492,1.341-.457,1.35-.378.03.108-.474.257-1.045.772a2.359,2.359,0,0,0-.74,2.559,3.6,3.6,0,0,0,2.032,2C358.4,172.274,358.9,172.363,358.894,172.47Z" transform="translate(-354.82 -166.572)" fill="#eb996e"/>
                </g>
              </g>
            </g>
            <g id="Group_199" data-name="Group 199" transform="translate(3.904 11.822)">
              <path id="Path_73" data-name="Path 73" d="M356.928,172.692a1.375,1.375,0,1,0,.523-.022" transform="translate(-355.903 -172.67)" fill="#e8505b"/>
            </g>
          </g>
        </g>
        <g id="Group_202" data-name="Group 202" transform="translate(104.462 119.996)">
          <path id="Path_74" data-name="Path 74" d="M390.447,243.208v-19.9s-29.553,6.131-30.093,19.663Z" transform="translate(-360.354 -223.308)" fill="#ffbe9d"/>
        </g>
        <g id="Group_203" data-name="Group 203" transform="translate(131.479 75.678)">
          <path id="Path_75" data-name="Path 75" d="M380.294,191.863a24.762,24.762,0,0,0,24.248,22.783c4.363.077,8.963-.961,12.945.822,3.463,1.549,5.692,4.906,8.421,7.544a24.986,24.986,0,0,0,24.775,5.6c3.578-1.2,9.265-3.772,9.932-7.487.507-2.831-2.952-5.643-4.992-7.67a25.227,25.227,0,0,0-7.277-4.55C427.3,199.02,404.7,191.828,381.474,190.6" transform="translate(-380.294 -190.599)" fill="#263238"/>
        </g>
      </g>
    </g>
  </g>
</svg>
