<svg id="cost_effective" data-name="cost effective" xmlns="http://www.w3.org/2000/svg" width="54.823" height="54.823" viewBox="0 0 54.823 54.823">
  <path id="Path_13030" data-name="Path 13030" d="M44.544,54.823H10.279A10.279,10.279,0,0,1,0,44.544V10.279A10.279,10.279,0,0,1,10.279,0H44.544A10.279,10.279,0,0,1,54.823,10.279V44.544A10.279,10.279,0,0,1,44.544,54.823Z" fill="#fff2b5"/>
  <path id="Path_13031" data-name="Path 13031" d="M14.853,16a6.853,6.853,0,1,0,6.853,6.853A6.86,6.86,0,0,0,14.853,16Zm-.214,5.715.452-.005a2.4,2.4,0,0,1,2.332,2.467A2.479,2.479,0,0,1,16,26.452v.111a1.135,1.135,0,0,1-2.268.082h-.3a1.143,1.143,0,0,1,0-2.285h1.665a.448.448,0,0,0,.048-.183.235.235,0,0,0-.072-.188l-.452.005a2.4,2.4,0,0,1-2.332-2.467,2.479,2.479,0,0,1,1.427-2.275V19.14a1.135,1.135,0,0,1,2.268-.082h.3a1.143,1.143,0,0,1,0,2.285H14.615a.448.448,0,0,0-.048.183A.235.235,0,0,0,14.639,21.715Z" transform="translate(5.706 11.412)" fill="#f9c201"/>
  <path id="Path_13032" data-name="Path 13032" d="M24.591,16a1.144,1.144,0,0,0-1.143,1.143v7.139a1.144,1.144,0,0,1-1.143,1.143H21.164v-.858a1.143,1.143,0,0,0-2.01-.744l-1.713,2a1.143,1.143,0,0,0,0,1.487l1.713,2a1.142,1.142,0,0,0,2.008-.744v-.857h1.143a3.43,3.43,0,0,0,3.426-3.426V17.143A1.141,1.141,0,0,0,24.591,16Z" transform="translate(12.243 11.412)" fill="#ffe777"/>
  <path id="Path_13033" data-name="Path 13033" d="M19.838,8.4a1.142,1.142,0,0,0-2.01.744V10H13.259a3.43,3.43,0,0,0-3.426,3.426v4.283a1.143,1.143,0,1,0,2.285,0V13.426a1.144,1.144,0,0,1,1.143-1.143h4.567v.857a1.143,1.143,0,0,0,2.01.744l1.713-2a1.143,1.143,0,0,0,0-1.487Z" transform="translate(7.013 5.706)" fill="#ffe777"/>
  <g id="Group_7886" data-name="Group 7886" transform="translate(31.981 13.706)">
    <path id="Path_13034" data-name="Path 13034" d="M22.284,12.569a2.285,2.285,0,1,1,2.284-2.285,2.286,2.286,0,0,1-2.284,2.285Z" transform="translate(-17.716 -8)" fill="#f9c201"/>
    <path id="Path_13035" data-name="Path 13035" d="M26.947,15.9H19.524a.857.857,0,0,1-.857-.857v-.953a2.879,2.879,0,0,1,2.978-2.76h3.181a2.879,2.879,0,0,1,2.978,2.76v.953a.857.857,0,0,1-.857.857Z" transform="translate(-18.667 -5.623)" fill="#f9c201"/>
  </g>
</svg>
