<svg xmlns="http://www.w3.org/2000/svg" width="53.559" height="64.548" viewBox="0 0 53.559 64.548">
  <g id="_004-thinking" data-name="004-thinking" transform="translate(-43.586 0)">
    <g id="Thinking" transform="translate(52.231 7.565)">
      <g id="Group_7849" data-name="Group 7849">
        <path id="Path_12977" data-name="Path 12977" d="M133.774,90.264H122.428V87.043a13.115,13.115,0,0,1-1.8-1.044l-2.794,1.613-5.673-9.826,2.751-1.588a11.231,11.231,0,0,1,0-2.125l-2.751-1.588,5.673-9.826,2.794,1.613a13.124,13.124,0,0,1,1.8-1.044V60.007h11.346v3.221a13.11,13.11,0,0,1,1.8,1.044l2.794-1.613,5.673,9.826-2.751,1.588a11.229,11.229,0,0,1,0,2.125l2.751,1.588-5.673,9.826L135.571,86a13.123,13.123,0,0,1-1.8,1.044Zm-7.564-3.782h3.782v-2.03L131.248,84a9.386,9.386,0,0,0,2.948-1.712l1.016-.867,1.77,1.022,1.891-3.276-1.736-1,.243-1.314a8.453,8.453,0,0,0,0-3.438l-.243-1.314,1.736-1-1.891-3.276-1.77,1.022-1.016-.867a9.384,9.384,0,0,0-2.948-1.712l-1.256-.448v-2.03H126.21v2.03l-1.256.448a9.385,9.385,0,0,0-2.948,1.712l-1.016.867-1.77-1.022L117.329,71.1l1.736,1-.243,1.314a8.453,8.453,0,0,0,0,3.438l.243,1.314-1.736,1,1.891,3.276,1.77-1.022,1.016.867A9.384,9.384,0,0,0,124.954,84l1.256.448v2.03Z" transform="translate(-112.163 -60.007)" fill="#f36290"/>
      </g>
      <g id="Group_7850" data-name="Group 7850" transform="translate(10.265 9.455)">
        <path id="Path_12978" data-name="Path 12978" d="M199.259,146.353a5.673,5.673,0,1,1,5.673-5.673A5.68,5.68,0,0,1,199.259,146.353Zm0-7.564a1.891,1.891,0,1,0,1.891,1.891A1.893,1.893,0,0,0,199.259,138.789Z" transform="translate(-193.586 -135.007)" fill="#7e75e4"/>
      </g>
    </g>
    <g id="Group_7851" data-name="Group 7851" transform="translate(43.586 0)">
      <path id="Path_12979" data-name="Path 12979" d="M70.06,64.548H51.15V45.959a9.995,9.995,0,0,0-2.3-6.171,24.333,24.333,0,0,1-5.264-15.2A24.575,24.575,0,0,1,70.524.111,23.785,23.785,0,0,1,86.73,8.822a26.506,26.506,0,0,1,6,17.581c-.027.992-.1,1.923-.176,2.824l-.011.137,4.6,11.508-7.122,2.374a80.9,80.9,0,0,1-5.712,13.8l-14.25-3.563V64.548ZM54.932,60.766H66.278V48.637l16,4a66.452,66.452,0,0,0,4.659-12.347l5.208-1.736L88.7,29.947c.131-1.652.218-2.581.247-3.646.31-11.565-7.937-21.415-18.775-22.425A20.8,20.8,0,0,0,51.821,37.447a13.731,13.731,0,0,1,3.111,8.512Z" transform="translate(-43.586 0)" fill="#0094c4"/>
    </g>
  </g>
</svg>
