<svg id="_006-group" data-name="006-group" xmlns="http://www.w3.org/2000/svg" width="60.241" height="60.241" viewBox="0 0 60.241 60.241">
  <g id="Group_7853" data-name="Group 7853" transform="translate(0 38.954)">
    <g id="Group_7852" data-name="Group 7852">
      <path id="Path_12980" data-name="Path 12980" d="M12.123,340.415a5.728,5.728,0,1,0-8.877,0A7.679,7.679,0,0,0,0,346.682v5.677H15.369v-5.677A7.679,7.679,0,0,0,12.123,340.415ZM7.684,334.6a2.2,2.2,0,1,1-2.2,2.2A2.2,2.2,0,0,1,7.684,334.6Zm4.155,14.228H3.53v-2.148a4.159,4.159,0,0,1,4.155-4.155h0a4.159,4.159,0,0,1,4.155,4.155Z" transform="translate(0 -331.072)" fill="#0094c4"/>
    </g>
  </g>
  <g id="Group_7855" data-name="Group 7855" transform="translate(22.436)">
    <g id="Group_7854" data-name="Group 7854">
      <path id="Path_12981" data-name="Path 12981" d="M202.812,9.344a5.728,5.728,0,1,0-8.877,0,7.679,7.679,0,0,0-3.246,6.267v5.677h15.369V15.611h0A7.679,7.679,0,0,0,202.812,9.344ZM198.373,3.53a2.2,2.2,0,1,1-2.2,2.2A2.2,2.2,0,0,1,198.373,3.53Zm4.155,14.228h-8.309V15.611a4.155,4.155,0,0,1,8.309,0Z" transform="translate(-190.689)" fill="#0094c4"/>
    </g>
  </g>
  <g id="Group_7857" data-name="Group 7857" transform="translate(44.872 38.954)">
    <g id="Group_7856" data-name="Group 7856">
      <path id="Path_12982" data-name="Path 12982" d="M393.5,340.416a5.728,5.728,0,1,0-8.877,0,7.679,7.679,0,0,0-3.246,6.267v5.677h15.369v-5.677A7.678,7.678,0,0,0,393.5,340.416Zm-4.439-5.814a2.2,2.2,0,1,1-2.2,2.2A2.2,2.2,0,0,1,389.062,334.6Zm4.155,14.228h-8.309v-2.147a4.159,4.159,0,0,1,4.155-4.155h0a4.159,4.159,0,0,1,4.155,4.155Z" transform="translate(-381.377 -331.072)" fill="#0094c4"/>
    </g>
  </g>
  <g id="Group_7859" data-name="Group 7859" transform="translate(16.948 24.823)">
    <g id="Group_7858" data-name="Group 7858">
      <path id="Path_12983" data-name="Path 12983" d="M144.042,210.976v20.015h8.346l4.827,4.331,4.827-4.331h8.346V210.976Zm22.816,16.485H160.69l-3.475,3.119-3.475-3.119h-6.168V214.506h19.286Z" transform="translate(-144.042 -210.976)" fill="#f36290"/>
    </g>
  </g>
  <g id="Group_7861" data-name="Group 7861" transform="translate(24.012 33.066)">
    <g id="Group_7860" data-name="Group 7860">
      <rect id="Rectangle_1122" data-name="Rectangle 1122" width="12.218" height="3.53" fill="#7e75e4"/>
    </g>
  </g>
</svg>
