<svg xmlns="http://www.w3.org/2000/svg" width="104.751" height="83.817" viewBox="0 0 104.751 83.817">
  <g id="interface" transform="translate(9.5 -36)">
    <path id="Path_13864" data-name="Path 13864" d="M0,0H72.319V49.309H0Z" transform="translate(82.51 106.676) rotate(180)" fill="#ccf5fc"/>
    <g id="Group_9541" data-name="Group 9541" transform="translate(66.074 83.665)">
      <path id="Path_13865" data-name="Path 13865" d="M402,326h16.436v23.011H402Z" transform="translate(-402 -326)" fill="#d0f2d2"/>
    </g>
    <path id="Path_13866" data-name="Path 13866" d="M242,166h19.723v9.862H242Z" transform="translate(-202.224 -108.633)" fill="#d0f2d2"/>
    <path id="Path_13867" data-name="Path 13867" d="M62,346H75.149v19.723H62Z" transform="translate(-51.81 -259.048)" fill="#fff7bf"/>
    <path id="Path_13868" data-name="Path 13868" d="M402,166h16.436v19.723H402Z" transform="translate(-335.926 -108.633)" fill="#fff7bf"/>
    <path id="Path_13869" data-name="Path 13869" d="M117.883,166h-6.574v29.585H98.16l-6.574-6.574H62v6.574H75.149v19.723h6.574V195.585H88.3l6.574,6.574h16.436v13.149h6.574V192.3h16.436v-6.574H117.883Z" transform="translate(-51.81 -108.633)" fill="#fff"/>
    <circle id="Ellipse_196" data-name="Ellipse 196" cx="16" cy="16" r="16" transform="translate(2.077 38.16)" fill="#fff"/>
    <path id="Path_13870" data-name="Path 13870" d="M61.505,122.436l-3.287-8.218L50,110.931,66.436,106Z" transform="translate(-41.782 -58.495)" fill="#437df1"/>
    <g id="Group_9542" data-name="Group 9542" transform="translate(0 36)">
      <path id="Path_13871" data-name="Path 13871" d="M82.51,55.723H36.084c.049-.542.075-1.09.075-1.644A18.08,18.08,0,1,0,8.547,69.435v37.24a1.644,1.644,0,0,0,1.644,1.644H82.51a1.644,1.644,0,0,0,1.644-1.644V57.367A1.644,1.644,0,0,0,82.51,55.723ZM64.43,83.665v21.367H61.143V93.527A1.644,1.644,0,0,0,59.5,91.883H43.744L37.651,85.79a1.645,1.645,0,0,0-1.162-.481H29.914a1.644,1.644,0,0,0-1.644,1.644v18.08H24.983V86.952a1.644,1.644,0,0,0-1.644-1.644H11.834V82.021H39.095l6.093,6.093a1.644,1.644,0,0,0,1.162.481H59.5a1.644,1.644,0,0,0,1.644-1.644V59.011H64.43v18.08a1.644,1.644,0,0,0,1.644,1.644H80.866v3.287H66.073a1.644,1.644,0,0,0-1.643,1.644Zm-6.574,21.367h-26.3V88.6h4.25L41.9,94.689a1.644,1.644,0,0,0,1.162.481H57.855v9.862ZM41.419,68.872H57.855V85.309H47.031L41.419,79.7Zm16.436-3.287H41.419V59.011H57.855Zm23.011,9.862H67.717V59.011H80.866ZM3.287,54.08A14.793,14.793,0,1,1,18.08,68.872,14.809,14.809,0,0,1,3.287,54.08ZM18.08,72.16a18.113,18.113,0,0,0,17.4-13.149h2.656V78.734h-26.3V71.047A18,18,0,0,0,18.08,72.16ZM11.834,88.6H21.7v16.436H11.834Zm55.883,16.436V85.309H80.866v19.723Z" transform="translate(0 -36)" fill="#437df1"/>
    </g>
    <g id="icon_bg" data-name="icon bg" transform="translate(-454.923 -5072.84)">
      <path id="Polygon_6" data-name="Polygon 6" d="M3.5,0,7,6H0Z" transform="translate(445.423 5160.605) rotate(-70)" fill="#fff"/>
      <path id="Polygon_7" data-name="Polygon 7" d="M3.5,0,7,6H0Z" transform="translate(494.423 5190.605) rotate(-70)" fill="#fff"/>
      <path id="Polygon_8" data-name="Polygon 8" d="M2.5,0,5,4H0Z" transform="translate(544.705 5143.007) rotate(-70)" fill="#fff"/>
      <path id="Polygon_9" data-name="Polygon 9" d="M2,0,4,3H0Z" transform="translate(500.645 5119.349) rotate(-70)" fill="#fff"/>
      <path id="Polygon_12" data-name="Polygon 12" d="M2,0,4,3H0Z" transform="translate(458.645 5189.349) rotate(-70)" fill="#fff"/>
      <path id="Polygon_11" data-name="Polygon 11" d="M2,0,4,3H0Z" transform="translate(542.645 5178.349) rotate(-70)" fill="#fff"/>
      <path id="Polygon_10" data-name="Polygon 10" d="M2.5,0,5,4H0Z" transform="translate(524.363 5114.947) rotate(-70)" fill="#fff"/>
    </g>
  </g>
</svg>
