<svg id="lower_risk" data-name="lower risk" xmlns="http://www.w3.org/2000/svg" width="53.692" height="53.692" viewBox="0 0 53.692 53.692">
  <path id="Path_13026" data-name="Path 13026" d="M43.625,53.692H10.067A10.067,10.067,0,0,1,0,43.625V10.067A10.067,10.067,0,0,1,10.067,0H43.625A10.067,10.067,0,0,1,53.692,10.067V43.625A10.067,10.067,0,0,1,43.625,53.692Z" fill="#e3f8fa"/>
  <path id="Path_13027" data-name="Path 13027" d="M23.94,8H11.076A3.074,3.074,0,0,0,8,11.076V28.413a3.074,3.074,0,0,0,3.076,3.077H22.541V28.973a4.2,4.2,0,0,1,2.237-3.691,5.042,5.042,0,0,1,2.237-4.128V11.076A3.072,3.072,0,0,0,23.94,8ZM12.475,12.475H16.95a1.118,1.118,0,1,1,0,2.237H12.473a1.118,1.118,0,0,1,0-2.237ZM18.067,23.66H12.475a1.118,1.118,0,1,1,0-2.237h5.592a1.118,1.118,0,1,1,0,2.237Zm4.475-4.473H12.475a1.119,1.119,0,1,1,0-2.238H22.542a1.119,1.119,0,1,1,0,2.238Z" transform="translate(5.423 5.423)" fill="#0094c4"/>
  <g id="Group_7885" data-name="Group 7885" transform="translate(30.202 27.964)">
    <path id="Path_13028" data-name="Path 13028" d="M24.087,22.819H20.173a.839.839,0,0,1-.839-.839V19.463a2.8,2.8,0,1,1,5.594,0V21.98A.842.842,0,0,1,24.087,22.819ZM21.01,21.141h2.237V19.463a1.119,1.119,0,1,0-2.238,0v1.678Z" transform="translate(-17.096 -16.666)" fill="#a0e1ef"/>
    <path id="Path_13029" data-name="Path 13029" d="M26.109,27.164H19.956A1.959,1.959,0,0,1,18,25.206V21.291a1.96,1.96,0,0,1,1.958-1.958h6.153a1.96,1.96,0,0,1,1.958,1.958v3.914A1.962,1.962,0,0,1,26.109,27.164Z" transform="translate(-18 -14.858)" fill="#a0e1ef"/>
  </g>
</svg>
