<svg xmlns="http://www.w3.org/2000/svg" width="566.128" height="510.047" viewBox="0 0 566.128 510.047">
  <g id="LEFT_OBJECT" data-name="LEFT OBJECT" transform="translate(-290 -3516.418)">
    <g id="Background_Complete" data-name="Background Complete" transform="translate(425.538 3693.07)">
      <g id="Group_18" data-name="Group 18" transform="translate(154.885 96.579)">
        <g id="Group_17" data-name="Group 17">
          <g id="Group_2" data-name="Group 2" transform="translate(81.472 97.39)">
            <g id="Group_1" data-name="Group 1">
              <path id="Path_1" data-name="Path 1" d="M439.844,384.405h49.928a6.362,6.362,0,0,0,6.361-6.361V362.66a10.72,10.72,0,0,0-10.719-10.719H439.466Z" transform="translate(-439.466 -351.941)" fill="#ebebeb"/>
            </g>
          </g>
          <g id="Group_14" data-name="Group 14">
            <g id="Group_13" data-name="Group 13">
              <g id="Group_4" data-name="Group 4" transform="translate(27.926 129.854)">
                <g id="Group_3" data-name="Group 3">
                  <path id="Path_2" data-name="Path 2" d="M500.561,387.033H402.383a4.838,4.838,0,0,1-4.837-4.838h0a4.838,4.838,0,0,1,4.837-4.837h98.178a4.837,4.837,0,0,1,4.837,4.837h0A4.837,4.837,0,0,1,500.561,387.033Z" transform="translate(-397.546 -377.357)" fill="#ebebeb"/>
                </g>
              </g>
              <g id="Group_6" data-name="Group 6">
                <g id="Group_5" data-name="Group 5">
                  <path id="Path_3" data-name="Path 3" d="M388.441,276.651l54.009-.955,34.286,129.572L403.609,406l-27.561-113.59A12.752,12.752,0,0,1,388.441,276.651Z" transform="translate(-375.683 -275.696)" fill="#e0e0e0"/>
                </g>
              </g>
              <g id="Group_8" data-name="Group 8" transform="translate(23.5 139.529)">
                <g id="Group_7" data-name="Group 7">
                  <path id="Path_4" data-name="Path 4" d="M410.241,384.932l-16.161,93.915h4.427l21.247-93.915Z" transform="translate(-394.081 -384.932)" fill="#ebebeb"/>
                </g>
              </g>
              <g id="Group_10" data-name="Group 10" transform="translate(60.586 139.529)">
                <g id="Group_9" data-name="Group 9">
                  <path id="Path_5" data-name="Path 5" d="M440.288,384.932l-17.173,93.915h4.427l22.26-93.915Z" transform="translate(-423.115 -384.932)" fill="#e0e0e0"/>
                </g>
              </g>
              <g id="Group_12" data-name="Group 12" transform="translate(110.383 139.529)">
                <g id="Group_11" data-name="Group 11">
                  <path id="Path_6" data-name="Path 6" d="M471.614,384.932l19.159,93.915h-4.427L462.1,384.932Z" transform="translate(-462.1 -384.932)" fill="#ebebeb"/>
                </g>
              </g>
            </g>
          </g>
          <g id="Group_16" data-name="Group 16" transform="translate(60.586)">
            <g id="Group_15" data-name="Group 15">
              <path id="Path_7" data-name="Path 7" d="M423.115,275.7l26.729,129.71h20.5L448.908,290.794a18.458,18.458,0,0,0-18.15-15.1Z" transform="translate(-423.115 -275.696)" fill="#ebebeb"/>
            </g>
          </g>
        </g>
      </g>
      <g id="Group_83" data-name="Group 83" transform="translate(320.621 0)">
        <g id="Group_58" data-name="Group 58" transform="translate(0 70.662)">
          <g id="Group_53" data-name="Group 53" transform="translate(9.689 9.439)">
            <g id="Group_52" data-name="Group 52">
              <rect id="Rectangle_11" data-name="Rectangle 11" width="2.628" height="23.478" fill="#e0e0e0"/>
            </g>
          </g>
          <g id="Group_55" data-name="Group 55" transform="translate(96.165 9.439)">
            <g id="Group_54" data-name="Group 54">
              <rect id="Rectangle_12" data-name="Rectangle 12" width="2.629" height="23.478" fill="#e0e0e0"/>
            </g>
          </g>
          <g id="Group_57" data-name="Group 57">
            <g id="Group_56" data-name="Group 56">
              <rect id="Rectangle_13" data-name="Rectangle 13" width="109.97" height="9.439" fill="#ebebeb"/>
            </g>
          </g>
        </g>
        <g id="Group_82" data-name="Group 82" transform="translate(17.519)">
          <g id="Group_65" data-name="Group 65" transform="translate(55.563)">
            <g id="Group_60" data-name="Group 60">
              <g id="Group_59" data-name="Group 59">
                <rect id="Rectangle_14" data-name="Rectangle 14" width="15.162" height="70.662" fill="#f5f5f5"/>
              </g>
            </g>
            <g id="Group_62" data-name="Group 62" transform="translate(4.884 50.706)">
              <g id="Group_61" data-name="Group 61">
                <path id="Path_11" data-name="Path 11" d="M686.479,153.785a3,3,0,1,1-3-3A3,3,0,0,1,686.479,153.785Z" transform="translate(-680.474 -150.782)" fill="#e0e0e0"/>
              </g>
            </g>
            <g id="Group_64" data-name="Group 64" transform="translate(5.437 18.72)">
              <g id="Group_63" data-name="Group 63">
                <rect id="Rectangle_15" data-name="Rectangle 15" width="4.64" height="28.879" fill="#e0e0e0"/>
              </g>
            </g>
          </g>
          <g id="Group_72" data-name="Group 72" transform="translate(40.162)">
            <g id="Group_67" data-name="Group 67">
              <g id="Group_66" data-name="Group 66">
                <rect id="Rectangle_16" data-name="Rectangle 16" width="15.16" height="70.662" fill="#ebebeb"/>
              </g>
            </g>
            <g id="Group_69" data-name="Group 69" transform="translate(4.881 50.706)">
              <g id="Group_68" data-name="Group 68">
                <path id="Path_12" data-name="Path 12" d="M674.421,153.785a3,3,0,1,1-3-3A3,3,0,0,1,674.421,153.785Z" transform="translate(-668.415 -150.782)" fill="#fafafa"/>
              </g>
            </g>
            <g id="Group_71" data-name="Group 71" transform="translate(5.437 18.72)">
              <g id="Group_70" data-name="Group 70">
                <rect id="Rectangle_17" data-name="Rectangle 17" width="4.638" height="28.879" fill="#fafafa"/>
              </g>
            </g>
          </g>
          <g id="Group_79" data-name="Group 79" transform="translate(25.496)">
            <g id="Group_74" data-name="Group 74">
              <g id="Group_73" data-name="Group 73">
                <rect id="Rectangle_18" data-name="Rectangle 18" width="15.16" height="70.662" fill="#e0e0e0"/>
              </g>
            </g>
            <g id="Group_76" data-name="Group 76" transform="translate(4.882 50.706)">
              <g id="Group_75" data-name="Group 75">
                <path id="Path_13" data-name="Path 13" d="M662.941,153.785a3,3,0,1,1-3-3A3,3,0,0,1,662.941,153.785Z" transform="translate(-656.934 -150.782)" fill="#fafafa"/>
              </g>
            </g>
            <g id="Group_78" data-name="Group 78" transform="translate(5.437 18.72)">
              <g id="Group_77" data-name="Group 77">
                <rect id="Rectangle_19" data-name="Rectangle 19" width="4.638" height="28.879" fill="#fafafa"/>
              </g>
            </g>
          </g>
          <g id="Group_81" data-name="Group 81" transform="translate(0 4.668)">
            <g id="Group_80" data-name="Group 80">
              <path id="Path_14" data-name="Path 14" d="M639.9,179.656l18.216-62.16-6.281-2.756L633.151,177.4Z" transform="translate(-633.151 -114.74)" fill="#e0e0e0"/>
            </g>
          </g>
        </g>
      </g>
      <g id="Group_104" data-name="Group 104" transform="translate(0 132.248)">
        <g id="Group_93" data-name="Group 93">
          <g id="Group_84" data-name="Group 84" transform="translate(60.606 80.289)">
            <path id="Path_15" data-name="Path 15" d="M309.279,369.518c6.176-3.187,13.448-3.6,20.3-2.468,3.683.609,7.523,1.712,10.03,4.478s2.981,7.636.1,10.013c-1.713,1.415-4.1,1.63-6.324,1.6-5.367-.061-11.324-1.008-15.611,2.223-2.446,1.842-4.075,4.9-7,5.812-2.861.887-6.09-.8-7.608-3.385a11.82,11.82,0,0,1-.861-8.723A13.315,13.315,0,0,1,309.279,369.518Z" transform="translate(-301.873 -366.478)" fill="#e7dcd3"/>
          </g>
          <g id="Group_85" data-name="Group 85" transform="translate(50.296)">
            <path id="Path_16" data-name="Path 16" d="M297.368,359.636c3.776,5.394,11.115,3.608,14.518.317s4.842-8.065,6.152-12.615c2.991-10.4,6.007-21.3,3.783-31.89a17.714,17.714,0,0,0-4.073-8.669c-2.224-2.349-5.645-3.745-8.771-2.919-3.7.977-6,4.6-7.663,8.05a76.031,76.031,0,0,0-7.512,32.623c-.018,5.255.6,10.765,3.566,15.1" transform="translate(-293.802 -303.621)" fill="#e7dcd3"/>
          </g>
          <g id="Group_86" data-name="Group 86" transform="translate(0 17.355)">
            <path id="Path_17" data-name="Path 17" d="M297.918,363.607c4.1-4.867,4.878-11.963,3.053-18.06s-5.946-11.283-10.7-15.517a57.6,57.6,0,0,0-19.155-11.3,20.419,20.419,0,0,0-8.614-1.463,9.04,9.04,0,0,0-7.23,4.374c-2.016,3.845-.083,8.507,2.008,12.312a145.935,145.935,0,0,0,12.58,19.159c3.771,4.861,8.091,9.657,13.837,11.854s11.717,1.939,14.763-2.046" transform="translate(-254.425 -317.207)" fill="#e7dcd3"/>
          </g>
          <g id="Group_88" data-name="Group 88" transform="translate(53.537 87.779)">
            <g id="Group_87" data-name="Group 87">
              <path id="Path_18" data-name="Path 18" d="M296.408,421.939a11.712,11.712,0,0,0,.342-2.45c.174-1.784.391-4.024.65-6.689a96.66,96.66,0,0,1,1.5-9.81,75.649,75.649,0,0,1,3.566-11.58,42.68,42.68,0,0,1,5.913-10.477,22.07,22.07,0,0,1,7.475-6.214,20.87,20.87,0,0,1,6.3-1.961,11.692,11.692,0,0,0,2.44-.354,11.6,11.6,0,0,0-2.483-.038,19.059,19.059,0,0,0-6.564,1.709,22.026,22.026,0,0,0-7.885,6.268,41.72,41.72,0,0,0-6.13,10.689,70.754,70.754,0,0,0-3.539,11.768,82.718,82.718,0,0,0-1.305,9.935c-.212,2.841-.293,5.14-.331,6.73A11.467,11.467,0,0,0,296.408,421.939Z" transform="translate(-296.339 -372.342)" fill="#f5f5f5"/>
            </g>
          </g>
          <g id="Group_90" data-name="Group 90" transform="translate(53.538 21.671)">
            <g id="Group_89" data-name="Group 89">
              <path id="Path_19" data-name="Path 19" d="M296.869,431.146a4.9,4.9,0,0,0,.066-1.137c0-.855-.005-1.931-.009-3.252-.008-2.823-.006-6.906.144-11.949.25-10.087,1.119-20.943,2.8-36.247,1.589-14.392,3.721-31.14,5.97-42.028.483-2.477.968-4.706,1.425-6.656.437-1.957.81-3.643,1.169-5.007.309-1.285.559-2.331.76-3.161a4.94,4.94,0,0,0,.2-1.121,4.745,4.745,0,0,0-.4,1.067c-.248.818-.56,1.85-.944,3.115-.419,1.351-.848,3.027-1.337,4.975-.511,1.943-1.047,4.167-1.576,6.639a369.045,369.045,0,0,0-6.275,39c-1.681,15.336-2.438,29.3-2.506,39.412-.059,5.056.049,9.148.178,11.972.08,1.321.146,2.4.2,3.251A4.794,4.794,0,0,0,296.869,431.146Z" transform="translate(-296.339 -320.587)" fill="#f5f5f5"/>
            </g>
          </g>
          <g id="Group_92" data-name="Group 92" transform="translate(18.106 29.906)">
            <g id="Group_91" data-name="Group 91">
              <path id="Path_20" data-name="Path 20" d="M304.629,402.426a21.686,21.686,0,0,0-.024-3.4c-.125-2.183-.424-5.338-1.04-9.2a120.971,120.971,0,0,0-2.994-13.409,109.865,109.865,0,0,0-5.606-15.868c-4.652-11.034-10.971-20.054-16.469-25.641a41.5,41.5,0,0,0-3.874-3.6c-.594-.5-1.119-1-1.654-1.4l-1.5-1.036a21.262,21.262,0,0,0-2.86-1.83c-.162.22,4.053,2.7,9.374,8.363a89.067,89.067,0,0,1,16.057,25.549,125.608,125.608,0,0,1,5.639,15.721c1.47,4.927,2.446,9.459,3.184,13.276.7,3.826,1.107,6.95,1.353,9.112A22,22,0,0,0,304.629,402.426Z" transform="translate(-268.6 -327.034)" fill="#f5f5f5"/>
            </g>
          </g>
        </g>
        <g id="Group_94" data-name="Group 94" transform="translate(28.103 152.807)">
          <path id="Path_21" data-name="Path 21" d="M276.427,423.252l2.7,36.973h47.5l2.7-36.973Z" transform="translate(-276.427 -423.252)" fill="#263238"/>
        </g>
        <g id="Group_95" data-name="Group 95" transform="translate(23.515 138.234)">
          <rect id="Rectangle_20" data-name="Rectangle 20" width="63.151" height="14.573" fill="#263238"/>
        </g>
        <g id="Group_96" data-name="Group 96" transform="translate(23.515 188.366)">
          <path id="Path_22" data-name="Path 22" d="M272.835,451.09v4.04h62.108v-4.04Z" transform="translate(-272.835 -451.09)" fill="#a9c2dc"/>
        </g>
        <g id="Group_97" data-name="Group 97" transform="translate(26.483 192.405)">
          <path id="Path_23" data-name="Path 23" d="M278.067,461.362l-2.909-7.11h56.878l-3.393,7.11Z" transform="translate(-275.158 -454.252)" fill="#a9c2dc"/>
        </g>
        <g id="Group_99" data-name="Group 99" transform="translate(28.904 159.697)">
          <g id="Group_98" data-name="Group 98">
            <path id="Path_24" data-name="Path 24" d="M328.267,433.84a1.591,1.591,0,0,1-.221.34c-.189.249-.423.559-.71.941l-2.767,3.541-.124.157-.119-.165-6.8-9.4h.391l-6.692,9.478-.211.3-.234-.278-7.939-9.444.459-.005-.437.548c-2.463,3.086-4.845,6.074-7.1,8.9l-.236.3-.218-.309c-2.409-3.409-4.661-6.594-6.7-9.474l.39.019-8.248,9.395-.146.167-.112-.188-2.582-4.338c-.271-.471-.488-.852-.663-1.156a1.832,1.832,0,0,1-.2-.411,1.815,1.815,0,0,1,.276.365l.733,1.113c.66,1.036,1.57,2.465,2.71,4.259l-.258-.02,8.115-9.511.2-.239.185.258c2.054,2.866,4.325,6.038,6.756,9.432l-.455-.013,7.081-8.911.437-.549.225-.284.233.278,7.916,9.462-.445.017,6.76-9.429.2-.276.193.276c2.679,3.826,4.952,7.074,6.655,9.5l-.241-.008,2.878-3.45.771-.893C328.16,433.929,328.256,433.831,328.267,433.84Z" transform="translate(-277.054 -428.645)" fill="#f5f5f5"/>
          </g>
        </g>
        <g id="Group_101" data-name="Group 101" transform="translate(28.498 152.268)">
          <g id="Group_100" data-name="Group 100">
            <path id="Path_25" data-name="Path 25" d="M329.9,423.124c0,.163-11.9.3-26.58.3s-26.582-.133-26.582-.3,11.9-.3,26.582-.3S329.9,422.962,329.9,423.124Z" transform="translate(-276.736 -422.829)" fill="#f5f5f5"/>
          </g>
        </g>
        <g id="Group_103" data-name="Group 103" transform="translate(26.283 192.508)">
          <g id="Group_102" data-name="Group 102">
            <path id="Path_26" data-name="Path 26" d="M332.778,454.628c0,.164-12.934.3-28.887.3s-28.889-.133-28.889-.3,12.932-.3,28.889-.3S332.778,454.465,332.778,454.628Z" transform="translate(-275.002 -454.333)" fill="#f5f5f5"/>
          </g>
        </g>
      </g>
    </g>
    <g id="Bullseye" transform="translate(290.511 3516.418)">
      <g id="Group_213" data-name="Group 213" transform="translate(0 0)">
        <g id="Group_208" data-name="Group 208" transform="translate(49.716)">
          <ellipse id="Ellipse_1" data-name="Ellipse 1" cx="62.773" cy="62.773" rx="62.773" ry="62.773" fill="#ff688f"/>
        </g>
        <g id="Group_209" data-name="Group 209" transform="translate(60.242 10.527)">
          <path id="Path_64" data-name="Path 64" d="M248.124,174.521a52.246,52.246,0,1,1,52.246-52.246A52.306,52.306,0,0,1,248.124,174.521Zm0-95.551a43.305,43.305,0,1,0,43.305,43.305A43.354,43.354,0,0,0,248.124,78.969Z" transform="translate(-195.878 -70.028)" fill="#fff"/>
        </g>
        <g id="Group_210" data-name="Group 210" transform="translate(92.896 42.151)">
          <path id="Path_65" data-name="Path 65" d="M240.685,133.27a19.242,19.242,0,1,1,19.242-19.242A19.264,19.264,0,0,1,240.685,133.27Zm0-29.543a10.3,10.3,0,1,0,10.3,10.3A10.313,10.313,0,0,0,240.685,103.727Z" transform="translate(-221.442 -94.786)" fill="#fff"/>
        </g>
        <g id="Group_211" data-name="Group 211" transform="translate(34.809 61.394)">
          <path id="Path_66" data-name="Path 66" d="M253.3,109.851H228.973l4.241,7.5-57.248,26.238,1.931,3.219,57.44-25.933,3.936,7.453Z" transform="translate(-175.967 -109.851)" fill="#455a64"/>
        </g>
        <g id="Group_212" data-name="Group 212" transform="translate(0 91.243)">
          <path id="Path_67" data-name="Path 67" d="M183.523,137.112l-.607-.593a11.631,11.631,0,0,0-11.367-2.836l-22.835,6.647,12.716,5.587L156.323,159.5l21.423-7.64a11.632,11.632,0,0,0,7.71-11.533h0Z" transform="translate(-148.715 -133.22)" fill="#263238"/>
        </g>
      </g>
    </g>
    <g id="Graphics" transform="translate(432.104 3521.057)">
      <g id="Group_235" data-name="Group 235" transform="translate(243.335 0)">
        <g id="Group_217" data-name="Group 217">
          <g id="Group_214" data-name="Group 214" transform="translate(0.333 0.334)">
            <rect id="Rectangle_21" data-name="Rectangle 21" width="158.134" height="149.276" rx="4.937" fill="#fafafa"/>
          </g>
        </g>
        <g id="Group_234" data-name="Group 234" transform="translate(9.692 15.895)">
          <g id="Group_218" data-name="Group 218" transform="translate(18.237 44.206)">
            <rect id="Rectangle_22" data-name="Rectangle 22" width="8.525" height="73.246" fill="#e8505b"/>
          </g>
          <g id="Group_219" data-name="Group 219" transform="translate(56.981 38.263)">
            <rect id="Rectangle_23" data-name="Rectangle 23" width="8.525" height="79.19" fill="#e8505b"/>
          </g>
          <g id="Group_220" data-name="Group 220" transform="translate(97.112 28.207)">
            <rect id="Rectangle_24" data-name="Rectangle 24" width="8.525" height="89.246" fill="#e8505b"/>
          </g>
          <g id="Group_221" data-name="Group 221" transform="translate(78.261 81.788)">
            <rect id="Rectangle_25" data-name="Rectangle 25" width="8.525" height="35.665" fill="#f99746"/>
          </g>
          <g id="Group_222" data-name="Group 222" transform="translate(28.173 36.36)">
            <rect id="Rectangle_26" data-name="Rectangle 26" width="8.525" height="81.093" fill="#455a64"/>
          </g>
          <g id="Group_223" data-name="Group 223" transform="translate(67.611 19.37)">
            <rect id="Rectangle_27" data-name="Rectangle 27" width="8.525" height="98.083" fill="#484ce7"/>
          </g>
          <g id="Group_224" data-name="Group 224" transform="translate(119.098 19.37)">
            <rect id="Rectangle_28" data-name="Rectangle 28" width="8.525" height="98.083" fill="#f99746"/>
          </g>
          <g id="Group_225" data-name="Group 225" transform="translate(108.499)">
            <rect id="Rectangle_29" data-name="Rectangle 29" width="8.525" height="117.453" fill="#484ce7"/>
          </g>
          <g id="Group_226" data-name="Group 226" transform="translate(38.6 65.984)">
            <rect id="Rectangle_30" data-name="Rectangle 30" width="8.525" height="51.468" fill="#263238"/>
          </g>
          <g id="Group_228" data-name="Group 228" transform="translate(3.948 121.564)">
            <g id="Group_227" data-name="Group 227">
              <path id="Path_69" data-name="Path 69" d="M618.619,178.365c0,.184-30.418.333-67.932.333s-67.938-.149-67.938-.333,30.412-.332,67.938-.332S618.619,178.181,618.619,178.365Z" transform="translate(-482.749 -178.033)" fill="#263238"/>
            </g>
          </g>
          <g id="Group_229" data-name="Group 229" transform="translate(0 104.423)">
            <rect id="Rectangle_31" data-name="Rectangle 31" width="5.202" height="1.951" fill="#263238"/>
          </g>
          <g id="Group_230" data-name="Group 230" transform="translate(0 78.359)">
            <rect id="Rectangle_32" data-name="Rectangle 32" width="5.202" height="1.951" fill="#263238"/>
          </g>
          <g id="Group_231" data-name="Group 231" transform="translate(0 29.302)">
            <rect id="Rectangle_33" data-name="Rectangle 33" width="5.202" height="1.951" fill="#263238"/>
          </g>
          <g id="Group_232" data-name="Group 232" transform="translate(0 4.65)">
            <rect id="Rectangle_34" data-name="Rectangle 34" width="5.202" height="1.951" fill="#263238"/>
          </g>
          <g id="Group_233" data-name="Group 233" transform="translate(0.264 53.831)">
            <rect id="Rectangle_35" data-name="Rectangle 35" width="5.202" height="1.951" fill="#263238"/>
          </g>
        </g>
      </g>
      <g id="Group_265" data-name="Group 265" transform="translate(0 54.609)">
        <g id="Group_239" data-name="Group 239" transform="translate(0 6.343)">
          <g id="Group_236" data-name="Group 236" transform="translate(0.332 0.332)">
            <rect id="Rectangle_36" data-name="Rectangle 36" width="294.228" height="228.99" fill="#fff"/>
          </g>
          <g id="Group_238" data-name="Group 238">
            <g id="Group_237" data-name="Group 237">
              <path id="Path_70" data-name="Path 70" d="M554.127,342.46c0-2.286-.11-90.8-.275-228.991l.275.275-294.2.057H259.9l.332-.332c-.011,82.541-.023,160.611-.033,228.99l-.3-.3c174.61.176,291.605.3,294.229.3l-294.229.3h-.3v-.3c-.01-68.379-.022-146.449-.033-228.99v-.332h.358l294.2.057h.275v.275C554.235,251.658,554.129,340.176,554.127,342.46Z" transform="translate(-259.566 -113.137)" fill="#263238"/>
            </g>
          </g>
        </g>
        <g id="Group_263" data-name="Group 263" transform="translate(27.631 36.76)">
          <g id="Group_241" data-name="Group 241" transform="translate(59.318 67.641)">
            <g id="Group_240" data-name="Group 240">
              <path id="Path_71" data-name="Path 71" d="M327.97,293.115c-.184,0-.333-23.106-.333-51.6s.149-51.608.333-51.608.332,23.1.332,51.608S328.154,293.115,327.97,293.115Z" transform="translate(-327.637 -189.905)" fill="#263238"/>
            </g>
          </g>
          <g id="Group_243" data-name="Group 243" transform="translate(177.87 67.641)">
            <g id="Group_242" data-name="Group 242">
              <path id="Path_72" data-name="Path 72" d="M420.782,293.115c-.184,0-.332-23.106-.332-51.6s.148-51.608.332-51.608.332,23.1.332,51.608S420.966,293.115,420.782,293.115Z" transform="translate(-420.45 -189.905)" fill="#263238"/>
            </g>
          </g>
          <g id="Group_245" data-name="Group 245" transform="translate(99.791 38.907)">
            <g id="Group_244" data-name="Group 244">
              <path id="Path_73" data-name="Path 73" d="M359.655,299.354c-.184,0-.332-29.539-.332-65.969s.148-65.975.332-65.975.333,29.532.333,65.975S359.839,299.354,359.655,299.354Z" transform="translate(-359.323 -167.41)" fill="#263238"/>
            </g>
          </g>
          <g id="Group_247" data-name="Group 247" transform="translate(17.751 38.907)">
            <g id="Group_246" data-name="Group 246">
              <path id="Path_74" data-name="Path 74" d="M295.428,299.354c-.184,0-.333-29.539-.333-65.969s.149-65.975.333-65.975.332,29.532.332,65.975S295.611,299.354,295.428,299.354Z" transform="translate(-295.095 -167.41)" fill="#263238"/>
            </g>
          </g>
          <g id="Group_249" data-name="Group 249" transform="translate(224.402 38.907)">
            <g id="Group_248" data-name="Group 248">
              <path id="Path_75" data-name="Path 75" d="M457.211,299.354c-.184,0-.332-29.539-.332-65.969s.148-65.975.332-65.975.333,29.532.333,65.975S457.4,299.354,457.211,299.354Z" transform="translate(-456.879 -167.41)" fill="#263238"/>
            </g>
          </g>
          <g id="Group_251" data-name="Group 251" transform="translate(135.282 18.503)">
            <g id="Group_250" data-name="Group 250">
              <path id="Path_76" data-name="Path 76" d="M387.44,303.784c-.184,0-.332-34.107-.332-76.171s.148-76.177.332-76.177.333,34.1.333,76.177S387.624,303.784,387.44,303.784Z" transform="translate(-387.108 -151.436)" fill="#263238"/>
            </g>
          </g>
          <g id="Group_252" data-name="Group 252" transform="translate(58.683 66.674)">
            <path id="Path_77" data-name="Path 77" d="M329.076,190.115a.968.968,0,1,1-.968-.967A.968.968,0,0,1,329.076,190.115Z" transform="translate(-327.14 -189.148)" fill="#263238"/>
          </g>
          <g id="Group_253" data-name="Group 253" transform="translate(99.155 37.939)">
            <path id="Path_78" data-name="Path 78" d="M360.761,167.62a.968.968,0,1,1-.968-.968A.968.968,0,0,1,360.761,167.62Z" transform="translate(-358.825 -166.652)" fill="#263238"/>
          </g>
          <g id="Group_254" data-name="Group 254" transform="translate(96.68 35.462)">
            <path id="Path_79" data-name="Path 79" d="M360.331,171.6a3.444,3.444,0,1,1,3.445-3.444A3.448,3.448,0,0,1,360.331,171.6Zm0-6.569a3.125,3.125,0,1,0,3.126,3.126A3.128,3.128,0,0,0,360.331,165.032Z" transform="translate(-356.887 -164.713)" fill="#e8505b"/>
          </g>
          <g id="Group_255" data-name="Group 255" transform="translate(134.646 17.535)">
            <ellipse id="Ellipse_2" data-name="Ellipse 2" cx="0.968" cy="0.968" rx="0.968" ry="0.968" fill="#263238"/>
          </g>
          <g id="Group_256" data-name="Group 256" transform="translate(177.234 67.641)">
            <path id="Path_80" data-name="Path 80" d="M421.888,190.873a.968.968,0,1,1-.968-.968A.968.968,0,0,1,421.888,190.873Z" transform="translate(-419.952 -189.905)" fill="#263238"/>
          </g>
          <g id="Group_257" data-name="Group 257" transform="translate(223.788 37.939)">
            <path id="Path_81" data-name="Path 81" d="M458.335,167.62a.968.968,0,1,1-.968-.968A.968.968,0,0,1,458.335,167.62Z" transform="translate(-456.399 -166.652)" fill="#263238"/>
          </g>
          <g id="Group_258" data-name="Group 258" transform="translate(17.116 38.907)">
            <path id="Path_82" data-name="Path 82" d="M296.534,168.378a.968.968,0,1,1-.968-.968A.968.968,0,0,1,296.534,168.378Z" transform="translate(-294.598 -167.41)" fill="#263238"/>
          </g>
          <g id="Group_260" data-name="Group 260" transform="translate(0 60.601)">
            <g id="Group_259" data-name="Group 259">
              <path id="Path_83" data-name="Path 83" d="M515.1,209.4c.024.111-1.064.261-2.937,1.056a21.342,21.342,0,0,0-6.989,5.378c-2.62,2.862-5.245,6.849-8.557,11.341A54.764,54.764,0,0,1,490.767,234a32.448,32.448,0,0,1-3.813,3.168,26.533,26.533,0,0,1-4.606,2.53,25.986,25.986,0,0,1-11.042,1.88,29.627,29.627,0,0,1-5.942-.736,15.593,15.593,0,0,1-5.79-2.539,18.7,18.7,0,0,1-4.519-4.7c-1.242-1.792-2.352-3.68-3.421-5.6-2.132-3.854-4.343-7.7-6.845-11.6-2.482-3.946-4.773-8.1-7.323-12.17a59.956,59.956,0,0,0-8.9-11.477,25.65,25.65,0,0,0-5.954-4.227,22.547,22.547,0,0,0-3.394-1.388c-.594-.153-1.2-.262-1.8-.4l-.906-.194c-.3-.06-.616-.051-.923-.082a25.636,25.636,0,0,0-14.624,3.11,37.936,37.936,0,0,0-11.173,10.429,114.9,114.9,0,0,0-8.042,12.911c-4.867,8.811-10.23,17.208-17.327,23.5a29.693,29.693,0,0,1-12.055,6.712,23.038,23.038,0,0,1-6.664.729,25.208,25.208,0,0,1-6.367-1.189,42.907,42.907,0,0,1-10.709-5.613c-3.168-2.189-6.058-4.451-8.877-6.489a47.373,47.373,0,0,0-8.391-5.111,27.748,27.748,0,0,0-8.338-2.392,20.6,20.6,0,0,0-7.493.459,12.57,12.57,0,0,0-1.621.516,10.4,10.4,0,0,0-1.517.591,19.409,19.409,0,0,0-2.657,1.457,28.577,28.577,0,0,0-4.012,3.175c-.99,1.111-1.916,1.985-2.53,2.8a18.763,18.763,0,0,1-1.984,2.433,18.383,18.383,0,0,1,1.664-2.679c.57-.867,1.461-1.8,2.426-2.975a27.728,27.728,0,0,1,4.008-3.408,19.95,19.95,0,0,1,2.718-1.593,10.928,10.928,0,0,1,1.57-.659,13.249,13.249,0,0,1,1.687-.582,21.362,21.362,0,0,1,7.857-.65,28.661,28.661,0,0,1,8.737,2.343,48.028,48.028,0,0,1,8.7,5.122c2.874,2.022,5.785,4.245,8.923,6.362a41.592,41.592,0,0,0,10.346,5.311,23.576,23.576,0,0,0,5.934,1.06,21.4,21.4,0,0,0,6.149-.722,28.017,28.017,0,0,0,11.288-6.4c6.771-6.062,12.03-14.309,16.834-23.075a115.551,115.551,0,0,1,8.157-13.141,39.737,39.737,0,0,1,11.781-10.98,27.555,27.555,0,0,1,15.809-3.348c.337.033.68.029,1.012.093l1,.212c.66.148,1.328.272,1.98.443a24.521,24.521,0,0,1,3.723,1.528,27.527,27.527,0,0,1,6.4,4.564,61.429,61.429,0,0,1,9.18,11.892c2.569,4.144,4.842,8.306,7.264,12.2,2.478,3.9,4.736,7.886,6.818,11.716,2.123,3.781,4.187,7.549,7.37,9.8a14.036,14.036,0,0,0,5.21,2.331,28.247,28.247,0,0,0,5.619.75,24.61,24.61,0,0,0,10.447-1.646,25.327,25.327,0,0,0,4.384-2.332,31.61,31.61,0,0,0,3.7-2.981,54.854,54.854,0,0,0,5.835-6.577c3.364-4.384,6.113-8.355,8.876-11.2a20.466,20.466,0,0,1,7.406-5.22,12.4,12.4,0,0,1,2.288-.605A2.459,2.459,0,0,1,515.1,209.4Z" transform="translate(-281.198 -184.394)" fill="#484ce7"/>
            </g>
          </g>
          <g id="Group_261" data-name="Group 261" transform="translate(17.116)">
            <rect id="Rectangle_37" data-name="Rectangle 37" width="47.63" height="2.65" fill="#263238"/>
          </g>
          <g id="Group_262" data-name="Group 262" transform="translate(17.116 6.202)">
            <rect id="Rectangle_38" data-name="Rectangle 38" width="23.537" height="2.65" fill="#263238"/>
          </g>
        </g>
        <g id="Group_264" data-name="Group 264" transform="translate(0.332)">
          <rect id="Rectangle_39" data-name="Rectangle 39" width="294.228" height="18.395" fill="#c6d4e2"/>
        </g>
      </g>
    </g>
    <g id="Character_1" data-name="Character 1" transform="translate(290 3631.177)">
      <g id="Group_739" data-name="Group 739" transform="translate(0 0)">
        <g id="Group_493" data-name="Group 493" transform="translate(108.887 46.901)">
          <g id="Group_484" data-name="Group 484">
            <path id="Path_166" data-name="Path 166" d="M297.946,206.689a3.449,3.449,0,0,1-.054,3.272L271.16,257.706a16.9,16.9,0,0,1-22.651,5.721l-14.949-8.474,10.357-17.96,11.1,6.694,26.856-35.493a33.259,33.259,0,0,0,.4-5.949,8.98,8.98,0,0,0-.553-3,13.787,13.787,0,0,0-1.658-3.421,1.179,1.179,0,0,1,1.021-1.982c1.032.259,3.151,2.694,4.122,6.338s3.4-1.769,4.326-3.725,4.058-7.876,4.883-8.069c1.212-.282,1.738.963.772,2.9-.977,1.956-3.455,7.931-2.4,8.368,0,0,1.874.43,2.339,1.594Z" transform="translate(-233.561 -188.349)" fill="#ffbe9d"/>
          </g>
          <g id="Group_486" data-name="Group 486" transform="translate(56.439 11.892)">
            <g id="Group_485" data-name="Group 485">
              <path id="Path_167" data-name="Path 167" d="M282.389,197.974a8.156,8.156,0,0,1-.545,2.256q-.37,1.15-.764,2.381l-.473,1.4a2.025,2.025,0,0,1-.427.809.981.981,0,0,1-1.113.147,3.667,3.667,0,0,1-.746-.492,1.5,1.5,0,0,1-.551-.8,2.99,2.99,0,0,1,.337-1.6l.917-2.325a8.079,8.079,0,0,1,1.005-2.083,8.069,8.069,0,0,1-.562,2.243l-.784,2.373a2.774,2.774,0,0,0-.28,1.242c.041.275.559.641.93.837.2.083.3.07.383-.013a1.612,1.612,0,0,0,.281-.567c.172-.471.342-.931.508-1.385.31-.8.608-1.579.9-2.33A7.969,7.969,0,0,1,282.389,197.974Z" transform="translate(-277.746 -197.659)" fill="#eb996e"/>
            </g>
          </g>
          <g id="Group_488" data-name="Group 488" transform="translate(57.906 14.545)">
            <g id="Group_487" data-name="Group 487">
              <path id="Path_168" data-name="Path 168" d="M283.045,201.436a6.591,6.591,0,0,1-.465,2.048c-.224.71-.448,1.429-.681,2.168l-.207.625a1.44,1.44,0,0,1-.479.717,1,1,0,0,1-.992.043,3.474,3.474,0,0,1-.68-.437,1.7,1.7,0,0,1-.565-.694,1.443,1.443,0,0,1-.021-.894c.148-.506.317-.878.466-1.289.286-.717.565-1.414.839-2.1a6.662,6.662,0,0,1,.931-1.882,6.65,6.65,0,0,1-.489,2.041c-.231.705-.465,1.42-.7,2.154-.128.393-.308.848-.411,1.235a.755.755,0,0,0,.364.908c.364.3.771.511.893.379.183-.1.335-.649.48-1.021.276-.717.545-1.415.811-2.106A6.749,6.749,0,0,1,283.045,201.436Z" transform="translate(-278.895 -199.736)" fill="#eb996e"/>
            </g>
          </g>
          <g id="Group_490" data-name="Group 490" transform="translate(59.683 16.783)">
            <g id="Group_489" data-name="Group 489">
              <path id="Path_169" data-name="Path 169" d="M284.436,203.188a6.666,6.666,0,0,1-.466,2.048c-.222.71-.448,1.429-.681,2.168l-.207.625a1.451,1.451,0,0,1-.478.717,1,1,0,0,1-.994.042,3.451,3.451,0,0,1-.68-.437,1.68,1.68,0,0,1-.563-.692,1.453,1.453,0,0,1-.022-.894c.148-.506.318-.878.467-1.289.285-.717.563-1.415.838-2.105a6.683,6.683,0,0,1,.931-1.88,6.665,6.665,0,0,1-.489,2.041c-.231.705-.464,1.419-.7,2.152-.128.395-.307.848-.411,1.235a.759.759,0,0,0,.364.909c.364.3.773.511.893.379.184-.1.335-.649.48-1.021l.811-2.106A6.663,6.663,0,0,1,284.436,203.188Z" transform="translate(-280.286 -201.488)" fill="#eb996e"/>
            </g>
          </g>
          <g id="Group_492" data-name="Group 492" transform="translate(53.415 15.814)">
            <g id="Group_491" data-name="Group 491">
              <path id="Path_170" data-name="Path 170" d="M277.743,208.081c-.194-.04.213-1.837-.471-3.9-.642-2.074-2.019-3.3-1.884-3.444.051-.064.475.152,1.012.695a6.668,6.668,0,0,1,1.763,5.492C278.042,207.68,277.823,208.1,277.743,208.081Z" transform="translate(-275.379 -200.73)" fill="#eb996e"/>
            </g>
          </g>
        </g>
        <g id="Group_541" data-name="Group 541" transform="translate(35.027)">
          <g id="Group_532" data-name="Group 532">
            <g id="Group_494" data-name="Group 494">
              <path id="Path_171" data-name="Path 171" d="M220.714,154.908a11.286,11.286,0,0,0-12.574-2.279c-1.9.9-3.548,2.336-5.577,2.868-2.429.636-4.971-.132-7.463-.441s-5.431.057-6.8,2.163c-.88,1.357-.929,3.2-2.074,4.347-1.581,1.575-4.237.946-6.379,1.574a5.951,5.951,0,0,0-4.034,4.729,7.079,7.079,0,0,0,2.039,5.98c.886.888,2.017,1.6,2.548,2.735.7,1.486.167,3.215-.1,4.832s-.059,3.634,1.413,4.357a2.217,2.217,0,0,0,3.092-2.661l30.948-9.913c4.667,0,6.14-4.2,6.878-5.656A11.287,11.287,0,0,0,220.714,154.908Z" transform="translate(-175.737 -151.63)" fill="#263238"/>
            </g>
            <g id="Group_519" data-name="Group 519" transform="translate(8.102 11.715)">
              <g id="Group_518" data-name="Group 518">
                <g id="Group_517" data-name="Group 517">
                  <g id="Group_496" data-name="Group 496">
                    <g id="Group_495" data-name="Group 495">
                      <path id="Path_172" data-name="Path 172" d="M182.08,163.117l.066,3.347.672,50.09c.078,5.814,5.14,10.38,11.366,10.248h0c6.288-.133,11.4-5,11.413-10.875.019-6.167.152-12.658.152-12.658s7.945-1.319,9.59-11.685c.819-5.155.559-13.607.125-20.516a10.945,10.945,0,0,0-12.073-10.2Z" transform="translate(-182.08 -160.802)" fill="#ffbe9d"/>
                    </g>
                  </g>
                  <g id="Group_502" data-name="Group 502" transform="translate(26.296 13.265)">
                    <g id="Group_498" data-name="Group 498" transform="translate(2.311 1.684)">
                      <g id="Group_497" data-name="Group 497">
                        <path id="Path_173" data-name="Path 173" d="M207.129,173.707a1.329,1.329,0,0,1-1.281,1.341,1.271,1.271,0,0,1-1.371-1.2,1.329,1.329,0,0,1,1.28-1.342A1.271,1.271,0,0,1,207.129,173.707Z" transform="translate(-204.476 -172.505)" fill="#263238"/>
                      </g>
                    </g>
                    <g id="Group_501" data-name="Group 501">
                      <g id="Group_500" data-name="Group 500">
                        <g id="Group_499" data-name="Group 499">
                          <path id="Path_174" data-name="Path 174" d="M207.921,172.584c-.165.172-1.171-.572-2.6-.568-1.429-.017-2.479.719-2.634.544-.077-.078.091-.391.548-.723a3.647,3.647,0,0,1,2.109-.65,3.5,3.5,0,0,1,2.072.668C207.853,172.194,208,172.507,207.921,172.584Z" transform="translate(-202.667 -171.187)" fill="#263238"/>
                        </g>
                      </g>
                    </g>
                  </g>
                  <g id="Group_508" data-name="Group 508" transform="translate(12.235 13.532)">
                    <g id="Group_504" data-name="Group 504" transform="translate(2.055 1.417)">
                      <g id="Group_503" data-name="Group 503">
                        <path id="Path_175" data-name="Path 175" d="M195.92,173.707a1.329,1.329,0,0,1-1.281,1.341,1.271,1.271,0,0,1-1.371-1.2,1.329,1.329,0,0,1,1.28-1.342A1.271,1.271,0,0,1,195.92,173.707Z" transform="translate(-193.267 -172.505)" fill="#263238"/>
                      </g>
                    </g>
                    <g id="Group_507" data-name="Group 507">
                      <g id="Group_506" data-name="Group 506">
                        <g id="Group_505" data-name="Group 505">
                          <path id="Path_176" data-name="Path 176" d="M196.913,172.793c-.165.172-1.174-.572-2.6-.568-1.428-.017-2.478.719-2.634.544-.075-.078.091-.391.549-.723a3.641,3.641,0,0,1,2.109-.65,3.5,3.5,0,0,1,2.071.668C196.844,172.4,196.993,172.715,196.913,172.793Z" transform="translate(-191.658 -171.396)" fill="#263238"/>
                        </g>
                      </g>
                    </g>
                  </g>
                  <g id="Group_511" data-name="Group 511" transform="translate(22.011 13.618)">
                    <g id="Group_510" data-name="Group 510">
                      <g id="Group_509" data-name="Group 509">
                        <path id="Path_177" data-name="Path 177" d="M199.981,183.383a9.44,9.44,0,0,1,2.323-.419c.365-.038.711-.11.773-.36a1.847,1.847,0,0,0-.244-1.082q-.515-1.326-1.081-2.782c-1.5-3.96-2.585-7.216-2.426-7.276s1.506,3.1,3.006,7.064q.542,1.464,1.036,2.8a2.114,2.114,0,0,1,.189,1.433.915.915,0,0,1-.6.534,2.514,2.514,0,0,1-.621.087A9.27,9.27,0,0,1,199.981,183.383Z" transform="translate(-199.312 -171.463)" fill="#263238"/>
                      </g>
                    </g>
                  </g>
                  <g id="Group_513" data-name="Group 513" transform="translate(9.787 38.762)">
                    <g id="Group_512" data-name="Group 512">
                      <path id="Path_178" data-name="Path 178" d="M203.624,194.852a26.379,26.379,0,0,1-13.882-3.7s3.368,7.121,13.743,6.15Z" transform="translate(-189.742 -191.148)" fill="#eb996e"/>
                    </g>
                  </g>
                  <g id="Group_516" data-name="Group 516" transform="translate(18.238 26.528)">
                    <g id="Group_515" data-name="Group 515">
                      <g id="Group_514" data-name="Group 514">
                        <path id="Path_179" data-name="Path 179" d="M196.592,181.57c.232-.014.235,1.539,1.563,2.641s2.983.931,2.994,1.148c.022.1-.368.3-1.067.321a3.869,3.869,0,0,1-2.5-.871,3.374,3.374,0,0,1-1.212-2.215C196.312,181.946,196.484,181.561,196.592,181.57Z" transform="translate(-196.359 -181.57)" fill="#263238"/>
                      </g>
                    </g>
                  </g>
                </g>
              </g>
            </g>
            <g id="Group_521" data-name="Group 521" transform="translate(19.433 19.966)">
              <g id="Group_520" data-name="Group 520">
                <path id="Path_180" data-name="Path 180" d="M197.478,168.334c-.141.388-1.569.2-3.247.406-1.682.169-3.036.66-3.258.312-.1-.167.137-.533.683-.909a5.686,5.686,0,0,1,4.956-.547C197.229,167.843,197.54,168.149,197.478,168.334Z" transform="translate(-190.951 -167.261)" fill="#263238"/>
              </g>
            </g>
            <g id="Group_523" data-name="Group 523" transform="translate(34.255 20.756)">
              <g id="Group_522" data-name="Group 522">
                <path id="Path_181" data-name="Path 181" d="M207.425,169.362c-.252.324-1.236-.013-2.422-.028-1.184-.057-2.188.217-2.419-.123-.1-.165.057-.49.5-.8a3.507,3.507,0,0,1,3.9.12C207.4,168.869,207.537,169.2,207.425,169.362Z" transform="translate(-202.555 -167.88)" fill="#263238"/>
              </g>
            </g>
            <g id="Group_525" data-name="Group 525" transform="translate(6.372 9.825)">
              <g id="Group_524" data-name="Group 524">
                <path id="Path_182" data-name="Path 182" d="M216.183,166.88s-5.293,2.772-12.4-.5c-4.663-2.146-10.05-3.1-11.2-2.136s-1.251,5.7-5.754,7.223c0,0,.6,9.015-3.011,8.807s-3.064-18.3-3.064-18.3l9.93-.533,9.549-2.118,9.092.99,7.065,1.7Z" transform="translate(-180.725 -159.322)" fill="#263238"/>
              </g>
            </g>
            <g id="Group_528" data-name="Group 528" transform="translate(6.155 9.638)">
              <g id="Group_527" data-name="Group 527">
                <g id="Group_526" data-name="Group 526">
                  <path id="Path_183" data-name="Path 183" d="M180.557,159.437c-.05-.135.8-.456,1.8-.095s1.45,1.142,1.325,1.216c-.121.1-.671-.415-1.509-.705C181.339,159.544,180.588,159.59,180.557,159.437Z" transform="translate(-180.555 -159.176)" fill="#263238"/>
                </g>
              </g>
            </g>
            <g id="Group_531" data-name="Group 531" transform="translate(8.843 6.849)">
              <g id="Group_530" data-name="Group 530">
                <g id="Group_529" data-name="Group 529">
                  <path id="Path_184" data-name="Path 184" d="M182.964,156.993c.167.013.11,1.072.3,2.294s.714,2.114.585,2.206c-.1.1-.915-.749-1.12-2.119A3.522,3.522,0,0,1,182.964,156.993Z" transform="translate(-182.66 -156.993)" fill="#263238"/>
                </g>
              </g>
            </g>
          </g>
          <g id="Group_540" data-name="Group 540" transform="translate(3.62 26.695)">
            <g id="Group_535" data-name="Group 535">
              <g id="Group_534" data-name="Group 534">
                <g id="Group_533" data-name="Group 533">
                  <path id="Path_185" data-name="Path 185" d="M184.626,172.9c-.148-.072-5.992-2.051-6.055,3.994s6.02,4.861,6.033,4.688S184.626,172.9,184.626,172.9Z" transform="translate(-178.571 -172.529)" fill="#ffbe9d"/>
                </g>
              </g>
            </g>
            <g id="Group_539" data-name="Group 539" transform="translate(1.534 1.944)">
              <g id="Group_538" data-name="Group 538">
                <g id="Group_537" data-name="Group 537">
                  <g id="Group_536" data-name="Group 536">
                    <path id="Path_186" data-name="Path 186" d="M182.448,178.846c-.027-.019-.107.073-.286.152a1.049,1.049,0,0,1-.787.009,2.607,2.607,0,0,1-1.182-2.352,3.472,3.472,0,0,1,.31-1.5,1.213,1.213,0,0,1,.8-.8.535.535,0,0,1,.618.3c.079.17.04.29.072.3.017.015.13-.1.084-.35a.668.668,0,0,0-.234-.381.789.789,0,0,0-.581-.16,1.479,1.479,0,0,0-1.11.925,3.584,3.584,0,0,0-.382,1.682,2.733,2.733,0,0,0,1.51,2.626,1.129,1.129,0,0,0,.964-.149C182.435,178.992,182.469,178.857,182.448,178.846Z" transform="translate(-179.772 -174.051)" fill="#eb996e"/>
                  </g>
                </g>
              </g>
            </g>
          </g>
        </g>
        <g id="Group_588" data-name="Group 588" transform="translate(0 58.798)">
          <g id="Group_581" data-name="Group 581">
            <g id="Group_542" data-name="Group 542">
              <path id="Path_187" data-name="Path 187" d="M216.753,206.038c4.44.25,11.9.855,26.631,9.464,3.216,1.88,36.261,24.067,36.261,24.067L265.012,258.3,238.071,243.12l3.629,32.259,4.038,38.359-65.283-.829-1.63-38.525-.552-26.2-4.142,34.976L148.315,280.7l7.121-46.088a30.712,30.712,0,0,1,6.8-15.333c4.44-5.192,10.111-8.343,16.587-10.686a54.445,54.445,0,0,1,12.168-2.223l-.212-7.709s11.611,1.086,14.7,8.543c0,0,3.851-8.816,11.309-9.544Z" transform="translate(-148.315 -197.663)" fill="#f99746"/>
            </g>
            <g id="Group_544" data-name="Group 544" transform="translate(38.028 9.371)">
              <g id="Group_543" data-name="Group 543">
                <path id="Path_188" data-name="Path 188" d="M191.028,309.193c-.084.05-.971-1.2-1.786-3.814a34.753,34.753,0,0,1-1.1-11.415c.072-2.414.271-5.04.39-7.835a69.981,69.981,0,0,0-.172-8.876,169.846,169.846,0,0,0-3.506-20.182,120.39,120.39,0,0,1-3.013-20.542c-.161-6.428.378-12.1.079-16.825a34.594,34.594,0,0,0-2.145-10.915c-.971-2.458-1.81-3.694-1.672-3.786.084-.068,1.153,1.027,2.383,3.472a31.265,31.265,0,0,1,2.841,11.127c.485,4.846.089,10.607.35,16.852a130.672,130.672,0,0,0,3.128,20.2,151.739,151.739,0,0,1,3.387,20.453,67,67,0,0,1-.008,9.109c-.227,2.8-.438,5.421-.632,7.815a39.326,39.326,0,0,0,.443,11.152C190.551,307.766,191.187,309.119,191.028,309.193Z" transform="translate(-178.086 -205)" fill="#fafafa"/>
              </g>
            </g>
            <g id="Group_546" data-name="Group 546" transform="translate(64.751 10.367)">
              <g id="Group_545" data-name="Group 545">
                <path id="Path_189" data-name="Path 189" d="M212.124,310.839c-.137.009-.367-1.463-.665-4.126-.293-2.73-.7-6.567-1.208-11.281-1.007-9.522-2.511-22.662-4.648-37.106-1.064-7.226-2.174-14.094-3.248-20.331s-2.1-11.869-2.659-16.655a82.448,82.448,0,0,1-.674-11.39c.065-2.7.287-4.176.41-4.17.313.009.119,5.943,1.662,15.366.734,4.713,1.893,10.285,3.072,16.523s2.345,13.118,3.413,20.366c2.143,14.491,3.43,27.7,4.078,37.274.331,4.787.508,8.667.579,11.35S212.262,310.83,212.124,310.839Z" transform="translate(-199.007 -205.779)" fill="#fafafa"/>
              </g>
            </g>
            <g id="Group_548" data-name="Group 548" transform="translate(76.206 9.552)">
              <g id="Group_547" data-name="Group 547">
                <path id="Path_190" data-name="Path 190" d="M208.183,205.141c.161,0,.216,1.493.646,4.128a85.011,85.011,0,0,0,2.791,10.982c.687,2.308,1.469,4.842,2.117,7.64a64.824,64.824,0,0,1,1.4,9.049c.575,6.422.494,13.426.9,20.739.734,14.651,2.174,27.88,3.135,37.465.49,4.791.876,8.673,1.1,11.362s.281,4.183.144,4.2-.456-1.445-.915-4.1-1.058-6.514-1.727-11.292c-1.321-9.551-2.988-22.8-3.727-37.535-.4-7.373-.272-14.4-.736-20.686a67.8,67.8,0,0,0-1.182-8.845c-.561-2.74-1.258-5.279-1.859-7.613a63.761,63.761,0,0,1-2.2-11.27C207.859,206.641,208.069,205.136,208.183,205.141Z" transform="translate(-207.976 -205.141)" fill="#fafafa"/>
              </g>
            </g>
            <g id="Group_550" data-name="Group 550" transform="translate(64.028 2.07)">
              <g id="Group_549" data-name="Group 549">
                <path id="Path_191" data-name="Path 191" d="M200.53,206.395c-.572-.092-.648-1.77-1.125-3.482s-1.277-3.189-.834-3.564c.207-.171.683-.008,1.245.5a5.594,5.594,0,0,1,1.524,5.482C201.121,206.049,200.8,206.435,200.53,206.395Z" transform="translate(-198.442 -199.284)" fill="#fafafa"/>
              </g>
            </g>
            <g id="Group_552" data-name="Group 552" transform="translate(44.211 2.032)">
              <g id="Group_551" data-name="Group 551">
                <path id="Path_192" data-name="Path 192" d="M184.236,207.08c-.244.1-.688-.276-1.007-1.1a5.778,5.778,0,0,1,1.719-6.2c.7-.54,1.27-.631,1.428-.422.323.462-.8,1.815-1.309,3.795C184.485,205.111,184.75,206.849,184.236,207.08Z" transform="translate(-182.927 -199.254)" fill="#fafafa"/>
              </g>
            </g>
            <g id="Group_554" data-name="Group 554" transform="translate(50.317 10.672)">
              <g id="Group_553" data-name="Group 553">
                <path id="Path_193" data-name="Path 193" d="M203.318,310.175c-.176-.033.146-1.493,0-4.118a40.323,40.323,0,0,0-2.533-10.841c-.76-2.252-1.672-4.722-2.451-7.458s-1.477-5.679-2.072-8.8c-1.2-6.255-2-13.173-2.915-20.4-1.81-14.476-3.339-27.593-4.345-37.1-.5-4.753-.878-8.6-1.091-11.27s-.266-4.15-.129-4.167.45,1.433.9,4.07,1.036,6.462,1.719,11.192c1.365,9.462,3.115,22.551,4.925,37.027.921,7.237,1.662,14.137,2.744,20.317.538,3.091,1.153,6,1.86,8.7.69,2.69,1.516,5.163,2.2,7.467a35.388,35.388,0,0,1,1.966,11.26C204,308.781,203.408,310.206,203.318,310.175Z" transform="translate(-187.708 -206.018)" fill="#fafafa"/>
              </g>
            </g>
            <g id="Group_556" data-name="Group 556" transform="translate(32.761 42.482)">
              <g id="Group_555" data-name="Group 555">
                <path id="Path_194" data-name="Path 194" d="M180.49,301.829c-.284.018-.77-3.941-1.5-10.335s-1.738-15.227-2.767-25-1.752-18.667-2.054-25.112-.245-10.443.019-10.456c.286-.015.723,3.948,1.388,10.349.682,6.484,1.608,15.284,2.631,25.013,1.027,9.772,1.827,18.646,2.188,25.089S180.756,301.812,180.49,301.829Z" transform="translate(-173.963 -230.922)" fill="#fafafa"/>
              </g>
            </g>
            <g id="Group_558" data-name="Group 558" transform="translate(4.417 13.263)">
              <g id="Group_557" data-name="Group 557">
                <path id="Path_195" data-name="Path 195" d="M151.827,278.1c-.268-.065.479-4.254,1.9-10.975s3.528-15.972,5.969-26.161l3.52-14.349c1.072-4.39,2.2-8.473,3.993-11.556a15.774,15.774,0,0,1,5.747-6.017c1.744-.966,2.864-1.072,2.889-.966.054.155-.961.516-2.468,1.618a16.789,16.789,0,0,0-4.924,6.032c-1.526,2.97-2.472,6.881-3.45,11.318-1.036,4.431-2.173,9.285-3.366,14.385-2.442,10.189-4.762,19.389-6.537,26.025S152.094,278.167,151.827,278.1Z" transform="translate(-151.773 -208.046)" fill="#fafafa"/>
              </g>
            </g>
            <g id="Group_560" data-name="Group 560" transform="translate(16.868 18.551)">
              <g id="Group_559" data-name="Group 559">
                <path id="Path_196" data-name="Path 196" d="M179.628,212.2c.109.126-.6.777-1.344,2.322a34.537,34.537,0,0,0-2.359,6.88l-1.192,4.948c-.4,1.769-.729,3.7-1.151,5.744a38.408,38.408,0,0,1-1.811,6.387,66.753,66.753,0,0,1-3,6.4c-1.1,2.124-2.192,4.173-3.051,6.181a29.728,29.728,0,0,0-1.684,6.032,85.438,85.438,0,0,0-1.1,10.809c-.264,6.219-.174,10.1-.473,10.114-.25.018-.843-3.834-.938-10.139a69.311,69.311,0,0,1,.7-11.091,29.76,29.76,0,0,1,1.694-6.481c.89-2.145,1.988-4.219,3.082-6.339s2.132-4.168,2.952-6.2a39.36,39.36,0,0,0,1.834-6.062c.462-2,.858-3.934,1.34-5.742s.963-3.428,1.442-4.946a26.689,26.689,0,0,1,3.048-6.886C178.619,212.6,179.574,212.1,179.628,212.2Z" transform="translate(-161.521 -212.186)" fill="#fafafa"/>
              </g>
            </g>
            <g id="Group_562" data-name="Group 562" transform="translate(87.659 22.297)">
              <g id="Group_561" data-name="Group 561">
                <path id="Path_197" data-name="Path 197" d="M254.706,241.485c-.1.24-2.622-.6-6.322-2.681a80.8,80.8,0,0,1-13.5-9.571c-2.458-2.206-4.439-4.5-6.435-6.375a37.124,37.124,0,0,0-5.565-4.559c-3.431-2.234-6.024-2.756-5.938-3.094.024-.12.7-.139,1.876.1a17.251,17.251,0,0,1,4.777,1.781,31.123,31.123,0,0,1,6.1,4.428c2.12,1.857,4.193,4.158,6.513,6.233a131.331,131.331,0,0,0,12.911,9.857C252.573,239.953,254.825,241.221,254.706,241.485Z" transform="translate(-216.942 -215.119)" fill="#fafafa"/>
              </g>
            </g>
            <g id="Group_564" data-name="Group 564" transform="translate(89.42 36.847)">
              <g id="Group_563" data-name="Group 563">
                <path id="Path_198" data-name="Path 198" d="M248.228,246.928c-.163.231-1.952-.743-4.767-2.408s-6.683-3.988-10.908-6.674a102.593,102.593,0,0,1-10.478-7.461c-2.537-2.119-3.911-3.651-3.74-3.849.186-.22,1.87.917,4.583,2.718s6.5,4.232,10.709,6.909,7.988,5.2,10.617,7.182S248.384,246.711,248.228,246.928Z" transform="translate(-218.321 -226.51)" fill="#fafafa"/>
              </g>
            </g>
            <g id="Group_566" data-name="Group 566" transform="translate(28.617 12.45)">
              <g id="Group_565" data-name="Group 565">
                <path id="Path_199" data-name="Path 199" d="M170.722,207.415c.009-.02.148.024.409.129a8.033,8.033,0,0,1,1.1.542,11.963,11.963,0,0,1,3.347,3.014,15.881,15.881,0,0,1,2.813,6.061,22.235,22.235,0,0,1,.192,8.172,45.839,45.839,0,0,1-2.009,7.9c-.8,2.368-1.592,4.468-2.21,6.245s-1.083,3.224-1.381,4.233a9.562,9.562,0,0,1-.5,1.561,7.019,7.019,0,0,1,.262-1.623c.225-1.033.622-2.514,1.192-4.315,1.079-3.611,3.14-8.451,4.013-14.1a22.421,22.421,0,0,0-.133-7.949,16.038,16.038,0,0,0-2.6-5.919A14.521,14.521,0,0,0,170.722,207.415Z" transform="translate(-170.719 -207.41)" fill="#263238"/>
              </g>
            </g>
            <g id="Group_568" data-name="Group 568" transform="translate(85.693 12.941)">
              <g id="Group_567" data-name="Group 567">
                <path id="Path_200" data-name="Path 200" d="M220.272,247.474a7.3,7.3,0,0,1-.267-1.553c-.143-1.133-.322-2.556-.535-4.25-.452-3.725-1.046-8.618-1.7-14.028s-1.252-10.3-1.705-14.029c-.2-1.694-.377-3.118-.515-4.251a7.43,7.43,0,0,1-.128-1.57,7.344,7.344,0,0,1,.376,1.531c.192,1,.441,2.438.718,4.227.554,3.578,1.229,8.531,1.894,14.015s1.192,10.451,1.517,14.057c.161,1.8.272,3.262.331,4.274A7.469,7.469,0,0,1,220.272,247.474Z" transform="translate(-215.403 -207.794)" fill="#263238"/>
              </g>
            </g>
            <g id="Group_570" data-name="Group 570" transform="translate(42.576 6.201)">
              <g id="Group_569" data-name="Group 569">
                <path id="Path_201" data-name="Path 201" d="M194.036,202.923a3.074,3.074,0,0,0-2.177.285A3.69,3.69,0,0,0,190.317,205a9.2,9.2,0,0,0-.487,1.385c-.066.254-.134.51-.2.769a1.952,1.952,0,0,1-.413.892.888.888,0,0,1-.574.277,1.194,1.194,0,0,1-.544-.1c-.287-.125-.5-.236-.746-.354l-1.365-.671-2.3-1.17a8.875,8.875,0,0,1-2.045-1.226,8.781,8.781,0,0,1,2.24.815l2.355,1.045,1.382.637.711.33c.229.084.313.074.415-.026a5.273,5.273,0,0,0,.471-1.39,8.772,8.772,0,0,1,.559-1.468,3.97,3.97,0,0,1,1.869-1.94,2.672,2.672,0,0,1,1.807-.209C193.881,202.717,194.055,202.894,194.036,202.923Z" transform="translate(-181.647 -202.518)" fill="#263238"/>
              </g>
            </g>
            <g id="Group_572" data-name="Group 572" transform="translate(59.337 5.655)">
              <g id="Group_571" data-name="Group 571">
                <path id="Path_202" data-name="Path 202" d="M204.036,204.335c.1.134-2.109,1.966-5.035,4.183l-.418.316-.091-.519c-.037-.211-.077-.433-.116-.659a7.679,7.679,0,0,0-1.888-4.444,6.836,6.836,0,0,0-1.718-1.084c-.022-.068.93-.144,2.021.745a5.27,5.27,0,0,1,1.432,1.908,11.359,11.359,0,0,1,.787,2.762c.04.229.078.453.114.665l-.508-.2C201.56,205.813,203.935,204.2,204.036,204.335Z" transform="translate(-194.769 -202.091)" fill="#263238"/>
              </g>
            </g>
            <g id="Group_574" data-name="Group 574" transform="translate(3.338 78.955)">
              <g id="Group_573" data-name="Group 573">
                <path id="Path_203" data-name="Path 203" d="M172.331,264.886a18.907,18.907,0,0,1-3.124-.87c-1.908-.588-4.552-1.368-7.5-2.111s-5.652-1.3-7.612-1.686a18.9,18.9,0,0,1-3.164-.71,14.238,14.238,0,0,1,3.239.261,75.088,75.088,0,0,1,15.185,3.815A14.269,14.269,0,0,1,172.331,264.886Z" transform="translate(-150.928 -259.475)" fill="#263238"/>
              </g>
            </g>
            <g id="Group_576" data-name="Group 576" transform="translate(5.432 76.297)">
              <g id="Group_575" data-name="Group 575">
                <path id="Path_204" data-name="Path 204" d="M152.568,257.412a14,14,0,0,1,3.087.635c1.88.489,4.459,1.253,7.259,2.233,1.4.489,2.726.986,3.92,1.46a19.528,19.528,0,0,1,3.127,1.45c1.755,1.053,2.145,2.405,2.058,2.394a7,7,0,0,0-2.286-2,23.986,23.986,0,0,0-3.109-1.288l-3.921-1.406c-2.788-.976-5.333-1.8-7.176-2.4A16.885,16.885,0,0,1,152.568,257.412Z" transform="translate(-152.568 -257.395)" fill="#263238"/>
              </g>
            </g>
            <g id="Group_578" data-name="Group 578" transform="translate(118.731 40.527)">
              <g id="Group_577" data-name="Group 577">
                <path id="Path_205" data-name="Path 205" d="M241.277,244.548a10.169,10.169,0,0,1,1.1-2.479,57.518,57.518,0,0,1,7.383-10.76,10.1,10.1,0,0,1,1.919-1.915c.144.128-2.525,3.266-5.385,7.451S241.448,244.637,241.277,244.548Z" transform="translate(-241.268 -229.391)" fill="#263238"/>
              </g>
            </g>
            <g id="Group_580" data-name="Group 580" transform="translate(116.803 40.846)">
              <g id="Group_579" data-name="Group 579">
                <path id="Path_206" data-name="Path 206" d="M239.767,241.451a7.611,7.611,0,0,1,1.133-2.235,27.152,27.152,0,0,1,8.549-8.458,7.608,7.608,0,0,1,2.247-1.109c.106.175-3.244,2.025-6.544,5.316C241.826,238.227,239.94,241.559,239.767,241.451Z" transform="translate(-239.759 -229.64)" fill="#263238"/>
              </g>
            </g>
          </g>
          <g id="Group_583" data-name="Group 583" transform="translate(57.736 16.992)">
            <g id="Group_582" data-name="Group 582">
              <path id="Path_207" data-name="Path 207" d="M206.7,312.235a6.005,6.005,0,0,1-.172-1.026q-.14-1.1-.37-2.953c-.308-2.634-.741-6.332-1.271-10.871-1.063-9.18-2.53-21.861-4.273-35.852s-3.444-26.649-4.816-35.785c-.7-4.565-1.253-8.263-1.691-10.809q-.291-1.843-.465-2.939a6.232,6.232,0,0,1-.119-1.033,5.9,5.9,0,0,1,.25,1.008l.588,2.919c.517,2.534,1.141,6.223,1.9,10.782,1.492,9.125,3.271,21.775,5.01,35.775s3.138,26.69,4.081,35.884c.443,4.55.8,8.255,1.061,10.9q.153,1.86.245,2.967A6.172,6.172,0,0,1,206.7,312.235Z" transform="translate(-193.516 -210.966)" fill="#263238"/>
            </g>
          </g>
          <g id="Group_585" data-name="Group 585" transform="translate(62.489 37.255)">
            <g id="Group_584" data-name="Group 584">
              <path id="Path_208" data-name="Path 208" d="M197.293,228.1c-.078.022-.171-.535.45-1.018a1.274,1.274,0,0,1,1.328-.116,1.4,1.4,0,0,1,.766,1.468,1.351,1.351,0,0,1-1.288,1.059,1.112,1.112,0,0,1-1.1-.8,1.038,1.038,0,0,1,.093-.867c.119-.175.236-.212.264-.183.073.055-.166.409.08.879a.618.618,0,0,0,.627.36.776.776,0,0,0,.664-.568.838.838,0,0,0-.4-.807.817.817,0,0,0-.793-.02C197.5,227.717,197.388,228.123,197.293,228.1Z" transform="translate(-197.237 -226.83)" fill="#263238"/>
            </g>
          </g>
          <g id="Group_587" data-name="Group 587" transform="translate(66.348 59.513)">
            <g id="Group_586" data-name="Group 586">
              <path id="Path_209" data-name="Path 209" d="M200.315,245.525c-.079.022-.172-.535.448-1.018a1.274,1.274,0,0,1,1.328-.116,1.4,1.4,0,0,1,.766,1.468,1.349,1.349,0,0,1-1.288,1.059,1.111,1.111,0,0,1-1.1-.8,1.043,1.043,0,0,1,.093-.867c.12-.175.236-.212.264-.183.073.055-.165.409.08.879a.62.62,0,0,0,.628.36.774.774,0,0,0,.663-.568.833.833,0,0,0-.4-.807.817.817,0,0,0-.793-.02C200.521,245.142,200.41,245.548,200.315,245.525Z" transform="translate(-200.258 -244.255)" fill="#263238"/>
            </g>
          </g>
        </g>
        <g id="Group_659" data-name="Group 659" transform="translate(34.953 377.625)">
          <g id="Group_657" data-name="Group 657">
            <g id="Group_656" data-name="Group 656">
              <g id="Group_592" data-name="Group 592" transform="translate(0.106)">
                <g id="Group_591" data-name="Group 591">
                  <g id="Group_590" data-name="Group 590">
                    <g id="Group_589" data-name="Group 589">
                      <path id="Path_210" data-name="Path 210" d="M197.337,458.646l-.259-11.378-21.316.349.2,16.65,1.322.064c5.888.23,29.951.756,33.863-.5C215.515,462.429,197.337,458.646,197.337,458.646Z" transform="translate(-175.762 -447.268)" fill="#f99746"/>
                    </g>
                  </g>
                </g>
              </g>
              <g id="Group_595" data-name="Group 595" transform="translate(0.309 13.542)" opacity="0.4">
                <g id="Group_594" data-name="Group 594">
                  <g id="Group_593" data-name="Group 593">
                    <path id="Path_211" data-name="Path 211" d="M206.179,457.87s6.378,1.727,5.6,2.785-25.111,1.442-35.861.672l.026-.476,28.392-.206S204.939,457.942,206.179,457.87Z" transform="translate(-175.921 -457.87)" fill="#fff"/>
                  </g>
                </g>
              </g>
              <g id="Group_599" data-name="Group 599" transform="translate(0 15.962)">
                <g id="Group_598" data-name="Group 598">
                  <g id="Group_597" data-name="Group 597">
                    <g id="Group_596" data-name="Group 596">
                      <path id="Path_212" data-name="Path 212" d="M175.679,460.317a1.931,1.931,0,0,0,.367.033l1.054.047,3.877.106c3.275.066,7.8.1,12.795.023s9.52-.243,12.791-.407l3.872-.221,1.051-.079a.184.184,0,1,0,0-.052l-1.054.031-3.874.139c-3.271.119-7.792.255-12.787.332s-9.515.072-12.789.052L177.1,460.3l-1.055,0A1.917,1.917,0,0,0,175.679,460.317Z" transform="translate(-175.679 -459.765)" fill="#263238"/>
                    </g>
                  </g>
                </g>
              </g>
              <g id="Group_603" data-name="Group 603" transform="translate(28.685 13.277)">
                <g id="Group_602" data-name="Group 602">
                  <g id="Group_601" data-name="Group 601">
                    <g id="Group_600" data-name="Group 600">
                      <path id="Path_213" data-name="Path 213" d="M198.177,461.033a5.638,5.638,0,0,1,1.993-3.365,3.447,3.447,0,0,0-1.993,3.365Z" transform="translate(-198.136 -457.662)" fill="#263238"/>
                    </g>
                  </g>
                </g>
              </g>
              <g id="Group_607" data-name="Group 607" transform="translate(22.375 11.762)">
                <g id="Group_606" data-name="Group 606">
                  <g id="Group_605" data-name="Group 605">
                    <g id="Group_604" data-name="Group 604">
                      <path id="Path_214" data-name="Path 214" d="M193.207,458.271c.061.037.356-.333.659-.829s.5-.926.439-.963-.356.333-.659.829S193.146,458.234,193.207,458.271Z" transform="translate(-193.196 -456.476)" fill="#263238"/>
                    </g>
                  </g>
                </g>
              </g>
              <g id="Group_611" data-name="Group 611" transform="translate(20.641 11.448)">
                <g id="Group_610" data-name="Group 610">
                  <g id="Group_609" data-name="Group 609">
                    <g id="Group_608" data-name="Group 608">
                      <path id="Path_215" data-name="Path 215" d="M191.844,457.454c.049.052.381-.177.743-.513s.616-.65.567-.7-.382.178-.743.513S191.8,457.4,191.844,457.454Z" transform="translate(-191.838 -456.23)" fill="#263238"/>
                    </g>
                  </g>
                </g>
              </g>
              <g id="Group_615" data-name="Group 615" transform="translate(19.524 10.542)">
                <g id="Group_614" data-name="Group 614">
                  <g id="Group_613" data-name="Group 613">
                    <g id="Group_612" data-name="Group 612">
                      <path id="Path_216" data-name="Path 216" d="M190.964,455.655a4.87,4.87,0,0,0,2.226-.01,2.53,2.53,0,0,0-1.114-.124A2.5,2.5,0,0,0,190.964,455.655Z" transform="translate(-190.964 -455.521)" fill="#263238"/>
                    </g>
                  </g>
                </g>
              </g>
              <g id="Group_619" data-name="Group 619" transform="translate(19.126 9.24)">
                <g id="Group_618" data-name="Group 618">
                  <g id="Group_617" data-name="Group 617">
                    <g id="Group_616" data-name="Group 616">
                      <path id="Path_217" data-name="Path 217" d="M190.653,454.525a3.138,3.138,0,0,0,2.525.151,103.911,103.911,0,0,1-2.525-.151Z" transform="translate(-190.652 -454.502)" fill="#263238"/>
                    </g>
                  </g>
                </g>
              </g>
              <g id="Group_623" data-name="Group 623" transform="translate(23.08 9.726)">
                <g id="Group_622" data-name="Group 622">
                  <g id="Group_621" data-name="Group 621">
                    <g id="Group_620" data-name="Group 620">
                      <path id="Path_218" data-name="Path 218" d="M193.748,456.841a3.916,3.916,0,0,0,1.371-.031,7.95,7.95,0,0,0,1.452-.344,3.961,3.961,0,0,0,.829-.358.736.736,0,0,0,.333-.43.54.54,0,0,0-.217-.544,2.513,2.513,0,0,0-3.095.784,2.446,2.446,0,0,0-.432.921.756.756,0,0,0-.029.37,3.866,3.866,0,0,1,.605-1.179,2.471,2.471,0,0,1,1.157-.778,2.12,2.12,0,0,1,1.635.084c.22.158.139.415-.1.563a4.024,4.024,0,0,1-.764.341,9.461,9.461,0,0,1-1.405.39C194.269,456.79,193.747,456.8,193.748,456.841Z" transform="translate(-193.748 -454.882)" fill="#263238"/>
                    </g>
                  </g>
                </g>
              </g>
              <g id="Group_627" data-name="Group 627" transform="translate(21.614 9.117)">
                <g id="Group_626" data-name="Group 626">
                  <g id="Group_625" data-name="Group 625">
                    <g id="Group_624" data-name="Group 624">
                      <path id="Path_219" data-name="Path 219" d="M194.423,457.036a1.355,1.355,0,0,0,.143-.953,2.246,2.246,0,0,0-.39-1,1.377,1.377,0,0,0-1.152-.681.547.547,0,0,0-.413.64,1.517,1.517,0,0,0,.243.608,4.209,4.209,0,0,0,.66.819,1.969,1.969,0,0,0,.793.542c.023-.033-.277-.241-.662-.669a4.726,4.726,0,0,1-.586-.812c-.193-.287-.33-.8.013-.872.342-.038.7.3.911.567a2.249,2.249,0,0,1,.4.884A5,5,0,0,1,194.423,457.036Z" transform="translate(-192.601 -454.406)" fill="#263238"/>
                    </g>
                  </g>
                </g>
              </g>
              <g id="Group_631" data-name="Group 631" transform="translate(0.344 10.514)">
                <g id="Group_630" data-name="Group 630">
                  <g id="Group_629" data-name="Group 629">
                    <g id="Group_628" data-name="Group 628">
                      <path id="Path_220" data-name="Path 220" d="M175.948,455.66c.005.049.609-.068,1.575.031a6.685,6.685,0,0,1,5.653,4.362c.34.909.381,1.523.428,1.516a1.2,1.2,0,0,0-.005-.43,5.666,5.666,0,0,0-.252-1.146,6.478,6.478,0,0,0-5.811-4.483,5.586,5.586,0,0,0-1.171.049A1.252,1.252,0,0,0,175.948,455.66Z" transform="translate(-175.948 -455.499)" fill="#263238"/>
                    </g>
                  </g>
                </g>
              </g>
              <g id="Group_635" data-name="Group 635" transform="translate(2.297 1.77)">
                <g id="Group_634" data-name="Group 634">
                  <g id="Group_633" data-name="Group 633">
                    <g id="Group_632" data-name="Group 632">
                      <path id="Path_221" data-name="Path 221" d="M177.593,448.654a74.808,74.808,0,0,0,.027,8.761,74.076,74.076,0,0,0-.027-8.761Z" transform="translate(-177.477 -448.654)" fill="#263238"/>
                    </g>
                  </g>
                </g>
              </g>
              <g id="Group_639" data-name="Group 639" transform="translate(10.685 14.519)">
                <g id="Group_638" data-name="Group 638">
                  <g id="Group_637" data-name="Group 637">
                    <g id="Group_636" data-name="Group 636">
                      <path id="Path_222" data-name="Path 222" d="M184.044,458.7a17.479,17.479,0,0,0,6.229-.038c-.008-.075-1.4.032-3.115.04S184.05,458.626,184.044,458.7Z" transform="translate(-184.044 -458.635)" fill="#263238"/>
                    </g>
                  </g>
                </g>
              </g>
              <g id="Group_643" data-name="Group 643" transform="translate(6.497 14.636)">
                <g id="Group_642" data-name="Group 642">
                  <g id="Group_641" data-name="Group 641">
                    <g id="Group_640" data-name="Group 640">
                      <path id="Path_223" data-name="Path 223" d="M180.775,458.735c-.051.052.119.293.266.611s.229.6.3.593.1-.339-.069-.7S180.82,458.683,180.775,458.735Z" transform="translate(-180.766 -458.726)" fill="#263238"/>
                    </g>
                  </g>
                </g>
              </g>
              <g id="Group_647" data-name="Group 647" transform="translate(4.891 12.699)">
                <g id="Group_646" data-name="Group 646">
                  <g id="Group_645" data-name="Group 645">
                    <g id="Group_644" data-name="Group 644">
                      <path id="Path_224" data-name="Path 224" d="M179.518,457.22c-.05.051.091.271.316.491s.446.358.5.307-.091-.271-.316-.49S179.568,457.169,179.518,457.22Z" transform="translate(-179.508 -457.21)" fill="#263238"/>
                    </g>
                  </g>
                </g>
              </g>
              <g id="Group_651" data-name="Group 651" transform="translate(2.633 11.722)">
                <g id="Group_650" data-name="Group 650">
                  <g id="Group_649" data-name="Group 649">
                    <g id="Group_648" data-name="Group 648">
                      <path id="Path_225" data-name="Path 225" d="M177.741,456.573c.017.073.3.065.614.171s.543.268.6.218-.128-.341-.519-.465S177.718,456.508,177.741,456.573Z" transform="translate(-177.74 -456.445)" fill="#263238"/>
                    </g>
                  </g>
                </g>
              </g>
              <g id="Group_655" data-name="Group 655" transform="translate(1.02 11.402)">
                <g id="Group_654" data-name="Group 654">
                  <g id="Group_653" data-name="Group 653">
                    <g id="Group_652" data-name="Group 652">
                      <path id="Path_226" data-name="Path 226" d="M176.481,456.245c-.024.068.1.175.278.24s.342.065.367,0-.1-.175-.277-.24S176.506,456.179,176.481,456.245Z" transform="translate(-176.478 -456.195)" fill="#263238"/>
                    </g>
                  </g>
                </g>
              </g>
            </g>
          </g>
          <g id="Group_658" data-name="Group 658" transform="translate(0.172 6.848)" opacity="0.3">
            <path id="Path_227" data-name="Path 227" d="M176,455.885l21.289-.69-.074-2.566-21.405,1.909Z" transform="translate(-175.814 -452.629)"/>
          </g>
        </g>
        <g id="Group_730" data-name="Group 730" transform="translate(84.4 377.847)">
          <g id="Group_728" data-name="Group 728">
            <g id="Group_727" data-name="Group 727">
              <g id="Group_663" data-name="Group 663" transform="translate(0.023)">
                <g id="Group_662" data-name="Group 662">
                  <g id="Group_661" data-name="Group 661">
                    <g id="Group_660" data-name="Group 660">
                      <path id="Path_228" data-name="Path 228" d="M236.039,458.819l-.317-11.377-21.313.46.289,16.649,1.323.056c5.887.2,29.953.6,33.859-.676C254.237,462.507,236.039,458.819,236.039,458.819Z" transform="translate(-214.409 -447.442)" fill="#f99746"/>
                    </g>
                  </g>
                </g>
              </g>
              <g id="Group_666" data-name="Group 666" transform="translate(0.312 13.494)" opacity="0.4">
                <g id="Group_665" data-name="Group 665">
                  <g id="Group_664" data-name="Group 664">
                    <path id="Path_229" data-name="Path 229" d="M244.876,458.006s6.387,1.7,5.616,2.758-25.1,1.571-35.857.857l.023-.478,28.39-.353S243.635,458.085,244.876,458.006Z" transform="translate(-214.635 -458.006)" fill="#fff"/>
                  </g>
                </g>
              </g>
              <g id="Group_670" data-name="Group 670" transform="translate(0 15.887)">
                <g id="Group_669" data-name="Group 669">
                  <g id="Group_668" data-name="Group 668">
                    <g id="Group_667" data-name="Group 667">
                      <path id="Path_230" data-name="Path 230" d="M214.391,460.617a1.894,1.894,0,0,0,.368.032l1.053.042,3.878.086c3.274.049,7.8.057,12.795-.043s9.519-.291,12.789-.473l3.87-.243,1.051-.083a2.041,2.041,0,0,0,.365-.047,2.006,2.006,0,0,0-.369-.005l-1.054.036-3.873.16c-3.271.134-7.79.3-12.785.4s-9.515.121-12.789.119l-3.877,0-1.055.008A1.942,1.942,0,0,0,214.391,460.617Z" transform="translate(-214.391 -459.88)" fill="#263238"/>
                    </g>
                  </g>
                </g>
              </g>
              <g id="Group_674" data-name="Group 674" transform="translate(28.684 13.229)">
                <g id="Group_673" data-name="Group 673">
                  <g id="Group_672" data-name="Group 672">
                    <g id="Group_671" data-name="Group 671">
                      <path id="Path_231" data-name="Path 231" d="M236.889,461.18a5.637,5.637,0,0,1,1.975-3.375,3.445,3.445,0,0,0-1.975,3.375Z" transform="translate(-236.847 -457.799)" fill="#263238"/>
                    </g>
                  </g>
                </g>
              </g>
              <g id="Group_678" data-name="Group 678" transform="translate(22.36 11.751)">
                <g id="Group_677" data-name="Group 677">
                  <g id="Group_676" data-name="Group 676">
                    <g id="Group_675" data-name="Group 675">
                      <path id="Path_232" data-name="Path 232" d="M231.907,458.442c.061.037.354-.336.654-.832s.5-.929.434-.966-.354.335-.655.832S231.846,458.4,231.907,458.442Z" transform="translate(-231.896 -456.642)" fill="#263238"/>
                    </g>
                  </g>
                </g>
              </g>
              <g id="Group_682" data-name="Group 682" transform="translate(20.62 11.445)">
                <g id="Group_681" data-name="Group 681">
                  <g id="Group_680" data-name="Group 680">
                    <g id="Group_679" data-name="Group 679">
                      <path id="Path_233" data-name="Path 233" d="M230.54,457.632c.049.051.381-.18.741-.517s.612-.654.563-.705-.381.179-.741.516S230.492,457.58,230.54,457.632Z" transform="translate(-230.534 -456.402)" fill="#263238"/>
                    </g>
                  </g>
                </g>
              </g>
              <g id="Group_686" data-name="Group 686" transform="translate(19.493 10.545)">
                <g id="Group_685" data-name="Group 685">
                  <g id="Group_684" data-name="Group 684">
                    <g id="Group_683" data-name="Group 683">
                      <path id="Path_234" data-name="Path 234" d="M229.652,455.839a4.893,4.893,0,0,0,2.226-.022,4.844,4.844,0,0,0-2.226.022Z" transform="translate(-229.652 -455.698)" fill="#263238"/>
                    </g>
                  </g>
                </g>
              </g>
              <g id="Group_690" data-name="Group 690" transform="translate(19.088 9.252)">
                <g id="Group_689" data-name="Group 689">
                  <g id="Group_688" data-name="Group 688">
                    <g id="Group_687" data-name="Group 687">
                      <path id="Path_235" data-name="Path 235" d="M229.335,454.708a3.127,3.127,0,0,0,2.527.138,90.1,90.1,0,0,1-2.527-.138Z" transform="translate(-229.334 -454.685)" fill="#263238"/>
                    </g>
                  </g>
                </g>
              </g>
              <g id="Group_694" data-name="Group 694" transform="translate(23.054 9.703)">
                <g id="Group_693" data-name="Group 693">
                  <g id="Group_692" data-name="Group 692">
                    <g id="Group_691" data-name="Group 691">
                      <path id="Path_236" data-name="Path 236" d="M232.44,457.011a3.923,3.923,0,0,0,1.371-.037,8.017,8.017,0,0,0,1.451-.351,3.971,3.971,0,0,0,.826-.361.738.738,0,0,0,.331-.433.538.538,0,0,0-.22-.543,2.509,2.509,0,0,0-3.09.8,2.452,2.452,0,0,0-.428.923.763.763,0,0,0-.028.37,3.867,3.867,0,0,1,.6-1.182,2.461,2.461,0,0,1,1.153-.784,2.125,2.125,0,0,1,1.635.077c.221.156.142.414-.1.563a4.17,4.17,0,0,1-.764.345,9.365,9.365,0,0,1-1.4.4C232.961,456.958,232.439,456.969,232.44,457.011Z" transform="translate(-232.44 -455.038)" fill="#263238"/>
                    </g>
                  </g>
                </g>
              </g>
              <g id="Group_698" data-name="Group 698" transform="translate(21.579 9.113)">
                <g id="Group_697" data-name="Group 697">
                  <g id="Group_696" data-name="Group 696">
                    <g id="Group_695" data-name="Group 695">
                      <path id="Path_237" data-name="Path 237" d="M233.117,457.2a1.347,1.347,0,0,0,.138-.954,2.262,2.262,0,0,0-.395-.994,1.378,1.378,0,0,0-1.155-.674.546.546,0,0,0-.409.642,1.5,1.5,0,0,0,.245.607,4.18,4.18,0,0,0,.664.815,1.979,1.979,0,0,0,.8.538c.023-.033-.279-.24-.666-.665a4.894,4.894,0,0,1-.59-.81c-.194-.286-.333-.8.009-.872.341-.04.7.294.913.563a2.226,2.226,0,0,1,.406.881A5.061,5.061,0,0,1,233.117,457.2Z" transform="translate(-231.285 -454.576)" fill="#263238"/>
                    </g>
                  </g>
                </g>
              </g>
              <g id="Group_702" data-name="Group 702" transform="translate(0.313 10.616)">
                <g id="Group_701" data-name="Group 701">
                  <g id="Group_700" data-name="Group 700">
                    <g id="Group_699" data-name="Group 699">
                      <path id="Path_238" data-name="Path 238" d="M214.636,455.922c.006.047.609-.072,1.575.022a6.68,6.68,0,0,1,5.676,4.333c.344.907.388,1.521.436,1.514a1.207,1.207,0,0,0-.008-.43,5.649,5.649,0,0,0-.257-1.145,6.478,6.478,0,0,0-5.834-4.453,5.6,5.6,0,0,0-1.171.054A1.188,1.188,0,0,0,214.636,455.922Z" transform="translate(-214.636 -455.753)" fill="#263238"/>
                    </g>
                  </g>
                </g>
              </g>
              <g id="Group_706" data-name="Group 706" transform="translate(2.238 1.869)">
                <g id="Group_705" data-name="Group 705">
                  <g id="Group_704" data-name="Group 704">
                    <g id="Group_703" data-name="Group 703">
                      <path id="Path_239" data-name="Path 239" d="M216.241,448.9a74.081,74.081,0,0,0,.073,8.761,74.058,74.058,0,0,0-.073-8.761Z" transform="translate(-216.143 -448.905)" fill="#263238"/>
                    </g>
                  </g>
                </g>
              </g>
              <g id="Group_710" data-name="Group 710" transform="translate(10.675 14.544)">
                <g id="Group_709" data-name="Group 709">
                  <g id="Group_708" data-name="Group 708">
                    <g id="Group_707" data-name="Group 707">
                      <path id="Path_240" data-name="Path 240" d="M222.748,458.924a17.522,17.522,0,0,0,6.229-.07c-.009-.075-1.4.04-3.115.056S222.754,458.85,222.748,458.924Z" transform="translate(-222.748 -458.828)" fill="#263238"/>
                    </g>
                  </g>
                </g>
              </g>
              <g id="Group_714" data-name="Group 714" transform="translate(6.487 14.712)">
                <g id="Group_713" data-name="Group 713">
                  <g id="Group_712" data-name="Group 712">
                    <g id="Group_711" data-name="Group 711">
                      <path id="Path_241" data-name="Path 241" d="M219.479,458.969c-.051.052.12.293.268.609s.232.6.307.591.1-.34-.073-.7S219.524,458.917,219.479,458.969Z" transform="translate(-219.47 -458.96)" fill="#263238"/>
                    </g>
                  </g>
                </g>
              </g>
              <g id="Group_718" data-name="Group 718" transform="translate(4.871 12.784)">
                <g id="Group_717" data-name="Group 717">
                  <g id="Group_716" data-name="Group 716">
                    <g id="Group_715" data-name="Group 715">
                      <path id="Path_242" data-name="Path 242" d="M218.214,457.461c-.049.051.093.271.318.489s.448.355.5.3-.092-.271-.318-.489S218.264,457.41,218.214,457.461Z" transform="translate(-218.205 -457.451)" fill="#263238"/>
                    </g>
                  </g>
                </g>
              </g>
              <g id="Group_722" data-name="Group 722" transform="translate(2.608 11.817)">
                <g id="Group_721" data-name="Group 721">
                  <g id="Group_720" data-name="Group 720">
                    <g id="Group_719" data-name="Group 719">
                      <path id="Path_243" data-name="Path 243" d="M216.434,456.823c.017.073.3.064.616.167s.544.266.6.216-.129-.34-.521-.462S216.411,456.758,216.434,456.823Z" transform="translate(-216.433 -456.694)" fill="#263238"/>
                    </g>
                  </g>
                </g>
              </g>
              <g id="Group_726" data-name="Group 726" transform="translate(0.995 11.507)">
                <g id="Group_725" data-name="Group 725">
                  <g id="Group_724" data-name="Group 724">
                    <g id="Group_723" data-name="Group 723">
                      <path id="Path_244" data-name="Path 244" d="M215.173,456.5c-.024.066.1.174.278.238s.342.064.367,0-.1-.175-.278-.239S215.2,456.435,215.173,456.5Z" transform="translate(-215.17 -456.451)" fill="#263238"/>
                    </g>
                  </g>
                </g>
              </g>
            </g>
          </g>
          <g id="Group_729" data-name="Group 729" transform="translate(0.132 6.847)" opacity="0.3">
            <path id="Path_245" data-name="Path 245" d="M214.692,456.168l21.285-.8-.088-2.566-21.4,2.02Z" transform="translate(-214.495 -452.802)"/>
          </g>
        </g>
        <g id="Group_737" data-name="Group 737" transform="translate(31.134 170.571)">
          <g id="Group_732" data-name="Group 732">
            <g id="Group_731" data-name="Group 731">
              <path id="Path_246" data-name="Path 246" d="M172.689,285.169V500.7h33.6l2.973-186.936L221.044,500.7h33.6L239.612,288.81Z" transform="translate(-172.689 -285.169)" fill="#263238"/>
            </g>
          </g>
          <g id="Group_734" data-name="Group 734" transform="translate(36.357 1.615)">
            <g id="Group_733" data-name="Group 733">
              <path id="Path_247" data-name="Path 247" d="M204.224,286.433a18.608,18.608,0,0,1,.282,3.468c.092,2.143.174,5.1.225,8.375.017,1.627.031,3.177.045,4.615a8.255,8.255,0,0,1-.7,3.782,4.412,4.412,0,0,1-1.91,1.952,1.9,1.9,0,0,1-1.015.28c-.017-.049.35-.133.881-.47a4.425,4.425,0,0,0,1.626-1.924,8.388,8.388,0,0,0,.522-3.617c-.031-1.437-.061-2.985-.1-4.61-.051-3.271-.061-6.233-.036-8.378A18.707,18.707,0,0,1,204.224,286.433Z" transform="translate(-201.153 -286.433)" fill="#455a64"/>
            </g>
          </g>
          <g id="Group_736" data-name="Group 736" transform="translate(32.46 3.742)">
            <g id="Group_735" data-name="Group 735">
              <path id="Path_248" data-name="Path 248" d="M199.042,288.413c.06.069-.45.337-.464,1.035a1.09,1.09,0,0,0,.48.964,1.3,1.3,0,0,0,1.348-.088.875.875,0,0,0,.074-1.52,1.523,1.523,0,0,0-1.355-.29l-.019-.226c.277.126.416.215.4.257s-.188.033-.492-.023l-.27-.05.252-.178a1.747,1.747,0,0,1,1.825.133,1.466,1.466,0,0,1,.686,1.093,1.429,1.429,0,0,1-.724,1.271,1.908,1.908,0,0,1-2.082.045,1.424,1.424,0,0,1-.576-1.427,1.342,1.342,0,0,1,.533-.874C198.875,288.394,199.027,288.384,199.042,288.413Z" transform="translate(-198.102 -288.098)" fill="#455a64"/>
            </g>
          </g>
        </g>
        <g id="Group_738" data-name="Group 738" transform="translate(0.234 129.006)">
          <path id="Path_249" data-name="Path 249" d="M236.621,256.226c-.884-1.152-11.5.677-11.5.677L229,253.967c-1.971-3.5-8.791.734-10.959,2.783a3.99,3.99,0,0,0-1.074,2.109l-42.812,9.033-23.9-2.436s-.478,4.123-1.678,11.9c-1.133,7.35,10.958,14.559,18.448,13.505,6.849-.963,48.694-12.861,55.814-14.894h0l1.036-.3-.018-.047c2.309-.793,7.825-2.769,8.4-3.767.731-1.265.531-11.178.531-11.178l3.932-1.732A2.815,2.815,0,0,0,236.621,256.226Z" transform="translate(-148.498 -252.628)" fill="#ffbe9d"/>
        </g>
      </g>
    </g>
  </g>
</svg>
