<svg xmlns="http://www.w3.org/2000/svg" width="658.411" height="505.761" viewBox="0 0 658.411 505.761">
  <g id="RIGHT_OBJECT_" data-name="RIGHT OBJECT " transform="translate(-951.589 -4087.178)">
    <g id="Background_Complete" data-name="Background Complete" transform="translate(951.589 4087.178)">
      <g id="Group_1" data-name="Group 1" transform="translate(0 16.287)">
        <rect id="Rectangle_1" data-name="Rectangle 1" width="656.822" height="0.328" transform="translate(0 430.147)" fill="#ebebeb"/>
        <rect id="Rectangle_2" data-name="Rectangle 2" width="43.511" height="0.328" transform="translate(547.5 451.291)" fill="#ebebeb"/>
        <rect id="Rectangle_3" data-name="Rectangle 3" width="11.42" height="0.328" transform="translate(423.686 454.856)" fill="#ebebeb"/>
        <rect id="Rectangle_4" data-name="Rectangle 4" width="25.212" height="0.328" transform="translate(520.973 439.093)" fill="#ebebeb"/>
        <rect id="Rectangle_5" data-name="Rectangle 5" width="56.741" height="0.328" transform="translate(68.912 441.3)" fill="#ebebeb"/>
        <rect id="Rectangle_6" data-name="Rectangle 6" width="8.319" height="0.328" transform="translate(137.349 441.3)" fill="#ebebeb"/>
        <rect id="Rectangle_7" data-name="Rectangle 7" width="123.057" height="0.328" transform="translate(172.707 446.846)" fill="#ebebeb"/>
        <path id="Path_1" data-name="Path 1" d="M299.369,426.514H45.705a7.507,7.507,0,0,1-7.5-7.5V62.45a7.506,7.506,0,0,1,7.5-7.5H299.369a7.506,7.506,0,0,1,7.5,7.5V419.015A7.507,7.507,0,0,1,299.369,426.514ZM45.705,55.281a7.177,7.177,0,0,0-7.17,7.169V419.015a7.177,7.177,0,0,0,7.17,7.17H299.369a7.177,7.177,0,0,0,7.169-7.17V62.45a7.177,7.177,0,0,0-7.169-7.169Z" transform="translate(11.983 -54.953)" fill="#ebebeb"/>
        <path id="Path_2" data-name="Path 2" d="M515.664,426.514H262a7.506,7.506,0,0,1-7.5-7.5V62.45a7.505,7.505,0,0,1,7.5-7.5H515.664a7.507,7.507,0,0,1,7.5,7.5V419.015A7.508,7.508,0,0,1,515.664,426.514ZM262,55.281a7.177,7.177,0,0,0-7.169,7.169V419.015a7.177,7.177,0,0,0,7.169,7.17H515.664a7.178,7.178,0,0,0,7.171-7.17V62.45a7.178,7.178,0,0,0-7.171-7.169Z" transform="translate(79.824 -54.953)" fill="#ebebeb"/>
      </g>
      <g id="Group_4" data-name="Group 4" transform="translate(75.21 0)">
        <g id="Group_2" data-name="Group 2">
          <path id="Path_3" data-name="Path 3" d="M376.81,337.333H69.188A11.821,11.821,0,0,1,57.279,324.6L74.668,55.286A13.818,13.818,0,0,1,88.221,42.555H395.844a11.822,11.822,0,0,1,11.908,12.731L390.363,324.6A13.818,13.818,0,0,1,376.81,337.333Z" transform="translate(-57.253 -42.555)" fill="#e0e0e0"/>
          <path id="Path_4" data-name="Path 4" d="M61.395,318.674,77.752,65.334a9.793,9.793,0,0,1,9.634-9.05H391.763a8.38,8.38,0,0,1,8.465,9.05l-16.358,253.34a9.793,9.793,0,0,1-9.634,9.05H69.86A8.381,8.381,0,0,1,61.395,318.674Z" transform="translate(-55.96 -38.249)" fill="#fafafa"/>
          <path id="Path_5" data-name="Path 5" d="M188.224,222.656H94.435l9.827-159.08h93.789Z" transform="translate(-45.591 -35.962)" fill="#f5f5f5"/>
          <path id="Path_6" data-name="Path 6" d="M286.733,177.548H220.78l6.91-111.865h65.952Z" transform="translate(-5.963 -35.301)" fill="#f5f5f5"/>
          <path id="Path_7" data-name="Path 7" d="M391.686,42.555H84.063A13.818,13.818,0,0,0,70.51,55.286H403.594A11.822,11.822,0,0,0,391.686,42.555Z" transform="translate(-53.095 -42.555)" fill="#f5f5f5"/>
          <path id="Path_8" data-name="Path 8" d="M88.021,48.137a3.341,3.341,0,0,1-3.287,3.087,2.859,2.859,0,0,1-2.889-3.087,3.341,3.341,0,0,1,3.287-3.087A2.86,2.86,0,0,1,88.021,48.137Z" transform="translate(-49.541 -41.772)" fill="#fff"/>
          <path id="Path_9" data-name="Path 9" d="M99.467,48.137a3.341,3.341,0,0,1-3.287,3.087,2.86,2.86,0,0,1-2.889-3.087,3.341,3.341,0,0,1,3.287-3.087A2.859,2.859,0,0,1,99.467,48.137Z" transform="translate(-45.951 -41.772)" fill="#fff"/>
          <path id="Path_10" data-name="Path 10" d="M110.913,48.137a3.341,3.341,0,0,1-3.287,3.087,2.858,2.858,0,0,1-2.887-3.087,3.34,3.34,0,0,1,3.285-3.087A2.858,2.858,0,0,1,110.913,48.137Z" transform="translate(-42.361 -41.772)" fill="#fff"/>
        </g>
        <g id="Group_3" data-name="Group 3" transform="translate(80.342 52.292)">
          <path id="Path_11" data-name="Path 11" d="M514.1,447.371H133.191a14.639,14.639,0,0,1-14.746-15.764L139.977,98.126a17.11,17.11,0,0,1,16.782-15.764H537.671a14.638,14.638,0,0,1,14.746,15.764L530.885,431.608A17.109,17.109,0,0,1,514.1,447.371Z" transform="translate(-118.412 -82.362)" fill="#f5f5f5"/>
          <path id="Path_12" data-name="Path 12" d="M123.542,424.267l20.254-313.7a12.126,12.126,0,0,1,11.929-11.205H532.618A10.377,10.377,0,0,1,543.1,110.567l-20.255,313.7a12.124,12.124,0,0,1-11.928,11.205H134.023A10.376,10.376,0,0,1,123.542,424.267Z" transform="translate(-116.81 -77.03)" fill="#fff"/>
          <path id="Path_13" data-name="Path 13" d="M328.037,310.5H211.9l12.168-196.98H340.205Z" transform="translate(-89.089 -72.591)" fill="#f5f5f5"/>
          <path id="Path_14" data-name="Path 14" d="M394.62,349.259H312.954l8.556-138.516h81.665Z" transform="translate(-57.395 -42.096)" fill="#f5f5f5"/>
          <path id="Path_15" data-name="Path 15" d="M532.522,82.362H151.61a17.11,17.11,0,0,0-16.782,15.764H547.269A14.64,14.64,0,0,0,532.522,82.362Z" transform="translate(-113.263 -82.362)" fill="#e0e0e0"/>
          <path id="Path_16" data-name="Path 16" d="M156.51,89.275a4.137,4.137,0,0,1-4.07,3.823,3.54,3.54,0,0,1-3.576-3.823,4.137,4.137,0,0,1,4.07-3.823A3.54,3.54,0,0,1,156.51,89.275Z" transform="translate(-108.863 -81.393)" fill="#fff"/>
          <path id="Path_17" data-name="Path 17" d="M170.683,89.275a4.137,4.137,0,0,1-4.07,3.823,3.54,3.54,0,0,1-3.576-3.823,4.137,4.137,0,0,1,4.07-3.823A3.54,3.54,0,0,1,170.683,89.275Z" transform="translate(-104.418 -81.393)" fill="#fff"/>
          <path id="Path_18" data-name="Path 18" d="M184.856,89.275a4.135,4.135,0,0,1-4.07,3.823,3.54,3.54,0,0,1-3.576-3.823,4.137,4.137,0,0,1,4.07-3.823A3.54,3.54,0,0,1,184.856,89.275Z" transform="translate(-99.972 -81.393)" fill="#fff"/>
        </g>
      </g>
    </g>
    <g id="Shadow" transform="translate(975.299 4563.189)">
      <ellipse id="_Path_" data-name="&lt;Path&gt;" cx="317.351" cy="14.875" rx="317.351" ry="14.875" transform="translate(0 0)" fill="#e0e0e0"/>
    </g>
    <g id="Screens" transform="translate(1189.019 4133.194)">
      <g id="Group_26" data-name="Group 26" transform="translate(0 0)">
        <g id="Group_8" data-name="Group 8" transform="translate(248.471 25.119)">
          <g id="Group_6" data-name="Group 6">
            <path id="Path_21" data-name="Path 21" d="M443.357,221.32H369.888l7.7-124.614h73.469Z" transform="translate(-369.888 -96.706)" fill="#407bff"/>
            <path id="Path_22" data-name="Path 22" d="M443.357,221.32H369.888l7.7-124.614h73.469Z" transform="translate(-369.888 -96.706)" fill="#c6d4e2" opacity="0.6"/>
          </g>
          <g id="Group_7" data-name="Group 7" transform="translate(7.571 17.983)">
            <path id="Path_23" data-name="Path 23" d="M419.262,164.826H387.494l.342-5.536H419.6Z" transform="translate(-371.937 -95.06)" fill="#484ce7" opacity="0.3"/>
            <path id="Path_24" data-name="Path 24" d="M418.837,171.7H387.069l.342-5.536h31.768Z" transform="translate(-372.07 -92.904)" fill="#484ce7" opacity="0.3"/>
            <ellipse id="Ellipse_1" data-name="Ellipse 1" cx="24.536" cy="23.066" rx="24.536" ry="23.066" transform="matrix(0.718, -0.696, 0.696, 0.718, 0, 34.159)" fill="#484ce7"/>
            <ellipse id="Ellipse_2" data-name="Ellipse 2" cx="17.714" cy="16.653" rx="17.714" ry="16.653" transform="matrix(0.718, -0.696, 0.696, 0.718, 9.362, 34.016)" fill="#fff"/>
          </g>
        </g>
        <g id="Group_11" data-name="Group 11" transform="translate(10.037)">
          <g id="Group_9" data-name="Group 9">
            <path id="Path_25" data-name="Path 25" d="M261.851,202.2H188.382l7.7-124.614h73.469Z" transform="translate(-188.382 -77.584)" fill="#407bff"/>
            <path id="Path_26" data-name="Path 26" d="M261.851,202.2H188.382l7.7-124.614h73.469Z" transform="translate(-188.382 -77.584)" fill="#c6d4e2" opacity="0.6"/>
          </g>
          <g id="Group_10" data-name="Group 10" transform="translate(7.905 9.739)">
            <path id="Path_27" data-name="Path 27" d="M255.823,135.938H196.94L200.086,85H258.97Z" transform="translate(-193.603 -84.998)" fill="#fff"/>
            <path id="Path_28" data-name="Path 28" d="M255.44,131.123H196.557l.3-4.815h58.884Z" transform="translate(-193.723 -72.041)" fill="#fff"/>
            <path id="Path_29" data-name="Path 29" d="M225.574,138H196.132l.3-4.815h29.442Z" transform="translate(-193.856 -69.885)" fill="#fff"/>
            <path id="Path_30" data-name="Path 30" d="M253.283,172.691H194.4l2.016-32.632H255.3Z" transform="translate(-194.399 -67.728)" fill="#484ce7"/>
            <path id="Path_31" data-name="Path 31" d="M232.85,106.823,215.8,96.618l-1.261,20.411Z" transform="translate(-188.081 -81.353)" fill="#484ce7"/>
          </g>
        </g>
        <g id="Group_14" data-name="Group 14" transform="translate(134.003 48.854)">
          <g id="Group_12" data-name="Group 12">
            <path id="Path_32" data-name="Path 32" d="M356.219,239.388H282.75l7.7-124.614h73.469Z" transform="translate(-282.75 -114.774)" fill="#407bff"/>
            <path id="Path_33" data-name="Path 33" d="M356.219,239.388H282.75l7.7-124.614h73.469Z" transform="translate(-282.75 -114.774)" fill="#c6d4e2" opacity="0.6"/>
          </g>
          <g id="Group_13" data-name="Group 13" transform="translate(9.695 12.682)">
            <path id="Path_34" data-name="Path 34" d="M336.425,127.177H293.436l.17-2.748h42.989Z" transform="translate(-289.093 -124.428)" fill="#484ce7" opacity="0.3"/>
            <path id="Path_35" data-name="Path 35" d="M352.03,131.867H293.146l.17-2.748H352.2Z" transform="translate(-289.184 -122.957)" fill="#484ce7" opacity="0.3"/>
            <path id="Path_36" data-name="Path 36" d="M351.74,136.559H292.856l.17-2.748h58.883Z" transform="translate(-289.275 -121.486)" fill="#484ce7" opacity="0.3"/>
            <path id="Path_37" data-name="Path 37" d="M350.967,150.829H292.084l.627-10.143h58.883Z" transform="translate(-289.517 -119.329)" fill="#fff"/>
            <path id="Path_38" data-name="Path 38" d="M350.307,161.512H291.424l.626-10.143h58.884Z" transform="translate(-289.724 -115.979)" fill="#fff"/>
            <path id="Path_39" data-name="Path 39" d="M349.661,171.983H290.777l.626-10.143h58.884Z" transform="translate(-289.927 -112.695)" fill="#484ce7" opacity="0.3"/>
            <path id="Path_40" data-name="Path 40" d="M349.014,182.454H290.13l.627-10.143H349.64Z" transform="translate(-290.13 -109.41)" fill="#fff"/>
            <path id="Path_41" data-name="Path 41" d="M327.667,204.231h-23.7a7.125,7.125,0,0,1-7.175-7.647h0a8.272,8.272,0,0,1,8.12-7.647h23.7a7.125,7.125,0,0,1,7.174,7.647h0A8.271,8.271,0,0,1,327.667,204.231Z" transform="translate(-288.044 -104.195)" fill="#484ce7"/>
          </g>
        </g>
        <g id="Group_17" data-name="Group 17" transform="translate(0 162.477)">
          <g id="Group_15" data-name="Group 15">
            <path id="Path_42" data-name="Path 42" d="M254.21,325.882H180.741l7.7-124.614h73.469Z" transform="translate(-180.741 -201.269)" fill="#407bff"/>
            <path id="Path_43" data-name="Path 43" d="M254.21,325.882H180.741l7.7-124.614h73.469Z" transform="translate(-180.741 -201.269)" fill="#c6d4e2" opacity="0.6"/>
          </g>
          <g id="Group_16" data-name="Group 16" transform="translate(7.863 6.034)">
            <path id="Path_44" data-name="Path 44" d="M217.35,232.2H190.67l1.627-26.339h26.68Z" transform="translate(-185.491 -205.862)" fill="#fff"/>
            <path id="Path_45" data-name="Path 45" d="M245.559,293.153H186.727l.884-14.312h58.832Z" transform="translate(-186.727 -182.973)" fill="#484ce7" opacity="0.3"/>
            <path id="Path_46" data-name="Path 46" d="M241.786,232.2h-26.68l1.627-26.339h26.681Z" transform="translate(-177.827 -205.862)" fill="#fff"/>
            <path id="Path_47" data-name="Path 47" d="M215.857,256.377h-26.68l1.627-26.339h26.68Z" transform="translate(-185.959 -198.28)" fill="#fff"/>
            <path id="Path_48" data-name="Path 48" d="M240.292,256.377h-26.68l1.627-26.339h26.68Z" transform="translate(-178.295 -198.28)" fill="#484ce7"/>
            <path id="Path_49" data-name="Path 49" d="M214.363,280.552h-26.68l1.627-26.339h26.681Z" transform="translate(-186.428 -190.697)" fill="#484ce7" opacity="0.3"/>
            <path id="Path_50" data-name="Path 50" d="M238.8,280.552H212.118l1.627-26.339h26.68Z" transform="translate(-178.764 -190.697)" fill="#fff"/>
          </g>
        </g>
        <g id="Group_20" data-name="Group 20" transform="translate(237.555 201.844)">
          <g id="Group_18" data-name="Group 18">
            <path id="Path_51" data-name="Path 51" d="M435.047,355.85H361.578l7.7-124.614h73.469Z" transform="translate(-361.578 -231.236)" fill="#407bff"/>
            <path id="Path_52" data-name="Path 52" d="M435.047,355.85H361.578l7.7-124.614h73.469Z" transform="translate(-361.578 -231.236)" fill="#c6d4e2" opacity="0.6"/>
          </g>
          <g id="Group_19" data-name="Group 19" transform="translate(8.749 10.708)">
            <path id="Path_53" data-name="Path 53" d="M426.39,328.747H368.708l5.382-87.12h57.682Z" transform="translate(-368.09 -238.685)" fill="#fff"/>
            <path id="Path_55" data-name="Path 55" d="M378.138,316.61a5.332,5.332,0,0,1-5.251,4.945,4.6,4.6,0,0,1-4.64-4.945,5.333,5.333,0,0,1,5.251-4.945A4.6,4.6,0,0,1,378.138,316.61Z" transform="translate(-368.238 -216.718)" fill="#fff"/>
            <ellipse id="Ellipse_3" data-name="Ellipse 3" cx="5.1" cy="4.795" rx="5.1" ry="4.795" transform="matrix(0.718, -0.696, 0.696, 0.718, 16.019, 100)" fill="#fff"/>
            <path id="Path_13725" data-name="Path 13725" d="M5.1,0a4.954,4.954,0,0,1,5.1,4.795A4.954,4.954,0,0,1,5.1,9.589,4.954,4.954,0,0,1,0,4.795,4.954,4.954,0,0,1,5.1,0Z" transform="matrix(0.718, -0.696, 0.696, 0.718, 34.082, 100)" fill="#484ce7" opacity="0.3"/>
          </g>
        </g>
        <g id="Group_25" data-name="Group 25" transform="translate(77.702 34.891)">
          <g id="Group_21" data-name="Group 21" transform="translate(0 119.85)">
            <path id="Path_56" data-name="Path 56" d="M240.209,240.459a.319.319,0,0,1,0-.637c.208,0,.415,0,.62-.009h.012a.318.318,0,0,1,.012.636C240.64,240.457,240.424,240.459,240.209,240.459Z" transform="translate(-239.891 -181.444)" fill="#484ce7"/>
            <path id="Path_57" data-name="Path 57" d="M241.649,254.269a.318.318,0,0,1-.033-.634q.619-.065,1.22-.176a.313.313,0,0,1,.37.257.317.317,0,0,1-.256.369c-.418.076-.839.137-1.268.184Zm2.474-.449a.318.318,0,0,1-.079-.627q.6-.156,1.181-.353a.321.321,0,0,1,.4.2.317.317,0,0,1-.2.4c-.4.137-.812.26-1.227.367A.287.287,0,0,1,244.123,253.82Zm2.383-.807a.318.318,0,0,1-.125-.611c.38-.16.754-.332,1.123-.52a.319.319,0,0,1,.288.57q-.573.288-1.163.537A.318.318,0,0,1,246.506,253.014Zm2.249-1.127a.318.318,0,0,1-.162-.592c.356-.209.705-.428,1.054-.661a.319.319,0,1,1,.355.531c-.359.238-.719.465-1.085.679A.328.328,0,0,1,248.755,251.887Zm2.1-1.4a.319.319,0,0,1-.19-.574q.495-.368.976-.774a.322.322,0,0,1,.449.041.319.319,0,0,1-.042.449c-.33.275-.665.54-1,.795A.325.325,0,0,1,250.851,250.488Zm1.94-1.614a.318.318,0,0,1-.214-.553q.455-.418.9-.862a.319.319,0,1,1,.449.452q-.457.455-.925.88A.312.312,0,0,1,252.791,248.873Zm1.793-1.776a.319.319,0,0,1-.234-.536c.284-.3.564-.611.841-.93a.318.318,0,0,1,.479.419q-.424.485-.853.945A.319.319,0,0,1,254.585,247.1Zm1.666-1.9a.317.317,0,0,1-.247-.52c.264-.319.524-.645.784-.979a.318.318,0,1,1,.5.39q-.392.506-.793.993A.317.317,0,0,1,256.25,245.2ZM257.8,243.2a.316.316,0,0,1-.189-.062.32.32,0,0,1-.067-.447c.247-.334.493-.674.736-1.017a.319.319,0,1,1,.522.367c-.247.349-.494.691-.744,1.03A.318.318,0,0,1,257.8,243.2Zm1.459-2.062a.306.306,0,0,1-.177-.054.318.318,0,0,1-.087-.443c.235-.344.468-.695.7-1.047a.318.318,0,1,1,.533.348c-.233.356-.468.708-.7,1.056A.32.32,0,0,1,259.261,241.142Zm1.383-2.115a.318.318,0,0,1-.269-.487q.333-.532.665-1.071a.319.319,0,1,1,.544.332c-.223.364-.445.723-.67,1.077A.318.318,0,0,1,260.644,239.027Zm1.32-2.158a.317.317,0,0,1-.275-.481c.214-.359.426-.721.638-1.086a.318.318,0,1,1,.55.318q-.317.552-.64,1.094A.321.321,0,0,1,261.965,236.869Zm1.268-2.187a.3.3,0,0,1-.156-.041.317.317,0,0,1-.121-.434q.307-.548.617-1.1a.318.318,0,1,1,.556.31q-.307.556-.619,1.1A.317.317,0,0,1,263.232,234.682Zm1.23-2.208a.3.3,0,0,1-.154-.039.317.317,0,0,1-.126-.432c.2-.366.4-.737.6-1.107a.318.318,0,1,1,.561.3c-.2.373-.4.744-.6,1.114A.316.316,0,0,1,264.462,232.473Zm1.2-2.225a.309.309,0,0,1-.151-.037.317.317,0,0,1-.13-.431c.2-.369.391-.74.589-1.113a.319.319,0,0,1,.565.3q-.3.56-.592,1.115A.315.315,0,0,1,265.661,230.248Zm1.177-2.231a.328.328,0,0,1-.147-.035.318.318,0,0,1-.135-.43l.586-1.121a.318.318,0,0,1,.564.3l-.585,1.119A.318.318,0,0,1,266.838,228.018Zm1.169-2.242a.333.333,0,0,1-.148-.035.317.317,0,0,1-.134-.43l.585-1.124a.319.319,0,0,1,.565.3l-.586,1.123A.314.314,0,0,1,268.007,225.775Zm1.168-2.245a.328.328,0,0,1-.147-.035.316.316,0,0,1-.134-.43l.585-1.121a.319.319,0,0,1,.565.3l-.586,1.119A.318.318,0,0,1,269.175,223.53Zm1.176-2.24a.333.333,0,0,1-.148-.035.319.319,0,0,1-.134-.431l.592-1.118a.314.314,0,0,1,.43-.133.318.318,0,0,1,.133.431l-.59,1.117A.32.32,0,0,1,270.351,221.29Zm1.186-2.229a.315.315,0,0,1-.151-.038.321.321,0,0,1-.13-.432l.6-1.111a.318.318,0,1,1,.56.3l-.6,1.113A.32.32,0,0,1,271.537,219.061Zm1.212-2.219a.317.317,0,0,1-.278-.473c.2-.369.414-.738.62-1.1a.318.318,0,0,1,.554.313q-.309.548-.617,1.1A.319.319,0,0,1,272.75,216.842Zm1.247-2.2a.305.305,0,0,1-.159-.043.318.318,0,0,1-.117-.435q.317-.55.641-1.094a.319.319,0,0,1,.549.326c-.215.361-.427.723-.638,1.086A.317.317,0,0,1,274,214.643Zm1.29-2.174a.318.318,0,0,1-.272-.483q.333-.544.667-1.077a.319.319,0,0,1,.54.339q-.333.528-.663,1.069A.317.317,0,0,1,275.286,212.469Zm1.348-2.139a.307.307,0,0,1-.173-.051.318.318,0,0,1-.093-.44q.349-.536.7-1.057a.319.319,0,0,1,.529.356q-.353.518-.7,1.048A.315.315,0,0,1,276.634,210.331Zm1.416-2.091a.311.311,0,0,1-.183-.058.319.319,0,0,1-.078-.444q.367-.522.742-1.03a.319.319,0,1,1,.514.377c-.248.336-.493.674-.736,1.019A.316.316,0,0,1,278.05,208.239Zm1.5-2.032a.319.319,0,0,1-.252-.514q.394-.506.791-.994a.319.319,0,1,1,.5.4c-.261.321-.524.649-.783.981A.32.32,0,0,1,279.553,206.207Zm1.6-1.952a.317.317,0,0,1-.24-.527q.422-.483.851-.946a.321.321,0,0,1,.451-.016.317.317,0,0,1,.017.449c-.282.3-.564.613-.839.93A.312.312,0,0,1,281.154,204.255Zm1.722-1.844a.318.318,0,0,1-.225-.544q.455-.453.921-.881a.318.318,0,1,1,.431.469q-.457.42-.9.864A.316.316,0,0,1,282.876,202.411Zm1.859-1.7a.318.318,0,0,1-.2-.562c.328-.276.662-.54,1-.8a.319.319,0,0,1,.385.508c-.328.248-.654.507-.973.775A.321.321,0,0,1,284.735,200.707Zm2.012-1.519a.319.319,0,0,1-.177-.583c.355-.239.716-.466,1.08-.683a.325.325,0,0,1,.437.112.32.32,0,0,1-.112.437q-.532.313-1.05.663A.32.32,0,0,1,286.748,199.188Zm2.171-1.281a.318.318,0,0,1-.146-.6q.569-.29,1.157-.54a.318.318,0,1,1,.25.585q-.567.242-1.117.523A.316.316,0,0,1,288.919,197.908Zm2.309-.981a.319.319,0,0,1-.1-.62q.6-.207,1.226-.372a.312.312,0,0,1,.39.226.319.319,0,0,1-.226.39c-.4.106-.793.226-1.181.36A.363.363,0,0,1,291.229,196.926Zm2.433-.642a.319.319,0,0,1-.059-.632c.418-.078.842-.141,1.27-.189a.3.3,0,0,1,.352.281.319.319,0,0,1-.28.352c-.414.046-.821.106-1.224.183A.309.309,0,0,1,293.661,196.284Z" transform="translate(-239.44 -195.355)" fill="#484ce7"/>
            <path id="Path_58" data-name="Path 58" d="M283.21,196.026a.318.318,0,0,1-.01-.636c.213-.007.427-.01.642-.01a.318.318,0,0,1,0,.636c-.208,0-.416,0-.621.011Z" transform="translate(-226.404 -195.38)" fill="#484ce7"/>
          </g>
          <g id="Group_22" data-name="Group 22" transform="translate(130.747 41.534)">
            <path id="Path_59" data-name="Path 59" d="M339.739,194.083a.318.318,0,0,1,0-.636c.2,0,.406-.009.606-.026a.306.306,0,0,1,.344.29.316.316,0,0,1-.29.343C340.18,194.074,339.961,194.083,339.739,194.083Z" transform="translate(-339.421 -117.679)" fill="#484ce7"/>
            <path id="Path_60" data-name="Path 60" d="M341.175,211.872a.318.318,0,0,1-.079-.627,8.012,8.012,0,0,0,1.147-.388.318.318,0,0,1,.25.585,8.408,8.408,0,0,1-1.24.42A.312.312,0,0,1,341.175,211.872Zm2.319-.979a.318.318,0,0,1-.163-.591,11.092,11.092,0,0,0,1.021-.692.319.319,0,0,1,.385.508,11.475,11.475,0,0,1-1.08.73A.321.321,0,0,1,343.494,210.893Zm2.022-1.524a.319.319,0,0,1-.215-.553c.3-.275.592-.569.885-.878a.319.319,0,1,1,.465.436c-.3.322-.61.627-.92.91A.314.314,0,0,1,345.516,209.369Zm1.742-1.851a.318.318,0,0,1-.246-.521q.392-.475.775-.99a.318.318,0,1,1,.511.38c-.261.352-.527.692-.793,1.017A.32.32,0,0,1,347.257,207.518Zm1.52-2.044a.318.318,0,0,1-.264-.5q.347-.514.687-1.059a.319.319,0,1,1,.541.338c-.233.369-.465.73-.7,1.078A.32.32,0,0,1,348.777,205.474Zm1.35-2.162a.305.305,0,0,1-.16-.042.321.321,0,0,1-.116-.436q.313-.538.621-1.1a.318.318,0,1,1,.558.306q-.311.573-.628,1.119A.32.32,0,0,1,350.128,203.312Zm1.222-2.237a.313.313,0,0,1-.147-.034.318.318,0,0,1-.137-.43c.19-.37.382-.747.569-1.134a.319.319,0,1,1,.573.28q-.286.581-.574,1.147A.318.318,0,0,1,351.349,201.075Zm1.122-2.288a.324.324,0,0,1-.134-.029.317.317,0,0,1-.154-.423c.176-.381.353-.765.527-1.155a.318.318,0,1,1,.582.259q-.262.591-.532,1.165A.32.32,0,0,1,352.471,198.787Zm1.044-2.326a.3.3,0,0,1-.125-.026.317.317,0,0,1-.167-.418q.25-.579.5-1.172a.319.319,0,0,1,.589.247q-.248.6-.5,1.176A.319.319,0,0,1,353.516,196.46Zm.979-2.353a.292.292,0,0,1-.118-.024.316.316,0,0,1-.176-.414c.156-.39.313-.786.469-1.182a.318.318,0,0,1,.592.234q-.234.6-.472,1.186A.318.318,0,0,1,354.494,194.107Zm.931-2.374a.318.318,0,0,1-.3-.431q.225-.591.447-1.19a.324.324,0,0,1,.41-.189.319.319,0,0,1,.189.41q-.225.6-.451,1.2A.318.318,0,0,1,355.426,191.734Zm.891-2.39a.29.29,0,0,1-.109-.02.316.316,0,0,1-.189-.407l.432-1.2a.319.319,0,0,1,.6.217l-.436,1.2A.316.316,0,0,1,356.316,189.344Zm.859-2.4a.3.3,0,0,1-.105-.018.317.317,0,0,1-.194-.406l.418-1.2a.322.322,0,0,1,.406-.2.319.319,0,0,1,.2.406l-.42,1.2A.317.317,0,0,1,357.175,186.944Zm.833-2.409a.318.318,0,0,1-.3-.422l.407-1.206a.314.314,0,0,1,.4-.2.317.317,0,0,1,.2.4l-.407,1.209A.321.321,0,0,1,358.008,184.535Zm.813-2.416a.329.329,0,0,1-.1-.016.32.32,0,0,1-.2-.4l.4-1.21a.319.319,0,0,1,.606.2l-.4,1.21A.321.321,0,0,1,358.821,182.119Zm.8-2.421a.323.323,0,0,1-.1-.016.319.319,0,0,1-.2-.4l.4-1.207a.326.326,0,0,1,.4-.2.318.318,0,0,1,.2.4l-.4,1.21A.318.318,0,0,1,359.621,179.7Zm.787-2.42a.291.291,0,0,1-.1-.016.316.316,0,0,1-.2-.4l.393-1.212a.318.318,0,0,1,.606.194l-.393,1.215A.316.316,0,0,1,360.408,177.278Zm.786-2.429a.277.277,0,0,1-.1-.014.318.318,0,0,1-.206-.4l.393-1.218a.318.318,0,0,1,.606.2l-.393,1.218A.318.318,0,0,1,361.194,174.849Zm.784-2.43a.3.3,0,0,1-.1-.016.316.316,0,0,1-.2-.4l.393-1.212a.318.318,0,1,1,.606.2l-.393,1.213A.316.316,0,0,1,361.978,172.419Zm.786-2.425a.318.318,0,0,1-.3-.416l.4-1.211a.318.318,0,0,1,.606.2l-.4,1.211A.318.318,0,0,1,362.764,169.994Zm.8-2.422a.324.324,0,0,1-.1-.016.319.319,0,0,1-.2-.4l.4-1.211a.319.319,0,0,1,.606.2l-.4,1.21A.32.32,0,0,1,363.56,167.572Zm.8-2.418a.3.3,0,0,1-.1-.017.319.319,0,0,1-.2-.4l.41-1.209a.318.318,0,1,1,.6.2l-.41,1.207A.318.318,0,0,1,364.364,165.153Zm.824-2.413a.318.318,0,0,1-.3-.422l.422-1.207a.314.314,0,0,1,.4-.194.318.318,0,0,1,.2.406l-.419,1.2A.318.318,0,0,1,365.187,162.74Zm.845-2.407a.3.3,0,0,1-.106-.018.32.32,0,0,1-.193-.409c.143-.4.289-.8.433-1.2a.312.312,0,0,1,.409-.189.318.318,0,0,1,.189.409q-.217.593-.431,1.2A.32.32,0,0,1,366.032,160.334Zm.872-2.393a.328.328,0,0,1-.112-.02.321.321,0,0,1-.188-.411c.148-.4.3-.8.451-1.194a.318.318,0,1,1,.6.226q-.225.593-.448,1.191A.318.318,0,0,1,366.9,157.94Zm.909-2.384a.308.308,0,0,1-.117-.022.318.318,0,0,1-.18-.412c.158-.4.314-.795.473-1.186a.313.313,0,0,1,.414-.176.317.317,0,0,1,.176.414c-.156.389-.313.784-.47,1.182A.316.316,0,0,1,367.813,155.556Zm.955-2.363a.327.327,0,0,1-.122-.024.317.317,0,0,1-.172-.416q.246-.6.5-1.178a.318.318,0,0,1,.585.251q-.248.579-.5,1.172A.315.315,0,0,1,368.768,153.193Zm1.008-2.34a.32.32,0,0,1-.292-.448q.266-.593.533-1.165a.319.319,0,1,1,.577.271q-.264.567-.527,1.153A.319.319,0,0,1,369.776,150.853Zm1.078-2.309a.326.326,0,0,1-.139-.032.318.318,0,0,1-.146-.426c.189-.389.38-.77.573-1.147a.319.319,0,0,1,.567.293q-.288.556-.569,1.132A.318.318,0,0,1,370.854,148.544Zm1.168-2.267a.305.305,0,0,1-.152-.038.32.32,0,0,1-.127-.432q.311-.571.628-1.117a.318.318,0,1,1,.552.318q-.313.54-.62,1.1A.316.316,0,0,1,372.022,146.276Zm1.279-2.2a.326.326,0,0,1-.168-.047.319.319,0,0,1-.1-.439c.23-.372.462-.73.7-1.08a.318.318,0,0,1,.528.355q-.345.516-.684,1.061A.317.317,0,0,1,373.3,144.075Zm1.425-2.11a.314.314,0,0,1-.19-.062.32.32,0,0,1-.067-.445c.263-.353.527-.694.792-1.017a.319.319,0,0,1,.493.406q-.39.473-.771.99A.318.318,0,0,1,374.727,141.965Zm1.617-1.96a.318.318,0,0,1-.233-.536c.3-.322.606-.628.917-.912a.318.318,0,0,1,.431.469c-.3.275-.591.568-.883.879A.319.319,0,0,1,376.344,140Zm1.868-1.716a.317.317,0,0,1-.193-.57,11.563,11.563,0,0,1,1.072-.733.319.319,0,1,1,.328.546,10.912,10.912,0,0,0-1.014.692A.311.311,0,0,1,378.212,138.289Zm2.164-1.29a.318.318,0,0,1-.125-.611,8.684,8.684,0,0,1,1.241-.43.318.318,0,0,1,.162.616,8.257,8.257,0,0,0-1.152.4A.3.3,0,0,1,380.376,137Z" transform="translate(-338.971 -135.704)" fill="#484ce7"/>
            <path id="Path_61" data-name="Path 61" d="M372.915,136.424a.319.319,0,0,1-.026-.637c.218-.016.436-.025.658-.025a.318.318,0,1,1,0,.636c-.2,0-.406.009-.607.026Z" transform="translate(-329.016 -135.762)" fill="#484ce7"/>
          </g>
          <g id="Group_23" data-name="Group 23" transform="translate(130.589 119.85)">
            <path id="Path_62" data-name="Path 62" d="M340.251,196.053h-.037a4.94,4.94,0,0,0-.6-.035.318.318,0,1,1,0-.636,5.939,5.939,0,0,1,.67.037.319.319,0,0,1-.038.636Z" transform="translate(-339.301 -195.38)" fill="#484ce7"/>
            <path id="Path_63" data-name="Path 63" d="M370.364,299.581a.339.339,0,0,1-.112-.02,6.4,6.4,0,0,1-1.176-.591.319.319,0,1,1,.342-.539,5.7,5.7,0,0,0,1.057.532.319.319,0,0,1-.112.617Zm-2.106-1.316a.32.32,0,0,1-.213-.081,10.542,10.542,0,0,1-.9-.921.318.318,0,1,1,.479-.418,10.013,10.013,0,0,0,.849.864.321.321,0,0,1,.024.451A.316.316,0,0,1,368.258,298.265Zm-1.65-1.882a.32.32,0,0,1-.259-.131c-.24-.336-.476-.7-.705-1.075a.318.318,0,0,1,.544-.331c.222.367.447.709.679,1.033a.319.319,0,0,1-.074.445A.323.323,0,0,1,366.608,296.382ZM365.3,294.23a.317.317,0,0,1-.281-.169q-.292-.552-.571-1.148a.319.319,0,0,1,.578-.269q.27.581.556,1.119a.316.316,0,0,1-.133.43A.3.3,0,0,1,365.3,294.23Zm-1.077-2.29a.318.318,0,0,1-.293-.193q-.242-.575-.477-1.184a.319.319,0,1,1,.6-.229c.154.4.31.787.469,1.163a.316.316,0,0,1-.294.443Zm-.91-2.362a.32.32,0,0,1-.3-.213q-.207-.589-.409-1.206a.316.316,0,0,1,.2-.4.321.321,0,0,1,.4.2c.131.406.268.8.4,1.193a.317.317,0,0,1-.2.406A.293.293,0,0,1,363.309,289.579Zm-.787-2.4a.319.319,0,0,1-.3-.225c-.121-.4-.242-.809-.359-1.222a.319.319,0,1,1,.613-.175c.117.411.235.813.356,1.211a.321.321,0,0,1-.213.4A.325.325,0,0,1,362.522,287.175Zm-.695-2.438a.316.316,0,0,1-.307-.238c-.106-.4-.214-.812-.319-1.227a.318.318,0,1,1,.617-.156q.158.619.318,1.222a.319.319,0,0,1-.227.389A.288.288,0,0,1,361.827,284.737Zm-.619-2.453a.318.318,0,0,1-.311-.244q-.146-.613-.289-1.237a.318.318,0,0,1,.24-.381.322.322,0,0,1,.381.239c.095.415.192.824.289,1.231a.321.321,0,0,1-.236.385A.36.36,0,0,1,361.208,282.284Zm-.566-2.471a.319.319,0,0,1-.313-.251l-.263-1.24a.319.319,0,0,1,.247-.377.315.315,0,0,1,.377.246l.263,1.237a.319.319,0,0,1-.244.378A.3.3,0,0,1,360.642,279.813Zm-.516-2.479a.319.319,0,0,1-.313-.255c-.083-.412-.163-.826-.244-1.245a.319.319,0,1,1,.627-.121c.08.416.162.832.243,1.24a.319.319,0,0,1-.25.376A.338.338,0,0,1,360.126,277.334Zm-.478-2.487a.317.317,0,0,1-.313-.26c-.078-.412-.152-.83-.229-1.248a.319.319,0,1,1,.628-.113c.074.419.15.833.226,1.244a.319.319,0,0,1-.254.372A.309.309,0,0,1,359.647,274.847Zm-.447-2.493a.318.318,0,0,1-.314-.264l-.211-1.249a.318.318,0,0,1,.261-.368.325.325,0,0,1,.366.263l.212,1.247a.317.317,0,0,1-.26.368A.358.358,0,0,1,359.2,272.354Zm-.419-2.5a.316.316,0,0,1-.314-.268l-.2-1.252a.319.319,0,0,1,.629-.1l.2,1.251a.318.318,0,0,1-.264.365A.333.333,0,0,1,358.782,269.858Zm-.4-2.5a.314.314,0,0,1-.314-.269l-.193-1.253a.319.319,0,0,1,.632-.095l.189,1.251a.317.317,0,0,1-.265.364Zm-.378-2.505a.319.319,0,0,1-.315-.271l-.184-1.255a.318.318,0,0,1,.271-.36.305.305,0,0,1,.361.271l.183,1.249a.318.318,0,0,1-.268.363A.294.294,0,0,1,358.007,264.851Zm-.363-2.505a.319.319,0,0,1-.315-.273l-.177-1.253a.322.322,0,0,1,.272-.361.313.313,0,0,1,.36.271l.177,1.255a.319.319,0,0,1-.271.36A.278.278,0,0,1,357.644,262.346Zm-.351-2.508a.318.318,0,0,1-.315-.275l-.172-1.256a.319.319,0,0,1,.273-.359.313.313,0,0,1,.357.273l.172,1.253a.319.319,0,0,1-.272.36A.241.241,0,0,1,357.293,259.838Zm-.34-2.51a.317.317,0,0,1-.315-.276l-.167-1.256a.318.318,0,0,1,.275-.357.3.3,0,0,1,.357.275l.166,1.253a.318.318,0,0,1-.273.359A.217.217,0,0,1,356.953,257.327Zm-.332-2.509a.317.317,0,0,1-.315-.276l-.164-1.256a.318.318,0,0,1,.275-.357.3.3,0,0,1,.357.275l.164,1.256a.319.319,0,0,1-.276.357Zm-.328-2.512a.318.318,0,0,1-.315-.276l-.162-1.257a.317.317,0,0,1,.275-.356.309.309,0,0,1,.356.275l.163,1.256a.317.317,0,0,1-.276.356A.213.213,0,0,1,356.292,252.307Zm-.323-2.512a.317.317,0,0,1-.315-.277l-.162-1.256a.316.316,0,0,1,.275-.356.3.3,0,0,1,.356.275l.162,1.256a.316.316,0,0,1-.275.356A.213.213,0,0,1,355.969,249.795Zm-.323-2.512a.317.317,0,0,1-.315-.277l-.162-1.26a.316.316,0,0,1,.275-.356.3.3,0,0,1,.356.275l.162,1.26a.316.316,0,0,1-.275.356A.212.212,0,0,1,355.646,247.283Zm-.323-2.518a.317.317,0,0,1-.315-.277l-.163-1.256a.315.315,0,0,1,.275-.356.3.3,0,0,1,.356.275l.163,1.256a.316.316,0,0,1-.275.356A.219.219,0,0,1,355.323,244.765ZM355,242.256a.318.318,0,0,1-.315-.277l-.164-1.249a.317.317,0,0,1,.273-.357.307.307,0,0,1,.357.273l.164,1.252a.317.317,0,0,1-.275.356A.219.219,0,0,1,355,242.256Zm-.328-2.506a.317.317,0,0,1-.315-.276l-.168-1.255a.318.318,0,0,1,.273-.359.322.322,0,0,1,.357.273l.168,1.255a.318.318,0,0,1-.273.359A.226.226,0,0,1,354.67,239.749Zm-.339-2.509a.317.317,0,0,1-.315-.277c-.055-.419-.113-.835-.171-1.252a.319.319,0,0,1,.272-.36.313.313,0,0,1,.359.272c.058.418.116.837.171,1.257a.318.318,0,0,1-.275.357A.212.212,0,0,1,354.331,237.24Zm-.344-2.509a.319.319,0,0,1-.315-.275l-.177-1.253a.32.32,0,0,1,.271-.36.308.308,0,0,1,.361.271l.177,1.253a.321.321,0,0,1-.272.361A.255.255,0,0,1,353.987,234.731Zm-.356-2.509a.318.318,0,0,1-.315-.273l-.184-1.252a.319.319,0,0,1,.632-.092l.183,1.255a.318.318,0,0,1-.271.36A.263.263,0,0,1,353.631,232.222Zm-.37-2.505a.32.32,0,0,1-.317-.271l-.189-1.251a.315.315,0,0,1,.265-.363.305.305,0,0,1,.363.265l.193,1.253a.32.32,0,0,1-.268.363Zm-.388-2.5a.319.319,0,0,1-.315-.268l-.2-1.248a.319.319,0,0,1,.629-.1l.2,1.252a.318.318,0,0,1-.264.364A.333.333,0,0,1,352.873,227.216Zm-.409-2.5a.318.318,0,0,1-.314-.267l-.213-1.245a.319.319,0,0,1,.628-.11l.213,1.251a.319.319,0,0,1-.261.368A.368.368,0,0,1,352.464,224.716Zm-.434-2.495a.319.319,0,0,1-.314-.261q-.11-.629-.226-1.243a.319.319,0,1,1,.627-.118c.076.412.152.83.227,1.248a.318.318,0,0,1-.257.37A.424.424,0,0,1,352.031,222.222Zm-.46-2.489a.319.319,0,0,1-.314-.259c-.08-.416-.162-.832-.243-1.24a.319.319,0,0,1,.625-.126c.083.412.163.826.244,1.247a.32.32,0,0,1-.254.373A.309.309,0,0,1,351.571,219.732Zm-.5-2.485a.318.318,0,0,1-.313-.254c-.085-.416-.173-.828-.263-1.236a.319.319,0,0,1,.244-.38.315.315,0,0,1,.38.244c.088.41.177.825.263,1.243a.318.318,0,0,1-.247.376A.282.282,0,0,1,351.072,217.247Zm-.539-2.475a.317.317,0,0,1-.311-.247c-.095-.416-.19-.825-.288-1.23a.318.318,0,0,1,.619-.148c.1.406.194.818.29,1.236a.319.319,0,0,1-.31.389Zm-.594-2.462a.318.318,0,0,1-.309-.239c-.1-.414-.21-.82-.318-1.222a.319.319,0,0,1,.616-.164q.16.6.321,1.228a.317.317,0,0,1-.31.4Zm-.657-2.445a.318.318,0,0,1-.306-.231q-.175-.615-.357-1.209a.318.318,0,0,1,.212-.4.314.314,0,0,1,.4.212c.123.4.243.807.363,1.22a.319.319,0,0,1-.219.394A.331.331,0,0,1,349.283,209.865Zm-.741-2.424a.318.318,0,0,1-.3-.219c-.131-.4-.268-.8-.4-1.191a.318.318,0,1,1,.6-.213q.209.591.41,1.207a.318.318,0,0,1-.3.416Zm-.849-2.387a.318.318,0,0,1-.3-.2c-.154-.4-.31-.787-.47-1.163a.32.32,0,1,1,.589-.25q.242.575.477,1.185a.319.319,0,0,1-.184.411A.309.309,0,0,1,347.693,205.055Zm-.988-2.329a.318.318,0,0,1-.288-.183q-.274-.583-.558-1.118a.319.319,0,1,1,.562-.3q.292.55.573,1.147a.318.318,0,0,1-.154.424A.326.326,0,0,1,346.705,202.726Zm-1.191-2.233a.316.316,0,0,1-.272-.152c-.222-.367-.449-.709-.682-1.034a.319.319,0,1,1,.518-.372c.242.336.478.7.708,1.075a.318.318,0,0,1-.272.483Zm-1.478-2.043a.315.315,0,0,1-.239-.108,9.687,9.687,0,0,0-.858-.863.318.318,0,0,1,.422-.477,10.261,10.261,0,0,1,.914.92.317.317,0,0,1-.029.449A.313.313,0,0,1,344.036,198.45Zm-1.889-1.642a.314.314,0,0,1-.168-.047,5.58,5.58,0,0,0-1.055-.514.319.319,0,0,1,.218-.6,6.367,6.367,0,0,1,1.173.573.318.318,0,0,1-.168.589Z" transform="translate(-338.858 -195.302)" fill="#484ce7"/>
            <path id="Path_64" data-name="Path 64" d="M364.974,275.188a5.892,5.892,0,0,1-.667-.037.32.32,0,0,1-.281-.353.316.316,0,0,1,.353-.28,5.538,5.538,0,0,0,.6.034.318.318,0,1,1,0,.636Z" transform="translate(-331.547 -170.559)" fill="#484ce7"/>
          </g>
          <g id="Group_24" data-name="Group 24" transform="translate(11.008)">
            <path id="Path_65" data-name="Path 65" d="M249.223,104.8H249.2c-.2-.014-.406-.022-.611-.022a.318.318,0,1,1,0-.636c.221,0,.439.007.655.021a.319.319,0,0,1-.022.637Z" transform="translate(-248.271 -104.145)" fill="#484ce7"/>
            <path id="Path_66" data-name="Path 66" d="M292.424,221.809a.348.348,0,0,1-.072-.008,8.8,8.8,0,0,1-1.253-.39.318.318,0,1,1,.234-.592,8.027,8.027,0,0,0,1.163.361.319.319,0,0,1-.071.629Zm-2.346-.916a.316.316,0,0,1-.156-.041,10.935,10.935,0,0,1-1.093-.7.318.318,0,1,1,.374-.515,10.622,10.622,0,0,0,1.03.658.319.319,0,0,1-.155.6Zm-2.045-1.473a.31.31,0,0,1-.212-.081c-.309-.273-.619-.575-.925-.9a.318.318,0,0,1,.464-.436c.294.311.591.6.884.864a.315.315,0,0,1,.026.448A.319.319,0,0,1,288.032,219.421Zm-1.738-1.839a.317.317,0,0,1-.247-.117q-.4-.489-.78-1.026a.319.319,0,0,1,.519-.37c.247.347.5.678.757.994a.318.318,0,0,1-.248.519Zm-1.48-2.062a.312.312,0,0,1-.268-.147q-.341-.53-.67-1.1a.319.319,0,1,1,.552-.319q.321.556.654,1.075a.318.318,0,0,1-.268.49Zm-1.279-2.2a.317.317,0,0,1-.281-.168q-.3-.558-.583-1.145a.318.318,0,0,1,.571-.28q.284.577.574,1.125a.318.318,0,0,1-.281.469Zm-1.122-2.288a.319.319,0,0,1-.29-.188q-.258-.577-.514-1.173a.319.319,0,1,1,.587-.25q.25.591.508,1.161a.319.319,0,0,1-.16.422A.328.328,0,0,1,282.413,211.034Zm-.994-2.345a.317.317,0,0,1-.3-.2q-.233-.587-.458-1.2a.318.318,0,0,1,.6-.223q.227.6.456,1.186a.317.317,0,0,1-.18.412A.3.3,0,0,1,281.418,208.689Zm-.895-2.389a.316.316,0,0,1-.3-.212c-.142-.4-.281-.8-.419-1.211a.318.318,0,0,1,.6-.2c.138.406.275.805.416,1.2a.32.32,0,0,1-.194.407A.328.328,0,0,1,280.523,206.3Zm-.814-2.416a.321.321,0,0,1-.3-.219q-.191-.6-.381-1.222a.318.318,0,1,1,.608-.188c.126.41.254.813.381,1.214a.321.321,0,0,1-.206.4A.359.359,0,0,1,279.709,203.883Zm-.746-2.439a.318.318,0,0,1-.306-.229c-.12-.4-.238-.814-.353-1.227a.318.318,0,1,1,.612-.175c.117.412.233.82.352,1.223a.317.317,0,0,1-.215.394A.307.307,0,0,1,278.963,201.444Zm-.694-2.453a.317.317,0,0,1-.307-.235c-.11-.409-.219-.821-.327-1.235a.318.318,0,0,1,.227-.389.314.314,0,0,1,.388.227q.164.621.327,1.23a.316.316,0,0,1-.307.4Zm-.645-2.468a.318.318,0,0,1-.309-.242c-.1-.409-.206-.824-.307-1.239a.318.318,0,0,1,.619-.151q.152.623.306,1.236a.317.317,0,0,1-.309.4Zm-.6-2.478a.317.317,0,0,1-.31-.244c-.1-.411-.194-.826-.29-1.244a.319.319,0,1,1,.621-.143q.144.625.289,1.24a.318.318,0,0,1-.236.384A.351.351,0,0,1,277.023,194.045Zm-.573-2.485a.317.317,0,0,1-.31-.25l-.276-1.247a.32.32,0,0,1,.244-.38.312.312,0,0,1,.38.243l.273,1.245a.319.319,0,0,1-.242.38A.306.306,0,0,1,276.45,191.56Zm-.541-2.493a.318.318,0,0,1-.311-.252l-.26-1.249a.318.318,0,0,1,.247-.377.308.308,0,0,1,.376.248l.261,1.247a.319.319,0,0,1-.247.377A.273.273,0,0,1,275.909,189.067Zm-.516-2.5a.319.319,0,0,1-.313-.256l-.251-1.251a.322.322,0,0,1,.251-.376.317.317,0,0,1,.376.251l.25,1.251a.32.32,0,0,1-.25.376A.36.36,0,0,1,275.392,186.57Zm-.5-2.5a.318.318,0,0,1-.313-.257l-.242-1.255a.319.319,0,0,1,.627-.118l.24,1.252a.32.32,0,0,1-.252.374A.5.5,0,0,1,274.9,184.068Zm-.477-2.506a.319.319,0,0,1-.314-.259l-.234-1.255a.317.317,0,0,1,.256-.37.311.311,0,0,1,.37.255l.234,1.252a.318.318,0,0,1-.255.372A.3.3,0,0,1,274.42,181.562Zm-.462-2.505a.317.317,0,0,1-.313-.261l-.227-1.256a.315.315,0,0,1,.256-.369.31.31,0,0,1,.369.256l.227,1.256a.315.315,0,0,1-.256.369A.283.283,0,0,1,273.958,179.057Zm-.449-2.512a.317.317,0,0,1-.313-.261c-.076-.419-.15-.838-.223-1.257a.319.319,0,1,1,.629-.11c.072.419.144.835.219,1.255a.315.315,0,0,1-.256.369A.285.285,0,0,1,273.509,176.545Zm-.441-2.51a.319.319,0,0,1-.314-.264l-.215-1.256a.32.32,0,0,1,.26-.369.328.328,0,0,1,.368.261l.215,1.256a.32.32,0,0,1-.26.368A.355.355,0,0,1,273.067,174.035Zm-.432-2.514a.318.318,0,0,1-.314-.264l-.213-1.26a.318.318,0,0,1,.628-.105l.213,1.257a.319.319,0,0,1-.26.368A.359.359,0,0,1,272.635,171.52Zm-.426-2.514a.317.317,0,0,1-.314-.267l-.21-1.257a.318.318,0,1,1,.628-.105l.21,1.257a.319.319,0,0,1-.261.368A.367.367,0,0,1,272.209,169.006Zm-.419-2.514a.319.319,0,0,1-.315-.267l-.209-1.26a.319.319,0,0,1,.629-.1l.209,1.257a.321.321,0,0,1-.261.368A.382.382,0,0,1,271.79,166.492Zm-.42-2.516a.318.318,0,0,1-.314-.267l-.209-1.258a.316.316,0,0,1,.263-.365.323.323,0,0,1,.365.263l.21,1.256a.32.32,0,0,1-.263.368A.355.355,0,0,1,271.37,163.976Zm-.419-2.52a.317.317,0,0,1-.314-.268l-.211-1.26a.319.319,0,0,1,.629-.105l.21,1.262a.318.318,0,0,1-.263.367A.337.337,0,0,1,270.951,161.457Zm-.419-2.52a.318.318,0,0,1-.314-.265l-.211-1.258a.319.319,0,0,1,.261-.366.323.323,0,0,1,.368.261l.211,1.257a.321.321,0,0,1-.261.368A.385.385,0,0,1,270.532,158.937Zm-.424-2.514a.318.318,0,0,1-.314-.264l-.213-1.253a.318.318,0,0,1,.628-.105l.213,1.251a.32.32,0,0,1-.26.369A.361.361,0,0,1,270.108,156.423Zm-.43-2.508a.318.318,0,0,1-.314-.264l-.215-1.257a.318.318,0,0,1,.26-.368.325.325,0,0,1,.368.26l.215,1.257a.318.318,0,0,1-.26.368A.358.358,0,0,1,269.678,153.915Zm-.434-2.513a.318.318,0,0,1-.314-.263l-.221-1.255a.319.319,0,1,1,.628-.113l.221,1.257a.319.319,0,0,1-.259.369A.4.4,0,0,1,269.245,151.4Zm-.445-2.509a.318.318,0,0,1-.314-.263l-.225-1.255a.318.318,0,0,1,.627-.113l.226,1.257a.319.319,0,0,1-.259.369A.377.377,0,0,1,268.8,148.893Zm-.455-2.51a.318.318,0,0,1-.313-.26l-.234-1.252a.32.32,0,0,1,.255-.373.317.317,0,0,1,.372.255l.234,1.255a.318.318,0,0,1-.256.37A.279.279,0,0,1,268.345,146.382Zm-.472-2.506a.319.319,0,0,1-.313-.26l-.242-1.251a.319.319,0,0,1,.627-.121l.24,1.255a.317.317,0,0,1-.254.372A.3.3,0,0,1,267.873,143.876Zm-.485-2.5a.32.32,0,0,1-.313-.256l-.251-1.248a.317.317,0,0,1,.248-.376.313.313,0,0,1,.376.247l.252,1.251a.321.321,0,0,1-.25.377A.348.348,0,0,1,267.388,141.372Zm-.507-2.5a.317.317,0,0,1-.311-.252l-.261-1.248a.317.317,0,0,1,.246-.377.322.322,0,0,1,.377.246l.263,1.248a.318.318,0,0,1-.247.377A.279.279,0,0,1,266.881,138.872Zm-.531-2.495a.319.319,0,0,1-.311-.251l-.273-1.244a.318.318,0,1,1,.62-.138l.276,1.247a.319.319,0,0,1-.243.38A.307.307,0,0,1,266.351,136.378Zm-.554-2.489a.318.318,0,0,1-.31-.246l-.29-1.243a.319.319,0,1,1,.621-.146l.289,1.244a.317.317,0,0,1-.238.382A.347.347,0,0,1,265.8,133.888Zm-.589-2.481a.316.316,0,0,1-.309-.242q-.154-.623-.309-1.236a.319.319,0,0,1,.619-.156c.1.411.206.824.307,1.241a.318.318,0,0,1-.234.385A.3.3,0,0,1,265.208,131.407Zm-.627-2.472a.318.318,0,0,1-.307-.239q-.162-.621-.327-1.23a.319.319,0,0,1,.225-.39.315.315,0,0,1,.391.225q.166.611.327,1.236a.317.317,0,0,1-.229.388A.285.285,0,0,1,264.581,128.935Zm-.666-2.462a.317.317,0,0,1-.306-.233c-.116-.411-.234-.818-.352-1.222a.318.318,0,0,1,.611-.18q.181.609.355,1.23a.319.319,0,0,1-.221.393A.336.336,0,0,1,263.915,126.473Zm-.72-2.447a.318.318,0,0,1-.3-.223q-.189-.617-.382-1.214a.319.319,0,1,1,.608-.2c.129.4.255.809.382,1.222a.317.317,0,0,1-.21.4A.291.291,0,0,1,263.2,124.026Zm-.782-2.426a.318.318,0,0,1-.3-.217q-.2-.609-.415-1.2a.318.318,0,1,1,.6-.213c.141.4.281.8.418,1.21a.317.317,0,0,1-.2.4A.3.3,0,0,1,262.414,121.6Zm-.855-2.4a.317.317,0,0,1-.3-.208c-.151-.4-.3-.795-.46-1.182a.319.319,0,0,1,.592-.236q.234.589.462,1.2a.315.315,0,0,1-.187.409A.3.3,0,0,1,261.558,119.2Zm-.946-2.369a.321.321,0,0,1-.294-.193q-.252-.593-.51-1.16a.319.319,0,0,1,.581-.265q.262.575.516,1.176a.317.317,0,0,1-.169.418A.31.31,0,0,1,260.613,116.828Zm-1.061-2.32a.316.316,0,0,1-.286-.179c-.188-.384-.381-.761-.574-1.124a.319.319,0,1,1,.562-.3q.3.558.585,1.146a.317.317,0,0,1-.286.457Zm-1.2-2.249a.32.32,0,0,1-.276-.158q-.323-.556-.658-1.073a.319.319,0,0,1,.536-.347c.229.356.453.721.674,1.1a.32.32,0,0,1-.116.436A.305.305,0,0,1,258.352,112.259Zm-1.385-2.137a.314.314,0,0,1-.257-.131q-.374-.518-.763-.993a.318.318,0,0,1,.493-.4q.4.487.787,1.025a.315.315,0,0,1-.072.443A.307.307,0,0,1,256.967,110.122Zm-1.613-1.963a.318.318,0,0,1-.231-.1c-.3-.31-.6-.6-.893-.862a.318.318,0,0,1,.422-.477c.31.273.624.575.934.9a.323.323,0,0,1-.01.452A.32.32,0,0,1,255.354,108.159Zm-1.906-1.667a.323.323,0,0,1-.185-.059,10.123,10.123,0,0,0-1.036-.649.318.318,0,0,1,.3-.56,10.407,10.407,0,0,1,1.1.69.319.319,0,0,1-.184.578Zm-2.215-1.2a.305.305,0,0,1-.112-.021,9.163,9.163,0,0,0-1.161-.347.318.318,0,1,1,.139-.62,9.18,9.18,0,0,1,1.245.372.315.315,0,0,1,.187.409A.319.319,0,0,1,251.233,105.3Z" transform="translate(-247.819 -104.096)" fill="#484ce7"/>
            <path id="Path_67" data-name="Path 67" d="M283.962,194.082c-.221,0-.44-.008-.657-.024a.319.319,0,0,1,.047-.636c.2.016.4.024.609.024a.318.318,0,1,1,0,.636Z" transform="translate(-237.375 -76.144)" fill="#484ce7"/>
          </g>
        </g>
      </g>
    </g>
    <g id="Character" transform="translate(1061.123 4248.392)">
      <g id="Group_6724" data-name="Group 6724">
        <g id="Group_6516" data-name="Group 6516" transform="translate(0 57.153)">
          <g id="Group_6508" data-name="Group 6508">
            <path id="Path_12400" data-name="Path 12400" d="M200.627,203.527l.58-2.3a8.582,8.582,0,0,0-.1-4.564l-2.4-8a3,3,0,0,0-1.378-1.739c-1.82-1.047-5.423-3.065-5.73-2.811-2.206,1.835,2.723,5.07,2.723,5.07s1.9,2.117.4,3.692c-1.711,1.789-4.929-2.133-4.929-2.133s.171-.409.325-.332a6.345,6.345,0,0,0,3.1,1.333l0-2.6-2.917-1.828a2.928,2.928,0,0,0-2.167-.381l-1.009.215a2.564,2.564,0,0,0-1.6,1.085l-.957,1.438-.407.546a1.829,1.829,0,0,0-.2,1.847l.463,1.018-.634.895a2.745,2.745,0,0,0-.327,2.559l4.918,6.764,7.287,11.887,7.883-8.467Z" transform="translate(-183.295 -184.088)" fill="#ffbe9d"/>
          </g>
          <g id="Group_6511" data-name="Group 6511" transform="translate(0.916 8.454)">
            <g id="Group_6510" data-name="Group 6510">
              <g id="Group_6509" data-name="Group 6509">
                <path id="Path_12401" data-name="Path 12401" d="M185.391,196.746a1.632,1.632,0,0,1-.262-.489A1.365,1.365,0,0,1,185.37,195l.037-.046-.027-.055-.084-.174a12.433,12.433,0,0,0-1.052-1.925,12.432,12.432,0,0,0,.878,2.01l.085.174.01-.1A1.429,1.429,0,0,0,185,196.3C185.15,196.655,185.382,196.776,185.391,196.746Z" transform="translate(-184.239 -192.798)" fill="#eb996e"/>
              </g>
            </g>
          </g>
          <g id="Group_6513" data-name="Group 6513" transform="translate(2.286 3.58)">
            <g id="Group_6512" data-name="Group 6512">
              <path id="Path_12402" data-name="Path 12402" d="M186.033,187.78a2.3,2.3,0,0,0-.149,1.363,10.548,10.548,0,0,0,1.326,3.131,4.014,4.014,0,0,1,.461.913,2.486,2.486,0,0,1,.058.968,2.364,2.364,0,0,0,.174,1.456,2.82,2.82,0,0,0,.954.992,1.637,1.637,0,0,1-1.143-.89,2.482,2.482,0,0,1-.263-1.578,2.306,2.306,0,0,0-.063-.86,4.018,4.018,0,0,0-.437-.843,9.176,9.176,0,0,1-1.279-3.26A1.477,1.477,0,0,1,186.033,187.78Z" transform="translate(-185.65 -187.777)" fill="#eb996e"/>
            </g>
          </g>
          <g id="Group_6515" data-name="Group 6515" transform="translate(5.624 4.394)">
            <g id="Group_6514" data-name="Group 6514">
              <path id="Path_12403" data-name="Path 12403" d="M190.022,190.751a6.359,6.359,0,0,0-.37-1.083c-.3-.559-.624-.988-.553-1.048.054-.05.494.294.822.909C190.28,190.155,190.115,190.794,190.022,190.751Z" transform="translate(-189.089 -188.615)" fill="#eb996e"/>
            </g>
          </g>
        </g>
        <g id="Group_6517" data-name="Group 6517" transform="translate(8.118 75.453)">
          <path id="Path_12404" data-name="Path 12404" d="M203.566,244.752l3,3.763,15.585-18.727-20.405-26.848-10.092,7.915Z" transform="translate(-191.658 -202.941)" fill="#ff4d7b"/>
        </g>
        <g id="Group_6535" data-name="Group 6535" transform="translate(89.379 297.799)">
          <g id="Group_6520" data-name="Group 6520" transform="translate(0 0.208)">
            <g id="Group_6519" data-name="Group 6519">
              <g id="Group_6518" data-name="Group 6518">
                <path id="Path_12405" data-name="Path 12405" d="M275.373,432.645l1.291,30.425,16.428-.368-1.23-30.486Z" transform="translate(-275.373 -432.216)" fill="#223862"/>
              </g>
            </g>
          </g>
          <g id="Group_6524" data-name="Group 6524" transform="translate(7.686)">
            <g id="Group_6523" data-name="Group 6523">
              <g id="Group_6522" data-name="Group 6522">
                <g id="Group_6521" data-name="Group 6521">
                  <path id="Path_12406" data-name="Path 12406" d="M284.964,461.735c.137-.008-.118-6.671-.57-14.88s-.928-14.861-1.065-14.853.117,6.669.569,14.881S284.826,461.742,284.964,461.735Z" transform="translate(-283.292 -432.002)" fill="#49609b"/>
                </g>
              </g>
            </g>
          </g>
          <g id="Group_6527" data-name="Group 6527" transform="translate(1.202 28.541)">
            <g id="Group_6526" data-name="Group 6526">
              <g id="Group_6525" data-name="Group 6525">
                <path id="Path_12407" data-name="Path 12407" d="M276.612,461.828l16.43-.422.087,2.152-16.428.368Z" transform="translate(-276.612 -461.405)" fill="#223862"/>
              </g>
            </g>
          </g>
          <g id="Group_6531" data-name="Group 6531" transform="translate(1.117 16.434)">
            <g id="Group_6530" data-name="Group 6530">
              <g id="Group_6529" data-name="Group 6529">
                <g id="Group_6528" data-name="Group 6528">
                  <path id="Path_12408" data-name="Path 12408" d="M292.733,453.449a2.242,2.242,0,0,0-.451-.644,11.387,11.387,0,0,0-1.536-1.5,11.162,11.162,0,0,0-2.733-1.655,8.747,8.747,0,0,0-10.137,2.37,7.506,7.506,0,0,0-1.118,1.841,2.133,2.133,0,0,0-.227.755,17.2,17.2,0,0,1,1.611-2.366,8.748,8.748,0,0,1,6.034-2.812,10.056,10.056,0,0,1,6.355,2.145C291.957,452.641,292.667,453.51,292.733,453.449Z" transform="translate(-276.525 -448.932)" fill="#49609b"/>
                </g>
              </g>
            </g>
          </g>
          <g id="Group_6534" data-name="Group 6534" transform="translate(0.398 8.885)" opacity="0.3">
            <g id="Group_6533" data-name="Group 6533">
              <g id="Group_6532" data-name="Group 6532">
                <path id="Path_12409" data-name="Path 12409" d="M292.224,441.155l.135,3.352-16.47.3-.107-2.525Z" transform="translate(-275.783 -441.155)"/>
              </g>
            </g>
          </g>
        </g>
        <g id="Group_6576" data-name="Group 6576" transform="translate(32.498 300.076)">
          <g id="Group_6572" data-name="Group 6572">
            <g id="Group_6563" data-name="Group 6563">
              <g id="Group_6539" data-name="Group 6539" transform="translate(0.272)">
                <g id="Group_6538" data-name="Group 6538">
                  <g id="Group_6537" data-name="Group 6537">
                    <g id="Group_6536" data-name="Group 6536">
                      <path id="Path_12410" data-name="Path 12410" d="M234.991,434.53l.8,18.518s-18.554,7.035-18.739,10.472l35.962-.266-.066-28.905Z" transform="translate(-217.055 -434.348)" fill="#223862"/>
                    </g>
                  </g>
                </g>
              </g>
              <g id="Group_6543" data-name="Group 6543" transform="translate(28.121 17.068)">
                <g id="Group_6542" data-name="Group 6542">
                  <g id="Group_6541" data-name="Group 6541">
                    <g id="Group_6540" data-name="Group 6540">
                      <path id="Path_12411" data-name="Path 12411" d="M247.5,451.991a1.479,1.479,0,0,1,1.036,1.68,1.422,1.422,0,0,1-1.657,1.04,1.559,1.559,0,0,1-1.086-1.785,1.475,1.475,0,0,1,1.842-.892" transform="translate(-245.745 -451.932)" fill="#e0e0e0"/>
                    </g>
                  </g>
                </g>
              </g>
              <g id="Group_6546" data-name="Group 6546" transform="translate(0 26.009)">
                <g id="Group_6545" data-name="Group 6545">
                  <g id="Group_6544" data-name="Group 6544">
                    <path id="Path_12412" data-name="Path 12412" d="M253.009,464.037,253,461.143l-34.8,1.313s-1.607.713-1.416,1.848Z" transform="translate(-216.775 -461.143)" fill="#223862"/>
                  </g>
                </g>
              </g>
              <g id="Group_6550" data-name="Group 6550" transform="translate(18.684 18.652)">
                <g id="Group_6549" data-name="Group 6549">
                  <g id="Group_6548" data-name="Group 6548">
                    <g id="Group_6547" data-name="Group 6547">
                      <path id="Path_12413" data-name="Path 12413" d="M236.024,453.731c.007.177.892.25,1.767.812.889.54,1.343,1.3,1.506,1.231.162-.035-.109-1.091-1.179-1.753S235.984,453.569,236.024,453.731Z" transform="translate(-236.023 -453.563)" fill="#49609b"/>
                    </g>
                  </g>
                </g>
              </g>
              <g id="Group_6554" data-name="Group 6554" transform="translate(14.896 20.346)">
                <g id="Group_6553" data-name="Group 6553">
                  <g id="Group_6552" data-name="Group 6552">
                    <g id="Group_6551" data-name="Group 6551">
                      <path id="Path_12414" data-name="Path 12414" d="M232.122,455.381c-.039.172.729.467,1.336,1.212.628.725.785,1.533.961,1.524.167.026.281-1.01-.489-1.92S232.125,455.213,232.122,455.381Z" transform="translate(-232.121 -455.308)" fill="#49609b"/>
                    </g>
                  </g>
                </g>
              </g>
              <g id="Group_6558" data-name="Group 6558" transform="translate(11.336 21.939)">
                <g id="Group_6557" data-name="Group 6557">
                  <g id="Group_6556" data-name="Group 6556">
                    <g id="Group_6555" data-name="Group 6555">
                      <path id="Path_12415" data-name="Path 12415" d="M229.891,459.992c.161.036.4-.849-.06-1.814s-1.292-1.344-1.366-1.2c-.1.147.443.662.809,1.46C229.659,459.23,229.715,459.976,229.891,459.992Z" transform="translate(-228.453 -456.95)" fill="#49609b"/>
                    </g>
                  </g>
                </g>
              </g>
              <g id="Group_6562" data-name="Group 6562" transform="translate(18.966 13.9)">
                <g id="Group_6561" data-name="Group 6561">
                  <g id="Group_6560" data-name="Group 6560">
                    <g id="Group_6559" data-name="Group 6559">
                      <path id="Path_12416" data-name="Path 12416" d="M236.32,449.316c.076.161.885-.089,1.885-.029,1,.041,1.782.371,1.872.218.1-.129-.662-.779-1.841-.833S236.232,449.179,236.32,449.316Z" transform="translate(-236.313 -448.668)" fill="#49609b"/>
                    </g>
                  </g>
                </g>
              </g>
            </g>
            <g id="Group_6567" data-name="Group 6567" transform="translate(18.298 7.612)">
              <g id="Group_6566" data-name="Group 6566">
                <g id="Group_6565" data-name="Group 6565">
                  <g id="Group_6564" data-name="Group 6564">
                    <path id="Path_12417" data-name="Path 12417" d="M235.625,445.141a3.416,3.416,0,0,0,1.814-.022,8.2,8.2,0,0,0,1.894-.6,8.631,8.631,0,0,0,1.037-.561,2.219,2.219,0,0,0,.545-.431.771.771,0,0,0,.074-.941.969.969,0,0,0-.779-.4,2.355,2.355,0,0,0-.679.1,6.484,6.484,0,0,0-1.124.4,6.392,6.392,0,0,0-1.665,1.11c-.835.784-1.116,1.447-1.056,1.48.081.058.485-.5,1.336-1.147a7.258,7.258,0,0,1,1.611-.923,6.838,6.838,0,0,1,1.039-.329c.383-.1.71-.109.81.061.036.065.041.09-.039.2a1.844,1.844,0,0,1-.4.315,9.753,9.753,0,0,1-.954.554,10.041,10.041,0,0,1-1.749.685A12.5,12.5,0,0,0,235.625,445.141Z" transform="translate(-235.625 -442.189)" fill="#263238"/>
                  </g>
                </g>
              </g>
            </g>
            <g id="Group_6571" data-name="Group 6571" transform="translate(16.122 5.07)">
              <g id="Group_6570" data-name="Group 6570">
                <g id="Group_6569" data-name="Group 6569">
                  <g id="Group_6568" data-name="Group 6568">
                    <path id="Path_12418" data-name="Path 12418" d="M235.792,445.315a2.9,2.9,0,0,0,.465-1.755,5.872,5.872,0,0,0-.732-3.082,1.5,1.5,0,0,0-1.164-.908.85.85,0,0,0-.754.512,2.5,2.5,0,0,0-.182.666,4.019,4.019,0,0,0,.009,1.222,4.172,4.172,0,0,0,.788,1.869c.714.933,1.454,1.139,1.469,1.079.058-.089-.561-.426-1.109-1.324a4.156,4.156,0,0,1-.586-1.7,3.705,3.705,0,0,1,.025-1.048c.053-.385.2-.7.34-.659.181,0,.488.284.64.589a6.041,6.041,0,0,1,.456.98,6.537,6.537,0,0,1,.365,1.807C235.88,444.626,235.7,445.289,235.792,445.315Z" transform="translate(-233.383 -439.571)" fill="#263238"/>
                  </g>
                </g>
              </g>
            </g>
          </g>
          <g id="Group_6575" data-name="Group 6575" transform="translate(18.86 11.104)" opacity="0.3">
            <g id="Group_6574" data-name="Group 6574">
              <g id="Group_6573" data-name="Group 6573">
                <path id="Path_12419" data-name="Path 12419" d="M253.584,445.787l-.036,4.109H236.2v-3.727Z" transform="translate(-236.204 -445.787)"/>
              </g>
            </g>
          </g>
        </g>
        <g id="Group_6585" data-name="Group 6585" transform="translate(121.395)">
          <g id="Group_6578" data-name="Group 6578">
            <g id="Group_6577" data-name="Group 6577">
              <path id="Path_12420" data-name="Path 12420" d="M313.839,128.2l2.581,9.977s.96,5.515-1.618,5.511c-2.27,0-2.487-2.962-2.487-2.962s1.126-6.037-1.843-5.7c-.413.047-1.5,4.21-2.023,6.332a3.121,3.121,0,0,0,.312,2.291l4.281,7.574a8.942,8.942,0,0,0,3.358,3.368l2.145,1.222.277,4.5,12.048.188-3.671-14.05-1.532-8.574a2.857,2.857,0,0,0-2.158-1.6l-1.13-.169-.43-1.083a1.9,1.9,0,0,0-1.529-1.184l-.7-.089-.989-2.436c-.327-.807-2.688-6.116-3.559-6.106C315.168,125.209,313.2,125.741,313.839,128.2Z" transform="translate(-308.357 -125.209)" fill="#ffbe9d"/>
            </g>
          </g>
          <g id="Group_6581" data-name="Group 6581" transform="translate(11.171 8.147)">
            <g id="Group_6580" data-name="Group 6580">
              <g id="Group_6579" data-name="Group 6579">
                <path id="Path_12421" data-name="Path 12421" d="M322.772,140.53a8.053,8.053,0,0,0-.228-1.095,4.131,4.131,0,0,0-1.637-2.087,12.081,12.081,0,0,1-.9-2.615,3.578,3.578,0,0,1-.126-1.131c.033,0,.081.427.265,1.1a16.235,16.235,0,0,0,.922,2.521c.181.157.392.308.588.487a3.728,3.728,0,0,1,.491.558,3.678,3.678,0,0,1,.539,1.128,3.047,3.047,0,0,1,.122.83A.757.757,0,0,1,322.772,140.53Z" transform="translate(-319.865 -133.602)" fill="#eb996e"/>
              </g>
            </g>
          </g>
          <g id="Group_6584" data-name="Group 6584" transform="translate(13.772 10.348)">
            <g id="Group_6583" data-name="Group 6583">
              <g id="Group_6582" data-name="Group 6582">
                <path id="Path_12422" data-name="Path 12422" d="M324.687,139.582a1.652,1.652,0,0,0-.178-.55,1.424,1.424,0,0,0-1.119-.727l-.061-.006-.021-.059-.07-.19a12.974,12.974,0,0,1-.687-2.179,13,13,0,0,1,.877,2.11l.069.189-.083-.065a1.49,1.49,0,0,1,1.219.867C324.794,139.335,324.717,139.6,324.687,139.582Z" transform="translate(-322.545 -135.87)" fill="#eb996e"/>
              </g>
            </g>
          </g>
        </g>
        <g id="Group_6629" data-name="Group 6629" transform="translate(55.553 2.603)">
          <g id="Group_6593" data-name="Group 6593" transform="translate(2.852 8.305)">
            <g id="Group_6592" data-name="Group 6592">
              <g id="Group_6591" data-name="Group 6591">
                <g id="Group_6590" data-name="Group 6590">
                  <g id="Group_6589" data-name="Group 6589">
                    <g id="Group_6588" data-name="Group 6588">
                      <g id="Group_6587" data-name="Group 6587">
                        <g id="Group_6586" data-name="Group 6586">
                          <path id="Path_12423" data-name="Path 12423" d="M251.454,187.871l21.848-.281-2.439-18.6s1.493-.319,1.593-8.412.471-21.844.471-21.844h0a28.128,28.128,0,0,0-28.262,3.553l-1.2.923Z" transform="translate(-243.464 -136.446)" fill="#ffbe9d"/>
                        </g>
                      </g>
                    </g>
                  </g>
                </g>
              </g>
            </g>
          </g>
          <g id="Group_6599" data-name="Group 6599" transform="translate(0 24.765)">
            <g id="Group_6598" data-name="Group 6598">
              <g id="Group_6597" data-name="Group 6597">
                <g id="Group_6596" data-name="Group 6596">
                  <g id="Group_6595" data-name="Group 6595">
                    <g id="Group_6594" data-name="Group 6594">
                      <path id="Path_12424" data-name="Path 12424" d="M245.914,153.659c-.138-.06-5.561-1.645-5.384,3.888s5.7,4.215,5.7,4.056S245.914,153.659,245.914,153.659Z" transform="translate(-240.526 -153.404)" fill="#ffbe9d"/>
                    </g>
                  </g>
                </g>
              </g>
            </g>
          </g>
          <g id="Group_6605" data-name="Group 6605" transform="translate(30.569 23.683)">
            <g id="Group_6604" data-name="Group 6604">
              <g id="Group_6603" data-name="Group 6603">
                <g id="Group_6602" data-name="Group 6602">
                  <g id="Group_6601" data-name="Group 6601">
                    <g id="Group_6600" data-name="Group 6600">
                      <path id="Path_12425" data-name="Path 12425" d="M272.824,152.471c.139-.059,5.071-1.39,4.894,4.144s-5.7,4.214-5.7,4.055S272.824,152.471,272.824,152.471Z" transform="translate(-272.018 -152.289)" fill="#ffbe9d"/>
                    </g>
                  </g>
                </g>
              </g>
            </g>
          </g>
          <g id="Group_6607" data-name="Group 6607" transform="translate(3.595 7.573)">
            <g id="Group_6606" data-name="Group 6606">
              <path id="Path_12426" data-name="Path 12426" d="M244.229,152.522c.827,4.636.664,7.072,1.429,10.169,1.21,4.9,3.644,8.658,8.059,11.1s10.386,2.4,14.178-.928c2.632-2.312,4.5-4.924,4.886-8.405s.782-9.645.807-13.148c.045-6.317.468-12.356.468-12.356l-18.048-3.266-10.27,6.107Z" transform="translate(-244.229 -135.692)" fill="#263238"/>
            </g>
          </g>
          <g id="Group_6610" data-name="Group 6610" transform="translate(16.022 47.76)">
            <g id="Group_6609" data-name="Group 6609">
              <g id="Group_6608" data-name="Group 6608">
                <path id="Path_12427" data-name="Path 12427" d="M263.221,177.8a8.07,8.07,0,0,1-6.188-.682c.051-.139,1.386.28,3.081.459S263.2,177.657,263.221,177.8Z" transform="translate(-257.031 -177.093)" fill="#263238"/>
              </g>
            </g>
          </g>
          <g id="Group_6628" data-name="Group 6628" transform="translate(2.045)">
            <g id="Group_6611" data-name="Group 6611">
              <path id="Path_12428" data-name="Path 12428" d="M245.054,160.175c-.529-4.752-.872-10.185-1.614-15.193-.279-1.88-.947-4.589-.78-6.482a15.677,15.677,0,0,1,1.187-5.565,7.818,7.818,0,0,1,12.178-2.449,5.861,5.861,0,0,1,10.682,2.471,4.069,4.069,0,0,1,6.714,4.078,3.976,3.976,0,0,1,2.682,6.087c-.837,1.287-2.344,2-3.266,3.224a4.619,4.619,0,0,0-.277,5" transform="translate(-242.633 -127.891)" fill="#263238"/>
            </g>
            <g id="Group_6613" data-name="Group 6613" transform="translate(4.152 13.247)">
              <g id="Group_6612" data-name="Group 6612">
                <path id="Path_12429" data-name="Path 12429" d="M270.241,143.408a1.222,1.222,0,0,1-.2.519,3.646,3.646,0,0,1-1.049,1.179,3.767,3.767,0,0,1-2.347.744,4.027,4.027,0,0,1-2.893-1.356l.382-.1a3.76,3.76,0,0,1-2.414,2.768,4.311,4.311,0,0,1-4.068-.512,6.115,6.115,0,0,1-2.29-3l.438.05a5.085,5.085,0,0,1-4.087,2.24,4.7,4.7,0,0,1-3.439-1.4,4.772,4.772,0,0,1-1.243-2.116,2.056,2.056,0,0,1-.106-.878c.038,0,.077.3.266.826a5,5,0,0,0,1.3,1.941,4.432,4.432,0,0,0,3.207,1.207,4.689,4.689,0,0,0,3.688-2.081l.267-.414.171.464a5.688,5.688,0,0,0,2.109,2.746,3.838,3.838,0,0,0,3.61.478,3.331,3.331,0,0,0,2.161-2.39l.082-.458.3.354a3.691,3.691,0,0,0,2.575,1.282,3.6,3.6,0,0,0,2.186-.6A5.162,5.162,0,0,0,270.241,143.408Z" transform="translate(-246.911 -141.538)" fill="#455a64"/>
              </g>
            </g>
            <g id="Group_6615" data-name="Group 6615" transform="translate(14.072 4.967)">
              <g id="Group_6614" data-name="Group 6614">
                <path id="Path_12430" data-name="Path 12430" d="M270.509,140.964a5,5,0,0,0-.771-2.014,3.288,3.288,0,0,0-1.9-1.276,3.431,3.431,0,0,0-2.752.526l-.439.315.047-.541a4.166,4.166,0,0,0-.185-1.59,4.336,4.336,0,0,0-2.22-2.583,4.234,4.234,0,0,0-2.813-.248,5.9,5.9,0,0,0-2.346,1.323c-.021-.016.1-.262.449-.616a4.409,4.409,0,0,1,1.8-1.051,4.472,4.472,0,0,1,3.1.168,4.711,4.711,0,0,1,2.507,2.853,4.551,4.551,0,0,1,.2,1.792l-.392-.225a3.812,3.812,0,0,1,3.15-.545,3.533,3.533,0,0,1,2.058,1.515,3.465,3.465,0,0,1,.553,1.592C270.588,140.753,270.534,140.966,270.509,140.964Z" transform="translate(-257.13 -133.008)" fill="#455a64"/>
              </g>
            </g>
            <g id="Group_6617" data-name="Group 6617" transform="translate(13.729 8.811)">
              <g id="Group_6616" data-name="Group 6616">
                <path id="Path_12431" data-name="Path 12431" d="M258.99,141.241c-.07-.03.015-.315-.015-.76a3.606,3.606,0,0,0-.565-1.635,17.5,17.5,0,0,0-1.042-1.467.534.534,0,0,0-.577-.114c-.028-.01-.029-.123.119-.222a.621.621,0,0,1,.679.055,4,4,0,0,1,.623.631,6.411,6.411,0,0,1,.631.855,3.03,3.03,0,0,1,.489,1.907C259.265,141.015,259.044,141.272,258.99,141.241Z" transform="translate(-256.777 -136.968)" fill="#455a64"/>
              </g>
            </g>
            <g id="Group_6619" data-name="Group 6619" transform="translate(5.217 3.909)">
              <g id="Group_6618" data-name="Group 6618">
                <path id="Path_12432" data-name="Path 12432" d="M248.027,134.137c-.057-.02,0-.431.337-1.01a2.689,2.689,0,0,1,.824-.867,2.149,2.149,0,0,1,1.467-.321,3.511,3.511,0,0,1,2.191,1.373c.4.511.587.862.538.9s-.347-.232-.8-.661a3.784,3.784,0,0,0-1.995-1.116,2.112,2.112,0,0,0-1.933.893C248.276,133.808,248.1,134.167,248.027,134.137Z" transform="translate(-248.008 -131.918)" fill="#455a64"/>
              </g>
            </g>
            <g id="Group_6621" data-name="Group 6621" transform="translate(5.419 22.107)">
              <g id="Group_6620" data-name="Group 6620">
                <path id="Path_12433" data-name="Path 12433" d="M250.844,158.15a12.285,12.285,0,0,1-2.574-7.485c.148-.018.432,1.738,1.145,3.791S250.972,158.073,250.844,158.15Z" transform="translate(-248.215 -150.665)" fill="#455a64"/>
              </g>
            </g>
            <g id="Group_6623" data-name="Group 6623" transform="translate(8.436 25.631)">
              <g id="Group_6622" data-name="Group 6622">
                <path id="Path_12434" data-name="Path 12434" d="M253.356,159.583a11.137,11.137,0,0,1-2-5.286,10.371,10.371,0,0,1,1.131,2.594A10.291,10.291,0,0,1,253.356,159.583Z" transform="translate(-251.324 -154.296)" fill="#455a64"/>
              </g>
            </g>
            <g id="Group_6625" data-name="Group 6625" transform="translate(22.293 31.295)">
              <g id="Group_6624" data-name="Group 6624">
                <path id="Path_12435" data-name="Path 12435" d="M268.979,160.131a10.569,10.569,0,0,1-3.372,8.923,30.662,30.662,0,0,0,2.276-4.238A30.594,30.594,0,0,0,268.979,160.131Z" transform="translate(-265.6 -160.131)" fill="#455a64"/>
              </g>
            </g>
            <g id="Group_6627" data-name="Group 6627" transform="translate(26.565 27.259)">
              <g id="Group_6626" data-name="Group 6626">
                <path id="Path_12436" data-name="Path 12436" d="M271.533,155.974a8.531,8.531,0,0,1-1.521,8.356,24.587,24.587,0,0,0,1.377-4.066A24.414,24.414,0,0,0,271.533,155.974Z" transform="translate(-270 -155.973)" fill="#455a64"/>
              </g>
            </g>
          </g>
        </g>
        <g id="Group_6657" data-name="Group 6657" transform="translate(38.389 146.569)">
          <g id="Group_6656" data-name="Group 6656">
            <g id="Group_6631" data-name="Group 6631">
              <g id="Group_6630" data-name="Group 6630">
                <path id="Path_12437" data-name="Path 12437" d="M263.16,312.017l5.314,51.216,3.813,77.13h20.354l.551-164.158-58.273,4.155-12.076,86.129L233.3,441.871h22.332L250.4,370.195l12.756-58.178" transform="translate(-222.844 -276.205)" fill="#2b468b"/>
              </g>
            </g>
            <g id="Group_6634" data-name="Group 6634" transform="translate(32.057 35.808)">
              <g id="Group_6633" data-name="Group 6633">
                <g id="Group_6632" data-name="Group 6632">
                  <path id="Path_12438" data-name="Path 12438" d="M264.128,313.1a61.288,61.288,0,0,1-8.257,7.433,61.115,61.115,0,0,1,8.257-7.433Z" transform="translate(-255.868 -313.094)" fill="#49609b"/>
                </g>
              </g>
            </g>
            <g id="Group_6637" data-name="Group 6637" transform="translate(40.196 21.647)">
              <g id="Group_6636" data-name="Group 6636">
                <g id="Group_6635" data-name="Group 6635">
                  <path id="Path_12439" data-name="Path 12439" d="M264.316,311.646a57.744,57.744,0,0,1,.107-6.574,57.645,57.645,0,0,1,.381-6.566,58.739,58.739,0,0,1-.487,13.14Z" transform="translate(-264.254 -298.506)" fill="#49609b"/>
                </g>
              </g>
            </g>
            <g id="Group_6640" data-name="Group 6640" transform="translate(46.984 14.8)">
              <g id="Group_6639" data-name="Group 6639">
                <g id="Group_6638" data-name="Group 6638">
                  <path id="Path_12440" data-name="Path 12440" d="M271.251,292.324a1.37,1.37,0,0,1,.327-.036l1.006-.06,3.861-.189,13.8-.577.235-.01v.238c.008,4.3.017,9.178.025,14.326v.447l-.158.063-8.977,3.6-.084.034-.084-.029-7.936-2.757-.124-.044-.016-.127c-.58-4.47-1.063-8.195-1.41-10.866-.151-1.246-.274-2.245-.364-2.988a8.878,8.878,0,0,1-.1-1.022,1.672,1.672,0,0,1,.063.291c.038.221.083.486.137.808.118.751.279,1.762.479,3.023.4,2.631.948,6.3,1.612,10.7l-.141-.171,7.957,2.7-.169,0,8.968-3.617-.158.234v-.276c.009-5.148.017-10.021.025-14.326l.235.228-13.649.339-3.922.07-1.055.009A2.61,2.61,0,0,1,271.251,292.324Z" transform="translate(-271.247 -291.452)" fill="#49609b"/>
                </g>
              </g>
            </g>
            <g id="Group_6643" data-name="Group 6643" transform="translate(17.019 15.445)">
              <g id="Group_6642" data-name="Group 6642">
                <g id="Group_6641" data-name="Group 6641">
                  <path id="Path_12441" data-name="Path 12441" d="M240.964,292.592a1.147,1.147,0,0,1,.294-.03l.907-.039,3.492-.109,12.586-.292.232-.006-.008.235c-.137,4.252-.294,9.152-.461,14.371l0,.13-.11.072-1.456.952-7.38,4.812-.129.084-.131-.08-8.312-5.064-.106-.065,0-.12c.156-4.464.286-8.183.38-10.851.054-1.243.1-2.24.13-2.982a8.223,8.223,0,0,1,.073-1.018,1.546,1.546,0,0,1,.017.293c0,.222,0,.488,0,.811,0,.754-.013,1.767-.021,3.03-.04,2.638-.1,6.314-.161,10.728l-.1-.185,8.347,5.007-.259,0,7.37-4.826,1.456-.951-.114.2c.19-5.218.369-10.117.524-14.369l.224.228-12.451.069-3.542-.008-.949-.013A2.021,2.021,0,0,1,240.964,292.592Z" transform="translate(-240.377 -292.116)" fill="#49609b"/>
                </g>
              </g>
            </g>
            <g id="Group_6646" data-name="Group 6646" transform="translate(45.42 36.684)">
              <g id="Group_6645" data-name="Group 6645">
                <g id="Group_6644" data-name="Group 6644">
                  <path id="Path_12442" data-name="Path 12442" d="M288.276,316.434a14.117,14.117,0,0,1-2.759-.086c-1.7-.126-4.04-.357-6.617-.691s-4.9-.709-6.575-1.02a14.173,14.173,0,0,1-2.69-.62,15.777,15.777,0,0,1,2.745.267l6.585.872,6.588.838A15.816,15.816,0,0,1,288.276,316.434Z" transform="translate(-269.635 -313.996)" fill="#49609b"/>
                </g>
              </g>
            </g>
            <g id="Group_6649" data-name="Group 6649" transform="translate(49.799 85.148)">
              <g id="Group_6648" data-name="Group 6648">
                <g id="Group_6647" data-name="Group 6647">
                  <path id="Path_12443" data-name="Path 12443" d="M287.936,374.99c.021.01-.082.294-.481.646a3.223,3.223,0,0,1-2.081.707,4.923,4.923,0,0,1-3.041-1.166,20.957,20.957,0,0,1-2.771-2.8,38.308,38.308,0,0,1-4.121-5.8,12.32,12.32,0,0,1-1.287-2.649,27,27,0,0,1,1.593,2.464,51.148,51.148,0,0,0,4.2,5.655,23.447,23.447,0,0,0,2.675,2.766,4.712,4.712,0,0,0,2.759,1.175,3.247,3.247,0,0,0,1.957-.506C287.738,375.2,287.9,374.963,287.936,374.99Z" transform="translate(-274.147 -363.924)" fill="#49609b"/>
                </g>
              </g>
            </g>
            <g id="Group_6652" data-name="Group 6652" transform="translate(10.493 92.444)">
              <g id="Group_6651" data-name="Group 6651">
                <g id="Group_6650" data-name="Group 6650">
                  <path id="Path_12444" data-name="Path 12444" d="M246.55,377.007a1.374,1.374,0,0,1-.275.655A4.163,4.163,0,0,1,244.869,379a5.379,5.379,0,0,1-2.793.733,6.606,6.606,0,0,1-3.364-1.068,11.907,11.907,0,0,1-4.047-4.823,10.8,10.8,0,0,1-1.007-2.4,17.1,17.1,0,0,1,1.32,2.229,12.772,12.772,0,0,0,4,4.566,6.4,6.4,0,0,0,3.108,1.03,5.285,5.285,0,0,0,2.605-.579A5.79,5.79,0,0,0,246.55,377.007Z" transform="translate(-233.653 -371.441)" fill="#49609b"/>
                </g>
              </g>
            </g>
            <g id="Group_6655" data-name="Group 6655" transform="translate(12.075 90.273)">
              <g id="Group_6654" data-name="Group 6654">
                <g id="Group_6653" data-name="Group 6653">
                  <path id="Path_12445" data-name="Path 12445" d="M247.9,369.216a5.024,5.024,0,0,1-1.673.973,13.221,13.221,0,0,1-9.193.38,5,5,0,0,1-1.746-.832,16.882,16.882,0,0,0,12.612-.52Z" transform="translate(-235.283 -369.204)" fill="#49609b"/>
                </g>
              </g>
            </g>
          </g>
        </g>
        <g id="Group_6711" data-name="Group 6711" transform="translate(19.321 30.601)">
          <g id="Group_6710" data-name="Group 6710">
            <g id="Group_6679" data-name="Group 6679">
              <g id="Group_6659" data-name="Group 6659" transform="translate(70.697)">
                <g id="Group_6658" data-name="Group 6658">
                  <path id="Path_12446" data-name="Path 12446" d="M315.332,182.231H285.655s-4.031-2.322-5.981-1.932a7.717,7.717,0,0,0-3.642,2.471l3.926,32.7,9.613-7.113,35.775-3.726a11.379,11.379,0,0,0,8.181-3.581h0a11.377,11.377,0,0,0,3.012-9.15l-6.617-35.165-13.575.449-.537,8.924Z" transform="translate(-276.032 -156.734)" fill="#ff4d7b"/>
                </g>
              </g>
              <g id="Group_6661" data-name="Group 6661" transform="translate(0 33.74)">
                <g id="Group_6660" data-name="Group 6660">
                  <path id="Path_12447" data-name="Path 12447" d="M231.505,191.493a18.19,18.19,0,0,0-7.167,8.328c-1.731,4.154-13.548,24.9-19.778,35.758a10.259,10.259,0,0,0,1.486,12.2h0c3.785,3.957,8.307,2.414,13.83.617,2.476-.806,13.614-17.9,13.614-17.9Z" transform="translate(-203.2 -191.493)" fill="#ff4d7b"/>
                </g>
              </g>
              <g id="Group_6663" data-name="Group 6663" transform="translate(26.665 24.889)">
                <g id="Group_6662" data-name="Group 6662">
                  <path id="Path_12448" data-name="Path 12448" d="M237.472,265.372l-6.8-58.545,1.641-15.6,17.321-7.383,22.434-1.468,21.362,2.352-5,60.049,5.467,33.865-59.831,2.706Z" transform="translate(-230.67 -182.374)" fill="#ff4d7b"/>
                </g>
              </g>
              <g id="Group_6666" data-name="Group 6666" transform="translate(26.656 49.339)">
                <g id="Group_6665" data-name="Group 6665">
                  <g id="Group_6664" data-name="Group 6664">
                    <path id="Path_12449" data-name="Path 12449" d="M237.443,265.86c-.139.017-1.768-13.022-3.638-29.118s-3.274-29.163-3.135-29.18,1.767,13.02,3.637,29.121S237.581,265.844,237.443,265.86Z" transform="translate(-230.66 -207.563)" fill="#ff4d7b"/>
                  </g>
                </g>
              </g>
              <g id="Group_6669" data-name="Group 6669" transform="translate(84.247 40.378)">
                <g id="Group_6668" data-name="Group 6668">
                  <g id="Group_6667" data-name="Group 6667">
                    <path id="Path_12450" data-name="Path 12450" d="M294.728,198.332a2.044,2.044,0,0,1-.014.528c-.036.4-.081.9-.135,1.5-.141,1.375-.33,3.244-.562,5.52-.475,4.727-1.117,11.134-1.828,18.213-.678,7.118-1.23,13.566-1.578,18.237-.164,2.281-.3,4.154-.4,5.533-.049.607-.088,1.1-.12,1.5a2.126,2.126,0,0,1-.077.523,2.1,2.1,0,0,1-.025-.528c.007-.4.016-.9.025-1.509.026-1.31.115-3.205.239-5.546.257-4.682.752-11.14,1.431-18.262s1.406-13.554,1.976-18.205c.288-2.326.534-4.207.722-5.5l.229-1.492A2.046,2.046,0,0,1,294.728,198.332Z" transform="translate(-289.991 -198.332)" fill="#ff4d7b"/>
                  </g>
                </g>
              </g>
              <g id="Group_6672" data-name="Group 6672" transform="translate(44.148 98.661)">
                <g id="Group_6671" data-name="Group 6671">
                  <g id="Group_6670" data-name="Group 6670">
                    <path id="Path_12451" data-name="Path 12451" d="M283.222,258.378a8.342,8.342,0,0,1-.946,1.158,13.412,13.412,0,0,1-1.216,1.268,21.912,21.912,0,0,1-1.729,1.56,24.769,24.769,0,0,1-2.25,1.707c-.817.607-1.766,1.139-2.749,1.722a34.175,34.175,0,0,1-14.15,4.224c-1.142.05-2.227.126-3.243.066a24.635,24.635,0,0,1-2.818-.194,22.126,22.126,0,0,1-2.3-.357,13.387,13.387,0,0,1-1.711-.394,8.316,8.316,0,0,1-1.427-.449c.027-.112,2.071.526,5.476.844a26.352,26.352,0,0,0,2.789.132c1,.041,2.073-.049,3.2-.112a35.45,35.45,0,0,0,13.963-4.168c.975-.565,1.92-1.075,2.737-1.661a26.474,26.474,0,0,0,2.26-1.638C281.778,259.953,283.137,258.3,283.222,258.378Z" transform="translate(-248.681 -258.375)" fill="#ff4d7b"/>
                  </g>
                </g>
              </g>
              <g id="Group_6675" data-name="Group 6675" transform="translate(44.461 94.671)" opacity="0.3">
                <g id="Group_6674" data-name="Group 6674">
                  <g id="Group_6673" data-name="Group 6673">
                    <path id="Path_12452" data-name="Path 12452" d="M251.6,269.187c-2.909-.836-3.076-3.576-1.953-4.758s2.96-1.329,4.573-1.1a23.3,23.3,0,0,0,4.833.656c2.662-.18,4.893-2.031,6.74-3.956s3.6-4.074,6.03-5.178,5.807-.716,7.085,1.625a5.076,5.076,0,0,1-.289,4.859,11.331,11.331,0,0,1-3.6,3.53,29.458,29.458,0,0,1-23.416,4.318" transform="translate(-249.003 -254.264)" fill="#ff4d7b"/>
                  </g>
                </g>
              </g>
              <g id="Group_6678" data-name="Group 6678" transform="translate(82.44 26.68)">
                <g id="Group_6677" data-name="Group 6677">
                  <g id="Group_6676" data-name="Group 6676">
                    <path id="Path_12453" data-name="Path 12453" d="M288.132,184.231A9.208,9.208,0,0,1,293.738,192a14.1,14.1,0,0,0-5.606-7.768Z" transform="translate(-288.129 -184.22)" fill="#ff4d7b"/>
                  </g>
                </g>
              </g>
            </g>
            <g id="Group_6709" data-name="Group 6709" transform="translate(11.45 12.521)">
              <g id="Group_6708" data-name="Group 6708">
                <g id="Group_6681" data-name="Group 6681" transform="translate(15.032 12.965)">
                  <g id="Group_6680" data-name="Group 6680">
                    <path id="Path_12454" data-name="Path 12454" d="M284.367,183.535a3.45,3.45,0,0,0-.493-.3,2.524,2.524,0,0,0-1.611-.1,4.491,4.491,0,0,0-2.205,1.314,24.74,24.74,0,0,1-2.447,2.487,7.2,7.2,0,0,1-4.019,1.237c-1.528.076-3.146-.083-4.85-.127a95.764,95.764,0,0,0-11.082.241,71.2,71.2,0,0,0-19.61,4.327,60.726,60.726,0,0,0-5.578,2.478L231,195.87c-.338.175-.519.257-.519.257s.168-.107.5-.293l1.454-.808A55.719,55.719,0,0,1,238,192.485a69.7,69.7,0,0,1,19.644-4.4,93.514,93.514,0,0,1,11.107-.226c1.707.05,3.327.214,4.835.146a7.063,7.063,0,0,0,3.942-1.184,25.456,25.456,0,0,0,2.452-2.452,4.543,4.543,0,0,1,2.268-1.31,2.521,2.521,0,0,1,1.645.14A1.56,1.56,0,0,1,284.367,183.535Z" transform="translate(-230.481 -182.99)" fill="#22417a"/>
                  </g>
                </g>
                <g id="Group_6683" data-name="Group 6683" transform="translate(16.223 25.212)">
                  <g id="Group_6682" data-name="Group 6682">
                    <path id="Path_12455" data-name="Path 12455" d="M291.126,195.9c0,.015-.2-.061-.6-.13a6.281,6.281,0,0,0-1.753-.056,9.747,9.747,0,0,0-2.683.712,32.376,32.376,0,0,0-3.289,1.691,18.31,18.31,0,0,1-4.133,1.777,26.265,26.265,0,0,1-5.1.825c-3.631.226-7.62.282-11.8.607-8.362.575-15.889,1.589-21.308,2.472-2.711.434-4.9.846-6.407,1.121l-1.738.329c-.4.073-.609.1-.609.1s.206-.055.6-.141l1.731-.367c1.507-.3,3.688-.732,6.4-1.185,5.416-.919,12.947-1.957,21.318-2.533,4.18-.324,8.182-.376,11.8-.591a26.3,26.3,0,0,0,5.068-.8,18.316,18.316,0,0,0,4.109-1.741,31.7,31.7,0,0,1,3.315-1.671,9.586,9.586,0,0,1,2.718-.684,6,6,0,0,1,1.769.094A3.215,3.215,0,0,1,291.126,195.9Z" transform="translate(-231.708 -195.607)" fill="#22417a"/>
                  </g>
                </g>
                <g id="Group_6685" data-name="Group 6685" transform="translate(17.247 42.012)">
                  <g id="Group_6684" data-name="Group 6684">
                    <path id="Path_12456" data-name="Path 12456" d="M291.3,212.914s-.753.35-2.151.9-3.45,1.275-6.036,2.007a90.726,90.726,0,0,1-20.719,3.1,189.858,189.858,0,0,1-20.974-.5l-6.339-.492-1.722-.151c-.394-.038-.6-.067-.6-.067s.209,0,.6.026l1.725.114,6.342.428a201.617,201.617,0,0,0,20.955.44,93.077,93.077,0,0,0,20.69-3.032c2.585-.712,4.642-1.413,6.045-1.943.707-.251,1.242-.483,1.613-.62S291.3,212.914,291.3,212.914Z" transform="translate(-232.763 -212.914)" fill="#22417a"/>
                  </g>
                </g>
                <g id="Group_6687" data-name="Group 6687" transform="translate(19.145 61.063)">
                  <g id="Group_6686" data-name="Group 6686">
                    <path id="Path_12457" data-name="Path 12457" d="M289.087,232.541s-.7.308-2.016.758a40.526,40.526,0,0,1-5.691,1.455,57.975,57.975,0,0,1-8.666.886c-3.281.113-6.89.006-10.666-.219-7.551-.5-14.384-1.035-19.341-.858-2.476.064-4.476.224-5.851.386-.69.066-1.22.156-1.583.2s-.553.06-.553.06a50.469,50.469,0,0,1,7.984-.785c4.965-.213,11.812.3,19.356.8,3.773.225,7.375.338,10.647.235a59.449,59.449,0,0,0,8.648-.841,43,43,0,0,0,5.691-1.389c.666-.194,1.164-.4,1.511-.512S289.087,232.541,289.087,232.541Z" transform="translate(-234.719 -232.541)" fill="#22417a"/>
                  </g>
                </g>
                <g id="Group_6689" data-name="Group 6689" transform="translate(20.741 75.808)">
                  <g id="Group_6688" data-name="Group 6688">
                    <path id="Path_12458" data-name="Path 12458" d="M287.289,247.731s-2.74.9-7.281,1.944c-2.268.528-4.994,1.049-8.038,1.521-3.047.447-6.414.829-9.962,1.052-3.551.206-6.94.232-10.019.155-3.079-.1-5.847-.29-8.163-.541-4.634-.488-7.462-1.054-7.462-1.054s.181.014.52.059l1.484.207c1.286.194,3.157.421,5.471.646s5.081.407,8.155.5c3.075.066,6.458.035,10-.171,3.542-.223,6.9-.6,9.947-1.035,3.04-.46,5.765-.966,8.034-1.475s4.1-.953,5.354-1.3l1.448-.384C287.111,247.766,287.289,247.731,287.289,247.731Z" transform="translate(-236.363 -247.731)" fill="#22417a"/>
                  </g>
                </g>
                <g id="Group_6691" data-name="Group 6691" transform="translate(22.187 81.193)">
                  <g id="Group_6690" data-name="Group 6690">
                    <path id="Path_12459" data-name="Path 12459" d="M289.387,253.279s-.173.073-.508.192l-1.46.528c-1.265.469-3.074,1.2-5.28,2.177s-4.809,2.191-7.763,3.406a50.5,50.5,0,0,1-9.925,3.033,82.064,82.064,0,0,1-18.805,1.039c-2.411-.1-4.36-.225-5.707-.312l-1.55-.11c-.353-.027-.539-.052-.539-.052s.186,0,.542.012l1.552.072,5.708.247a84.586,84.586,0,0,0,18.76-1.094,51.188,51.188,0,0,0,9.894-3.007c2.951-1.2,5.558-2.413,7.775-3.365s4.035-1.674,5.31-2.12S289.387,253.279,289.387,253.279Z" transform="translate(-237.852 -253.279)" fill="#22417a"/>
                  </g>
                </g>
                <g id="Group_6693" data-name="Group 6693" transform="translate(20.497 97.264)">
                  <g id="Group_6692" data-name="Group 6692">
                    <path id="Path_12460" data-name="Path 12460" d="M292.374,269.835s-.665.456-1.932,1.175a38.7,38.7,0,0,1-5.606,2.566,61.663,61.663,0,0,1-19.985,3.378c-7.954.144-15.129-.486-20.325-.706-2.6-.127-4.7-.2-6.156-.232l-1.675-.033c-.382-.009-.583-.023-.583-.023s.2-.014.584-.018l1.675,0c1.456.006,3.561.058,6.162.168,5.2.183,12.376.79,20.314.646a62.771,62.771,0,0,0,19.941-3.311,40.846,40.846,0,0,0,5.616-2.5c.648-.329,1.12-.642,1.457-.824S292.374,269.835,292.374,269.835Z" transform="translate(-236.111 -269.835)" fill="#22417a"/>
                  </g>
                </g>
                <g id="Group_6695" data-name="Group 6695" transform="translate(85.438 13.935)">
                  <g id="Group_6694" data-name="Group 6694">
                    <path id="Path_12461" data-name="Path 12461" d="M303.376,208.052a1.2,1.2,0,0,1,.051-.246c.056-.212.117-.439.183-.688.171-.6.383-1.466.609-2.547a39.173,39.173,0,0,0-.257-17.13c-.258-1.074-.5-1.937-.685-2.527-.074-.248-.141-.473-.2-.683a1.137,1.137,0,0,1-.058-.243,1.115,1.115,0,0,1,.1.229c.074.208.153.428.241.673.212.582.472,1.443.748,2.517a37.08,37.08,0,0,1,.258,17.194c-.245,1.081-.479,1.949-.673,2.538-.08.247-.152.471-.22.679A1.138,1.138,0,0,1,303.376,208.052Z" transform="translate(-303.014 -183.989)" fill="#22417a"/>
                  </g>
                </g>
                <g id="Group_6697" data-name="Group 6697" transform="translate(95.41 13.598)">
                  <g id="Group_6696" data-name="Group 6696">
                    <path id="Path_12462" data-name="Path 12462" d="M318.052,204.53a.918.918,0,0,1,0-.222c.008-.2.016-.408.025-.634.032-.549.048-1.346.038-2.329a36,36,0,0,0-3.389-14.859c-.416-.89-.778-1.6-1.044-2.081l-.3-.56a.961.961,0,0,1-.092-.2.927.927,0,0,1,.127.182l.331.543c.288.47.67,1.173,1.1,2.059a33.766,33.766,0,0,1,3.4,14.92c-.007.986-.046,1.785-.1,2.334l-.063.632A.978.978,0,0,1,318.052,204.53Z" transform="translate(-313.287 -183.642)" fill="#22417a"/>
                  </g>
                </g>
                <g id="Group_6699" data-name="Group 6699" transform="translate(98.649 12.743)">
                  <g id="Group_6698" data-name="Group 6698">
                    <path id="Path_12463" data-name="Path 12463" d="M337.574,197.761a1.231,1.231,0,0,1-.183-.193l-.492-.58c-.419-.51-1.052-1.227-1.858-2.088a46.821,46.821,0,0,0-14.892-10.662c-1.075-.485-1.957-.853-2.575-1.085l-.708-.28a1.32,1.32,0,0,1-.242-.111,1.3,1.3,0,0,1,.255.072l.721.245c.628.21,1.521.558,2.606,1.028a44.111,44.111,0,0,1,14.939,10.7c.795.877,1.412,1.609,1.814,2.136l.463.6A1.346,1.346,0,0,1,337.574,197.761Z" transform="translate(-316.624 -182.761)" fill="#22417a"/>
                  </g>
                </g>
                <g id="Group_6701" data-name="Group 6701" transform="translate(99.504)">
                  <g id="Group_6700" data-name="Group 6700">
                    <path id="Path_12464" data-name="Path 12464" d="M333.2,169.873a3.535,3.535,0,0,1-.618.012l-1.682-.029c-1.42-.025-3.382-.043-5.548-.006s-4.127.123-5.545.2l-1.68.087a3.53,3.53,0,0,1-.617.01,3.708,3.708,0,0,1,.612-.087c.4-.045.968-.1,1.677-.152,1.417-.111,3.38-.218,5.55-.256s4.135,0,5.555.064c.711.031,1.285.063,1.682.094A3.674,3.674,0,0,1,333.2,169.873Z" transform="translate(-317.505 -169.633)" fill="#22417a"/>
                  </g>
                </g>
                <g id="Group_6703" data-name="Group 6703" transform="translate(5.227 38.762)">
                  <g id="Group_6702" data-name="Group 6702">
                    <path id="Path_12465" data-name="Path 12465" d="M220.381,209.566a2.69,2.69,0,0,1,.365.384c.221.258.555.619.979,1.052a25.49,25.49,0,0,0,3.637,3.027,47,47,0,0,0,4.055,2.463l1.265.69a2.571,2.571,0,0,1,.454.274,2.664,2.664,0,0,1-.489-.2c-.31-.142-.753-.357-1.3-.635a36.7,36.7,0,0,1-4.1-2.423,22.229,22.229,0,0,1-3.626-3.094,14.073,14.073,0,0,1-.937-1.1A2.678,2.678,0,0,1,220.381,209.566Z" transform="translate(-220.38 -209.566)" fill="#22417a"/>
                  </g>
                </g>
                <g id="Group_6705" data-name="Group 6705" transform="translate(9.318 30.995)">
                  <g id="Group_6704" data-name="Group 6704">
                    <path id="Path_12466" data-name="Path 12466" d="M224.6,201.565c.031-.016.224.333.685.777a14.566,14.566,0,0,0,1.961,1.551c.813.547,1.579,1,2.145,1.3s.93.464.92.493a10.964,10.964,0,0,1-3.179-1.627,11.315,11.315,0,0,1-1.95-1.619A2.321,2.321,0,0,1,224.6,201.565Z" transform="translate(-224.595 -201.564)" fill="#22417a"/>
                  </g>
                </g>
                <g id="Group_6707" data-name="Group 6707" transform="translate(0 48.468)">
                  <g id="Group_6706" data-name="Group 6706">
                    <path id="Path_12467" data-name="Path 12467" d="M231.218,235.211a1.064,1.064,0,0,1-.212-.1l-.59-.308c-.512-.27-1.236-.69-2.1-1.253a43.437,43.437,0,0,1-6.322-5.015,40.2,40.2,0,0,1-5.272-6.111,24.3,24.3,0,0,1-1.307-2.07l-.318-.584a1.049,1.049,0,0,1-.1-.21.992.992,0,0,1,.134.189l.351.565c.3.492.753,1.193,1.356,2.027a43.564,43.564,0,0,0,5.294,6.047,47.469,47.469,0,0,0,6.261,5.043c.853.577,1.565,1.013,2.063,1.3l.571.341A.978.978,0,0,1,231.218,235.211Z" transform="translate(-214.995 -219.565)" fill="#22417a"/>
                  </g>
                </g>
              </g>
            </g>
          </g>
        </g>
        <g id="Group_6714" data-name="Group 6714" transform="translate(19.746 91.589)">
          <g id="Group_6713" data-name="Group 6713">
            <g id="Group_6712" data-name="Group 6712">
              <path id="Path_12468" data-name="Path 12468" d="M203.918,245.24a4.78,4.78,0,0,1-.18-1.11,18.354,18.354,0,0,1-.065-3.073,19.764,19.764,0,0,1,3.221-9.541c2.087-3.338,4-6.345,5.406-8.508l1.687-2.547a4.761,4.761,0,0,1,.677-.9,4.905,4.905,0,0,1-.511,1q-.632,1.072-1.55,2.633c-1.328,2.21-3.192,5.246-5.278,8.582a20.635,20.635,0,0,0-3.3,9.3C203.8,243.632,204.028,245.235,203.918,245.24Z" transform="translate(-203.638 -219.564)" fill="#22417a"/>
            </g>
          </g>
        </g>
        <g id="Group_6717" data-name="Group 6717" transform="translate(22.05 106.221)">
          <g id="Group_6716" data-name="Group 6716">
            <g id="Group_6715" data-name="Group 6715">
              <path id="Path_12469" data-name="Path 12469" d="M220.977,249.606a12.613,12.613,0,0,1-3.353-.5,15.721,15.721,0,0,1-11.114-11.116,12.584,12.584,0,0,1-.5-3.353,1.012,1.012,0,0,1,.039.232c.023.153.036.38.083.668a16.64,16.64,0,0,0,.514,2.415,15.97,15.97,0,0,0,11.014,11.016,16.675,16.675,0,0,0,2.415.514c.288.047.515.059.668.082A1.047,1.047,0,0,1,220.977,249.606Z" transform="translate(-206.011 -234.638)" fill="#22417a"/>
            </g>
          </g>
        </g>
        <g id="Group_6720" data-name="Group 6720" transform="translate(14.944 88.052)">
          <g id="Group_6719" data-name="Group 6719">
            <g id="Group_6718" data-name="Group 6718">
              <path id="Path_12470" data-name="Path 12470" d="M211.014,215.921a.864.864,0,0,1-.17.119l-.5.307c-.443.256-1.066.661-1.811,1.191a25.844,25.844,0,0,0-8.808,11.027c-.352.843-.609,1.54-.761,2.03-.067.2-.128.382-.188.56a.848.848,0,0,1-.079.192.772.772,0,0,1,.04-.2c.048-.182.1-.37.152-.573a19.04,19.04,0,0,1,.7-2.061,24.558,24.558,0,0,1,8.858-11.089,19.015,19.015,0,0,1,1.854-1.142l.524-.275A.756.756,0,0,1,211.014,215.921Z" transform="translate(-198.69 -215.92)" fill="#22417a"/>
            </g>
          </g>
        </g>
        <g id="Group_6723" data-name="Group 6723" transform="translate(10.38 80.866)">
          <g id="Group_6722" data-name="Group 6722">
            <g id="Group_6721" data-name="Group 6721">
              <path id="Path_12471" data-name="Path 12471" d="M205.431,208.52a3.339,3.339,0,0,1-.552.2c-.359.107-.872.29-1.492.542a17.364,17.364,0,0,0-4.457,2.7,25.33,25.33,0,0,0-3.612,3.783c-.413.528-.742.962-.964,1.266a3.219,3.219,0,0,1-.365.458,3.243,3.243,0,0,1,.3-.5c.2-.318.514-.767.915-1.309a22.723,22.723,0,0,1,3.6-3.851,16.2,16.2,0,0,1,4.533-2.675,12.645,12.645,0,0,1,1.524-.484A3.235,3.235,0,0,1,205.431,208.52Z" transform="translate(-193.988 -208.518)" fill="#22417a"/>
            </g>
          </g>
        </g>
      </g>
    </g>
  </g>
</svg>
