<svg xmlns="http://www.w3.org/2000/svg" xmlns:xlink="http://www.w3.org/1999/xlink" width="210.821" height="74.107" viewBox="0 0 210.821 74.107">
  <defs>
    <clipPath id="clip-path">
      <rect width="210.821" height="74.107" fill="none"/>
    </clipPath>
  </defs>
  <g id="Repeat_Grid_6" data-name="Repeat Grid 6" clip-path="url(#clip-path)">
    <g transform="translate(-1472 -2365)">
      <circle id="Ellipse_42" data-name="Ellipse 42" cx="4" cy="4" r="4" transform="translate(1472 2365)" fill="#d0ccff"/>
    </g>
    <g transform="translate(-1448 -2365)">
      <circle id="Ellipse_42-2" data-name="Ellipse 42" cx="4" cy="4" r="4" transform="translate(1472 2365)" fill="#d0ccff"/>
    </g>
    <g transform="translate(-1424 -2365)">
      <circle id="Ellipse_42-3" data-name="Ellipse 42" cx="4" cy="4" r="4" transform="translate(1472 2365)" fill="#d0ccff"/>
    </g>
    <g transform="translate(-1400 -2365)">
      <circle id="Ellipse_42-4" data-name="Ellipse 42" cx="4" cy="4" r="4" transform="translate(1472 2365)" fill="#d0ccff"/>
    </g>
    <g transform="translate(-1376 -2365)">
      <circle id="Ellipse_42-5" data-name="Ellipse 42" cx="4" cy="4" r="4" transform="translate(1472 2365)" fill="#d0ccff"/>
    </g>
    <g transform="translate(-1352 -2365)">
      <circle id="Ellipse_42-6" data-name="Ellipse 42" cx="4" cy="4" r="4" transform="translate(1472 2365)" fill="#d0ccff"/>
    </g>
    <g transform="translate(-1328 -2365)">
      <circle id="Ellipse_42-7" data-name="Ellipse 42" cx="4" cy="4" r="4" transform="translate(1472 2365)" fill="#d0ccff"/>
    </g>
    <g transform="translate(-1304 -2365)">
      <circle id="Ellipse_42-8" data-name="Ellipse 42" cx="4" cy="4" r="4" transform="translate(1472 2365)" fill="#d0ccff"/>
    </g>
    <g transform="translate(-1280 -2365)">
      <circle id="Ellipse_42-9" data-name="Ellipse 42" cx="4" cy="4" r="4" transform="translate(1472 2365)" fill="#d0ccff"/>
    </g>
    <g transform="translate(-1472 -2343)">
      <circle id="Ellipse_42-10" data-name="Ellipse 42" cx="4" cy="4" r="4" transform="translate(1472 2365)" fill="#d0ccff"/>
    </g>
    <g transform="translate(-1448 -2343)">
      <circle id="Ellipse_42-11" data-name="Ellipse 42" cx="4" cy="4" r="4" transform="translate(1472 2365)" fill="#d0ccff"/>
    </g>
    <g transform="translate(-1424 -2343)">
      <circle id="Ellipse_42-12" data-name="Ellipse 42" cx="4" cy="4" r="4" transform="translate(1472 2365)" fill="#d0ccff"/>
    </g>
    <g transform="translate(-1400 -2343)">
      <circle id="Ellipse_42-13" data-name="Ellipse 42" cx="4" cy="4" r="4" transform="translate(1472 2365)" fill="#d0ccff"/>
    </g>
    <g transform="translate(-1376 -2343)">
      <circle id="Ellipse_42-14" data-name="Ellipse 42" cx="4" cy="4" r="4" transform="translate(1472 2365)" fill="#d0ccff"/>
    </g>
    <g transform="translate(-1352 -2343)">
      <circle id="Ellipse_42-15" data-name="Ellipse 42" cx="4" cy="4" r="4" transform="translate(1472 2365)" fill="#d0ccff"/>
    </g>
    <g transform="translate(-1328 -2343)">
      <circle id="Ellipse_42-16" data-name="Ellipse 42" cx="4" cy="4" r="4" transform="translate(1472 2365)" fill="#d0ccff"/>
    </g>
    <g transform="translate(-1304 -2343)">
      <circle id="Ellipse_42-17" data-name="Ellipse 42" cx="4" cy="4" r="4" transform="translate(1472 2365)" fill="#d0ccff"/>
    </g>
    <g transform="translate(-1280 -2343)">
      <circle id="Ellipse_42-18" data-name="Ellipse 42" cx="4" cy="4" r="4" transform="translate(1472 2365)" fill="#d0ccff"/>
    </g>
    <g transform="translate(-1472 -2321)">
      <circle id="Ellipse_42-19" data-name="Ellipse 42" cx="4" cy="4" r="4" transform="translate(1472 2365)" fill="#d0ccff"/>
    </g>
    <g transform="translate(-1448 -2321)">
      <circle id="Ellipse_42-20" data-name="Ellipse 42" cx="4" cy="4" r="4" transform="translate(1472 2365)" fill="#d0ccff"/>
    </g>
    <g transform="translate(-1424 -2321)">
      <circle id="Ellipse_42-21" data-name="Ellipse 42" cx="4" cy="4" r="4" transform="translate(1472 2365)" fill="#d0ccff"/>
    </g>
    <g transform="translate(-1400 -2321)">
      <circle id="Ellipse_42-22" data-name="Ellipse 42" cx="4" cy="4" r="4" transform="translate(1472 2365)" fill="#d0ccff"/>
    </g>
    <g transform="translate(-1376 -2321)">
      <circle id="Ellipse_42-23" data-name="Ellipse 42" cx="4" cy="4" r="4" transform="translate(1472 2365)" fill="#d0ccff"/>
    </g>
    <g transform="translate(-1352 -2321)">
      <circle id="Ellipse_42-24" data-name="Ellipse 42" cx="4" cy="4" r="4" transform="translate(1472 2365)" fill="#d0ccff"/>
    </g>
    <g transform="translate(-1328 -2321)">
      <circle id="Ellipse_42-25" data-name="Ellipse 42" cx="4" cy="4" r="4" transform="translate(1472 2365)" fill="#d0ccff"/>
    </g>
    <g transform="translate(-1304 -2321)">
      <circle id="Ellipse_42-26" data-name="Ellipse 42" cx="4" cy="4" r="4" transform="translate(1472 2365)" fill="#d0ccff"/>
    </g>
    <g transform="translate(-1280 -2321)">
      <circle id="Ellipse_42-27" data-name="Ellipse 42" cx="4" cy="4" r="4" transform="translate(1472 2365)" fill="#d0ccff"/>
    </g>
    <g transform="translate(-1472 -2299)">
      <circle id="Ellipse_42-28" data-name="Ellipse 42" cx="4" cy="4" r="4" transform="translate(1472 2365)" fill="#d0ccff"/>
    </g>
    <g transform="translate(-1448 -2299)">
      <circle id="Ellipse_42-29" data-name="Ellipse 42" cx="4" cy="4" r="4" transform="translate(1472 2365)" fill="#d0ccff"/>
    </g>
    <g transform="translate(-1424 -2299)">
      <circle id="Ellipse_42-30" data-name="Ellipse 42" cx="4" cy="4" r="4" transform="translate(1472 2365)" fill="#d0ccff"/>
    </g>
    <g transform="translate(-1400 -2299)">
      <circle id="Ellipse_42-31" data-name="Ellipse 42" cx="4" cy="4" r="4" transform="translate(1472 2365)" fill="#d0ccff"/>
    </g>
    <g transform="translate(-1376 -2299)">
      <circle id="Ellipse_42-32" data-name="Ellipse 42" cx="4" cy="4" r="4" transform="translate(1472 2365)" fill="#d0ccff"/>
    </g>
    <g transform="translate(-1352 -2299)">
      <circle id="Ellipse_42-33" data-name="Ellipse 42" cx="4" cy="4" r="4" transform="translate(1472 2365)" fill="#d0ccff"/>
    </g>
    <g transform="translate(-1328 -2299)">
      <circle id="Ellipse_42-34" data-name="Ellipse 42" cx="4" cy="4" r="4" transform="translate(1472 2365)" fill="#d0ccff"/>
    </g>
    <g transform="translate(-1304 -2299)">
      <circle id="Ellipse_42-35" data-name="Ellipse 42" cx="4" cy="4" r="4" transform="translate(1472 2365)" fill="#d0ccff"/>
    </g>
    <g transform="translate(-1280 -2299)">
      <circle id="Ellipse_42-36" data-name="Ellipse 42" cx="4" cy="4" r="4" transform="translate(1472 2365)" fill="#d0ccff"/>
    </g>
  </g>
</svg>
