<svg xmlns="http://www.w3.org/2000/svg" width="66.355" height="66.141" viewBox="0 0 66.355 66.141">
  <g id="_001-24-hours-delivery" data-name="001-24-hours-delivery" transform="translate(0 -0.826)">
    <path id="Path_12994" data-name="Path 12994" d="M294.277,30.546a1.945,1.945,0,1,0,2.065-3.3A1.945,1.945,0,1,0,294.277,30.546Z" transform="translate(-255.323 -22.715)" fill="#7e75e4"/>
    <path id="Path_12995" data-name="Path 12995" d="M334.422,61.373a1.944,1.944,0,0,0,2.765-2.732A1.944,1.944,0,1,0,334.422,61.373Z" transform="translate(-290.533 -49.743)" fill="#7e75e4"/>
    <path id="Path_12996" data-name="Path 12996" d="M365.234,101.422a1.945,1.945,0,1,0,3.3-2.061A1.945,1.945,0,1,0,365.234,101.422Z" transform="translate(-317.632 -84.929)" fill="#7e75e4"/>
    <path id="Path_12997" data-name="Path 12997" d="M384.639,148.085a1.945,1.945,0,1,0,3.789-.878A1.945,1.945,0,1,0,384.639,148.085Z" transform="translate(-334.75 -126.07)" fill="#7e75e4"/>
    <path id="Path_12998" data-name="Path 12998" d="M247.64,11.293a1.945,1.945,0,1,0,1.141-3.718A1.945,1.945,0,1,0,247.64,11.293Z" transform="translate(-214.328 -5.793)" fill="#7e75e4"/>
    <path id="Path_12999" data-name="Path 12999" d="M113.388,146.768a1.944,1.944,0,0,0,1.944-1.944v-7.917a1.944,1.944,0,0,0-1.944-1.944h-8.456a1.944,1.944,0,0,0,0,3.887h6.512v4.03h-6.051a1.944,1.944,0,0,0-1.944,1.944V152.9a1.944,1.944,0,0,0,1.944,1.944h7.994a1.944,1.944,0,1,0,0-3.887h-6.051v-4.184Z" transform="translate(-89.645 -116.758)" fill="#f36290"/>
    <path id="Path_13000" data-name="Path 13000" d="M225.8,144.9a1.944,1.944,0,0,0,1.944,1.944h6.2V152.9a1.944,1.944,0,1,0,3.887,0V136.908a1.944,1.944,0,0,0-3.887,0v6.051h-4.261v-6.051a1.944,1.944,0,0,0-3.887,0Z" transform="translate(-196.541 -116.758)" fill="#f36290"/>
    <path id="Path_13001" data-name="Path 13001" d="M64.412,40.55H51.636a27.832,27.832,0,0,0,3-12.406v0A1.942,1.942,0,0,0,52.692,26.2l-.03,0H47.855a1.944,1.944,0,0,0,0,3.887h2.807A24.29,24.29,0,0,1,47.194,40.55H40.972a1.944,1.944,0,0,0-1.944,1.944v5.934a23.957,23.957,0,0,1-11.711,3.147A23.431,23.431,0,0,1,25.424,4.79V7.607a1.944,1.944,0,1,0,3.887,0V2.772A1.981,1.981,0,0,0,27.318.826a27.318,27.318,0,1,0,0,54.635A27.779,27.779,0,0,0,39.028,52.8V65.024a1.944,1.944,0,0,0,1.944,1.944h23.44a1.944,1.944,0,0,0,1.944-1.944V42.493a1.943,1.943,0,0,0-1.944-1.944Zm-13.73,3.887H54.7v3.245h-4.02ZM62.468,63.08H42.915V44.437h3.879v5.189a1.944,1.944,0,0,0,1.944,1.944h7.907a1.944,1.944,0,0,0,1.944-1.944V44.437h3.879V63.08Z" transform="translate(0 0)" fill="#0094c4"/>
    <text id="_" data-name="$" transform="translate(52.114 59.659)" fill="#7e75e4" font-size="10" font-family="Muli-Bold, Muli" font-weight="700" letter-spacing="0.02em"><tspan x="-3" y="0">$</tspan></text>
  </g>
</svg>
