<svg id="_001-speedometer" data-name="001-speedometer" xmlns="http://www.w3.org/2000/svg" width="53.049" height="52.813" viewBox="0 0 53.049 52.813">
  <path id="Path_13016" data-name="Path 13016" d="M43.1,52.813H9.947A9.924,9.924,0,0,1,0,42.91V9.9A9.924,9.924,0,0,1,9.947,0H43.1a9.924,9.924,0,0,1,9.947,9.9V42.91A9.924,9.924,0,0,1,43.1,52.813Z" fill="#ffe6e2"/>
  <path id="Path_13017" data-name="Path 13017" d="M27.17,23.9h-15.4a1.1,1.1,0,0,1-1.1-1.16A9.027,9.027,0,0,1,19.468,14a9.03,9.03,0,0,1,8.8,8.742,1.1,1.1,0,0,1-1.1,1.16ZM13.018,21.7h12.9a6.74,6.74,0,0,0-6.45-5.5A6.738,6.738,0,0,0,13.018,21.7Z" transform="translate(7.057 9.106)" fill="#fcb3b3"/>
  <path id="Path_13018" data-name="Path 13018" d="M15.556,20.073l2.751-2.751a1.1,1.1,0,0,1,1.556,1.556l-2.751,2.751c-.216.215-1.987-1.127-1.556-1.556Z" transform="translate(10.199 11.057)" fill="#fcb3b3"/>
  <path id="Path_13019" data-name="Path 13019" d="M31.106,8.667H11.3a3.3,3.3,0,0,0-3.3,3.3v17.6a3.3,3.3,0,0,0,3.3,3.3h19.8a3.3,3.3,0,0,0,3.3-3.3v-17.6A3.3,3.3,0,0,0,31.106,8.667Zm0,22H11.3a1.1,1.1,0,0,1-1.1-1.1v-15.4h22v15.4A1.1,1.1,0,0,1,31.106,30.672Z" transform="translate(5.321 5.637)" fill="#fd907e"/>
</svg>
