<svg id="_002-monitor" data-name="002-monitor" xmlns="http://www.w3.org/2000/svg" width="52.813" height="52.813" viewBox="0 0 52.813 52.813">
  <path id="Path_13020" data-name="Path 13020" d="M42.91,52.813H9.9A9.9,9.9,0,0,1,0,42.91V9.9A9.9,9.9,0,0,1,9.9,0H42.91a9.9,9.9,0,0,1,9.9,9.9V42.91A9.9,9.9,0,0,1,42.91,52.813Z" fill="#f5e6fe"/>
  <path id="Path_13021" data-name="Path 13021" d="M22.569,23.534h-2.2v-2.2h-4.4v2.2h-2.2a1.1,1.1,0,1,0,0,2.2h8.8a1.1,1.1,0,0,0,0-2.2Z" transform="translate(8.239 13.876)" fill="#d9a4fc"/>
  <path id="Path_13022" data-name="Path 13022" d="M32.48,10.667H26.539a7.629,7.629,0,0,1,.165,1.584v.616h5.5v13.2h-22v-13.2h5.5v-.616a7.629,7.629,0,0,1,.165-1.584H9.924A1.934,1.934,0,0,0,8,12.591V26.344A1.936,1.936,0,0,0,9.926,28.27H32.482a1.936,1.936,0,0,0,1.926-1.926V12.591A1.937,1.937,0,0,0,32.48,10.667Z" transform="translate(5.203 6.938)" fill="#be63f9"/>
  <g id="Group_7884" data-name="Group 7884" transform="translate(20.906 13.202)">
    <path id="Path_13023" data-name="Path 13023" d="M23.119,22.293h-9.9a.549.549,0,0,1-.55-.55V20.455a2.734,2.734,0,0,1,.805-1.946l1.395-1.4V13.985a6.084,6.084,0,0,1,1.254-3.69L17.73,8.2a.571.571,0,0,1,.873,0l1.609,2.093a6.084,6.084,0,0,1,1.254,3.69v3.128l1.395,1.395a2.731,2.731,0,0,1,.805,1.946v1.289A.548.548,0,0,1,23.119,22.293Z" transform="translate(-12.667 -7.999)" fill="#d9a4fc"/>
    <path id="Path_13024" data-name="Path 13024" d="M18.1,19.511a1.1,1.1,0,0,1-1.1-1.1V16.76a1.1,1.1,0,0,1,2.2,0v1.65A1.1,1.1,0,0,1,18.1,19.511Z" transform="translate(-9.849 -3.017)" fill="#d9a4fc"/>
    <path id="Path_13025" data-name="Path 13025" d="M14.767,19.511a1.1,1.1,0,0,1-1.1-1.1V16.76a1.1,1.1,0,0,1,2.2,0v1.65A1.1,1.1,0,0,1,14.767,19.511Z" transform="translate(-12.017 -3.017)" fill="#d9a4fc"/>
  </g>
</svg>
