<svg xmlns="http://www.w3.org/2000/svg" width="64.324" height="66.206" viewBox="0 0 64.324 66.206">
  <g id="_002-around-the-world" data-name="002-around-the-world" transform="translate(-7.278)">
    <path id="Path_13002" data-name="Path 13002" d="M129.017,118.829A21.1,21.1,0,0,0,108.082,97.75l-.146,0a21.081,21.081,0,0,0-.01,42.162h.012a21.105,21.105,0,0,0,21.079-21.081Zm-3.988-1.939H116.77c-.295-6.943-2.167-11.616-3.986-14.567A17.247,17.247,0,0,1,125.029,116.89Zm-17.054,18.453a15.15,15.15,0,0,1-1.78-2.511,26.527,26.527,0,0,1-3.122-12.064h9.812a26.952,26.952,0,0,1-2.989,11.807A15.5,15.5,0,0,1,107.975,135.343Zm-4.9-18.453a26.952,26.952,0,0,1,2.989-11.807,15.5,15.5,0,0,1,1.921-2.768,15.145,15.145,0,0,1,1.78,2.511,26.527,26.527,0,0,1,3.122,12.064h-9.812Zm.138-14.6c-1.825,2.952-3.717,7.64-4.021,14.6h-8.35A17.248,17.248,0,0,1,103.214,102.285Zm-12.37,18.483h8.348c.3,6.967,2.181,11.65,4.006,14.6A17.248,17.248,0,0,1,90.843,120.768Zm21.923,14.573c1.819-2.954,3.7-7.632,4-14.573h8.261A17.247,17.247,0,0,1,112.766,135.341Z" transform="translate(-69.29 -85.112)" fill="#f36290"/>
    <path id="Path_13003" data-name="Path 13003" d="M67.2,46.834a29.48,29.48,0,0,0,2.818-13.116A31.368,31.368,0,0,0,38.646,2.349,28.7,28.7,0,0,0,23.339,6.316,7.991,7.991,0,1,0,8.705,12.155l3.184,5.125A28.678,28.678,0,0,0,7.278,33.717,31.164,31.164,0,0,0,16.466,55.9a31.565,31.565,0,0,0,34.081,6.9,30.31,30.31,0,0,0,7.825-4.667l4.446,7.158a1.939,1.939,0,0,0,1.647.916h.042a1.939,1.939,0,0,0,1.648-.988l4.484-7.973A7.412,7.412,0,0,0,67.2,46.834ZM15.525,3.878a4.118,4.118,0,0,1,4.114,4.114c.18,1.644-3.285,6.624-3.935,8.079-.831-1.655-4.431-6.194-4.293-8.079A4.119,4.119,0,0,1,15.525,3.878ZM38.646,61.207a27.521,27.521,0,0,1-27.49-27.49,25.133,25.133,0,0,1,3.026-12.751,1.938,1.938,0,0,0,1.605.853h.042a1.939,1.939,0,0,0,1.648-.988l4.991-8.875c.094-.181.15-.27.357-.714A25.33,25.33,0,0,1,38.646,6.227a27.521,27.521,0,0,1,27.49,27.49,25.509,25.509,0,0,1-3.017,12.575,7.388,7.388,0,0,0-6.266,7.293q0,.355.034.708A26.684,26.684,0,0,1,38.646,61.207Zm28.619-5.882c-.089.178-2.8,4.975-2.882,5.132-.733-1.472-3.71-5.137-3.651-6.872a3.5,3.5,0,1,1,6.534,1.74Z" transform="translate(0)" fill="#0094c4"/>
    <circle id="Ellipse_165" data-name="Ellipse 165" cx="1.884" cy="1.884" r="1.884" transform="matrix(0.987, -0.16, 0.16, 0.987, 13.362, 6.434)" fill="#7e75e4"/>
    <circle id="Ellipse_166" data-name="Ellipse 166" cx="1.884" cy="1.884" r="1.884" transform="translate(61.555 53.689) rotate(-45)" fill="#7e75e4"/>
  </g>
</svg>
