<svg id="_007-priority" data-name="007-priority" xmlns="http://www.w3.org/2000/svg" width="58.679" height="59.348" viewBox="0 0 58.679 59.348">
  <path id="Path_12984" data-name="Path 12984" d="M281.315,125.157a5.157,5.157,0,1,0-5.157,5.157A5.163,5.163,0,0,0,281.315,125.157Zm-5.157,1.719a1.719,1.719,0,1,1,1.719-1.719A1.721,1.721,0,0,1,276.157,126.876Zm0,0" transform="translate(-239.941 -106.057)" fill="#f36290"/>
  <path id="Path_12985" data-name="Path 12985" d="M257.42,218.825a8.711,8.711,0,1,0-17.42,0v5.157h17.42Zm-3.438,1.719H243.438v-1.719a5.273,5.273,0,1,1,10.544,0Zm0,0" transform="translate(-212.494 -185.572)" fill="#f36290"/>
  <path id="Path_12986" data-name="Path 12986" d="M51.8,5.216A5.193,5.193,0,0,0,46.645,0H8.6A5.193,5.193,0,0,0,3.438,5.216v5.216h6.876v7.89a6.973,6.973,0,0,0-3.438,6.019c0,1.37.12,1.073,3,14.141H7.356L3.918,48.915H0V59.348H53.522a5.193,5.193,0,0,0,5.157-5.216V48.915H51.8ZM6.876,6.955V5.216A1.732,1.732,0,0,1,8.6,3.476H41.783a5.256,5.256,0,0,0-.3,1.74V6.955H6.876Zm3.438,17.387a3.438,3.438,0,1,1,6.876,0c0,.729-.008.3-3.091,14.141h-.694c-3.189-14.312-3.091-13.446-3.091-14.141Zm-.48,17.619h7.836l2.292,6.955H7.543ZM24.068,55.87H3.438V52.393H24.068Zm-.48-6.955L20.149,38.483H17.626c2.879-13.045,3-12.771,3-14.141a6.924,6.924,0,0,0-6.876-6.955V10.432H44.926V5.216a1.719,1.719,0,1,1,3.438,0V54.131a5.248,5.248,0,0,0,.3,1.739H27.506V48.915Zm31.653,5.216a1.719,1.719,0,1,1-3.438,0V52.393h3.438Zm0,0" fill="#0094c4"/>
  <path id="Path_12987" data-name="Path 12987" d="M276.157,362a5.157,5.157,0,1,0,5.157,5.157A5.163,5.163,0,0,0,276.157,362Zm0,6.876a1.719,1.719,0,1,1,1.719-1.719A1.721,1.721,0,0,1,276.157,368.876Zm0,0" transform="translate(-239.941 -319.844)" fill="#7e75e4"/>
</svg>
