<svg id="_003-siren" data-name="003-siren" xmlns="http://www.w3.org/2000/svg" width="57.249" height="57.249" viewBox="0 0 57.249 57.249">
  <path id="Path_13004" data-name="Path 13004" d="M55.572,47.158H53.765l-2.9-40.634A7.05,7.05,0,0,0,43.856,0H13.393A7.049,7.049,0,0,0,6.386,6.524l-2.9,40.634H1.677A1.677,1.677,0,0,0,0,48.835v6.737a1.677,1.677,0,0,0,1.677,1.677H55.572a1.677,1.677,0,0,0,1.677-1.677V48.835A1.677,1.677,0,0,0,55.572,47.158ZM26.933,33.548a11.795,11.795,0,0,0,3.382,0v13.61H26.933Zm1.691-3.233a8.428,8.428,0,1,1,8.428-8.428A8.438,8.438,0,0,1,28.625,30.316ZM9.732,6.763a3.683,3.683,0,0,1,3.661-3.409H43.856a3.683,3.683,0,0,1,3.661,3.409L50.4,47.158H33.67V32.534a11.782,11.782,0,1,0-10.091,0V47.158H6.847ZM53.895,53.895H3.354V50.512h50.54Z" transform="translate(0 0)" fill="#0094c4"/>
  <path id="Path_13005" data-name="Path 13005" d="M215.921,160.716a5.046,5.046,0,1,0-5.046-5.046A5.051,5.051,0,0,0,215.921,160.716Zm0-6.737a1.691,1.691,0,1,1-1.691,1.691A1.693,1.693,0,0,1,215.921,153.979Z" transform="translate(-187.296 -133.783)" fill="#f36290"/>
  <path id="Path_13006" data-name="Path 13006" d="M27.723,16.842l-.082,5.33H33.2l-4.468-1.2,7.706-7.016-8.362,7.2Z" transform="translate(1 0)" fill="none" stroke="#7e75e4" stroke-width="2"/>
</svg>
