<svg xmlns="http://www.w3.org/2000/svg" width="42.887" height="44.271" viewBox="0 0 42.887 44.271">
  <g id="API_Integration_Service" data-name="API Integration Service" transform="translate(-8)">
    <path id="Path_20529" data-name="Path 20529" d="M47.613,16.766A8.446,8.446,0,0,0,39.482,6.049a8.557,8.557,0,0,0-.993.057,9.756,9.756,0,0,0-18.094,0,8.6,8.6,0,0,0-.993-.057,8.446,8.446,0,0,0-8.128,10.717,6.994,6.994,0,0,0,3.717,12.916h1.324v2.812a1.832,1.832,0,0,0,1.83,1.83h.342a11.28,11.28,0,0,0,.957,2.309l-.24.24a1.832,1.832,0,0,0,0,2.592l1.916,1.919a1.836,1.836,0,0,0,2.587,0l.244-.243a11.279,11.279,0,0,0,2.307.956v.342a1.835,1.835,0,0,0,1.833,1.833H30.8a1.835,1.835,0,0,0,1.833-1.833V42.1a11.335,11.335,0,0,0,2.306-.956l.242.242a1.834,1.834,0,0,0,2.59,0l1.918-1.919a1.837,1.837,0,0,0,0-2.588l-.242-.242a11.391,11.391,0,0,0,.957-2.308h.34a1.833,1.833,0,0,0,1.833-1.83V29.682H43.9a6.994,6.994,0,0,0,3.717-12.916Zm-6.77,15.728a.1.1,0,0,1-.1.1H39.73a.865.865,0,0,0-.843.674,9.689,9.689,0,0,1-1.26,3.04.865.865,0,0,0,.12,1.073l.715.716a.108.108,0,0,1,0,.145l-1.916,1.917a.107.107,0,0,1-.145,0l-.715-.716a.865.865,0,0,0-1.073-.12,9.626,9.626,0,0,1-3.036,1.258.865.865,0,0,0-.675.844v1.012a.107.107,0,0,1-.1.1H28.09a.106.106,0,0,1-.1-.1V41.425a.865.865,0,0,0-.676-.844,9.581,9.581,0,0,1-3.035-1.257.864.864,0,0,0-1.073.118l-.719.717a.106.106,0,0,1-.144,0l-1.914-1.917a.1.1,0,0,1-.03-.074.1.1,0,0,1,.03-.071l.716-.716a.865.865,0,0,0,.119-1.074A9.572,9.572,0,0,1,20,33.271a.865.865,0,0,0-.844-.676H18.145a.1.1,0,0,1-.1-.1V29.682h4.028a7.515,7.515,0,1,0,14.742,0h4.029v2.812ZM43.9,27.953H33.324a.865.865,0,0,0,0,1.729h1.717a5.784,5.784,0,1,1-11.2,0h1.716a.865.865,0,0,0,0-1.729H14.991a5.264,5.264,0,0,1-2.3-10,.865.865,0,0,0,.431-1.084A6.716,6.716,0,0,1,19.4,7.778a6.6,6.6,0,0,1,1.382.142.865.865,0,0,0,1.006-.585,8.025,8.025,0,0,1,15.3,0,.864.864,0,0,0,1.005.585,6.632,6.632,0,0,1,1.383-.143,6.716,6.716,0,0,1,6.278,9.091.865.865,0,0,0,.431,1.084,5.264,5.264,0,0,1-2.3,10Z" transform="translate(0 0)" fill="#037ca4"/>
    <path id="Path_20530" data-name="Path 20530" d="M352.478,141.875a.865.865,0,0,0-.865.865v8.529a.865.865,0,1,0,1.729,0V142.74A.865.865,0,0,0,352.478,141.875Z" transform="translate(-313.902 -129.608)" fill="#7e75e4"/>
    <path id="Path_20531" data-name="Path 20531" d="M247.283,141.875h-2.419a.874.874,0,0,0-.865.865v8.686a.865.865,0,1,0,1.729,0v-2.913c.538,0,1.2-.007,1.554-.007a3.316,3.316,0,1,0,0-6.631Zm0,4.9c-.354,0-1.005,0-1.541.007,0-.553-.005-1.231-.005-1.593,0-.307,0-1.011,0-1.586h1.551a1.587,1.587,0,1,1,0,3.173Z" transform="translate(-215.594 -129.608)" fill="#7e75e4"/>
    <path id="Path_20532" data-name="Path 20532" d="M119.263,142.55l-.007-.018a1.06,1.06,0,0,0-1.967,0l-.006.015-3.262,8.564a.865.865,0,0,0,1.616.616l.6-1.575h4.046l.594,1.573a.865.865,0,1,0,1.618-.611Zm-2.367,5.872,1.374-3.606,1.361,3.606Z" transform="translate(-96.803 -129.6)" fill="#7e75e4"/>
    <path id="Path_20533" data-name="Path 20533" d="M246.85,323.285a.865.865,0,1,0,0,1.729h.005a.865.865,0,1,0-.005-1.729Z" transform="translate(-217.408 -295.332)" fill="#7e75e4"/>
  </g>
</svg>
