<svg xmlns="http://www.w3.org/2000/svg" width="41.551" height="41.543" viewBox="0 0 41.551 41.543">
  <g id="Laravel_Migration_Services" data-name="Laravel Migration Services" transform="translate(-1.987 -2)">
    <path id="Path_20552" data-name="Path 20552" d="M37.307,22.771a6.231,6.231,0,1,0,0-12.463H35.881a6.215,6.215,0,0,0-9.818-4.362A10.373,10.373,0,0,0,7.75,10.336a6.226,6.226,0,0,0,.478,12.435H20v2.769H16.536A3.462,3.462,0,0,0,13.074,29v9A2.083,2.083,0,0,1,11,40.08H7.438a2.769,2.769,0,1,0,0,1.385H11A3.462,3.462,0,0,0,14.459,38V29a2.083,2.083,0,0,1,2.077-2.077H20V31.08c0,.921.838,1.592,2.077,2.049v9.029H20v1.385h2.769a.692.692,0,0,0,.692-.692V33.517a16.765,16.765,0,0,0,2.769.318v6.938a.692.692,0,0,0,.692.692H33.25a2.769,2.769,0,1,0,0-1.385H27.614V33.835c3.123-.111,6.231-.983,6.231-2.756V29.695h2.077a.692.692,0,0,1,.692.692v5.539a.692.692,0,0,0,.692.692h3.462V35.234H38V30.387a2.083,2.083,0,0,0-2.077-2.077H33.845V22.771ZM4.765,42.158A1.385,1.385,0,1,1,6.15,40.773,1.385,1.385,0,0,1,4.765,42.158Zm31.157-2.769a1.385,1.385,0,1,1-1.385,1.385,1.385,1.385,0,0,1,1.385-1.385ZM32.46,31.08c0,.353-1.9,1.385-5.539,1.385s-5.539-1.032-5.539-1.385V28.67a13.062,13.062,0,0,0,5.539,1.025A13.062,13.062,0,0,0,32.46,28.67Zm0-4.154c0,.353-1.9,1.385-5.539,1.385s-5.539-1.032-5.539-1.385V24.516a13.062,13.062,0,0,0,5.539,1.025,13.062,13.062,0,0,0,5.539-1.025Zm0-4.154c0,.353-1.9,1.385-5.539,1.385s-5.539-1.032-5.539-1.385V20.362a13.062,13.062,0,0,0,5.539,1.025,13.062,13.062,0,0,0,5.539-1.025ZM26.921,20c-3.635,0-5.539-1.032-5.539-1.385s1.9-1.385,5.539-1.385,5.539,1.032,5.539,1.385S30.556,20,26.921,20Zm.692-4.14v-1.4a2.083,2.083,0,0,0-2.077-2.077H21.978a2.769,2.769,0,1,0,0,1.385h3.559a.692.692,0,0,1,.692.692v1.4c-3.123.111-6.231.983-6.231,2.756v2.769H8.227a4.847,4.847,0,1,1,0-9.693H8.31a4.876,4.876,0,0,1,4.764,4.847h1.385a6.265,6.265,0,0,0-5.31-6.155,9,9,0,0,1,17.565.076l1.35-.3a10.316,10.316,0,0,0-1.226-3.067,4.847,4.847,0,0,1,6.64,6.944l1.08.865a6.3,6.3,0,0,0,1.322-3.206h1.426a4.847,4.847,0,1,1,0,9.693H33.845V20h2.077a.692.692,0,0,0,.692-.692V16.54h.692V15.155H35.922a.692.692,0,0,0-.692.692v2.769H33.845c0-1.772-3.109-2.645-6.231-2.756ZM20.69,13.078a1.385,1.385,0,1,1-1.385-1.385A1.385,1.385,0,0,1,20.69,13.078Z" transform="translate(0 0)" fill="#037ca4"/>
    <path id="Path_20553" data-name="Path 20553" d="M60,50h1.385v1.385H60Z" transform="translate(-17.846 -14.766)" fill="#7e75e4"/>
    <path id="Path_20554" data-name="Path 20554" d="M24,60h1.385v1.385H24Z" transform="translate(-6.772 -17.842)" fill="#7e75e4"/>
    <path id="Path_20555" data-name="Path 20555" d="M7.385,21.462a2.077,2.077,0,0,1,2.077-2.077V18a3.462,3.462,0,1,0,0,6.924H15V23.539H9.462A2.077,2.077,0,0,1,7.385,21.462Z" transform="translate(-1.235 -4.922)" fill="#7e75e4"/>
    <path id="Path_20556" data-name="Path 20556" d="M55,21h1.385v1.385H55Z" transform="translate(-16.308 -5.845)" fill="#7e75e4"/>
  </g>
</svg>
