<svg xmlns="http://www.w3.org/2000/svg" width="41.262" height="41.262" viewBox="0 0 41.262 41.262">
  <g id="Laravel_Extension_Development" data-name="Laravel Extension Development" transform="translate(-1 -1)">
    <path id="Path_20541" data-name="Path 20541" d="M0,0H1.322V1.33H0Z" transform="matrix(0.821, -0.572, 0.572, 0.821, 15.53, 33.735)" fill="#7e75e4"/>
    <path id="Path_20542" data-name="Path 20542" d="M0,0H11.036V1.33H0Z" transform="matrix(0.821, -0.572, 0.572, 0.821, 17.945, 32.052)" fill="#7e75e4"/>
    <path id="Path_20543" data-name="Path 20543" d="M40.508,10.043a10.578,10.578,0,0,0-.919-2.217l.949-1.533L36.969,2.724l-1.533.949a10.578,10.578,0,0,0-2.217-.919L32.806,1H27.759l-.413,1.754a10.578,10.578,0,0,0-2.217.919L23.6,2.724,20.027,6.293l.949,1.533a10.578,10.578,0,0,0-.919,2.217l-1.754.413v1.275a2.445,2.445,0,0,0-.876.409l-4.493,3.369a.67.67,0,0,1-.4.133H10.909a4.66,4.66,0,1,0-6.042.4A5.994,5.994,0,0,0,1,21.631V39.6a2.665,2.665,0,0,0,2.662,2.662h38.6V10.456ZM4.328,12.314a3.328,3.328,0,1,1,3.328,3.328A3.331,3.331,0,0,1,4.328,12.314Zm-2,9.317A4.665,4.665,0,0,1,6.99,16.972h5.546a2.006,2.006,0,0,0,1.2-.4L18.225,13.2a1.134,1.134,0,0,1,.674-.224h.278a1.123,1.123,0,0,1,.689,2.009l-4.218,3.281a3.344,3.344,0,0,1-2.043.7H8.321v7.321h2.662a2,2,0,0,1,2,2v5.989a1.331,1.331,0,1,1-2.663,0V30.283a1.332,1.332,0,0,0-1.331-1.331H4.328a2,2,0,0,1-2-2Zm8.652,3.328H9.652V20.3h3.954a4.675,4.675,0,0,0,2.86-.982L20.215,16.4a10.508,10.508,0,0,0,.761,1.73l-.949,1.533L23.6,23.235l1.533-.949a10.567,10.567,0,0,0,1.3.6L14.31,31.319V28.286A3.331,3.331,0,0,0,10.983,24.958ZM6.324,30.283H8.986v3.992h0a2.671,2.671,0,0,0,.1.673L6.324,36.874ZM2.331,39.6v-10a3.293,3.293,0,0,0,2,.683h.666V39.6a1.331,1.331,0,1,1-2.662,0Zm38.6,1.331H5.954a2.635,2.635,0,0,0,.37-1.331V38.5l3.407-2.381c.012.013.021.028.033.041a2.663,2.663,0,0,0,4.545-1.883V32.941l13.17-9.167.279,1.185h5.047l.413-1.754a10.578,10.578,0,0,0,2.217-.919l1.533.949,3.569-3.569-.949-1.533a10.578,10.578,0,0,0,.919-2.217l.423-.1Zm0-26.482-1.513.356-.1.4a9.237,9.237,0,0,1-1.076,2.6l-.212.348.818,1.322-2.078,2.078-1.322-.818-.348.212a9.237,9.237,0,0,1-2.6,1.076l-.4.1-.357,1.513H28.813l-.356-1.513-.4-.1a9.237,9.237,0,0,1-2.6-1.076l-.348-.212-1.322.818-2.078-2.078.818-1.322-.212-.348a9.215,9.215,0,0,1-1.038-2.462,2.429,2.429,0,0,0-1.649-3.642V11.51l1.513-.356.1-.4a9.237,9.237,0,0,1,1.076-2.6l.212-.348L21.714,6.49l2.078-2.078,1.322.818.348-.212a9.237,9.237,0,0,1,2.6-1.076l.4-.1.357-1.514h2.939l.356,1.513.4.1a9.237,9.237,0,0,1,2.6,1.076l.348.212,1.322-.818L38.85,6.489l-.818,1.322.212.348a9.237,9.237,0,0,1,1.076,2.6l.1.4,1.513.357v2.939Z" fill="#037ca4"/>
    <path id="Path_20544" data-name="Path 20544" d="M40.986,7a7.986,7.986,0,1,0,7.986,7.986A8,8,0,0,0,40.986,7Zm0,14.641a6.655,6.655,0,1,1,6.655-6.655A6.663,6.663,0,0,1,40.986,21.641Z" transform="translate(-10.704 -2.007)" fill="#7e75e4"/>
    <path id="Path_20545" data-name="Path 20545" d="M42.993,13a3.993,3.993,0,1,0,3.993,3.993A4,4,0,0,0,42.993,13Zm0,6.655a2.662,2.662,0,1,1,2.662-2.662A2.665,2.665,0,0,1,42.993,19.655Z" transform="translate(-12.711 -4.014)" fill="#7e75e4"/>
    <path id="Path_20546" data-name="Path 20546" d="M57,57h1.331v1.331H57Z" transform="translate(-18.731 -18.731)" fill="#7e75e4"/>
    <path id="Path_20547" data-name="Path 20547" d="M57,53h1.331v1.331H57Z" transform="translate(-18.731 -17.393)" fill="#7e75e4"/>
    <path id="Path_20548" data-name="Path 20548" d="M57,49h1.331v1.331H57Z" transform="translate(-18.731 -16.055)" fill="#7e75e4"/>
    <path id="Path_20549" data-name="Path 20549" d="M11,57h1.331v1.331H11Z" transform="translate(-3.345 -18.731)" fill="#7e75e4"/>
    <path id="Path_20550" data-name="Path 20550" d="M15,57h1.331v1.331H15Z" transform="translate(-4.683 -18.731)" fill="#7e75e4"/>
    <path id="Path_20551" data-name="Path 20551" d="M19,57h1.331v1.331H19Z" transform="translate(-6.021 -18.731)" fill="#7e75e4"/>
  </g>
</svg>
