<svg xmlns="http://www.w3.org/2000/svg" width="45.294" height="40.362" viewBox="0 0 45.294 40.362">
  <g id="Laravel_eCommerce" data-name="Laravel eCommerce" transform="translate(0 -27.87)">
    <path id="Path_20557" data-name="Path 20557" d="M42.861,31.161H30.926l-.037,0a12.205,12.205,0,0,0-1.408-1.139.664.664,0,1,0-.755,1.091,10.785,10.785,0,1,1-2.694-1.353.663.663,0,0,0,.424-1.257,12.182,12.182,0,1,0,5.65,3.983H42.861a1.107,1.107,0,0,1,1.106,1.106V54.476H38.719a.663.663,0,1,0,0,1.327h5.248v3.484a1.107,1.107,0,0,1-1.106,1.106H2.433a1.107,1.107,0,0,1-1.106-1.106V55.8H35.378a.663.663,0,1,0,0-1.327H1.327V33.594a1.107,1.107,0,0,1,1.106-1.106h7.912a.663.663,0,1,0,0-1.327H2.433A2.436,2.436,0,0,0,0,33.594V59.288a2.436,2.436,0,0,0,2.433,2.433H16.976v5.185h-2a.663.663,0,1,0,0,1.327H30.159a.663.663,0,1,0,0-1.327h-2V61.721H42.861a2.436,2.436,0,0,0,2.433-2.433V33.594A2.436,2.436,0,0,0,42.861,31.161ZM26.829,66.906H18.3V61.721h8.526Z" fill="#037ca4"/>
    <path id="Path_20558" data-name="Path 20558" d="M171.4,92.15a1.591,1.591,0,0,0-1.562-1.295h-.709a.663.663,0,0,0,0,1.327h.709a.262.262,0,0,1,.258.214l1.964,10.4a.664.664,0,0,0,.652.54h.448a1.238,1.238,0,1,0,1.844,0h2.729a1.238,1.238,0,1,0,1.844,0h.6a.663.663,0,1,0,0-1.327h-6.913L173,100.576h7.415a.663.663,0,0,0,.652-.54l1.178-6.213,0-.012a.8.8,0,0,0-.786-.932h-9.913Zm.99,5.241h1.81l.136,1.858h-1.6Zm4.738,0L177,99.249h-1.326l-.136-1.858Zm-1.694-1.327-.136-1.858h2.063l-.136,1.858Zm2.889,3.185.136-1.858h1.75l-.352,1.858Zm2.138-3.185h-1.9l.136-1.858h2.121Zm-6.493-1.858.136,1.858h-1.964l-.351-1.858Z" transform="translate(-153.566 -57.413)" fill="#7e75e4"/>
    <path id="Path_20559" data-name="Path 20559" d="M42.014,261.428h3.924a.663.663,0,1,0,0-1.327H42.014a.663.663,0,1,0,0,1.327Z" transform="translate(-37.693 -211.687)" fill="#7e75e4"/>
    <path id="Path_20560" data-name="Path 20560" d="M42.014,295.257h7.323a.663.663,0,1,0,0-1.327H42.014a.663.663,0,1,0,0,1.327Z" transform="translate(-37.693 -242.523)" fill="#7e75e4"/>
    <path id="Path_20561" data-name="Path 20561" d="M414.144,108.37a.663.663,0,0,0-.663.663v1.661h-1.661a.663.663,0,0,0,0,1.327h1.661v1.661a.663.663,0,1,0,1.327,0v-1.661h1.66a.663.663,0,0,0,0-1.327h-1.66v-1.661A.663.663,0,0,0,414.144,108.37Z" transform="translate(-374.783 -73.379)" fill="#7e75e4"/>
  </g>
</svg>
