<svg xmlns="http://www.w3.org/2000/svg" xmlns:xlink="http://www.w3.org/1999/xlink" width="36" height="36" viewBox="0 0 36 36"><defs><style>.a,.c{fill:#dd0031;}.a{stroke:#707070;}.b{clip-path:url(#a);}</style><clipPath id="a"><rect class="a" width="36" height="36" transform="translate(613.813 3919.813)"/></clipPath></defs><g class="b" transform="translate(-613.813 -3919.813)"><g transform="translate(615.242 3919.99)"><g transform="translate(0 0)"><path class="c" d="M33.142,6.008c-.233,2.008-.448,3.888-.665,5.767q-.33,2.858-.662,5.716-.371,3.225-.74,6.45c-.141,1.223-.276,2.447-.434,3.667a.623.623,0,0,1-.265.41Q23.605,31.8,16.829,35.567a.476.476,0,0,1-.53,0Q9.528,31.786,2.751,28.013a.623.623,0,0,1-.261-.416Q1.9,22.675,1.338,17.75q-.56-4.9-1.116-9.812c-.066-.565-.13-1.132-.211-1.7-.036-.25.005-.389.281-.484Q8.25,2.926,16.2.067a1.012,1.012,0,0,1,.74.006q7.952,2.855,15.906,5.7A1.028,1.028,0,0,1,33.142,6.008ZM26.994,27.25,16.567,3.849,6.175,27.2a.728.728,0,0,0,.156.05c1.167,0,2.335,0,3.5.009.246,0,.3-.142.367-.316.61-1.527,1.228-3.052,1.831-4.582a.429.429,0,0,1,.467-.333q4.067.019,8.133,0a.458.458,0,0,1,.5.349q.893,2.279,1.822,4.544c.054.131.2.311.311.317,1.215.025,2.433.016,3.727.016Z" transform="translate(0 0)"/><path class="c" d="M11.408,16.933,14.42,9.69l3.012,7.243Z" transform="translate(2.147 1.824)"/></g></g></g></svg>