<svg xmlns="http://www.w3.org/2000/svg" xmlns:xlink="http://www.w3.org/1999/xlink" width="39" height="39" viewBox="0 0 39 39"><defs><style>.a{fill:#ee4323;}.b{clip-path:url(#a);}</style><clipPath id="a"><rect class="a" width="39" height="39" transform="translate(609 3915)"/></clipPath></defs><g class="b" transform="translate(-609 -3915)"><g transform="translate(613.438 3914.998)"><path class="a" d="M9.154,39A11.912,11.912,0,0,1,4.24,36.464C.725,33.435-.423,29.522.134,25.052A19.093,19.093,0,0,1,4.823,15.02c1.545-1.826,3.263-3.508,4.911-5.245.68-.717,1.4-1.388,2.073-2.119a12.382,12.382,0,0,0,1.18-1.477C14.235,4.326,15.208,2.393,14.523,0c.269.252.553.494.8.757A9.721,9.721,0,0,1,18.3,7.9a19.494,19.494,0,0,1-.68,3.451,6.725,6.725,0,0,0-.252,3.6,5.079,5.079,0,0,0,.911,1.7,2.2,2.2,0,0,0,2.42.644,2.36,2.36,0,0,0,1.751-1.81,3.394,3.394,0,0,0,.009-.793c4.342,1.388,8.043,7.606,7.634,12.861-.4,5.128-5.481,10.633-10.613,11.389.184-.1.371-.207.554-.313a7.538,7.538,0,0,0,2.57-11.306A14.648,14.648,0,0,0,18.692,23.6c-1.021-.7-2.06-1.388-3.08-2.089a12.067,12.067,0,0,1-1.247-.963,4.286,4.286,0,0,1-1.816-3.635,4.774,4.774,0,0,0-1.189,5.646A16.683,16.683,0,0,0,13,25.013a4.138,4.138,0,0,1,.93,2.167,2.42,2.42,0,0,1-2.373,2.807,2.572,2.572,0,0,1-2.517-2.8c.021-.332.083-.66.149-1.165C7.024,27.836,5.6,29.9,5.517,32.638,5.428,35.448,6.979,37.407,9.154,39Z"/></g></g></svg>