<svg xmlns="http://www.w3.org/2000/svg" xmlns:xlink="http://www.w3.org/1999/xlink" width="43" height="43" viewBox="0 0 43 43"><defs><style>.a{fill:#c9c9d2;}.b{clip-path:url(#a);}.c{fill:#fa533e;}</style><clipPath id="a"><rect class="a" width="43" height="43" transform="translate(607 3913)"/></clipPath></defs><g class="b" transform="translate(-607 -3913)"><g transform="translate(607 3913)"><path class="c" d="M42.916,20.24q-2-3.631-4.006-7.265c-.433-.781-.84-1.578-1.34-2.32a.885.885,0,0,0-1.013-.4l-2.436.588c-1.15.283-2.292.582-3.45.834-.9.2-1.129.594-.729,1.423q1.738,3.6,3.484,7.206c.246.51.482,1.025.732,1.556-.153.064-.252.111-.357.147-.957.336-1.917.663-2.874,1-1.442.5-2.882,1.015-4.324,1.521-1.68.588-3.359,1.167-5.035,1.773-.3.108-.412.064-.527-.225-.53-1.323-1.084-2.636-1.624-3.955Q15.155,11.7,10.892,1.284A2.765,2.765,0,0,0,10.078,0H9.154L8.4.094l-.5.061L7.622.187l-5.11.6C2.029.84,1.55.924,1.061.946A1.585,1.585,0,0,0,0,1.428V2.6q.42,1.33.845,2.661Q4.675,17.4,8.51,29.531a18.106,18.106,0,0,0,.84,2.457,1.476,1.476,0,0,0,2.078.8c.48-.185.967-.351,1.448-.532q2.674-1,5.346-2.008c.685-.258,1.367-.523,2.068-.792.055.118.1.2.135.292,1.26,3.275,2.5,6.551,3.779,9.814A9.283,9.283,0,0,0,25.949,43h.84a16.666,16.666,0,0,1,1.728-.888c1.413-.773,2.865-1.474,4.292-2.221q3.728-1.949,7.444-3.921c.43-.227.858-.456,1.28-.7.642-.368.751-.708.435-1.387q-.371-.8-.773-1.58-2.168-4.256-4.35-8.5c-.124-.243-.188-.367.175-.5,1.8-.666,3.574-1.379,5.359-2.076A2.536,2.536,0,0,0,43,20.828v-.5a.355.355,0,0,1-.084-.084ZM18.525,27.379c-1.468.495-2.926,1.02-4.389,1.532-.918.322-1.835.645-2.755.959-.247.084-.426.066-.532-.252Q6.8,17.36,2.735,5.11c-.22-.663-.433-1.329-.656-1.99-.1-.3,0-.449.31-.487,2.175-.265,4.35-.533,6.62-.812.341-.137.478.114.62.472q4.722,11.947,9.464,23.885c.363.916.355.9-.569,1.208Zm21.091,5.207c.308.616.312.648-.3.952-1.964.98-3.936,1.943-5.9,2.918C31.311,37.5,29.2,38.535,27.111,39.6c-.361.185-.555.115-.7-.2-.275-.611-.544-1.226-.793-1.848q-1.683-4.2-3.344-8.407a.666.666,0,0,1-.094-.4c1.008-.389,2.043-.789,3.076-1.182,1.527-.58,3.055-1.154,4.583-1.733s3.039-1.155,4.559-1.733c.052-.02.1-.044.155-.063.663-.242.661-.241,1,.428L39.615,32.6ZM40.571,19.6c-1.149.415-2.3.821-3.452,1.23-.391.139-.791.261-1.17.429-.291.13-.413.037-.542-.226-.73-1.492-1.476-2.977-2.216-4.465l-1.344-2.7c-.226-.455-.2-.5.287-.653,1.525-.456,3.087-.774,4.607-1.25.3-.094.4.191.511.391.546,1.008,1.081,2.016,1.621,3.023q.95,1.771,1.9,3.542c.052.1.1.2.143.281-.005.264-.186.343-.349.4Z"/><path class="c" d="M9.154,0a.818.818,0,0,1-.789.121c0-.009.013-.018.027-.026h0Z"/><path class="c" d="M7.895.155A.2.2,0,0,1,7.611.2L7.622.187Z"/></g></g></svg>