<svg xmlns="http://www.w3.org/2000/svg" width="157.4" height="193.667" viewBox="0 0 157.4 193.667"><defs><style>.a{opacity:0.17;}.b{fill:#9796a8;}.c{fill:#fbe196;}</style></defs><g transform="translate(-1294 -805)"><g class="a" transform="translate(1336 805)"><g transform="translate(-1404 -765)"><circle class="b" cx="3" cy="3" r="3" transform="translate(1404 765)"/></g><g transform="translate(-1386 -765)"><circle class="b" cx="3" cy="3" r="3" transform="translate(1404 765)"/></g><g transform="translate(-1368 -765)"><circle class="b" cx="3" cy="3" r="3" transform="translate(1404 765)"/></g><g transform="translate(-1350 -765)"><circle class="b" cx="3" cy="3" r="3" transform="translate(1404 765)"/></g><g transform="translate(-1332 -765)"><circle class="b" cx="3" cy="3" r="3" transform="translate(1404 765)"/></g><g transform="translate(-1314 -765)"><circle class="b" cx="3" cy="3" r="3" transform="translate(1404 765)"/></g><g transform="translate(-1296 -765)"><circle class="b" cx="3" cy="3" r="3" transform="translate(1404 765)"/></g><g transform="translate(-1404 -747)"><circle class="b" cx="3" cy="3" r="3" transform="translate(1404 765)"/></g><g transform="translate(-1386 -747)"><circle class="b" cx="3" cy="3" r="3" transform="translate(1404 765)"/></g><g transform="translate(-1368 -747)"><circle class="b" cx="3" cy="3" r="3" transform="translate(1404 765)"/></g><g transform="translate(-1350 -747)"><circle class="b" cx="3" cy="3" r="3" transform="translate(1404 765)"/></g><g transform="translate(-1332 -747)"><circle class="b" cx="3" cy="3" r="3" transform="translate(1404 765)"/></g><g transform="translate(-1314 -747)"><circle class="b" cx="3" cy="3" r="3" transform="translate(1404 765)"/></g><g transform="translate(-1296 -747)"><circle class="b" cx="3" cy="3" r="3" transform="translate(1404 765)"/></g><g transform="translate(-1404 -729)"><circle class="b" cx="3" cy="3" r="3" transform="translate(1404 765)"/></g><g transform="translate(-1386 -729)"><circle class="b" cx="3" cy="3" r="3" transform="translate(1404 765)"/></g><g transform="translate(-1368 -729)"><circle class="b" cx="3" cy="3" r="3" transform="translate(1404 765)"/></g><g transform="translate(-1350 -729)"><circle class="b" cx="3" cy="3" r="3" transform="translate(1404 765)"/></g><g transform="translate(-1332 -729)"><circle class="b" cx="3" cy="3" r="3" transform="translate(1404 765)"/></g><g transform="translate(-1314 -729)"><circle class="b" cx="3" cy="3" r="3" transform="translate(1404 765)"/></g><g transform="translate(-1296 -729)"><circle class="b" cx="3" cy="3" r="3" transform="translate(1404 765)"/></g><g transform="translate(-1404 -711)"><circle class="b" cx="3" cy="3" r="3" transform="translate(1404 765)"/></g><g transform="translate(-1386 -711)"><circle class="b" cx="3" cy="3" r="3" transform="translate(1404 765)"/></g><g transform="translate(-1368 -711)"><circle class="b" cx="3" cy="3" r="3" transform="translate(1404 765)"/></g><g transform="translate(-1350 -711)"><circle class="b" cx="3" cy="3" r="3" transform="translate(1404 765)"/></g><g transform="translate(-1332 -711)"><circle class="b" cx="3" cy="3" r="3" transform="translate(1404 765)"/></g><g transform="translate(-1314 -711)"><circle class="b" cx="3" cy="3" r="3" transform="translate(1404 765)"/></g><g transform="translate(-1296 -711)"><circle class="b" cx="3" cy="3" r="3" transform="translate(1404 765)"/></g><g transform="translate(-1404 -693)"><circle class="b" cx="3" cy="3" r="3" transform="translate(1404 765)"/></g><g transform="translate(-1386 -693)"><circle class="b" cx="3" cy="3" r="3" transform="translate(1404 765)"/></g><g transform="translate(-1368 -693)"><circle class="b" cx="3" cy="3" r="3" transform="translate(1404 765)"/></g><g transform="translate(-1350 -693)"><circle class="b" cx="3" cy="3" r="3" transform="translate(1404 765)"/></g><g transform="translate(-1332 -693)"><circle class="b" cx="3" cy="3" r="3" transform="translate(1404 765)"/></g><g transform="translate(-1314 -693)"><circle class="b" cx="3" cy="3" r="3" transform="translate(1404 765)"/></g><g transform="translate(-1296 -693)"><circle class="b" cx="3" cy="3" r="3" transform="translate(1404 765)"/></g><g transform="translate(-1404 -675)"><circle class="b" cx="3" cy="3" r="3" transform="translate(1404 765)"/></g><g transform="translate(-1386 -675)"><circle class="b" cx="3" cy="3" r="3" transform="translate(1404 765)"/></g><g transform="translate(-1368 -675)"><circle class="b" cx="3" cy="3" r="3" transform="translate(1404 765)"/></g><g transform="translate(-1350 -675)"><circle class="b" cx="3" cy="3" r="3" transform="translate(1404 765)"/></g><g transform="translate(-1332 -675)"><circle class="b" cx="3" cy="3" r="3" transform="translate(1404 765)"/></g><g transform="translate(-1314 -675)"><circle class="b" cx="3" cy="3" r="3" transform="translate(1404 765)"/></g><g transform="translate(-1296 -675)"><circle class="b" cx="3" cy="3" r="3" transform="translate(1404 765)"/></g><g transform="translate(-1404 -657)"><circle class="b" cx="3" cy="3" r="3" transform="translate(1404 765)"/></g><g transform="translate(-1386 -657)"><circle class="b" cx="3" cy="3" r="3" transform="translate(1404 765)"/></g><g transform="translate(-1368 -657)"><circle class="b" cx="3" cy="3" r="3" transform="translate(1404 765)"/></g><g transform="translate(-1350 -657)"><circle class="b" cx="3" cy="3" r="3" transform="translate(1404 765)"/></g><g transform="translate(-1332 -657)"><circle class="b" cx="3" cy="3" r="3" transform="translate(1404 765)"/></g><g transform="translate(-1314 -657)"><circle class="b" cx="3" cy="3" r="3" transform="translate(1404 765)"/></g><g transform="translate(-1296 -657)"><circle class="b" cx="3" cy="3" r="3" transform="translate(1404 765)"/></g><g transform="translate(-1404 -639)"><circle class="b" cx="3" cy="3" r="3" transform="translate(1404 765)"/></g><g transform="translate(-1386 -639)"><circle class="b" cx="3" cy="3" r="3" transform="translate(1404 765)"/></g><g transform="translate(-1368 -639)"><circle class="b" cx="3" cy="3" r="3" transform="translate(1404 765)"/></g><g transform="translate(-1350 -639)"><circle class="b" cx="3" cy="3" r="3" transform="translate(1404 765)"/></g><g transform="translate(-1332 -639)"><circle class="b" cx="3" cy="3" r="3" transform="translate(1404 765)"/></g><g transform="translate(-1314 -639)"><circle class="b" cx="3" cy="3" r="3" transform="translate(1404 765)"/></g><g transform="translate(-1296 -639)"><circle class="b" cx="3" cy="3" r="3" transform="translate(1404 765)"/></g><g transform="translate(-1404 -621)"><circle class="b" cx="3" cy="3" r="3" transform="translate(1404 765)"/></g><g transform="translate(-1386 -621)"><circle class="b" cx="3" cy="3" r="3" transform="translate(1404 765)"/></g><g transform="translate(-1368 -621)"><circle class="b" cx="3" cy="3" r="3" transform="translate(1404 765)"/></g><g transform="translate(-1350 -621)"><circle class="b" cx="3" cy="3" r="3" transform="translate(1404 765)"/></g><g transform="translate(-1332 -621)"><circle class="b" cx="3" cy="3" r="3" transform="translate(1404 765)"/></g><g transform="translate(-1314 -621)"><circle class="b" cx="3" cy="3" r="3" transform="translate(1404 765)"/></g><g transform="translate(-1296 -621)"><circle class="b" cx="3" cy="3" r="3" transform="translate(1404 765)"/></g><g transform="translate(-1404 -603)"><circle class="b" cx="3" cy="3" r="3" transform="translate(1404 765)"/></g><g transform="translate(-1386 -603)"><circle class="b" cx="3" cy="3" r="3" transform="translate(1404 765)"/></g><g transform="translate(-1368 -603)"><circle class="b" cx="3" cy="3" r="3" transform="translate(1404 765)"/></g><g transform="translate(-1350 -603)"><circle class="b" cx="3" cy="3" r="3" transform="translate(1404 765)"/></g><g transform="translate(-1332 -603)"><circle class="b" cx="3" cy="3" r="3" transform="translate(1404 765)"/></g><g transform="translate(-1314 -603)"><circle class="b" cx="3" cy="3" r="3" transform="translate(1404 765)"/></g><g transform="translate(-1296 -603)"><circle class="b" cx="3" cy="3" r="3" transform="translate(1404 765)"/></g><g transform="translate(-1404 -585)"><circle class="b" cx="3" cy="3" r="3" transform="translate(1404 765)"/></g><g transform="translate(-1386 -585)"><circle class="b" cx="3" cy="3" r="3" transform="translate(1404 765)"/></g><g transform="translate(-1368 -585)"><circle class="b" cx="3" cy="3" r="3" transform="translate(1404 765)"/></g><g transform="translate(-1350 -585)"><circle class="b" cx="3" cy="3" r="3" transform="translate(1404 765)"/></g><g transform="translate(-1332 -585)"><circle class="b" cx="3" cy="3" r="3" transform="translate(1404 765)"/></g><g transform="translate(-1314 -585)"><circle class="b" cx="3" cy="3" r="3" transform="translate(1404 765)"/></g><g transform="translate(-1296 -585)"><circle class="b" cx="3" cy="3" r="3" transform="translate(1404 765)"/></g></g><path class="c" d="M50,0h50a0,0,0,0,1,0,0V50a50,50,0,0,1-50,50H0a0,0,0,0,1,0,0V50A50,50,0,0,1,50,0Z" transform="translate(1294 872)"/></g></svg>