<svg xmlns="http://www.w3.org/2000/svg" xmlns:xlink="http://www.w3.org/1999/xlink" width="36" height="36" viewBox="0 0 36 36"><defs><style>.a,.c{fill:#1384c8;}.a{stroke:#707070;}.b{clip-path:url(#a);}</style><clipPath id="a"><rect class="a" width="36" height="36" transform="translate(611 3917)"/></clipPath></defs><g class="b" transform="translate(-611 -3917)"><g transform="translate(611 3927.865)"><path class="c" d="M12.564,2.706c-1.353,1.62-2.8,2.856-3.269,4.81A32.56,32.56,0,0,1,8.24,10.873a4.735,4.735,0,0,1-4.763,3.393c-1.123.011-2.25,0-3.477,0,.163-.574.291-1.074.448-1.574a28.533,28.533,0,0,1,4.488-9A17.959,17.959,0,0,1,6.694,1.778,5.313,5.313,0,0,1,10.776.186c2.169.087,4.344.081,6.515.057A3,3,0,0,1,20.3,2.083a55.992,55.992,0,0,1,1.871,5.4C22.56,8.722,22.811,10,23.3,11.3a6.088,6.088,0,0,0,.322-.687c.71-2.155,1.425-4.309,2.109-6.473C26.712,1.032,28.117,0,31.4,0H36a.58.58,0,0,1-.043.232c-1.925,3.25-3.813,6.518-5.815,9.725a18.72,18.72,0,0,1-2.471,2.914A3.613,3.613,0,0,1,24.9,13.954c-2.121-.026-4.243-.038-6.363.012a3.065,3.065,0,0,1-3.092-1.841,46.8,46.8,0,0,1-1.781-5.041C13.242,5.728,12.963,4.326,12.564,2.706Z"/></g></g></svg>