<svg xmlns="http://www.w3.org/2000/svg" xmlns:xlink="http://www.w3.org/1999/xlink" width="53" height="53" viewBox="0 0 53 53"><defs><style>.a{fill:#d1d1d1;}.b{clip-path:url(#a);}.c{fill:#388e3c;}.d{fill:#37474f;}.e{fill:#2e7d32;}.f{fill:#4caf50;}</style><clipPath id="a"><rect class="a" width="53" height="53" transform="translate(602 3908)"/></clipPath></defs><g class="b" transform="translate(-602 -3908)"><g transform="translate(602 3908.736)"><path class="c" d="M18.995,21.113l-5.417,3a.624.624,0,0,0-.328.543v6a.623.623,0,0,0,.328.543l5.417,3a.71.71,0,0,0,.656,0l5.417-3a.624.624,0,0,0,.328-.542v-6a.624.624,0,0,0-.328-.543l-5.417-3a.7.7,0,0,0-.656,0"/><path class="c" d="M46.872,26.513l-.9.5a.1.1,0,0,0-.052.091v1a.1.1,0,0,0,.052.091l.9.5a.126.126,0,0,0,.113,0l.9-.5a.1.1,0,0,0,.056-.091v-1a.1.1,0,0,0-.055-.091l-.9-.5a.124.124,0,0,0-.112,0"/><path class="d" d="M39.474,14.755l-2.636-1.471a.258.258,0,0,0-.267,0,.265.265,0,0,0-.134.229v8.894l-2.432-1.35a.7.7,0,0,0-.656,0l-5.417,3a.624.624,0,0,0-.328.543v6a.623.623,0,0,0,.328.543l5.417,3a.71.71,0,0,0,.656,0l5.417-3a.624.624,0,0,0,.328-.543V15.225a.544.544,0,0,0-.276-.47ZM36.291,29.213l-2.462,1.363a.3.3,0,0,1-.3,0l-2.462-1.363a.283.283,0,0,1-.151-.246V26.242a.282.282,0,0,1,.151-.251l2.462-1.363h0a.309.309,0,0,1,.151-.035.362.362,0,0,1,.151.035l2.458,1.363a.284.284,0,0,1,.151.251v2.725a.287.287,0,0,1-.147.246Z"/><path class="e" d="M18.995,21.113l-5.745,9.54a.623.623,0,0,0,.328.544l5.417,3a.71.71,0,0,0,.656,0L25.4,24.654a.624.624,0,0,0-.328-.543l-5.417-3a.7.7,0,0,0-.656,0"/><path class="f" d="M18.995,21.113l-5.417,3a.624.624,0,0,0-.328.543L18.995,34.2a.71.71,0,0,0,.656,0l5.417-3a.624.624,0,0,0,.328-.542l-5.745-9.54a.695.695,0,0,0-.656,0"/><path class="d" d="M52.672,24.06l-5.417-3a.7.7,0,0,0-.656,0l-5.417,3a.638.638,0,0,0-.328.556v5.974a.633.633,0,0,0,.328.556l5.417,3a.685.685,0,0,0,.656,0l2.5-1.385a.333.333,0,0,0,0-.582l-5.435-2.964a.3.3,0,0,1-.151-.254V26.242A.287.287,0,0,1,44.309,26l2.467-1.363a.315.315,0,0,1,.151-.04.287.287,0,0,1,.147.04L49.541,26a.275.275,0,0,1,.147.242v2.22a.263.263,0,0,0,.4.229l2.649-1.535A.541.541,0,0,0,53,26.694V24.619a.64.64,0,0,0-.328-.56Z"/><path class="d" d="M11.818,24.06l-5.417-3a.7.7,0,0,0-.656,0l-5.417,3A.638.638,0,0,0,0,24.616v8.243a.267.267,0,0,0,.4.232L3.05,31.552a.532.532,0,0,0,.263-.463V26.242A.279.279,0,0,1,3.455,26l2.467-1.363a.315.315,0,0,1,.3,0L8.691,26a.287.287,0,0,1,.142.246v4.847a.533.533,0,0,0,.263.462l2.649,1.54a.267.267,0,0,0,.4-.233V24.62a.64.64,0,0,0-.328-.561Z"/></g></g></svg>