<svg xmlns="http://www.w3.org/2000/svg" xmlns:xlink="http://www.w3.org/1999/xlink" width="52" height="52" viewBox="0 0 52 52"><defs><style>.a{fill:#dd0031;stroke:#707070;}.b{clip-path:url(#a);}.c{fill:#047bfe;}</style><clipPath id="a"><rect class="a" width="52" height="52" transform="translate(614.025 3920.025)"/></clipPath></defs><g class="b" transform="translate(-614.025 -3920.025)"><g transform="translate(614 3932.322)"><g transform="translate(0 0)"><path class="c" d="M26,.009a42.387,42.387,0,0,1,16.332,3.03,19.27,19.27,0,0,1,7.488,5.121A8.323,8.323,0,0,1,52.039,14.1a8.124,8.124,0,0,1-1.434,4.11,15.475,15.475,0,0,1-5.515,4.8,32.629,32.629,0,0,1-10.8,3.67,46.555,46.555,0,0,1-21.53-1.2,27.233,27.233,0,0,1-5.826-2.441A17.534,17.534,0,0,1,2.4,19.453c-3.293-3.768-3.19-8.2.281-11.814a21.225,21.225,0,0,1,7.776-4.907A40.651,40.651,0,0,1,23.064.105C24.044.048,25.022-.025,26,.009Zm-.542,26.02A42.169,42.169,0,0,0,41.59,23.187a18.54,18.54,0,0,0,7.047-4.678c2.478-2.784,2.7-5.915.638-8.817a12.356,12.356,0,0,0-2.942-2.873A30.11,30.11,0,0,0,33.283,1.942,46.083,46.083,0,0,0,20.556,1.7,37.063,37.063,0,0,0,9.987,4.413a18.334,18.334,0,0,0-6.541,4.44C.679,11.931.679,15.473,3.44,18.547a18.375,18.375,0,0,0,6.748,4.527A40.326,40.326,0,0,0,25.463,26.028Z" transform="translate(0 0)"/><path class="c" d="M21,18.114H18.012l1.1-5.677C19.6,9.925,20.1,7.414,20.571,4.9c.07-.379.214-.491.586-.488,1.811.017,3.621,0,5.432.014a6.076,6.076,0,0,1,1.126.084,3.753,3.753,0,0,1,3.252,4.866,5.933,5.933,0,0,1-4.761,4.988,15.033,15.033,0,0,1-3.749.121c-.577-.019-.82.113-.9.729C21.44,16.182,21.2,17.129,21,18.114Zm1.142-5.829a14.824,14.824,0,0,0,3.343-.126,2.632,2.632,0,0,0,1.821-1.315A4.914,4.914,0,0,0,27.929,8.3a1.427,1.427,0,0,0-1.1-1.523,15.07,15.07,0,0,0-3.577-.189Z" transform="translate(13.239 3.241)"/><path class="c" d="M4.561,18.146l.792-4.093c.6-3.053,1.2-6.1,1.776-9.147.07-.371.195-.5.574-.493,1.791.017,3.582.006,5.373.007a6.528,6.528,0,0,1,2.114.318,3.785,3.785,0,0,1,2.357,4.527,6.011,6.011,0,0,1-5.763,5.182c-.98.029-1.96.061-2.942.046-.424-.007-.637.074-.7.551-.128.912-.34,1.811-.515,2.716-.036.189-.037.383-.311.38C6.416,18.138,5.514,18.146,4.561,18.146ZM9.8,6.585l-1.1,5.7a13.427,13.427,0,0,0,3.437-.157,2.568,2.568,0,0,0,1.924-1.735,8.173,8.173,0,0,0,.4-1.716,1.588,1.588,0,0,0-1.481-2A19.126,19.126,0,0,0,9.8,6.585Z" transform="translate(3.352 3.242)"/><path class="c" d="M11.736,16.009,14.393,2.316h2.96l-.679,3.621h.933a16.11,16.11,0,0,1,3.881.261,2.169,2.169,0,0,1,1.9,2.518,37.8,37.8,0,0,1-.831,4.893c-.119.647-.281,1.288-.385,1.937-.054.34-.171.483-.541.471-.824-.028-1.65-.009-2.562-.009.183-.957.358-1.851.525-2.748.226-1.22.466-2.439.67-3.663.151-.905-.113-1.306-1.019-1.386s-1.845-.036-2.768-.053c-.274,0-.28.191-.315.377-.453,2.326-.913,4.648-1.339,6.977-.074.4-.2.533-.61.516C13.406,15.986,12.6,16.009,11.736,16.009Z" transform="translate(8.626 1.701)"/></g></g></g></svg>