<svg xmlns="http://www.w3.org/2000/svg" xmlns:xlink="http://www.w3.org/1999/xlink" width="670" height="451.826" viewBox="0 0 670 451.826"><defs><style>.a{opacity:0.4;}.b{fill:#edf5f8;}.c{fill:#afc4d5;}.d{fill:#dadaf5;}.e,.f{fill:#f6f6fe;}.f{fill-rule:evenodd;}.g{fill:#cfe2f1;}.h{fill:#01d06a;}.i{fill:#febb00;}.j{fill:#fff;}.k{fill:#d3e1ea;}.l{fill:#b2b2db;}.m{fill:#ff4746;}.n{fill:#272063;}.o{fill:#fcd2c5;}.p{fill:#ff4d7b;}.q{fill:#4052bc;}.r{fill:#4f5cd3;}.s{fill:#dd3665;}.t{fill:#fb0;}.u{fill:#ff4745;}.v{fill:#e8e8fc;}.w{fill:#0094c4;}.x{fill:#373744;}.y{fill:#3f5b88;}.z{fill:url(#a);}</style><linearGradient id="a" x1="0.5" y1="-4.282" x2="0.5" y2="0.928" gradientUnits="objectBoundingBox"><stop offset="0" stop-color="#fff" stop-opacity="0"/><stop offset="1" stop-color="#fff"/></linearGradient></defs><g transform="translate(-998 -255)"><g class="a" transform="translate(998.382 575.158)"><g transform="translate(0 0)"><g transform="translate(0 0)"><rect class="b" width="108.56" height="25.19" rx="12.595" transform="translate(561.059 39.9)"/><path class="c" d="M407.212,129.827h-8.123v3.324H394.94V124.7h4.149v3.7h8.123v-3.7h4.149v8.451h-4.149Z" transform="translate(182.028 -76.433)"/><path class="c" d="M408.11,131.72h6.107V124.7h4.149v7.02h6.077v1.431H408.11Z" transform="translate(188.098 -76.433)"/><path class="c" d="M431.029,127.387l-3.725,5.764H421.08V124.7h3.857v6.654l4.076-6.654H433l4.076,6.654V124.7h3.857v8.451H434.71Z" transform="translate(194.076 -76.433)"/><path class="c" d="M441.719,133.195H437.57V124.81h14.463v1.424H441.719Z" transform="translate(201.676 -76.543)"/><g transform="translate(262.188 3.08)"><rect class="d" width="119.005" height="30.197"/></g><g transform="translate(110.634 29.814)"><rect class="e" width="422.098" height="101.853" rx="13.41"/></g><g transform="translate(123.636 44.21)"><rect class="c" width="396.094" height="82.758"/></g><g transform="translate(217.404 0.039)"><path class="f" d="M349.725,214.863H156.39c-4.183,0-7.575-1.4-7.575-3.116s3.391-3.116,7.575-3.116H349.725c4.183,0,7.575,1.4,7.575,3.116S353.909,214.863,349.725,214.863Z" transform="translate(-148.815 -208.63)"/></g><g class="a" transform="translate(155.761 52.155)"><rect class="g" width="38.918" height="21.397" transform="translate(292.925 45.463)"/><rect class="g" width="280.624" height="21.397" transform="translate(0 45.463)"/><rect class="g" width="77.837" height="21.397" transform="translate(0 17.382)"/><rect class="g" width="239.661" height="8.992" transform="translate(92.183 17.382)"/><rect class="g" width="239.661" height="8.986" transform="translate(92.183 29.794)"/><rect class="g" width="331.829" height="13.205" transform="translate(0 0)"/></g><path class="h" d="M117.62,180.54c-.467-.92.219-2.014-.175-2.957-.5-1.2-2.308-1.521-3.55-2.266-1.6-1.207-2.161-2.6-1.592-3.955a13.134,13.134,0,0,1,1.592-2.4,2.551,2.551,0,0,0,.438-2.621c-.7-1.256-4.383-2.236-4.383-7.561,0-4.862,8.444-6.756,10.84-7.946v31.525l-1.081-.433A3.782,3.782,0,0,1,117.62,180.54Z" transform="translate(50.676 -141.343)"/><path class="h" d="M124.116,168.974a13.166,13.166,0,0,1,1.592,2.4c.568,1.354.007,2.748-1.592,3.955-1.242.745-3.068,1.088-3.55,2.266-.394.944.307,2.038-.175,2.957a3.7,3.7,0,0,1-2.06,1.388l-1.081.433V150.84c2.4,1.2,10.84,3.083,10.84,7.946,0,5.331-3.711,6.3-4.383,7.561A2.541,2.541,0,0,0,124.116,168.974Z" transform="translate(54.041 -141.371)"/><path class="i" d="M128.033,195.541c-.555-.3-.307-.751-.8-1.07a13.582,13.582,0,0,0-3.083-.559c-1.277-.227-2.091-.75-2.06-1.322a3.052,3.052,0,0,1,.584-1c.273-.332.166-.7-.292-.992-.789-.409-3.7-.481-4.923-2.4-1.125-1.8,4.514-3.125,5.96-3.751l7.3,11.558-.877-.072A5.17,5.17,0,0,1,128.033,195.541Z" transform="translate(54.068 -175.187)"/><path class="i" d="M129.991,194.021c0,.379.687.721.57,1.1a2.077,2.077,0,0,1-1.154.667l-.672.24-7.3-11.558c2,.252,8.517.295,9.642,2.08,1.242,1.953-1.213,2.6-1.461,3.113-.051.35.288.691.92.926a12.5,12.5,0,0,1,1.709.763c.71.493.617,1.115-.234,1.569C131.306,193.305,130.064,193.546,129.991,194.021Z" transform="translate(55.967 -175.235)"/><path class="j" d="M107.79,212.236s5.259-2.32,5.259-3.883a3.806,3.806,0,0,0-.906-1.767c-.823-1.069-.36-2.235,1.247-3.141A14.921,14.921,0,0,1,120.281,202h13.908a14.922,14.922,0,0,1,6.891,1.445c1.607.906,2.07,2.072,1.247,3.141a3.8,3.8,0,0,0-.906,1.767c0,1.563,5.259,3.883,5.259,3.883Z" transform="translate(49.681 -201.979)"/><rect class="j" width="152.094" height="37.217" rx="18.608" transform="translate(180.29 76.251)"/><path class="k" d="M161.072,50.3a20.249,20.249,0,0,0-13.25.5,4.774,4.774,0,0,0-2.849,4.64,4.607,4.607,0,0,0,2.922,4.442,17.722,17.722,0,0,0,7.538,1.37c4.25.058,7.969-1.167,8.765-2.885l8.342.817a8.732,8.732,0,0,1-4.266,3.161,35.019,35.019,0,0,1-12.447,1.863A35.656,35.656,0,0,1,141.7,61.849q-5.376-2.374-5.391-6.66,0-4.057,5.361-6.389c6.654-2.72,17.052-3.128,24.835-.974,3.158,1.067,5.359,2.537,6.253,4.177l-8.21,1.07c-.428-1.05-1.644-2.019-3.477-2.771Z" transform="translate(62.825 39.526)"/><path class="k" d="M192.385,56.337a87.466,87.466,0,0,1-9.1,1.232,45.757,45.757,0,0,0-7.743,1.148c-.79.25-1.254.636-1.256,1.046-.021.426.485.827,1.344,1.064a21.206,21.206,0,0,0,5.756.6,18.453,18.453,0,0,0,5.332-.6c1.325-.494,2.154-1.173,2.323-1.905l8.429.15c.011,1.451-1.508,2.832-4.164,3.787s-6.594,1.418-11.833,1.418a48.435,48.435,0,0,1-8.21-.6,15.125,15.125,0,0,1-5.215-1.695,3.129,3.129,0,0,1-1.812-2.458c-.032-1.33,1.376-2.6,3.842-3.456a43.747,43.747,0,0,1,9.51-1.7q5.274-.541,6.749-.751a11.537,11.537,0,0,0,3.039-.745c.583-.293.889-.662.862-1.04-.022-.656-.783-1.271-2.06-1.665a20.285,20.285,0,0,0-6.136-.709,19.026,19.026,0,0,0-6.107.8c-1.678.662-2.742,1.544-3.009,2.494l-8.2-.331c.261-1.676,2.075-3.246,5.069-4.388q4.237-1.5,12.169-1.509a55.244,55.244,0,0,1,9.087.6,15.305,15.305,0,0,1,5.639,1.917c1.3.823,1.99,1.783,1.987,2.765a3.2,3.2,0,0,1-1.665,2.735A13.363,13.363,0,0,1,192.385,56.337Z" transform="translate(75.924 39.43)"/><path class="k" d="M219.016,56.249a87.305,87.305,0,0,1-9.1,1.232,45.756,45.756,0,0,0-7.743,1.148c-.808.252-1.279.647-1.271,1.064-.021.426.485.827,1.344,1.064a21.207,21.207,0,0,0,5.756.6,18.454,18.454,0,0,0,5.332-.6c1.311-.488,2.139-1.158,2.323-1.881l8.429.15c.007,1.452-1.517,2.833-4.178,3.787s-6.594,1.418-11.833,1.418a48.433,48.433,0,0,1-8.21-.6,14.8,14.8,0,0,1-5.215-1.737,3.129,3.129,0,0,1-1.811-2.458c-.031-1.327,1.371-2.591,3.828-3.45a43.747,43.747,0,0,1,9.51-1.7q5.274-.541,6.749-.751a11.512,11.512,0,0,0,3.039-.745c.583-.293.889-.662.862-1.04-.01-.656-.76-1.274-2.031-1.671a20.286,20.286,0,0,0-6.136-.709,18.983,18.983,0,0,0-6.15.811c-1.649.669-2.681,1.553-2.922,2.5l-8.2-.331c.261-1.676,2.075-3.246,5.069-4.388q4.237-1.5,12.169-1.509a55.245,55.245,0,0,1,9.087.6,15.305,15.305,0,0,1,5.639,1.917c1.3.823,1.99,1.783,1.987,2.765a3.2,3.2,0,0,1-1.665,2.735,13.587,13.587,0,0,1-4.66,1.779Z" transform="translate(88.212 39.518)"/><path class="d" d="M126.85,187.519H115.922c-.879,0-1.592-.293-1.592-.655v-.98H86.719a65.824,65.824,0,0,1,14.448,3.751c5.97,2.508,9.72,5.767,10.65,9.256h4.105c.868,0,1.57.292,1.578.649v4.087c0,.36-.7.652-1.578.655H104.98c-.879,0-1.592-.293-1.592-.655V199.54c0-.362.713-.655,1.592-.655h3.652c-.913-3.135-4.312-6.059-9.671-8.318-8.911-3.654-21.519-4.5-26.778-4.688H70.8v.98c0,.176-.164.345-.466.469a3.09,3.09,0,0,1-1.141.192H59.254c-.879,0-1.592-.293-1.592-.655v-.98h-.687c-5.245.192-17.838,1.034-26.749,4.682-5.574,2.368-9.021,5.446-9.773,8.727h3.083c.879,0,1.592.293,1.592.655v3.678c0,.362-.713.655-1.592.655h-11c-.879,0-1.592-.293-1.592-.655v-3.684c0-.362.713-.655,1.592-.655h4.66c1.14-3.937,4.7-7.213,10.767-9.665a65.738,65.738,0,0,1,14.4-3.745H13.148v.98c0,.176-.164.345-.466.469a3.09,3.09,0,0,1-1.141.192H1.592a3.07,3.07,0,0,1-1.131-.194c-.3-.124-.465-.292-.461-.467v-4.093c0-.362.713-.655,1.592-.655h9.949a3.089,3.089,0,0,1,1.141.192c.3.124.47.293.466.469v1.8H56.464l1.213-.036v-1.352c0-.362.713-.655,1.592-.655H69.2c.879,0,1.592.293,1.592.655v1.328c.5,0,1.125,0,1.885.048h41.65v-1.388c0-.362.713-.655,1.592-.655H126.85c.879,0,1.592.293,1.592.655v3.684c0,.175-.162.343-.461.467a3.069,3.069,0,0,1-1.131.194Z" transform="translate(0 -182.071)"/><path class="l" d="M59.128,199.7H43.058c0-5.409-14.448-9.911-14.448-9.911l21.168-9.953,1.461-.709,1.461.673,20.993,10.055S59.157,194.294,59.128,199.7Z" transform="translate(13.186 -175.701)"/><path class="d" d="M42.97,206.883l.044-9.016,1.592-.727,1.329.6-.044,9.154Z" transform="translate(19.805 -193.711)"/><path class="d" d="M5.09,0C7.9,0,10.171.93,10.168,2.085s-2.282,2.094-5.09,2.1S0,3.253,0,2.1,2.282,0,5.09,0Z" transform="translate(59.282 12.765) rotate(0.12)"/><path class="l" d="M47.722,55.186c-6.987-.007-12.638-2.342-12.622-5.217v-3.8H60.4v3.823c-.016,2.875-5.693,5.2-12.681,5.193Z" transform="translate(16.178 48.732)"/><path class="d" d="M35.11,131.785l.278-54.467c.008-.923,1.833-1.668,4.076-1.665l.073-14.5h17.18l-.073,14.5c2.243,0,4.055.754,4.047,1.677L60.413,131.8Z" transform="translate(16.182 -36.883)"/><path class="m" d="M222.972,122.375,106.1,115.589l3.8-11.059L343.628,118.1l-3.784,11.065Z" transform="translate(48.902 -60.32)"/><path class="n" d="M.8.215,3.413,0l-.8,4.152L0,4.367Z" transform="translate(176.81 52.18) rotate(8.03)"/><path class="n" d="M1.149.215,3.763,0,2.614,5.968,0,6.183Z" transform="translate(167.962 49.851) rotate(8.03)"/><path class="n" d="M.8.215,3.413,0l-.8,4.152L0,4.367Z" transform="translate(195.002 53.228) rotate(8.03)"/><path class="n" d="M1.149.215,3.763,0,2.614,5.968,0,6.183Z" transform="translate(186.169 50.905) rotate(8.03)"/><path class="n" d="M.8.215,3.413,0l-.8,4.152L0,4.367Z" transform="translate(213.222 54.294) rotate(8.03)"/><path class="n" d="M1.149.215,3.763,0,2.614,5.968,0,6.183Z" transform="translate(204.39 51.96) rotate(8.03)"/><path class="n" d="M.8.215,3.413,0l-.8,4.152L0,4.367Z" transform="translate(231.43 55.343) rotate(8.03)"/><path class="n" d="M1.149.215,3.763,0,2.614,5.968,0,6.183Z" transform="translate(222.581 53.02) rotate(8.03)"/><path class="n" d="M.8.215,3.413,0l-.8,4.152L0,4.367Z" transform="translate(249.636 56.403) rotate(8.03)"/><path class="n" d="M1.149.215,3.763,0,2.614,5.968,0,6.183Z" transform="translate(240.787 54.074) rotate(8.03)"/><path class="n" d="M.8.216,3.414,0l-.8,4.152L0,4.367Z" transform="translate(267.857 57.522) rotate(8.049)"/><path class="n" d="M1.151.216,3.765,0,2.613,5.968,0,6.184Z" transform="translate(259.01 55.186) rotate(8.049)"/><path class="n" d="M.8.215,3.413,0l-.8,4.152L0,4.367Z" transform="translate(286.033 58.51) rotate(8.03)"/><path class="n" d="M1.149.215,3.763,0,2.614,5.968,0,6.183Z" transform="translate(277.198 56.182) rotate(8.03)"/><path class="n" d="M.8.215,3.413,0l-.8,4.152L0,4.367Z" transform="translate(304.253 59.571) rotate(8.03)"/><path class="n" d="M1.149.215,3.763,0,2.614,5.968,0,6.183Z" transform="translate(295.406 57.236) rotate(8.03)"/><path class="n" d="M.8.215,3.413,0l-.8,4.152L0,4.367Z" transform="translate(322.459 60.625) rotate(8.03)"/><path class="n" d="M1.149.215,3.763,0,2.614,5.968,0,6.183Z" transform="translate(313.626 58.308) rotate(8.03)"/><path class="n" d="M.8.215,3.412,0l-.8,4.152L0,4.367Z" transform="translate(340.66 61.672) rotate(8.02)"/><path class="n" d="M1.149.215,3.763,0,2.614,5.968,0,6.183Z" transform="translate(331.832 59.362) rotate(8.03)"/><path class="n" d="M.8.215,3.413,0l-.8,4.152L0,4.367Z" transform="translate(358.858 62.738) rotate(8.03)"/><path class="n" d="M1.149.215,3.763,0,2.614,5.968,0,6.183Z" transform="translate(350.038 60.41) rotate(8.03)"/><path class="n" d="M.8.215,3.413,0l-.8,4.152L0,4.367Z" transform="translate(377.078 63.793) rotate(8.03)"/><path class="n" d="M1.149.215,3.763,0,2.614,5.968,0,6.183Z" transform="translate(368.229 61.464) rotate(8.03)"/><path class="o" d="M407.867,107.721a26.3,26.3,0,0,0-3.287-.523c1.315,0,1.227-.307,2.615-.355.541.048,2.922.968,2.659,1.166C409.474,108.328,408.846,107.925,407.867,107.721Z" transform="translate(186.471 -40.677)"/><path class="o" d="M402.185,109.684a5.093,5.093,0,0,1,.248-2.4c2.279.174,9.247.962,9.423.962,2.922.084,3.477.487,2.922.721-.146.054,1.709.379,1.271.649,0,0,.993.24.76.475S406.159,109.083,402.185,109.684Z" transform="translate(185.345 -42.93)"/><path class="o" d="M372.8,90.853c-.672.391-11.848-2.687-13.148-3.48-3.112-1.833,15.3-11.1,23.2-13.908,2.995-1.07,12.739-.775,6.282,3.606C383.814,80.635,376.539,88.695,372.8,90.853Z" transform="translate(165.602 -3.061)"/><path class="o" d="M379.4,105.927c-2.191,0-5.245-.5-4.923-2.326.351-1.989,36.932-7.291,40.715-6.9a8.646,8.646,0,0,0,2.06,2.17c-7.3.6-29.978,5.974-36.523,6.96a9.93,9.93,0,0,1-1.329.1Z" transform="translate(172.586 -32.368)"/><path class="p" d="M391.214,80.731c-.307.288-14.083,14.287-15.938,15.423-.292.174-17-2.843-18.422-3.648-4.222-2.4,18.583-12.784,24.762-15.062,5.844-2.224,28.984-5.494,39.108-6.455l2.425,3.384c-4.076.355-14.083,2.536-22.133,4.285C397.349,79.445,393.829,80.208,391.214,80.731Z" transform="translate(164.235 -7.16)"/><path class="o" d="M343.406,188.976c-.526-1.6,1.607-37.511,1.607-37.511a15.93,15.93,0,0,1,5.537.355s10.153,34.861,10.416,35.564C359.462,186.848,345.525,188.207,343.406,188.976Z" transform="translate(158.238 -148.289)"/><path class="i" d="M351.25,214.962c-.73.409-1.622,1.034-1.622,1.034l-4.7-.938a.67.67,0,0,1-.263-.793.762.762,0,0,1,0-1.244,22.584,22.584,0,0,1,4.646-1.136,35.27,35.27,0,0,1,5.347-.445c2.235,0,5.055.391,5.142.926C359.913,213.441,352.609,214.175,351.25,214.962Z" transform="translate(158.706 -211.413)"/><path class="i" d="M364.234,213.605a3.806,3.806,0,0,1-1.461.517l-5-.6a7.749,7.749,0,0,0,.5-1.2c.234-.974-3.959-3.528-2.1-4.267.935-.373,3.7.1,5.318.733a7.991,7.991,0,0,1,3.229,1.8c.409.691,1.826,1.755,1.592,2.128a3.694,3.694,0,0,1-2.075.89Z" transform="translate(163.94 -207.424)"/><path class="o" d="M356.9,208.777a2.907,2.907,0,0,0,.789-1.25,18.28,18.28,0,0,1,3.667.054,5.537,5.537,0,0,1,2.323,1.262c-.862.481-1.461.793-1.461.793Z" transform="translate(164.496 -202.662)"/><path class="q" d="M355.69,171.367c-10.928-.517-25.23-.252-28.955.331-.278-1.262,3.565-17.5,8.079-33.2,2.162-7.513,36.435-24.252,36.435-24.252a12.558,12.558,0,0,1,6.019.769s-23.184,19.059-22.629,23.868C355.894,149.742,358.845,163.488,355.69,171.367Z" transform="translate(150.586 -108.658)"/><path class="o" d="M344.44,212.6a3.687,3.687,0,0,1,.19-1,17.158,17.158,0,0,1,3.784-.295,9.672,9.672,0,0,1,2.8.974,5.678,5.678,0,0,0-1.461,1.142Z" transform="translate(158.753 -208.73)"/><path class="r" d="M343.874,171.662s-3.448-23.02-1.315-34.224a179.452,179.452,0,0,0,2.688-26.662c2.074-1.07,6.647-.192,6.72-.1,0,0,22.98,58.788,22.542,61.211C370.784,171.337,354.787,171.085,343.874,171.662Z" transform="translate(157.565 -106.488)"/><path class="s" d="M330.243,117.494s-5.347-5.3-3.272-8.817A144.2,144.2,0,0,1,348.884,106l4.383,3.955s3.623-4.346,5.391-4.436c9.9-.517,20.117-.5,27.319.9l-2.133,6.389Z" transform="translate(150.481 -49.062)"/><path class="o" d="M356.1,61.6c0-1.268-2.016-4.682-3.272-5.277,1.738-2.4,10.84-2.939,11.921-1.623-.964,1.533,1.461,4.147,1.563,4.406C364.02,59.089,356.774,61.325,356.1,61.6Z" transform="translate(162.62 37.61)"/><path class="p" d="M385.249,91.322c-1.329.427-8.985,1.881-8.985,1.881a11.041,11.041,0,0,0-4.383-.679,28.094,28.094,0,0,0-7.509,2.308s-7.158-.385-9.569-.481c-7.2-.289-11.322-2.7-13.762-5.025C335.549,84.1,329.472,71.9,327.894,68.6c-.273-.539.2-1.1,1.227-1.449,12.418-4.171,47.348-4.911,53.834-4.063,4.982.649,1.68,16.066,6.5,22.4,1.819,2.113.12,4.468-4.207,5.83Z" transform="translate(151.092 -0.898)"/><path class="o" d="M292.99,48.257c-.555,0-.774-1.028-.541-1.232.935-.421,1.461-.2,2.264-.643a3.187,3.187,0,0,0-.964,1.394C293.706,48.04,293.837,48.329,292.99,48.257Z" transform="translate(134.747 55.523)"/><path class="o" d="M291.491,48.572c-.763.308-1.584.592-2.454.847a7.42,7.42,0,0,1-1.855-.048c-.31-.091-.454-.25-.365-.4-.76-.114.278-.823.073-.835-.818-.042-.92-.511,1.271-1.286.132-.048,4.6-2.4,6.18-3.077a24.927,24.927,0,0,1,3.711,1.893,24.16,24.16,0,0,1-2.542,1.322C294.428,47.514,291.681,48.5,291.491,48.572Z" transform="translate(131.98 55.905)"/><path class="o" d="M356.564,70.842c-6.413.313-27.041-.932-37.195-.745-12.447.228-8.386-3.426-4.675-4,9.788-1.5,38.378-3.7,40.788-1.689C356.535,65.282,357.762,70.788,356.564,70.842Z" transform="translate(143.327 22.545)"/><path class="o" d="M327.874,53.231c-5.259,1.893-27.669,7.507-32.388,9.839a23.852,23.852,0,0,0-4.076-1.755c7.947-3.769,30.284-12.237,34.7-11.42,4.032.757,3.7,2.116,2.6,2.9a3.469,3.469,0,0,1-.833.439Z" transform="translate(134.311 38.641)"/><path class="p" d="M375.54,58.835c-20.818.793-47.932-.926-48.692-.95-2.4.7-5.7,1.593-9.174,2.536-7.6,2.062-17.063,4.622-19.766,5.926l-6.048-2.5c6.925-3.192,24.981-9.965,32.549-11.011,7.816-1.136,37.428-3.546,40.54-.872C365.986,52.861,377.922,58.745,375.54,58.835Z" transform="translate(134.519 34.816)"/><path class="n" d="M370.741,71.2a4.313,4.313,0,0,1,.453,5.283c-1.709,1.316-7.8-.95-7.889-.992a4.5,4.5,0,0,0,.132-4.808c-.993-1.5-3.331-2.53-1.87-6.209,2.1-5.277-5.683-10.56-3.156-11.258,2.308-.631,11.059,1.845,13.323,7.525a4.313,4.313,0,0,1-.906,4.616,3.991,3.991,0,0,0-.088,5.842Z" transform="translate(164.957 22.852)"/><path class="o" d="M365.129,55.689c-4.47.126-8.429-1.557-8.765-3.378l-.321-1.893c-.234-1.37,4.543-3.684,7.494-3.51,6.983.4,9.321,5.542,9.189,6.137C372.375,54.7,369.293,55.569,365.129,55.689Z" transform="translate(164.097 47.783)"/><path class="n" d="M378.2,69.461a14.24,14.24,0,0,1-4.178.487s.19.805-3.638,1.665c-3.053.685-9.072.391-13.82-1.418-5.437-1.989-7.877-5.021-6.4-7.952,1.349-2.28-.042-4.687-3.74-6.473-3.4-1.593-4.178-3.931-4.164-5.055,0-6.557,11.994-10.218,15.909-9.749,4.3.517-4.383,7.213,1.958,12.874,4.456,3.943,1.461,5.331.877,7.11-.8,2.326,2.206,5.2,4.763,6.209,2.8,1.112,7.977,1.112,7.977,1.112s7.129-1.07,3.4-5.77C381.325,63.727,382.785,68.181,378.2,69.461Z" transform="translate(157.748 35.117)"/><path class="o" d="M354.7,52.758c-.01-.575.71-1.11,1.9-1.412a28.546,28.546,0,0,1,2.63,1.971,6.865,6.865,0,0,1-1.753.367A3.46,3.46,0,0,1,354.7,52.758Z" transform="translate(163.482 47.114)"/><path class="o" d="M211.346,31.607c.278-.337.818-.144,1.461,0a26.32,26.32,0,0,0,3.419.361c-1.315.036-1.14.361-2.5.475C213.1,32.4,211.112,31.817,211.346,31.607Z" transform="translate(97.401 80.34)"/><path class="o" d="M208.684,29.822c.073-.078-1.943-.066-1.8-.391-.366-.046-.626-.18-.657-.337a1.5,1.5,0,0,1,.847-.685c.973-.18,1.98-.329,3.009-.445.248-.03,3.755-.493,5.361-.6,1.334-.117,2.686-.2,4.047-.234a10.223,10.223,0,0,1,2.1,2.272c-2.264.21-9.423.6-9.583.643C209.3,30.411,208.363,30.134,208.684,29.822Z" transform="translate(95.052 85.143)"/><path class="i" d="M257.757,58.516c-6.472,2.044-30.285,5.109-40.774,5.92L214.85,60.92c4.207-.289,14.711-2.35,23.141-4,3.857-.757,7.524-1.473,10.226-1.971a12.708,12.708,0,0,1,1.213-.872c2.7-1.725,11.789-7.393,8.941-10.122-.131-.2,29.744-16.523,29.744-16.523S281.321,51.075,257.757,58.516Z" transform="translate(99.025 50.745)"/><path class="o" d="M264.53,187.086c.117-1.617,16.45-35.684,16.45-35.684a14.392,14.392,0,0,1,5.3.727s-3.784,33.881-3.813,34.584C281.287,186.088,266.94,186.472,264.53,187.086Z" transform="translate(121.922 -146.41)"/><path class="n" d="M280.827,173.973c-7.494-.763-14.945-1.527-22.527-2.05l.541-2.116c2.308-.6,4.383-11.113,11.015-22.01A247.792,247.792,0,0,0,283,122.89a12.033,12.033,0,0,0,6.662.367s-1.329,34.386-2.586,51.383C285.093,174.412,283.018,174.2,280.827,173.973Z" transform="translate(119.051 -116.835)"/><path class="t" d="M282.336,212.921q-.657.25-1.227.535s-4.193.409-5.478-.86c0,0,0-1.491.979-2.025a29.3,29.3,0,0,1,5.347-2,25.494,25.494,0,0,1,5.449-.072c2.22.132,4.821.727,4.689,1.262C291.831,210.818,284.059,212.236,282.336,212.921Z" transform="translate(127.038 -207.101)"/><path class="t" d="M280.824,214.158c-2.177.6-5.844-.451-3.375-1.887a24.218,24.218,0,0,1,4.5-1.683,21.51,21.51,0,0,1,4.587-.06c1.87.108,4.061.6,3.945,1.064C290.32,212.475,283.016,213.515,280.824,214.158Z" transform="translate(127.498 -209.142)"/><path class="o" d="M202.512,126.686c0-.228,2.4-.427,2.922-.349,1.125.337.643.6,1.8.859a27.261,27.261,0,0,0-3.477-.246C203.111,126.956,202.425,127.041,202.512,126.686Z" transform="translate(93.335 -71.453)"/><path class="o" d="M209.566,130.551c-1.2-.267-2.361-.568-3.462-.9-1.329-.391-4.076-1.406-4.266-1.479a23.209,23.209,0,0,1-2.308-.914.593.593,0,0,1-.088-.763,1.6,1.6,0,0,1,.935-.192c.19-.319,2.016,0,2.031-.054,0-.337,1.14-.433,3.243.385.131.048,6.253,1.629,8.093,2.2a31.662,31.662,0,0,1-4.178,1.719Z" transform="translate(91.876 -74.615)"/><path class="o" d="M234.421,119.371a6.837,6.837,0,0,1-1.125-.295c-5.128-1.947-21.081-10.524-27.217-12.207a20.643,20.643,0,0,0,3.8-1.851c9.949,2.849,32.8,11.089,31.263,12.983C239.739,119.732,236.423,119.738,234.421,119.371Z" transform="translate(94.983 -51.018)"/><path class="o" d="M241.133,97.515c-1.987.523-15.179,1.593-15.427,1.124-1.461-2.591-.628-11.161-2.148-15.3-1.87-5.073,7.392-3.8,9.16-2.338C237.378,84.851,245.735,96.313,241.133,97.515Z" transform="translate(102.924 -14.995)"/><path class="i" d="M231.043,109.044a38.418,38.418,0,0,0,.38-8.511,31.985,31.985,0,0,0-1.1-8.156,4.125,4.125,0,0,1-.234-1c-2.031-.914-4.646-2.188-7.421-3.528-6.034-2.933-13.557-6.581-17.122-7.555L211,77.447c8.765,2.506,27.757,9.238,31.292,12.279,3.769,3.137,10.957,11.318,13.543,14.461C256.608,105.149,231.043,109.254,231.043,109.044Z" transform="translate(94.738 -23.933)"/><path class="o" d="M244.47,187.1c.146-.7,4.909-34.56,4.909-34.56a15.478,15.478,0,0,1,5.464-.493s7.67,34.578,7.392,36.189C259.985,187.519,245.887,186.527,244.47,187.1Z" transform="translate(112.677 -147.919)"/><path class="n" d="M239.452,170.213c-.818-2.4,11.614-60.435,11.614-60.435a12.3,12.3,0,0,0,6.72-.078,198.5,198.5,0,0,0,6.793,25.334c3.857,11.119,3.287,21.668,5.42,22.365v11.787C259.014,168.891,243.09,169.558,239.452,170.213Z" transform="translate(110.346 -104.48)"/><path class="b" d="M273.562,120.125q-15.241-2.583-31.073-4.5c-2.425-.319-4.792-.6-7.158-.878,2.922-3.606,3.755-5.89,7.129-8.926,21.753,1.112,44.82,3.3,52.753,5.542a28.833,28.833,0,0,1,5.142,1.911,61.008,61.008,0,0,1-10.226,11.041,109.467,109.467,0,0,0-16.566-4.189Z" transform="translate(108.464 -56.249)"/><path class="o" d="M229.25,60.011c.19-.246,3.4-2.1,3.009-3.672,1.549-1.232,11.322-1.238,12.169,1.274-1.461.511-5.551,4.207-5.99,5.494C237.869,62.823,231.514,60.143,229.25,60.011Z" transform="translate(105.662 35.186)"/><path class="o" d="M239.323,55.573c-.964,1.8-4.646,3.005-9.014,2.6-4.076-.373-7.655-1.2-7.436-2.879.088-.6,4.266-5.536,11.307-5.506,2.922,0,6.866,2.591,6.15,3.931Z" transform="translate(102.718 43.488)"/><path class="i" d="M255.726,104.2c-1.914-3.107-8.415-3.005-8.415-3.005a19.941,19.941,0,0,0-5.844-1.352,21.948,21.948,0,0,0-6.282.078s-5.566-1.953-7.465-2.554c-5.7-1.845-5.522-4.255-3.229-6.612.555-.571,9.321-20.171,22.483-32.018.979.15,3.579.487,4.85.655l-4.836,8.138,9.92-7.507c13.323,1.593,33.6,3.654,41.972,5.662L294.016,73l7.655-6.455c.555.246,2.308.805,2.352,1.052-7.392,11.474-33.162,28.85-35.485,29.98C265.572,99.057,257.333,106.822,255.726,104.2Z" transform="translate(102.779 -8.374)"/><path class="t" d="M250.923,215.348a10.182,10.182,0,0,0-1.081-.6c-1.534-.751-8.912-2.494-8.912-3.558,0-.535,2.747-1.022,4.982-1.058a24.931,24.931,0,0,1,5.405.307,23.444,23.444,0,0,1,4.806,2.218c.833.6.467,2.056.467,2.056C254.984,215.931,250.923,215.348,250.923,215.348Z" transform="translate(111.045 -210.098)"/><path class="t" d="M250.72,216.033c-2.06-.733-8.97-2.074-8.97-2.969,0-.451,2.308-.86,4.193-.89a21,21,0,0,1,4.543.258,19.342,19.342,0,0,1,4.047,1.869C256.724,215.84,252.721,216.748,250.72,216.033Z" transform="translate(111.423 -212.123)"/><path class="u" d="M245.962,48.225c1.841,2.536.292,5.83-6.486,6.942-7.684,1.262-16.83-1.953-17.721-4.923-.672-2.212-3.55-1.076-3.725-.535.307-1.382,2.454-2.35,8.459-1.424,1.256.192-2.513-.829-2.513-.829s10.533-4.808,19.678-2.218a13.561,13.561,0,0,1,4.485,2.3S245.027,46.914,245.962,48.225Z" transform="translate(100.49 49.49)"/><path class="b" d="M456.156,182.353H414.1c-12.744-.023-23.057-4.271-23.1-9.515h0c.008-5.253,10.33-9.515,23.1-9.539h42.059c12.755.016,23.086,4.267,23.126,9.515h0C479.274,178.072,468.934,182.337,456.156,182.353Z" transform="translate(180.212 -148.836)"/><path class="b" d="M441.688,215.284H413.654c-3.625-.069-6.478-1.3-6.478-2.792s2.853-2.723,6.478-2.792H441.7c3.748,0,6.785,1.253,6.793,2.795h0C448.48,214.037,445.437,215.284,441.688,215.284Z" transform="translate(187.668 -209.655)"/><path class="n" d="M415.452,179.669l-1.68.691-7.9-3.252c-.459-.192-.459-.5,0-.691l8.137-3.348,1.68.691-7.3,3.005Z" transform="translate(186.907 -152.716)"/><path class="n" d="M431.53,180.475l-1.68-.691,7.465-3.071-7.465-3.071,1.68-.691,8.313,3.42c.458.192.458.5,0,.691Z" transform="translate(198.118 -152.758)"/><path class="n" d="M.52,6.908,16.6,0l-.52,2.15L0,9.059Z" transform="translate(616.665 14.563) rotate(66.04)"/></g></g></g><g transform="translate(998 255)"><g transform="translate(0.381)"><g transform="translate(0)"><rect class="b" width="108.56" height="61.226" rx="20.75" transform="translate(561.059 161.824)"/><path class="c" d="M407.212,132.779h-8.123V124.7H394.94v20.54h4.149v-8.985h8.123v8.985h4.149V124.7h-4.149Z" transform="translate(182.028 57.474)"/><path class="c" d="M408.11,128.177h6.107V145.24h4.149V128.177h6.077V124.7H408.11Z" transform="translate(188.098 57.474)"/><path class="c" d="M431.029,138.71,427.3,124.7H421.08v20.54h3.857V129.068l4.076,16.172H433l4.076-16.172V145.24h3.857V124.7H434.71Z" transform="translate(194.076 57.474)"/><path class="c" d="M441.719,124.81H437.57v20.38h14.463v-3.462H441.719Z" transform="translate(201.676 57.525)"/><g transform="translate(262.188 239.149)"><rect class="d" width="119.005" height="73.396"/></g><g transform="translate(110.634)"><rect class="v" width="422.098" height="247.564" rx="13.41"/></g><g transform="translate(123.636 11.424)"><rect class="c" width="396.094" height="201.151"/></g><g transform="translate(217.404 304.788)"><path class="f" d="M349.725,208.63H156.39a7.575,7.575,0,1,0,0,15.15H349.725a7.575,7.575,0,0,0,0-15.15Z" transform="translate(-148.815 -208.63)"/></g><g class="a" transform="translate(155.761 30.752)"><rect class="g" width="38.918" height="52.008" transform="translate(292.925)"/><rect class="g" width="280.624" height="52.008"/><rect class="g" width="77.837" height="52.008" transform="translate(0 68.253)"/><rect class="g" width="239.661" height="21.855" transform="translate(92.183 98.406)"/><rect class="g" width="239.661" height="21.84" transform="translate(92.183 68.253)"/><rect class="g" width="331.829" height="32.096" transform="translate(0 130.415)"/></g><rect class="j" width="152.094" height="90.459" rx="21.2" transform="translate(180.29 44.236)"/><path class="k" d="M161.072,80.285a8.444,8.444,0,0,1-5.844,2.133,9.248,9.248,0,0,1-7.407-3.36q-2.849-3.36-2.849-11.278,0-7.465,2.922-10.8a9.5,9.5,0,0,1,7.538-3.331,8.634,8.634,0,0,1,8.765,7.012l8.342-1.987a16.479,16.479,0,0,0-4.266-7.684,17.37,17.37,0,0,0-12.447-4.529A18.451,18.451,0,0,0,141.7,52.221q-5.376,5.771-5.391,16.187,0,9.861,5.361,15.529A19.664,19.664,0,0,0,166.507,86.3a18.32,18.32,0,0,0,6.253-10.153l-8.21-2.6a12.4,12.4,0,0,1-3.477,6.735Z" transform="translate(62.825 21.409)"/><path class="k" d="M192.385,65.821a40.978,40.978,0,0,0-9.1-2.995q-6.15-1.461-7.743-2.79a3.214,3.214,0,0,1-1.256-2.542,3.039,3.039,0,0,1,1.344-2.586,9.627,9.627,0,0,1,5.756-1.461,8.5,8.5,0,0,1,5.332,1.461,7.159,7.159,0,0,1,2.323,4.631l8.429-.365a12.169,12.169,0,0,0-4.164-9.2q-3.974-3.448-11.833-3.448a20.891,20.891,0,0,0-8.21,1.461,11.322,11.322,0,0,0-5.215,4.12,10.738,10.738,0,0,0-1.812,5.975,10.869,10.869,0,0,0,3.842,8.4q2.732,2.454,9.51,4.134,5.274,1.315,6.749,1.826a6.969,6.969,0,0,1,3.039,1.812,3.813,3.813,0,0,1,.862,2.527,5.142,5.142,0,0,1-2.06,4.047,9.408,9.408,0,0,1-6.136,1.724,9.072,9.072,0,0,1-6.107-1.943,9.993,9.993,0,0,1-3.009-6.063l-8.2.8A15.924,15.924,0,0,0,169.8,86.01q4.237,3.652,12.169,3.667a23.652,23.652,0,0,0,9.087-1.461,11.95,11.95,0,0,0,5.639-4.66,12.3,12.3,0,0,0,1.987-6.72,12.446,12.446,0,0,0-1.665-6.647A11.79,11.79,0,0,0,192.385,65.821Z" transform="translate(75.924 21.439)"/><path class="k" d="M219.016,65.853a40.9,40.9,0,0,0-9.1-2.995q-6.15-1.461-7.743-2.79a3.214,3.214,0,0,1-1.271-2.586,3.039,3.039,0,0,1,1.344-2.586A9.627,9.627,0,0,1,208,53.435a8.5,8.5,0,0,1,5.332,1.461,7.173,7.173,0,0,1,2.323,4.573l8.429-.365a12.169,12.169,0,0,0-4.178-9.2q-3.974-3.448-11.833-3.448a20.891,20.891,0,0,0-8.21,1.461,11.322,11.322,0,0,0-5.215,4.222,10.738,10.738,0,0,0-1.811,5.975,10.869,10.869,0,0,0,3.828,8.386q2.732,2.454,9.51,4.134,5.274,1.315,6.749,1.826a6.954,6.954,0,0,1,3.039,1.812,3.813,3.813,0,0,1,.862,2.527,5.143,5.143,0,0,1-2.031,4.061,9.408,9.408,0,0,1-6.136,1.724,9.072,9.072,0,0,1-6.15-1.972,9.992,9.992,0,0,1-2.922-6.077l-8.2.8A15.924,15.924,0,0,0,196.459,86q4.237,3.652,12.169,3.667a23.652,23.652,0,0,0,9.087-1.461,11.95,11.95,0,0,0,5.639-4.66,12.3,12.3,0,0,0,1.987-6.72,12.447,12.447,0,0,0-1.665-6.647,11.789,11.789,0,0,0-4.66-4.324Z" transform="translate(88.212 21.407)"/><path class="d" d="M126.85,222.854H115.922a1.592,1.592,0,0,0-1.592,1.592v2.381H86.719a41.022,41.022,0,0,0,14.448-9.116,38.086,38.086,0,0,0,10.65-22.5h4.105a1.592,1.592,0,0,0,1.578-1.578V183.7a1.592,1.592,0,0,0-1.578-1.592H104.98a1.592,1.592,0,0,0-1.592,1.592v9.934a1.592,1.592,0,0,0,1.592,1.592h3.652a34.9,34.9,0,0,1-9.671,20.219c-8.911,8.882-21.519,10.928-26.778,11.4H70.8v-2.381a1.592,1.592,0,0,0-1.607-1.607H59.254a1.592,1.592,0,0,0-1.592,1.592v2.381h-.687c-5.245-.467-17.838-2.513-26.749-11.38a35.252,35.252,0,0,1-9.773-21.212h3.083a1.592,1.592,0,0,0,1.592-1.592V183.7a1.592,1.592,0,0,0-1.592-1.592h-11a1.592,1.592,0,0,0-1.592,1.592v8.955a1.592,1.592,0,0,0,1.592,1.592h4.66c1.14,9.569,4.7,17.531,10.767,23.491a41.008,41.008,0,0,0,14.4,9.1H13.148v-2.381a1.592,1.592,0,0,0-1.607-1.607H1.592A1.592,1.592,0,0,0,0,224.462v9.949A1.592,1.592,0,0,0,1.592,236h9.949a1.592,1.592,0,0,0,1.607-1.607v-4.383H56.464l1.213.088v3.287a1.592,1.592,0,0,0,1.592,1.592H69.2a1.592,1.592,0,0,0,1.592-1.592v-3.229a11.726,11.726,0,0,0,1.885-.117h41.65v3.375a1.592,1.592,0,0,0,1.592,1.592H126.85a1.592,1.592,0,0,0,1.592-1.592v-8.955a1.592,1.592,0,0,0-1.592-1.607Z" transform="translate(0 83.935)"/><path class="l" d="M59.128,179.13H43.058c0,13.148-14.448,24.09-14.448,24.09l21.168,24.193,1.461,1.724L52.7,227.5,73.693,203.06S59.157,192.278,59.128,179.13Z" transform="translate(13.186 82.561)"/><path class="d" d="M42.97,197.155l.044,21.914,1.592,1.768,1.329-1.446-.044-22.249Z" transform="translate(19.805 90.862)"/><circle class="d" cx="5.084" cy="5.084" r="5.084" transform="translate(59.267 278.82) rotate(-0.12)"/><path class="l" d="M47.722,46.17A12.651,12.651,0,0,0,35.1,58.851v9.233H60.4V58.792A12.651,12.651,0,0,0,47.722,46.17Z" transform="translate(16.178 21.28)"/><path class="d" d="M35.11,61.179l.278,132.387a4.061,4.061,0,0,0,4.076,4.047l.073,35.252h17.18l-.073-35.252a4.061,4.061,0,0,0,4.047-4.076L60.413,61.15Z" transform="translate(16.182 28.184)"/><path class="w" d="M222.972,121.024,106.1,137.517l3.8,26.881,233.729-32.973-3.784-26.9Z" transform="translate(48.902 48.178)"/><rect class="j" width="2.644" height="9.817" transform="translate(176.2 182.691) rotate(-8.03)"/><rect class="j" width="2.644" height="14.112" transform="translate(167.098 183.98) rotate(-8.03)"/><rect class="j" width="2.644" height="9.817" transform="translate(194.392 180.144) rotate(-8.03)"/><rect class="j" width="2.644" height="14.112" transform="translate(185.306 181.419) rotate(-8.03)"/><rect class="j" width="2.644" height="9.817" transform="translate(212.612 177.554) rotate(-8.03)"/><rect class="j" width="2.644" height="14.112" transform="translate(203.526 178.855) rotate(-8.03)"/><rect class="j" width="2.644" height="9.817" transform="translate(230.82 175.005) rotate(-8.03)"/><rect class="j" width="2.644" height="14.112" transform="translate(221.717 176.279) rotate(-8.03)"/><rect class="j" width="2.644" height="9.817" transform="translate(249.026 172.429) rotate(-8.03)"/><rect class="j" width="2.644" height="14.112" transform="translate(239.923 173.718) rotate(-8.03)"/><rect class="j" width="2.644" height="9.817" transform="translate(267.245 169.707) rotate(-8.049)"/><rect class="j" width="2.644" height="14.112" transform="translate(258.144 171.013) rotate(-8.049)"/><rect class="j" width="2.644" height="9.817" transform="translate(285.423 167.306) rotate(-8.03)"/><rect class="j" width="2.644" height="14.112" transform="translate(276.334 168.593) rotate(-8.03)"/><rect class="j" width="2.644" height="9.817" transform="translate(303.643 164.728) rotate(-8.03)"/><rect class="j" width="2.644" height="14.112" transform="translate(294.542 166.032) rotate(-8.03)"/><rect class="n" width="2.644" height="9.817" transform="translate(321.849 162.167) rotate(-8.03)"/><rect class="j" width="2.644" height="14.112" transform="translate(312.763 163.426) rotate(-8.03)"/><rect class="n" width="2.644" height="9.817" transform="translate(340.051 159.622) rotate(-8.02)"/><rect class="j" width="2.644" height="14.112" transform="translate(330.968 160.865) rotate(-8.03)"/><rect class="n" width="2.644" height="9.817" transform="translate(358.248 157.029) rotate(-8.03)"/><rect class="n" width="2.644" height="14.112" transform="translate(349.174 158.316) rotate(-8.03)"/><rect class="n" width="2.644" height="9.817" transform="translate(376.468 154.466) rotate(-8.03)"/><rect class="n" width="2.644" height="14.112" transform="translate(367.365 155.755) rotate(-8.03)"/><path class="o" d="M407.867,107.832a12.9,12.9,0,0,1-3.287,1.271c1.315,0,1.227.745,2.615.862.541-.117,2.922-2.352,2.659-2.834C409.474,106.357,408.846,107.335,407.867,107.832Z" transform="translate(186.471 49.244)"/><path class="o" d="M402.185,108.332a29.344,29.344,0,0,0,.248,5.844c2.279-.424,9.247-2.337,9.423-2.337,2.922-.2,3.477-1.183,2.922-1.753-.146-.131,1.709-.92,1.271-1.578,0,0,.993-.584.76-1.154S406.159,109.793,402.185,108.332Z" transform="translate(185.345 49.446)"/><path class="o" d="M372.8,73.026c-.672-.95-11.848,6.53-13.148,8.459-3.112,4.456,15.3,26.968,23.2,33.805,2.995,2.6,12.739,1.885,6.282-8.765C383.814,97.861,376.539,78.271,372.8,73.026Z" transform="translate(165.602 33.62)"/><path class="o" d="M379.4,96.68c-2.191,0-5.245,1.227-4.923,5.654.351,4.836,36.932,17.721,40.715,16.771a24.093,24.093,0,0,1,2.06-5.274c-7.3-1.461-29.978-14.521-36.523-16.917a4.265,4.265,0,0,0-1.329-.234Z" transform="translate(172.586 44.56)"/><path class="p" d="M391.214,108.492c-.307-.7-14.083-34.726-15.938-37.487-.292-.424-17,6.91-18.422,8.868-4.222,5.844,18.583,31.073,24.762,36.61,5.844,5.405,28.984,13.353,39.108,15.69l2.425-8.225c-4.076-.862-14.083-6.165-22.133-10.416C397.349,111.619,393.829,109.763,391.214,108.492Z" transform="translate(164.235 32.718)"/><path class="o" d="M343.406,151.37c-.526,3.9,1.607,91.175,1.607,91.175a7,7,0,0,0,5.537-.862s10.153-84.732,10.416-86.441C359.462,156.542,345.525,153.24,343.406,151.37Z" transform="translate(158.238 69.767)"/><path class="i" d="M351.25,213.953c-.73-.993-1.622-2.513-1.622-2.513l-4.7,2.279a2.835,2.835,0,0,0-.263,1.928,3.711,3.711,0,0,0,0,3.024c.424.833,3.36,2.25,4.646,2.761a15.354,15.354,0,0,0,5.347,1.081c2.235,0,5.055-.95,5.142-2.25C359.913,217.649,352.609,215.867,351.25,213.953Z" transform="translate(158.706 97.453)"/><path class="i" d="M364.234,209.176c-.862-1.169-1.461-1.256-1.461-1.256l-5,1.461s.365,1.724.5,2.922c.234,2.367-3.959,8.575-2.1,10.372.935.906,3.7-.248,5.318-1.782a10.65,10.65,0,0,0,3.229-4.383c.409-1.68,1.826-4.266,1.592-5.172a3.711,3.711,0,0,0-2.075-2.162Z" transform="translate(163.94 95.83)"/><path class="o" d="M356.9,209.549a11.366,11.366,0,0,1,.789,3.039,7.626,7.626,0,0,0,3.667-.131c1.066-.321,2.323-3.068,2.323-3.068-.862-1.169-1.461-1.928-1.461-1.928Z" transform="translate(164.496 95.618)"/><path class="q" d="M355.69,114.983c-10.928,1.256-25.23.614-28.955-.8-.278,3.068,3.565,42.541,8.079,80.686,2.162,18.261,36.435,58.947,36.435,58.947a6.165,6.165,0,0,0,6.019-1.87s-23.184-46.325-22.629-58.012C355.894,167.547,358.845,134.136,355.69,114.983Z" transform="translate(150.586 52.626)"/><path class="o" d="M344.44,213.247a20.956,20.956,0,0,0,.19,2.44s2.776,1.183,3.784.716a7.625,7.625,0,0,0,2.8-2.367,11.337,11.337,0,0,1-1.461-2.776Z" transform="translate(158.753 97.37)"/><path class="r" d="M343.874,110.805s-3.448,55.952-1.315,83.184c2.469,31.541,2.688,64.806,2.688,64.806,2.074,2.6,6.647.467,6.72.234,0,0,22.98-142.891,22.542-148.778C370.784,111.594,354.787,112.208,343.874,110.805Z" transform="translate(157.565 50.814)"/><path class="s" d="M330.243,105.21s-5.347,12.871-3.272,21.431a66.282,66.282,0,0,0,21.914,6.5l4.383-9.613s3.623,10.562,5.391,10.781c9.9,1.256,20.117,1.213,27.319-2.191l-2.133-15.529Z" transform="translate(150.481 48.491)"/><path class="o" d="M356.782,54c0,3.082-2.435,11.38-3.952,12.827,2.1,5.844,13.091,7.144,14.4,3.944-1.164-3.725,1.764-10.08,1.888-10.708C366.345,60.107,357.594,54.672,356.782,54Z" transform="translate(162.62 24.889)"/><path class="p" d="M385.249,71.312c-1.329-1.037-8.985-4.573-8.985-4.573s-2.206,2.118-4.383,1.651c-3.2-.687-7.509-5.61-7.509-5.61s-7.158.935-9.569,1.169c-7.2.7-11.322,6.574-13.762,12.213-5.493,12.71-11.57,42.366-13.148,50.372a3.623,3.623,0,0,0,1.227,3.521c12.418,10.139,47.348,11.936,53.834,9.876,4.982-1.578,1.68-39.05,6.5-54.448a12.564,12.564,0,0,0-4.207-14.171Z" transform="translate(151.092 28.935)"/><path class="o" d="M292.99,46.409c-.555,0-.774,2.5-.541,2.995.935,1.023,1.461.482,2.264,1.563a11.689,11.689,0,0,1-.964-3.389C293.706,46.935,293.837,46.233,292.99,46.409Z" transform="translate(134.747 21.377)"/><path class="o" d="M291.491,45.918a20.61,20.61,0,0,0-2.454-2.06,3.126,3.126,0,0,0-1.855.117.935.935,0,0,0-.365.979c-.76.278.278,2,.073,2.031-.818.1-.92,1.242,1.271,3.126.132.117,4.6,5.844,6.18,7.48a29.38,29.38,0,0,0,3.711-4.6,29.108,29.108,0,0,0-2.542-3.214A54.253,54.253,0,0,0,291.491,45.918Z" transform="translate(131.98 20.173)"/><path class="o" d="M356.564,63.729c-6.413-.76-27.041,2.264-37.195,1.812-12.447-.555-8.386,8.327-4.675,9.715,9.788,3.638,38.378,8.985,40.788,4.105C356.535,77.242,357.762,63.86,356.564,63.729Z" transform="translate(143.327 29.316)"/><path class="o" d="M327.874,73.755c-5.259-4.6-27.669-18.247-32.388-23.915a23.156,23.156,0,0,1-4.076,4.266c7.947,9.16,30.284,29.744,34.7,27.757,4.032-1.841,3.7-5.142,2.6-7.042a4.266,4.266,0,0,0-.833-1.066Z" transform="translate(134.311 22.971)"/><path class="p" d="M375.54,69.011c-20.818-1.928-47.932,2.25-48.692,2.308-2.4-1.695-5.7-3.871-9.174-6.165-7.6-5.011-17.063-11.234-19.766-14.4l-6.048,6.077c6.925,7.757,24.981,24.222,32.549,26.764,7.816,2.761,37.428,8.619,40.54,2.118C365.986,83.533,377.922,69.23,375.54,69.011Z" transform="translate(134.519 23.391)"/><path class="x" d="M370.741,66.956a23.053,23.053,0,0,0,.453-12.841c-1.709-3.2-7.8,2.308-7.889,2.41a24.835,24.835,0,0,1,.132,11.687c-.993,3.652-3.331,6.15-1.87,15.091,2.1,12.827-5.683,25.668-3.156,27.363,2.308,1.534,11.059-4.485,13.323-18.29a22.747,22.747,0,0,0-.906-11.22,20.453,20.453,0,0,1-.088-14.2Z" transform="translate(164.957 24.482)"/><path class="o" d="M365.129,46.915c-4.47-.307-8.429,3.784-8.765,8.21l-.321,4.6c-.234,3.331,4.543,8.955,7.494,8.532,6.983-.979,9.321-13.469,9.189-14.916C372.375,49.326,369.293,47.207,365.129,46.915Z" transform="translate(164.097 21.616)"/><path class="x" d="M378.2,46.98A6.6,6.6,0,0,0,374.02,45.8s.19-1.958-3.638-4.047c-3.053-1.665-9.072-.95-13.82,3.448a20.336,20.336,0,0,0-6.4,19.328,17.779,17.779,0,0,1-3.74,15.734c-3.4,3.871-4.178,9.554-4.164,12.286,0,15.938,11.994,24.835,15.909,23.7,4.3-1.256-4.383-17.531,1.958-31.292,4.456-9.584,1.461-12.958.877-17.282-.8-5.654,2.206-12.637,4.763-15.091,2.8-2.7,7.977-2.7,7.977-2.7s7.129,2.6,3.4,14.025C381.325,60.917,382.785,50.092,378.2,46.98Z" transform="translate(157.748 18.863)"/><path class="o" d="M354.7,53.616a4,4,0,0,0,1.9,3.433,54.049,54.049,0,0,0,2.63-4.792,3.8,3.8,0,0,0-1.753-.891C356.263,51.162,354.919,52.492,354.7,53.616Z" transform="translate(163.482 23.665)"/><path class="o" d="M211.346,33.451c.278.818.818.351,1.461,0a11.775,11.775,0,0,1,3.419-.877c-1.315-.088-1.14-.877-2.5-1.154C213.1,31.522,211.112,32.939,211.346,33.451Z" transform="translate(97.401 14.481)"/><path class="o" d="M208.684,28.095c.073.19-1.943.161-1.8.95a.935.935,0,0,0-.657.818,3.141,3.141,0,0,0,.847,1.665,20.453,20.453,0,0,0,3.009,1.081c.248.073,3.755,1.2,5.361,1.461a29.218,29.218,0,0,0,4.047.57,29.217,29.217,0,0,0,2.1-5.522c-2.264-.511-9.423-1.461-9.583-1.563C209.3,26.663,208.363,27.335,208.684,28.095Z" transform="translate(95.052 12.504)"/><path class="i" d="M257.757,41.82c-6.472-4.967-30.284-12.418-40.774-14.39l-2.133,8.546c4.207.7,14.711,5.712,23.141,9.73,3.857,1.841,7.524,3.579,10.226,4.792a22.853,22.853,0,0,0,1.213,2.118c2.7,4.193,11.789,17.969,8.941,24.6-.131.482,29.744,40.16,29.744,40.16S281.321,59.906,257.757,41.82Z" transform="translate(99.025 12.643)"/><path class="o" d="M264.53,151.39c.117,3.93,16.45,86.734,16.45,86.734a7,7,0,0,0,5.3-1.768s-3.784-82.351-3.813-84.06C281.287,153.815,266.94,152.88,264.53,151.39Z" transform="translate(121.922 69.776)"/><path class="n" d="M280.827,124.512c-7.494,1.855-14.945,3.711-22.527,4.982l.541,5.142c2.308,1.461,4.383,27.012,11.015,53.5C277.54,218.813,283,248.674,283,248.674a5.537,5.537,0,0,1,6.662-.891S288.336,164.2,287.08,122.89C285.093,123.445,283.018,123.956,280.827,124.512Z" transform="translate(119.051 56.64)"/><path class="t" d="M282.336,209.838a13.154,13.154,0,0,1-1.227-1.3s-4.193-.993-5.478,2.089c0,0,0,3.623.979,4.923a24.6,24.6,0,0,0,5.347,4.865,10.649,10.649,0,0,0,5.449.175c2.22-.321,4.821-1.768,4.689-3.068C291.831,214.951,284.059,211.5,282.336,209.838Z" transform="translate(127.038 96.045)"/><path class="t" d="M280.824,210.852c-2.177-1.461-5.844,1.1-3.375,4.587a20.322,20.322,0,0,0,4.5,4.091,8.984,8.984,0,0,0,4.587.146c1.87-.263,4.061-1.461,3.945-2.586C290.32,214.943,283.016,212.415,280.824,210.852Z" transform="translate(127.497 96.989)"/><path class="o" d="M202.512,127.562c0,.555,2.4,1.037,2.922.847,1.125-.818.643-1.461,1.8-2.089a11.688,11.688,0,0,1-3.477.6C203.111,126.9,202.425,126.7,202.512,127.562Z" transform="translate(93.335 58.221)"/><path class="o" d="M209.566,126a29.334,29.334,0,0,0-3.462,2.191c-1.329.95-4.076,3.419-4.266,3.594a20.541,20.541,0,0,0-2.308,2.221,3.112,3.112,0,0,0-.088,1.855.935.935,0,0,0,.935.467c.19.774,2.016,0,2.031.131,0,.818,1.14,1.052,3.243-.935.131-.117,6.253-3.959,8.093-5.347A29.217,29.217,0,0,0,209.566,126Z" transform="translate(91.876 58.073)"/><path class="o" d="M234.421,105.488a4.266,4.266,0,0,0-1.125.716c-5.128,4.733-21.081,25.58-27.217,29.671a23.08,23.08,0,0,1,3.8,4.5c9.949-6.925,32.8-26.954,31.263-31.555C239.739,104.612,236.423,104.6,234.421,105.488Z" transform="translate(94.983 48.403)"/><path class="o" d="M241.133,82.721c-1.987-1.271-15.179-3.871-15.427-2.732-1.461,6.3-.628,27.129-2.148,37.18-1.87,12.33,7.392,9.233,9.16,5.683C237.378,113.5,245.735,85.643,241.133,82.721Z" transform="translate(102.924 36.737)"/><path class="i" d="M231.043,77.466c.482,8.765.555,13.4.38,20.686a184.169,184.169,0,0,1-1.1,19.824,22.752,22.752,0,0,0-.234,2.44c-2.031,2.221-4.646,5.318-7.421,8.576-6.034,7.129-13.557,16-17.122,18.364l5.449,6.91c8.765-6.092,27.757-22.454,31.292-29.846,3.769-7.626,10.957-27.509,13.543-35.149C256.608,86.933,231.043,76.955,231.043,77.466Z" transform="translate(94.738 35.695)"/><path class="o" d="M244.47,154.751c.146,1.695,4.909,84,4.909,84a7,7,0,0,0,5.464,1.2s7.67-84.046,7.392-87.961C259.985,153.728,245.887,156.139,244.47,154.751Z" transform="translate(112.676 70.052)"/><path class="n" d="M239.452,109.7c-.818,5.844,11.614,146.894,11.614,146.894a5.537,5.537,0,0,1,6.72.19s2.323-30.27,6.793-61.577c3.857-27.027,3.287-52.665,5.42-54.36V112.2C259.014,112.914,243.09,111.292,239.452,109.7Z" transform="translate(110.346 50.561)"/><path class="b" d="M273.562,116a315.951,315.951,0,0,1-31.073,10.942c-2.425.774-4.792,1.461-7.158,2.133,2.922,8.765,3.755,14.317,7.129,21.694,21.753-2.7,44.82-8.02,52.753-13.469,1.461-.979,5.084-4.061,5.142-4.646a174.363,174.363,0,0,0-10.226-26.837A66.706,66.706,0,0,1,273.562,116Z" transform="translate(108.464 48.773)"/><path class="o" d="M229.25,63.054c.19.6,3.4,5.1,3.009,8.926,1.549,2.995,11.322,3.009,12.169-3.1-1.461-1.242-5.551-10.226-5.99-13.353C237.869,56.217,231.514,62.732,229.25,63.054Z" transform="translate(105.662 25.594)"/><path class="o" d="M239.323,56.305c-.964-4.383-4.646-7.3-9.014-6.326-4.076.906-7.655,2.922-7.436,7,.088,1.461,4.266,13.455,11.307,13.382,2.922,0,6.866-6.3,6.15-9.554Z" transform="translate(102.718 22.948)"/><path class="i" d="M255.726,60.041c-1.914,7.553-8.415,7.3-8.415,7.3a11.687,11.687,0,0,1-5.844,3.287c-4.237.964-6.282-.19-6.282-.19s-5.566,4.748-7.465,6.209c-5.7,4.485-5.522,10.343-3.229,16.07.555,1.388,9.321,49.028,22.483,77.822.979-.365,3.579-1.183,4.85-1.592L246.99,149.17l9.919,18.247c13.323-3.871,33.6-8.882,41.972-13.762l-4.865-17.779,7.655,15.69c.555-.6,2.308-1.958,2.352-2.557-7.392-27.889-33.162-70.123-35.485-72.87C265.572,72.546,257.333,53.671,255.726,60.041Z" transform="translate(102.779 27.073)"/><path class="t" d="M250.923,210.437a13.305,13.305,0,0,1-1.081,1.461c-1.534,1.826-8.912,6.063-8.912,8.648,0,1.3,2.747,2.484,4.982,2.571a10.65,10.65,0,0,0,5.405-.745,24.632,24.632,0,0,0,4.806-5.391c.833-1.461.467-5,.467-5C254.984,209.02,250.923,210.437,250.923,210.437Z" transform="translate(111.045 96.834)"/><path class="t" d="M250.72,212.75c-2.06,1.782-8.97,5.04-8.97,7.217,0,1.1,2.308,2.089,4.193,2.162a8.97,8.97,0,0,0,4.543-.628,20.35,20.35,0,0,0,4.047-4.543C256.724,213.218,252.721,211.012,250.72,212.75Z" transform="translate(111.423 97.779)"/><path class="y" d="M245.962,62.029c1.841-6.165.292-14.171-6.486-16.873-7.684-3.068-16.83,4.748-17.721,11.965-.672,5.376-3.55,2.615-3.725,1.3.307,3.36,2.454,5.712,8.459,3.462,1.256-.467-2.513,2.016-2.513,2.016s10.533,11.687,19.678,5.391a16.2,16.2,0,0,0,4.485-5.581S245.027,65.214,245.962,62.029Z" transform="translate(100.49 20.497)"/><path class="b" d="M456.156,163.3H414.1A23.2,23.2,0,0,0,391,186.426h0a23.2,23.2,0,0,0,23.1,23.185h42.059a23.2,23.2,0,0,0,23.126-23.126h0A23.2,23.2,0,0,0,456.156,163.3Z" transform="translate(180.212 75.265)"/><path class="b" d="M441.688,209.7H413.654a6.793,6.793,0,0,0,0,13.572H441.7a6.808,6.808,0,0,0,6.793-6.793h0a6.808,6.808,0,0,0-6.808-6.779Z" transform="translate(187.668 96.651)"/><path class="n" d="M415.452,174.75l-1.68-1.68-7.9,7.9a1.2,1.2,0,0,0,0,1.68l8.137,8.137,1.68-1.68-7.3-7.3Z" transform="translate(186.907 79.768)"/><path class="n" d="M431.53,172.95l-1.68,1.68,7.465,7.465-7.465,7.465,1.68,1.68,8.313-8.313a1.2,1.2,0,0,0,0-1.68Z" transform="translate(198.118 79.713)"/><rect class="n" width="31.628" height="2.381" transform="matrix(0.406, -0.914, 0.914, 0.406, 608.387, 275.694)"/></g></g><rect class="z" width="670" height="131" transform="translate(0 320.626)"/></g></g></svg>