<svg xmlns="http://www.w3.org/2000/svg" viewBox="0 0 23.43 31.73"><defs><style>.cls-1{fill:#1b95e3;stroke:#1b95e3;}.cls-1,.cls-2{stroke-width:0.26px;}.cls-2{fill:#26333b;stroke:#26333b;}</style></defs><title>32x32 Favicon</title><g id="Layer_2" data-name="Layer 2"><g id="Layer_1-2" data-name="Layer 1"><g id="layer5"><path id="path4569" class="cls-1" d="M22.36,16.94H19.3a2.35,2.35,0,0,0-1.51.52c-.55.57-1.64,2-1.64,2a2.22,2.22,0,0,0-.58,1.12v4.17a2.39,2.39,0,0,0,0,.31c.05.51.31,1.33,1.51-.09,1.61-1.91,6-7.06,6-7.06s.82-1-.72-1Z"/></g><g id="g4597"><path id="path4595" class="cls-1" d="M22.35,14.79H19.29a2.35,2.35,0,0,1-1.51-.52c-.55-.57-1.64-2-1.64-2a2.22,2.22,0,0,1-.58-1.12V7a2.39,2.39,0,0,1,0-.31c.05-.51.31-1.33,1.51.09,1.61,1.91,6,7.06,6,7.06S23.89,14.77,22.35,14.79Z"/></g><g id="layer3"><path id="path4537" class="cls-2" d="M.66,18.32,10.87,30.52s1.86,2.47,1.82-.06,0-6.78,0-6.78a2.8,2.8,0,0,0-.86-2c-1-1.1-3.35-3.88-3.35-3.88A2.83,2.83,0,0,0,6.18,17H1.07c-.48,0-1.25.28-.4,1.36Z"/></g><g id="g4605"><path id="path4603" class="cls-2" d="M.51,13.42,10.72,1.21s1.86-2.47,1.82.06,0,6.78,0,6.78a2.8,2.8,0,0,1-.86,2c-1,1.1-3.35,3.88-3.35,3.88A2.83,2.83,0,0,1,6,14.78H.91C.43,14.74-.33,14.49.51,13.42Z"/></g></g></g></svg>