<svg xmlns="http://www.w3.org/2000/svg" xmlns:xlink="http://www.w3.org/1999/xlink" width="185.135" height="140.79" viewBox="0 0 185.135 140.79"><defs><style>.a{fill:#eaeafa;}.b{fill:#fcb3b3;}.c{fill:#8798b3;stroke:#8798b3;stroke-width:0.5px;}.d{fill:#212785;}.e{fill:#4f5cd3;}.f{fill:#3f47c7;}.g{fill:#fff;}.ab,.h{fill:#fc8e8e;}.i{fill:url(#a);}.j{fill:url(#b);}.k{fill:#ff4f7c;}.l{fill:url(#c);}.m{fill:url(#d);}.n{fill:#121c7c;}.o{fill:url(#e);}.p{fill:url(#f);}.q{fill:#004469;}.r{fill:#0f567d;}.s{fill:url(#g);}.t{fill:#c8c8ee;}.u{fill:url(#h);}.v{fill:url(#i);}.w{fill:url(#j);}.x{fill:url(#k);}.y{fill:url(#l);}.z{fill:url(#o);}.aa{fill:url(#p);}.ab{opacity:0.5;}.ac{fill:url(#q);}.ad{fill:url(#r);}.ae{fill:#f0f2fc;}.af{fill:url(#s);}.ag{fill:#c5cced;opacity:0.1;}.ah{fill:#f6f6fe;}.ai{fill:#dadaf5;}</style><linearGradient id="a" x1="1.797" y1="0.588" x2="2.663" y2="0.588" gradientUnits="objectBoundingBox"><stop offset="0" stop-color="#f788a8"/><stop offset="0.663" stop-color="#fc618a"/><stop offset="1" stop-color="#ff4d7b"/></linearGradient><linearGradient id="b" x1="1.559" y1="0.049" x2="1.345" y2="0.954" gradientUnits="objectBoundingBox"><stop offset="0" stop-color="#f788a8"/><stop offset="1" stop-color="#ff4d7b"/></linearGradient><linearGradient id="c" x1="2.824" y1="0.443" x2="2.856" y2="0.909" gradientUnits="objectBoundingBox"><stop offset="0.004" stop-color="#fcb3b3"/><stop offset="1" stop-color="#fc8e8e"/></linearGradient><linearGradient id="d" x1="-15.392" y1="0.855" x2="-15.385" y2="1.496" xlink:href="#c"/><linearGradient id="e" x1="-96.939" y1="7.813" x2="-96.939" y2="7.401" xlink:href="#c"/><linearGradient id="f" x1="-84.548" y1="2.601" x2="-83.394" y2="2.601" xlink:href="#c"/><linearGradient id="g" x1="12.379" y1="-2.624" x2="13.552" y2="-2.624" xlink:href="#a"/><linearGradient id="h" x1="-10.502" y1="3.776" x2="-10.97" y2="3.297" xlink:href="#b"/><linearGradient id="i" x1="0.499" y1="0.219" x2="0.532" y2="0.938" xlink:href="#b"/><linearGradient id="j" x1="0.5" y1="-0.358" x2="0.5" y2="-0.282" xlink:href="#b"/><linearGradient id="k" x1="0.5" y1="-0.369" x2="0.5" y2="-0.292" xlink:href="#b"/><linearGradient id="l" x1="0" y1="0.5" x2="1" y2="0.5" xlink:href="#b"/><linearGradient id="o" x1="0.607" y1="0.432" x2="0.051" y2="0.246" xlink:href="#b"/><linearGradient id="p" x1="-0.37" y1="-0.42" x2="-2.119" y2="-1.2" xlink:href="#b"/><linearGradient id="q" y1="0.5" x2="1" y2="0.5" gradientUnits="objectBoundingBox"><stop offset="0" stop-color="#f5f5ff"/><stop offset="1" stop-color="#cfcff2"/></linearGradient><linearGradient id="r" x1="0.5" y1="0.266" x2="0.5" y2="0.753" xlink:href="#c"/><linearGradient id="s" x1="0.867" y1="0.814" x2="0.31" y2="0.308" xlink:href="#q"/></defs><g transform="translate(-2066.002 -2130.529)"><g transform="translate(2066.002 2130.529)"><g transform="translate(14.256)"><path class="a" d="M2126.372,2130.529h17.621v20.542h-17.621Zm16.964.657h-16.307v19.228h16.307Z" transform="translate(-2126.372 -2130.529)"/></g><g transform="translate(137.055 0.577)"><path class="b" d="M2656.929,2154.041a10.533,10.533,0,1,1,10.533-10.533A10.545,10.545,0,0,1,2656.929,2154.041Zm0-20.53a10,10,0,1,0,10,10A10.009,10.009,0,0,0,2656.929,2133.511Z" transform="translate(-2646.396 -2132.975)"/><g transform="translate(7.397 4.205)"><path class="c" d="M2677.914,2160.616l-.194-.192,3.229-3.262v-6.382h.272v6.494Z" transform="translate(-2677.72 -2150.781)"/></g></g><g transform="translate(121.451 30.444)"><g transform="translate(10.653 24.971)"><rect class="b" width="3.635" height="29.969" transform="translate(25.994 42.595)"/><path class="b" d="M2676.325,2370.475a4.577,4.577,0,0,0-3.183-4.528,22.3,22.3,0,0,0-9.464-.482c-9.676,1.254-10.805,11.415-11.558,13.046s-3.387,17.059-12.92,20.634-14.551,3.073-13.673,5.519,14.3,8.279,31.108,4.955,20.509-10.662,20.76-12.92C2677.612,2394.758,2676.114,2377.763,2676.325,2370.475Z" transform="translate(-2625.429 -2365.197)"/><path class="b" d="M2706.969,2676.31h-32.43l16.215-7Z" transform="translate(-2662.942 -2597.497)"/></g><g transform="translate(3.447 48.993)"><path class="d" d="M2603.418,2654.25l-2.613.041c-.171,1.848,1.416,5.786-1.045,6.953-3.012,1.429-4.248,1.948-4.832,3.636a.3.3,0,0,0,.28.4l8.714-.136a.286.286,0,0,0,.28-.346C2604.019,2663.956,2603.041,2655.8,2603.418,2654.25Z" transform="translate(-2594.911 -2610.015)"/><path class="e" d="M2629.985,2474.081s-17.915,6.094-19.2,9.4c-1.167,3-.284,28.712-.111,33.43a.77.77,0,0,0,.771.741l4.537,0a.771.771,0,0,0,.765-.686l3.044-27.46s13.891-2.586,15.013-2.879,6.068-4.225,6.5-11.115C2641.307,2475.51,2640.5,2470.609,2629.985,2474.081Z" transform="translate(-2606.582 -2471.442)"/><path class="d" d="M2687.816,2654.25l-2.613.041c-.172,1.848,1.416,5.786-1.045,6.953-3.012,1.429-4.248,1.948-4.832,3.636a.3.3,0,0,0,.28.4l8.714-.136a.286.286,0,0,0,.28-.346C2688.417,2663.956,2687.438,2655.8,2687.816,2654.25Z" transform="translate(-2659.379 -2610.015)"/><path class="f" d="M2706.457,2471.563c-.6,5.421-4.063,8.889-4.993,9.261-1.079.437-14.533,4.742-14.533,4.742l.428,28.313-2.557.325-.233.028-3.133.4s-5.058-30.47-4.194-33.91,17.871-11.734,17.871-11.734c3.812-2.455,6.788-2.306,8.74-1.636a3.888,3.888,0,0,1,2.176,1.878,1.816,1.816,0,0,1,.149.335A3.917,3.917,0,0,1,2706.457,2471.563Z" transform="translate(-2657.725 -2466.927)"/><g transform="translate(26.394 2.302)"><path class="g" d="M2728.594,2476.676c-1.135,4.974-4.3,8.219-5.309,8.619-.979.391-11.268,3.7-15.152,4.948a2.088,2.088,0,0,0-1.449,2.024l.45,29.411.233-.028-.442-29.217a2.088,2.088,0,0,1,1.449-2.024c3.943-1.266,14-4.5,15-4.9s4.156-3.6,5.365-8.5A1.813,1.813,0,0,0,2728.594,2476.676Z" transform="translate(-2706.683 -2476.676)"/></g></g><g transform="translate(0 21.812)"><g transform="translate(0 27.182)"><path class="h" d="M2590.314,2487.277a9.3,9.3,0,0,0-1.028,1.574,9.863,9.863,0,0,0-.264,1.525c-.018.17.195.768.226,1.045s0,.808.305.8a.745.745,0,0,0,.548-.9,2.6,2.6,0,0,0-.14-.84,4.093,4.093,0,0,0,.332-.959.441.441,0,0,1,.093-.195c.163-.2,1.588-.857,1.746-1.045l-1.68,1.133a.643.643,0,0,0-.1.232,4.3,4.3,0,0,0-.116.924,2.24,2.24,0,0,0,.152.719,7.325,7.325,0,0,0,.512,1.183.4.4,0,0,0,.59-.274,1.477,1.477,0,0,0-.33-1.183,1.594,1.594,0,0,0,.127-.8c-.057-.411.316.267.316.267l-.119.42s-.135.73.137.871.608-.209.657-.73a6.909,6.909,0,0,1,.593-1.6l.3-1.025.636-1.665a8.415,8.415,0,0,0-.653-.538C2593.129,2486.228,2590.314,2487.277,2590.314,2487.277Z" transform="translate(-2586.965 -2481.66)"/><path class="b" d="M2588.26,2481.671a8.188,8.188,0,0,0,2.928-1.928l-1.588-2.656a10.577,10.577,0,0,1-2.541.914,4.435,4.435,0,0,0-1.4.483l-.818.438c-.748.4-1.652.695-1.922.82s-1.5,1.235-1.771,1.418a2.783,2.783,0,0,0-.838.995c0,.183.325.518.92.229a2.512,2.512,0,0,0,.872-.659,9.051,9.051,0,0,0,1.428-.8,11.624,11.624,0,0,1,1.438-.461c.292-.026,1.3-.629,1.756-.385s-.052.866-.344,1.212a6.061,6.061,0,0,0-.735,1.07c-.16.317-.361.653-.275.873a.715.715,0,0,0,1.071.248C2586.878,2483.09,2587.436,2481.989,2588.26,2481.671Z" transform="translate(-2580.315 -2474.689)"/><g transform="translate(7.471)"><path class="a" d="M2613.18,2468.807l3.459-1.665a2.171,2.171,0,0,1,2.9,1.014l.1.2a2.167,2.167,0,0,1-1.017,2.892l-3.459,1.664a2.166,2.166,0,0,1-2.889-1.012l-.1-.2A2.17,2.17,0,0,1,2613.18,2468.807Z" transform="translate(-2611.955 -2466.928)"/></g></g><g transform="translate(8.269)"><path class="i" d="M2618.219,2385.15a3.252,3.252,0,0,1-1.189-6.086l12.117-6.6,3.421-17.995a3.252,3.252,0,0,1,6.389,1.214l-3.708,19.507a3.254,3.254,0,0,1-1.638,2.248l-13.468,7.341A3.239,3.239,0,0,1,2618.219,2385.15Z" transform="translate(-2615.333 -2351.82)"/></g></g><g transform="translate(26.373)"><g transform="translate(0 20.972)"><path class="j" d="M2717.33,2354.677a6.105,6.105,0,0,0-5.879-6.4h-.054c-.2-.008-.4-.008-.6-.008-3.109-.036-6.491.12-9.553.332-.2.012-.4.028-.6.04-1.6.116-4.99.318-6.577.483a2.306,2.306,0,0,0-2.068,2.295l1.487,24.978.027,2.965c.062,2.248,22.686,1.628,22.624-.621,0-.036.087-.1.147-.26Z" transform="translate(-2691.999 -2348.264)"/><path class="k" d="M2746.891,2386.19l-.464-.036-2.718-.212-2.717-.236c-.9-.092-1.809-.172-2.714-.28s-1.809-.2-2.713-.316c.913-.016,1.821,0,2.729.012s1.821.032,2.729.056l2.726.092,2.257.1c-.192-1.3-.388-2.609-.561-3.918q-.3-2.186-.564-4.375c-.18-1.461-.348-2.921-.492-4.386-.08-.732-.14-1.469-.208-2.2s-.132-1.465-.18-2.2c.156.72.3,1.441.432,2.165s.28,1.445.4,2.173c.264,1.449.5,2.9.732,4.354s.452,2.906.66,4.362.4,2.914.6,4.371Z" transform="translate(-2725.277 -2363.563)"/></g><g transform="translate(4.064)"><path class="g" d="M2733.059,2348.173a3.543,3.543,0,0,1-1.493,2.739,6.536,6.536,0,0,1-3.655,1.3c-.132.009-.268.013-.4.014-2.842.017-5.08-1.539-5.2-3.623v0c.2-.013.4-.03.6-.043,3.06-.23,6.441-.406,9.551-.388C2732.659,2348.167,2732.859,2348.166,2733.059,2348.173Z" transform="translate(-2719.215 -2327.218)"/><path class="l" d="M2734.4,2311.568c-.022,1.773-2.026,3.3-4.582,3.449-2.636.156-4.862-1.208-4.969-3.048v-.012c.6-.043,1.2-.087,1.816-.127l-.052-8.909a2.651,2.651,0,1,1,5.3-.031l.052,8.7C2732.787,2311.573,2733.6,2311.564,2734.4,2311.568Z" transform="translate(-2721.156 -2290.617)"/><path class="m" d="M2723.364,2277.689l-.147,6.537a4.876,4.876,0,1,0,9.75.219l.147-6.537a4.876,4.876,0,0,0-9.75-.219Z" transform="translate(-2719.908 -2269.741)"/><g transform="translate(3.863 9.656)"><g transform="translate(0.656 0.284)"><path class="n" d="M2728.448,2302.058a2.357,2.357,0,0,0,1.721-.256c.1-.064.09-.162-.029-.193a2.371,2.371,0,0,0-1.719.255C2728.315,2301.929,2728.329,2302.027,2728.448,2302.058Z" transform="translate(-2728.349 -2301.547)"/></g><g transform="translate(5.251)"><path class="n" d="M2747.886,2300.66a2.354,2.354,0,0,0,1.738.1c.116-.041.12-.141.01-.2a2.283,2.283,0,0,0-.86-.213,2.256,2.256,0,0,0-.875.117C2747.784,2300.5,2747.776,2300.6,2747.886,2300.66Z" transform="translate(-2747.808 -2300.343)"/></g><g transform="translate(0 1.327)"><g transform="translate(3.966 5.803)"><path class="g" d="M2742.967,2331.387a1.53,1.53,0,0,0,1.42-.551.184.184,0,0,0-.288-.229,1.144,1.144,0,0,1-1.461.272.184.184,0,0,0-.179.322A1.628,1.628,0,0,0,2742.967,2331.387Z" transform="translate(-2742.363 -2330.537)"/></g><g transform="translate(5.192 1.185)"><path class="n" d="M2747.556,2311.354a.35.35,0,1,0,.327-.372A.351.351,0,0,0,2747.556,2311.354Z" transform="translate(-2747.555 -2310.981)"/></g><g transform="translate(1.729 1.412)"><path class="n" d="M2732.894,2312.316a.35.35,0,1,0,.326-.372A.35.35,0,0,0,2732.894,2312.316Z" transform="translate(-2732.893 -2311.943)"/></g><g transform="translate(0 0.26)"><path class="g" d="M2725.574,2308.925a1.744,1.744,0,1,1,1.855,1.626A1.746,1.746,0,0,1,2725.574,2308.925Zm.294-.019a1.449,1.449,0,1,0,1.351-1.541A1.451,1.451,0,0,0,2725.868,2308.906Z" transform="translate(-2725.57 -2307.067)"/></g><g transform="translate(3.97)"><path class="g" d="M2742.387,2307.822a1.744,1.744,0,1,1,1.854,1.626A1.746,1.746,0,0,1,2742.387,2307.822Zm.294-.019a1.449,1.449,0,1,0,1.351-1.541A1.451,1.451,0,0,0,2742.681,2307.8Z" transform="translate(-2742.383 -2305.964)"/></g><g transform="translate(3.213 1.508)"><path class="g" d="M2740.031,2312.8l.18-.233a.8.8,0,0,0-.623-.213.62.62,0,0,0-.412.3l.248.159a.338.338,0,0,1,.215-.173A.553.553,0,0,1,2740.031,2312.8Z" transform="translate(-2739.176 -2312.349)"/></g></g><g transform="translate(3.123 4.473)"><path class="o" d="M2738.932,2320.989l1.345-.088a.127.127,0,0,0,.1-.192,7.733,7.733,0,0,1-.627-1.34.119.119,0,0,0-.126-.083l-.255.017a.125.125,0,0,0-.117.1,7.528,7.528,0,0,1-.447,1.41A.128.128,0,0,0,2738.932,2320.989Z" transform="translate(-2738.796 -2319.287)"/></g></g><path class="p" d="M2762.824,2299.054c.488.042.882-.378,1.138-.8a5.682,5.682,0,0,0,.8-2.4.993.993,0,0,0-.307-.97.635.635,0,0,0-.612-.018,1.388,1.388,0,0,0-.488.407,2.676,2.676,0,0,0-.573,1.7Z" transform="translate(-2750.132 -2286.457)"/><path class="q" d="M2710.529,2267.628c2.215,1.232,10.087-.605,10.22-.674.013,0,.032.034.043.1.132.649.313,4.3.707,4.826.428.572.313-.746.406-1.084s.452-2.462.452-2.462a5.835,5.835,0,0,1,.388-1.839c.37-.874,1.062-2.9-.007-4.129a1.647,1.647,0,0,0-2.221-.428s-3.026-2.957-5.937-2.416-1.493,2.728-1.493,2.728a6.582,6.582,0,0,0-2.556.039,1.157,1.157,0,0,0-.971,1.017S2708.313,2266.39,2710.529,2267.628Z" transform="translate(-2709.21 -2259.453)"/><path class="r" d="M2710.529,2276.792c2.215,1.232,10.087-.605,10.22-.674.013,0,.032.034.043.1a.89.89,0,0,0,.112-.151c-.2-.176-.637-.029-.884-.006-.356.035-.714.063-1.067.078a13.368,13.368,0,0,1-2.135-.041,7.627,7.627,0,0,1-4.088-1.588,8.7,8.7,0,0,1-2.2-3.06,1.157,1.157,0,0,0-.971,1.017S2708.313,2275.553,2710.529,2276.792Z" transform="translate(-2709.21 -2268.616)"/></g></g><g transform="translate(19.788 21.066)"><g transform="translate(0 19.093)"><path class="b" d="M2670.91,2431.548c-.1-.092-.189-.188-.292-.27a2.574,2.574,0,0,0-1.036-.451,1.229,1.229,0,0,1-.839-.9.443.443,0,0,1,.053-.372c.056-.062.234-.037.352-.018a2.906,2.906,0,0,0,.665.133c.739-.068,1.259.459,1.9.648a6.211,6.211,0,0,1,1.735,1.066c.327.23.632.494.936.753a2.25,2.25,0,0,0,.965.5c.74.172,1.467.4,2.213.534.849.15,1.712.219,2.631.332l.793,4.822c-.276-.081-.523-.148-.768-.225-1.232-.386-2.457-.8-3.7-1.155a5.127,5.127,0,0,0-2.443-.058c-.562.113-1.115.294-1.681.367a11.581,11.581,0,0,1-1.55.026c-.51,0-1.019-.019-1.528-.04s-1.021-.027-1.523-.094a1.174,1.174,0,0,1-1.007-.851c-.047-.186-.294-.328-.464-.473a3.7,3.7,0,0,0-.416-.279.435.435,0,0,1-.228-.457.363.363,0,0,0-.255-.442,1.786,1.786,0,0,1-.94-1.044.61.61,0,0,0-.194-.2.325.325,0,0,1,.046-.6,1.291,1.291,0,0,1,1.121,0,.592.592,0,0,0,.2.074c.5-.013,1.008-.013,1.507-.066a3.241,3.241,0,0,0,.644-.24c.479-.163.96-.318,1.441-.476Z" transform="translate(-2664.114 -2429.516)"/><g transform="translate(11.748 3.332)"><path class="a" d="M2716.251,2443.636l3.822.356a2.171,2.171,0,0,1,1.959,2.362l-.021.224a2.166,2.166,0,0,1-2.361,1.954l-3.823-.356a2.165,2.165,0,0,1-1.954-2.356l.021-.224A2.17,2.17,0,0,1,2716.251,2443.636Z" transform="translate(-2713.864 -2443.627)"/></g></g><path class="s" d="M2721.828,2376.055a3.493,3.493,0,0,1,2.779-5.857l10.913.668-2.457-17.526c-.268-1.911-.073-4.387,1.838-4.655s4.814,1.776,5.081,3.686l3.051,21.758a3.493,3.493,0,0,1-3.672,3.971l-15.179-.929A3.483,3.483,0,0,1,2721.828,2376.055Z" transform="translate(-2707.491 -2348.662)"/></g></g><g transform="translate(63.587 29.035)"><path class="t" d="M2418.578,2586.837l-14.085-6.082h.081V2551.6h-3.534v29.152h.082l-14.09,6.082Z" transform="translate(-2374.81 -2481.205)"/><path class="d" d="M2527.161,2655.377l2.542.04c.167,1.8-1.377,5.628,1.016,6.764,2.93,1.39,4.133,1.9,4.7,3.537a.289.289,0,0,1-.272.388l-8.477-.133a.279.279,0,0,1-.272-.337C2526.576,2664.818,2527.528,2656.889,2527.161,2655.377Z" transform="translate(-2481.261 -2560.473)"/><path class="d" d="M2504.624,2655.377l2.542.04c.167,1.8-1.377,5.628,1.016,6.764,2.93,1.39,4.133,1.9,4.7,3.537a.289.289,0,0,1-.272.388l-8.477-.133a.279.279,0,0,1-.272-.337C2504.039,2664.818,2504.991,2656.889,2504.624,2655.377Z" transform="translate(-2464.046 -2560.473)"/><g transform="translate(4.477 27.841)"><path class="a" d="M2355.3,2376.516a4.453,4.453,0,0,1,3.1-4.405,21.7,21.7,0,0,1,9.206-.469c9.413,1.22,10.511,11.1,11.243,12.69s3.294,16.6,12.568,20.073,14.155,2.99,13.3,5.369-13.91,8.053-30.261,4.82-19.951-10.372-20.195-12.568C2354.047,2400.138,2355.5,2383.607,2355.3,2376.516Z" transform="translate(-2354.236 -2371.383)"/></g><g transform="translate(11.774 48.789)"><path class="f" d="M2408.492,2462.063s-2.9,6.672,1.256,10.832,28.258,8.635,28.258,8.635l-3.062,26.3h4.945s9.576-25.432,6.986-29.435-24.569-17.269-32.5-18.132C2414.379,2460.257,2409.277,2459.289,2408.492,2462.063Z" transform="translate(-2402.224 -2460.094)"/><path class="e" d="M2417.523,2507.84h-4.946l3.059-26.294s-24.1-4.476-28.256-8.633-1.257-10.839-1.257-10.839a2.175,2.175,0,0,1,.488-.882,1.9,1.9,0,0,1,.291-.263c1.67-1.3,5.105-.657,5.105-.657,7.93.864,29.907,14.123,32.5,18.13S2417.523,2507.84,2417.523,2507.84Z" transform="translate(-2385.135 -2460.106)"/><g transform="translate(1.476 0.798)"><path class="g" d="M2426.867,2481.824c-2.6-4.026-24.577-17.314-32.573-18.187a11.431,11.431,0,0,0-2.618-.141,1.909,1.909,0,0,0-.291.263,11.319,11.319,0,0,1,2.881.113c7.958.863,29.823,14.086,32.4,18.083,2.271,3.491-5.02,23.939-6.663,28.453h.244C2421.987,2505.679,2429.213,2485.437,2426.867,2481.824Z" transform="translate(-2391.385 -2463.473)"/></g></g><g transform="translate(15.476 2.979)"><path class="q" d="M2415.448,2277.724c-.285,3.176-1.959,6.059-3.865,8.615a5.966,5.966,0,0,1-1.672,1.678,2.221,2.221,0,0,1-2.265.086,3.321,3.321,0,0,1-1.032-1.354l-4.336-8.385a10.66,10.66,0,0,1-1.453-4.117,9.845,9.845,0,0,1,1.019-4.325,6.331,6.331,0,0,1,1.72-2.661,5.914,5.914,0,0,1,2.905-1,11.862,11.862,0,0,1,3.532-.048,6.168,6.168,0,0,1,2.323.859,3.191,3.191,0,0,1,1.243,1.856,26.822,26.822,0,0,1,1.729,5.544A12.677,12.677,0,0,1,2415.448,2277.724Z" transform="translate(-2400.813 -2266.1)"/></g><path class="q" d="M2388.406,2320.97c1.1-2.991.34-6.55-.054-9.853a57.091,57.091,0,0,1,.119-12.589l13.959.444c.488,1.729,1.046,3.437,1.568,5.13,1.4,4.534,2.582,9.6,1.48,14.286a14.182,14.182,0,0,1-4.7,7.663,16.258,16.258,0,0,1-7.07,3.243,6.151,6.151,0,0,1-4.375-.255,4.8,4.8,0,0,1-2.2-4.684A16.869,16.869,0,0,1,2388.406,2320.97Z" transform="translate(-2374.852 -2287.891)"/><g transform="translate(0 22.413)"><g transform="translate(26.82)"><g transform="translate(2.791)"><path class="b" d="M2492.757,2350.935c.064-.085.916-.66,1.094-.844s.912-.747,1.089-.894.345-.476.027-.6-1.127.41-1.567.716-1.228.943-1.43,1.06a7.754,7.754,0,0,1-1.176.535.467.467,0,0,1-.515-.377,5.99,5.99,0,0,0-.085-1.444c-.222-.771-.663-.739-.773-.631s.05.386.091.535a2.09,2.09,0,0,1-.035.586,5.443,5.443,0,0,1-.947,2.1,2.862,2.862,0,0,0-.563,1.491,84.316,84.316,0,0,0-12.623,6.439l-10.962-9-3.708,5.06,12.3,8.945.012.008c.108.085.219.17.344.251a1.6,1.6,0,0,0,.319.17,2.449,2.449,0,0,0,2.508-.019c.135-.07,13.338-9.518,13.37-9.537.249-.147.534.248,1.35-.064.5-.188,1.208-.663,1.5-.709a5.674,5.674,0,0,1,1.165.043,7.52,7.52,0,0,0,1.811.08c.255-.121.275-.26.2-.426a5.8,5.8,0,0,0-1.832-.4c-.5-.06-.382-.394-.31-.448a6.111,6.111,0,0,1,1.107-.349c.208-.023.933-.287,1.436-.438s.916-.331.794-.655-.539-.2-.562-.193-.934.221-1.349.266-.99.275-1.29.306-.356-.151-.284-.319.783-.468,1-.6,1.046-.633,1.508-.889.69-.483.595-.715-.447-.3-.864-.077a10.562,10.562,0,0,1-1.331.653c-.482.177-1.278.834-1.433.723S2492.7,2351.021,2492.757,2350.935Z" transform="translate(-2460.672 -2348.396)"/></g><g transform="translate(0 1.024)"><path class="u" d="M2476.746,2357.409a76.96,76.96,0,0,0-10.433,5.5l-11.85-9.73-.012.021c-1.342-.98-4.017-.316-5.1.957-1.133,1.331-.159,2.862,1.169,3.991a2.647,2.647,0,0,0,.347.254l13.08,9.51.012.008c.108.085.219.17.344.251a1.6,1.6,0,0,0,.319.17,2.448,2.448,0,0,0,2.508-.019c.1-.052,7.326-5.217,11.111-7.923Z" transform="translate(-2448.852 -2352.734)"/></g></g><g transform="translate(0 0.662)"><g transform="translate(10.44)"><g transform="translate(0 0.002)"><path class="v" d="M2379.5,2358.333l0,.162a28.909,28.909,0,0,0,.418,6.017c.04.222.095.443.151.636.027.134.069.252.1.385.07.208.125.4.2.578a3.207,3.207,0,0,0,.226.5,2.52,2.52,0,0,0,.3.521c1.676,2.335,1.309,9.337,1.13,10.645a.57.57,0,0,0,.41.622c10.486,2.95,15.7.161,15.7.161-.127-.282.148-6.038.329-7.862a3.127,3.127,0,0,1,1.325-2.376c1.416-.887,1.937-3.573,2.119-5.454.124-1.132.125-1.986.125-1.986s1.234-7.783-.628-9a9.56,9.56,0,0,0-3.2-.561,92.2,92.2,0,0,0-14.545.408c-1.8.218-3.044.518-3.286.867C2379.933,2353.244,2379.58,2355.623,2379.5,2358.333Z" transform="translate(-2379.485 -2351.205)"/></g><path class="w" d="M2440.864,2351.205l2.914,3.875-1.457,1.665,1.233,1.473-2.69,5.828Z" transform="translate(-2426.37 -2351.204)"/><path class="x" d="M2409.178,2351.784l-2.914,3.875,1.457,1.665-1.233,1.473,2.69,5.828Z" transform="translate(-2399.94 -2351.646)"/><g transform="translate(2.058 17.155)"><path class="y" d="M2388.2,2423.845c.913,2.24.619,8.326.469,9.423a.57.57,0,0,0,.41.622c10.486,2.95,15.695.16,15.695.16-.127-.282.148-6.038.33-7.861a3.143,3.143,0,0,1,1.282-2.344Z" transform="translate(-2388.201 -2423.845)"/></g><g transform="translate(9.238)"><path class="a" d="M2423.861,2351.2l.368,15.333a10.026,10.026,0,0,0-2.107-.351c-1.221.018-2.315.735-3.518.911v-15.77C2420.462,2351.235,2422.05,2351.189,2423.861,2351.2Z" transform="translate(-2418.604 -2351.198)"/></g><path class="t" d="M2426.791,2359.5l-.61,1.369.83,8.119-1.245,3.688-1.451-4.209.873-7.486-.876-1.769,1.3-.7Z" transform="translate(-2413.727 -2356.785)"/><path class="y" d="M2388.559,2390.159c.055-.007.114-.011.168-.022v2.345a3.276,3.276,0,0,1-3.276,3.276h-3.241c0-.157.007-.315.007-.479a9.032,9.032,0,0,0-1.331-5.105,4.781,4.781,0,0,1-.523-1.028c-.07-.179-.128-.366-.194-.571-.033-.132-.073-.26-.1-.391a5.436,5.436,0,0,1-.146-.633,28.168,28.168,0,0,1-.42-6.016l0-.168a2.514,2.514,0,0,1,.465.187c1.086.172,1.737,1.379,2.179,2.432a16.185,16.185,0,0,0,2.253,4.209A5.026,5.026,0,0,0,2388.559,2390.159Z" transform="translate(-2379.49 -2374.243)"/><path class="y" d="M2449.964,2400.617c-.176,1.884-.7,4.568-2.11,5.453a3.116,3.116,0,0,0-1.331,2.377c-.062.636-.088,1.346-.088,2.015h-.736a3.276,3.276,0,0,1-3.276-3.276v-2.9c.044.011.084.018.128.026a7.033,7.033,0,0,0,5.248-1.108A8.1,8.1,0,0,0,2449.964,2400.617Z" transform="translate(-2427.561 -2388.947)"/></g><path class="z" d="M2348.5,2355.169a5.668,5.668,0,0,0-4.31.922c-.908.51-8.88,19.29-8.88,19.29a3.283,3.283,0,0,0,3.619,3.862c4.224,0,17.994-5.71,17.994-5.71l-1.32-3.108-12.525,1.564s6.45-10.454,6.609-12.733S2348.874,2355.176,2348.5,2355.169Z" transform="translate(-2335.276 -2354.159)"/></g><path class="b" d="M2428.676,2406.193a.578.578,0,0,1-.457.252c-.1.015-.2.037-.282.051a1.368,1.368,0,0,1,.282.329.314.314,0,0,1-.205.457c-.219.1-.446.165-.673.242-.051.018-.1.025-.2.051a3.585,3.585,0,0,1,.333.157.329.329,0,0,1,.051.574,1.791,1.791,0,0,1-.918.314c-.143.018-.289.014-.432.04a5.55,5.55,0,0,1-2.392-.125,3.4,3.4,0,0,0-2.41.355q-.839.422-1.679.852a.19.19,0,0,1-.069,0c-.015-.058-.033-.117-.044-.175-.165-.933-.329-1.869-.5-2.8-.026-.143,0-.183.146-.234.523-.183,1.035-.395,1.547-.6.125-.048.238-.113.362-.161a1.524,1.524,0,0,0,.7-.622,6.943,6.943,0,0,1,3.127-2.245,3.158,3.158,0,0,0,1.24-.713,1.562,1.562,0,0,1,.373-.252.18.18,0,0,1,.278.15,1.047,1.047,0,0,1-.282.83,4.224,4.224,0,0,1-1.382.976c-.077.044-.154.084-.238.128a.266.266,0,0,0,.282.285,8.8,8.8,0,0,0,1.243-.044l1.042-.044a1.354,1.354,0,0,1,.636.077.189.189,0,0,1,.044.354,3.19,3.19,0,0,1-.717.355,5.363,5.363,0,0,1-.75.3c.048.055.07.1.1.106a3.815,3.815,0,0,0,.406.044,9.275,9.275,0,0,1,1.108.051A.417.417,0,0,1,2428.676,2406.193Z" transform="translate(-2399.287 -2389.28)"/><path class="aa" d="M2397.777,2425.847c3.741-1.361,6.883-2.664,6.883-2.664l-1.32-3.109-5.563.695Z" transform="translate(-2383.018 -2403.149)"/></g><g transform="translate(13.558)"><g transform="translate(2.403 5.606)"><path class="b" d="M2403.192,2285.681a3.614,3.614,0,0,0,.748.844,7.769,7.769,0,0,1,.793.6,2.717,2.717,0,0,1,.962,2.082v3.678a3.542,3.542,0,0,0,3.227,3.574,3.458,3.458,0,0,0,3.692-3.449v-2.115a.036.036,0,0,1,.019,0,4.569,4.569,0,0,0,3.059-4.315V2281.8a4.574,4.574,0,0,0-4.574-4.574h-.863a4.579,4.579,0,0,0-4.579,4.579v2.522a1.626,1.626,0,0,0-.508-.781,1.463,1.463,0,0,0-1.937.168A1.573,1.573,0,0,0,2403.192,2285.681Z" transform="translate(-2402.864 -2277.223)"/><path class="h" d="M2427.726,2332.028a3.8,3.8,0,0,0,2.858,2.278,3.867,3.867,0,0,0,1.021.038v-1.587a5.281,5.281,0,0,1-.624.091A5.1,5.1,0,0,1,2427.726,2332.028Z" transform="translate(-2421.855 -2319.086)"/></g><path class="q" d="M2394.46,2270.991c1.68,2.473,1.878,6.688,1.878,6.688s1.644,0,2.82-2.219a3.506,3.506,0,0,0,.388-1.67v-.07a3.516,3.516,0,0,0-.64-2.011,19.866,19.866,0,0,1-1.457-2.455,8.906,8.906,0,0,0-.72-1.173,6.992,6.992,0,0,1-1.025-5.571c-.134-.615-.121-1.012.113-1.012a.425.425,0,0,0,.267-.142,6.153,6.153,0,0,1,.741-1.275,27.3,27.3,0,0,0,1.016-3.157l1.947,1.149c.571-.162,6.546,1.271,7.412,3.279a5.918,5.918,0,0,1,1.142,1.773l.51.3a12.089,12.089,0,0,0-2.8-8.274c-1.19-1.255-7.914-3.51-11.294,1.1S2392.792,2268.509,2394.46,2270.991Z" transform="translate(-2392.69 -2253.484)"/><path class="q" d="M2412.48,2265.9a9.391,9.391,0,0,0,.876.895,11.228,11.228,0,0,0,3.586,1.593,9.772,9.772,0,0,1,3.542,1.692,5.792,5.792,0,0,1,1.886,4.4,7.812,7.812,0,0,1-1.653,4.579c-.984,1.32-2.367,2.475-2.662,4.09a3.4,3.4,0,0,0,4.342,3.866,2.235,2.235,0,0,1-1.182-2.5,5.375,5.375,0,0,1,1.01-1.735,12.446,12.446,0,0,0,1.441-11.819,7.792,7.792,0,0,0-2.5-3.413,13.329,13.329,0,0,0-5.032-1.767,11.26,11.26,0,0,1-3.156-1.161,1.684,1.684,0,0,1-.193-.119c-.067-.037-.126-.083-.185-.12-.034-.022-.068-.053-.1-.076a2.688,2.688,0,0,1-.775-.973A4.176,4.176,0,0,0,2412.48,2265.9Z" transform="translate(-2407.229 -2261.011)"/><g transform="translate(6.965 10.097)"><path class="n" d="M2424.235,2296.583a2.651,2.651,0,0,1-1.944.237c-.133-.037-.145-.149-.025-.22a2.669,2.669,0,0,1,1.94-.237C2424.339,2296.4,2424.355,2296.513,2424.235,2296.583Z" transform="translate(-2422.183 -2296.269)"/><path class="n" d="M2444.81,2296.819a2.649,2.649,0,0,1-1.938-.288c-.118-.071-.1-.183.035-.219a2.663,2.663,0,0,1,1.934.288C2444.958,2296.671,2444.944,2296.783,2444.81,2296.819Z" transform="translate(-2437.927 -2296.242)"/><g transform="translate(5.181 1.984)"><path class="n" d="M2445.04,2305.066a.46.46,0,1,1-.494-.422A.459.459,0,0,1,2445.04,2305.066Z" transform="translate(-2444.122 -2304.643)"/></g><g transform="translate(0.85 1.986)"><path class="n" d="M2426.7,2305.074a.46.46,0,1,1-.494-.422A.46.46,0,0,1,2426.7,2305.074Z" transform="translate(-2425.781 -2304.651)"/></g><path class="h" d="M2433.016,2310.3l1.192.02a.268.268,0,0,0,.268-.322l-.661-1.671a.243.243,0,0,0-.465-.006l-.591,1.648A.267.267,0,0,0,2433.016,2310.3Z" transform="translate(-2430.256 -2305.339)"/></g></g><path class="g" d="M2432.172,2323.459a1.219,1.219,0,0,1-2.323,0,.13.13,0,0,1,.133-.15h2.058A.13.13,0,0,1,2432.172,2323.459Z" transform="translate(-2407.514 -2306.821)"/></g><g transform="translate(7.81 31.603)"><g transform="translate(4.981 49.13)"><g transform="translate(4.704 4.452)"><path class="a" d="M2143.619,2546.529l7.16-55.26h-3.533l-7.16,55.26Z" transform="translate(-2140.086 -2491.269)"/><path class="a" d="M2203.363,2546.529l7.16-55.26h-3.533l-7.16,55.26Z" transform="translate(-2185.722 -2491.269)"/><g transform="translate(125.59)"><path class="a" d="M2741.69,2546.529l-6.486-55.26h-3.533l6.486,55.26Z" transform="translate(-2717.563 -2491.269)"/><path class="a" d="M2681.946,2546.529l-6.486-55.26h-3.533l6.486,55.26Z" transform="translate(-2671.927 -2491.269)"/></g></g><rect class="b" width="159.799" height="6.864" rx="3.432" transform="translate(0)"/><rect class="ab" width="159.799" height="6.864" rx="3.432" transform="translate(0)"/><path class="h" d="M2120.167,2490.084v.8a1.9,1.9,0,0,0,1.9,1.9H2278.07a1.9,1.9,0,0,0,1.9-1.9v-.8Z" transform="translate(-2120.167 -2485.912)"/></g><path class="d" d="M2323.461,2687.042l2.124-.191c.3,1.485-.652,4.817,1.445,5.553,2.567.9,3.615,1.216,4.233,2.535a.242.242,0,0,1-.192.348l-7.083.638a.234.234,0,0,1-.257-.257C2323.807,2694.97,2323.9,2688.272,2323.461,2687.042Z" transform="translate(-2270.474 -2587.084)"/><path class="d" d="M2208.126,2679.085l2.048.6c-.264,1.491-2.362,4.248-.677,5.7,2.062,1.774,2.923,2.449,3.019,3.9a.242.242,0,0,1-.306.253l-6.828-1.987a.234.234,0,0,1-.146-.333C2205.56,2686.594,2208.088,2680.39,2208.126,2679.085Z" transform="translate(-2180.146 -2581.151)"/><g transform="translate(14.46 53.84)"><g transform="translate(9.88 8.165)"><path class="f" d="M2209.316,2529.143s-3.152-.821-7.168-2.2h18.177c-1.237,11.389-11.092,38.938-11.092,38.938l-1.7-.6-.225-.079-3.678-1.289S2209.986,2533.753,2209.316,2529.143Z" transform="translate(-2202.148 -2526.94)"/><g transform="translate(5.161)"><path class="g" d="M2234.834,2526.94c-.6,9.214-8.365,31.946-10.605,38.342l-.225-.079c2.2-6.307,9.993-29.186,10.6-38.262Z" transform="translate(-2224.004 -2526.94)"/></g></g><path class="e" d="M2163.078,2507.565c5.275,4.086,25.6-1.46,25.6-1.46,2.382,3.8,8.335,34.065,8.335,34.065l3.8-.7.232-.042,1.754-.325s-2.466-40.584-6.89-44.187-27.644-2.334-27.644-2.334a8.972,8.972,0,0,0-6.384,3.946,8.417,8.417,0,0,0-.439.726C2159.576,2500.687,2159.947,2505.137,2163.078,2507.565Z" transform="translate(-2160.31 -2492.361)"/><g transform="translate(1.134 1.966)"><path class="g" d="M2165.111,2503.609a9.048,9.048,0,0,1,5.077-2.43c.418-.024,23.245-1.207,27.567,2.311,3.806,3.1,6.188,34.519,6.725,42.336l.232-.042c-.534-7.955-2.886-39.305-6.823-42.509-4.406-3.587-26.768-2.414-27.718-2.361h-.007a9.322,9.322,0,0,0-4.615,1.97A8.356,8.356,0,0,0,2165.111,2503.609Z" transform="translate(-2165.111 -2500.688)"/></g></g><g transform="translate(2.643)"><g transform="translate(0 21.323)"><path class="ac" d="M2136.965,2362.619l-1.323,22.223-.027,3.171c-.068,2.406-24.271,1.741-24.2-.665,0-.037-.094-.108-.159-.277l-.982-22.317c-.159-3.627,2.52-9.9,6.15-10,0,0,.645-.041,1.68-.1.837.081,1.677.132,2.51.176a44.287,44.287,0,0,1,8.532.9,12.237,12.237,0,0,1,7.152,4.44.018.018,0,0,1,.007.013A3.838,3.838,0,0,1,2136.965,2362.619Z" transform="translate(-2110.266 -2354.657)"/></g><g transform="translate(7.649)"><path class="ad" d="M2155.276,2302.833v3.536l7.453.426-.122-3.536s.986.44,3.085-.655,1.691-4.03,1.691-4.03.882.031.973-.548-.76-1.4-.76-1.947.517-3.864-.821-4.9-10.83,1.521-10.708,4.2A43.243,43.243,0,0,1,2155.276,2302.833Z" transform="translate(-2152.296 -2284.668)"/><path class="q" d="M2154.381,2280.956s-2.079-2.131-4.059-1.756c-.118.432-.723,3.434-.774,3.891-.161,1.447-.219,2.917-.3,4.371a32.584,32.584,0,0,0,.162,5.794,2.641,2.641,0,0,0,1.179.743c1.368.21,5.627.684,6.311-2.209s.384-3.576.384-3.576-1.961-.21-1.646-1.893,1.946-.21,1.946-.21-.053.631.631.368.626-6.586.626-7.322S2154.381,2280.956,2154.381,2280.956Z" transform="translate(-2147.652 -2275.56)"/><path class="q" d="M2159.573,2271.4c-1.923,1.07-7.647.075-10.2-.463v8.442c-.166.37-.343.738-.534,1.1a7.209,7.209,0,0,1-1.09,1.61,2.393,2.393,0,0,1-1.926.87,2.557,2.557,0,0,1-1.633-1.122,7.825,7.825,0,0,1-1.408-3.585,16.32,16.32,0,0,1-.018-3.88,23.728,23.728,0,0,1,1.012-4.756,7.225,7.225,0,0,1,5.353-4.822h0a19.944,19.944,0,0,1,10.406.609l.036.011a1.3,1.3,0,0,1,1.088,1.14S2162.057,2270.009,2159.573,2271.4Z" transform="translate(-2142.657 -2264.362)"/><g transform="translate(12.565 9.301)"><path class="n" d="M2195.963,2304.3a2.1,2.1,0,0,0,1.514-.36c.088-.064.067-.151-.042-.17a2.117,2.117,0,0,0-1.51.359C2195.835,2304.2,2195.854,2304.285,2195.963,2304.3Z" transform="translate(-2195.868 -2303.75)"/></g><g transform="translate(13.328 10.886)"><circle class="n" cx="0.409" cy="0.409" r="0.409"/></g><g transform="translate(12.128 15.691)"><path class="g" d="M2194.3,2331.386a1.249,1.249,0,0,0,1.214.269.15.15,0,0,0-.092-.286.933.933,0,0,1-1.115-.477.15.15,0,0,0-.268.137A1.327,1.327,0,0,0,2194.3,2331.386Z" transform="translate(-2194.018 -2330.81)"/></g></g><path class="t" d="M2161.729,2352.138v.641a.356.356,0,0,1-.331.342,41.2,41.2,0,0,1-7.561-.038c-.415,0-.415-2,0-2a39.276,39.276,0,0,1,7.6.718A.352.352,0,0,1,2161.729,2352.138Z" transform="translate(-2143.31 -2330.605)"/></g><g transform="translate(0 33.792)"><g transform="translate(7.942 37.858)"><path class="b" d="M2138.229,2583l-5.521,33.372h1.06L2139.29,2583Z" transform="translate(-2132.708 -2579.405)"/><path class="h" d="M2156.065,2568.617l-.345,1.928a1.039,1.039,0,0,1-.979.831h-1.2a.678.678,0,0,1-.686-.831l.345-1.928a1.041,1.041,0,0,1,.984-.835h1.2A.677.677,0,0,1,2156.065,2568.617Z" transform="translate(-2148.087 -2567.782)"/><g transform="translate(26.246)"><path class="b" d="M2250.882,2583l5.521,33.372h-1.061L2249.821,2583Z" transform="translate(-2248.412 -2579.405)"/><path class="h" d="M2243.866,2568.617l.345,1.928a1.039,1.039,0,0,0,.979.831h1.2a.677.677,0,0,0,.686-.831l-.345-1.928a1.041,1.041,0,0,0-.984-.835h-1.2A.678.678,0,0,0,2243.866,2568.617Z" transform="translate(-2243.853 -2567.782)"/></g></g><path class="b" d="M2143.068,2443.011a3.372,3.372,0,0,1-2.777,2.575c-5.378.9-22.79,3.452-31.96.321-10.932-3.732-9.98-23.865-8.07-31.068s7.812-7.379,8.07-7.375c11.2.172,9.723,14.317,11.368,22.823s15.709,7.551,20.74,9.2C2142.96,2440.312,2143.33,2441.764,2143.068,2443.011Z" transform="translate(-2099.075 -2407.464)"/></g><g transform="translate(23.315 25.438)"><path class="b" d="M2304.238,2384.734a1.652,1.652,0,0,1,.4.227.325.325,0,0,1,.013.512c-.159.164-.34.306-.512.457-.039.034-.083.062-.157.115.153.017.264.022.374.043a.369.369,0,0,1,.3.539,1.521,1.521,0,0,1-.7.61c-.123.067-.26.112-.378.185a5.1,5.1,0,0,1-2.254.674,3.022,3.022,0,0,0-1.743.794,2.989,2.989,0,0,0-.315.35q-.584.691-1.167,1.384c-.011.013-.032.016-.063.029-.039-.052-.08-.1-.115-.156-.567-.851-1.13-1.7-1.7-2.552-.086-.128-.076-.18.032-.276.4-.351.776-.726,1.159-1.094.091-.087.17-.188.26-.276a1.375,1.375,0,0,0,.374-.835,5.481,5.481,0,0,1,.64-1.677,5.14,5.14,0,0,1,1.242-1.542,2.683,2.683,0,0,0,.821-1.1,1.341,1.341,0,0,1,.235-.367c.089-.114.232-.09.321.052a1.106,1.106,0,0,1,.106.9,3.7,3.7,0,0,1-.839,1.411l-.163.2a.3.3,0,0,0,.386.18,7.842,7.842,0,0,0,1.125-.454c1.051-.586,2.078-1.211,3.126-1.8a1.311,1.311,0,0,1,.62-.135.212.212,0,0,1,.2.33,2.843,2.843,0,0,1-.5.584c-.354.311-.725.6-1.1.885-.327.242-.672.459-1.014.682-.194.126-.4.24-.627.379.069.037.109.075.137.07a3.535,3.535,0,0,0,.394-.093,7.926,7.926,0,0,1,1.039-.317.474.474,0,0,1,.6.548.512.512,0,0,1-.31.4C2304.388,2384.639,2304.307,2384.692,2304.238,2384.734Z" transform="translate(-2272.936 -2378.666)"/><path class="ae" d="M2286.045,2405.124l2.507-1.97a2.281,2.281,0,0,1,2.889.314l.153.148a1.646,1.646,0,0,1,.052,2.538l-2.507,1.97a2.276,2.276,0,0,1-2.883-.313l-.153-.148A1.649,1.649,0,0,1,2286.045,2405.124Z" transform="translate(-2264.775 -2395.524)"/><path class="af" d="M2212.662,2395.66c-.058,0-.115,0-.174,0-.094-.008-.173-.015-.255-.026a3.787,3.787,0,0,1-2.492-1.469l-11.339-15.926a3.739,3.739,0,0,1-.536-2.792,4.287,4.287,0,0,1,1.478-2.8,3,3,0,0,1,1.768-.557c.059,0,.117,0,.177,0a3.782,3.782,0,0,1,2.75,1.495l9.484,12.437,4.805-4.887a2.987,2.987,0,0,1,2.149-.874c.057,0,.115,0,.173,0a3.684,3.684,0,0,1,2.394,1.1,3.391,3.391,0,0,1,.275,4.743l-8.511,8.684A2.973,2.973,0,0,1,2212.662,2395.66Z" transform="translate(-2197.807 -2372.083)"/></g></g><g transform="translate(0 139.646)"><path class="ag" d="M2250.564,2723.039h-183.99a.572.572,0,1,1,0-1.144h183.99a.572.572,0,1,1,0,1.144Z" transform="translate(-2066.002 -2721.895)"/></g><g transform="translate(119.01 57.688)"><path class="ah" d="M2570,2375.7l3.53,17.213a1.137,1.137,0,0,0,1.063.879h22.222l-3.891-18.972H2570.7A.7.7,0,0,0,2570,2375.7Z" transform="translate(-2569.977 -2374.824)"/><path class="a" d="M2600.421,2418.08h8.448v-11.465l-5.461,1.2Z" transform="translate(-2593.232 -2399.107)"/><path class="ai" d="M2664.07,2375.716l3.525,17.188a1.147,1.147,0,0,0,1.075.892.7.7,0,0,0,.7-.892l-3.525-17.188a1.147,1.147,0,0,0-1.069-.892A.7.7,0,0,0,2664.07,2375.716Z" transform="translate(-2641.836 -2374.824)"/><g transform="translate(2.856 7.505)"><path class="a" d="M2584.368,2422.166h5.479a2.5,2.5,0,0,1-2.321-3.463l4.978-12.088h-5.156l-5.1,12.387A2.29,2.29,0,0,0,2584.368,2422.166Z" transform="translate(-2582.072 -2406.612)"/><g transform="translate(5.262)"><path class="ai" d="M2606.866,2422.16h6.712v-.611h-6.712a1.9,1.9,0,0,1-1.755-2.621l4.824-11.711h1.942v-.611h-2.351l-4.98,12.09a2.509,2.509,0,0,0,2.32,3.464Z" transform="translate(-2604.356 -2406.606)"/></g></g><g transform="translate(3.232 3.48)"><path class="a" d="M2650.087,2392.416l-.878-2.855h.349l.878,2.855Z" transform="translate(-2633.731 -2389.561)"/><path class="a" d="M2644.129,2392.416l-.878-2.855h.349l.878,2.855Z" transform="translate(-2629.18 -2389.561)"/><path class="a" d="M2638.17,2392.416l-.878-2.855h.349l.878,2.855Z" transform="translate(-2624.628 -2389.561)"/><path class="a" d="M2632.211,2392.416l-.878-2.855h.349l.878,2.855Z" transform="translate(-2620.076 -2389.561)"/><path class="a" d="M2626.252,2392.416l-.878-2.855h.349l.878,2.855Z" transform="translate(-2615.525 -2389.561)"/><path class="a" d="M2620.294,2392.416l-.878-2.855h.348l.878,2.855Z" transform="translate(-2610.974 -2389.561)"/><path class="a" d="M2614.335,2392.416l-.878-2.855h.349l.878,2.855Z" transform="translate(-2606.422 -2389.561)"/><path class="a" d="M2608.376,2392.416l-.878-2.855h.349l.878,2.855Z" transform="translate(-2601.87 -2389.561)"/><path class="a" d="M2602.417,2392.416l-.878-2.855h.349l.878,2.855Z" transform="translate(-2597.318 -2389.561)"/><path class="a" d="M2596.459,2392.416l-.878-2.855h.348l.878,2.855Z" transform="translate(-2592.767 -2389.561)"/><path class="a" d="M2590.5,2392.416l-.878-2.855h.349l.878,2.855Z" transform="translate(-2588.215 -2389.561)"/><path class="a" d="M2584.541,2392.416l-.878-2.855h.349l.878,2.855Z" transform="translate(-2583.664 -2389.561)"/></g></g></g></g></svg>