<svg xmlns="http://www.w3.org/2000/svg" xmlns:xlink="http://www.w3.org/1999/xlink" width="176.396" height="133.667" viewBox="0 0 176.396 133.667"><defs><style>.a{fill:none;}.b{fill:#f4f8fc;}.b,.m,.o,.q,.s,.w,.x{mix-blend-mode:multiply;}.b,.d,.m,.o,.q,.s,.w,.x{isolation:isolate;}.c{fill:url(#a);}.d,.i{fill:#fff;}.d{opacity:0.12;mix-blend-mode:color-dodge;}.e{clip-path:url(#b);}.f{fill:#ffb6be;}.g{fill:url(#c);}.h,.m{fill:#ffc3c7;}.j,.q,.s{fill:url(#d);}.k{fill:#ebeeed;}.l,.o{fill:#004469;}.m{opacity:0.3;}.n{fill:#f57797;}.o,.s,.x{opacity:0.2;}.p,.r{fill:#f1f2f2;}.p{opacity:0.4;}.q{opacity:0.5;}.t{fill:url(#k);}.u{fill:url(#m);}.v{fill:url(#n);}.w{opacity:0.22;}.y{fill:url(#r);}</style><linearGradient id="a" y1="0.5" x2="1" y2="0.5" gradientUnits="objectBoundingBox"><stop offset="0" stop-color="#70aade"/><stop offset="1" stop-color="#9173ee"/></linearGradient><clipPath id="b"><path class="a" d="M693.109,217.142c1.957-26.277-18.348-48.843-44.654-50.344-14.03-.8-54.69-5.406-69.1,13.625-23.3,30.764-49.112,38.649-40.94,77.736,6.849,32.755,69.978,51.651,119.913,13.687C682.846,253.2,691.866,233.831,693.109,217.142Z" transform="translate(-536.867 -165.735)"/></clipPath><linearGradient id="c" y1="0.5" x2="1" y2="0.5" gradientUnits="objectBoundingBox"><stop offset="0" stop-color="#6ec9d1"/><stop offset="1" stop-color="#59c7e4"/></linearGradient><linearGradient id="d" y1="0.5" x2="1" y2="0.5" gradientUnits="objectBoundingBox"><stop offset="0" stop-color="#fe9588"/><stop offset="1" stop-color="#fe7c64"/></linearGradient><linearGradient id="k" x1="-0.294" y1="0.7" x2="1.502" y2="0.172" xlink:href="#d"/><linearGradient id="m" x1="-0.151" y1="-0.09" x2="1.805" y2="1.635" gradientUnits="objectBoundingBox"><stop offset="0" stop-color="#fc8ab3"/><stop offset="1" stop-color="#e783d9"/></linearGradient><linearGradient id="n" y1="0.5" x2="1" y2="0.5" gradientUnits="objectBoundingBox"><stop offset="0" stop-color="#b3da9c"/><stop offset="1" stop-color="#6bd79e"/></linearGradient><linearGradient id="r" x1="0" y1="0.5" x2="1" y2="0.5" xlink:href="#m"/></defs><g transform="translate(-515.811 -143.363)"><g transform="translate(515.811 149.499)"><path class="b" d="M683.524,237.335c5.1-26.347-14.808-51.322-41.592-55.982-14.284-2.486-35-3.39-52.018,14.139-27.507,28.337-74.1,22.649-74.1,64.561,0,36.251,69.96,60.9,125.613,28.465C668.754,272.589,680.282,254.069,683.524,237.335Z" transform="translate(-515.811 -176.086)"/><path class="c" d="M693.3,220.166c1.957-26.277-18.348-48.844-44.654-50.344-14.03-.8-34.076.673-48.489,19.7-23.3,30.764-69.727,32.571-61.554,71.658,6.849,32.755,69.978,51.651,119.913,13.687C683.04,256.227,692.059,236.854,693.3,220.166Z" transform="translate(-531.661 -168.582)"/><g transform="translate(20.01 0.902)"><path class="d" d="M594.263,362.2c-1.927,1.327-3.768,2.679-5.5,4.079a36.478,36.478,0,0,1,13.841,62.738q2.83,1.232,5.871,2.249A42.129,42.129,0,0,0,594.263,362.2Z" transform="translate(-588.766 -309.216)"/><path class="d" d="M816.106,436.36a42.153,42.153,0,0,0-40.771,52.73q2.826-.174,5.7-.523A36.482,36.482,0,0,1,844.5,455.589q2.023-2.12,3.818-4.239A42.027,42.027,0,0,0,816.106,436.36Z" transform="translate(-723.184 -363.035)"/><path class="d" d="M757.67,187.51a41.952,41.952,0,0,0-4.127-18.2c-.533-.048-1.068-.091-1.606-.122-1.574-.09-3.225-.151-4.935-.162A36.483,36.483,0,0,1,684.4,206.5q-2.326,1.626-4.682,3.152A42.122,42.122,0,0,0,757.67,187.51Z" transform="translate(-654.77 -169.023)"/><path class="d" d="M1024.683,230.514a36.271,36.271,0,0,1,5.091-18.571,47.684,47.684,0,0,0-4.239-3.879,42.134,42.134,0,0,0,12.927,57.925q1.147-2.757,1.978-5.464A36.479,36.479,0,0,1,1024.683,230.514Z" transform="translate(-901.036 -197.356)"/></g><g transform="translate(5.775 0)"><g class="e"><g transform="translate(24.525 25.223)"><path class="f" d="M827.911,440.662l-.747,4.29-4.688.691-.551-3.561Z" transform="translate(-768.264 -390.478)"/><path class="g" d="M630.953,542l2.066,21.408,22.5,1.741.834-22.079Z" transform="translate(-629.671 -464.024)"/><g transform="translate(40.762 27.997)"><path class="h" d="M775.265,371.434s.489-.795.359-1.187a19.718,19.718,0,0,1-.686-5.063c.1-1.862-.118-2.515-.01-2.875s.925-.261,1.251.98.2,3.1,1.274,3.691,1.633-3.642,1.339-4.01-1.829-2.695-1.633-3.054.719-.033,1.47.686,1.862,1.38,1.992,1.707a4.1,4.1,0,0,1,.163.98s1.285.653,1.328,1.143a10.134,10.134,0,0,1,0,1.208s.631.522.534,1.078-2.385,5.146-3.528,6.108l-.92,1.278Z" transform="translate(-774.897 -359.77)"/><path class="h" d="M793.33,377.633h0a7.95,7.95,0,0,0-2.787-1.339s-.338.2.609,1.111,1.339,1.111,1.307,1.209a3.876,3.876,0,0,1-.98,1.176c-.425.261-2.264,3.74-.071,3.667a27.892,27.892,0,0,0,2.455-4.745C793.961,378.156,793.33,377.633,793.33,377.633Z" transform="translate(-786.114 -371.762)"/></g><path class="i" d="M918.229,553.459V570.5l22.151.593V552.031Z" transform="translate(-838.154 -471.3)"/><path class="j" d="M869.8,365.956h0a100.828,100.828,0,0,0-10.563,18.523l-1.173,2.68-16.382-1.069s-1.2,4.63-.837,4.646,13.5,6.379,19.482,4.96c4.608-1.094,14.641-21.2,14.641-21.2Z" transform="translate(-781.949 -336.262)"/><path class="g" d="M668.552,356.9a11.725,11.725,0,0,0,3.35,3.867s1.152-6.975-11.287-7.444l.855.816Z" transform="translate(-651.198 -327.095)"/><path class="k" d="M692.073,374.325s1.185.082,3.524,3.384,5.832,9.825,9.181,15.083c5.858-4.609,9.2-11.3,9.563-11.3a12.483,12.483,0,0,1,4.133,3.679c.648,1.342-6.166,13.774-10.35,14.611s-10.347-6.3-10.347-6.3S690.558,378.27,692.073,374.325Z" transform="translate(-673.876 -342.336)"/><path class="h" d="M678.167,284.54l1.1,11.12a.49.49,0,0,1-.54.535l-2.862-.3-1.176,3.192-5.971-2.3-4.633-12.581Z" transform="translate(-653.713 -276.934)"/><path class="h" d="M656.182,315.426s-.549,5.043-1.806,6.164c0,0,7.822,2.129,8.727,1.906a22.635,22.635,0,0,0,.33-3.681c-.1-1.074-7.521-12.779-7.521-12.779a29.415,29.415,0,0,0-4.149.739c-.236.246,2.139,4.707,2.139,4.707Z" transform="translate(-644.762 -293.503)"/><path class="l" d="M684.423,305.663c-.1-1.52-.92-2.661-1.864-2.6-.807.053-1.4.968-1.5,2.182a1.585,1.585,0,0,0-.99.02c-.244-1.219-.968-2.072-1.787-2.018a1.467,1.467,0,0,0-1.163.911,3.491,3.491,0,0,0-.343,1.381l-9.226-.39-.015.369,9.243.391c0,.053,0,.106,0,.16a3.75,3.75,0,0,0,.59,1.849,1.467,1.467,0,0,0,1.274.749,1.111,1.111,0,0,0,.242-.043c.812-.239,1.353-1.393,1.261-2.779,0-.069-.012-.137-.02-.2a1.677,1.677,0,0,1,.92.01c0,.077,0,.155.008.234a3.743,3.743,0,0,0,.59,1.849,1.467,1.467,0,0,0,1.274.749,1.119,1.119,0,0,0,.242-.043C683.974,308.2,684.515,307.049,684.423,305.663Zm-5.8,2.638a1.119,1.119,0,0,1-.944-.589,3.678,3.678,0,0,1-.225-3.384,1.239,1.239,0,0,1,.7-.681.73.73,0,0,1,.159-.029c.712-.047,1.386.985,1.47,2.254S679.334,308.252,678.621,308.3Zm4.275-.184a1.12,1.12,0,0,1-.944-.589,3.372,3.372,0,0,1-.526-1.664c0-.056-.005-.112-.007-.168v-.118c.005-1.053.43-1.944,1.009-2.115a.719.719,0,0,1,.156-.028c.712-.047,1.386.985,1.47,2.254S683.608,308.068,682.9,308.116Z" transform="translate(-656.222 -290.619)"/><path class="m" d="M672.289,328.131s2.118,1.621,4.249,3.525a19.947,19.947,0,0,1,1.8,3.468,13.244,13.244,0,0,1-.134,2.282C673.691,335.963,672.289,328.131,672.289,328.131Z" transform="translate(-659.67 -308.812)"/><path class="h" d="M917.7,280.7l-.837,9.324h1.819s.131,5.764.771,5.977c1.58.526,6.495-1.434,6.495-1.434s.218,1.171.318,2.314a8.419,8.419,0,0,1-.318,2.706c.12,2.271,6.774.074,7.61-2.078a19.314,19.314,0,0,1-.74-4.757,11.788,11.788,0,0,0-.7-2.2c.626-2.746,2.438-7.068,2.438-7.34,0-.359-5.977-7.412-6.336-7.292S917.7,280.7,917.7,280.7Z" transform="translate(-837.162 -270.921)"/><path class="n" d="M927.284,328.776a.279.279,0,0,0-.465-.31,3.389,3.389,0,0,1-3.074,1.31c.01.182.021.372.033.567.069,0,.141,0,.216,0A3.791,3.791,0,0,0,927.284,328.776Z" transform="translate(-842.157 -308.965)"/><path class="j" d="M925.665,356.723s-6.1,5.618-7.053,17.812-3.092,34.482-1.658,35.678,19.947,1.261,23.295-.891,5.26-38.262,1.674-45.913-8.648-8.764-8.648-8.764a8.525,8.525,0,0,1-7.61,2.078Z" transform="translate(-836.879 -328.053)"/><path class="h" d="M790.436,435.93s3.715-1.528,5.468-1.555,2.152.777,2.152.777-1.435.79-.717,1.109,4.768,3.3,4.912,4.432c.05.4-.634.334-1.007.514-.911.441-.918-.189-1.6.676-.5.632-.891-.22-1.609.418s-6.618-2.167-6.618-2.167Z" transform="translate(-745.412 -385.915)"/><path class="f" d="M815.039,435.615c-.477-.119-3.824-1.256-5.395-1.792a2.154,2.154,0,0,0-1.609.088c-1.4.653-4.122,1.987-3.825,2.344.4.478,1.586.275,2.71,0a2.548,2.548,0,0,1,2.133.78Z" transform="translate(-755.392 -385.431)"/><path class="f" d="M797.095,451.194s1.942-2.731,2.553-1.876,1.313.218,1.52.536,1.641.014,1.562,1-.08,2.138-.8,2.2S797.2,452.134,797.095,451.194Z" transform="translate(-750.244 -396.639)"/><path class="m" d="M949.986,333.3s.178.96.287,1.989c2.787-1.258,3.951-6,3.951-6C953.036,331.472,949.986,333.3,949.986,333.3Z" transform="translate(-861.2 -309.649)"/><path class="m" d="M690.912,287.71l-.249-2.53-3.867-.092-5.5,1.987A24.431,24.431,0,0,0,690.912,287.71Z" transform="translate(-666.208 -277.575)"/><path class="l" d="M666.761,258.789a.948.948,0,0,0-1.315-.484,7.6,7.6,0,0,1-4.879.585c-1.308-.241-5.728-2.1-9.768-.646a4.134,4.134,0,0,0-2.371,3.607s-6.425.851-4.089,9.306c0,.017.008.035.012.052s0,.013,0,.019h0c1.217,5.26,6.08,8.39,6.08,8.39a7.292,7.292,0,0,0,.077-1.919.8.8,0,0,0-.551-.7c-1.422-.491-4.1-4.113-1.661-4.912,2.776-.908,2.456,4.424,5.517,9.577,2.542,4.279,7.987,3.153,9.771,2.159,2.916-1.625.111-6.9.111-6.9s-1.447-.162-2.538-.27a2.338,2.338,0,0,0-.346-.009,1.619,1.619,0,0,0-1.4,1.035l-.147.366a.781.781,0,0,1-.923.466,10.533,10.533,0,0,1-4.056-1.816c-.9-.9-2.205-4.571-2.836-6.454a3.015,3.015,0,0,1-.039-1.884,1.833,1.833,0,0,1,2.433-1.212c2.869.6,10.773,1.448,13.006-3.732A6.883,6.883,0,0,0,666.761,258.789Z" transform="translate(-639.015 -257.695)"/><path class="o" d="M664.08,310.167s1.31.337,2.373,3.266c1.037,2.855,3.072,7.741,8.056,7.88a7.72,7.72,0,0,0,.995-.048,9.929,9.929,0,0,0,4.028-1.117h0a2.483,2.483,0,0,1-1.245,1.755c-1.784.994-7.229,2.119-9.771-2.159-2.592-4.362-2.761-8.852-4.436-9.576Z" transform="translate(-653.713 -295.775)"/><path class="o" d="M704.565,327.046s-1.447-.162-2.538-.27a2.334,2.334,0,0,0-.346-.009,1.62,1.62,0,0,0-1.4,1.035l-.147.366a2.568,2.568,0,0,1,2.521-.622,19.944,19.944,0,0,1,2.452.733A12.274,12.274,0,0,0,704.565,327.046Z" transform="translate(-679.881 -307.82)"/><path class="i" d="M648.978,371.615a33.8,33.8,0,0,0-2.08-7.373,14.552,14.552,0,0,0-2.276-3.464c-.752-.165-3.408.254-5.439-.246a11.732,11.732,0,0,1-4.26-2.124s-7.361,3.213-7.549,29.357a61.743,61.743,0,0,1-.294,7.2c-.308,2.47-.667,5.337-.683,5.6a41.887,41.887,0,0,0,.146,8.106.7.7,0,0,0,.578.6,72.67,72.67,0,0,0,9.582.464c.78.053,1.586.1,2.413.14a130.441,130.441,0,0,0,13.847-.031C656.2,403.732,650.4,380.194,648.978,371.615Z" transform="translate(-626.282 -330.784)"/><path class="m" d="M927.01,280.654c-3.117,1.417-7.623,3.484-7.623,3.484l-.2,2.218a10.313,10.313,0,0,0,8.93-2.057s.073,2.453,3.343,2.828Z" transform="translate(-838.849 -274.357)"/><path class="l" d="M927.583,265.459c.956-1.355,1.879-7.042-5.117-7.3l.141-.06s-.411,0-1.1,0c-.284-.006-.581,0-.886.009-4.617.056-15.174-.015-15.618,1.681-.329,1.256,1.672,2.209,2.459,2.633-2.95.857-3.951,1.75-3.416,2.812,2.716,5.393,9.372,3.685,13.378,2.144-.133,2.6,2.949,3.376,2.949,3.376s1.634-2.51,3.148-.119a2.905,2.905,0,0,1-2.167,3.978s.8,2.236,1.984,4.754C923.534,279.224,933.512,270.579,927.583,265.459Z" transform="translate(-827.759 -257.989)"/><path class="p" d="M647.378,415.149s5.4,19.633,21.537,24.347c-.221-2.166-.539-4.469-.91-6.8-3.823-2.792-7.728-5.271-7.728-5.271Z" transform="translate(-641.592 -371.962)"/><path class="p" d="M626.4,486.287a41.887,41.887,0,0,0,.146,8.106.7.7,0,0,0,.578.6,65.827,65.827,0,0,0,7.651.475c-6.8-7.5-7.427-18.929-7.427-18.929h0q-.01.474-.026.947c0,.056,0,.112-.006.168q-.015.395-.037.79c0,.086-.009.173-.015.259-.015.246-.034.491-.054.737-.007.09-.013.18-.021.269-.03.328-.064.656-.1.983-.067.54-.329,2.669-.641,5.2C626.416,486.1,626.4,486.238,626.4,486.287Z" transform="translate(-626.282 -416.511)"/><path class="p" d="M651.746,361.587s3.077,5.224,11.673,6.239l-10.893-7.072Z" transform="translate(-644.762 -332.487)"/><path class="g" d="M655.839,353.4a12.187,12.187,0,0,0,2.809,1.987,18.786,18.786,0,0,0,5.722,1.592,6.17,6.17,0,0,1,.316,5.345s-8.783-2.3-11.151-7.615a.545.545,0,0,1,.069-.542C654.795,352.549,655.839,353.4,655.839,353.4Z" transform="translate(-646.029 -326.989)"/><path class="q" d="M956.93,355.229a6.893,6.893,0,0,0-1.467-.584,8.525,8.525,0,0,1-7.61,2.078,10.751,10.751,0,0,0-.806.875C948.491,358.187,952.29,359.1,956.93,355.229Z" transform="translate(-859.067 -328.053)"/><path class="q" d="M843.24,439.345l-1.554-.1s-1.2,4.63-.837,4.646c.069,0,.614.242,1.488.615Z" transform="translate(-781.949 -389.449)"/><path class="r" d="M653.61,384.453c.253.379,10.137,14.271,13.02,15.136a166.763,166.763,0,0,0,17.48-2.451,13.112,13.112,0,0,1,1.26,5.338c-8.793,6.194-19.557,7.923-20.806,8.212s-15.664-8.793-19.411-19.748c-.886-2.688-1.72-5.953,1.1-8.113C648.35,381.221,651.489,381.274,653.61,384.453Z" transform="translate(-639.365 -347.753)"/><path class="s" d="M922.764,486.2c4.512.79,19.115.609,22.051-1.278,1.685-1.083,3.007-10.777,3.445-21.111l-9.423-4.991S941.787,483.173,922.764,486.2Z" transform="translate(-841.445 -403.657)"/><path class="t" d="M976.287,403.23a14.426,14.426,0,0,1,.478,5.327c-.541,5.554-2.659,17.741-1.4,17.737.431,0,4.071.956,5.024.717.787-.2,4.524-14.185,5.8-19.034a8.75,8.75,0,0,0,.221-3.3c-.582-4.7-2.253-17.99-3.081-22.543a10.506,10.506,0,0,0-2.12-4.736c-1.509-1.869-3.932-3.493-7.189-1.336-1.384.916-2.08,3.539-1.9,6.194C972.588,389.423,975.029,398.783,976.287,403.23Z" transform="translate(-877.238 -342.85)"/><path class="q" d="M982.612,554.711c-.029,1.222.075,1.979.388,1.978.431,0,4.071.956,5.024.717.136-.034.358-.476.64-1.209Z" transform="translate(-884.874 -473.245)"/></g></g></g></g><path class="u" d="M650.821,169.162a18.34,18.34,0,0,0,6.262-11.669c.434-3.186-1.234-10.9-7.8-12.787-13.839-3.97-25.011,1.481-27.916,8.259-2.52,5.881-.968,21.784,28.938,12.963l-.377,3.98Z" transform="translate(-76.005)"/><path class="v" d="M1040.419,273.448l3.574-6.825s-7.011-2.777-4.918-12.086,20.873-11.176,28.238-6.059c8.387,5.827,6.122,26.527-19.857,20.458Z" transform="translate(-379.46 -74.259)"/><g class="w" transform="translate(666.063 182.99)"><path class="v" d="M1066.431,289.248a1.408,1.408,0,1,1-1.408-1.408A1.408,1.408,0,0,1,1066.431,289.248Z" transform="translate(-1063.615 -287.84)"/><path class="v" d="M1093.891,289.248a1.408,1.408,0,1,1-1.408-1.408A1.408,1.408,0,0,1,1093.891,289.248Z" transform="translate(-1083.543 -287.84)"/><path class="v" d="M1122.969,289.248a1.408,1.408,0,1,1-1.408-1.408A1.408,1.408,0,0,1,1122.969,289.248Z" transform="translate(-1104.646 -287.84)"/></g><g transform="translate(666.588 181.582)"><path class="i" d="M1068.343,284.115a1.408,1.408,0,1,1-1.408-1.408A1.408,1.408,0,0,1,1068.343,284.115Z" transform="translate(-1065.527 -282.707)"/><path class="i" d="M1095.8,284.115a1.408,1.408,0,1,1-1.408-1.408A1.408,1.408,0,0,1,1095.8,284.115Z" transform="translate(-1085.454 -282.707)"/><path class="i" d="M1124.88,284.115a1.408,1.408,0,1,1-1.408-1.408A1.408,1.408,0,0,1,1124.88,284.115Z" transform="translate(-1106.557 -282.707)"/></g><g class="x" transform="translate(554.254 155.854)"><circle class="y" cx="1.408" cy="1.408" r="1.408" transform="translate(0 0)"/><path class="y" d="M686.244,190.313a1.408,1.408,0,1,1-1.408-1.408A1.408,1.408,0,0,1,686.244,190.313Z" transform="translate(-675.897 -188.905)"/><circle class="y" cx="1.408" cy="1.408" r="1.408" transform="translate(15.507 0)"/></g><g transform="translate(554.778 154.446)"><path class="i" d="M660.7,185.18a1.408,1.408,0,1,1-1.408-1.408A1.408,1.408,0,0,1,660.7,185.18Z" transform="translate(-657.88 -183.772)"/><path class="i" d="M688.156,185.18a1.408,1.408,0,1,1-1.408-1.408A1.408,1.408,0,0,1,688.156,185.18Z" transform="translate(-677.808 -183.772)"/><path class="i" d="M717.233,185.18a1.408,1.408,0,1,1-1.408-1.408A1.408,1.408,0,0,1,717.233,185.18Z" transform="translate(-698.91 -183.772)"/></g></g></svg>