<svg xmlns="http://www.w3.org/2000/svg" xmlns:xlink="http://www.w3.org/1999/xlink" width="204.268" height="134" viewBox="0 0 204.268 134"><defs><style>.a{fill:#f5f7fb;}.b{clip-path:url(#a);}.c{fill:#c8c8ee;}.d{fill:#dadaf5;}.e{fill:#fff;}.f{fill:#eaeafa;}.g{fill:#121c7c;}.h{fill:#fcb3b3;}.i{fill:#4f5cd3;}.j{fill:#212785;}.k{fill:#3f47c7;}.l{fill:url(#b);}.m{fill:url(#c);}.n{fill:url(#d);}.o{fill:url(#e);}.p{fill:url(#f);}.q{fill:url(#g);}.r{fill:#fc8e8e;}.s{fill:#f6f6fe;}.t{fill:url(#h);}.u{fill:url(#i);}.v{fill:#ffa668;}.w{fill:#c5cced;}.x{fill:url(#j);}.y{fill:url(#k);}.z{fill:url(#l);}</style><clipPath id="a"><rect class="a" width="204.268" height="134" transform="translate(320 1788)"/></clipPath><linearGradient id="b" y1="0.5" x2="1" y2="0.5" gradientUnits="objectBoundingBox"><stop offset="0" stop-color="#f788a8"/><stop offset="1" stop-color="#ff4d7b"/></linearGradient><linearGradient id="c" x1="35.932" y1="1.565" x2="35.828" y2="1.361" xlink:href="#b"/><linearGradient id="d" x1="277.911" y1="-0.358" x2="277.911" y2="-0.282" xlink:href="#b"/><linearGradient id="e" x1="272.303" y1="-0.369" x2="272.303" y2="-0.292" xlink:href="#b"/><linearGradient id="f" x1="1.365" y1="0.51" x2="1.242" y2="0.508" xlink:href="#b"/><linearGradient id="g" x1="3.415" y1="0.556" x2="3.264" y2="0.553" xlink:href="#b"/><linearGradient id="h" x1="0" y1="0.502" x2="0.998" y2="0.502" xlink:href="#b"/><linearGradient id="i" x1="0" y1="0.5" x2="1" y2="0.5" xlink:href="#b"/><linearGradient id="j" y1="0.501" x2="1" y2="0.501" gradientUnits="objectBoundingBox"><stop offset="0" stop-color="#f5f5ff"/><stop offset="1" stop-color="#cfcff2"/></linearGradient><linearGradient id="k" x1="0" y1="0.5" x2="1" y2="0.5" xlink:href="#j"/><linearGradient id="l" y1="0.5" x2="0.999" y2="0.5" gradientUnits="objectBoundingBox"><stop offset="0" stop-color="#fcb3b3"/><stop offset="1" stop-color="#fc8e8e"/></linearGradient></defs><g class="b" transform="translate(-320 -1788)"><g transform="translate(335.372 1788)"><path class="c" d="M117.383,52.789h.29a1.732,1.732,0,0,0,1.732-1.732V45.583a1.732,1.732,0,0,0-1.732-1.732h-.29Z" transform="translate(-21.472 -8.022)"/><path class="c" d="M32.486,39.265H32.2A1.732,1.732,0,0,0,30.464,41v5.475A1.732,1.732,0,0,0,32.2,48.2h.29Z" transform="translate(-5.573 -7.183)"/><path class="c" d="M32.486,25.225H32.2a1.732,1.732,0,0,0-1.732,1.732v5.475A1.732,1.732,0,0,0,32.2,34.163h.29Z" transform="translate(-5.573 -4.614)"/><path class="d" d="M101.936,8.231V125.21a8.246,8.246,0,0,1-8.2,8.261H41.2a8.259,8.259,0,0,1-8.261-8.261V8.231A8.272,8.272,0,0,1,41.2,0H93.734a8.259,8.259,0,0,1,8.2,8.231Z" transform="translate(-6.026)"/><path class="e" d="M94.337,3.3H73.093A1.977,1.977,0,0,0,71.3,4.619a3.525,3.525,0,0,1-6.516,0A1.977,1.977,0,0,0,62.99,3.3H41.775a5.538,5.538,0,0,0-5.538,5.538V125.813a5.6,5.6,0,0,0,5.538,5.6h52.5a5.584,5.584,0,0,0,5.566-5.567V8.834A5.538,5.538,0,0,0,94.336,3.3Z" transform="translate(-6.629 -0.603)"/><circle class="e" cx="4.676" cy="4.676" r="4.676" transform="translate(34.054 117.94)"/><circle class="e" cx="4.676" cy="4.676" r="4.676" transform="translate(79.418 117.94)"/><path class="d" d="M104.957,149.923a.636.636,0,0,1-.633.633h-3.985a.633.633,0,0,1-.437-1.092.62.62,0,0,1,.437-.186h3.985a.633.633,0,0,1,.633.644Z" transform="translate(-18.239 -27.307)"/><path class="d" d="M104.957,149.923a.636.636,0,0,1-.633.633h-3.985a.633.633,0,0,1-.437-1.092.62.62,0,0,1,.437-.186h3.985a.633.633,0,0,1,.633.644Z" transform="translate(-18.239 -27.307)"/><path class="d" d="M49.437,149.923a.636.636,0,0,1-.633.633H44.818a.633.633,0,0,1-.437-1.092.62.62,0,0,1,.437-.186H48.8a.633.633,0,0,1,.633.644Z" transform="translate(-8.083 -27.307)"/><path class="d" d="M47.259,152.1a.635.635,0,0,1-.633-.633v-3.985a.633.633,0,0,1,1.092-.437.62.62,0,0,1,.186.437v3.985a.633.633,0,0,1-.644.633Z" transform="translate(-8.529 -26.863)"/><path class="f" d="M57.929,15.972v13.05a2.2,2.2,0,0,1-2.2,2.2H42.686a2.2,2.2,0,0,1-2.2-2.2V15.972a2.2,2.2,0,0,1,2.2-2.2H55.734a2.2,2.2,0,0,1,2.195,2.2Z" transform="translate(-7.406 -2.52)"/><path class="f" d="M81.929,15.972v13.05a2.2,2.2,0,0,1-2.2,2.2H66.684a2.2,2.2,0,0,1-2.2-2.2V15.972a2.2,2.2,0,0,1,2.2-2.2H79.732A2.2,2.2,0,0,1,81.929,15.972Z" transform="translate(-11.796 -2.52)"/><path class="f" d="M105.93,15.972v13.05a2.2,2.2,0,0,1-2.2,2.2H90.685a2.2,2.2,0,0,1-2.2-2.2V15.972a2.2,2.2,0,0,1,2.2-2.2h13.048A2.2,2.2,0,0,1,105.93,15.972Z" transform="translate(-16.187 -2.52)"/><path class="g" d="M140.928,17.788c.266,2.97,1.832,5.667,3.616,8.056a5.492,5.492,0,0,0,1.564,1.57,2.075,2.075,0,0,0,2.118.081,3.1,3.1,0,0,0,.965-1.267l4.055-7.842a9.94,9.94,0,0,0,1.358-3.85,9.341,9.341,0,0,0-.952-4.044A5.943,5.943,0,0,0,152.046,8a5.382,5.382,0,0,0-2.717-.937,11.1,11.1,0,0,0-3.3-.046,5.765,5.765,0,0,0-2.173.8,2.974,2.974,0,0,0-1.162,1.736,25.124,25.124,0,0,0-1.616,5.184,11.849,11.849,0,0,0-.146,3.051Z" transform="translate(-25.772 -1.265)"/><path class="g" d="M156.226,36.669c-1.033-2.8-.319-6.126.05-9.216a53.458,53.458,0,0,0-.111-11.773L143.11,16.1c-.456,1.618-.978,3.215-1.468,4.8-1.31,4.241-2.415,8.98-1.385,13.36a13.262,13.262,0,0,0,4.4,7.167,15.214,15.214,0,0,0,6.613,3.033,5.759,5.759,0,0,0,4.092-.238,4.485,4.485,0,0,0,2.059-4.381A16.172,16.172,0,0,0,156.226,36.669Z" transform="translate(-25.583 -2.868)"/><path class="h" d="M172.454,148.265l2.952-.039c.782,4.315,2.1,9.576,4.7,9.626,1.031.841-7.7,4.739-8.622,1.256C170.707,156.177,173.8,156.59,172.454,148.265Z" transform="translate(-31.346 -27.114)"/><path class="g" d="M181.393,162.8H171.7a.474.474,0,0,1-.474-.474v-2.276a.14.14,0,0,1,.236-.1c2.8,2.363,4.536-1.671,7.108-1.254,1.941.314,2.9,2.4,3.276,3.468a.474.474,0,0,1-.454.633Z" transform="translate(-31.322 -29.025)"/><path class="h" d="M147.7,147.691h-3.791c-.384,4.368-1.494,9.456-4.079,9.744-.948.93,8.375,4.368,8.971.821C149.308,155.258,147.122,156.1,147.7,147.691Z" transform="translate(-25.567 -27.017)"/><path class="g" d="M148,159.919v2.531a.515.515,0,0,1-.515.515H134.553a.513.513,0,0,1-.5-.668c.363-1.092,1.518-3.136,5.071-2.76,0,0,1.016,1.821,4.368,1.142S147.89,159.369,148,159.919Z" transform="translate(-24.518 -29.175)"/><path class="i" d="M170.468,132.707l-4.422,1.077s-7.905-25.513-8.261-29.94c-.266-3.276-4.778-16.313-7.132-22.93-.832-2.354-1.4-3.9-1.4-3.9s-2.254,23.716-.577,31.01-.836,24.677-.836,24.677h-5.392s2.99-15.811-3.234-39.88c-4.894-18.923-.535-30.073,1.555-33.98.107-.2.218-.376.3-.539a10.316,10.316,0,0,1,.668-1.05H155.5s.205.36.579,1.081c.094.179.192.382.308.6.874,1.719,2.332,4.752,4.149,9.1,2.265,5.429,3.293,23.642,3.662,32.22a27.851,27.851,0,0,0,1.529,7.735C168.73,116.667,170.468,132.707,170.468,132.707Z" transform="translate(-25.058 -10.473)"/><path class="e" d="M141.959,59.22c.109-.2.218-.376.3-.542s.175-.3.249-.421h.352c-.1.153-.218.338-.343.57-.092.164-.192.341-.3.535-2.088,3.9-6.42,15.016-1.544,33.871,5.717,22.109,3.638,37.437,3.276,39.658h-.3c.33-2.037,2.472-17.372-3.276-39.584C135.487,74.349,139.854,63.155,141.959,59.22Z" transform="translate(-25.27 -10.657)"/><path class="j" d="M157,58.341l-.085.022a30.814,30.814,0,0,1-8.08,1.166,16.732,16.732,0,0,1-6.846-1.219,10.318,10.318,0,0,1,.668-1.05h13.758S156.624,57.62,157,58.341Z" transform="translate(-25.974 -10.474)"/><rect class="i" width="0.485" height="2.819" transform="matrix(0.992, 0.126, -0.126, 0.992, 119.705, 47.002)"/><rect class="i" width="0.485" height="2.819" transform="matrix(0.971, -0.239, 0.239, 0.971, 125.086, 47.109)"/><path class="e" d="M150.547,58.041l-1.723-.02a.5.5,0,0,0-.5.5v.9a.5.5,0,0,0,.5.5h.7l-.044,3.494h.17l.048-3.5h.845a.507.507,0,0,0,.509-.5v-.9A.5.5,0,0,0,150.547,58.041Zm.308,1.4a.325.325,0,0,1-.328.323l-1.719-.02a.328.328,0,0,1-.323-.328v-.9a.328.328,0,0,1,.328-.323l1.723.02a.323.323,0,0,1,.319.328Z" transform="translate(-27.132 -10.614)"/><path class="e" d="M172.721,133.048c-.218-1.767-2.225-17.47-4.837-25.011a28.048,28.048,0,0,1-1.54-7.777c-.336-7.849-1.365-26.69-3.654-32.167a107.823,107.823,0,0,0-5.023-10.768l.266-.151a109.442,109.442,0,0,1,5.023,10.8c2.324,5.516,3.354,24.4,3.682,32.268a27.7,27.7,0,0,0,1.529,7.691c2.621,7.567,4.632,23.305,4.852,25.074Z" transform="translate(-28.842 -10.459)"/><path class="k" d="M150.788,123.7c-.076-5.571-1.411-11-1.625-16.562-.234-6.047,0-12.111-.218-18.165-.1-2.974-.168-5.953-.168-8.932,0-2.374.288-4.719.476-7.078,2.149,3.086,3.016,6.958,3.549,10.823-.834-2.354-1.4-3.9-1.4-3.9s-2.256,23.716-.577,31.01-.834,24.677-.834,24.677h-.24A60.432,60.432,0,0,0,150.788,123.7Z" transform="translate(-27.215 -13.347)"/><path class="h" d="M96.16,38.369c-.055-.066-.1-.135-.162-.194a1.638,1.638,0,0,0-.616-.371.782.782,0,0,1-.454-.638.282.282,0,0,1,.063-.229c.039-.035.151,0,.218.017a1.862,1.862,0,0,0,.408.14c.472.02.756.4,1.144.568a4.115,4.115,0,0,1,1.007.819c.188.173.358.365.528.555a1.43,1.43,0,0,0,.568.4c.452.17.893.376,1.352.522.524.166,1.061.282,1.633.437l.1,3.11c-.168-.074-.319-.138-.465-.205-.745-.347-1.485-.71-2.238-1.039a3.263,3.263,0,0,0-1.529-.24c-.365.024-.727.092-1.092.092a7.365,7.365,0,0,1-.981-.114c-.321-.046-.642-.1-.961-.153s-.642-.1-.954-.188a.747.747,0,0,1-.566-.62c-.015-.12-.157-.231-.253-.336a2.391,2.391,0,0,0-.24-.218.277.277,0,0,1-.109-.31.231.231,0,0,0-.124-.3,1.138,1.138,0,0,1-.507-.738.384.384,0,0,0-.107-.14.218.218,0,0,1,.079-.373.823.823,0,0,1,.708.092c.039.022.076.059.118.063.319.035.638.076.957.085a2.051,2.051,0,0,0,.437-.1c.317-.063.633-.12.95-.179Z" transform="translate(-16.783 -6.754)"/><path class="l" d="M134.748,35.594a2.8,2.8,0,0,1-.308.262L122.632,45.962h0a2.446,2.446,0,0,1-.314.28,1.85,1.85,0,0,1-.179.122h0a1.929,1.929,0,0,1-.273.151l-.094.041a2.249,2.249,0,0,1-.963.2,2.21,2.21,0,0,1-.266-.017,2.557,2.557,0,0,1-.531-.1c-1.933-.382-12.917-2.5-16.979-4.8l.546-2.73a99.56,99.56,0,0,1,16.13,2.511L130.59,31.139l.015.02a3.038,3.038,0,0,1,4.138,4.444Z" transform="translate(-18.847 -5.562)"/><path class="m" d="M158.638,36.583v.151a27.019,27.019,0,0,1-.391,5.628c-.037.207-.09.415-.14.594-.026.124-.066.236-.09.36-.066.194-.118.373-.183.542a2.979,2.979,0,0,1-.218.472,2.366,2.366,0,0,1-.28.487c-1.568,2.184-1.273,5.619-1.107,6.842a.533.533,0,0,1-.384.581c-9.807,2.758-14.677.151-14.677.151a27.768,27.768,0,0,0-.258-4.239,2.925,2.925,0,0,0-1.24-2.223c-1.323-.83-1.813-3.341-1.983-5.1-.116-1.059-.118-1.858-.118-1.858s-1.155-7.279.587-8.412a8.96,8.96,0,0,1,2.994-.524,86.25,86.25,0,0,1,13.6.38c1.684.2,2.839.485,3.073.81C158.232,31.824,158.563,34.049,158.638,36.583Z" transform="translate(-25.096 -5.472)"/><path class="n" d="M146.255,29.918l-2.725,3.623,1.363,1.559-1.153,1.376,2.516,5.453Z" transform="translate(-26.255 -5.473)"/><path class="o" d="M152.882,30.076l2.725,3.623-1.363,1.557,1.153,1.378-2.516,5.451Z" transform="translate(-27.966 -5.502)"/><path class="f" d="M157.292,49.552a12.032,12.032,0,0,0-.489,5.7.533.533,0,0,1-.384.581c-9.807,2.758-14.679.151-14.679.151a27.773,27.773,0,0,0-.258-4.239,2.939,2.939,0,0,0-1.2-2.184Z" transform="translate(-25.661 -9.064)"/><path class="f" d="M146.788,29.918l-.345,18.237a7.807,7.807,0,0,1,1.965-.417c1.142.022,2.164.874,3.291,1.092V30.064C149.965,29.959,148.48,29.9,146.788,29.918Z" transform="translate(-26.788 -5.472)"/><path class="p" d="M161.114,43.855a5.455,5.455,0,0,1-.135.592c-.022.124-.061.247-.092.367-.063.192-.118.367-.181.535a3.11,3.11,0,0,1-.205.474,2.9,2.9,0,0,1-.284.489,8.452,8.452,0,0,0-1.247,4.774v.437h-3.033a3.057,3.057,0,0,1-3.057-3.057v-2.19c.052.011.107.015.159.022a4.7,4.7,0,0,0,3.883-1.837,15.043,15.043,0,0,0,2.107-3.931c.413-.985,1.022-2.114,2.037-2.273a2.385,2.385,0,0,1,.437-.175v.155A26.333,26.333,0,0,1,161.114,43.855Z" transform="translate(-27.966 -6.966)"/><path class="q" d="M144.748,46.723a.512.512,0,0,0,.122-.026v2.708a3.057,3.057,0,0,1-3.057,3.057h-.69c0-.625-.022-1.288-.079-1.882a2.915,2.915,0,0,0-1.247-2.223c-1.31-.83-1.808-3.339-1.965-5.1a7.755,7.755,0,0,0,2.027,2.413,6.573,6.573,0,0,0,4.89,1.053Z" transform="translate(-25.213 -7.913)"/><path class="h" d="M154.143,17.833a3.376,3.376,0,0,1-.7.788,7.261,7.261,0,0,0-.742.559,2.542,2.542,0,0,0-.9,1.948v3.439a3.314,3.314,0,0,1-3.018,3.343,3.234,3.234,0,0,1-3.453-3.225V22.707a.035.035,0,0,0-.017,0,4.274,4.274,0,0,1-2.859-4.042V14.2a4.278,4.278,0,0,1,4.278-4.278h.808a4.282,4.282,0,0,1,4.282,4.282v2.359a1.529,1.529,0,0,1,.476-.732,1.369,1.369,0,0,1,1.813.157,1.47,1.47,0,0,1,.031,1.845Z" transform="translate(-26.059 -1.815)"/><path class="r" d="M149.6,24.736a3.551,3.551,0,0,1-2.673,2.129,3.607,3.607,0,0,1-.954.035V25.415a4.9,4.9,0,0,0,.583.085A4.774,4.774,0,0,0,149.6,24.736Z" transform="translate(-26.703 -4.525)"/><path class="g" d="M154.843,19.877c-1.33,2.369-.874,6.46-1.747,6.254,0,0-1.529,0-2.636-2.075A3.275,3.275,0,0,1,150.1,22.5V22.43a3.291,3.291,0,0,1,.6-1.88,18.592,18.592,0,0,0,1.363-2.3,8.321,8.321,0,0,1,.673-1.092,6.538,6.538,0,0,0,.959-5.211c.124-.577.114-.946-.107-.946a.4.4,0,0,1-.249-.133,5.766,5.766,0,0,0-.692-1.192,25.526,25.526,0,0,1-.95-2.952L149.871,7.8c-.533-.151-6.115,1.188-6.931,3.057a5.529,5.529,0,0,0-1.068,1.658l-.489.286A11.342,11.342,0,0,1,144,5.065c1.114-1.188,7.4-3.276,10.563,1.026S156.213,17.438,154.843,19.877Z" transform="translate(-25.86 -0.64)"/><path class="g" d="M151.35,8.569a8.8,8.8,0,0,1-.815.836,10.5,10.5,0,0,1-3.354,1.489,9.083,9.083,0,0,0-3.317,1.59A5.416,5.416,0,0,0,142.1,16.6a7.307,7.307,0,0,0,1.546,4.282c.922,1.234,2.214,2.315,2.49,3.826a3.182,3.182,0,0,1-4.06,3.616,2.09,2.09,0,0,0,1.105-2.341,5.026,5.026,0,0,0-.946-1.623,11.64,11.64,0,0,1-1.347-11.054,7.313,7.313,0,0,1,2.337-3.193,12.487,12.487,0,0,1,4.706-1.653,10.535,10.535,0,0,0,2.952-1.092,1.558,1.558,0,0,0,.181-.111c.063-.035.118-.076.173-.111s.063-.05.094-.07a2.511,2.511,0,0,0,.734-.911A3.941,3.941,0,0,1,151.35,8.569Z" transform="translate(-25.622 -1.128)"/><path class="e" d="M148.739,22.728a1.994,1.994,0,0,1-.655-.122.231.231,0,0,1,.151-.437,1.4,1.4,0,0,0,1.712-.629.226.226,0,0,1,.4.218,1.878,1.878,0,0,1-1.6.97Z" transform="translate(-27.06 -3.919)"/><path class="g" d="M149.548,15.357a2.479,2.479,0,0,0,1.819.218c.124-.035.135-.14.024-.205a2.492,2.492,0,0,0-1.815-.218C149.452,15.187,149.437,15.292,149.548,15.357Z" transform="translate(-27.343 -2.757)"/><path class="g" d="M144.012,15.6a2.479,2.479,0,0,0,1.813-.269c.111-.066.094-.17-.033-.205a2.492,2.492,0,0,0-1.808.269C143.874,15.463,143.887,15.568,144.012,15.6Z" transform="translate(-26.325 -2.756)"/><circle class="g" cx="0.43" cy="0.43" r="0.43" transform="translate(118.386 14.989) rotate(-85.46)"/><circle class="g" cx="0.43" cy="0.43" r="0.43" transform="translate(122.437 14.989) rotate(-85.46)"/><path class="r" d="M148.448,20.279l-1.116.02a.251.251,0,0,1-.251-.3l.618-1.561a.218.218,0,1,1,.437,0l.553,1.542a.251.251,0,0,1-.24.3Z" transform="translate(-26.904 -3.332)"/><path class="s" d="M94.964,28.738,91,41.173a2.2,2.2,0,0,1-2.76,1.426L75.808,38.637a2.2,2.2,0,0,1-1.426-2.76l3.966-12.432a2.2,2.2,0,0,1,2.76-1.426L93.541,25.98a2.2,2.2,0,0,1,1.424,2.758Z" transform="translate(-13.587 -4.009)"/><path class="h" d="M96.094,37.8a1.638,1.638,0,0,1,.616.371c.048.05.09.107.133.162h1.494a3.057,3.057,0,0,0-.858-.675c-.389-.173-.673-.548-1.144-.568a1.856,1.856,0,0,1-.408-.14c-.074-.022-.183-.052-.218-.017a.282.282,0,0,0-.063.229.782.782,0,0,0,.45.638Z" transform="translate(-17.495 -6.754)"/><path class="d" d="M96.85,61.692v8.724a1.468,1.468,0,0,1-1.468,1.468H45.642a1.468,1.468,0,0,1-1.468-1.468V61.692a1.468,1.468,0,0,1,1.468-1.468h49.74A1.468,1.468,0,0,1,96.85,61.692Z" transform="translate(-8.081 -11.017)"/><path class="f" d="M44.188,91.288v-8.72A1.468,1.468,0,0,1,45.655,81.1H95.385a1.468,1.468,0,0,1,1.468,1.468v8.72a1.468,1.468,0,0,1-1.468,1.468H45.644a1.468,1.468,0,0,1-1.457-1.468Z" transform="translate(-8.083 -14.835)"/><path class="d" d="M94.347,92.756H104.56a1.468,1.468,0,0,0,1.468-1.468v-8.72A1.468,1.468,0,0,0,104.56,81.1H94.347Z" transform="translate(-17.259 -14.835)"/><path class="e" d="M82.8,85.3a.994.994,0,0,1-.991.991H49.923a.993.993,0,1,1,0-1.985H81.807A.994.994,0,0,1,82.8,85.3Z" transform="translate(-8.951 -15.423)"/><path class="e" d="M66.565,90.847a.994.994,0,0,1-.991.991H49.928a.993.993,0,1,1,0-1.985H65.573a.994.994,0,0,1,.991.994Z" transform="translate(-8.952 -16.437)"/><path class="f" d="M96.85,103.447v8.718a1.467,1.467,0,0,1-1.468,1.467H45.642a1.468,1.468,0,0,1-1.468-1.468v-8.718a1.468,1.468,0,0,1,1.468-1.468h49.74A1.468,1.468,0,0,1,96.85,103.447Z" transform="translate(-8.081 -18.655)"/><path class="d" d="M55.867,101.98H45.642a1.468,1.468,0,0,0-1.468,1.468v8.718a1.467,1.467,0,0,0,1.468,1.467H55.856Z" transform="translate(-8.081 -18.655)"/><path class="e" d="M96.314,106.05a.994.994,0,0,1-.991.991H63.439a.993.993,0,1,1,0-1.985H95.322A.994.994,0,0,1,96.314,106.05Z" transform="translate(-11.423 -19.218)"/><path class="e" d="M80.081,111.582a.994.994,0,0,1-.991.991H63.444a.993.993,0,1,1,0-1.985H79.089a.994.994,0,0,1,.991.994Z" transform="translate(-11.424 -20.23)"/><path class="f" d="M113.355,59.7l-1.671,8.558a1.468,1.468,0,0,1-1.721,1.16l-48.808-9.53A1.468,1.468,0,0,1,60,58.165l1.671-8.558a1.468,1.468,0,0,1,1.721-1.16l48.808,9.53A1.468,1.468,0,0,1,113.355,59.7Z" transform="translate(-10.97 -8.857)"/><path class="c" d="M73.414,50.4,63.39,48.437a1.468,1.468,0,0,0-1.721,1.16L60,58.155a1.467,1.467,0,0,0,1.16,1.721l10.024,1.965Z" transform="translate(-10.97 -8.855)"/><path class="e" d="M112.724,62.133a.994.994,0,0,1-1.164.784l-31.292-6.11a.992.992,0,1,1,.38-1.948l31.287,6.115a.994.994,0,0,1,.788,1.16Z" transform="translate(-14.537 -10.032)"/><path class="e" d="M95.731,64.452a.994.994,0,0,1-1.164.784l-15.354-3a.992.992,0,0,1,.38-1.948l15.354,3A.994.994,0,0,1,95.731,64.452Z" transform="translate(-14.343 -11.025)"/><path class="h" d="M121.713,59.366c-.081-.031-.157-.063-.238-.087a1.638,1.638,0,0,0-.718,0,.782.782,0,0,1-.714-.323.282.282,0,0,1-.061-.231c.017-.05.129-.079.2-.1a1.86,1.86,0,0,0,.424-.085c.417-.218.852-.039,1.275-.085a4.151,4.151,0,0,1,1.282.2,6.907,6.907,0,0,1,.736.218,1.43,1.43,0,0,0,.69.055c.476-.081.961-.124,1.43-.231.535-.12,1.059-.293,1.627-.452.533.849,1,1.5,1.561,2.4-.181.02-.782.186-.943.2-.819.076-1.112.218-1.926.317a3.263,3.263,0,0,0-1.45.566c-.3.205-.583.437-.9.629a7.366,7.366,0,0,1-.9.4c-.3.122-.6.24-.906.352s-.6.236-.917.319a.747.747,0,0,1-.8-.251c-.074-.1-.253-.12-.389-.164a2.4,2.4,0,0,0-.312-.061.277.277,0,0,1-.247-.218.231.231,0,0,0-.258-.2,1.138,1.138,0,0,1-.808-.382.384.384,0,0,0-.162-.068c-.2-.055-.249-.205-.12-.363a.823.823,0,0,1,.655-.277.38.38,0,0,0,.133,0c.293-.131.59-.256.874-.408a2.049,2.049,0,0,0,.319-.3c.24-.218.485-.424.729-.633Z" transform="translate(-21.603 -10.654)"/><path class="t" d="M157.636,35.956a3.058,3.058,0,0,1-.256.308L147.538,48.07a2.274,2.274,0,0,1-.28.347l-.024.028-.079.081a2.553,2.553,0,0,1-.917.57c-2.022,1.074-11.509,6.023-15.981,6.77l-1.264-2.352A97.924,97.924,0,0,1,143.284,45.2c.037-.055.079-.109.122-.162l9.427-12.771.017.013a3.013,3.013,0,1,1,4.783,3.667Z" transform="translate(-23.596 -5.689)"/><circle class="u" cx="3.153" cy="3.153" r="3.153" transform="translate(52.568 42.901)"/><circle class="v" cx="3.153" cy="3.153" r="3.153" transform="translate(38.793 85.998)"/><circle class="c" cx="4.704" cy="4.704" r="4.704" transform="translate(37.098 15.273)"/><path class="w" d="M173.383,163.746H2.9a.568.568,0,0,1,0-1.136H173.383a.568.568,0,0,1,0,1.136Z" transform="translate(-0.426 -29.746)"/><path class="x" d="M202.748,127.188a3.656,3.656,0,1,1,3.656-3.656A3.656,3.656,0,0,1,202.748,127.188Zm0-5.678a2.029,2.029,0,1,0,2.029,2.029A2.029,2.029,0,0,0,202.748,121.51Z" transform="translate(-36.419 -21.929)"/><path class="y" d="M3.656,91.069a3.656,3.656,0,1,1,3.656-3.656A3.656,3.656,0,0,1,3.656,91.069Zm0-5.678a2.029,2.029,0,1,0,2.022,2.024,2.029,2.029,0,0,0-2.022-2.024Z" transform="translate(0 -15.321)"/><path class="z" d="M185.118,19.128a.81.81,0,0,1-.57-.24L180.6,14.941a.815.815,0,0,1,0-1.151l3.953-3.955a.815.815,0,0,1,1.151,0l3.948,3.948a.815.815,0,0,1,0,1.151l-3.955,3.953A.81.81,0,0,1,185.118,19.128Zm-2.8-4.763,2.8,2.8,2.8-2.8-2.8-2.8Z" transform="translate(-32.992 -1.756)"/></g></g></svg>