<svg xmlns="http://www.w3.org/2000/svg" xmlns:xlink="http://www.w3.org/1999/xlink" width="16" height="16" viewBox="0 0 16 16"><defs><style>.a,.c{fill:#fff;}.a{stroke:#707070;}.b{clip-path:url(#a);}</style><clipPath id="a"><rect class="a" width="16" height="16" transform="translate(579 5022)"/></clipPath></defs><g class="b" transform="translate(-579 -5022)"><g transform="translate(579 5022.333)"><path class="c" d="M5.1,10.274v3.092a.5.5,0,0,0,.9.3L7.815,11.2Z" transform="translate(0.729 1.468)"/><path class="c" d="M15.79.093a.5.5,0,0,0-.521-.036L.269,7.89a.5.5,0,0,0,.069.917l4.17,1.425,8.881-7.593L6.517,10.918l6.989,2.389a.512.512,0,0,0,.161.027.5.5,0,0,0,.495-.426L15.995.574a.5.5,0,0,0-.2-.481Z" transform="translate(0 0)"/></g></g></svg>