<svg xmlns="http://www.w3.org/2000/svg" xmlns:xlink="http://www.w3.org/1999/xlink" width="105.196" height="95" viewBox="0 0 105.196 95"><defs><style>.a,.f{fill:#fff;}.a{stroke:#707070;}.b,.g{fill:#12bf66;}.b{opacity:0.04;}.c,.j,.k,.l,.m,.n,.o,.p{fill:none;}.c,.d{stroke:#b9dcca;stroke-width:3px;}.d{fill:#f5f5f5;}.e{clip-path:url(#a);}.h{fill:#202027;}.i{stroke:none;}.k{clip-path:url(#c);}.l{clip-path:url(#e);}.m{clip-path:url(#g);}.n{clip-path:url(#i);}.o{clip-path:url(#k);}.p{clip-path:url(#m);}</style><clipPath id="a"><rect class="a" width="72.89" height="72.89" transform="translate(1128.675 1045)"/></clipPath><clipPath id="c"><use xlink:href="#b"/></clipPath><clipPath id="e"><use xlink:href="#d"/></clipPath><clipPath id="g"><use xlink:href="#f"/></clipPath><clipPath id="i"><use xlink:href="#h"/></clipPath><clipPath id="k"><use xlink:href="#j"/></clipPath><clipPath id="m"><use xlink:href="#l"/></clipPath></defs><g transform="translate(-1112 -1045)"><path class="b" d="M30.3,72.863q-1.053.08-2.127.081C12.615,72.943,0,60.078,0,44.208S12.615,15.473,28.177,15.473a27.849,27.849,0,0,1,20.53,9.053A28.366,28.366,0,0,1,76.584,0c15.562,0,28.177,12.865,28.177,28.735A28.662,28.662,0,0,1,84.029,56.457a29.433,29.433,0,0,1,.5,5.434c0,15.87-12.615,28.736-28.177,28.736A28.189,28.189,0,0,1,30.3,72.863Z" transform="translate(1112.364 1049.373)"/><g transform="translate(1112 1048.645)"><g class="c" transform="translate(8.382 9.476)"><circle class="i" cx="3.28" cy="3.28" r="3.28"/><circle class="j" cx="3.28" cy="3.28" r="1.78"/></g><g class="c" transform="translate(93.464 60.478)"><circle class="i" cx="4.009" cy="4.009" r="4.009"/><circle class="j" cx="4.009" cy="4.009" r="2.509"/></g><g class="c" transform="translate(83.438 0)"><circle class="i" cx="1.822" cy="1.822" r="1.822"/><circle class="j" cx="1.822" cy="1.822" r="0.322"/></g><g transform="translate(101.846 4.02) rotate(45)"><g class="d" transform="translate(2.551 0)"><rect id="b" class="i" width="2.187" height="7.289" rx="1.093"/><path class="k" d="M0,1.5h2.186695098876953M1.5,0v7.2889838218688965M2.186695098876953,5.7889838218688965h-2.186695098876953M0.6866950988769531,7.2889838218688965v-7.2889838218688965"/></g><g class="d" transform="translate(7.289 2.551) rotate(90)"><rect id="d" class="i" width="2.187" height="7.289" rx="1.093"/><path class="l" d="M0,1.5h2.186695098876953M1.5,0v7.2889838218688965M2.186695098876953,5.7889838218688965h-2.186695098876953M0.6866950988769531,7.2889838218688965v-7.2889838218688965"/></g></g><g transform="translate(8.747 54.277) rotate(90)"><g class="d" transform="translate(3.28)"><rect id="f" class="i" width="2.187" height="8.747" rx="1.093"/><path class="m" d="M0,1.5h2.186695098876953M1.5,0v8.746780395507812M2.186695098876953,7.2467803955078125h-2.186695098876953M0.6866950988769531,8.746780395507812v-8.746780395507812"/></g><g class="d" transform="translate(8.747 3.28) rotate(90)"><rect id="h" class="i" width="2.187" height="8.747" rx="1.093"/><path class="n" d="M0,1.5h2.186695098876953M1.5,0v8.746780395507812M2.186695098876953,7.2467803955078125h-2.186695098876953M0.6866950988769531,8.746780395507812v-8.746780395507812"/></g></g><g transform="translate(72.289 82.307) rotate(90)"><g class="c" transform="translate(3.28)"><rect id="j" class="i" width="2.187" height="8.747" rx="1.093"/><path class="o" d="M0,1.5h2.186695098876953M1.5,0v8.746780395507812M2.186695098876953,7.2467803955078125h-2.186695098876953M0.6866950988769531,8.746780395507812v-8.746780395507812"/></g><g class="c" transform="translate(8.747 3.28) rotate(90)"><rect id="l" class="i" width="2.187" height="8.747" rx="1.093"/><path class="p" d="M0,1.5h2.186695098876953M1.5,0v8.746780395507812M2.186695098876953,7.2467803955078125h-2.186695098876953M0.6866950988769531,8.746780395507812v-8.746780395507812"/></g></g></g><g class="e"><g transform="translate(1128.681 1045.622)"><path class="f" d="M36.38,71.536q-14.922,0-29.846.018a2.581,2.581,0,0,1-2.142-.906,25.967,25.967,0,0,0-2.737-2.765A4.437,4.437,0,0,1,0,63.941c.055-1.194.452-1.433,1.524-1.42,4.022.047,8.05.018,12.067.018,4.586,0,9.172.034,13.762-.023a2.963,2.963,0,0,1,2.7,1.163,2.935,2.935,0,0,0,2.7,1.187c2.508-.062,5.017-.044,7.53,0a2.566,2.566,0,0,0,2.384-1,3.409,3.409,0,0,1,3.145-1.35c8.434.055,16.879.026,25.3.029,1.724,0,1.626,0,1.755,1.667.114,1.472-.558,2.394-1.407,3.519-2.389,3.163-5.336,4.051-9.257,3.9C53.6,71.321,44.988,71.536,36.38,71.536ZM70.8,64.525H69.09c-7.442,0-14.884.034-22.332-.031a3.509,3.509,0,0,0-3.251,1.387,2.525,2.525,0,0,1-2.366,1c-2.942-.057-5.887-.091-8.829,0a3.778,3.778,0,0,1-3.376-1.407,2.445,2.445,0,0,0-1.584-.914c-8.091-.057-16.18-.044-24.271-.026-.3,0-.779.148-.839.34a1.114,1.114,0,0,0,.273.9c.719.8,1.558,1.519,2.246,2.337a3.613,3.613,0,0,0,3.03,1.3c18.216-.044,36.432-.122,54.645.055,3.282.031,5.767-.688,7.642-3.352.122-.174.348-.293.428-.48a7.989,7.989,0,0,0,.291-1.1Z"/><path class="f" d="M61.318,59.786H11.548c-.026-.5-.065-.924-.065-1.345,0-9.732.018-19.475-.029-29.195,0-1.187.314-1.558,1.514-1.558q23.485.049,46.972,0c.935,0,1.509.07,1.5,1.3-.047,9.9-.026,19.808-.031,29.714C61.409,59.046,61.355,59.381,61.318,59.786ZM36.59,29.737c-7.221,0-14.445.026-21.667-.026-1.169,0-1.47.387-1.467,1.485q.049,12.586,0,25.17c0,1.184.387,1.558,1.574,1.558q21.407-.049,42.817,0c1.156,0,1.6-.314,1.6-1.529q-.06-12.586,0-25.17c0-1.21-.408-1.516-1.576-1.509C50.776,29.763,43.682,29.737,36.59,29.737Z"/><path class="f" d="M63.931,59.664V28.3c0-2.438-.815-3.254-3.274-3.254H12.246c-2.464,0-3.282.81-3.282,3.246V59.649C7.115,60.064,7,59.984,7,58.35c0-10.08.06-20.161-.039-30.239a4.721,4.721,0,0,1,5.025-5.064q24.463.117,48.93,0a4.72,4.72,0,0,1,5.03,5.058c-.1,10.078-.036,20.161-.039,30.239C65.9,59.984,65.79,60.069,63.931,59.664Z"/><path class="g" d="M54.627,19.312c-2.812.143-5.066-.779-6.141-3.438-1.117-2.758-.34-5.162,2.257-7.245L48.018,6.292c-1.8,2.379-4.2,3.191-6.954,2.038-2.633-1.1-3.5-3.422-3.352-6.271H35.219c.083,2.906-.779,5.362-3.737,6.406-2.667.945-4.916.065-6.751-2.381l-2.48,2.563c2.527,2.122,3.391,4.643,2,7.569-1.156,2.431-3.329,3.241-5.972,3.082l-.39,1.039H16.177a18.255,18.255,0,0,1,.013-2.1c.166-1.384.647-1.654,1.992-1.228a3.532,3.532,0,0,0,4.409-1.953,3.581,3.581,0,0,0-1.558-4.583C19.4,9.54,19.267,9.146,20.48,7.756a39.047,39.047,0,0,1,3.557-3.568c1.254-1.109,1.589-.982,2.381.543a3.5,3.5,0,0,0,6.7-1.262A6.546,6.546,0,0,0,32.827,1.7C32.591.688,32.892.065,34,.044c1.558-.029,3.1-.08,4.638,0,1.491.073,1.61.449,1.379,1.9A5.915,5.915,0,0,0,40.194,4.8a3.1,3.1,0,0,0,3.074,1.979,3.4,3.4,0,0,0,3.142-1.929c.932-1.7,1.2-1.818,2.641-.519a40.23,40.23,0,0,1,3.661,3.841c.818.961.605,1.558-.506,2.134a3.584,3.584,0,0,0-1.963,4.63,3.456,3.456,0,0,0,4.674,1.976c1.01-.351,1.511,0,1.67.945.127.758.13,1.535.2,2.462l-1.771.1Z"/><path class="g" d="M46.53,20.254c-1.841.314-1.841.314-2.106-1.233a8.1,8.1,0,0,0-15.954.013c-.26,1.545-.26,1.558-2.036,1.223-.283-4.916,4.105-9.577,9.309-9.888C41.583,10.018,46.167,14.181,46.53,20.254Z"/><path class="g" d="M32.051,20.314c.491-2.636,2.025-4.121,4.155-4.178,2.443-.065,3.994,1.262,4.658,4.118-.935.127-1.735.605-2.35-.779a2.249,2.249,0,0,0-4.116-.055C33.84,20.683,33.056,20.426,32.051,20.314Z"/><path class="h" d="M70.8,64.536a7.987,7.987,0,0,1-.286,1.119c-.08.187-.3.306-.428.48-1.875,2.664-4.357,3.376-7.642,3.352-18.213-.174-36.429-.1-54.645-.055a3.6,3.6,0,0,1-3.03-1.3c-.7-.821-1.527-1.532-2.246-2.337a1.114,1.114,0,0,1-.273-.9c.068-.192.543-.338.839-.34,8.091-.018,16.183-.031,24.271.026a2.435,2.435,0,0,1,1.584.914A3.785,3.785,0,0,0,32.318,66.9c2.939-.1,5.884-.068,8.829,0a2.525,2.525,0,0,0,2.366-1,3.486,3.486,0,0,1,3.251-1.387c7.442.062,14.884.031,22.332.031Z"/><path class="h" d="M36.59,29.737c7.094,0,14.186.026,21.277-.026,1.169,0,1.581.3,1.576,1.509q-.062,12.586,0,25.17c0,1.218-.444,1.532-1.6,1.529q-21.407-.047-42.817,0c-1.187,0-1.579-.371-1.574-1.558q.055-12.586,0-25.17c0-1.1.3-1.5,1.467-1.485C22.145,29.763,29.366,29.737,36.59,29.737ZM50.233,46.9l-9.3-11.784L31.817,49,22.926,37.733c-1.54,1.5-2.95,2.893-4.391,4.259a3.074,3.074,0,0,1-1.15.779c-1.452.418-1.514.483-1.039,1.924a3.129,3.129,0,0,0,3.635-1.252c.756-.976,1.615-1.872,2.534-2.929l9.436,11.945,9.114-13.885L50.088,50c.971-1.039,1.724-1.922,2.576-2.711,1.189-1.1,1.979-2.825,4.347-2.537-.291-.779-.4-1.74-.711-1.818a2.6,2.6,0,0,0-2.856.6c-.961,1.156-2.064,2.186-3.212,3.363Z"/><path class="g" d="M50.23,46.9c1.145-1.176,2.251-2.207,3.23-3.347a2.592,2.592,0,0,1,2.856-.6c.312.073.421,1.021.711,1.818-2.366-.286-3.155,1.436-4.347,2.537-.852.779-1.607,1.683-2.576,2.711L41.085,38.589,31.971,52.474,22.529,40.508c-.922,1.057-1.781,1.953-2.534,2.929a3.132,3.132,0,0,1-3.635,1.252c-.486-1.439-.423-1.5,1.039-1.924a3.074,3.074,0,0,0,1.15-.779c1.439-1.366,2.856-2.76,4.391-4.259L31.83,48.992l9.112-13.885Z"/></g></g></g></svg>