<svg xmlns="http://www.w3.org/2000/svg" width="485.088" height="473.604" viewBox="0 0 485.088 473.604"><defs><style>.a{opacity:0.05;}.b{fill:#6885a5;}.c,.i{opacity:0.3;}.d{fill:#ededef;}.e{opacity:0.2;}.f{opacity:0.4;}.g{opacity:0.15;}.h,.p{fill:#315271;}.j{fill:#ffbd99;}.k{fill:#ffd762;}.l{opacity:0.1;}.m{fill:#d4d4d4;}.n{fill:#9ee17d;}.o{fill:#fff;opacity:0.7;}.p{fill-rule:evenodd;}.q{fill:#ff8879;}.r{opacity:0.5;}.s{fill:#5fa0ce;}.t{fill:#00d19c;}.u{opacity:0.6;}</style></defs><g transform="translate(-46.707 -58.602)"><g transform="translate(46.707 58.602)"><g transform="translate(0 0)"><path class="a" d="M274.078,690.956c1.5-.879,63.53-36.441,64.472-36.981,16.653-9.6,43.7-9.6,60.4.038s16.7,25.236.025,34.852c-1.461.845-66.187,37.9-67.074,38.341l-.938.52-.076-.038c-16.751,7.721-41.247,7.108-56.781-1.867C257.42,716.183,257.42,700.573,274.078,690.956Z" transform="translate(-221.799 -462.289)"/><path class="b" d="M261.567,747.877v-7.26h0c0-6.39,4.2-12.776,12.633-17.654,16.852-9.714,44.2-9.714,61.077.042,8.447,4.853,12.671,11.235,12.671,17.612h0v7.3h0c0,6.386-4.2,12.768-12.641,17.629-16.852,9.744-44.2,9.744-61.085-.021-8.447-4.865-12.641-11.234-12.671-17.608h0v-.042Z" transform="translate(-221.777 -502.092)"/><path class="c" d="M274.211,792.332c16.894,9.765,44.229,9.765,61.085.025,8.447-4.857,12.641-11.235,12.641-17.616v7.277c0,6.386-4.2,12.768-12.641,17.629-16.852,9.744-44.2,9.744-61.085-.021-8.447-4.866-12.641-11.235-12.671-17.608v-7.3h0C261.574,781.093,265.785,787.471,274.211,792.332Z" transform="translate(-221.771 -536.195)"/><path class="c" d="M331.893,756.273c6.01-3.467,15.75-3.467,21.772,0s6.023,9.106,0,12.569-15.754,3.472-21.772,0S325.887,759.724,331.893,756.273Z" transform="translate(-259.806 -524.037)"/><path class="d" d="M339.85,618.894h0c0-1.5.98-3,2.956-4.143a15.854,15.854,0,0,1,14.326,0c1.972,1.132,2.956,2.635,2.956,4.131h0v62.445h0c0,1.5-.98,2.994-2.956,4.135a15.853,15.853,0,0,1-14.326,0c-1.977-1.14-2.956-2.64-2.956-4.131h0Z" transform="translate(-267.007 -442.801)"/><path d="M339.86,618.923c0-1.5.98-3,2.957-4.143A14.631,14.631,0,0,1,350,613.09V687.2a14.61,14.61,0,0,1-7.18-1.719c-1.977-1.14-2.957-2.64-2.957-4.131h0Z" transform="translate(-267.012 -442.83)"/><path class="b" d="M246.169,456.935a2.844,2.844,0,0,1-2.792-.3l-.047-.025-50.682-29.936a7.7,7.7,0,0,1-3.079-4.109l-13.9-43.891a1.1,1.1,0,0,1-.046-.148,5.119,5.119,0,0,1-.253-1.33l7.4-83.36a1.64,1.64,0,0,1,.71-1.626v-.025l53.939-31.149h0a1.461,1.461,0,0,1,1.542,0,5.043,5.043,0,0,1,2.454,3.839l16.565,70.415,13.456,40.47L320,403.153a8.876,8.876,0,0,1,3.974,6.986,2.736,2.736,0,0,1-1.191,2.534h0l-76.615,44.246h-.021Z" transform="translate(-171.995 -239.342)"/><path class="e" d="M326.7,445.266c-23,13.465-23.833-1.955-33.053,3.062-14.96,8.135-21.325,26.122-24.712,24.543-37.885-17.65-41.724-44.727-46.991-60.308s-6.893-19.673-6.082-37.509,13.786-13.794,13.376-28.8-6.183-30.507,5.824-36.487c10.187-5.068,22.44-1.166,29.189,14.989.739,1.774,5.241,6.335,10.859,11.61l6.124,26.03,11.881,35.744C292.323,404.75,332.375,441.947,326.7,445.266Z" transform="translate(-195.271 -266.416)"/><path class="c" d="M184.9,335a5.041,5.041,0,0,1,2.454,3.839L181.4,422.256l13.448,40.47,48.571,27.385a8.929,8.929,0,0,1,3.974,6.986c-.025,2.538-1.829,3.522-4.021,2.264l-.047-.025L192.64,469.4a7.7,7.7,0,0,1-3.079-4.109l-13.891-43.9a1.1,1.1,0,0,1-.046-.148,5.119,5.119,0,0,1-.253-1.33l7.4-83.36C182.7,335.078,183.661,334.373,184.9,335Z" transform="translate(-171.995 -282.06)"/><path class="f" d="M346.579,560.44a8.876,8.876,0,0,1,3.974,6.986,2.737,2.737,0,0,1-1.191,2.534h0l-76.581,44.212h-.021a2.773,2.773,0,0,0,1.225-2.559,8.917,8.917,0,0,0-3.974-6.986L221.44,577.241l76.59-44.191Z" transform="translate(-198.608 -396.595)"/><path class="g" d="M266.21,437.24l13.456,40.466L203.1,521.913,189.65,481.448Z" transform="translate(-180.244 -341.251)"/><path class="c" d="M197.167,293.291a3.884,3.884,0,0,0-1.174-.993,1.478,1.478,0,0,0-1.423-.055h0v-.025l53.939-31.149h0a1.462,1.462,0,0,1,1.542,0,3.988,3.988,0,0,1,1.178.992Z" transform="translate(-183.086 -239.36)"/><path class="a" d="M325.763,898.762c2.758-13.515-8.21-28.277,2.112-30.574,9.051-3.1,13.118-2.175,28.175,7.4,15.551,9.929,4.371,13.731,8.025,27.52C367.614,916.556,321.054,922.1,325.763,898.762Z" transform="translate(-257.477 -589.269)"/><path class="a" d="M540.648,803.11c17.093,6.5,38.227,4.506,39.422,12.02,2.466,6.956.553,9.292-14.533,15.733-15.627,6.648-18.638-1.947-37.214-4.38C510.213,824.114,511.083,791.922,540.648,803.11Z" transform="translate(-368.91 -551.235)"/><path class="h" d="M566.009,786.248c.823,5.279,8.7,10.2,17.836,12.248s13.638,6.475,5.491,10.018c-4.135,1.8-27.208-.659-38.012-3.856-4.055-1.2-3.962-4.392-4-4.76-.452-4.046,2.462-7.518.933-11.885C546.395,782.67,563.893,772.724,566.009,786.248Z" transform="translate(-386.826 -538.93)"/><g class="i" transform="translate(160.503 247.846)"><path d="M589.112,833.486c-4.135,1.808-27.208-.655-38.012-3.852a5.09,5.09,0,0,1-3.7-3.185v.6c.042.367-.055,3.561,4,4.76,10.808,3.2,33.877,5.659,38.012,3.856,3.987-1.736,4.92-3.687,3.772-5.491C592.8,831.328,591.523,832.435,589.112,833.486Z" transform="translate(-547.4 -813.923)"/><path d="M549.372,796.79a2.653,2.653,0,0,0,.089,1.229c.055.148.063.3.106.444A8.029,8.029,0,0,0,549.372,796.79Z" transform="translate(-548.519 -796.79)"/></g><path class="c" d="M563.266,791.978a17.4,17.4,0,0,0,4.435-3.966,6.99,6.99,0,0,1-.524-1.689c-2.112-13.515-19.614-3.577-17.739,1.757a10.583,10.583,0,0,1,.6,2.817C554.071,793.245,559.448,794.026,563.266,791.978Z" transform="translate(-387.993 -538.974)"/><path class="c" d="M547.354,804.63c.042.368-.055,3.56,4,4.76,10.808,3.2,33.877,5.66,38.012,3.856,4.882-2.112,5.182-4.574,2.682-6.635-.254-.2-.511-.388-.76-.557h0c-2.619,4.68-9.554,4.781-13.27,3.966-4.029-.878-11.568-2.3-16.818-2.986-5.6-.743-5.9-4.688-6-7.4-.452-16.125-2.074-7.5-4.511-11.969h0a11.669,11.669,0,0,0-1.119,1.132l-.114.144-.093.114a7.642,7.642,0,0,0-.481.672c-.11.182-.207.359-.3.54-.021.042-.051.08-.068.123-.055.122-.1.237-.144.351a3.769,3.769,0,0,0-.216.891c0,.059,0,.122,0,.186a2.554,2.554,0,0,0,.118.933C549.816,797.1,546.9,800.584,547.354,804.63Z" transform="translate(-386.843 -543.67)"/><path class="h" d="M350.406,862.753c-.139,5.292-2.315,21.257,3.742,26.106s15.868,5.288,14.1-5.068-5.617-20.155-4.958-29.962S350.7,851.295,350.406,862.753Z" transform="translate(-272.82 -579.239)"/><path class="f" d="M350.406,865.193c-.139,5.292-2.315,21.257,3.742,26.106,5.681,4.544,14.651,5.212,14.305-3.252-15.99,6.382-13.693-8.772-13.938-17.447a69.484,69.484,0,0,1,1.639-15.682,4.621,4.621,0,0,0,.063-1.457A15.733,15.733,0,0,0,350.406,865.193Z" transform="translate(-272.82 -581.679)"/><path class="c" d="M355.086,896.3c-6.057-4.844-3.881-20.809-3.742-26.106a14.979,14.979,0,0,1,.549-3.649,15.376,15.376,0,0,0-1.487,6.187c-.139,5.292-2.315,21.257,3.742,26.106,5.241,4.19,13.27,5.068,14.208-1.461C365.894,901.018,359.5,899.853,355.086,896.3Z" transform="translate(-272.82 -589.241)"/><path class="c" d="M363.671,853.831c.663-9.8-12.59-2.534-12.886,8.92-.025.954-.118,2.268-.215,3.8,2.264,1.558,10.462,3.214,13.959-1.406A45.359,45.359,0,0,1,363.671,853.831Z" transform="translate(-273.199 -579.242)"/><path class="h" d="M323.493,532.941l43.165,21.591a45.8,45.8,0,0,1,24.171,30.832l12.827,53.187c1.094,4.836-3.442,9.4-8.392,9.22l-2.391-.089a7.742,7.742,0,0,1-7.053-5.233L362.484,591.31c-1.6-4.684-5.913-6.922-10.31-9.351l-31.132-15.2a5.318,5.318,0,0,0-5.913,7.666l10.36,17.95a26.029,26.029,0,0,1,2.648,16.383L317.073,675.76a7.737,7.737,0,0,1-6.821,6.432,7.894,7.894,0,0,1-8.722-7.818l-.186-58.783a25.924,25.924,0,0,0-7.21-17.87l-18.073-19.3a33.315,33.315,0,0,1-7.944-32.226l4.8-16.674Z" transform="translate(-224.822 -394.556)"/><path class="e" d="M423.2,612.764,390.68,596.909c-7.949-3.358-20.053-.845-13.515,13.516a5.326,5.326,0,0,1,6.538-5.52l31.132,15.2c4.4,2.429,8.709,4.667,10.31,9.351L448.475,680.6a7.742,7.742,0,0,0,7.053,5.233l2.391.089a7.884,7.884,0,0,0,1.394-.089L432.8,623.112A18.791,18.791,0,0,0,423.2,612.764Z" transform="translate(-287.483 -432.718)"/><path class="e" d="M315.289,612.323a25.911,25.911,0,0,0-7.18-17.844l-18.072-19.306a33.3,33.3,0,0,1-7.949-32.255l3.615-12.552-12.772-.866-4.823,16.683a33.316,33.316,0,0,0,7.944,32.259l18.073,19.268a25.924,25.924,0,0,1,7.2,17.853l.194,58.8a7.877,7.877,0,0,0,8.388,7.818Z" transform="translate(-224.812 -394.545)"/><path class="c" d="M368.292,543.639a112.873,112.873,0,0,1,.739-11.5L355.7,532.4l-2.433-.355c-.638,5.44-1.1,10.136-1.339,13.832A63.727,63.727,0,0,0,368.292,543.639Z" transform="translate(-273.985 -396.018)"/><path class="j" d="M446.614,545.825c1.9,3.514,5.567,7.628,10.031,14.36a15.31,15.31,0,0,1,2.184,9.862c-.351,3.256-.718,4.08-2.078,6.082s-1.892,3.037-2.682,2.99-1.356-1.187-1.356-1.187-.528,1.66-1.854,1.584-1.3-2.065-1.3-2.065a1.6,1.6,0,0,1-1.71-.363c-.684-.765.321-2.589.321-2.589a1.089,1.089,0,0,1-1.161-1.3c.08-1.4,1.626-3.717,1.4-5.292s.646-1.2-1.3-3.6-4.393-5.355-5.1-8.257.068-2.821-2.006-5.212c-16.375-18.858-1.081-5.465.807-7.146S444.616,542.129,446.614,545.825Z" transform="translate(-320.533 -400.978)"/><path class="c" d="M456.079,566.623c-.422-4.177-4.7-7.29-7.809-12.079a108.442,108.442,0,0,0-8.384-10.745c-3.679-.735-14.685-9.972.089,7.041,2.074,2.386,1.267,2.289,2.006,5.212s3.163,5.854,5.11,8.265,1.077,2.049,1.3,3.6-1.326,3.877-1.4,5.292,1.161,1.3,1.161,1.3-1.005,1.825-.321,2.589a1.6,1.6,0,0,0,1.71.363s-.03,1.989,1.3,2.065,1.854-1.584,1.854-1.584a3.161,3.161,0,0,0,.726.908C458.005,573.11,456.5,570.779,456.079,566.623Z" transform="translate(-320.516 -400.979)"/><path class="c" d="M474.02,603.721c1.55,1.689,2.331,1.1,2.957.384s-.055-1.82-.169-2.112.363-.629.566-1.525-.169-1.183-.131-2.2a11.259,11.259,0,0,0-.76-4.249,26.893,26.893,0,0,1-1.444-4.2c-.329-1.212-.786-.845-1.009.688s.845,3.016,2.082,6.234,1.521,4.376-.114,5.068-3.717-3.134-4.279-4.844-1.837-2.112-3.3-3.974h0c1.2,1.63.545,1.516.739,2.893a3.8,3.8,0,0,1-.177,1.508,31,31,0,0,0,2.361,2.213C472.981,601.009,472.466,602.044,474.02,603.721Z" transform="translate(-341.275 -428.971)"/><path class="k" d="M403.577,448.139l20.387,46.036c.583,5.3-7.48,8.544-10.381,5.55-6.107-6.327-27-35.448-29.556-48.984C380.91,434.269,397.681,436.381,403.577,448.139Z" transform="translate(-292.304 -342.183)"/><path class="l" d="M403.577,448.139l20.387,46.036c.583,5.3-7.48,8.544-10.381,5.55-6.107-6.327-27-35.448-29.556-48.984C380.91,434.269,397.681,436.381,403.577,448.139Z" transform="translate(-292.304 -342.183)"/><path class="k" d="M373.813,326.054c-3.56,6.644.845,53.7,4.971,60.519,1.419,2.336,7.919,18.7,10.981,18.123a6.4,6.4,0,0,0,3.379-1.6c5.132-5.115,3.5-34.886,3.615-46.725.114-11.184-2.555-30.46-15.961-33.636C378,322.079,375.456,322.975,373.813,326.054Z" transform="translate(-285.87 -274.991)"/><path class="e" d="M373.813,326.054c-3.56,6.644.845,53.7,4.971,60.519,1.419,2.336,7.919,18.7,10.981,18.123a6.4,6.4,0,0,0,3.379-1.6c5.132-5.115,3.5-34.886,3.615-46.725.114-11.184-2.555-30.46-15.961-33.636C378,322.079,375.456,322.975,373.813,326.054Z" transform="translate(-285.87 -274.991)"/><path class="l" d="M385.535,385.117h0c-3.721-12.472-6.994-51.5-3.776-57.508.583-1.094,1.145-2.534,1.753-3.919a15.292,15.292,0,0,0-2.716-.946c-2.792-.655-5.334.241-6.977,3.32-3.218,6.006.055,45.036,3.776,57.508h0c2.56,13.515,23.453,42.658,29.565,48.972,1.5,1.55,4.371,1.415,6.72.211C406.6,424.417,387.942,397.851,385.535,385.117Z" transform="translate(-285.872 -274.996)"/><path class="c" d="M335.589,533.153l-1.356-2.327c-1.82-.19-1.233-1.436-3.134-1.436-17.963,0-31.879-17.616-34.05,12.894l-17.739-3.045.076,6.732a18.913,18.913,0,0,0,7.518,3.472C299.7,552.324,332.349,547.353,335.589,533.153Z" transform="translate(-232.036 -391.559)"/><path class="k" d="M319.538,383.64c1.018-23.36,4.409-26.363,4.409-41.868,0-8.557-2.019-14.1-5.6-17.2-9.182-7.911-31.533-.95-41.952,2.6a78.6,78.6,0,0,0-13.173,5.672c-.8.452-1.567.942-2.31,1.44a6.261,6.261,0,0,0-1.149.794l-.063.055h0a15.369,15.369,0,0,0-4.025,4.346,15.116,15.116,0,0,0-2.817,13.114c1.153,5.457,3.89,7.8,5.351,16.649h0l1.689,10.31c0,18.043-3.493,18.9-1.123,36.779,0,6.867,5.465,11.826,12.578,13.435,13.46,3.032,48.959-2.627,48.959-18.609C320.336,401.548,319.2,391.428,319.538,383.64Z" transform="translate(-216.501 -274.073)"/><path class="e" d="M276.395,327.175a78.594,78.594,0,0,0-13.173,5.672c-.8.452-1.567.942-2.31,1.44a6.261,6.261,0,0,0-1.149.794l-.063.055h0a15.368,15.368,0,0,0-4.025,4.346,15.116,15.116,0,0,0-2.817,13.114c1.153,5.457,3.89,7.8,5.351,16.649h0l1.689,10.31c0,18.043-3.493,18.9-1.123,36.778,0,6.868,5.465,11.826,12.578,13.435a36.466,36.466,0,0,0,6.547.748c.093-.148.182-.245.274-.232-.3-7.4-.072-15.057.19-21,1.018-23.365,0-26,0-41.5,0-8.557-2.023-14.1-5.6-17.194-2.838-2.45-6.948-3.472-11.568-3.611a15.821,15.821,0,0,1,7.56-10.525,77.81,77.81,0,0,1,13.16-5.672c9.03-3.07,27-8.688,37.611-5h0a12.189,12.189,0,0,0-1.2-1.2C309.165,316.666,286.814,323.631,276.395,327.175Z" transform="translate(-216.501 -274.076)"/><path class="j" d="M304.88,293.243a7.392,7.392,0,0,0,1.107,1.17c2.733,2.112,14.153,11.446,22.131,8.654,11.078-3.881,4.806-12.5,2.4-15.956.482-.068.938-.123,1.394-.182-1.508-1.875-2.433-5.182-2.433-11.881,0-9.089-6.758-14.542-12.223-14.208s-12.379,3.2-10.8,10.846C307.507,276.788,310.05,288.352,304.88,293.243Z" transform="translate(-246.806 -239.346)"/><path class="c" d="M304.88,293.248a7.392,7.392,0,0,0,1.107,1.17c.65.5,1.8,1.419,3.282,2.479,5.837-2.956,5.191-12.214,5.043-20.856-.072-4.342,3.024-8.667,7.6-14.187a9.5,9.5,0,0,0-4.646-1.014c-5.453.329-12.379,3.2-10.8,10.846C307.507,276.793,310.05,288.357,304.88,293.248Z" transform="translate(-246.806 -239.351)"/><path class="m" d="M348.366,348.562c4.777-1.689,6.335-4.224,6.335-6.876-1.14-1.964-1.385-2.956-2.6-1.132-1.081,1.639-3.214,5.136-7.6,3.97-1.93-.515-3.649,1.225-4.557,3.586C342.854,349.09,345.785,349.479,348.366,348.562Z" transform="translate(-267.059 -284.846)"/><path class="d" d="M307.445,318.418s1.225,6.973,7.788,9.634,11.087,2.053,11.087,4.1-2.868,2.665-2.255,5.533,3.894,5.326-3.079,2.665-14.816-7.6-16.662-13.735S307.065,317.041,307.445,318.418Z" transform="translate(-246.233 -272.44)"/><path class="d" d="M364.557,326.885c.249,4.088-2.048,6.335-1.432,7.991s3.282.612,4.1,4.1.921,7.6,1.639,1.841C369.866,332.793,364.148,320.118,364.557,326.885Z" transform="translate(-280.391 -276.396)"/><path class="j" d="M336.357,234.978c0,10.137.329,26.1-7.493,27.2s-26.765-11.9-26.765-26.33,11.349-22.216,21.037-19.715C332.408,218.532,336.357,228.7,336.357,234.978Z" transform="translate(-245.201 -213.265)"/><path class="h" d="M344.58,278.791c-.773-1.267-1.918-.186-4.287-.46s-4.291,1.267-7.21,3.1c-2.813,1.753-5.153-.524-6.454-2.4a29.788,29.788,0,0,1-3.62-10.559c-.372-2.395-.739-2.183-1.563-3.189s-3.467.275-2.061,4a17.578,17.578,0,0,1,.845,10.466,2.813,2.813,0,0,0,.186,1.808c6.061,5.947,13.857,9.714,18.212,9.1,3.066-.422,4.866-3.172,5.934-6.922a.089.089,0,0,1,.025-.072C345.88,280.312,345.353,280.075,344.58,278.791Zm-.363,4.405a6.515,6.515,0,0,1-1.559,1.525h0c-1.93,1.068-.777-1.4-1.461-1.335a1.525,1.525,0,0,0-1.575,1.128c-.241.887-1.626,1.554-2.652,1.533a5.867,5.867,0,0,1-.845-.08l-.182-.03-.279-.055c-2.382-.667.574-3.641,1.715-4.646,1.233-1.094,2.956-1.094,4.312-1.233a2.247,2.247,0,0,1,2.534,1.884,4.222,4.222,0,0,1-.013,1.309Z" transform="translate(-254.952 -241.733)"/><path class="e" d="M302.1,241.163c0,14.428,18.947,27.432,26.765,26.33a5.8,5.8,0,0,0,3.882-2.458c-1.343.7-3.518,2.154-6.188.9-4.95-2.34-12.151-8.608-12.62-14.149-.591-6.893-2.34-10.981-3.421-14.571,0,0-.038-1.863-1.39-12.35C305.014,228.3,302.1,233.873,302.1,241.163Z" transform="translate(-245.201 -218.57)"/><path class="h" d="M327.351,215.734c4.975,4.98,10.445,6.39-.422,11.763-7.784,3.839-11.48-1.111-17.4.879-3.476,1.17-.346,9.714-1.3,9.972s-2.855,1.153-3.379-.422c-2.112-6.382-6.542-2.918-6.112.494s3.844,7.5,2.893,10.829-2.391-3.239-5.883-10.014-3.8-19.428,6.268-25.666S321.582,209.948,327.351,215.734Z" transform="translate(-240.257 -209.968)"/><path class="e" d="M301.964,213.549c-10.073,6.221-9.765,18.9-6.268,25.666s4.92,13.338,5.883,10.014-2.462-7.421-2.893-10.829,3.987-6.872,6.111-.49c.524,1.563,2.353.731,3.328.456-1-3.476-2.678-5.888-4.093-8.32a11.474,11.474,0,0,1,.448-12.628c5.491-8.215,15.589-5.617,19.534-4.346C318.254,209.321,310.306,208.4,301.964,213.549Z" transform="translate(-240.224 -209.971)"/><path class="a" d="M895.168,715.628c-8.215-10.948-25.008-14.782-20.906-22.385,2.813-7.429,21.118-15.053,36.449-17.211,15.859-2.2,21.962,8.831,35.951,7.1,17.1-2.112,29.742,11.881,37.72,18.668,17.84,13.515-13.127,35.148-30.768,29.244C934.493,724.658,909.4,734.512,895.168,715.628Z" transform="translate(-575.341 -479.021)"/><path class="h" d="M973.8,676.422c0,6.893-.072,18.119.27,18.453a.908.908,0,0,0,1.267,0c.376-.367,2.433-22.3,2.433-22.3Z" transform="translate(-633.203 -477.189)"/><path class="c" d="M973.8,676.422c0,6.893-.072,18.119.27,18.453a.908.908,0,0,0,1.267,0c.376-.367,2.433-22.3,2.433-22.3Z" transform="translate(-633.203 -477.189)"/><path class="j" d="M914.71,677.534a3.906,3.906,0,0,0,.08.765c1.71,1.6,5.588,1.2,8.844.182,4.325-1.36,7.843-2.956,10.559-13.515s7.573-8.654,10.559-14.331a4.461,4.461,0,0,0,.3-4.418,19.43,19.43,0,0,1-2.767-6.7h0a28.226,28.226,0,0,1-.541-5.8c0-.655.026-1.292.051-1.939-.126,3.1-10.559,6.572-11.378,2.031,0,0-.528.359-.528.355.127,3.417.515,6.289-.042,9.63a49.757,49.757,0,0,1-3.5,11.56C920.657,668.618,914.71,673.475,914.71,677.534Zm15.407-35.621c-.076.625-.173,1.267-.279,1.888Q930,642.85,930.117,641.912Z" transform="translate(-599.073 -453.626)"/><path class="h" d="M914.776,693.357v-.08a7.414,7.414,0,0,1,.232-.845.112.112,0,0,1,.034-.093,9.476,9.476,0,0,1,.376-.908l.025-.051c.152-.329.334-.667.532-1.018a.262.262,0,0,0,.038-.068c.194-.329.4-.68.621-1.043.03-.046.068-.1.093-.148.211-.342.422-.7.676-1.068.047-.076.106-.152.156-.241l.562-.866c.384-.591.786-1.212,1.212-1.867h0c-4.426,9.913,9.946,1.938,12.721-4.857s4.549-9.25,7.6-12.5,4.794-4.887,4.118-7.053c.422.845.845,1.588,1.237,2.226h0c1.174,1.968,1.9,3.269.511,5.913-2.957,5.681-7.839,3.8-10.559,14.335s-6.221,12.172-10.559,13.515c-4.025,1.267-8.988,1.571-9.655-1.689a3.9,3.9,0,0,1-.08-.765A4.366,4.366,0,0,1,914.776,693.357Z" transform="translate(-599.05 -470.303)"/><path class="c" d="M923.744,698.224c4.325-1.36,7.843-2.956,10.559-13.515s7.573-8.654,10.559-14.33a4.45,4.45,0,0,0,.3-4.418c1.174,1.968,1.9,3.269.511,5.913-2.957,5.681-7.839,3.8-10.559,14.335s-6.221,12.172-10.559,13.515c-4.025,1.267-8.988,1.571-9.655-1.689C916.632,699.643,920.488,699.242,923.744,698.224Z" transform="translate(-599.183 -473.37)"/><path class="j" d="M1074.171,665.335c-.186-1.8-.422-3.721-.718-5.824-.055-.38-.114-.743-.169-1.111,1.824,2.3,9.385.672,9.858-2.45.249,3.087.24,5.719.959,7.881h0c.7,2.086,1.457,3.827,2.036,5.406.579,5.275-1.381,7.708-.144,16.375,1.267,9,3.041,15.424-10.593,17.375-2.382.342-4.008.287-5.068-.165-.384-2.04.477-5.377,1.5-10.107C1073.66,684.222,1075.557,679.036,1074.171,665.335Z" transform="translate(-688.913 -467.588)"/><path class="h" d="M1071.824,706.493c-1.445,11.906,12.054-.122,12.371-4.422s.173-9.87.625-13.258a48.71,48.71,0,0,0,.089-9.013c.448,1.161.879,2.226,1.242,3.214.287,2.61.3,2.6,0-.034a15.035,15.035,0,0,1,.845,3c.781,5.47-1.3,7.623-.067,16.227s2.9,14.749-10.136,16.611c-4.308.617-6.052-.1-6.454-2.222C1069.928,714.56,1070.79,711.219,1071.824,706.493Z" transform="translate(-688.91 -481.365)"/><path class="c" d="M1075.516,721.1c13.634-1.951,11.881-8.379,10.593-17.375-1.242-8.688.73-11.108.144-16.409a15.051,15.051,0,0,1,.845,3c.781,5.47-1.3,7.624-.068,16.227s2.9,14.748-10.136,16.611c-4.308.617-6.052-.1-6.453-2.222C1071.521,721.4,1073.134,721.446,1075.516,721.1Z" transform="translate(-689.029 -485.709)"/><path d="M1044.73,667.94h0V803.748c7.666,0,13.883-3.6,13.883-8.025V675.948C1058.608,671.521,1052.4,667.932,1044.73,667.94Z" transform="translate(-674.178 -474.514)"/><path d="M752.63,836.57h0V972.382c7.666,0,13.883-3.6,13.883-8.025V844.578C766.508,840.152,760.3,836.566,752.63,836.57Z" transform="translate(-505.448 -571.923)"/><path class="d" d="M747.856,507.465c0-4.426-6.2-8.025-13.874-8.025s-13.887,3.59-13.891,8.025V627.227h0c0,4.422,6.209,8.025,13.875,8.025s13.887-3.594,13.891-8.025V507.477h0Z" transform="translate(-486.651 -377.181)"/><path class="c" d="M753,499.48h0v135.8c7.666,0,13.878-3.594,13.883-8.025V507.488C766.87,503.078,760.661,499.476,753,499.48Z" transform="translate(-505.661 -377.204)"/><path d="M460.89,667.94h0V803.748c7.661,0,13.879-3.6,13.879-8.025V675.948C474.769,671.521,468.539,667.932,460.89,667.94Z" transform="translate(-336.925 -474.514)"/><path class="b" d="M688.473,534.477V524.045h0c.055-25.861-16.991-51.721-51.151-71.445-68.261-39.41-179-39.372-247.347.089-34.143,19.711-51.244,45.53-51.295,71.357h0v10.5h0c-.055,25.869,16.991,51.726,51.151,71.445,68.265,39.414,179,39.372,247.347-.084,34.147-19.715,51.244-45.534,51.295-71.378h0v-.068Z" transform="translate(-266.331 -333.064)"/><path class="c" d="M813.541,503.631a12.578,12.578,0,0,1,11.374,0l65.114,37.589c3.138,1.82,3.138,4.756,0,6.568l-24.408,14.09a12.575,12.575,0,0,1-11.365,0l-65.114-37.589c-3.138-1.812-3.138-4.76,0-6.568Z" transform="translate(-525.179 -378.817)"/><path class="c" d="M448.593,553.933c-3.138-1.816-3.134-4.76,0-6.568l65.11-37.59a12.606,12.606,0,0,1,11.374,0l35.448,20.459c3.134,1.812,3.13,4.752,0,6.568l-65.114,37.59a12.537,12.537,0,0,1-11.366,0Z" transform="translate(-328.463 -382.368)"/><path class="c" d="M637.168,733.505c-68.345,39.456-179.078,39.494-247.347.08-34.16-19.72-51.2-45.58-51.151-71.445h0v10.5h0c-.055,25.869,16.991,51.725,51.151,71.445,68.265,39.414,179,39.372,247.347-.084,34.147-19.716,51.244-45.534,51.295-71.378h0V662.144h0C688.412,687.963,671.315,713.785,637.168,733.505Z" transform="translate(-266.325 -471.164)"/><path class="n" d="M890.02,542.3l-24.4,14.094a12.562,12.562,0,0,1-11.366,0l-65.114-37.589a4.046,4.046,0,0,1-2.357-3.278h0v2.357h.03a4.092,4.092,0,0,0,2.327,3.1l65.11,37.589a12.54,12.54,0,0,0,11.374,0l24.4-14.094a4,4,0,0,0,2.349-3.235h0V539h0C892.381,540.225,891.591,541.408,890.02,542.3Z" transform="translate(-525.174 -386.475)"/><path class="f" d="M890.02,542.3l-24.4,14.094a12.562,12.562,0,0,1-11.366,0l-65.114-37.589a4.046,4.046,0,0,1-2.357-3.278h0v2.357h.03a4.092,4.092,0,0,0,2.327,3.1l65.11,37.589a12.54,12.54,0,0,0,11.374,0l24.4-14.094a4,4,0,0,0,2.349-3.235h0V539h0C892.381,540.225,891.591,541.408,890.02,542.3Z" transform="translate(-525.174 -386.475)"/><path class="n" d="M813.546,472.521a12.579,12.579,0,0,1,11.374,0l65.114,37.589c3.138,1.816,3.138,4.751,0,6.563l-24.4,14.094a12.562,12.562,0,0,1-11.366,0l-65.114-37.589c-3.138-1.816-3.138-4.76,0-6.572Z" transform="translate(-525.185 -360.846)"/><path class="n" d="M888.678,539.338a.54.54,0,0,1,0,.275.572.572,0,0,1,0,.27.545.545,0,0,1,0,.274q.007.274,0,.549a.545.545,0,0,1,0,.275.524.524,0,0,1,0,.279.845.845,0,0,1-.52.921,3.023,3.023,0,0,1-2.728,0l-51.595-29.793a.845.845,0,0,1-.511-.925.553.553,0,0,1,0-.275.666.666,0,0,1,0-.274.62.62,0,0,1,0-.27.592.592,0,0,1,0-.27.635.635,0,0,1,0-.279.537.537,0,0,1,0-.275.516.516,0,0,1,0-.274.984.984,0,0,0,.511.65l51.595,29.789a3.02,3.02,0,0,0,2.733,0A.968.968,0,0,0,888.678,539.338Zm4.941-2.5a3.01,3.01,0,0,1-2.728,0L858.26,518a1.026,1.026,0,0,1-.519-.646.739.739,0,0,0,0,.266.7.7,0,0,0,0,.275.693.693,0,0,0,0,.274.768.768,0,0,0,0,.274.625.625,0,0,0,0,.279.647.647,0,0,0,0,.27.693.693,0,0,0,0,.274.845.845,0,0,0,.511.925l32.631,18.841a3.033,3.033,0,0,0,2.733,0,.845.845,0,0,0,.515-.921.59.59,0,0,0,0-.275.589.589,0,0,0,0-.274.58.58,0,0,0,0-.275.58.58,0,0,0,0-.275.647.647,0,0,0,0-.27.687.687,0,0,0,0-.279.557.557,0,0,0,0-.266h0a.992.992,0,0,1-.511.638Zm5.449-3.142a3.021,3.021,0,0,1-2.72,0L854.231,509.38a1.022,1.022,0,0,1-.519-.65h0a.689.689,0,0,0,0,.275q0,.274,0,.549a.689.689,0,0,0,0,.275.7.7,0,0,0,0,.274.7.7,0,0,0,0,.275.689.689,0,0,0,0,.275.845.845,0,0,0,.519.921l42.113,24.3a2.99,2.99,0,0,0,2.72,0,.844.844,0,0,0,.519-.925.583.583,0,0,0,0-.274.58.58,0,0,0,0-.275.654.654,0,0,0,0-.274.671.671,0,0,0,0-.275.6.6,0,0,0,0-.275.684.684,0,0,0,0-.275.585.585,0,0,0,0-.27,1.006,1.006,0,0,1-.519.659Z" transform="translate(-552.05 -382.547)"/><path class="f" d="M888.678,539.338a.54.54,0,0,1,0,.275.572.572,0,0,1,0,.27.545.545,0,0,1,0,.274q.007.274,0,.549a.545.545,0,0,1,0,.275.524.524,0,0,1,0,.279.845.845,0,0,1-.52.921,3.023,3.023,0,0,1-2.728,0l-51.595-29.793a.845.845,0,0,1-.511-.925.553.553,0,0,1,0-.275.666.666,0,0,1,0-.274.62.62,0,0,1,0-.27.592.592,0,0,1,0-.27.635.635,0,0,1,0-.279.537.537,0,0,1,0-.275.516.516,0,0,1,0-.274.984.984,0,0,0,.511.65l51.595,29.789a3.02,3.02,0,0,0,2.733,0A.968.968,0,0,0,888.678,539.338Zm4.941-2.5a3.01,3.01,0,0,1-2.728,0L858.26,518a1.026,1.026,0,0,1-.519-.646.739.739,0,0,0,0,.266.7.7,0,0,0,0,.275.693.693,0,0,0,0,.274.768.768,0,0,0,0,.274.625.625,0,0,0,0,.279.647.647,0,0,0,0,.27.693.693,0,0,0,0,.274.845.845,0,0,0,.511.925l32.631,18.841a3.033,3.033,0,0,0,2.733,0,.845.845,0,0,0,.515-.921.59.59,0,0,0,0-.275.589.589,0,0,0,0-.274.58.58,0,0,0,0-.275.58.58,0,0,0,0-.275.647.647,0,0,0,0-.27.687.687,0,0,0,0-.279.557.557,0,0,0,0-.266h0a.992.992,0,0,1-.511.638Zm5.449-3.142a3.021,3.021,0,0,1-2.72,0L854.231,509.38a1.022,1.022,0,0,1-.519-.65h0a.689.689,0,0,0,0,.275q0,.274,0,.549a.689.689,0,0,0,0,.275.7.7,0,0,0,0,.274.7.7,0,0,0,0,.275.689.689,0,0,0,0,.275.845.845,0,0,0,.519.921l42.113,24.3a2.99,2.99,0,0,0,2.72,0,.844.844,0,0,0,.519-.925.583.583,0,0,0,0-.274.58.58,0,0,0,0-.275.654.654,0,0,0,0-.274.671.671,0,0,0,0-.275.6.6,0,0,0,0-.275.684.684,0,0,0,0-.275.585.585,0,0,0,0-.27,1.006,1.006,0,0,1-.519.659Z" transform="translate(-552.05 -382.547)"/><path class="o" d="M833.793,506.9a3.028,3.028,0,0,1,2.733,0l51.595,29.789a.832.832,0,0,1,0,1.575h0a3.02,3.02,0,0,1-2.733,0l-51.595-29.789a.831.831,0,0,1,0-1.571Zm20.391-.819a3.029,3.029,0,0,1,2.733,0l42.1,24.311c.756.422.756,1.136,0,1.579h0a3.02,3.02,0,0,1-2.72,0L854.184,507.66a.829.829,0,0,1,0-1.571Zm4.029,8.625a.831.831,0,0,0,0,1.571l32.631,18.841a3.012,3.012,0,0,0,2.729,0h0a.833.833,0,0,0,0-1.575L860.95,514.709a3.015,3.015,0,0,0-2.733,0Z" transform="translate(-552.008 -380.831)"/><path class="a" d="M268.572,1090.312c1.5-.879,63.8-36.6,64.751-37.146,16.721-9.642,43.883-9.642,60.65.042s16.776,25.341.025,35c-1.466.845-66.478,38.054-67.365,38.5l-.929.511-.076-.038c-16.818,7.754-41.424,7.138-57.018-1.879C251.838,1115.654,251.838,1099.955,268.572,1090.312Z" transform="translate(-218.586 -692.865)"/><path class="a" d="M567.578,1169.79c9.807-10.872,27.267-14.694,24.2-22.229-1.795-7.357-4.515-9.068-19.656-11.179-15.669-2.146-13.427,6.918-26.553,14.292C532.772,1157.863,550.591,1188.542,567.578,1169.79Z" transform="translate(-383.322 -744.923)"/><path class="b" d="M342.8,1147.429v-7.29h0c0-6.415-4.224-12.835-12.671-17.739-16.924-9.756-44.385-9.756-61.338.047-8.447,4.874-12.709,11.285-12.721,17.688h0v7.328h0c0,6.416,4.224,12.827,12.7,17.709,16.919,9.786,44.385,9.786,61.347,0,8.447-4.887,12.692-11.285,12.709-17.693h0Z" transform="translate(-218.611 -732.808)"/><path class="c" d="M330.051,1192.092c-16.962,9.8-44.423,9.8-61.347.021-8.481-4.882-12.7-11.281-12.7-17.692v7.306c0,6.416,4.224,12.827,12.7,17.709,16.919,9.786,44.385,9.786,61.347,0,8.447-4.886,12.692-11.285,12.709-17.692h0V1174.4h0C342.743,1180.8,338.511,1187.2,330.051,1192.092Z" transform="translate(-218.571 -767.069)"/><path class="c" d="M348.506,1155.87c-6.035-3.48-15.826-3.48-21.865,0s-6.048,9.144,0,12.624,15.826,3.489,21.869,0S354.541,1159.354,348.506,1155.87Z" transform="translate(-256.758 -754.858)"/><path class="d" d="M355.008,1017.892h0c0-1.508-.984-3.011-2.956-4.16a15.934,15.934,0,0,0-14.39,0c-1.985,1.149-2.978,2.652-2.982,4.152h0V1080.6h0c0,1.508.988,3.007,2.978,4.152a15.873,15.873,0,0,0,14.385,0c1.985-1.144,2.978-2.648,2.978-4.148h0Z" transform="translate(-264.02 -673.268)"/><path d="M368.936,1017.886c0-1.508-.984-3.011-2.956-4.16a14.782,14.782,0,0,0-7.18-1.719v74.461a14.576,14.576,0,0,0,7.18-1.728c1.981-1.153,2.978-2.648,2.978-4.147h0v-62.707Z" transform="translate(-277.953 -673.262)"/><path class="b" d="M395.318,970.992,346.553,999.8l-13.515-25.046L326.28,932.52l1.191-.71a2.768,2.768,0,0,1,2.855-.215l67.8,39.148A2.826,2.826,0,0,0,395.318,970.992Z" transform="translate(-259.168 -626.638)"/><path class="f" d="M395.318,970.992,346.553,999.8l-13.515-25.046L326.28,932.52l1.191-.71a2.768,2.768,0,0,1,2.855-.215l67.8,39.148A2.826,2.826,0,0,0,395.318,970.992Z" transform="translate(-259.168 -626.638)"/><path class="h" d="M273.9,940.968l8.325-17.118,15.923,16.624,6.124-1.888v37.868a33.174,33.174,0,0,1-6.825.9h-.08A25.312,25.312,0,0,1,273.9,940.968Z" transform="translate(-227.418 -622.34)"/><path class="j" d="M551.212,1076.83a39.735,39.735,0,0,0,3.915,15.555c5.415,11.446,9.9,19.192,13.748,19.15s11.138,3.239,6.673,7.6-7.868,4.874-14.508,2.226-9.528-12.291-18.161-12.3c-4.6,0-7.011-2.995-5.765-7.4s3.307-8.291,1.521-19.935a2.265,2.265,0,0,0-.068-.368C541.524,1083.883,549.346,1080.175,551.212,1076.83Z" transform="translate(-380.767 -710.708)"/><path class="p" d="M536.866,1132.028a18.482,18.482,0,0,1,1.364-7.742c6.88-1.132,15.484,6.5,19.716,12.312l1,1.267h0c.359.38.71.765,1.026,1.162,3.29,4.1,6.411,7.129,10.2,4.223,3.345-2.585,1.216-3.2-1.453-4.388.068,0,.131.025.19.029,3.848-.047,11.138,3.239,6.673,7.6s-7.869,4.874-14.508,2.226-9.528-12.291-18.161-12.3c-3.425,0-5.588-1.689-5.972-4.354Z" transform="translate(-380.786 -738.056)"/><path class="c" d="M551.456,1076.83a39.737,39.737,0,0,0,3.915,15.555c5.415,11.446,9.9,19.192,13.748,19.15s11.138,3.239,6.673,7.6-7.868,4.874-14.508,2.226-9.528-12.291-18.161-12.3c-3.21,0-5.317-1.478-5.913-3.848h0c1.689-.887,6.251,1.009,9.228,1.58,4.177.8,1.575-7.045,1.368-17.578-.042-1.968-.291-4.823-.718-8.65A10.939,10.939,0,0,0,551.456,1076.83Z" transform="translate(-381.011 -710.708)"/><path class="h" d="M556.011,1151.927c6,5.955,9.292,13.013,16.658,7.345a33.438,33.438,0,0,0,4.549-4.173c.342,1.039.068,2.243-1.267,3.531-4.464,4.355-7.868,4.874-14.508,2.226s-9.528-12.29-18.161-12.3c-2.956,0-5.009-1.267-5.761-3.336C542.276,1146.162,550.672,1146.626,556.011,1151.927Z" transform="translate(-381.19 -750.213)"/><path class="c" d="M556.011,1151.927c6,5.955,9.292,13.013,16.658,7.345a33.438,33.438,0,0,0,4.549-4.173c.342,1.039.068,2.243-1.267,3.531-4.464,4.355-7.868,4.874-14.508,2.226s-9.528-12.29-18.161-12.3c-2.956,0-5.009-1.267-5.761-3.336C542.276,1146.162,550.672,1146.626,556.011,1151.927Z" transform="translate(-381.19 -750.213)"/><path class="h" d="M544.558,1149.724c2.957.912,3.852-.587,3.278,2.8s2.509,16.049,1.943,16.839a1.343,1.343,0,0,1-2.145.329c-.879-.65-2.809-14.685-5.28-17.612S541.775,1148.871,544.558,1149.724Z" transform="translate(-383.32 -752.572)"/><path class="h" d="M325,935.16l-8.329,17.122a25.328,25.328,0,0,0,23.47,36.394h.1a33.368,33.368,0,0,0,13.228-3.134L390.7,968.116a1.394,1.394,0,0,1,2.319.76l.773,4.021a47.329,47.329,0,0,0,8.591,19.428l4.481,5.985a10.559,10.559,0,0,0,11.746,3.7,6.491,6.491,0,0,0,4.224-7.3l-8.869-42.844A19.715,19.715,0,0,0,388.8,937.027l-47.895,14.782Z" transform="translate(-252.122 -628.873)"/><path class="e" d="M271.454,958.006c.925,20.273,41.213-7.472,41.12-8.747l3.679,3.843,47.895-14.782a19.715,19.715,0,0,1,25.122,14.837L398.139,996a6.492,6.492,0,0,1-4.224,7.3,9.894,9.894,0,0,1-1.465.359l-9.182-12.582a47.3,47.3,0,0,1-8.586-19.428l-.773-4.025a1.394,1.394,0,0,0-2.323-.752l-4.692,2.192h0a1.318,1.318,0,0,0-.891.338l-37.235,17.426a33.364,33.364,0,0,1-13.228,3.134h-.08A24.986,24.986,0,0,1,299.684,985c-.735.068-1.474.161-2.213.173h-.063A25.3,25.3,0,0,1,271.454,958.006Z" transform="translate(-227.457 -630.191)"/><path class="j" d="M318.741,725.269c-1.812-.646-3.472,9.921,1.884,12.708s-27.369,2.289-25.02-.566,1.487-5.845,3.463-5.744,10.137-7.759,5.491-15.91,9.511-7.15,11.146-5,7.8,3.746,6.407,6.462S321.52,726.266,318.741,725.269Z" transform="translate(-241.379 -498.372)"/><path class="e" d="M318.741,725.269c-1.812-.646-3.472,9.921,1.884,12.708s-27.369,2.289-25.02-.566,1.487-5.845,3.463-5.744,10.137-7.759,5.491-15.91,9.511-7.15,11.146-5,7.8,3.746,6.407,6.462S321.52,726.266,318.741,725.269Z" transform="translate(-241.379 -498.372)"/><path class="j" d="M336.732,670.887c-.714-3.062-6.09-5.4-9.347-1.267-4.371,5.537-4.684,7.97-9.9,13.853a17.458,17.458,0,0,1-1.377,1.389,8.078,8.078,0,0,0-.262-1.465c-.866-3.134-3.3-5.187-5.41-4.616s-3.172,3.611-2.306,6.758a7.264,7.264,0,0,0,2.437,3.865c3.518,5.672,4.359,7.788,10.474,10.263,4.908,1.985,11.306,2.957,12.573-1.031,1.03-3.244,4.287-5.752,4.287-10.559,0-3.138-1.689-8.844-1.2-11.581A16.8,16.8,0,0,0,336.732,670.887Z" transform="translate(-248.507 -474.2)"/><path class="e" d="M336.732,670.887c-.714-3.062-6.09-5.4-9.347-1.267-4.371,5.537-4.684,7.97-9.9,13.853a17.458,17.458,0,0,1-1.377,1.389,8.078,8.078,0,0,0-.262-1.465c-.866-3.134-3.3-5.187-5.41-4.616s-3.172,3.611-2.306,6.758a7.264,7.264,0,0,0,2.437,3.865c3.518,5.672,4.359,7.788,10.474,10.263,4.908,1.985,11.306,2.957,12.573-1.031,1.03-3.244,4.287-5.752,4.287-10.559,0-3.138-1.689-8.844-1.2-11.581A16.8,16.8,0,0,0,336.732,670.887Z" transform="translate(-248.507 -474.2)"/><path class="e" d="M344.552,698.578c3.349-1.394,3.13,1.47,6.758-4.5s2.247-11.653,2.644-16.548.346-4.9-2.644-9.009c-.262-.359-.511-.71-.764-1.06,2.589-.279,5.1,1.419,5.575,3.446a16.172,16.172,0,0,1-.055,5.588c-.473,2.737,1.2,8.447,1.2,11.581,0,4.819-3.252,7.328-4.287,10.559-.819,2.581-3.8,3.066-7.134,2.564a1.494,1.494,0,0,1-.6-.093c-1.812-.646-3.472,9.921,1.884,12.709,1.825.959-.794,1.352-4.937,1.5-.321-3.476-.363-6.7-.566-8.092C341.093,703.388,341.2,699.972,344.552,698.578Z" transform="translate(-267.894 -474.219)"/><path class="j" d="M451.334,733.777s5.964-6.162,8.371-6.09,9.174.845,12.916.971,4.823,1.922,6.2.638-1.968-4.122-4.946-4.223-3.142-1.178-3.092-2.762,10.174-8.827,8.574-10.525-5.913,3.8-8.173,3.746c-1.267-.042-1.225-1.432-2.306-1.47s-1.005.393-1.47.376-.249-.258-1.094-.283-1.119.507-1.449.5-.545-.139-1.052-.161a10.171,10.171,0,0,0-4.735,2.437c-1.706,1.592-4.828,2.855-7.374,4.726s-4.029,5.757-4.126,9S449.277,735.715,451.334,733.777Z" transform="translate(-329.232 -499.653)"/><path class="c" d="M451.368,733.87s5.964-6.162,8.371-6.09,9.174.845,12.916.971,4.823,1.922,6.2.638-1.968-4.122-4.946-4.224-3.142-1.178-3.091-2.762,10.174-8.827,8.574-10.525a.96.96,0,0,0-.422-.258c-2.956,2.838-9.152,8.785-13.215,9.414-4.646.714-8.346,1.136-14.74,6.939-1.292,1.174-2.424,2.167-3.379,3.024C447.617,734.106,449.362,735.758,451.368,733.87Z" transform="translate(-329.265 -499.746)"/><path class="j" d="M388.087,754.54a5.026,5.026,0,0,0-1.917-.672,5.591,5.591,0,0,0,1.867-.845l28.2-17.414,1.571,10.3-20.383,17.633a17.992,17.992,0,0,1-4.612,2.9,4.583,4.583,0,0,0,.68-2.534A11.952,11.952,0,0,0,388.087,754.54Z" transform="translate(-293.763 -513.604)"/><path class="n" d="M271.483,769.6a8.447,8.447,0,0,1,9.934-6.715l36.077,6.715a5.43,5.43,0,0,0,2.336-.059,5.03,5.03,0,0,1,1.918.672,11.927,11.927,0,0,1,5.406,9.372,4.583,4.583,0,0,1-.68,2.534,18.2,18.2,0,0,1-8.929,1.419L279.491,780.2a9,9,0,0,1-8.008-10.605Z" transform="translate(-227.427 -529.265)"/><path class="c" d="M402.679,762.314c-2.716,2.175-4.963,1.309-5.879,1.267h0a12.948,12.948,0,0,1,2.015,3.379c.025.068.046.127.068.194a11.3,11.3,0,0,1,.465,1.474c.03.135.068.275.093.422a8.561,8.561,0,0,1,.186,1.66,4.582,4.582,0,0,1-.68,2.534,17.99,17.99,0,0,0,4.612-2.9l20.391-17.65-.815-5.343C422.158,748.093,402.688,762.306,402.679,762.314Z" transform="translate(-299.904 -520.385)"/><path class="e" d="M280.355,762.8c4.291,3.379,38.459,11.5,43.925,9.714a11.8,11.8,0,0,1,2.834,7.1,4.583,4.583,0,0,1-.68,2.534,18.2,18.2,0,0,1-8.912,1.411l-38.054-3.333a9,9,0,0,1-8.025-10.6A8.4,8.4,0,0,1,280.355,762.8Z" transform="translate(-227.404 -529.297)"/><path class="n" d="M268.148,761.832c9.714.313,17.249,1.892,24.116,5.119a105.5,105.5,0,0,1,14.867,8.422l.215.148c.11.08.211.152.317.237.718.519,1.415,1.035,2.065,1.563,1.267.845,3.087,1.588,7.29,2.42,3.62.722,1.533,2.931-1.782,4.523,2.112,9.558,8.447,12.552,5.613,20.59-2.513,7.15-7.873,6.335-9.241,14.7s-.786,33.015-1.837,34.139-16.307,7.041-30.832,1.14l-.65-.275c-8.92-3.674-14.107-6.728-16.016-9.646a21.3,21.3,0,0,0,1.837-8.494c0-11.26-1.229-13-3.843-24.074a5.774,5.774,0,0,0-.3-.883c-.182-.6-.363-1.161-.536-1.622-.845-1.93-1.727-3.767-2.64-5.431-6.466-11.767-7.4-22.507-7.4-32.656C249.417,762.344,263.828,761.757,268.148,761.832Z" transform="translate(-214.759 -528.748)"/><path class="n" d="M397.709,831.893c-7.421-.321-22.807,2.036-23.829,21.265s-20.746,6.407-15.918-9.925,3.054-24.125,15.906-23.145,30.477.165,33.417,4.587S403.575,832.142,397.709,831.893Z" transform="translate(-277.03 -562.354)"/><path class="n" d="M367.6,788.151c-10.664-2.04-18.93-5.191-34.489-13.194s-22.169,6.758-17.469,13.194,35.549,10.69,45.095,8.629S385.469,791.577,367.6,788.151Z" transform="translate(-252.166 -534.992)"/><path class="e" d="M345.481,791.038c-2.623-3.949-16.924-3.721-29.1-4.325a24.293,24.293,0,0,1-.688-2.471c.722-.351,2.872-.422,5.752-.308-6.2-2.995-8.253-6.226-15.357-10.348-2.112-.984-4.3-2.036-6.724-3.256-.65-.35-1.267-.68-1.922-1.014a17.555,17.555,0,0,1-1.875-.98c-.98-.494-1.947-.971-2.851-1.4-6.867-3.227-14.419-4.806-24.116-5.119h-1.888c-.262,0-.545.025-.845.038h-.329l-1.039.076h-.224c-.389.034-.79.076-1.2.127h-.144q-.663.084-1.339.194h-.038c-4.439.722-9.292,2.462-11,6.382-.046-.025-.1-.047-.144-.068a2.855,2.855,0,0,1-.025.465c-.025.152-.148.3-.194.469h0c.059-.042.122-.068.182-.106-.545,9.127,0,18.85,4.823,29.755.769,1.736,1.491,3.641,2.167,5.634.131.481.266,1.056.393,1.664a5.424,5.424,0,0,1,.224.908c1.66,11.239,2.741,13.093,1.782,24.3a21.211,21.211,0,0,1-2.534,8.308c1.656,3.071,6.559,6.563,15.141,10.981.215.106.422.211.625.325,8,4.076,16.573,4.291,22.647,3.548h.068c-.068.747-.114,1.546-.114,2.445h.063c.917-.046,1.8-.135,2.661-.236l.422-.055c.76-.1,1.5-.211,2.2-.334l.351-.068c.777-.139,1.525-.3,2.222-.469h.042a37.177,37.177,0,0,0,3.746-1.1l.313-.114c.363-.135.7-.266.993-.389.11-.046.224-.089.321-.135.249-.11.456-.211.638-.308l.22-.118a2.2,2.2,0,0,0,.448-.3c.921-.976.587-19.893,1.4-30.253a31.14,31.14,0,0,0,.422-3.886c1.368-8.384,6.728-7.552,9.241-14.7a12.848,12.848,0,0,0,.49-1.837c.034-.156.059-.317.08-.469a10.691,10.691,0,0,0,.106-1.17,26.491,26.491,0,0,1,13.917-3.087C341.76,798.531,348.421,795.477,345.481,791.038ZM251.2,769c4.608-2.627,11.454-2.88,14.212-2.83,9.714.312,17.253,1.892,24.116,5.115,3.007,1.415,6.525,3.24,9.908,5.241.629.372,1.267.752,1.867,1.136l.262.169c.541.338,1.069.684,1.588,1.026.241.165.473.334.71.49l.237.169c1.736,1.221,1.267,3.379,0,6.335h0c-.287.591-.587,1.229-.912,1.956-1.656,3.687-3.058,6.361-4.105,9.047a44.012,44.012,0,0,1-1.512-7.18C296.366,775.635,273.5,780.2,251.2,769Z" transform="translate(-215.215 -528.744)"/><path class="h" d="M275.757,639.67a18.163,18.163,0,0,1,3.092-3.586c.165-.148.329-.308.5-.456s.232-.186.346-.283.321-.266.481-.389h.021a23.652,23.652,0,0,1,14.2-4.549c11.661,0,21.118,7.8,21.118,17.431a14.7,14.7,0,0,1-1.309,5.989.189.189,0,0,1-.03.122c-3.185,9.541-4.414,7.18-5.575,16.223-2.762,21.519,8.574,18.347,9.875,28.695a98.426,98.426,0,0,0-9.562-5.622l-.038-.021c-4.414-2.188-6.078.325-14.66-1.647s-14.6-3.987-20.928-18.681C269.236,663.5,269.245,648.966,275.757,639.67Z" transform="translate(-226.95 -452.833)"/><path class="e" d="M318.807,647.87a14.7,14.7,0,0,1-1.309,5.989.189.189,0,0,1-.03.122c-3.185,9.541-4.414,7.18-5.575,16.222-2.766,21.506,8.57,18.335,9.87,28.682a98.416,98.416,0,0,0-9.562-5.622l-.038-.021c-4.414-2.188-6.078.325-14.66-1.647s-14.6-3.987-20.928-18.681c-.135-.3-.249-.638-.376-.963,6.813,11.534,24.074,15.69,22.782,4.646-2.31-19.813,5.976-26.494,8.16-34.789,1.955-7.463-10.724-9.739-17.536-10.027a24.709,24.709,0,0,1,8.088-1.343C309.351,630.44,318.807,638.237,318.807,647.87Z" transform="translate(-230.24 -452.852)"/><path class="j" d="M550.086,749.352c5.068-4.059,8.113-5.144,8.76-9.135s.524-2.158,1.36-4.084a16.078,16.078,0,0,1,3.881-5.638c2.031-1.956,3.125-4.764,4.49-4.3s.845,2.112.71,2.88-2.678,4.477-2.5,4.713,2.065-.312,3.569-.739a16.466,16.466,0,0,0,4.523-2.15c1.381-.933,6.7-4.282,7.717-3.649s-.034,2.2-.034,2.2,1.918.241.587,2.534a37.327,37.327,0,0,1-2.534,3.915s.482,1-.612,2.572-1.394,1.546-1.394,1.546.574,1.06-2.471,4.071-11.4,4.549-13.773,7.239a40.035,40.035,0,0,1-6.547,6.572C554.065,759.426,546.323,752.36,550.086,749.352Z" transform="translate(-387.86 -508.137)"/><path class="j" d="M495.752,793a5.046,5.046,0,0,0-1.922-.676,5.493,5.493,0,0,0,1.867-.845l26.748-17.992,1.757,11.5L505.086,802a18.124,18.124,0,0,1-4.612,2.9,4.569,4.569,0,0,0,.68-2.534A11.917,11.917,0,0,0,495.752,793Z" transform="translate(-355.953 -535.485)"/><path class="n" d="M379.136,808.827a8.447,8.447,0,0,1,9.934-6.715l36.082,6.72a5.449,5.449,0,0,0,2.336-.059,5.045,5.045,0,0,1,1.922.676,11.928,11.928,0,0,1,5.406,9.372,4.57,4.57,0,0,1-.68,2.534,18.228,18.228,0,0,1-8.933,1.432l-38.054-3.332a9,9,0,0,1-8.012-10.626Z" transform="translate(-289.61 -551.926)"/><path class="c" d="M504.47,772.471a30.568,30.568,0,0,0,9.887-5.74h0c3.611-2.72,5.4-4.114,9.993-7.852l-.055-.072,1.571-1.161c4.929-4.152,7.6-5.719,8.227-6.4,2.112-2.281,3.607-6.694,7.383-8.447a145.371,145.371,0,0,0,15.353-8.777h0l.072.021h.042c.444.131,1.457.646.389,2.5a37.406,37.406,0,0,1-2.534,3.915s.481,1-.612,2.572-1.343,1.537-1.343,1.537.575,1.06-2.471,4.072-11.4,4.549-13.773,7.239a40.673,40.673,0,0,1-6.255,6.335h0L511.232,779.2a18.125,18.125,0,0,1-4.612,2.9,4.57,4.57,0,0,0,.68-2.534A11.825,11.825,0,0,0,504.47,772.471Z" transform="translate(-362.099 -512.685)"/><path class="e" d="M388.02,802.056c4.3,3.379,38.46,11.5,43.95,9.714a11.806,11.806,0,0,1,2.834,7.1,4.57,4.57,0,0,1-.68,2.534,18.228,18.228,0,0,1-8.933,1.432l-38.054-3.332a9,9,0,0,1-8.025-10.605A8.4,8.4,0,0,1,388.02,802.056Z" transform="translate(-289.599 -551.971)"/><path class="b" d="M174.784,727.81a5.068,5.068,0,0,1,2.141-4.046,1.709,1.709,0,0,1,1.732-.275h0l45.158,26.068h0a1.8,1.8,0,0,0-1.66.325,5.069,5.069,0,0,0-2.141,4.05l15.2,105.352a2.729,2.729,0,0,0,.241,1.056.457.457,0,0,1,.055.08l13.938,27.989a1.689,1.689,0,0,0,.781.76h0v.038l-67.817-39.152.021-.038a1.732,1.732,0,0,1-.815-.777l-13.938-27.994c-.025-.03-.034-.059-.055-.084a2.673,2.673,0,0,1-.249-1.052Z" transform="translate(-167.38 -506.526)"/><path class="b" d="M294.146,785.585c1.267-.845,2.348-.372,2.462,1.009l16.641,103.755L326.764,915.4l48.761-28.809c2.226-1.267,4.021-.173,4,2.416a8.921,8.921,0,0,1-4.046,6.935.115.115,0,0,0-.042.021l-50.9,28.72c-1.33.747-2.534.536-3.087-.553l-13.938-27.99a.459.459,0,0,0-.055-.08,2.728,2.728,0,0,1-.241-1.056L292,789.635A5.068,5.068,0,0,1,294.146,785.585Z" transform="translate(-239.366 -542.228)"/><path class="c" d="M294.146,785.585c1.267-.845,2.348-.372,2.462,1.009l16.641,103.755L326.764,915.4l48.761-28.809c2.226-1.267,4.021-.173,4,2.416a8.921,8.921,0,0,1-4.046,6.935.115.115,0,0,0-.042.021l-50.9,28.72c-1.33.747-2.534.536-3.087-.553l-13.938-27.99a.459.459,0,0,0-.055-.08,2.728,2.728,0,0,1-.241-1.056L292,789.635A5.068,5.068,0,0,1,294.146,785.585Z" transform="translate(-239.366 -542.228)"/><path class="g" d="M191.719,723.5h0l45.162,26.063h0a1.8,1.8,0,0,0-1.66.325L190,723.768A1.684,1.684,0,0,1,191.719,723.5Z" transform="translate(-180.446 -506.53)"/><path class="g" d="M235.218,991.6a2.728,2.728,0,0,0,.241,1.056.457.457,0,0,1,.055.08l13.938,27.989a1.689,1.689,0,0,0,.781.76h0v.038l-67.817-39.152.021-.038a1.732,1.732,0,0,1-.815-.777l-13.938-27.994c-.025-.03-.034-.059-.055-.084a2.673,2.673,0,0,1-.249-1.052Z" transform="translate(-167.38 -638.849)"/><path class="q" d="M465.012,467.88c1.584,0-.642,12.337-2.8,12.641S461.6,467.833,465.012,467.88Z" transform="translate(-337.111 -358.95)"/><path class="c" d="M465.012,467.88c1.584,0-.642,12.337-2.8,12.641S461.6,467.833,465.012,467.88Z" transform="translate(-337.111 -358.95)"/><path class="j" d="M440.151,461.507c3.932,0,10.136,1.428,12.046,0,3.206-2.4,1.719-1.368,3.548-2.386a15.932,15.932,0,0,1,6.466-2.069c2.775-.3,5.33-1.841,6.124-.651s-.629,2.179-1.191,2.69-4.815,1.892-4.823,2.184,1.808,1.005,3.252,1.584a16.167,16.167,0,0,0,4.849,1.056c1.643.106,7.852.693,8.265,1.812s-1.356,1.689-1.356,1.689,1.356,1.343-1.094,2.365a36.147,36.147,0,0,1-4.35,1.542s-.215,1.073-2.036,1.651-2.006.363-2.006.363-.182,1.178-4.405,1.689-11.547-2.488-15.023-1.808a28.448,28.448,0,0,1-8.337.68C437.916,473.671,435.382,461.5,440.151,461.507Z" transform="translate(-323.378 -352.062)"/><path class="c" d="M439.836,489.307a29.348,29.348,0,0,0,8.337-.68c3.476-.684,10.8,2.331,15.027,1.8s4.405-1.689,4.405-1.689.182.215,2-.363,2.036-1.651,2.036-1.651a36.128,36.128,0,0,0,4.367-1.533c2.45-1.014,1.1-2.365,1.1-2.365a3.562,3.562,0,0,0,.342-.148c-4.2,1.427-10.259,1.837-12.734,2.771-3.552,1.339-10-1-15.885-1.368-3.032-.194-6.88-.325-11.826-.625C437.3,486.194,438.7,489.193,439.836,489.307Z" transform="translate(-323.131 -367.499)"/><path class="k" d="M341.351,418.693a20.168,20.168,0,0,1,3.117-10.031l-45.23-1.381a3.484,3.484,0,0,1-2.7-1.525l-24.446-35.583a10.981,10.981,0,0,0-14.681-3.273,9.938,9.938,0,0,0-2.956,14.428l28.323,39.148a17.092,17.092,0,0,0,16.391,6.8l42.5-5.959a10.564,10.564,0,0,1-.313-2.623Z" transform="translate(-216.566 -299.732)"/><path class="e" d="M257.408,366.939a9.938,9.938,0,0,0-2.956,14.428l28.323,39.148a17.092,17.092,0,0,0,16.391,6.8l42.5-5.959a10.562,10.562,0,0,1-.313-2.61,17.343,17.343,0,0,1,1.073-5.651l-44.951,1.867c-3.522-.186-4.882-1.267-7.45-4.967l-24.137-35.14h0c-2.957-4.4-2.91-6.969-1.115-9.266A10.9,10.9,0,0,0,257.408,366.939Z" transform="translate(-216.566 -299.772)"/><path class="a" d="M1135.567,1086.449c8.211-10.947,25.012-14.782,20.906-22.385-2.813-7.425-21.117-15.048-36.449-17.211-15.86-2.192-21.963,8.832-35.951,7.1-17.1-2.111-29.742,11.881-37.721,18.668-17.84,13.515,13.131,35.148,30.773,29.248C1096.241,1095.471,1121.333,1105.324,1135.567,1086.449Z" transform="translate(-672.021 -693.225)"/><path class="h" d="M1235.759,1079.28h0a7.108,7.108,0,0,1-7.683-6.433l-2.036-22.807a7.086,7.086,0,1,1,14.116-1.267l2.034,22.807A7.108,7.108,0,0,1,1235.759,1079.28Z" transform="translate(-778.895 -690.773)"/><path class="c" d="M1226.38,1064l1.909,21.375a7.1,7.1,0,0,0,6.171,6.39l-1.9-21.38A7.109,7.109,0,0,0,1226.38,1064Z" transform="translate(-779.108 -703.297)"/><path class="c" d="M1238.562,1118.023a8,8,0,0,1-7.362-3.585,7.045,7.045,0,0,0,13.976-1.267A8.025,8.025,0,0,1,1238.562,1118.023Z" transform="translate(-781.892 -731.7)"/><path class="c" d="M1232.473,1042.373a7.108,7.108,0,0,0-6.428,7.683l1.339,15a8.362,8.362,0,0,0,6.8,2.707,9.491,9.491,0,0,0,7.277-4.371l-1.305-14.6A7.1,7.1,0,0,0,1232.473,1042.373Z" transform="translate(-778.899 -690.789)"/><path class="h" d="M1103.562,1105.761s7.256,14.36,2.133,17.739-10.158.672-16.379-1.208-16.379-5.617-18.33-6.31-6.614-2.673-6.433-7.759,8.025-5.984,18.634-4.413S1103.562,1105.761,1103.562,1105.761Z" transform="translate(-685.626 -725.888)"/><path class="c" d="M1121.41,1106.43l.19,3.4a8.35,8.35,0,0,0,7.6,8.05,9.52,9.52,0,0,0,9.346-5.165,51.823,51.823,0,0,0-2.137-5.039S1129.718,1107.414,1121.41,1106.43Z" transform="translate(-718.472 -727.806)"/><path class="c" d="M1094.363,1107.844s-1.174-1.267-3.1-3.036c-2.534-.266-5.267-.6-8.079-1.01-10.6-1.571-18.457-.638-18.634,4.413s4.481,7.066,6.432,7.759,12.109,4.426,18.33,6.31c2.9.874,5.537,1.922,8.05,2.454C1100.639,1120.308,1094.363,1107.844,1094.363,1107.844Z" transform="translate(-685.627 -725.884)"/><path class="c" d="M1105.605,1129.413c-5.123,3.379-10.162.667-16.379-1.212s-16.388-5.613-18.33-6.31c-1.689-.6-5.457-2.187-6.276-5.951.03,4.84,4.5,6.758,6.407,7.442s12.109,4.426,18.33,6.31,11.256,4.574,16.379,1.208c1.774-1.161,2.049-3.653,1.668-6.4C1107.489,1126.63,1107.049,1128.463,1105.605,1129.413Z" transform="translate(-685.668 -733.3)"/><path class="h" d="M1175.576,678.264c-10.707-12.248-30.629,7.151-22.959,20.214.275.473.574.963.879,1.457l-5.765,1.529,32.209,144.867a8.358,8.358,0,0,0,8.823,6.686,9.524,9.524,0,0,0,8.785-10.259l-9.871-126.93h0c-.051-.549-.1-1.178-.156-1.846C1186.857,705.844,1185.471,689.571,1175.576,678.264Z" transform="translate(-733.676 -478.228)"/><path class="e" d="M1147.578,765.5a26.681,26.681,0,0,0,1.085-10.327,25.845,25.845,0,0,0-5.19-13.553l-2.112-12.2-14.491,3.843.262,1.174c-9.63,1.542-16.447,12.016-15.374,24.024,1.111,12.447,10.268,21.8,20.455,20.9a15.369,15.369,0,0,0,4.646-1.2l22.241,99.971a8.358,8.358,0,0,0,8.823,6.686,1.385,1.385,0,0,0,.139-.025Z" transform="translate(-712.833 -510.028)"/><path class="h" d="M1142.937,743.074a26.272,26.272,0,0,0-3.9-11.7l.672-8.76-9.494.887a15.378,15.378,0,0,0-15.2,1.423l-14.491,1.373,8.814,159.383a8.358,8.358,0,0,0,7.6,8.054,9.529,9.529,0,0,0,10.36-8.667l9.385-122.786C1141.087,757.755,1143.613,750.723,1142.937,743.074Z" transform="translate(-706.405 -505.812)"/><path class="e" d="M1117.009,892.606l-1.96-159.616,24.015-1.2.65-8.506-39.194,3.683,8.814,159.384a8.359,8.359,0,0,0,7.6,8.054h.262A8.13,8.13,0,0,1,1117.009,892.606Z" transform="translate(-706.405 -506.481)"/><path class="c" d="M1131.94,709.749c-9.034-8.586-16.8,6.255-30.317,11.175a47,47,0,0,0-4.823,2.061l.638,2.331c3.041,4.705,9.076,6.661,15.428,5.82,11.889-1.571,37-14.711,40.651-27.875l-1.82-5.161Z" transform="translate(-704.256 -491.936)"/><path class="q" d="M1133.374,499.425c-1.639,7.678,4.224,16.083,8.287,28.64s9.127,23.888,13.042,27.5c8.025,7.374,12.147,3.48,13.423-4.756,2.386-15.344-6.1-52.144-24.256-56.338C1139.435,493.444,1135.33,494.771,1133.374,499.425Z" transform="translate(-725.22 -374.121)"/><path class="l" d="M1133.374,499.425c-1.639,7.678,4.224,16.083,8.287,28.64s9.127,23.888,13.042,27.5c8.025,7.374,12.147,3.48,13.423-4.756,2.386-15.344-6.1-52.144-24.256-56.338C1139.435,493.444,1135.33,494.771,1133.374,499.425Z" transform="translate(-725.22 -374.121)"/><path class="j" d="M1058.533,463.563c3,5.368,6.289,17.785,1.529,22.14s8.629,3.256,13.515,1.043,21.443-12.371,17.6-15.1-1.774-4.823-3.835-3.881-8.105-2.331-14.086-17.958S1055.293,457.768,1058.533,463.563Z" transform="translate(-681.836 -345.468)"/><path class="j" d="M1027.992,409.27c-5.913,2.15-6.542,1.482-8.118,7.6-.566,2.2-.372,7.252,1.221,9.389,3.176,4.262,1.157,7.982,3.015,12.248,2.576,5.888,9.811,20.4,25.16,1.955,7.572-9.093-7.37-6.935-13.71-12.789C1029.454,422.008,1031.8,407.885,1027.992,409.27Z" transform="translate(-659.654 -325.039)"/><path class="h" d="M1036.775,459.907c.422,3.007.553,12.953-3.573,7.509s-4.093-3.125-3.353-1.5.481.245,1.575,2.069.874,2,1.786,3.315-.346,8.523,2.918,8.4,9.026-1.8,7.818-5.664-4.811-9.613-5.225-13.836-1.005-5.972-1.858-5.664S1036.581,458.517,1036.775,459.907Z" transform="translate(-665.362 -351.226)"/><path class="e" d="M1053.085,465.507l.135-.068.781-.422c.084-.046.173-.093.258-.144q.482-.262.988-.558a.758.758,0,0,0,.084-.046c.329-.19.676-.389,1.018-.6l.2-.118c.384-.228.777-.46,1.166-.705h.025c.422-.253.815-.511,1.233-.777.021,0,.042-.025.063-.038.422-.275.845-.545,1.267-.845-10.014-5.275-12.928-16.843-15.707-25.341-.866-2.665-1.749-5.913-2.686-9.575a15.371,15.371,0,0,0-1.44,1.689h0a20.743,20.743,0,0,0-1.267,1.947l-.03.047h0a16.241,16.241,0,0,1-1.525-.807,11.811,11.811,0,0,1-2.057-1.47c-6.107-5.643-3.759-19.766-7.569-18.381-5.913,2.15-6.542,1.482-8.118,7.6-.566,2.2-.372,7.252,1.221,9.389,3.024,4.059,1.373,7.632,2.813,11.632-.3.228-.11,1.107.232,1.846.735,1.622.486.253,1.567,2.061.144.253.283.507.422.769a17.057,17.057,0,0,0,1.356,2.534c.921,1.313-.346,8.523,2.919,8.4,2.9-.106,7.779-1.457,7.961-4.481a3.357,3.357,0,0,0,.342-.131h0c1.267,4.008,2,8.7,1.267,12.278a.261.261,0,0,1,0,.063c-.029.152-.076.3-.118.443a7.1,7.1,0,0,1-1.968,3.565c-4.752,4.35,8.629,3.256,13.515,1.043.207-.093.422-.2.68-.321l.2-.1Z" transform="translate(-659.671 -325.057)"/><path class="e" d="M1040.825,447.324c-1.567-5.039-6.09,2.306-11.648-3.653s-2.956-10.9-5.351-15.154-1.153-7.784-.359-12.987a11.83,11.83,0,0,1,1.267-3.379c-.359.135-.684.258-.984.38l-.042.021a7.634,7.634,0,0,0-.744.363l-.076.034a4.7,4.7,0,0,0-.633.448l-.047.042a3.608,3.608,0,0,0-.511.545l-.025.025a5,5,0,0,0-.452.714c0,.038-.034.072-.055.106a8.324,8.324,0,0,0-.4.912h0c-.122.338-.253.731-.389,1.157a2.347,2.347,0,0,1-.076.266c-.122.422-.249.9-.389,1.419-.566,2.2-.372,7.252,1.22,9.389a6.911,6.911,0,0,1,.591.959c2.141,3.666.9,6.99,2.221,10.673-.3.228-.11,1.107.233,1.846.735,1.622.486.253,1.567,2.061.144.253.283.507.422.769a17.079,17.079,0,0,0,1.356,2.534c.921,1.314-.346,8.523,2.918,8.4,2.9-.106,7.78-1.457,7.961-4.481a3.322,3.322,0,0,0,.342-.131h0c1.267,4.008,2,8.7,1.267,12.278a.25.25,0,0,1,0,.063c-.03.152-.076.3-.118.443a7.107,7.107,0,0,1-1.968,3.565,5.142,5.142,0,0,0-.626.68c-.042.063-.076.122-.114.182a1.81,1.81,0,0,0-.2.422c0,.055-.038.11-.042.156a.84.84,0,0,0,.034.422v.042a1,1,0,0,0,.321.372c.042.03.093.055.144.089a2.157,2.157,0,0,0,.422.2c.068.025.14.055.216.076a6.034,6.034,0,0,0,.591.148l.2.042a9,9,0,0,0,.9.1l.422.021h2.361l.494-.042c.422-.038.891-.08,1.348-.135l.422-.051c.266-.038.532-.072.8-.118l.4-.063c.274-.055.553-.1.845-.148C1045.319,460.548,1041.717,450.212,1040.825,447.324Z" transform="translate(-659.677 -326.758)"/><path class="h" d="M1029.013,392.656c10.981-3.987,21.907-3.7,27.221,10.905s-2.213,17.017-1.482,21.379c1.267,7.662-10.111,8.785-12.586,5.119s-4.4-9.744-7.6-10.056c-5.647-.557-1.267,4.507-3.358,4.984s-.6-5.068-4.067-6.6c-5.068-2.243-4.249-7.9-5.3-9.756a5.25,5.25,0,0,0-2.851-1.774C1015.135,405.63,1017.787,396.735,1029.013,392.656Z" transform="translate(-658.348 -314.232)"/><path class="e" d="M1018.95,407.636a5.267,5.267,0,0,1,2.851,1.774c1.056,1.854.224,7.509,5.3,9.756,3.472,1.533,1.968,7.083,4.067,6.6s-2.293-5.541,3.358-4.984c3.206.317,5.131,6.4,7.6,10.056s13.853,2.534,12.586-5.119c-.528-3.163,3.265-5.322,3.379-11.826-1.094,8.591-11.066,14.533-15.277,7.788-7.881-12.624-2.855-13.135-16.814-19.644-3.962-1.841,2.3-7.256,8.62-10.225a41.182,41.182,0,0,0-5.643,1.622C1017.776,397.512,1015.124,406.407,1018.95,407.636Z" transform="translate(-658.337 -315.009)"/><path class="q" d="M1098.141,508.848c-2.927-8.025-6.758-12.548-11.243-14.2-11.492-4.245-30.5,10.086-39.279,17.042-7.653,6.073-14.562,13.038-15.969,18.976l17.042,46.953,9.14,25.244c2.336,6.458,9.292,9.224,16.632,8.249,13.916-1.841,45.956-19.525,40.491-34.54-4.811-8.895-13.169-20.923-13.549-38.878C1101.144,524.665,1100.417,515.1,1098.141,508.848Z" transform="translate(-666.623 -373.965)"/><path class="q" d="M1074.051,508.848c-2.927-8.025-6.757-12.548-11.243-14.2-11.492-4.245-30.5,10.086-39.279,17.042a91.622,91.622,0,0,0-7.915,7,10.736,10.736,0,0,0-1.068.845c-4.414,4.034-9.123,9-15.627,12.738-16.151,9.228-7.277,28.826,1.588,24.34s15.255,4.025,19.694,13.482c3.134,6.665,6.234,13.389,8.527,19.682,1.973,5.419,3.915,12.565,6.107,15.319,3,4.84,9.11,6.855,15.551,6,13.917-1.841,45.956-19.525,40.491-34.54-4.811-8.895-13.169-20.923-13.549-38.878C1077.054,524.665,1076.328,515.1,1074.051,508.848Z" transform="translate(-642.533 -373.965)"/><path class="l" d="M1062.8,494.645c-11.492-4.245-30.5,10.086-39.279,17.042a91.639,91.639,0,0,0-7.915,7,10.734,10.734,0,0,0-1.068.845c-4.414,4.034-9.123,9-15.627,12.738-16.151,9.228-7.277,28.826,1.588,24.34s15.255,4.025,19.694,13.482c3.134,6.665,6.234,13.389,8.527,19.682,1.972,5.419,3.915,12.565,6.107,15.319,3,4.84,9.11,6.855,15.551,6,.845-.114,1.736-.283,2.69-.5h0c-4.874-8.768-12.5-20.5-12.865-37.644-.186-8.836-5.913-27.567-14.081-37.074h0a23.228,23.228,0,0,0-3.214-3.092c-3.712-3.67-6.758-7.362-3.7-10.352a88.452,88.452,0,0,1,8.962-8.063c8.633-6.855,27.2-20.83,38.743-17.181a13.169,13.169,0,0,0-4.11-2.543Z" transform="translate(-642.527 -373.965)"/><path class="d" d="M1084,489.41c1.913,1.749,4.942,4,7.07,4.042,2.323,7.383-15.441,17.443-27.212,17.473a18.431,18.431,0,0,0,1.482-10.559C1076.809,499.737,1084.547,491.674,1084,489.41Z" transform="translate(-685.229 -371.387)"/><path class="j" d="M867.577,564.6c-3.4-1.968-9.482-3.852-10.419-6.052-1.563-3.687-.79-2.048-1.858-3.848a16.051,16.051,0,0,0-4.54-5.03c-2.243-1.651-3.683-4.279-4.967-3.641s-.558,2.2-.329,2.927,3.218,4.059,3.079,4.308-2.07-.03-3.607-.262a16.3,16.3,0,0,1-4.726-1.521c-1.478-.735-7.138-3.349-8.058-2.589s.321,2.158.321,2.158-1.85.486-.241,2.593a36.863,36.863,0,0,0,3,3.518s-.346,1.035.938,2.446,1.546,1.322,1.546,1.322-.422,1.106,2.957,3.67,11.23,3.645,13.9,5.976a28.472,28.472,0,0,0,6.868,4.773C863.421,576.237,871.7,566.983,867.577,564.6Z" transform="translate(-551.049 -404.035)"/><path class="c" d="M861.409,581.861a28.669,28.669,0,0,1-6.872-4.781c-2.665-2.331-10.508-3.4-13.9-5.98s-2.956-3.674-2.956-3.674-.266.1-1.55-1.318-.937-2.446-.937-2.446a36.342,36.342,0,0,1-3-3.514c-1.609-2.112.241-2.6.241-2.6a3.762,3.762,0,0,1-.228-.3c2.919,3.341,7.949,6.758,9.613,8.793,2.407,2.956,9.157,4.16,14.428,6.791,2.72,1.356,6.111,3.172,10.559,5.4C865.155,580.454,862.473,582.338,861.409,581.861Z" transform="translate(-551.026 -410.574)"/><path class="q" d="M966.462,572.734h0a11.116,11.116,0,0,1-4.3,14.385l-28.72,16.337a17.211,17.211,0,0,1-18.617-.617l-22.279-14.854a9.351,9.351,0,0,1-2.2-13.27,5.263,5.263,0,0,1,6.817-1.461l20.894,11.522a3.7,3.7,0,0,0,3.666-.038l29.713-16.6a10.724,10.724,0,0,1,15.032,4.6Z" transform="translate(-583.932 -416.027)"/><path class="l" d="M964.393,574.929c-2.737-2.707-5.136-5.427-4.988-7.873-.283-.068-.583-.1-.874-.148l.025-.025a3.759,3.759,0,0,1-.376-.034c-.308-.038-.608-.059-.917-.068a7.062,7.062,0,0,0-.845,0c-.287.025-.553.038-.845.072s-.625.076-.933.14c-.228.046-.46.118-.688.182a10.728,10.728,0,0,0-1.048.329l-.089.025-.034.03a9.706,9.706,0,0,0-1.369.646l-28.3,15.8c-3.8,2.141-10.749,7.269-18.453,2.534-7.028-4.308-9.423-6.365-15.821-8.548a9.334,9.334,0,0,0,3.729,10.031l22.279,14.854a17.211,17.211,0,0,0,18.617.617l28.72-16.337a11.091,11.091,0,0,0,5.368-9.169A23.22,23.22,0,0,0,964.393,574.929Z" transform="translate(-583.954 -416.073)"/><path class="a" d="M710.247,1157.711c-2.057-1.187-2.057-3.113,0-4.307l17.963-10.365a8.231,8.231,0,0,1,7.459,0l46.552,26.874c2.057,1.187,2.053,3.117,0,4.308l-17.963,10.373a8.208,8.208,0,0,1-7.459,0Zm14.9,45.15a8.223,8.223,0,0,0,7.455,0l17.963-10.373c2.061-1.187,2.065-3.117,0-4.308l-55.261-31.909a8.259,8.259,0,0,0-7.459,0l-17.963,10.373c-2.061,1.191-2.065,3.117,0,4.308Zm-31.647,18.271a8.231,8.231,0,0,0,7.459,0l17.963-10.373c2.061-1.187,2.065-3.117,0-4.3l-34.114-19.7a8.256,8.256,0,0,0-7.459,0l-17.963,10.373c-2.065,1.187-2.065,3.117,0,4.3Z" transform="translate(-450.694 -748.437)"/><path class="d" d="M846,1126.653h0a2.621,2.621,0,0,1,1.55-2.15l17.963-10.373a8.245,8.245,0,0,1,7.459,0l17.942,10.36a2.6,2.6,0,0,1,1.537,2.171h0v28.72h0a2.618,2.618,0,0,1-1.546,2.145L872.942,1167.9a8.207,8.207,0,0,1-7.459,0l-17.942-10.361a2.611,2.611,0,0,1-1.542-2.162h0Z" transform="translate(-559.382 -731.74)"/><path d="M845.977,1144.75a2.511,2.511,0,0,0,1.525,2.277l17.942,10.36a7.6,7.6,0,0,0,3.742.887v28.72a7.65,7.65,0,0,1-3.742-.891l-17.942-10.36a2.612,2.612,0,0,1-1.542-2.163h0v-28.72A.241.241,0,0,0,845.977,1144.75Z" transform="translate(-559.359 -749.942)"/><path class="r" d="M904.711,1157.54l17.963-10.373a2.641,2.641,0,0,0,1.546-2.137h0v28.72h0a2.617,2.617,0,0,1-1.546,2.145l-17.963,10.373a7.631,7.631,0,0,1-3.721.9v-28.72A7.606,7.606,0,0,0,904.711,1157.54Z" transform="translate(-591.147 -750.104)"/><path class="s" d="M771.064,1122.31h0a2.627,2.627,0,0,1,1.55-2.154l17.958-10.381a8.205,8.205,0,0,1,7.459,0l17.946,10.36a2.606,2.606,0,0,1,1.537,2.167h0v48.824h0a2.613,2.613,0,0,1-1.546,2.146l-17.963,10.373a8.205,8.205,0,0,1-7.459,0l-17.946-10.36a2.623,2.623,0,0,1-1.542-2.163h0Z" transform="translate(-516.094 -729.22)"/><path class="e" d="M771.091,1140.39a2.5,2.5,0,0,0,1.521,2.277l17.946,10.36a7.549,7.549,0,0,0,3.738.891v48.816a7.6,7.6,0,0,1-3.738-.891l-17.946-10.361a2.623,2.623,0,0,1-1.542-2.162h0V1140.5C771.07,1140.47,771.087,1140.432,771.091,1140.39Z" transform="translate(-516.099 -747.423)"/><path class="l" d="M829.781,1153.19l17.963-10.369a2.636,2.636,0,0,0,1.546-2.141h0V1189.5h0a2.612,2.612,0,0,1-1.546,2.146l-17.963,10.373a7.6,7.6,0,0,1-3.721.9v-48.841A7.628,7.628,0,0,0,829.781,1153.19Z" transform="translate(-547.864 -747.591)"/><path class="t" d="M696.14,1226.8h0a2.626,2.626,0,0,1,1.55-2.154l17.963-10.373a8.258,8.258,0,0,1,7.459,0l17.942,10.352a2.606,2.606,0,0,1,1.542,2.171h0v22.972h0a2.618,2.618,0,0,1-1.546,2.146l-17.963,10.373a8.207,8.207,0,0,1-7.459,0l-17.942-10.361a2.617,2.617,0,0,1-1.546-2.158h0Z" transform="translate(-472.817 -789.587)"/><path class="e" d="M696.165,1244.86a2.5,2.5,0,0,0,1.52,2.276l17.946,10.36a7.6,7.6,0,0,0,3.738.9v22.98a7.664,7.664,0,0,1-3.742-.891l-17.942-10.36a2.617,2.617,0,0,1-1.546-2.158h0v-22.972C696.14,1244.919,696.161,1244.919,696.165,1244.86Z" transform="translate(-472.817 -807.77)"/><path class="l" d="M754.857,1257.66l17.963-10.373a2.621,2.621,0,0,0,1.546-2.137h0v22.972h0a2.618,2.618,0,0,1-1.546,2.146l-17.963,10.373a7.6,7.6,0,0,1-3.717.9v-22.98A7.665,7.665,0,0,0,754.857,1257.66Z" transform="translate(-504.587 -807.938)"/><path class="c" d="M764.316,745.5c-16.776-9.68-44.005-9.68-60.819.042s-16.818,25.417-.021,35.1,44.005,9.714,60.819-.021S781.1,755.2,764.316,745.5Z" transform="translate(-469.78 -515.124)"/><path class="t" d="M803.171,651.51,792.76,679.031V685.6l47.671-6.006V673.02C836.364,662.276,821.75,653.854,803.171,651.51Z" transform="translate(-528.629 -465.023)"/><path class="e" d="M792.76,708.45v6.568l47.671-6.006V702.44Z" transform="translate(-528.629 -494.443)"/><path class="d" d="M776.943,682.725h0a15.041,15.041,0,0,0-.975-5.292l-37.644,4.743,4.819-12.747V658.482c-13.832-1.744-28.859.469-39.6,6.673-8.4,4.849-12.595,11.209-12.578,17.57h0v10.956h0c0,6.335,4.224,12.7,12.616,17.544,16.81,9.714,44.047,9.714,60.819.021,8.4-4.853,12.548-11.205,12.527-17.566h0Z" transform="translate(-469.824 -468.718)"/><path class="u" d="M751.23,682.686l8.16-10.656.98-2.6V658.481c-13.811-1.744-28.809.465-39.549,6.644Z" transform="translate(-487.073 -468.717)"/><path d="M776.922,716.67c.025,6.361-4.126,12.721-12.527,17.574-16.793,9.714-44.03,9.68-60.819,0-8.4-4.853-12.6-11.2-12.616-17.553h0v10.956c0,6.335,4.224,12.7,12.616,17.544,16.81,9.714,44.047,9.714,60.819.021,8.4-4.853,12.548-11.205,12.527-17.566h0Z" transform="translate(-469.824 -502.663)"/><path class="t" d="M803.171,636,792.76,663.521v6.572l47.671-6.01v-6.589C836.364,646.766,821.75,638.323,803.171,636Z" transform="translate(-528.629 -456.064)"/><path class="e" d="M792.76,692.9v6.572l47.671-6.01V686.89Z" transform="translate(-528.629 -485.461)"/><path class="q" d="M562.745,539.82c.49,1.461-.245,3.037-2.209,4.173l-65.114,37.589a12.51,12.51,0,0,1-11.366,0l-35.448-20.463a4.008,4.008,0,0,1-2.348-3.282h0v2.053h.025c-.068,1.233.7,2.471,2.331,3.417l35.448,20.463a12.575,12.575,0,0,0,11.365,0l65.114-37.589a4.034,4.034,0,0,0,2.357-3.29h0v-2.179A2.8,2.8,0,0,0,562.745,539.82Z" transform="translate(-328.474 -400.506)"/><path class="f" d="M562.745,539.82c.49,1.461-.245,3.037-2.209,4.173l-65.114,37.589a12.51,12.51,0,0,1-11.366,0l-35.448-20.463a4.008,4.008,0,0,1-2.348-3.282h0v2.053h.025c-.068,1.233.7,2.471,2.331,3.417l35.448,20.463a12.575,12.575,0,0,0,11.365,0l65.114-37.589a4.034,4.034,0,0,0,2.357-3.29h0v-2.179A2.8,2.8,0,0,0,562.745,539.82Z" transform="translate(-328.474 -400.506)"/><path class="q" d="M448.593,528.013c-3.138-1.812-3.134-4.756,0-6.568l65.11-37.589a12.605,12.605,0,0,1,11.374,0l35.448,20.463c3.134,1.816,3.13,4.752,0,6.563l-65.114,37.589a12.509,12.509,0,0,1-11.366,0Z" transform="translate(-328.463 -367.395)"/><path class="q" d="M506.2,565.846a.628.628,0,0,1,0-.275.6.6,0,0,1,0-.274.613.613,0,0,1,0-.27.593.593,0,0,1,0-.279.6.6,0,0,1,0-.275.587.587,0,0,1,0-.27.577.577,0,0,1,0-.275.984.984,0,0,0,.519.646,3,3,0,0,0,2.728,0l8.3-4.785a.993.993,0,0,0,.524-.65.62.62,0,0,1,0,.27.589.589,0,0,1,0,.274.548.548,0,0,1,0,.275.579.579,0,0,1,0,.274q.009.273,0,.545a.61.61,0,0,1,0,.275.845.845,0,0,1-.524.925l-8.3,4.794a3.02,3.02,0,0,1-2.728,0A.845.845,0,0,1,506.2,565.846Zm22.976,1.5a.667.667,0,0,0,0-.275.624.624,0,0,0,0-.275.623.623,0,0,0,0-.274.667.667,0,0,0,0-.275.6.6,0,0,0,0-.266.652.652,0,0,0,0-.279.619.619,0,0,0,0-.27h0a.993.993,0,0,1-.52.655l-15.94,9.2a3.007,3.007,0,0,1-2.728,0,1,1,0,0,1-.52-.65.621.621,0,0,0,0,.27.588.588,0,0,0,0,.275.644.644,0,0,0,0,.27.751.751,0,0,0,0,.279.645.645,0,0,0,0,.27.679.679,0,0,0,0,.279.631.631,0,0,0,0,.274.845.845,0,0,0,.52.925,3.034,3.034,0,0,0,2.728,0l15.94-9.2A.845.845,0,0,0,529.172,567.346ZM512.814,557.9a.628.628,0,0,0,0-.275.658.658,0,0,0,0-.274.683.683,0,0,0,0-.274.705.705,0,0,0,0-.279.646.646,0,0,0,0-.27.628.628,0,0,0,0-.275.627.627,0,0,0,0-.274.989.989,0,0,1-.52.655l-15.944,9.2a3.008,3.008,0,0,1-2.728,0,1.018,1.018,0,0,1-.524-.655h0a.716.716,0,0,0,0,.27.853.853,0,0,0,0,.275.717.717,0,0,0,0,.27.738.738,0,0,0,0,.274.6.6,0,0,0,0,.274.63.63,0,0,0,0,.275.707.707,0,0,0,0,.279.845.845,0,0,0,.519.925,3.02,3.02,0,0,0,2.728,0l15.94-9.2A.845.845,0,0,0,512.814,557.9ZM534.1,569.229l-11.268,6.509a3.037,3.037,0,0,1-2.729,0,1.018,1.018,0,0,1-.519-.655h0a.639.639,0,0,0,0,.279.577.577,0,0,0,0,.275.668.668,0,0,0,0,.27.688.688,0,0,0,0,.274.712.712,0,0,0,0,.279.525.525,0,0,0,0,.27.568.568,0,0,0,0,.27.866.866,0,0,0,.519.929,3.038,3.038,0,0,0,2.729,0l11.268-6.513a.845.845,0,0,0,.52-.921.6.6,0,0,0,0-.274.6.6,0,0,0,0-.275.624.624,0,0,0,0-.279.592.592,0,0,0,0-.27.585.585,0,0,0,0-.27.617.617,0,0,0,0-.279.585.585,0,0,0,0-.27,1.01,1.01,0,0,1-.519.651Zm-10.385-5.03a.592.592,0,0,0,0-.27.65.65,0,0,0,0-.279.671.671,0,0,0,0-.275.693.693,0,0,0,0-.274.631.631,0,0,0,0-.266.65.65,0,0,0,0-.279.651.651,0,0,0,0-.27,1.006,1.006,0,0,1-.524.651l-15.94,9.207a3.016,3.016,0,0,1-2.728,0,.979.979,0,0,1-.519-.646h0a.609.609,0,0,0,0,.271.658.658,0,0,0,0,.274.692.692,0,0,0,0,.275.627.627,0,0,0,0,.274.532.532,0,0,0,0,.275.531.531,0,0,0,0,.274.641.641,0,0,0,0,.275.874.874,0,0,0,.524.934,3.028,3.028,0,0,0,2.724,0l15.94-9.2A.845.845,0,0,0,523.719,564.2Z" transform="translate(-355.521 -409.841)"/><path class="f" d="M506.2,565.846a.628.628,0,0,1,0-.275.6.6,0,0,1,0-.274.613.613,0,0,1,0-.27.593.593,0,0,1,0-.279.6.6,0,0,1,0-.275.587.587,0,0,1,0-.27.577.577,0,0,1,0-.275.984.984,0,0,0,.519.646,3,3,0,0,0,2.728,0l8.3-4.785a.993.993,0,0,0,.524-.65.62.62,0,0,1,0,.27.589.589,0,0,1,0,.274.548.548,0,0,1,0,.275.579.579,0,0,1,0,.274q.009.273,0,.545a.61.61,0,0,1,0,.275.845.845,0,0,1-.524.925l-8.3,4.794a3.02,3.02,0,0,1-2.728,0A.845.845,0,0,1,506.2,565.846Zm22.976,1.5a.667.667,0,0,0,0-.275.624.624,0,0,0,0-.275.623.623,0,0,0,0-.274.667.667,0,0,0,0-.275.6.6,0,0,0,0-.266.652.652,0,0,0,0-.279.619.619,0,0,0,0-.27h0a.993.993,0,0,1-.52.655l-15.94,9.2a3.007,3.007,0,0,1-2.728,0,1,1,0,0,1-.52-.65.621.621,0,0,0,0,.27.588.588,0,0,0,0,.275.644.644,0,0,0,0,.27.751.751,0,0,0,0,.279.645.645,0,0,0,0,.27.679.679,0,0,0,0,.279.631.631,0,0,0,0,.274.845.845,0,0,0,.52.925,3.034,3.034,0,0,0,2.728,0l15.94-9.2A.845.845,0,0,0,529.172,567.346ZM512.814,557.9a.628.628,0,0,0,0-.275.658.658,0,0,0,0-.274.683.683,0,0,0,0-.274.705.705,0,0,0,0-.279.646.646,0,0,0,0-.27.628.628,0,0,0,0-.275.627.627,0,0,0,0-.274.989.989,0,0,1-.52.655l-15.944,9.2a3.008,3.008,0,0,1-2.728,0,1.018,1.018,0,0,1-.524-.655h0a.716.716,0,0,0,0,.27.853.853,0,0,0,0,.275.717.717,0,0,0,0,.27.738.738,0,0,0,0,.274.6.6,0,0,0,0,.274.63.63,0,0,0,0,.275.707.707,0,0,0,0,.279.845.845,0,0,0,.519.925,3.02,3.02,0,0,0,2.728,0l15.94-9.2A.845.845,0,0,0,512.814,557.9ZM534.1,569.229l-11.268,6.509a3.037,3.037,0,0,1-2.729,0,1.018,1.018,0,0,1-.519-.655h0a.639.639,0,0,0,0,.279.577.577,0,0,0,0,.275.668.668,0,0,0,0,.27.688.688,0,0,0,0,.274.712.712,0,0,0,0,.279.525.525,0,0,0,0,.27.568.568,0,0,0,0,.27.866.866,0,0,0,.519.929,3.038,3.038,0,0,0,2.729,0l11.268-6.513a.845.845,0,0,0,.52-.921.6.6,0,0,0,0-.274.6.6,0,0,0,0-.275.624.624,0,0,0,0-.279.592.592,0,0,0,0-.27.585.585,0,0,0,0-.27.617.617,0,0,0,0-.279.585.585,0,0,0,0-.27,1.01,1.01,0,0,1-.519.651Zm-10.385-5.03a.592.592,0,0,0,0-.27.65.65,0,0,0,0-.279.671.671,0,0,0,0-.275.693.693,0,0,0,0-.274.631.631,0,0,0,0-.266.65.65,0,0,0,0-.279.651.651,0,0,0,0-.27,1.006,1.006,0,0,1-.524.651l-15.94,9.207a3.016,3.016,0,0,1-2.728,0,.979.979,0,0,1-.519-.646h0a.609.609,0,0,0,0,.271.658.658,0,0,0,0,.274.692.692,0,0,0,0,.275.627.627,0,0,0,0,.274.532.532,0,0,0,0,.275.531.531,0,0,0,0,.274.641.641,0,0,0,0,.275.874.874,0,0,0,.524.934,3.028,3.028,0,0,0,2.724,0l15.94-9.2A.845.845,0,0,0,523.719,564.2Z" transform="translate(-355.521 -409.841)"/><path class="o" d="M509.964,573.6c-.756-.422-.752-1.136,0-1.575l15.94-9.2a3.011,3.011,0,0,1,2.732,0h0a.833.833,0,0,1,0,1.575L512.7,573.6a3.008,3.008,0,0,1-2.728,0Zm10.136.452a3.037,3.037,0,0,0,2.728,0L534.1,567.54a.831.831,0,0,0,0-1.575h0a2.994,2.994,0,0,0-2.733,0l-11.277,6.492a.833.833,0,0,0,0,1.579Zm-15.581-3.6a.834.834,0,0,1,0-1.58l15.94-9.2a3,3,0,0,1,2.733,0h0a.831.831,0,0,1,0,1.575l-15.94,9.207a3.015,3.015,0,0,1-2.728,0Zm-10.905-6.293c-.756-.422-.756-1.136,0-1.584l15.94-9.195a2.994,2.994,0,0,1,2.733,0h0c.752.422.756,1.132,0,1.575l-15.944,9.2A3.008,3.008,0,0,1,493.614,564.157Zm13.093-1.267a3,3,0,0,0,2.728,0l8.286-4.794a.83.83,0,0,0,0-1.575h0a3.036,3.036,0,0,0-2.733,0l-8.308,4.794a.831.831,0,0,0,0,1.575Z" transform="translate(-355.501 -408.148)"/><path class="e" d="M609.058,521.281a24.038,24.038,0,0,0-10.137-2.851,6.109,6.109,0,0,1,1.178,2.437,5.4,5.4,0,0,0,.131-.735v1.09a1.4,1.4,0,0,1,0,.275,2.24,2.24,0,0,1,0,.275,2.172,2.172,0,0,1,0,.266,4.667,4.667,0,0,1-.1.9h0a5.5,5.5,0,0,1-.266.887h0a6.787,6.787,0,0,1-1.457,2.222,10.314,10.314,0,0,1,5.862,1.094,4.125,4.125,0,0,1,1.69,1.689,2.589,2.589,0,0,0,.279-.954,2.062,2.062,0,0,1,0,.279,1.528,1.528,0,0,1,0,.275v.275a1.9,1.9,0,0,1,0,.27,1.551,1.551,0,0,1,0,.279,1.691,1.691,0,0,1,0,.275,1.939,1.939,0,0,1,0,.27v2.484h-.055a3.357,3.357,0,0,1-1.926,2.614,10.625,10.625,0,0,1-9.621,0c-1.6-.925-2.209-2.192-1.884-3.379a24.394,24.394,0,0,1-12.113.5,8.7,8.7,0,0,1-.642-1.132,10.219,10.219,0,0,0,4.477,4.587c6.758,3.907,17.773,3.907,24.547,0S615.833,525.183,609.058,521.281Z" transform="translate(-405.729 -388.15)"/><path class="f" d="M634.936,523.464c2.9,1.689,4.553,3.8,4.963,5.989.553-2.914-1.1-5.947-4.963-8.172A24.037,24.037,0,0,0,624.8,518.43a6.144,6.144,0,0,1,1.153,2.327A23.3,23.3,0,0,1,634.936,523.464Z" transform="translate(-431.607 -388.15)"/><path class="o" d="M599.064,526.16a12.909,12.909,0,0,0-1.453.038,6.1,6.1,0,0,0,1.829-3.738v1.09a1.367,1.367,0,0,1,0,.275,2.239,2.239,0,0,1,0,.275,1.963,1.963,0,0,1,0,.275,5.068,5.068,0,0,1-.367,1.786Zm6.373,4.038a2.022,2.022,0,0,1,0,.279,1.507,1.507,0,0,1,0,.275v.275a1.884,1.884,0,0,1,0,.27,1.541,1.541,0,0,1,0,.279,1.732,1.732,0,0,1,0,.275,1.334,1.334,0,0,1,0,.27V534.6H605.4a3.357,3.357,0,0,1-1.926,2.615,10.625,10.625,0,0,1-9.621,0c-1.6-.925-2.209-2.192-1.884-3.379a24.4,24.4,0,0,1-12.113.5,7.1,7.1,0,0,1-1.1-2.395,6.139,6.139,0,0,1-.114-1.267v-1.917h0a5.691,5.691,0,0,0,.118,1.005,24.42,24.42,0,0,0,13.211-.3c-.325,1.2.291,2.467,1.888,3.379a10.629,10.629,0,0,0,9.617,0,3.445,3.445,0,0,0,1.977-2.652Z" transform="translate(-404.942 -390.478)"/><path d="M599.064,526.16a12.909,12.909,0,0,0-1.453.038,6.1,6.1,0,0,0,1.829-3.738v1.09a1.367,1.367,0,0,1,0,.275,2.239,2.239,0,0,1,0,.275,1.963,1.963,0,0,1,0,.275,5.068,5.068,0,0,1-.367,1.786Zm6.373,4.038a2.022,2.022,0,0,1,0,.279,1.507,1.507,0,0,1,0,.275v.275a1.884,1.884,0,0,1,0,.27,1.541,1.541,0,0,1,0,.279,1.732,1.732,0,0,1,0,.275,1.334,1.334,0,0,1,0,.27V534.6H605.4a3.357,3.357,0,0,1-1.926,2.615,10.625,10.625,0,0,1-9.621,0c-1.6-.925-2.209-2.192-1.884-3.379a24.4,24.4,0,0,1-12.113.5,7.1,7.1,0,0,1-1.1-2.395,6.139,6.139,0,0,1-.114-1.267v-1.917h0a5.691,5.691,0,0,0,.118,1.005,24.42,24.42,0,0,0,13.211-.3c-.325,1.2.291,2.467,1.888,3.379a10.629,10.629,0,0,0,9.617,0,3.445,3.445,0,0,0,1.977-2.652Z" transform="translate(-404.942 -390.478)"/><path class="o" d="M583.718,515.993c-3.94,2.277-5.571,5.368-4.946,8.329a24.422,24.422,0,0,0,13.211-.3c-.325,1.2.292,2.467,1.888,3.379a10.628,10.628,0,0,0,9.617,0c2.657-1.533,2.657-4.012,0-5.546a10.422,10.422,0,0,0-5.862-1.094c2.285-2.361,2.441-5.2.519-7.628C593.023,512.779,587.663,513.721,583.718,515.993Z" transform="translate(-404.945 -385.051)"/></g></g></g></svg>