<svg xmlns="http://www.w3.org/2000/svg" xmlns:xlink="http://www.w3.org/1999/xlink" width="22" height="22" viewBox="0 0 22 22"><defs><style>.a,.c{fill:#fff;}.a{stroke:#707070;}.b{clip-path:url(#a);}</style><clipPath id="a"><rect class="a" width="22" height="22" transform="translate(1789 54)"/></clipPath></defs><g class="b" transform="translate(-1789 -54)"><g transform="translate(1789 54)"><path class="c" d="M11,5.49A5.511,5.511,0,1,0,16.51,11,5.517,5.517,0,0,0,11,5.49Z"/><path class="c" d="M11,3.87A1.075,1.075,0,0,1,9.925,2.8V1.075a1.075,1.075,0,0,1,2.15,0V2.8A1.075,1.075,0,0,1,11,3.87Z"/><path class="c" d="M11,18.13A1.075,1.075,0,0,0,9.925,19.2v1.72a1.075,1.075,0,1,0,2.15,0V19.2A1.075,1.075,0,0,0,11,18.13Z"/><path class="c" d="M16.041,5.958a1.076,1.076,0,0,1,0-1.52l1.216-1.216a1.075,1.075,0,1,1,1.52,1.52L17.562,5.958A1.075,1.075,0,0,1,16.041,5.958Z"/><path class="c" d="M5.958,16.042a1.074,1.074,0,0,0-1.52,0L3.222,17.258a1.075,1.075,0,0,0,1.52,1.52l1.216-1.217A1.074,1.074,0,0,0,5.958,16.042Z"/><path class="c" d="M18.13,11A1.075,1.075,0,0,1,19.2,9.925h1.72a1.075,1.075,0,1,1,0,2.15H19.2A1.075,1.075,0,0,1,18.13,11Z"/><path class="c" d="M3.87,11A1.075,1.075,0,0,0,2.795,9.925H1.075a1.075,1.075,0,1,0,0,2.15H2.8A1.075,1.075,0,0,0,3.87,11Z"/><path class="c" d="M16.041,16.042a1.076,1.076,0,0,1,1.52,0l1.216,1.216a1.075,1.075,0,1,1-1.52,1.52l-1.216-1.216A1.074,1.074,0,0,1,16.041,16.042Z"/><path class="c" d="M5.958,5.958a1.075,1.075,0,0,0,0-1.52L4.742,3.222a1.075,1.075,0,0,0-1.52,1.52L4.438,5.958A1.074,1.074,0,0,0,5.958,5.958Z"/></g></g></svg>