<svg xmlns="http://www.w3.org/2000/svg" xmlns:xlink="http://www.w3.org/1999/xlink" width="105.196" height="91.355" viewBox="0 0 105.196 91.355"><defs><style>.a,.e,.g{fill:#7e75e4;}.a{opacity:0.04;}.b,.j,.k,.l,.m,.n,.o,.p{fill:none;}.b,.c{stroke:#e0deff;stroke-width:3px;}.c{fill:#f5f5f5;}.d{fill:#fff;}.e{stroke:#fff;stroke-miterlimit:10;stroke-width:2px;}.f{fill:#f0efff;}.h{fill:#444;stroke:#444;}.i{stroke:none;}.k{clip-path:url(#b);}.l{clip-path:url(#d);}.m{clip-path:url(#f);}.n{clip-path:url(#h);}.o{clip-path:url(#j);}.p{clip-path:url(#l);}</style><clipPath id="b"><use xlink:href="#a"/></clipPath><clipPath id="d"><use xlink:href="#c"/></clipPath><clipPath id="f"><use xlink:href="#e"/></clipPath><clipPath id="h"><use xlink:href="#g"/></clipPath><clipPath id="j"><use xlink:href="#i"/></clipPath><clipPath id="l"><use xlink:href="#k"/></clipPath></defs><g transform="translate(-1523 -1154.645)"><path class="a" d="M30.3,72.863q-1.053.08-2.127.081C12.615,72.943,0,60.078,0,44.208S12.615,15.473,28.177,15.473a27.849,27.849,0,0,1,20.53,9.053A28.366,28.366,0,0,1,76.584,0c15.562,0,28.177,12.865,28.177,28.735A28.662,28.662,0,0,1,84.029,56.457a29.433,29.433,0,0,1,.5,5.434c0,15.87-12.615,28.736-28.177,28.736A28.189,28.189,0,0,1,30.3,72.863Z" transform="translate(1523.364 1155.373)"/><g transform="translate(1523 1154.645)"><g class="b" transform="translate(8.382 9.476)"><circle class="i" cx="3.28" cy="3.28" r="3.28"/><circle class="j" cx="3.28" cy="3.28" r="1.78"/></g><g class="b" transform="translate(93.464 60.478)"><circle class="i" cx="4.009" cy="4.009" r="4.009"/><circle class="j" cx="4.009" cy="4.009" r="2.509"/></g><g class="b" transform="translate(83.438 0)"><circle class="i" cx="1.822" cy="1.822" r="1.822"/><circle class="j" cx="1.822" cy="1.822" r="0.322"/></g><g transform="translate(101.846 4.02) rotate(45)"><g class="c" transform="translate(2.551 0)"><rect id="a" class="i" width="2.187" height="7.289" rx="1.093"/><path class="k" d="M0,1.5h2.186695098876953M1.5,0v7.2889838218688965M2.186695098876953,5.7889838218688965h-2.186695098876953M0.6866950988769531,7.2889838218688965v-7.2889838218688965"/></g><g class="c" transform="translate(7.289 2.551) rotate(90)"><rect id="c" class="i" width="2.187" height="7.289" rx="1.093"/><path class="l" d="M0,1.5h2.186695098876953M1.5,0v7.2889838218688965M2.186695098876953,5.7889838218688965h-2.186695098876953M0.6866950988769531,7.2889838218688965v-7.2889838218688965"/></g></g><g transform="translate(8.747 54.277) rotate(90)"><g class="c" transform="translate(3.28)"><rect id="e" class="i" width="2.187" height="8.747" rx="1.093"/><path class="m" d="M0,1.5h2.186695098876953M1.5,0v8.746780395507812M2.186695098876953,7.2467803955078125h-2.186695098876953M0.6866950988769531,8.746780395507812v-8.746780395507812"/></g><g class="c" transform="translate(8.747 3.28) rotate(90)"><rect id="g" class="i" width="2.187" height="8.747" rx="1.093"/><path class="n" d="M0,1.5h2.186695098876953M1.5,0v8.746780395507812M2.186695098876953,7.2467803955078125h-2.186695098876953M0.6866950988769531,8.746780395507812v-8.746780395507812"/></g></g><g transform="translate(72.289 82.307) rotate(90)"><g class="b" transform="translate(3.28)"><rect id="i" class="i" width="2.187" height="8.747" rx="1.093"/><path class="o" d="M0,1.5h2.186695098876953M1.5,0v8.746780395507812M2.186695098876953,7.2467803955078125h-2.186695098876953M0.6866950988769531,8.746780395507812v-8.746780395507812"/></g><g class="b" transform="translate(8.747 3.28) rotate(90)"><rect id="k" class="i" width="2.187" height="8.747" rx="1.093"/><path class="p" d="M0,1.5h2.186695098876953M1.5,0v8.746780395507812M2.186695098876953,7.2467803955078125h-2.186695098876953M0.6866950988769531,8.746780395507812v-8.746780395507812"/></g></g></g><g transform="translate(1543.195 1151.071)"><path class="d" d="M62.591,22.788,50.652,34.727a1.571,1.571,0,0,0-.46,1.111V46.628h3.3V36.553L64.924,25.12a.471.471,0,0,0,0-.666l-1.665-1.665a.471.471,0,0,0-.666,0Z"/><path class="d" d="M2.589,22.788.924,24.453a.471.471,0,0,0,0,.666L12.357,36.552V46.626h3.3V35.837a1.571,1.571,0,0,0-.46-1.11L3.256,22.788a.471.471,0,0,0-.668,0Z"/><path class="e" d="M23.378,10.677v8.888A1.036,1.036,0,0,0,24.413,20.6h7.872a1.036,1.036,0,0,0,1.036-1.036V10.677h2.85A1.036,1.036,0,0,0,36.9,8.909l-7.82-7.82a1.036,1.036,0,0,0-1.465,0l-7.825,7.82a1.036,1.036,0,0,0,.732,1.768Z" transform="translate(4.577 9.119)"/><path class="d" d="M52.7,72.1H13.142a.785.785,0,0,1-.785-.785V39.26a.785.785,0,0,1,.785-.785H52.7a.785.785,0,0,1,.785.785V71.319A.785.785,0,0,1,52.7,72.1Z"/><path class="f" d="M37.556,49.311H28.287a.785.785,0,0,1-.785-.785V38.472H38.341V48.525A.785.785,0,0,1,37.556,49.311Z"/><path class="g" d="M32.923,49.311H28.29a.785.785,0,0,1-.785-.785V38.472h5.418Z"/><path class="h" d="M65.479,23.9l-1.665-1.665a1.257,1.257,0,0,0-1.777,0L50.1,34.172a2.341,2.341,0,0,0-.69,1.665v2.638a.785.785,0,0,0,.785.785h2.513V71.319H13.142V39.26H44.851a.785.785,0,1,0,0-1.571H16.441V35.837a2.341,2.341,0,0,0-.69-1.665L3.813,22.233a1.257,1.257,0,0,0-1.777,0L.371,23.9a1.257,1.257,0,0,0,0,1.777l11.2,11.2V71.319a1.571,1.571,0,0,0,1.571,1.571H52.7a1.571,1.571,0,0,0,1.571-1.571V36.879l11.2-11.2A1.257,1.257,0,0,0,65.479,23.9ZM1.7,24.787l1.222-1.224L14.639,35.283a.785.785,0,0,1,.229.555v1.852H13.141V36.553A.785.785,0,0,0,12.911,36ZM52.94,36a.785.785,0,0,0-.229.556v1.136H50.982V35.837a.785.785,0,0,1,.229-.554L62.924,23.564l1.221,1.221Z"/></g></g></svg>