<svg xmlns="http://www.w3.org/2000/svg" xmlns:xlink="http://www.w3.org/1999/xlink" width="105.196" height="95" viewBox="0 0 105.196 95"><defs><style>.a,.g{fill:#fff;}.a{stroke:#707070;}.b,.f{fill:#4dbbeb;}.b{opacity:0.08;}.c,.l,.m,.n,.o,.p,.q,.r{fill:none;}.c,.d{stroke:#cae8f5;stroke-width:3px;}.d{fill:#f5f5f5;}.e{clip-path:url(#a);}.h,.i,.j{fill:#444;}.h,.i{stroke:#fff;}.i{stroke-width:1.14px;}.k{stroke:none;}.m{clip-path:url(#c);}.n{clip-path:url(#e);}.o{clip-path:url(#g);}.p{clip-path:url(#i);}.q{clip-path:url(#k);}.r{clip-path:url(#m);}</style><clipPath id="a"><rect class="a" width="72.89" height="72.89" transform="translate(717.675 1095)"/></clipPath><clipPath id="c"><use xlink:href="#b"/></clipPath><clipPath id="e"><use xlink:href="#d"/></clipPath><clipPath id="g"><use xlink:href="#f"/></clipPath><clipPath id="i"><use xlink:href="#h"/></clipPath><clipPath id="k"><use xlink:href="#j"/></clipPath><clipPath id="m"><use xlink:href="#l"/></clipPath></defs><g transform="translate(-701 -1151)"><path class="b" d="M30.3,72.863q-1.053.08-2.127.081C12.615,72.943,0,60.078,0,44.208S12.615,15.473,28.177,15.473a27.849,27.849,0,0,1,20.53,9.053A28.366,28.366,0,0,1,76.584,0c15.562,0,28.177,12.865,28.177,28.735A28.662,28.662,0,0,1,84.029,56.457a29.433,29.433,0,0,1,.5,5.434c0,15.87-12.615,28.736-28.177,28.736A28.189,28.189,0,0,1,30.3,72.863Z" transform="translate(701.364 1155.373)"/><g transform="translate(701 1154.645)"><g class="c" transform="translate(8.382 9.476)"><circle class="k" cx="3.28" cy="3.28" r="3.28"/><circle class="l" cx="3.28" cy="3.28" r="1.78"/></g><g class="c" transform="translate(93.464 60.478)"><circle class="k" cx="4.009" cy="4.009" r="4.009"/><circle class="l" cx="4.009" cy="4.009" r="2.509"/></g><g class="c" transform="translate(83.438 0)"><circle class="k" cx="1.822" cy="1.822" r="1.822"/><circle class="l" cx="1.822" cy="1.822" r="0.322"/></g><g transform="translate(101.846 4.02) rotate(45)"><g class="d" transform="translate(2.551 0)"><rect id="b" class="k" width="2.187" height="7.289" rx="1.093"/><path class="m" d="M0,1.5h2.186695098876953M1.5,0v7.2889838218688965M2.186695098876953,5.7889838218688965h-2.186695098876953M0.6866950988769531,7.2889838218688965v-7.2889838218688965"/></g><g class="d" transform="translate(7.289 2.551) rotate(90)"><rect id="d" class="k" width="2.187" height="7.289" rx="1.093"/><path class="n" d="M0,1.5h2.186695098876953M1.5,0v7.2889838218688965M2.186695098876953,5.7889838218688965h-2.186695098876953M0.6866950988769531,7.2889838218688965v-7.2889838218688965"/></g></g><g transform="translate(8.747 54.277) rotate(90)"><g class="d" transform="translate(3.28)"><rect id="f" class="k" width="2.187" height="8.747" rx="1.093"/><path class="o" d="M0,1.5h2.186695098876953M1.5,0v8.746780395507812M2.186695098876953,7.2467803955078125h-2.186695098876953M0.6866950988769531,8.746780395507812v-8.746780395507812"/></g><g class="d" transform="translate(8.747 3.28) rotate(90)"><rect id="h" class="k" width="2.187" height="8.747" rx="1.093"/><path class="p" d="M0,1.5h2.186695098876953M1.5,0v8.746780395507812M2.186695098876953,7.2467803955078125h-2.186695098876953M0.6866950988769531,8.746780395507812v-8.746780395507812"/></g></g><g transform="translate(72.289 82.307) rotate(90)"><g class="c" transform="translate(3.28)"><rect id="j" class="k" width="2.187" height="8.747" rx="1.093"/><path class="q" d="M0,1.5h2.186695098876953M1.5,0v8.746780395507812M2.186695098876953,7.2467803955078125h-2.186695098876953M0.6866950988769531,8.746780395507812v-8.746780395507812"/></g><g class="c" transform="translate(8.747 3.28) rotate(90)"><rect id="l" class="k" width="2.187" height="8.747" rx="1.093"/><path class="r" d="M0,1.5h2.186695098876953M1.5,0v8.746780395507812M2.186695098876953,7.2467803955078125h-2.186695098876953M0.6866950988769531,8.746780395507812v-8.746780395507812"/></g></g></g><g class="e" transform="translate(0 56)"><g transform="translate(717.675 1095)"><path class="f" d="M71.466,32.743v5.695H65.772V32.743h5.695Z"/><path class="f" d="M68.619,1.424a2.847,2.847,0,1,1-2.847,2.847A2.846,2.846,0,0,1,68.619,1.424Z"/><path class="g" d="M22.209,41.712,36.445,15.66,50.681,41.712,44.987,56.8H27.9Z"/><path class="g" d="M44.987,56.8a2.847,2.847,0,0,1,0,5.695H27.9a2.847,2.847,0,0,1,0-5.695Z"/><rect class="f" width="17.084" height="8.969" transform="translate(27.903 62.497)"/><path class="f" d="M39.292,4.4V7.118H33.6V1.424h5.695V4.4Z"/><path class="f" d="M36.445,38.865A2.847,2.847,0,1,1,33.6,41.712,2.846,2.846,0,0,1,36.445,38.865Z"/><path class="f" d="M7.118,32.743v5.695H1.424V32.743H7.118Z"/><path class="f" d="M4.271,1.424A2.847,2.847,0,1,1,1.424,4.271,2.846,2.846,0,0,1,4.271,1.424Z"/><path class="h" d="M71.466,31.32h-1.7a32.338,32.338,0,0,0-3.836-11.632,1.424,1.424,0,0,0-2.488,1.385A29.506,29.506,0,0,1,66.893,31.32H65.772a1.424,1.424,0,0,0-1.424,1.424v5.695a1.424,1.424,0,0,0,1.424,1.424h5.695a1.424,1.424,0,0,0,1.424-1.424V32.743A1.424,1.424,0,0,0,71.466,31.32Zm-1.424,5.695H67.2V34.167h2.847Z"/><path class="h" d="M52.1,41.658c0-.022,0-.044,0-.066s-.007-.06-.011-.09,0-.036-.008-.055c-.007-.035-.015-.069-.024-.1,0-.013-.006-.026-.01-.039-.013-.043-.027-.084-.044-.125l0-.014a1.4,1.4,0,0,0-.066-.139L37.694,14.977a1.424,1.424,0,0,0-2.5,0L20.96,41.029a1.4,1.4,0,0,0-.066.139l0,.014c-.017.041-.031.083-.044.125,0,.013-.007.026-.01.039-.009.034-.018.068-.024.1,0,.018-.006.036-.008.055s-.009.059-.011.09,0,.044,0,.066,0,.036,0,.054,0,.018,0,.028,0,.045,0,.067,0,.057.008.084.006.039.009.059.011.061.018.091.008.034.013.051c.009.032.019.064.03.1,0,.009.005.018.009.027l5.134,13.605a4.271,4.271,0,0,0,.469,7.856v7.79A1.424,1.424,0,0,0,27.9,72.89H44.987a1.424,1.424,0,0,0,1.424-1.424V63.679a4.271,4.271,0,0,0,.468-7.856l5.135-13.607c0-.009.005-.018.009-.027.011-.031.021-.063.03-.1,0-.017.009-.034.013-.051s.013-.061.018-.091.007-.039.009-.059.006-.056.008-.084,0-.045,0-.067,0-.018,0-.028S52.1,41.676,52.1,41.658Zm-7.115,1.478h3.636L44,55.379H28.888l-4.62-12.243H27.9a1.424,1.424,0,1,0,0-2.847H24.609L35.021,21.234V37.686a4.271,4.271,0,1,0,2.847,0V21.234L48.281,40.289H44.987a1.424,1.424,0,0,0,0,2.847Zm-8.542-2.847a1.424,1.424,0,1,1-1.424,1.424A1.425,1.425,0,0,1,36.445,40.289ZM29.327,70.043V63.921H43.563v6.122Zm16.666-9.386a1.414,1.414,0,0,1-1.006.417H27.9a1.424,1.424,0,0,1,0-2.847H44.991a1.423,1.423,0,0,1,1,2.43Z"/><path class="i" d="M8.9,19.137a1.423,1.423,0,0,0-1.936.551A32.338,32.338,0,0,0,3.126,31.32h-1.7A1.424,1.424,0,0,0,0,32.743v5.695a1.424,1.424,0,0,0,1.424,1.424H7.118a1.424,1.424,0,0,0,1.424-1.424V32.743A1.424,1.424,0,0,0,7.118,31.32H6A29.509,29.509,0,0,1,9.45,21.073,1.424,1.424,0,0,0,8.9,19.137Zm-3.2,17.878H2.847V34.167H5.695Z"/><path class="h" d="M58.394,10.547a31.518,31.518,0,0,0-8.113-4.852H64.593a4.271,4.271,0,1,0,0-2.847H40.716V1.424A1.424,1.424,0,0,0,39.292,0H33.6a1.424,1.424,0,0,0-1.424,1.424V2.847H8.3a4.271,4.271,0,1,0,0,2.847H22.609A31.518,31.518,0,0,0,14.5,10.547a1.424,1.424,0,1,0,1.835,2.177A32.1,32.1,0,0,1,32.174,6V7.118A1.424,1.424,0,0,0,33.6,8.542h5.695a1.424,1.424,0,0,0,1.424-1.424V6a32.1,32.1,0,0,1,15.843,6.728,1.424,1.424,0,0,0,1.835-2.177Zm10.225-7.7A1.424,1.424,0,1,1,67.2,4.271,1.425,1.425,0,0,1,68.619,2.847ZM4.271,5.695A1.424,1.424,0,1,1,5.695,4.271,1.425,1.425,0,0,1,4.271,5.695Zm33.6,0H35.021V2.847h2.847V5.695Z"/><path class="j" d="M61.5,14.236a1.424,1.424,0,1,0,1.424,1.424A1.424,1.424,0,0,0,61.5,14.236Z"/><path class="j" d="M11.389,14.236a1.424,1.424,0,1,0,1.424,1.424A1.424,1.424,0,0,0,11.389,14.236Z"/></g></g></g></svg>