<svg xmlns="http://www.w3.org/2000/svg" xmlns:xlink="http://www.w3.org/1999/xlink" width="204.268" height="134" viewBox="0 0 204.268 134"><defs><style>.a{fill:#f5f7fb;}.b{clip-path:url(#a);}.c{fill:#377f8e;}.d{fill:#c8c8ee;}.e{fill:#609daa;}.f{fill:#fff;}.g{fill:url(#b);}.h{fill:url(#c);}.i{fill:#ffa668;}.j{fill:#eaeafa;}.k{fill:url(#d);}.l{fill:url(#e);}.m{fill:url(#f);}.n{fill:url(#g);}.o{fill:#212785;}.p{fill:#4f5cd3;}.q{fill:#e4e8fd;}.r{fill:#3f47c7;}.s{fill:#2e34a5;}.t{fill:#5e72fa;}.u{fill:url(#h);}.v{fill:url(#i);}.w{fill:url(#j);}.x{fill:url(#k);}.y{fill:url(#l);}.z{fill:url(#m);}.aa{fill:#121c7c;}.ab{fill:url(#n);}.ac{fill:#fcb3b3;}.ad{fill:#f6f6fe;}.ae{fill:#dadaf5;}.af{fill:url(#o);}.ag{fill:url(#p);}.ah{fill:url(#q);}.ai{fill:url(#r);}.aj{fill:url(#s);}.ak{fill:url(#t);}.al{fill:url(#u);}.am,.an,.ao,.ap,.aq{opacity:0.5;}.am{fill:url(#v);}.an{fill:url(#w);}.ao{fill:url(#x);}.ap{fill:url(#y);}.aq{fill:#c1d3ff;}.ar{fill:#fb688f;}.as{fill:#ff4f7c;}.at{fill:url(#z);}.au{fill:#398191;}</style><clipPath id="a"><rect class="a" width="204.268" height="134" transform="translate(1030 1810)"/></clipPath><linearGradient id="b" y1="0.5" x2="1" y2="0.5" gradientUnits="objectBoundingBox"><stop offset="0" stop-color="#fcb3b3"/><stop offset="1" stop-color="#fc8e8e"/></linearGradient><linearGradient id="c" y1="0.5" x2="1" y2="0.5" gradientUnits="objectBoundingBox"><stop offset="0" stop-color="#f5f5ff"/><stop offset="1" stop-color="#609daa"/></linearGradient><linearGradient id="d" x1="0" x2="1" xlink:href="#b"/><linearGradient id="e" y1="0.5" x2="1" y2="0.5" gradientUnits="objectBoundingBox"><stop offset="0" stop-color="#f5f5ff"/><stop offset="1" stop-color="#cfcff2"/></linearGradient><linearGradient id="f" y1="0.5" x2="1" y2="0.5" gradientUnits="objectBoundingBox"><stop offset="0" stop-color="#f788a8"/><stop offset="1" stop-color="#ff4d7b"/></linearGradient><linearGradient id="g" x1="10.241" y1="-7.947" x2="10.799" y2="-7.947" xlink:href="#f"/><linearGradient id="h" x1="20.997" y1="-0.046" x2="21.087" y2="0.83" xlink:href="#f"/><linearGradient id="i" x1="54.756" y1="0.602" x2="54.759" y2="0.891" xlink:href="#b"/><linearGradient id="j" x1="49.85" y1="0.32" x2="49.807" y2="0.99" xlink:href="#b"/><linearGradient id="k" x1="237.19" y1="0.501" x2="238.19" y2="0.501" xlink:href="#b"/><linearGradient id="l" x1="36.121" y1="0.5" x2="37.121" y2="0.5" gradientUnits="objectBoundingBox"><stop offset="0" stop-color="#4048c8"/><stop offset="1" stop-color="#2d32a4"/></linearGradient><linearGradient id="m" x1="44.324" y1="1.102" x2="44.268" y2="1.21" xlink:href="#l"/><linearGradient id="n" x1="318.942" y1="1.964" x2="318.942" y2="1.517" xlink:href="#b"/><linearGradient id="o" x1="69.7" y1="-2.081" x2="70.71" y2="-2.081" xlink:href="#f"/><linearGradient id="p" x1="0.5" y1="-0.759" x2="0.5" y2="-0.531" gradientUnits="objectBoundingBox"><stop offset="0" stop-color="#ebfbff"/><stop offset="1" stop-color="#609daa"/></linearGradient><linearGradient id="q" x1="0.001" y1="0.5" x2="1.001" y2="0.5" gradientUnits="objectBoundingBox"><stop offset="0" stop-color="#88eaff"/><stop offset="1" stop-color="#609daa"/></linearGradient><linearGradient id="r" x1="-0.002" y1="0.5" x2="1" y2="0.5" gradientUnits="objectBoundingBox"><stop offset="0" stop-color="#cff1f8"/><stop offset="1" stop-color="#609daa"/></linearGradient><linearGradient id="s" x1="-0.001" y1="0.5" x2="1" y2="0.5" gradientUnits="objectBoundingBox"><stop offset="0" stop-color="#d9f2f8"/><stop offset="1" stop-color="#609daa"/></linearGradient><linearGradient id="t" y1="0.5" x2="1.001" y2="0.5" gradientUnits="objectBoundingBox"><stop offset="0" stop-color="#e3f5f9"/><stop offset="1" stop-color="#609daa"/></linearGradient><linearGradient id="u" x1="0.001" x2="1" xlink:href="#c"/><linearGradient id="v" x1="1.417" y1="2.383" x2="1.015" y2="1.556" gradientUnits="objectBoundingBox"><stop offset="0" stop-color="#dff9ff"/><stop offset="1" stop-color="#609daa"/></linearGradient><linearGradient id="w" x1="-0.001" y1="0.5" x2="0.999" y2="0.5" gradientUnits="objectBoundingBox"><stop offset="0" stop-color="#b2e4ef"/><stop offset="1" stop-color="#609daa"/></linearGradient><linearGradient id="x" x1="0" x2="1.001" xlink:href="#c"/><linearGradient id="y" y1="0.5" x2="1" y2="0.5" gradientUnits="objectBoundingBox"><stop offset="0" stop-color="#b3d5dc"/><stop offset="1" stop-color="#609daa"/></linearGradient><linearGradient id="z" x1="0" y1="0.5" x2="1" y2="0.5" xlink:href="#f"/></defs><g class="b" transform="translate(-1030 -1810)"><g transform="translate(1046.344 1810)"><path class="c" d="M130.5,44.755h.29a1.731,1.731,0,0,0,1.731-1.731V37.55a1.731,1.731,0,0,0-1.731-1.731h-.29Z"/><path class="d" d="M61.526,32.073h-.29A1.731,1.731,0,0,0,59.5,33.8v5.473a1.731,1.731,0,0,0,1.731,1.731h.29Z"/><path class="c" d="M61.526,20.6h-.29A1.731,1.731,0,0,0,59.5,22.336v5.473a1.731,1.731,0,0,0,1.731,1.731h.29Z"/><path class="e" d="M130.5,8.228V125.174a8.244,8.244,0,0,1-8.2,8.259H69.787a8.257,8.257,0,0,1-8.259-8.259V8.228A8.27,8.27,0,0,1,69.787,0H122.3a8.257,8.257,0,0,1,8.2,8.228Z"/><path class="f" d="M122.3,2.692H101.065a1.977,1.977,0,0,0-1.792,1.323,3.524,3.524,0,0,1-6.515,0,1.977,1.977,0,0,0-1.792-1.323H69.756A5.536,5.536,0,0,0,64.22,8.228V125.174a5.6,5.6,0,0,0,5.536,5.6h52.487a5.582,5.582,0,0,0,5.565-5.565V8.228A5.537,5.537,0,0,0,122.3,2.692Z"/><path class="g" d="M116.319,117.181a5.783,5.783,0,0,1-5.785,5.785H81.5a5.785,5.785,0,0,1,0-11.571h29.036A5.783,5.783,0,0,1,116.319,117.181Z"/><path class="f" d="M89.175,115.345a.319.319,0,0,1,.321-.321h.068a.4.4,0,0,1,.332.186l1.812,2.347V115.33a.314.314,0,0,1,.627,0v3.046a.31.31,0,0,1-.31.317H92a.4.4,0,0,1-.332-.192L89.8,116.087v2.3a.314.314,0,0,1-.627,0Z"/><path class="f" d="M93.267,118.349v-2.982a.317.317,0,0,1,.321-.321h2.107a.288.288,0,0,1,.284.284.284.284,0,0,1-.284.284H93.9v.943h1.559a.288.288,0,0,1,.284.29.284.284,0,0,1-.284.279H93.9v.982h1.819a.288.288,0,0,1,.284.284.284.284,0,0,1-.284.284H93.588a.317.317,0,0,1-.321-.327Z"/><path class="f" d="M96.642,118.163l1.076-1.336-1-1.26a.408.408,0,0,1-.1-.238.306.306,0,0,1,.317-.31.327.327,0,0,1,.29.155l.917,1.207.906-1.185a.358.358,0,0,1,.31-.177.293.293,0,0,1,.29.29.373.373,0,0,1-.1.242l-1.015,1.264,1.068,1.332a.4.4,0,0,1,.1.238.306.306,0,0,1-.317.31.327.327,0,0,1-.29-.155l-.974-1.268-.967,1.247a.365.365,0,0,1-.31.177.29.29,0,0,1-.29-.295.4.4,0,0,1,.092-.238Z"/><path class="f" d="M101.323,115.635h-.873a.295.295,0,1,1,0-.589h2.4a.295.295,0,1,1,0,.589h-.886v2.744a.321.321,0,0,1-.642,0Z"/><rect class="e" width="54.389" height="50.481" rx="0.642" transform="translate(68.774 21.295)"/><rect class="f" width="42.665" height="46.573" transform="translate(119.255 25.202) rotate(90)"/><path class="h" d="M118.615,66.239,101.109,38.413,89.579,54.6l-4.613-8.416L73.321,66.239Z"/><circle class="e" cx="3.356" cy="3.356" r="3.356" transform="translate(83.661 31.59)"/><path class="e" d="M110.326,10.564H72.193a2.952,2.952,0,0,0,0,5.895h38.133Z"/><path class="i" d="M119.742,10.564h-8.2v5.895h8.2a2.952,2.952,0,0,0,0-5.895Z"/><path class="f" d="M117.96,15.064l-.943-.932a1.591,1.591,0,1,0-.314.314l.934.934a.226.226,0,1,0,.323-.317Zm-3.013-1.078a1.144,1.144,0,1,1,1.618,0,1.144,1.144,0,0,1-1.618,0Z"/><path class="j" d="M69.18,98.207a.731.731,0,0,1,.727-.727h14.6a.728.728,0,0,1,0,1.456h-14.6a.727.727,0,0,1-.727-.729Z"/><path class="j" d="M69.18,101.314a.731.731,0,0,1,.727-.727h6.94a.728.728,0,0,1,0,1.456h-6.94a.727.727,0,0,1-.727-.729Z"/><path class="j" d="M87.94,98.207a.731.731,0,0,1,.727-.727h14.6a.728.728,0,1,1,0,1.456h-14.6a.727.727,0,0,1-.727-.729Z"/><path class="j" d="M87.94,101.314a.731.731,0,0,1,.727-.727H95.6a.728.728,0,1,1,0,1.456H88.667a.727.727,0,0,1-.727-.729Z"/><path class="j" d="M106.7,98.207a.731.731,0,0,1,.727-.727h14.612a.728.728,0,0,1,0,1.456H107.427a.727.727,0,0,1-.727-.729Z"/><path class="j" d="M106.7,101.314a.731.731,0,0,1,.727-.727h6.936a.728.728,0,0,1,0,1.456h-6.936a.727.727,0,0,1-.727-.729Z"/><circle class="k" cx="8.434" cy="8.434" r="8.434" transform="translate(68.774 76.605)"/><circle class="l" cx="8.434" cy="8.434" r="8.434" transform="translate(87.534 76.605)"/><circle class="m" cx="8.434" cy="8.434" r="8.434" transform="translate(106.294 76.605)"/><path class="j" d="M58.258,40.181l2.81-1.845a1.9,1.9,0,0,1,2.631.546l.109.164a1.9,1.9,0,0,1-.548,2.62l-2.81,1.845a1.9,1.9,0,0,1-2.62-.544L57.72,42.8A1.9,1.9,0,0,1,58.258,40.181Z"/><path class="n" d="M62.622,42.591a3.056,3.056,0,0,0-3.831-4.3L48.529,42.55a76.275,76.275,0,0,0-12.073-5.4,3.056,3.056,0,0,0-2.489,5.567l13.271,5.932a3.056,3.056,0,0,0,2.412.033l11.477-4.761A3.037,3.037,0,0,0,62.622,42.591Z"/><path class="o" d="M35.182,121.2l2.9.046c.19,2.05-1.57,6.418,1.159,7.713,3.34,1.585,4.711,2.161,5.36,4.032a.33.33,0,0,1-.31.437l-9.665-.151a.319.319,0,0,1-.31-.384C34.514,131.965,35.6,122.923,35.182,121.2Z"/><path class="o" d="M19.587,120.744l2.9.072c.17,2.052-1.629,6.4,1.092,7.722,3.325,1.616,4.692,2.2,5.323,4.083a.33.33,0,0,1-.314.437l-9.663-.24a.319.319,0,0,1-.308-.386C18.821,131.5,19.989,122.475,19.587,120.744Z"/><path class="p" d="M38.731,124.326c-.111.247-2.063.26-3.257.242-.531,0-.91-.017-.91-.017l-1.993-16.029c-.1-1.166-.269-2.325-.458-3.478-.884-5.34-.991-26.8-.991-26.8l-2.183-.079s-2.55,17.465-3,22.316a19.188,19.188,0,0,1-.376,2.305,9.364,9.364,0,0,0-.179,2.72c.076,1.845-2.164,19.07-2.164,19.07l-4.107-.386s.5-20.812.913-25.165c.351-3.74.253-23.744.218-29.283V68.32l.258.017,18.057.972V72.2c.024,5.718.1,18.247.218,21.884C38.937,98.862,38.884,123.984,38.731,124.326Z"/><path class="q" d="M37.332,124.329l-.172-.076c.131-.52.218-25.045.031-30.2-.129-4.087-.2-18.952-.218-21.891V70.592h.19v1.574c.013,2.939.085,17.8.218,21.884C37.537,98.753,37.5,123.94,37.332,124.329Z"/><path class="q" d="M20.672,124.222h-.19c0-.218.509-20.864.915-25.17.362-3.866.242-25.261.216-29.51V68.261l.36.02v.19h-.157v1.092c.028,4.253.148,25.665-.218,29.534C21.177,103.372,20.677,124.023,20.672,124.222Z"/><path class="r" d="M25.558,102.787a18.975,18.975,0,0,0,.376-2.308c.437-4.637,2.794-20.884,3-22.316H26.875a10.816,10.816,0,0,0-1.155,3.644c-.382,3.434-.524,6.89-.655,10.344-.511,12.638-1.939,19.727-2.458,32.367l.62.059s2.24-17.227,2.161-19.07a9.387,9.387,0,0,1,.17-2.72Z"/><path class="r" d="M33.081,100.96c-.832-7.423-1.875-15.407-.4-22.674l-1.561-.041c.015,2.367.159,21.79.989,26.8.19,1.155.356,2.314.458,3.48l2,16.029s.38.011.908.017C35.051,114.9,34.16,110.586,33.081,100.96Z"/><path class="s" d="M38.541,71.191a19.16,19.16,0,0,1-7.8.788c-3.19-.3-8.49-.552-10.5-2.233V68.32l.258.017c2,1.747,7.248,1.626,10.435,1.928,4.085.382,6.268.218,7.624-.341h0v.57C38.544,70.678,38.541,70.887,38.541,71.191Z"/><rect class="t" width="0.55" height="3.382" transform="translate(27.092 69.282) rotate(5.143)"/><rect class="t" width="0.548" height="3.369" transform="translate(34.315 69.945) rotate(5.38)"/><path class="q" d="M31.468,72.88,29.525,72.7a.568.568,0,0,1-.513-.616l.092-1.013a.568.568,0,0,1,.618-.513l1.943.177a.568.568,0,0,1,.513.616l-.092,1.013a.568.568,0,0,1-.618.513ZM29.7,70.758a.369.369,0,0,0-.4.334l-.092,1.013a.369.369,0,0,0,.334.4l1.943.177a.369.369,0,0,0,.4-.334l.092-1.013a.369.369,0,0,0-.334-.4Z"/><rect class="q" width="0.197" height="4.073" transform="translate(30.73 72.898) rotate(5.143)"/><path class="u" d="M38.563,69.551c-.146,2.432-18.437,1.092-18.288-1.338.923-15.634-3.1-26.735-.7-29.254.266-.279,1.148-2,5.067-3.4.155-.057.317-.111.48-.164l.168-.057c.12-.031.231-.055.349-.079h.037a18.247,18.247,0,0,1,2.131-.273,17.832,17.832,0,0,1,1.795-.035h.24c.157,0,.312.015.474.026a2.2,2.2,0,0,1,.389.037,14.928,14.928,0,0,1,1.725.218c.19.035.382.074.57.116s.325.072.487.114a8.217,8.217,0,0,1,4.312,2.4C38.941,44.34,38.319,58.166,38.563,69.551Z"/><path class="f" d="M33.494,35.474a3.074,3.074,0,0,1-1.253,1.8,5.443,5.443,0,0,1-3.078.989h-.334c-2.153-.055-3.86-1.183-4.183-2.7.155-.057.317-.111.48-.164l.168-.057c.12-.031.231-.055.349-.079h.037a18.248,18.248,0,0,1,2.131-.273c.675-.013,1.358-.024,2.035-.024.157,0,.312.015.474.026a2.2,2.2,0,0,1,.389.037,14.928,14.928,0,0,1,1.725.218c.19.035.382.074.57.116S33.332,35.433,33.494,35.474Z"/><path class="v" d="M33.007,35.367c-.3,1.31-1.9,2.347-3.858,2.4-2.05.057-3.768-.978-4.021-2.362l.168-.057c.12-.031.231-.055.349-.079h.037q.458-.087.923-.146l.194-7.51a2.21,2.21,0,1,1,4.419.111l-.188,7.333c.463.041.934.107,1.41.2A5.5,5.5,0,0,1,33.007,35.367Z"/><path class="w" d="M32.815,23.185l.539,5.414a4.063,4.063,0,1,1-8.078.806l-.539-5.421a4.063,4.063,0,0,1,8.078-.806Z"/><path class="x" d="M25.44,27.637a1.127,1.127,0,0,1-1-.589,4.738,4.738,0,0,1-.819-1.939.825.825,0,0,1,.192-.825.528.528,0,0,1,.506-.055,1.155,1.155,0,0,1,.437.308,2.229,2.229,0,0,1,.585,1.38Z"/><path class="y" d="M34.605,23.238c-1.762,1.166-8.418.142-8.534.092a.182.182,0,0,0-.031.085c-.068.548.015,3.593-.279,4.054-.319.5-.308-.6-.406-.873s-.533-2.017-.533-2.017a4.864,4.864,0,0,0-.437-1.5c-.371-.7-1.07-2.334-.26-3.425a1.374,1.374,0,0,1,1.819-.5s2.325-2.65,4.779-2.386,1.415,2.17,1.415,2.17a5.472,5.472,0,0,1,2.126-.131.967.967,0,0,1,.873.784C35.134,19.581,36.367,22.067,34.605,23.238Z"/><path class="z" d="M34.605,23.238c-1.762,1.166-8.418.142-8.534.092a.182.182,0,0,0-.031.085.731.731,0,0,1-.1-.118c.157-.159.528-.063.734-.061h.891a11.169,11.169,0,0,0,1.771-.17,6.313,6.313,0,0,0,3.294-1.581A7.236,7.236,0,0,0,34.26,18.8a.967.967,0,0,1,.873.784S36.367,22.067,34.605,23.238Z"/><path class="aa" d="M32.009,25.338a1.965,1.965,0,0,1-1.445-.1c-.092-.046-.085-.129.011-.162a1.978,1.978,0,0,1,1.445.1C32.112,25.222,32.106,25.3,32.009,25.338Z"/><path class="aa" d="M28.178,25.233a1.965,1.965,0,0,1-1.439.192c-.1-.026-.109-.109-.02-.162a1.965,1.965,0,0,1,1.434-.192C28.254,25.106,28.268,25.181,28.178,25.233Z"/><path class="f" d="M28.892,31.656A1.275,1.275,0,0,1,27.8,31a.153.153,0,1,1,.269-.148.952.952,0,0,0,1.164.424.153.153,0,0,1,.1.288A1.354,1.354,0,0,1,28.892,31.656Z"/><circle class="aa" cx="0.293" cy="0.293" r="0.293" transform="translate(27.867 27.075) rotate(-0.64)"/><circle class="aa" cx="0.293" cy="0.293" r="0.293" transform="translate(30.757 27.04) rotate(-0.64)"/><path class="f" d="M31.365,28.962A1.454,1.454,0,1,1,32.8,27.492a1.454,1.454,0,0,1-1.437,1.469ZM31.335,26.3a1.207,1.207,0,1,0,1.22,1.194,1.207,1.207,0,0,0-1.22-1.194Z"/><path class="f" d="M28.051,29a1.454,1.454,0,1,1,1.437-1.469A1.454,1.454,0,0,1,28.051,29Zm-.031-2.661a1.207,1.207,0,1,0,1.22,1.194,1.207,1.207,0,0,0-1.22-1.194Z"/><path class="f" d="M29.416,27.623l-.164-.181a.67.67,0,0,1,.5-.218.517.517,0,0,1,.362.218l-.2.148a.279.279,0,0,0-.19-.131A.461.461,0,0,0,29.416,27.623Z"/><path class="ab" d="M30.274,29.968l-1.124.013a.1.1,0,0,1-.1-.153,6.469,6.469,0,0,0,.437-1.153.1.1,0,0,1,.1-.076h.218a.1.1,0,0,1,.1.074,6.27,6.27,0,0,0,.461,1.142.107.107,0,0,1-.1.153Z"/><path class="ac" d="M61.347,48.8c.081-.046.157-.094.24-.131a1.771,1.771,0,0,1,.766-.127.847.847,0,0,0,.712-.458.3.3,0,0,0,.028-.258c-.026-.05-.151-.063-.231-.072a2.013,2.013,0,0,1-.467-.024c-.482-.17-.917.094-1.375.114a4.514,4.514,0,0,0-1.338.419,7.508,7.508,0,0,0-.751.345,1.546,1.546,0,0,1-.729.17c-.522,0-1.046.022-1.567-.017-.592-.044-1.179-.142-1.812-.218l-1.334,3.08a4.969,4.969,0,0,0,.55-.02c.886-.05,1.775-.118,2.661-.148a3.526,3.526,0,0,1,1.64.373c.356.17.694.384,1.059.528a7.963,7.963,0,0,0,1.03.277c.341.083.683.159,1.026.231s.686.155,1.033.194a.808.808,0,0,0,.816-.4c.063-.116.251-.168.389-.238a2.577,2.577,0,0,1,.325-.116.3.3,0,0,0,.218-.266.249.249,0,0,1,.245-.251,1.229,1.229,0,0,0,.8-.537.417.417,0,0,1,.164-.1.218.218,0,0,0,.07-.408.889.889,0,0,0-.747-.192.411.411,0,0,1-.144.015c-.334-.094-.67-.179-1-.3A2.218,2.218,0,0,1,63.242,50c-.293-.19-.587-.373-.873-.561Z"/><path class="ad" d="M63.787,30.8l9.152,9.938a1.03,1.03,0,0,1-.07,1.447l-33.8,31.13a1.022,1.022,0,0,1-1.45-.048l-9.152-9.938Z"/><path class="ae" d="M63.783,30.8l-1.862-2.024a1.03,1.03,0,0,0-1.454-.059L26.661,59.849A1.03,1.03,0,0,0,26.6,61.3l1.862,2.024Z"/><circle class="i" cx="3.611" cy="3.611" r="3.611" transform="translate(33.354 63.795) rotate(-42.64)"/><path class="ae" d="M64.237,36.138a.668.668,0,0,1-.039.943L41.227,58.236a.667.667,0,1,1-.9-.98L63.294,36.1a.666.666,0,0,1,.943.037Z"/><path class="ae" d="M66.292,38.371a.668.668,0,0,1-.039.943L43.281,60.473a.667.667,0,1,1-.9-.98L65.348,38.338a.666.666,0,0,1,.943.033Z"/><path class="ae" d="M59.954,48.335a.668.668,0,0,1-.039.943L45.338,62.7a.667.667,0,0,1-.9-.98L59.011,48.3a.666.666,0,0,1,.943.039Z"/><path class="ac" d="M39.88,66.77c.092,0,.183-.02.273-.017a1.771,1.771,0,0,1,.749.218.847.847,0,0,0,.838-.118.3.3,0,0,0,.133-.218c0-.057-.109-.12-.181-.162a2.01,2.01,0,0,1-.413-.218c-.365-.356-.873-.3-1.3-.476a4.441,4.441,0,0,0-1.391-.181c-.275-.02-.552,0-.827,0a1.546,1.546,0,0,1-.731-.153c-.469-.218-.958-.421-1.415-.672-.52-.288-1.011-.624-1.55-.963l-2.513,2.236c.181.076.345.148.509.218.827.327,1.659.637,2.478.985a3.526,3.526,0,0,1,1.332,1.026c.251.3.469.64.74.923a7.959,7.959,0,0,0,.819.686q.41.327.834.64a7.755,7.755,0,0,0,.856.609.808.808,0,0,0,.908-.02c.1-.079.3-.048.454-.052a2.581,2.581,0,0,1,.343.031.3.3,0,0,0,.319-.146.249.249,0,0,1,.327-.127,1.229,1.229,0,0,0,.954-.151.417.417,0,0,1,.188-.02c.218,0,.321-.138.236-.341a.889.889,0,0,0-.6-.487.41.41,0,0,1-.138-.046,9.568,9.568,0,0,1-.777-.688,2.216,2.216,0,0,1-.24-.406c-.186-.295-.376-.585-.565-.873Z"/><path class="j" d="M32.184,61.971l2.969,1.578a1.9,1.9,0,0,1,.786,2.57l-.092.175a1.9,1.9,0,0,1-2.567.782l-2.971-1.581a1.9,1.9,0,0,1-.784-2.565l.092-.175a1.9,1.9,0,0,1,2.567-.784Z"/><path class="af" d="M32.167,66.957A3.056,3.056,0,0,0,34.1,61.532l-8.663-6.953A76.251,76.251,0,0,0,24.371,41.4a3.056,3.056,0,0,0-6.078.491l1.17,14.49A3.056,3.056,0,0,0,20.6,58.509l9.684,7.772A3.037,3.037,0,0,0,32.167,66.957Z"/><path class="ag" d="M160.958,106.416c.039.155.074.3.107.456a8.515,8.515,0,0,0,1.12,2.8c.389.618,1.188,2.155,1.912,1.133a2.937,2.937,0,0,0,.389-.906q.452-1.528.906-3.026c.039-.12.074-.249.107-.369a2.712,2.712,0,0,1-.758.127c-.8,0-1.576-.262-2.369-.33a4.768,4.768,0,0,0-1.415.116Z"/><path class="ah" d="M149.73,109.105a.461.461,0,0,1,.279-.1c.362,0,.539.424.624.775.341,1.386.74,18.12,1.092,23.054h.583c0-.135-.013-.269-.022-.4-.079-1.4-.341-23.1-1.022-24.327a1.765,1.765,0,0,0-1.033-.954,2.043,2.043,0,0,0-.939.065l-2.637.592a26.063,26.063,0,0,0-5.875,1.8,7.585,7.585,0,0,0-2.709,2.039.917.917,0,0,0-.061.074,4.051,4.051,0,0,0-.823,3.3,2.093,2.093,0,0,0,.592-.677,3.151,3.151,0,0,1,2.62-1.07,20.762,20.762,0,0,1,2.9.465,4.492,4.492,0,0,0,2.875-.284,5.533,5.533,0,0,0,1.8-1.912l1.415-2.083a1.43,1.43,0,0,1,.334-.356Z"/><path class="ai" d="M149.723,102.9a2.661,2.661,0,0,1,1.93.127,2.227,2.227,0,0,1,.655,1.76c.013.2.024.461.041.768.172,4.2.415,23.578.587,27.289h.511v-.107c0-1.629-.116-20.493-.183-22.122-.072-1.827-.192-5.676-.351-7.488a5.5,5.5,0,0,0-.642-2.5,5.13,5.13,0,0,0-1.528-1.4,22.487,22.487,0,0,0-3.672-1.954,8.787,8.787,0,0,0-2.661-.731,3.956,3.956,0,0,0-2.633.655,2.708,2.708,0,0,0-.5.467,2.476,2.476,0,0,0-.6,1.928,1.5,1.5,0,0,1,1.771-.028,7.973,7.973,0,0,1,1.378,1.31,7.006,7.006,0,0,0,5.9,2.028Z"/><path class="aj" d="M168.282,94.363a9.486,9.486,0,0,0-1.928-1.814,3.364,3.364,0,0,0-2.522-.557,5.483,5.483,0,0,0-1.965,1.155,27.689,27.689,0,0,1-7.2,4.015c-.356.133-.758.3-.873.666a1.347,1.347,0,0,0,.356,1.107c.146.2.295.4.437.6l.758,5.176a28.16,28.16,0,0,1,.424,5.222c-.1,2.236-.7,18.474-1.81,22.9h.655c1.116-4.674,1.723-20.589,1.823-22.877a28.383,28.383,0,0,0-.437-5.34l-.6-4.192.138.114a3.6,3.6,0,0,0,.5.323,4.657,4.657,0,0,0,3.508.177,8.833,8.833,0,0,0,4.886-3.535,5.005,5.005,0,0,1,1-1.247,3.227,3.227,0,0,1,1.965-.5c.476,0,1.343.2,1.336-.581h0A1.327,1.327,0,0,0,168.282,94.363Z"/><path class="ak" d="M156.873,132.834c-.343-4.436-.144-21.484.69-23.655a20.051,20.051,0,0,1,1.528-3.087.437.437,0,0,0,.188,0c.323-.068.557-.382.886-.4a.738.738,0,0,1,.655.408,1.884,1.884,0,0,1,.127.323,4.768,4.768,0,0,1,1.417-.114c.792.068,1.57.336,2.369.33a2.715,2.715,0,0,0,.758-.127,2.485,2.485,0,0,0-.087-1.965,2.718,2.718,0,0,0-1.611-.98l-3.369-1.113a2.222,2.222,0,0,0-2,0,1.458,1.458,0,0,0-.524,1.133,4.327,4.327,0,0,0,.218,1.268,2.447,2.447,0,0,0,.349.873.335.335,0,0,0,.046.055,21.1,21.1,0,0,0-1.574,3.157c-.873,2.255-1.092,19.29-.736,23.895Z"/><path class="al" d="M152.574,94.967a5.29,5.29,0,0,1,1.092.738c.144,6.176.349,28.584.507,37.131h.559c-.022-5.6-.12-23.141-.172-26.416-.048-2.548-.107-6.768-.181-10.676h0a11.042,11.042,0,0,0-.41-4.615,10.549,10.549,0,0,0-1.393-2.9,15.566,15.566,0,0,0-2.928-3.067c-.557-.454-1.216-.851-1.747-1.347-.4-.389-.531-1.063-1.227-1.015a1.615,1.615,0,0,0-.954.465c-.86.782-1.906,2.467-1.626,3.6.452-.358,1.814-.546,2.183-.109a4.419,4.419,0,0,1,.683,1.557A12.374,12.374,0,0,0,152.574,94.967Z"/><path class="am" d="M155.535,100.061v.467a3.6,3.6,0,0,0,.5.338,4.657,4.657,0,0,0,3.508.177,8.833,8.833,0,0,0,4.886-3.535,5.005,5.005,0,0,1,1-1.247,3.227,3.227,0,0,1,1.965-.5c.476,0,1.343.2,1.336-.581h0a4.041,4.041,0,0,0-1.471-.655,5.676,5.676,0,0,0-2.323.107,22.6,22.6,0,0,0-4.366,1.62l-3.6,1.626a2.583,2.583,0,0,0-1.092.744A2.528,2.528,0,0,0,155.535,100.061Z"/><path class="an" d="M140.661,99.578a1.5,1.5,0,0,1,1.771-.028,7.972,7.972,0,0,1,1.378,1.31,7.006,7.006,0,0,0,5.916,2.037,2.661,2.661,0,0,1,1.93.127,2.227,2.227,0,0,1,.655,1.76c.013.2.024.461.041.768a2.5,2.5,0,0,0,.41-1.55,3.294,3.294,0,0,0-1.048-2.463,6.568,6.568,0,0,0-2.019-1.078q-2.013-.784-4.028-1.572a15.621,15.621,0,0,0-4.4-1.236,2.478,2.478,0,0,0-.609,1.926Z"/><path class="ao" d="M137.2,115.022a2.093,2.093,0,0,0,.592-.677,3.15,3.15,0,0,1,2.62-1.07,20.762,20.762,0,0,1,2.9.465,4.492,4.492,0,0,0,2.875-.284,5.533,5.533,0,0,0,1.8-1.912l1.415-2.083a1.43,1.43,0,0,1,.314-.356,2.557,2.557,0,0,0-1.205-.037,7.18,7.18,0,0,0-1.95.963,12.881,12.881,0,0,1-7.936,1.683c-.181-.02-.365-.048-.55-.072a.919.919,0,0,0-.061.074A4.1,4.1,0,0,0,137.2,115.022Z"/><path class="ap" d="M144.1,86.859c.452-.358,1.814-.546,2.183-.109a8.369,8.369,0,0,1,1.4.4,18.144,18.144,0,0,1,6.006,3.69,3.936,3.936,0,0,1,.271.286,10.549,10.549,0,0,0-1.393-2.9,15.569,15.569,0,0,0-2.928-3.067c-.557-.454-1.216-.851-1.747-1.345-.4-.389-.531-1.063-1.227-1.015a1.616,1.616,0,0,0-.954.465C144.868,84.052,143.822,85.728,144.1,86.859Z"/><path class="aq" d="M150.326,121.82v9.693a1.327,1.327,0,0,0,1.33,1.33h5.25a1.327,1.327,0,0,0,1.327-1.33V121.82Z"/><path class="ar" d="M158.668,121.984v9.691a1.585,1.585,0,0,1-1.589,1.589h-5.593a1.6,1.6,0,0,1-1.565-1.295,1.457,1.457,0,0,1-.028-.3v-9.689a.38.38,0,0,1,.378-.378h8.019a.38.38,0,0,1,.38.378Z"/><path class="as" d="M158.668,121.984v9.691a1.585,1.585,0,0,1-1.589,1.589h-5.593a1.6,1.6,0,0,1-1.565-1.295,3.021,3.021,0,0,0,2.07-.489,4.964,4.964,0,0,0,1.286-1.688q1.382-2.484,2.768-4.969a34.024,34.024,0,0,0,1.644-3.222h.6a.38.38,0,0,1,.376.382Z"/><path class="at" d="M146.145,14.832a3.032,3.032,0,0,1,2.172.923.4.4,0,0,0,.559,0,3.032,3.032,0,0,1,2.172-.923A2.6,2.6,0,0,1,153.5,17.62c0,1.688-1.345,3.674-4.665,5.423a.513.513,0,0,1-.476,0c-3.321-1.747-4.665-3.738-4.665-5.423A2.6,2.6,0,0,1,146.145,14.832Z"/><path class="au" d="M171.013,134H.568a.568.568,0,1,1,0-1.135H171.013a.568.568,0,1,1,0,1.135Z"/></g></g></svg>