<svg xmlns="http://www.w3.org/2000/svg" xmlns:xlink="http://www.w3.org/1999/xlink" width="1105.606" height="684.08" viewBox="0 0 1105.606 684.08"><defs><style>.a,.b{opacity:0.11;}.a{fill:url(#a);}.b,.c{fill:url(#b);}.c{opacity:0.05;}.d{fill:#3f3f43;}.e{fill:#202027;}.f{fill:#101010;}.g{fill:#697182;}.ad,.aj,.al,.an,.ao,.ap,.aq,.av,.h{mix-blend-mode:multiply;isolation:isolate;}.i,.v{fill:url(#d);}.j{fill:#46495f;}.k{fill:#0094c4;}.l{fill:url(#f);}.m{fill:#414a5c;}.n{fill:url(#g);}.o{fill:url(#h);}.p{fill:url(#i);}.q{fill:#f17e59;}.r{fill:url(#k);}.s{fill:url(#l);}.t{fill:#fff;}.u{fill:url(#m);}.v{opacity:0.27;}.w{fill:url(#o);}.x{fill:url(#p);}.y{fill:#202735;}.z{fill:url(#q);}.aa{fill:#c2c9cd;}.ab{fill:url(#r);}.ac{fill:url(#s);}.ad{fill:url(#t);}.ae{fill:#c4c8cd;}.af{fill:#333b4b;}.ag{fill:url(#u);}.ah{fill:#3c4456;}.ai,.aj{fill:url(#v);}.ak{fill:#f9cab8;}.al{fill:url(#x);}.am{fill:#ffbda4;}.an{fill:url(#y);}.ao{opacity:0.6;fill:url(#z);}.ap{fill:url(#aa);}.aq{fill:url(#ab);}.ar{fill:url(#ac);}.as{fill:url(#ad);}.at{fill:url(#ae);}.au{fill:url(#af);}.av{fill:url(#ag);}</style><linearGradient id="a" x1="0.41" y1="1" x2="0.43" gradientUnits="objectBoundingBox"><stop offset="0" stop-color="#191920"/><stop offset="0.443" stop-color="#dbdfe1" stop-opacity="0.18"/><stop offset="1" stop-color="#191920"/></linearGradient><linearGradient id="b" x1="0.856" y1="1.019" x2="0" y2="-0.859" gradientUnits="objectBoundingBox"><stop offset="0" stop-color="#202027"/><stop offset="0.498" stop-color="#656565"/><stop offset="1" stop-color="#202027"/></linearGradient><linearGradient id="d" y1="0.5" x2="1" y2="0.5" gradientUnits="objectBoundingBox"><stop offset="0" stop-color="#fff"/><stop offset="1" stop-color="#c4c8cd"/></linearGradient><linearGradient id="f" x1="0.142" y1="0.544" x2="0.599" y2="0.488" gradientUnits="objectBoundingBox"><stop offset="0" stop-color="#fff"/><stop offset="1" stop-color="#07a3d5"/></linearGradient><linearGradient id="g" y1="0.5" x2="1" y2="0.5" gradientUnits="objectBoundingBox"><stop offset="0" stop-color="#fff"/><stop offset="1" stop-color="#46495f"/></linearGradient><linearGradient id="h" x1="0.194" y1="0.621" x2="1.583" y2="0.062" gradientUnits="objectBoundingBox"><stop offset="0" stop-color="#fff"/><stop offset="1" stop-color="#0094c4"/></linearGradient><linearGradient id="i" x1="-0.222" y1="1.716" x2="0.461" y2="0.762" gradientUnits="objectBoundingBox"><stop offset="0" stop-color="#fff"/><stop offset="1" stop-color="#00afe8"/></linearGradient><linearGradient id="k" x1="0.541" y1="0.458" x2="0.598" y2="0.531" gradientUnits="objectBoundingBox"><stop offset="0" stop-color="#fff"/><stop offset="1" stop-color="#ba654b"/></linearGradient><linearGradient id="l" x1="0.042" y1="1.011" x2="0.535" y2="0.534" xlink:href="#k"/><linearGradient id="m" x1="0.001" y1="0.5" x2="1" y2="0.5" xlink:href="#d"/><linearGradient id="o" x1="0.504" y1="1.036" x2="0.497" y2="0.505" xlink:href="#k"/><linearGradient id="p" x1="0" y1="0.5" x2="1" y2="0.5" xlink:href="#k"/><linearGradient id="q" x1="0.225" y1="0.962" x2="0.497" y2="0.314" xlink:href="#k"/><linearGradient id="r" x1="0.519" y1="0.95" x2="0.496" y2="0.45" gradientUnits="objectBoundingBox"><stop offset="0" stop-color="#fff"/><stop offset="1" stop-color="#d8dcdf"/></linearGradient><linearGradient id="s" x1="0.517" y1="1.148" x2="0.499" y2="0.306" xlink:href="#r"/><linearGradient id="t" x1="0.647" y1="0.272" x2="0.526" y2="0.501" xlink:href="#g"/><linearGradient id="u" x1="0.342" y1="1.051" x2="0.583" y2="0.206" xlink:href="#r"/><linearGradient id="v" y1="0.5" x2="1" y2="0.5" gradientUnits="objectBoundingBox"><stop offset="0" stop-color="#fff"/><stop offset="1" stop-color="#697182"/></linearGradient><linearGradient id="x" x1="0.705" y1="0.191" x2="0.393" y2="0.539" gradientUnits="objectBoundingBox"><stop offset="0" stop-color="#fff"/><stop offset="1" stop-color="#f9cab8"/></linearGradient><linearGradient id="y" y1="0.5" x2="1" y2="0.5" gradientUnits="objectBoundingBox"><stop offset="0" stop-color="#fff"/><stop offset="1" stop-color="#ffbda4"/></linearGradient><linearGradient id="z" x1="0.5" y1="0.138" x2="0.5" y2="0.774" xlink:href="#h"/><linearGradient id="aa" x1="0" y1="0.5" x2="1" y2="0.5" xlink:href="#x"/><linearGradient id="ab" x1="0.807" y1="0.471" x2="0.358" y2="0.525" xlink:href="#x"/><linearGradient id="ac" x1="0.5" y1="0.864" x2="0.479" y2="-3.059" gradientUnits="objectBoundingBox"><stop offset="0" stop-color="#202027"/><stop offset="1" stop-color="#c4c8cd"/></linearGradient><linearGradient id="ad" x1="0.084" y1="0.582" x2="3.334" y2="-1.506" gradientUnits="objectBoundingBox"><stop offset="0" stop-color="#202027"/><stop offset="1" stop-color="#d8dcdf"/></linearGradient><linearGradient id="ae" x1="0.324" y1="-1.314" x2="0.376" y2="-0.777" xlink:href="#v"/><linearGradient id="af" x1="0.518" y1="1.098" x2="0.499" y2="0.295" xlink:href="#r"/><linearGradient id="ag" x1="0.941" y1="0.846" x2="0.137" y2="0.064" xlink:href="#x"/></defs><g transform="translate(-250.469 -110.003)"><g transform="translate(813.914 153.732)"><path class="a" d="M485.9,446.021H588.262V137.749L485.9,134.679Z" transform="translate(-485.899 -134.679)"/><path class="b" d="M542.141,443.671h99.741V139.357l-99.741-2.992Z" transform="translate(-407.541 -132.329)"/></g><path class="c" d="M595.242,596.672l280.476,42.534V121.195L595.242,159.322Z" transform="translate(480.357 0.267)"/><g transform="translate(618.71 225.187)"><path class="d" d="M404.335,343.112l117.349-2.722V168.635l-117.349-4.1Z" transform="translate(-404.335 -164.535)"/><path class="e" d="M409.77,321.962l91.339-2.119V173.354l-91.339-3.191Z" transform="translate(-396.763 -156.696)"/></g><g transform="translate(1169.468 227.598)"><path class="f" d="M634.465,242.724l51.476,1.153V165.543l-51.476,4.412Z" transform="translate(-634.465 -165.543)"/><path class="e" d="M636.776,233.712l40.061.746V168.129l-40.061,3.281Z" transform="translate(-631.246 -161.94)"/></g><g transform="translate(1107.869 470.083)"><path class="g" d="M785.639,267.974c-16.011-29.059-37.615-16.482-43.48-9.066-53.427,67.559-125.926,76.242-136.765,120.306-5.863,23.839,5.449,85.566,103.64,93.9,102,8.649,131.976-63.012,112.7-111.794S801.65,297.03,785.639,267.974Z" transform="translate(-604.13 -249.732)"/><g class="h" transform="translate(0.005 118.383)"><path class="i" d="M730.348,381.113c-105.48,9.118-124.708-45.613-125.519-68.069-4.36,25.512,9.578,83.122,104.2,91.149,97.358,8.257,129.082-56.648,115.008-105C817.881,371.985,741.378,380.163,730.348,381.113Z" transform="translate(-604.132 -299.197)"/></g><g class="h" transform="translate(22.673 35.886)"><path class="i" d="M759.4,297.537c-.816-43.394-23.65-39.709-58.283-12.371s-45.56,41.293-66.808,40.776-22.746,14.582-19.249,18.708c19.259,22.714,76.079,30.583,113.751,26.266,19.467-2.23,40.049-27.561,54.411-24.55C783.221,346.367,760.062,332.653,759.4,297.537Z" transform="translate(-613.604 -264.726)"/></g><g transform="translate(102.259 3.083)"><path class="j" d="M743.139,318.541a279.55,279.55,0,0,0-13.383-35.647l-2.022-4.32-2.176-4.246c-.706-1.424-1.508-2.8-2.274-4.2s-1.556-2.774-2.393-4.131c-.807-1.369-1.642-2.726-2.554-4.033-.866-1.335-1.821-2.613-2.762-3.9a40.447,40.447,0,0,0-6.445-7.05l-.182.239c4.392,4.487,7.544,10.047,10.59,15.523a188.51,188.51,0,0,1,8.1,17.05c4.956,11.583,9.135,23.49,13.089,35.475l6.16,17.961c2.075,5.978,4.143,11.957,5.983,18a171.782,171.782,0,0,1,4.595,18.363,88.393,88.393,0,0,1,1.682,18.739,59.813,59.813,0,0,1-3.394,18.268,65.463,65.463,0,0,1-8.841,16.286,96.83,96.83,0,0,1-12.569,13.811c-2.326,2.092-4.65,4.183-7.086,6.16a48.456,48.456,0,0,1-7.491,5.368,88.164,88.164,0,0,1-17.038,7.472,130.664,130.664,0,0,1-18.21,4.571,160.023,160.023,0,0,1-37.634,2.31l-.029.3a137.813,137.813,0,0,0,38.043-.285c12.579-1.938,25.158-5.2,36.487-11.6a50.33,50.33,0,0,0,7.912-5.672c2.482-2.013,4.853-4.16,7.184-6.352A99.9,99.9,0,0,0,749.2,428.578a64.348,64.348,0,0,0,8.8-17.172,59.283,59.283,0,0,0,2.769-19.022c-.237-12.842-3.518-25.225-6.948-37.392C750.354,342.8,746.736,330.672,743.139,318.541Z" transform="translate(-646.858 -251.02)"/></g><g transform="translate(95.394 13.745)"><path class="j" d="M645.831,319.367c.158-.232.34-.45.5-.682-.031-.259-.072-.541-.093-.785Z" transform="translate(-641.423 -168.501)"/><path class="j" d="M705.347,299.236c-1.9,14.742-1.812,29.626-2.757,44.395-.275,3.686-.579,7.376-1.1,11.023l-.395,2.733c-.163.9-.349,1.79-.538,2.68a20.2,20.2,0,0,1-.754,2.525,5.589,5.589,0,0,1-1.414,2c-2.537,2.36-5.919,4-9.157,5.686-3.3,1.642-6.656,3.221-9.982,4.911a118.241,118.241,0,0,0-19.115,11.933,72.1,72.1,0,0,0-15.738,16.53l-.038.06a2.231,2.231,0,0,0-.366,1.407,43.652,43.652,0,0,0,1.663,8.565,63.411,63.411,0,0,0,2.987,7.982,62.171,62.171,0,0,0,9.063,14.271c.871,1.1,1.9,2.075,2.843,3.114l1.455,1.522c.51.479,1.051.931,1.575,1.393l3.161,2.752,3.379,2.47a63.1,63.1,0,0,0,7.058,4.4c2.436,1.307,4.985,2.4,7.474,3.54l.2-.4c-2.283-1.529-4.65-2.874-6.871-4.432l-3.245-2.448c-.541-.407-1.1-.787-1.627-1.2l-1.524-1.333-3.037-2.654-2.79-2.9c-.457-.486-.936-.955-1.379-1.453l-1.271-1.551c-.828-1.043-1.747-2.015-2.5-3.111a64.033,64.033,0,0,1-7.821-13.776,59.071,59.071,0,0,1-2.58-7.45c-.3-1.271-.642-2.539-.85-3.817-.211-.981-.352-1.994-.459-2.939-.16.232-.342.45-.5.682l.407-1.467c.021.244.062.527.093.785A76.3,76.3,0,0,1,662.862,390.5a139.386,139.386,0,0,1,18.031-12.352l9.551-5.677c1.6-.962,3.2-1.939,4.76-3a24.551,24.551,0,0,0,4.442-3.688,7.854,7.854,0,0,0,1.642-2.578,21.5,21.5,0,0,0,.728-2.822l.486-2.779.364-2.769,1.276-11.064c1.718-14.738,3.942-29.406,5.148-44.127,1.369-14.723,2.862-29.372,4.868-44.072l-.44-.1C709.356,269.717,707.027,284.5,705.347,299.236Z" transform="translate(-643.989 -255.475)"/></g><g transform="translate(14.757 19.59)"><path class="j" d="M728.5,268.443c-1.69,3.372-3.475,6.68-5.454,9.879a177.812,177.812,0,0,1-13.156,18.328q-7.219,8.7-14.9,17.045a221.92,221.92,0,0,1-16.128,16.02c-2.836,2.518-5.808,4.885-8.855,7.134a52.751,52.751,0,0,1-9.614,5.785,50.175,50.175,0,0,1-5.413,1.532c-1.855.469-3.719.972-5.562,1.56a58.094,58.094,0,0,0-10.767,4.569,54.624,54.624,0,0,0-17.373,15.752A83.956,83.956,0,0,0,610.44,386.77l-.012.038a2.118,2.118,0,0,0-.132.771,52.279,52.279,0,0,0,1.017,9.252,73.461,73.461,0,0,0,2.245,8.879,68.076,68.076,0,0,0,7.907,16.451,61.5,61.5,0,0,0,12.189,13.448,55.492,55.492,0,0,0,7.412,5.141,61.939,61.939,0,0,0,8.017,4l.2-.4a82.945,82.945,0,0,1-7.366-4.863c-1.187-.859-2.317-1.788-3.422-2.745-1.139-.907-2.175-1.936-3.252-2.905a64.966,64.966,0,0,1-5.794-6.474A73.55,73.55,0,0,1,624.6,420.2a70.07,70.07,0,0,1-6.725-15.815,69.184,69.184,0,0,1-1.917-8.379c-.242-1.412-.421-2.831-.563-4.248-.136-1.254-.239-2.573-.273-3.755-.053.139-.11.273-.163.414l.146-.809c0,.124.012.266.017.395a90.171,90.171,0,0,1,9.669-19.467,56.361,56.361,0,0,1,15.537-15.477,53.121,53.121,0,0,1,9.87-5.138c3.485-1.429,7.1-2.374,10.793-3.808a38.246,38.246,0,0,0,5.079-2.893c1.618-1.041,3.181-2.154,4.729-3.276,3.121-2.219,6.124-4.583,9.137-6.936,12.029-9.413,23.645-19.661,33.034-31.9,2.36-3.04,4.655-6.136,6.747-9.379a108.23,108.23,0,0,0,5.89-9.956,87.2,87.2,0,0,0,4.681-10.581,65.994,65.994,0,0,0,2.867-11.172l-.44-.1A87.42,87.42,0,0,1,728.5,268.443Z" transform="translate(-610.296 -257.917)"/><path class="j" d="M612.246,312.916c.053-.141.11-.275.163-.414,0-.129-.015-.27-.017-.395Z" transform="translate(-607.579 -182.417)"/></g><g transform="translate(16.897 146.727)"><path class="j" d="M611.19,311.341l.531,4.475c21.712-2.575,79.178,13.766,79.755,13.931l1.242-4.332C690.321,324.731,633.8,308.663,611.19,311.341Z" transform="translate(-611.19 -311.04)"/></g></g><g transform="translate(1059.252 412.932)"><g transform="translate(54.961 135.879)"><path class="k" d="M701.969,283.263c-13.4-3.65-46.881,9.3-66.8,16.5-25.019,9.049-39.931,23.334-17.114,36.136,10.636,5.969,49.787-5.923,73.873-.151s32.656-4.672,35.59-12.208C734.711,305.082,715.361,286.913,701.969,283.263Z" transform="translate(-606.781 -282.628)"/></g><g transform="translate(55.653 165.184)"><path class="k" d="M607.07,308.786s14.654,38.953,35.48,86.437c0,0,13.919,2.108,23.911-5.536,0,0-10.272-77.783-21.463-92.928C639.085,288.759,607.07,308.786,607.07,308.786Z" transform="translate(-607.07 -294.872)"/></g><g class="h" transform="translate(67.773 163.279)"><path class="l" d="M612.847,307.013c-3.92,13.606,8.982,58.158,22.647,89.319,0,0,13.919,2.108,23.911-5.536,0,0-10.272-77.783-21.463-92.928C634.178,292.774,617.648,290.342,612.847,307.013Z" transform="translate(-612.134 -294.076)"/></g><g transform="translate(62.754 239.4)"><path class="m" d="M661.147,325.883s-18.342,12.679-29.112,12.651c0,0,10.25,22.951,5.464,28.379a30.023,30.023,0,0,1-20.41,9.824c-8.25.543-7.658,7.24-6.127,8.068s19.127,6.562,26.857,3.75,9.006-3.121,11.447-2.319,12.481,2.221,16.071-1.848.529-10.451-1.271-13.211C662.719,369.115,665.565,350.081,661.147,325.883Z" transform="translate(-610.037 -325.883)"/></g><g class="h" transform="translate(62.866 292.841)"><path class="n" d="M650.188,350.707c-2.64-.634-3.994-.242-12.287,3.142-7.378,3.028-23.289-.28-27.817-1.548a2.073,2.073,0,0,0,.811,1.391c1.529.83,19.134,6.56,26.859,3.75s9.006-3.116,11.447-2.319,12.481,2.221,16.063-1.845a7.152,7.152,0,0,0,1.687-5.064C662.767,352.009,652.71,351.327,650.188,350.707Z" transform="translate(-610.084 -348.213)"/></g><g transform="translate(45.982 173.064)"><path class="k" d="M603.029,384.528s8.348,10.59,20.908,11.354c0,0,21.731-37.256,29.667-63.294,4.423-14.5,8.216-21.836,8.216-21.836L630.47,298.165S612.016,364.97,603.029,384.528Z" transform="translate(-603.029 -298.165)"/></g><g class="h" transform="translate(46.722 177.271)"><path class="o" d="M638.677,310.693c-7.359,12.914-8.01,30.466-14.826,44.445A90.513,90.513,0,0,1,609.8,375.476c-2.175,2.467-4.38,4.913-6.462,7.46,2.293,2.532,9.788,9.867,20.168,10.5,0,0,21.731-37.256,29.667-63.294,4.423-14.5,8.216-21.836,8.216-21.836l-20.867-8.379A15.314,15.314,0,0,1,638.677,310.693Z" transform="translate(-603.338 -299.923)"/></g><g transform="translate(73.361 139.891)"><path class="k" d="M721.663,284.819c-13.591-2.831-68.177,6.562-87.617,14.958-24.425,10.545-26.149,24.591-4.3,33.23,11.342,4.485,43.4,4.128,71.525,5.887,29.435,1.838,37.155-9.513,39.628-17.21C746.954,302.828,735.254,287.65,721.663,284.819Z" transform="translate(-614.469 -284.304)"/></g><g class="h" transform="translate(83.053 139.891)"><path class="p" d="M716.02,284.818c-8.1-1.687-30.78.969-51.89,5.169.234.369,28.647,21.456-3.159,21.456-19.9,0-37.708,6.033-42.452,18.966a53.986,53.986,0,0,0,5.583,2.6c11.342,4.485,43.4,4.128,71.525,5.887,29.435,1.838,37.155-9.513,39.628-17.21C741.312,302.828,729.612,287.65,716.02,284.818Z" transform="translate(-618.519 -284.304)"/></g><g transform="translate(0 241.415)"><path class="m" d="M636.071,326.725s-11.349,33.5-18.189,35.853-17.14,2.657-24.583-.948-10.236,2.511-9.312,3.982,13.385,15.157,21.5,16.533,9.369,1.735,11.1,3.638,9.752,8.1,14.884,6.33,5.744-8.833,5.421-12.11,24.495-38.448,24.495-38.448S654.312,331.854,636.071,326.725Z" transform="translate(-583.816 -326.725)"/></g><g class="h" transform="translate(0.001 278.695)"><path class="n" d="M619.621,360.732c-1.982-1.862-3.355-2.19-12.237-3.343-7.912-1.012-20.108-11.748-23.42-15.087a2.063,2.063,0,0,0,.022,1.608c.917,1.479,13.392,15.154,21.5,16.53s9.367,1.742,11.1,3.64,9.752,8.1,14.879,6.328a7.149,7.149,0,0,0,3.968-3.566C629.912,368.073,621.507,362.515,619.621,360.732Z" transform="translate(-583.816 -342.302)"/></g><g transform="translate(46.722)"><g transform="translate(148.059 97.072)"><path class="q" d="M666.067,281.632c5.509,11.6,12.273,24.7,22.039,20.967s2.551-22.312.452-28.353C682.961,258.14,660.56,270.037,666.067,281.632Z" transform="translate(-665.203 -266.413)"/></g><g class="h" transform="translate(148.058 97.074)"><path class="r" d="M685.036,292.592c-1.883-2.477-3.887-5.208-4.777-8.238a19.6,19.6,0,0,1-.493-5.026c-.048-1.656-.416-3.334-.524-5.011-.187-2.908,2.109-5.447,4.8-6.292-8.379-5.516-22.466,4.143-17.971,13.606,5.509,11.6,12.273,24.7,22.039,20.967a6.88,6.88,0,0,0,3.638-3.114A38.89,38.89,0,0,1,685.036,292.592Z" transform="translate(-665.203 -266.413)"/></g><g transform="translate(0 81.066)"><path class="q" d="M669.437,259.991a61.227,61.227,0,0,0-21.163,32.261c-11.294,6.785-15.724,18.136-23.155,23.27,0,0-15.446,2.64-18.2,4.217s-4.624,9.779-2.941,12.517c.653,1.063,3.327,1.615,4.98.294,0,0,.218,4.061,5.471,2.692,0,0,.594,3.322,4.375,2.561,0,0,4.482,1.962,7.2-.1s6.251-10.971,12.308-14.115,18.05-7.666,22.975-13.175,5.741-8.484,8.1-12.318c3.611-5.88,7.194-8.577,14.584-24.978S669.437,259.991,669.437,259.991Z" transform="translate(-603.338 -259.725)"/><g class="h" transform="translate(0)"><path class="s" d="M669.437,259.991a61.145,61.145,0,0,0-16.975,20.994,13.308,13.308,0,0,1,6.567,2.494c5.531,4.092,5.761,12.014,1.967,17.251-3.238,4.463-7.01,6.488-12.182,10.344-7.386,5.5-13.16,9.81-13.881,11.727-1.089,2.9-6.871,6.639-9.717,7.74s-3.58-.031-6.395-1.259a39.393,39.393,0,0,1-9.011-5.248,12.079,12.079,0,0,1-3.26-4.037c-2.551,2.051-4.181,9.647-2.575,12.261.653,1.063,3.327,1.615,4.98.294,0,0,.218,4.061,5.471,2.692,0,0,.594,3.322,4.375,2.561,0,0,4.482,1.962,7.2-.1s6.251-10.971,12.309-14.115,18.05-7.666,22.975-13.175,5.741-8.484,8.1-12.318c3.611-5.88,7.194-8.577,14.584-24.978S669.437,259.991,669.437,259.991Z" transform="translate(-603.338 -259.725)"/></g></g><g transform="translate(47.865 45.091)"><path class="t" d="M637.117,269.141a9.845,9.845,0,0,0-.821,1.426Z" transform="translate(-605.284 -210.63)"/><path class="t" d="M738.576,279.748c-2.523-8.467-1.223-16.791-23.325-26.546s-15.31-3.257-29.473-7.733-23.36,11.842-34.743,12.538c-11.533.708-27.7,45.745-27.7,45.745s13.4,6,26.56,8.611l4.452-7.733c.443-.914-2.061,5.311-1.053,9.726,1.515,6.617-1.886,10,.376,14.166s1.948,6.182-.78,10.056c0,0,14.091,1.512,19.768,11.87s25.684,4.557,42.238,8.417,17.861,14.934,16.064-9.078c-1.01-13.507,3.355-13.488-2.793-29.961,0,0,21.111-8.115,19.55-17.648C747.72,302.18,740.651,286.707,738.576,279.748Z" transform="translate(-623.338 -244.693)"/><g transform="translate(0 14.603)"><path class="u" d="M637.429,269.141a11.751,11.751,0,0,0-1.357,2.69Z" transform="translate(-605.596 -225.233)"/><path class="v" d="M725.425,282.8c-1.73-7.129,1.659-14.812-10.3-11.909-3.437.833-33.809.653-43.646-2.252-7.046-2.08-5.993-15.59-13.022-17.741-4.121-1.261-10.774,9.812-15.022,10.679-3.87.79,1.295,18.045-6.268,18.031-4.234-.01,1.615,4.363,2.216,8.568,1.862,13.048-16.047,7.079-16.047,7.079s13.945,6.225,27.1,8.836l3.372-6.694c.629-1.706-1.324,4.913-.517,8.463,1.515,6.617-1.886,10,.376,14.166s1.948,6.182-.78,10.056c0,0,14.091,1.512,19.768,11.87s25.684,4.557,42.238,8.417,16.475,15.236,16.31-3.4c-4.411.168-8.489-5.9-24.813-2.5-1.817.378,1.733-13.835-3.365-8.288-2.86,3.109-15.731,9.1-17.2,6.249-1.434-2.791,28.618-18.734,23.377-22.341-5.294-3.64-31.146.445-29.064-5.744,2.159-6.421,16.779-7.388,17.442-7.79,16.344-9.894-37.311-13.383-36.961-19.574.4-7.168,31.991-5.476,34.922.1,10.368,19.711,15.532,1.458,24.284,7.855,1.529,1.118,9.372,19.18,8.336,16.394a67.513,67.513,0,0,0,8.592-4.181C735.426,306.19,727.16,289.935,725.425,282.8Z" transform="translate(-623.338 -250.794)"/></g></g><g transform="translate(82.364 36.462)"><path class="q" d="M661.762,241.087s-32.268,11.279-21.987,15.262c6.921,2.683-2.934,13.23,6.519,15.3s24.459-15.554,19.964-20.537A15.737,15.737,0,0,1,661.762,241.087Z" transform="translate(-637.753 -241.087)"/></g><g class="h" transform="translate(82.364 36.462)"><path class="w" d="M661.762,241.087s-32.268,11.279-21.987,15.262a4.089,4.089,0,0,1,1.9,1.378c5.442,2.235,13.778-4.238,17.866-3.157,1.644.436,4.566,3.056,5.954,3.985,1.659-3.059,2.175-5.873.761-7.438A15.737,15.737,0,0,1,661.762,241.087Z" transform="translate(-637.753 -241.087)"/></g><g transform="translate(74.996 13.224)"><path class="q" d="M659.717,231.4c-6.089-.1-22.085.16-22.085.16a62.191,62.191,0,0,0-1.362,9.992c-.117,4.451-1.23,4.212-1.537,6.926s.646,9.626,1.675,12.857.153,10.466,9.123,9.243A24.085,24.085,0,0,0,663.3,258.033s7.859-1.694,7.926-8.18C671.307,242.306,665.807,231.5,659.717,231.4Z" transform="translate(-634.674 -231.377)"/></g><g class="h" transform="translate(77.632 13.224)"><path class="x" d="M658.182,231.4c-6.089-.1-22.085.16-22.085.16s-.136.605-.321,1.565a21.666,21.666,0,0,1,3.035-.235c23.5,0,22.92,35.245.938,37.507a10.145,10.145,0,0,0,4.248.18,24.085,24.085,0,0,0,17.772-12.545s7.859-1.694,7.926-8.18C669.772,242.306,664.273,231.5,658.182,231.4Z" transform="translate(-635.776 -231.377)"/></g><g transform="translate(74.71)"><path class="y" d="M652.071,227.1c-17.61-5.222-18.17,7.433-17.253,11.205s1.711,9.537,1.711,9.537c.431-3.075,1.28-7.874,1.28-7.874s6.256,3.762,11.99.85c6.517-3.312,10.159-.893,10.471,4.169.859,14,5.141,10.2,5.457,9.3s5.358-3.753,5.157,1.513a13.5,13.5,0,0,1-4.169,8.769c8.661,3.724,6.383-6.483,9.6-13.065s3.719-9.082-2.46-18.507S660.706,229.658,652.071,227.1Z" transform="translate(-634.555 -225.852)"/></g><g transform="translate(76.535 119.615)"><g transform="translate(0 0.001)"><path class="q" d="M715.227,276.387c-15.027,2.86-35.279,17.521-41.173,16.762s-11.48-5.734-14.027-4.607a17.44,17.44,0,0,1-7.527,1.515c-7.149-.184-2.862,3.4-2.862,3.4-.775.206-8.405,2.448-8.405,2.448-6.189-.3-7.287,5.624-4.382,4.483s17.655-1.929,17.655-1.929c-3.2,2.489.792,6,.792,6-3.343,4.246,1.29,6.227,1.29,6.227-1.508,4.533,8.037,5.268,13.656,1.249s13.72-7.108,34.391-9.149,26.34-12.629,28.925-16.389C736.252,282.48,730.254,273.525,715.227,276.387Z" transform="translate(-635.318 -275.832)"/></g><g class="h"><path class="z" d="M715.227,276.388c-15.027,2.86-35.279,17.521-41.173,16.762s-11.48-5.734-14.027-4.607a17.439,17.439,0,0,1-7.527,1.515c-7.149-.184-2.862,3.4-2.862,3.4-.775.206-8.405,2.448-8.405,2.448-6.189-.3-7.287,5.624-4.382,4.482s17.655-1.929,17.655-1.929c-3.2,2.489.792,6,.792,6-3.343,4.246,1.29,6.227,1.29,6.227-1.218,3.659,4.772,4.842,10.083,3.047a32.583,32.583,0,0,1-2.551-3.614,10.648,10.648,0,0,1-2.149-2.324c-.962-1.41-1.443-3.063-2.458-4.435-1.946-2.635-.534-6.835,1.867-8.568,2.482-1.793,6.627-1.972,8.743.656.519.641,5.449,1.845,7.333,2.6.73.294,47.884-20.974,50.086-21.108C724.494,275.816,720.4,275.4,715.227,276.388Z" transform="translate(-635.318 -275.832)"/></g></g></g><g transform="translate(25.138 100.378)"><g transform="translate(11.006 57.149)"><path class="g" d="M598.918,294.53l82.607,5.231,65.564-4.53-82.49-3.558Z" transform="translate(-598.918 -291.673)"/></g><g transform="translate(93.496 60.672)"><path class="m" d="M633.386,296l.208,3.054a.619.619,0,0,0,.715.479l64.479-4.408c.227-.017.39-.285.369-.6l-.093-1.378Z" transform="translate(-633.386 -293.145)"/></g><g transform="translate(83.83)"><path class="g" d="M633.487,271.985c-.409-2.518-1.321-4.27-4.14-4.188l10.317,64.97s3.473-.785,3.013-4.054C642.292,325.979,635.694,285.5,633.487,271.985Z" transform="translate(-629.347 -267.794)"/></g><g transform="translate(0 0.016)"><path class="aa" d="M677.63,267.8l-81.641,2.3a1.814,1.814,0,0,0-1.639,2.142l10.411,55.645,85.231,3.951-9.908-62.115A2.318,2.318,0,0,0,677.63,267.8Z" transform="translate(-594.319 -267.801)"/></g><g transform="translate(2.209 3.472)"><path class="ab" d="M674.1,269.246l-77.273,1.872a1.716,1.716,0,0,0-1.56,2.022l9.853,52.817,80.7,3.741-9.405-58.628A2.2,2.2,0,0,0,674.1,269.246Z" transform="translate(-595.242 -269.245)"/></g><g class="h" transform="translate(0 0.016)"><path class="ac" d="M677.63,267.8l-81.641,2.3a1.814,1.814,0,0,0-1.639,2.142l3.08,16.468c8.709,2.613,13.646-6.232,22.461-3.059,11.329,4.081,14.749,14.589,24.528,20.434,28.037,16.758,39.577-10.8,39.721-10.935l-4.056-25.426A2.318,2.318,0,0,0,677.63,267.8Z" transform="translate(-594.319 -267.801)"/></g><g transform="translate(10.581 60.119)"><path class="g" d="M598.742,295.264a.4.4,0,0,0,.371.424l83.465,4.167a1.017,1.017,0,0,0,1.079-.842l.249-2.154-85.023-3.944Z" transform="translate(-598.741 -292.914)"/></g></g></g><g transform="translate(1236.692 260.717)"><path class="f" d="M662.554,275.8l64.3,1.441V179.381l-64.3,3.217Z" transform="translate(-662.554 -179.381)"/><path class="e" d="M665.44,264.54l50.046.933V182.613l-50.046,1.806Z" transform="translate(-658.532 -174.879)"/></g><g transform="translate(542.663 511.648)"><g transform="translate(0 0)"><path class="g" d="M383.06,312l21.509,187.3,16.546-6.906-20.849-182.4Z" transform="translate(-357.929 -248.335)"/><path class="ad" d="M384.421,336.835l.3,2.6a19.241,19.241,0,0,1,9.745,14.431L404.7,447.956a16.586,16.586,0,0,1-6.337,14.824l4.751,37.689,16.1-8.077-20.848-182.4Z" transform="translate(-356.033 -248.335)"/><path class="ae" d="M495.373,284.375s-58.821,7.154-78.654,10.5C404.3,296.968,370.6,304.967,372.649,322.6s9,68.978,9,68.978,9.525-21.027,43.28-25.218c29.325-3.64,67.71-9.6,78.889-11.356,1.745-.273,2.965-1.886,11.985-.093l-6.232-62.6C508.852,286.172,502.335,283.564,495.373,284.375Z" transform="translate(-372.559 -284.231)"/><path class="af" d="M497.727,286.851l-77.85,11.6s-43.916,3.465-41.075,27.874c2.056,17.634,4.8,65.231,4.8,65.231s10.061-20.991,44.735-25.026c29.4-3.427,66.927-8.936,77.651-10.533a3.112,3.112,0,0,0,2.635-3.444l-7.335-62.983A3.118,3.118,0,0,0,497.727,286.851Z" transform="translate(-364.046 -280.628)"/><path class="ag" d="M382.389,301.87l-7.565,2.9a2.768,2.768,0,0,0-1.759,2.905l7.955,68.322a2.77,2.77,0,0,0,3.834,2.228l7.529-3.2a2.764,2.764,0,0,0,1.666-2.87l-7.919-68.014A2.772,2.772,0,0,0,382.389,301.87Z" transform="translate(-371.881 -259.911)"/></g><g transform="translate(41.415 185.95)"><path class="ah" d="M558.322,378.106c-5.457-6.56-19.311-10.722-34.3-10.31l-93.7,2.585c-16.76.462-30.4,6.5-32.366,14.312l-7.848,31.249c-2.544,10.133,15.243,18.842,36.947,18.093l126.065-4.358c23.238-.8,38.191-11.918,29.724-22.094Z" transform="translate(-389.865 -353.791)"/><path class="y" d="M558.322,374.771c-5.457-6.56-19.311-10.724-34.3-10.31l-93.7,2.585c-16.76.459-30.4,6.493-32.366,14.309L390.107,412.6c-2.544,10.135,15.243,18.844,36.947,18.1l126.065-4.36c23.238-.8,38.191-11.916,29.724-22.095Z" transform="translate(-389.865 -358.439)"/><path class="ae" d="M558.322,372.269c-5.457-6.562-19.311-10.727-34.3-10.312l-93.7,2.585c-16.76.462-30.4,6.493-32.366,14.309L390.107,410.1c-2.544,10.135,15.243,18.845,36.947,18.1l126.065-4.361c23.238-.8,38.191-11.916,29.724-22.092Z" transform="translate(-389.865 -361.928)"/><path class="ai" d="M546.22,371.88c-4.94-5.938-17.481-9.7-31.05-9.331l-84.815,2.338c-15.173.419-27.52,5.878-29.3,12.955l-7.1,28.286c-2.3,9.173,13.8,17.057,33.446,16.379l114.11-3.947c21.037-.728,34.573-10.789,26.907-20Z" transform="translate(-384.473 -361.099)"/><path class="aj" d="M390.107,398.481c-2.544,10.135,15.243,18.844,36.947,18.1l78.87-2.728c-88.254-19.211-100.73-39.582-108.73-43.581Z" transform="translate(-389.865 -350.31)"/></g></g><g transform="translate(581.579 381.75)"><path class="ak" d="M399.737,321.072c-4.77,11.911-20.965,48.492-1.733,56.878s34.006-17.253,46.128-39.984S412.453,289.3,399.737,321.072Z" transform="translate(-388.82 -123.612)"/><path class="al" d="M408.1,309.017c5.308,1.948,9.673,7.249,9.03,13.065-.373,3.353-1.264,6.682-1.517,10-.261,3.42-.326,6.742-1.458,10.023-2.063,5.993-6.33,11.279-10.341,16.068a77.926,77.926,0,0,1-14.084,13.2,13.82,13.82,0,0,0,7,6.579c19.235,8.386,34.008-17.253,46.128-39.984C452.75,319.415,425.409,298.743,408.1,309.017Z" transform="translate(-387.549 -123.609)"/><g transform="translate(161.901 156.937)"><path class="am" d="M515.6,304.418s-18.107,34.64-8.668,76.936C492.853,403.738,495.2,428.075,486.547,444c0,0-25.273,18.718-28.774,24.04s.579,21.695,6.074,25.074c2.132,1.312,7.419-.122,9.188-3.982,0,0,4.064,7.072,12.227-.134,0,0,4.071,5.409,10.157.62,0,0,9.805-.55,12.794-6.7s1.259-25.309,9.257-36.428,25.373-30.076,29.2-44.4,2.6-20.391,3.343-29.389c1.141-13.8,5.112-21.877,3.489-57.938S515.6,304.418,515.6,304.418Z" transform="translate(-456.47 -295.529)"/><path class="an" d="M515.6,304.418s-11.646,22.307-11.378,52.965a26.742,26.742,0,0,1,14.02-1.481c13.608,2.319,21.2,16.3,19.141,29.109-1.75,10.925-6.67,17.966-12.44,29.557-8.238,16.542-14.68,29.487-14.23,33.572.677,6.184-6.292,18.11-10.384,22.655-4.116,4.569-6.44,3.19-12.6,3.544a79.1,79.1,0,0,1-20.884-1.235,24.307,24.307,0,0,1-9.5-4.279c-2.709,5.986,1.247,21.061,6.5,24.287,2.132,1.312,7.419-.122,9.188-3.982,0,0,4.064,7.072,12.227-.134,0,0,4.071,5.409,10.157.62,0,0,9.805-.55,12.794-6.7s1.259-25.309,9.257-36.428,25.373-30.076,29.2-44.4,2.6-20.391,3.343-29.389c1.141-13.8,5.112-21.877,3.489-57.938S515.6,304.418,515.6,304.418Z" transform="translate(-456.467 -295.529)"/></g><path class="k" d="M599.3,286.948c-22.24-3.719-48.128-28.367-76.936-20.711S507.787,261.5,462.573,279s-43.378,34.312-49.225,51.048c-4.806,13.756-20.417,44.12-20.417,44.12-4.013,18.959,37.555,37.191,37.555,37.191-13.857,32.45-5.1,32.814-8.386,59.8-5.835,47.966,10.937,52.506,10.937,52.506s-13.127-26.615,20.417-32.814,73.107,7.292,85.454-12.945S581.8,459.484,581.8,459.484c.378-8.233-8.446-6.806-3.789-16.044s-.586-22.968,3.061-36.1,7.335-25.976,7.335-25.976l5.059,20.508c26.618-4.011,61.44-22.24,61.44-22.24s-4.772-27.243-12.976-48.574C632.291,305.986,621.548,290.667,599.3,286.948Z" transform="translate(-383.472 -181.446)"/><path class="ao" d="M628.167,334.472a44.64,44.64,0,0,1-24.536,6.143c-15.166-.672,15.451-7.4,19.486-32.026a68.62,68.62,0,0,0-11.588-22.262c-8.034,3.341-33.295-12.3-41.669-10.152-14.295,3.662-19.67,35.75-33.991,39.266-19.991,4.909-80.887,2.446-87.7.455-23.7-6.928-17.617,8.788-21.75,22.915-4.14,14.151-22.219,45.965-24.99,47.76a135.326,135.326,0,0,0,16.841,9.178c-2.343,5.483,15.063-29.99,18.229-32.086,18.139-12.014,26.795,25.057,49.409-13.493,6.395-10.9,69.871-11.356,70.012,3.049.122,12.445-125.646,23.425-90.522,38.795,8.7,3.805,22.6,1.591,26.891,7.608,7.6,10.671-52.675-4.794-63.622,2.015-10.849,6.744,74.705,54.932,71.575,60.389-3.2,5.586-28.448-7.625-33.888-14.123-9.707-11.591-3.915,17.229-7.52,16.3-32.4-8.34-41.147,3.449-49.971,2.7-2.065,37.34,11.959,41.142,11.959,41.142s-13.127-26.615,20.417-32.814,73.107,7.292,85.453-12.945,42.894-18.414,42.894-18.414c.378-8.233-8.446-6.806-3.789-16.044s-.586-22.968,3.061-36.1,7.335-25.976,7.335-25.976l3.954,20.91c26.618-4.014,62.545-22.643,62.545-22.643S631.3,354.449,628.167,334.472Z" transform="translate(-371.255 -165.839)"/><path class="ak" d="M452.469,259.67c-.51,2.187-.445,10.119-9.228,19.689s17.6,46.307,35.36,43.026.337-25.342,13.445-30.076C511.511,285.28,452.469,259.67,452.469,259.67Z" transform="translate(-315.428 -188.552)"/><path class="ap" d="M452.468,259.67c-.51,2.187-.445,10.119-9.228,19.689-3.25,3.542-1.68,10.8,2.482,18.375a45.618,45.618,0,0,1,25.754-7.41,46.474,46.474,0,0,1,18.064,3.439,8.153,8.153,0,0,1,2.506-1.455C511.509,285.28,452.468,259.67,452.468,259.67Z" transform="translate(-315.426 -188.552)"/><path class="ak" d="M513.148,263.006a124.755,124.755,0,0,0-1.8-20.158s-32.041-2.006-44.256-2.372-24.246,20.785-24.794,35.916c-.469,13.007,15.13,17.138,15.13,17.138,4.193,10.028,16.592,23.516,34.458,26.8s16.774-11.3,19.144-17.684,4.921-20.146,4.557-25.615S512.964,271.94,513.148,263.006Z" transform="translate(-314.334 -215.301)"/><path class="aq" d="M485.637,248.5c6.072,1.355,15.089,4.009,26.567.215-.438-3.458-.862-5.868-.862-5.868s-32.041-2-44.256-2.369-24.246,20.785-24.794,35.916c-.469,13.007,15.13,17.138,15.13,17.138,4.193,10.028,16.592,23.516,34.458,26.8,17.361,3.188,16.827-10.473,18.957-17.1-2.9,5.313-4.562,17.77-18.289,12.244-13.9-5.6-23.432-19.086-23.432-28.618C469.117,266.026,475.823,246.306,485.637,248.5Z" transform="translate(-314.334 -215.301)"/><path class="af" d="M491.6,231.794c-17.547,4.329-30.945-8.522-44.208,9.8s-12.488,23.382-6.656,36.873.321,33.742,18.028,27.08c0,0-7.634-7.39-7.546-17.964s9.937-4.375,10.482-2.554,8.778,9.853,11.806-18.138c1.094-10.119,8.613-14.63,21.374-7.383,11.222,6.371,24.112-.594,24.112-.594s1.259,9.7,1.836,15.9c0,0,2.13-11.483,4.317-18.957S527.387,222.963,491.6,231.794Z" transform="translate(-322.074 -229.954)"/></g><path class="ar" d="M321.928,466.794l811.036,7.028V350.869l-811.036,87.69Z" transform="translate(99.561 320.261)"/><path class="as" d="M250.469,409.533l137.051,59.74L1270.735,362.68,1042.318,333.4Z" transform="translate(0 295.916)"/><g transform="translate(675.72 523.978)"><g transform="translate(0.203 127.459)"><path class="m" d="M428.241,363.481l141.265,10.512L751.02,358.28,629.249,342.64Z" transform="translate(-428.241 -342.64)"/></g><g transform="translate(0 148.215)"><path class="e" d="M428.16,354.515c-.045.735.311,1.357.8,1.4l138.924,10.226a1.343,1.343,0,0,0,1.544-1.106l.45-7.084-141.513-6.634Z" transform="translate(-428.156 -351.313)"/></g><g transform="translate(133.675)"><g transform="translate(0 4.862)"><path class="m" d="M503.348,301.528c-4.566,31.4-18.431,126.8-19.249,133.311-.977,7.8,6.517,9.319,6.517,9.319L512.1,291.414C506.107,291.577,504.193,295.7,503.348,301.528Z" transform="translate(-484.011 -291.414)"/></g><g transform="translate(3.311)"><path class="ah" d="M687.216,289.384l-175.938,4.83a5.363,5.363,0,0,0-5.193,4.717l-20.69,146.036L671.561,426.79l19.373-132.639C691.3,291.672,689.465,289.322,687.216,289.384Z" transform="translate(-485.395 -289.383)"/></g><g transform="translate(9.527 7.294)"><path class="at" d="M679.139,292.432l-166.673,5.191a5.09,5.09,0,0,0-4.9,4.473L487.992,440.115l176.3-17.212,18.39-125.959C683.025,294.588,681.281,292.365,679.139,292.432Z" transform="translate(-487.992 -292.43)"/></g><g class="h" transform="translate(15.615)"><path class="au" d="M680.053,289.384l-175.938,4.83a5.363,5.363,0,0,0-5.193,4.717l-8.386,59.192c.309.306,25.474,63.716,85.822,21.13,21.039-14.845,28.037-39.864,52.477-50.735,19.036-8.47,30.33,11.648,49.263,4.483l5.675-38.85C684.136,291.672,682.3,289.322,680.053,289.384Z" transform="translate(-490.536 -289.383)"/></g><g transform="translate(3.154 137.47)"><path class="m" d="M485.329,364.954l.548,5.093a2.135,2.135,0,0,0,2.331,1.9l182.474-18.438a.953.953,0,0,0,.8-1.055l-.455-5.629Z" transform="translate(-485.329 -346.823)"/></g></g></g><g transform="translate(582.337 609.518)"><path class="ak" d="M564.388,368.957s-5.076-1.347-6.613-1.833c0,0,8.927-6.79-5.421-7.086a35.011,35.011,0,0,1-14.948-3.733c-5-2.5-16.657,6.955-28.544,7.929s-51.122-30.3-80.981-37.428S385.169,337.07,390.2,345.166c4.834,7.778,15.212,29.526,56.459,35.54s57.194,12.959,68.088,21.537,30.09,7.989,27.489-1.235c0,0,9.475-3.542,3.166-12.366,0,0,8.324-6.653,2.147-11.942,0,0,19.488-.909,25.2,1.649S576.82,368.933,564.388,368.957Z" transform="translate(-389.137 -325.124)"/><path class="av" d="M556.23,368.958s-5.076-1.347-6.613-1.833c0,0,8.927-6.79-5.421-7.086a35.01,35.01,0,0,1-14.948-3.733c-5-2.5-16.657,6.955-28.544,7.929s-51.122-30.3-80.981-37.428c-10.269-2.455-18.524-2.005-24.732-.031,4.4.469,96.944,47.485,98.439,46.965,3.844-1.34,13.838-3.293,14.939-4.533,4.49-5.074,12.778-4.329,17.588-.5,4.645,3.7,7.089,12.246,2.941,17.344-2.159,2.657-3.276,5.928-5.335,8.664a21.327,21.327,0,0,1-4.528,4.459,64.769,64.769,0,0,1-5.447,7.005c10.478,4.095,22.592,2.281,20.491-5.167,0,0,9.475-3.542,3.166-12.366,0,0,8.324-6.653,2.147-11.942,0,0,19.488-.909,25.2,1.649S568.663,368.934,556.23,368.958Z" transform="translate(-380.98 -325.125)"/></g><path class="e" d="M307.734,474.091,1190.95,365.4V345.631L307.734,452.225Z" transform="translate(79.786 312.964)"/><path class="t" d="M558.632,230.8h-8.326V121h-4.851V230.8h-8.326l-41.712,40.171a5.387,5.387,0,0,0,3.738,9.267h97.453a5.387,5.387,0,0,0,3.736-9.267Z" transform="translate(338.961 -11)"/><path class="t" d="M646.639,230.8h-8.326V121h-4.854V230.8h-8.326l-41.712,40.171a5.387,5.387,0,0,0,3.738,9.267h97.453a5.387,5.387,0,0,0,3.738-9.267Z" transform="translate(461.573 -11)"/></g></svg>