<svg xmlns="http://www.w3.org/2000/svg" xmlns:xlink="http://www.w3.org/1999/xlink" width="196.162" height="126.218" viewBox="0 0 196.162 126.218"><defs><style>.a{fill:#eff1fe;}.b{fill:#dcdffe;}.c{fill:#efefef;}.d{fill:#44465f;}.e{fill:#4a63fe;}.f{fill:#7c87ed;}.g{fill:#333649;}.h{fill:#fff;}.i{fill:#ef8fc5;}.j{fill:#3855e5;}.k{fill:#fe4e1c;}.l{fill:#dbd9d9;}.m{fill:#ff9dca;}.n{fill:url(#a);}.o{fill:#95a3f4;}.p{fill:#6878d8;}.q{fill:#ce3815;}</style><linearGradient id="a" y1="0.5" x2="1" y2="0.5" gradientUnits="objectBoundingBox"><stop offset="0" stop-color="#ffc06c"/><stop offset="1" stop-color="#f2a040"/></linearGradient></defs><g transform="translate(8.624 -15.138)"><g transform="translate(-0.414 15.138)"><path class="a" d="M28.952,118.535S15.1,118.129,9.5,107.261c-4.4-8.548-1.941-21.1,16.531-24.435C37.525,80.755,17.3,57.952,42.1,52.446s24.569-30.075,49.02-34.914,24.493,29.577,46.384,33.216,37.346,13.225,31.98,31.111,6.958,18.581,8.8,26.574-3.36,10.106-3.36,10.106Z" transform="translate(-7.62 -6.17)"/><path class="b" d="M120.675,70.5a16.668,16.668,0,0,0,3.423-2.831c-5.8-.905-16.3-3-12.818-5.866,2.367-1.95,7.027-.583,11.1,1.273a4.208,4.208,0,0,0,5.758-2.52l.021-.064a1.277,1.277,0,0,0-1.1-1.663c-5.955-.541-16.468-1.915-13.565-4.724,2.246-2.17,8.024-.9,12.654.628a2.557,2.557,0,0,0,3.356-2.324v-.047a1.015,1.015,0,0,0-.941-1.053c-4.867-.352-12.241-1.38-10.7-4.369,1.025-1.985,4.531-1.64,8.067-.667a2.5,2.5,0,0,0,3.126-2.738l-.007-.049a1.067,1.067,0,0,0-1.112-.924c-3.219.148-7.723.031-7.353-1.792.182-.9,1.408-1.219,3-1.245a3.9,3.9,0,0,0,3.713-4.875c-.856-3.282-1.631-5.377-1.631-5.377s-2.534.234-6.239.987a2.652,2.652,0,0,0-1.907,3.632c.632,1.523.8,3.135-.34,4.348-2.031,2.168-3.145-2.359-3.641-5.385a.973.973,0,0,0-1.248-.775l-.056.018a3.72,3.72,0,0,0-2.29,5.025c.652,1.521.786,3.113-.512,4.218-2.259,1.927-3.489-2.775-4.041-5.93a.494.494,0,0,0-.7-.357l-.063.031a4.463,4.463,0,0,0-1.393,6.925c1.938,2.262,3.377,4.9,2.372,7.125-1.574,3.492-5.568-3.039-7.927-7.5a1.228,1.228,0,0,0-1.974-.28q-.1.107-.2.215a4.011,4.011,0,0,0,.013,5.466c1.713,1.827,3.069,4.1,2.457,6.4-.793,2.979-3.238.242-5.194-2.664a.943.943,0,0,0-1.725.452C90.175,64.387,106.394,79.435,120.675,70.5Z" transform="translate(41.002 3.176)"/><path class="c" d="M112.868,67.291a.133.133,0,0,0,.092-.249c-.09-.033-8.984-3.358-12.594-7.939,1.084-1.174,2.182-2.408,3.276-3.671l.021-.013a.131.131,0,0,0,.031-.047c.674-.778,1.345-1.568,2.01-2.36,2.337,3.148,6.4,4.571,9.421,5.21a29.661,29.661,0,0,0,6.135.636.133.133,0,0,0-.007-.265c-.11,0-10.985.209-15.374-5.789,1.282-1.532,2.54-3.074,3.739-4.574l.018-.012a.131.131,0,0,0,.031-.049c.7-.876,1.382-1.738,2.036-2.574,2.584,3.756,10.156,4.744,10.477,4.783a.133.133,0,1,0,.033-.264c-.079-.01-7.868-1.024-10.338-4.74.878-1.124,1.7-2.2,2.474-3.2a.13.13,0,0,0,.037-.048c.467-.612.91-1.2,1.325-1.746,2.351,2.113,9.087,1.869,9.15,1.86a.132.132,0,0,0,.113-.148.136.136,0,0,0-.148-.118c-.064.006-6.738.222-8.958-1.809,2.146-2.85,3.506-4.744,3.554-4.81a.133.133,0,0,0-.216-.155c-.057.08-2.01,2.8-4.942,6.642-2.62-3.716-3.073-9.465-3.077-9.523a.133.133,0,0,0-.265.019c0,.014.029.371.11.959.251,1.833,1.015,5.905,3.064,8.765-1.353,1.772-2.905,3.771-4.571,5.856-3.964-4.127-6-11-6.024-11.068a.133.133,0,0,0-.259.055.149.149,0,0,0,0,.019c.021.07,2.085,7.03,6.112,11.2-1.838,2.3-3.81,4.692-5.8,6.994-6.17-6.6-7.715-12.814-7.727-12.876a.133.133,0,1,0-.261.049s0,.009,0,.013c.015.063,1.572,6.351,7.816,13.018-1.718,1.982-3.445,3.891-5.11,5.6-4.8-4.6-4.84-7.136-4.84-7.168a.133.133,0,1,0-.266,0,1.512,1.512,0,0,0,.017.216c.1.713.741,3.153,4.9,7.146A50.685,50.685,0,0,1,92.5,66.179a.133.133,0,0,0,.159.213,51.314,51.314,0,0,0,5.694-5.17.063.063,0,0,0,.034-.035q.886-.91,1.792-1.888C103.856,63.922,112.778,67.258,112.868,67.291Z" transform="translate(42.1 5.413)"/><path class="d" d="M187.264,74.808H.163A.173.173,0,0,1,0,74.626H0a.173.173,0,0,1,.163-.182h187.1a.173.173,0,0,1,.163.182h0A.173.173,0,0,1,187.264,74.808Z" transform="translate(0.526 37.775)"/><path class="e" d="M113.92,76.759s5.362,2.023,5.337-1.524-1.68-4.427.72-5.761,3.893-1.813,3.467-4.4,5.173-4.774,4.614-7.654-4.907-2.32-6.64-.371-5.894.427-6.667,4.854-1.013,3.84-3.787,6S109.172,75.536,113.92,76.759Z" transform="translate(55.102 23.207)"/><path class="d" d="M111.752,79.093h.019a.426.426,0,0,0,.407-.445,24.2,24.2,0,0,1,1.024-6.9,27.528,27.528,0,0,1,8.628-13.368.426.426,0,1,0-.553-.649,28.377,28.377,0,0,0-8.9,13.815,24.474,24.474,0,0,0-1.046,7.143A.426.426,0,0,0,111.752,79.093Z" transform="translate(56.553 24.895)"/><path class="f" d="M115.935,75.857s-4.691,1.77-4.67-1.334,1.47-3.873-.63-5.041-3.41-1.586-3.033-3.85-4.527-4.176-4.037-6.7,4.294-2.03,5.81-.327,5.156.371,5.833,4.247.89,3.36,3.314,5.25S120.09,74.787,115.935,75.857Z" transform="translate(50.585 24.558)"/><path class="d" d="M114.814,77.975a.426.426,0,0,0,.425-.407,21.473,21.473,0,0,0-.917-6.267,24.882,24.882,0,0,0-7.807-12.113.426.426,0,1,0-.553.649A24.033,24.033,0,0,1,113.494,71.5a21.112,21.112,0,0,1,.895,6.028.426.426,0,0,0,.407.445Z" transform="translate(52.334 26.013)"/><path class="d" d="M109.631,78.384h8.324a.8.8,0,0,0,.784-.655l1.312-7.25a.8.8,0,0,0-.784-.938H108.319a.8.8,0,0,0-.784.938l1.312,7.251a.8.8,0,0,0,.784.655Z" transform="translate(53.643 34.02)"/><path class="d" d="M55.536,76.761A17.462,17.462,0,0,0,59,66.318v-.844H74.009v.844a17.46,17.46,0,0,0,3.467,10.441Z" transform="translate(13.827 30.905)"/><rect class="g" width="136.217" height="84.065" rx="1.322" transform="translate(12.225 12.642)"/><rect class="h" width="125.172" height="71.417" transform="translate(17.747 18.188)"/><circle class="f" cx="1.8" cy="1.8" r="1.8" transform="translate(134.917 91.357)"/><path class="g" d="M108.392,75.753a5.255,5.255,0,0,0-.044-1.242c-.256-1.649-1.265-2.767-2.372-2.767H45.753c-1.107,0-2.116,1.118-2.372,2.767a5.256,5.256,0,0,0-.044,1.242c.036.438.29.758.578.758h63.9C108.1,76.511,108.356,76.191,108.392,75.753Z" transform="translate(4.469 35.707)"/><path class="i" d="M44.161,38.051l-1.485-.691s-.41-1.688.335-1.739C43.631,35.578,44.161,38.051,44.161,38.051Z" transform="translate(-0.11 4.77)"/><path class="j" d="M30.392,47.335l10.579,4.849a3.28,3.28,0,0,0,3.14-.223l12.528-8.25-1.875-3.753L42.746,46.306l-8.561-4" transform="translate(-14.847 10.023)"/><rect class="g" width="12.425" height="60.779" transform="matrix(-0.399, 0.917, -0.917, -0.399, 60.604, 49.98)"/><path class="b" d="M51.01,45.655l2.479-5.7L65.162,51.814,48.53,51.352Z" transform="translate(7.115 10.023)"/><path class="k" d="M0,0H12.426V6.254A2.608,2.608,0,0,1,9.818,8.862H2.608A2.608,2.608,0,0,1,0,6.254V0Z" transform="matrix(-0.399, 0.917, -0.917, -0.399, 4.875, 25.725)"/><rect class="l" width="12.425" height="2.308" transform="matrix(-0.399, 0.917, -0.917, -0.399, 6.99, 26.647)"/><path class="g" d="M59.042,47.451,53.585,47.3l1.627-3.738Z" transform="translate(13.234 14.385)"/><path class="m" d="M32.748,36.579l-.554,5.713,5.261.111.435-2.688Z" transform="translate(-12.665 5.931)"/><path class="i" d="M32.444,36.579l.791,2.513,4.188,1.635.163-1.012Z" transform="translate(-12.362 5.931)"/><path class="m" d="M33.23,33.5l-.889,9.165,5.372.768a1.827,1.827,0,0,0,2.267-1c.39-.974,1.176-8.748,1.176-8.748Z" transform="translate(-12.486 2.207)"/><path class="d" d="M35.417,41.062s-.607,1.752-3.482,2.877c0,0,.845-3.923.545-4.941s-.634-4.767,1.441-4.918c0,0,1.709-3.07,4.584-1.692s3.372,2.494,5.656,2.366c0,0-1,2.844-3.117,2.691s-2.592.39-2.592.39l-1.294,1.752s-.419-1.182-1.5-.771S35.417,41.062,35.417,41.062Z" transform="translate(-12.978 0.425)"/><path class="e" d="M35.161,72.037l-.319,4.911a.384.384,0,0,0,.383.408H43.8a.292.292,0,0,0,.215-.491c-.4-.434-1.353-1.038-3.591-1.3L40.4,72.9Z" transform="translate(-9.459 48.861)"/><path class="e" d="M26.01,70.346l-2.81,4.04a.384.384,0,0,0,.117.548l7.34,4.427a.292.292,0,0,0,.438-.309c-.121-.579-.623-1.588-2.4-2.97l1.353-2.293Z" transform="translate(-23.638 46.814)"/><path class="d" d="M32.11,53.078l9.251,21.827-4.3,22.365L45.411,98l5.253-23.216a9.261,9.261,0,0,0-.431-5.475c-2.078-5.212-7.185-16.519-7.191-16.513Z" transform="translate(-12.766 25.559)"/><path class="d" d="M36.532,53.486,35.114,72.278,23.461,92.117l6.724,4.356L43.2,76.441a10.7,10.7,0,0,0,1.663-4.665c.593-5.428,2.332-18.854,2.325-18.854Z" transform="translate(-23.237 25.717)"/><path class="e" d="M36.206,38.63s-4.391.708-6.942,6.867S30.3,72.058,30.3,72.058l17.776-1.9s-2.538-11.115-2.506-11.489c.907-9.877,1.385-15.611-2.777-18.766Z" transform="translate(-17.321 8.415)"/><path class="m" d="M41.307,43.46a5.989,5.989,0,0,0,1.455-.584c.521-.344,1.448-1.493,2.042-1.084s-.866,1.751-.866,1.751a4.655,4.655,0,0,0,1.913-.283c1.106-.383,2.559-1.1,3.036-.813s.33,2.568-2.366,3.385a18.365,18.365,0,0,1-5.383.708Z" transform="translate(-1.834 12.138)"/><path class="e" d="M29.642,45.175l9.187,7.151a3.28,3.28,0,0,0,3.107.5l14.09-5.151L55.06,43.6,41.9,47.012l-7.413-5.86" transform="translate(-15.755 11.467)"/><path class="i" d="M43.029,36.71a16.238,16.238,0,0,1,0,3.03c-.176,1.042,1,1.564,1.913,1.5s1.589-1.466,1.707-2.8S44.324,35.96,43.029,36.71Z" transform="translate(0.433 5.801)"/><path class="d" d="M31.158,44.158q1.9,1.347,3.752,2.752c.621.464,1.234.938,1.85,1.408.153.114.311.244.457.346a2.947,2.947,0,0,0,.475.274,3.132,3.132,0,0,0,2.142.173c.172-.049.354-.118.536-.186l.547-.2c.731-.258,1.46-.522,2.193-.774q2.195-.768,4.415-1.469-2.145.9-4.315,1.741c-.721.284-1.448.557-2.172.835l-.545.2c-.18.067-.361.138-.557.2a3.37,3.37,0,0,1-2.4-.194,3.309,3.309,0,0,1-.528-.31c-.171-.122-.311-.24-.464-.362-.6-.485-1.213-.966-1.812-1.457Q32.924,45.675,31.158,44.158Z" transform="translate(-13.919 15.107)"/><path class="d" d="M33.132,42.175c.4.269.793.557,1.191.835s.784.567,1.17.858.773.581,1.157.874.764.593,1.145.889l-.16-.033c.519-.139,1.04-.266,1.56-.4s1.043-.255,1.566-.377,1.047-.239,1.572-.352,1.051-.221,1.582-.313c-.509.177-1.021.331-1.535.5s-1.028.31-1.545.458-1.034.29-1.552.432-1.037.278-1.557.41l-.093.022-.07-.057c-.377-.3-.757-.6-1.129-.909s-.749-.612-1.114-.928-.742-.625-1.1-.941S33.486,42.507,33.132,42.175Z" transform="translate(-11.53 12.707)"/><path class="f" d="M73.1,69.486c-8.726,0-15.826-7.467-15.826-16.646S64.374,36.2,73.1,36.2a.519.519,0,1,1,0,1.038c-8.154,0-14.788,7-14.788,15.608S64.946,68.449,73.1,68.449a.519.519,0,1,1,0,1.038Z" transform="translate(15.158 8.48)"/><rect class="h" width="2.712" height="2.712" transform="translate(90.206 77.447) rotate(135)"/><path class="f" d="M67.176,57.8l-2.127-2.127,2.127-2.127L69.3,55.674Zm-1.7-2.127,1.7,1.7,1.7-1.7-1.7-1.7Z" transform="translate(21.113 21.771)"/><path class="f" d="M57.794,62.522A.519.519,0,0,1,57.275,62V45.808a.519.519,0,1,1,1.038,0V62a.519.519,0,0,1-.519.519Z" transform="translate(15.158 15.445)"/><path class="f" d="M57.794,53.063a.519.519,0,0,1-.519-.519v-16.2a.519.519,0,0,1,1.038,0v16.2a.519.519,0,0,1-.519.519Z" transform="translate(15.158 8.199)"/><rect class="f" width="3.525" height="3.525" transform="translate(75.444 61.253) rotate(135)"/><rect class="h" width="2.712" height="2.712" transform="translate(90.206 45.195) rotate(135)"/><path class="f" d="M67.176,39.538l-2.127-2.127,2.127-2.127L69.3,37.412Zm-1.7-2.127,1.7,1.7,1.7-1.7-1.7-1.7Z" transform="translate(21.113 7.783)"/><circle class="f" cx="2.099" cy="2.099" r="2.099" transform="translate(70.853 75.349)"/><circle class="f" cx="2.099" cy="2.099" r="2.099" transform="translate(70.853 42.447)"/><rect class="h" width="36.698" height="27.59" transform="translate(122.237 0.445)"/><path class="f" d="M85.478,30.778l17.036-14.213L113.338,34.59H85.478Z" transform="translate(36.759 -6.554)"/><path class="e" d="M97.578,22.829,103.16,17.8l9.749,12.572v3.265h-8.838Z" transform="translate(46.027 -5.606)"/><circle class="n" cx="3.51" cy="3.51" r="3.51" transform="translate(125.453 5.911)"/><path class="b" d="M122.369,39.376h-36.7a.445.445,0,0,1-.445-.445V11.341a.445.445,0,0,1,.445-.445h36.7a.445.445,0,0,1,.445.445V38.932A.445.445,0,0,1,122.369,39.376Zm-36.252-.89h35.808v-26.7H86.116Z" transform="translate(36.566 -10.896)"/><path class="o" d="M84.159,40.406H98.366l-2.294-2.256H79.037Z" transform="translate(31.826 9.977)"/><path class="f" d="M84.161,53.981l-5.124-3.41V38.149l5.122,2.256Z" transform="translate(31.826 9.977)"/><rect class="p" width="20.463" height="13.575" transform="translate(115.985 50.382)"/><path class="q" d="M101.232,40.1l-.176,9.139a2.35,2.35,0,0,1-3,1.978l-9.5-2.813.489-3.515,7.732,1.52-.124-3.385" transform="translate(39.114 11.47)"/><path class="m" d="M81.475,44.481s-1.62.964-2.817.173c-.479-.314-.579-1.357-.116-2.283,0,0,.649-1.371,1.715-.986a10.224,10.224,0,0,1,1.993,1.466Z" transform="translate(31.217 12.403)"/><path class="k" d="M91.552,72.037,91.3,75.96a.307.307,0,0,0,.306.326h6.847a.233.233,0,0,0,.172-.392,4.566,4.566,0,0,0-2.869-1.042l-.02-2.127Z" transform="translate(41.215 35.932)"/><path class="k" d="M91.782,72.137l-.593,3.746a.307.307,0,0,1-.306.326H84.036a.234.234,0,0,1-.172-.392,4.566,4.566,0,0,1,2.869-1.042l.492-2.175Z" transform="translate(35.476 36.008)"/><path class="d" d="M95.5,51.331l-7.619.5L84.9,89.8h6.844s2.965-33.527,3.986-33.728" transform="translate(36.318 20.073)"/><path class="d" d="M90.254,56.479c.434-.035.607,32.961.955,32.892s7.168.107,7.168.107-.823-37.731-.807-37.731-3.775.158-7.008,0" transform="translate(40.417 20.391)"/><path class="k" d="M87.6,41.438a2.214,2.214,0,0,1,1.974-1.631,49.086,49.086,0,0,1,8.8.122,2.722,2.722,0,0,1,2.669,2.162L99.824,53.433l1.418,8.874a22.678,22.678,0,0,1-5.829.829,77.715,77.715,0,0,1-8.585-.829s.351-4.343,1.339-9.757c.455-2.5-2.382-4.335-2.036-5.652C85.432,46.628,87.027,43.253,87.6,41.438Z" transform="translate(37.126 11.141)"/><path class="d" d="M94.58,43.588c-.026.573-.074,1.145-.105,1.717s-.085,1.143-.134,1.714c-.095,1.142-.206,2.282-.322,3.422V50.4c.182,1.151.359,2.3.519,3.457.082.577.159,1.155.233,1.733s.148,1.157.2,1.738c-.125-.57-.231-1.143-.348-1.715s-.216-1.145-.318-1.719c-.207-1.147-.4-2.3-.583-3.447V50.41c.121-1.139.245-2.278.387-3.415q.1-.853.222-1.7C94.414,44.722,94.485,44.155,94.58,43.588Z" transform="translate(43.076 14.142)"/><path class="k" d="M93.216,40.086,89.47,44.794l-8.747-2-1.288,3.686,9.307,3.157a2.669,2.669,0,0,0,2.695-.385l5.93-4.772" transform="translate(32.131 11.46)"/><path class="d" d="M92.958,43.588q-1.116.98-2.268,1.915c-.381.315-.769.621-1.154.932l-.291.231c-.1.074-.191.153-.3.231a2.3,2.3,0,0,1-1.5.407,2.466,2.466,0,0,1-.389-.063c-.13-.034-.247-.074-.363-.113-.468-.159-.938-.313-1.4-.477q-1.4-.481-2.789-1.017,1.438.371,2.859.8c.475.138.947.287,1.42.43.119.036.236.074.346.1a2.182,2.182,0,0,0,.342.053,2.121,2.121,0,0,0,1.311-.357c.187-.134.388-.3.583-.445.394-.3.786-.6,1.186-.89Q91.739,44.432,92.958,43.588Z" transform="translate(34.481 14.142)"/><path class="m" d="M93.715,37.454l-.288,4.27a.834.834,0,0,1-.9.775l-2.512-.214a.834.834,0,0,1-.76-.9l.222-2.621Z" transform="translate(39.647 9.445)"/><path class="m" d="M94.173,42.748l-3.8-.178a2.183,2.183,0,0,1-1.942-2.316l.426-6.382,6.815,1.1.047,4.626s-.459,1.016-1.371.6Z" transform="translate(39.015 6.701)"/><path class="d" d="M91.731,38.721s1.071-.756,1.764,0-.819,1.512-1.449,2.016c0,0,.931,4.044,2.224,3.6A4.919,4.919,0,0,0,97.4,41.784c1.374-2.2.862-6.079-.315-7.33-1.649-1.749-5.494-1.4-5.494-1.4a2.481,2.481,0,0,0-2.887-1.134c-1.766.509-2.015,3.771.846,4.961C89.554,36.879,92.046,36.082,91.731,38.721Z" transform="translate(38.223 5.114)"/><path class="d" d="M95.936,33.872S97.6,34.644,98.1,37.4s-.567,3.09,1.2,5.381,2.331,3.867,1.449,6.894-3.027,3.8-4.28,2.772-2.273,1.071-4.225.815-3.276-1.827-2.142-3.529-.252-4.474.063-5.545-.986-4.225.126-5.041S95.936,33.872,95.936,33.872Z" transform="translate(39.979 6.701)"/><circle class="m" cx="1.38" cy="1.38" r="1.38" transform="translate(129.347 43.458)"/><path class="m" d="M80.448,42.922s-.311-2.139-.764-2.047-.45,1.157-.45,1.157l.859.969Z" transform="translate(31.977 12.062)"/><rect class="n" width="10.73" height="10.73" rx="1.323" transform="translate(33.539 21.385)"/><rect class="j" width="10.73" height="10.73" rx="1.323" transform="translate(44.122 21.385)"/><rect class="k" width="10.73" height="10.73" rx="1.323" transform="translate(54.852 21.385)"/><rect class="b" width="10.73" height="10.73" rx="1.323" transform="translate(65.582 21.385)"/></g></g></svg>