<svg xmlns="http://www.w3.org/2000/svg" xmlns:xlink="http://www.w3.org/1999/xlink" width="155.356" height="123" viewBox="0 0 155.356 123"><defs><style>.a{fill:#fcb3b3;}.b{clip-path:url(#a);}.c{fill:#e8ecfa;}.d{fill:#fcfdfe;}.e{fill:#fec95c;}.f{fill:#aebbed;}.g{fill:#fa4a56;}.h{fill:#c8d1f3;}.i{fill:#0c61ea;}.j{fill:#ff9134;}.k{fill:#121c7c;}.l{fill:#4f5cd3;}.m{fill:#fff;}.n{fill:#212785;}.o{fill:#6870f2;}.p{fill:#3f47c7;}.q{fill:url(#b);}.r{fill:url(#c);}.s{fill:url(#d);}.t{fill:#eaeafa;}.u{fill:url(#e);}.v{fill:url(#f);}.w{fill:url(#g);}.x{fill:#fc8e8e;}.y{fill:url(#h);}.z{fill:rgba(0,0,0,0.13);}</style><clipPath id="a"><rect class="a" width="123" height="123" transform="translate(636 130)"/></clipPath><linearGradient id="b" x1="-31.11" y1="0.219" x2="-31.139" y2="0.938" gradientUnits="objectBoundingBox"><stop offset="0" stop-color="#f788a8"/><stop offset="1" stop-color="#ff4d7b"/></linearGradient><linearGradient id="c" x1="-251.266" y1="-0.358" x2="-251.266" y2="-0.282" xlink:href="#b"/><linearGradient id="d" x1="-245.658" y1="-0.369" x2="-245.658" y2="-0.292" xlink:href="#b"/><linearGradient id="e" x1="-75.882" y1="0.501" x2="-76.88" y2="0.501" xlink:href="#b"/><linearGradient id="f" x1="-96.991" y1="0.5" x2="-97.99" y2="0.5" xlink:href="#b"/><linearGradient id="g" x1="-102.793" y1="1.839" x2="-101.044" y2="1.059" xlink:href="#b"/><linearGradient id="h" x1="-32.055" y1="0.972" x2="-31.499" y2="0.785" xlink:href="#b"/></defs><g transform="translate(-645.644 -130)"><g class="b" transform="translate(42)"><g transform="translate(637.802 130)"><path class="c" d="M.277,123H89.242L88.965,0H0Z"/><rect class="d" width="60.416" height="33.27" transform="translate(13.417 83.411)"/><rect class="e" width="60.416" height="6.083" transform="translate(13.417 6.469)"/><rect class="d" width="60.416" height="27.188" transform="translate(13.417 12.552)"/><rect class="e" width="60.416" height="6.083" transform="translate(13.417 44.73)"/><rect class="d" width="60.416" height="27.188" transform="translate(13.417 50.813)"/><rect class="f" width="49.553" height="2.151" transform="translate(18.845 55.039)"/><rect class="c" width="49.553" height="2.151" transform="translate(18.845 31.229)"/><rect class="g" width="49.553" height="2.151" transform="translate(18.845 20.584)"/><rect class="h" width="49.553" height="2.151" transform="translate(18.845 15.064)"/><rect class="g" width="26.944" height="2.151" transform="translate(18.845 61.004)"/><rect class="c" width="26.944" height="2.151" transform="translate(18.845 66.482)"/><rect class="f" width="26.944" height="2.151" transform="translate(18.845 71.96)"/><rect class="f" width="19.231" height="2.151" transform="translate(18.845 87.159)"/><rect class="c" width="19.231" height="2.151" transform="translate(18.845 98.971)"/><rect class="c" width="19.231" height="2.151" transform="translate(18.845 110.784)"/><rect class="f" width="19.231" height="2.151" transform="translate(18.845 104.878)"/><rect class="c" width="19.231" height="2.151" transform="translate(18.845 93.065)"/><rect class="c" width="17.988" height="13.098" transform="translate(50.41 61.004)"/><path class="i" d="M54.371,87.771a10.132,10.132,0,0,1,7.343,3.159l1.924-1.924a12.855,12.855,0,0,0-18.106-.428L47.457,90.5a10.082,10.082,0,0,1,6.915-2.731Z" transform="translate(1.138 2.126)"/><path class="g" d="M64.143,97.825a10.082,10.082,0,0,1-2.731,6.906l1.924,1.924a12.846,12.846,0,0,0-.092-17.769L61.32,90.809a10.082,10.082,0,0,1,2.823,7.015Z" transform="translate(1.533 2.222)"/><path class="e" d="M61.817,104.344a10.082,10.082,0,0,1-14.451.437l-1.924,1.924a12.855,12.855,0,0,0,18.307-.437Z" transform="translate(1.136 2.609)"/><path class="f" d="M44.329,97.835a10.132,10.132,0,0,1,3.259-7.443l-1.923-1.925a12.854,12.854,0,0,0-.1,18.643l1.924-1.924a10.132,10.132,0,0,1-3.159-7.351Z" transform="translate(1.04 2.212)"/><path class="e" d="M116.988,84.729,104.612,72.3H92.623l.092,48.889H117.08Zm-5.335,25.012a5.067,5.067,0,1,1,.017-.034Z" transform="translate(2.316 1.808)"/><path class="j" d="M104.41,84.7h12.376L104.393,72.3Z" transform="translate(2.61 1.808)"/><circle class="j" cx="1.277" cy="1.277" r="1.277" transform="translate(15.358 8.234)"/><circle class="j" cx="1.277" cy="1.277" r="1.277" transform="translate(20.13 8.234)"/><circle class="j" cx="1.277" cy="1.277" r="1.277" transform="translate(24.902 8.234)"/><circle class="j" cx="1.277" cy="1.277" r="1.277" transform="translate(15.358 46.495)"/><circle class="j" cx="1.277" cy="1.277" r="1.277" transform="translate(20.13 46.495)"/><circle class="j" cx="1.277" cy="1.277" r="1.277" transform="translate(24.902 46.495)"/></g></g><g transform="translate(645.644 134.883)"><path class="k" d="M164.872,122.5l-2.663-.037c-.706,3.9-1.891,8.639-4.238,8.684-.928.759,6.949,4.275,7.777,1.132C166.446,129.627,163.655,130.007,164.872,122.5Z" transform="translate(-156.353 -15.785)"/><path class="k" d="M158.23,133.888h8.744a.429.429,0,0,0,.429-.429V131.41a.126.126,0,0,0-.213-.089c-2.521,2.132-4.093-1.506-6.418-1.132-1.751.284-2.617,2.164-2.95,3.129a.429.429,0,0,0,.408.571Z" transform="translate(-157.798 -15.785)"/><path class="k" d="M135.667,122.068h3.422c.348,3.94,1.348,8.531,3.681,8.792.855.839-7.564,3.947-8.093.74C134.223,128.9,136.194,129.657,135.667,122.068Z" transform="translate(-110.037 -15.785)"/><path class="k" d="M130.383,131.151v2.292a.458.458,0,0,0,.458.458H142.51a.458.458,0,0,0,.447-.6c-.328-.992-1.375-2.828-4.584-2.491,0,0-.917,1.641-3.933,1.031S130.477,130.644,130.383,131.151Z" transform="translate(-105.96 -15.785)"/><path class="l" d="M132.555,123.475l3.99.981S143.678,101.44,144,97.447c.241-2.952,4.311-14.715,6.436-20.685.749-2.125,1.261-3.518,1.261-3.518s2.033,21.4.52,27.983.754,22.255.754,22.255h4.859s-2.7-14.263,2.918-35.985c4.417-17.071.493-27.131-1.4-30.656-.1-.176-.188-.339-.27-.486a9.306,9.306,0,0,0-.6-.949H146.057s-.183.325-.523.974c-.085.16-.174.344-.277.546-.784,1.552-2.1,4.288-3.736,8.21-2.056,4.9-2.973,21.332-3.305,29.065a25.125,25.125,0,0,1-1.375,6.977C134.122,109,132.555,123.475,132.555,123.475Z" transform="translate(-127.919 -15.785)"/><path class="m" d="M135.826,57.014c-.1-.179-.188-.339-.273-.488s-.158-.268-.229-.38h-.319c.087.138.19.3.309.513.083.147.174.307.27.484,1.884,3.521,5.792,13.546,1.391,30.557-5.157,19.94-3.282,33.773-2.964,35.776h.28c-.3-1.834-2.23-15.673,2.952-35.709C141.666,70.663,137.726,60.564,135.826,57.014Z" transform="translate(-105.282 -15.785)"/><path class="n" d="M136.237,56.383l.078.021a27.8,27.8,0,0,0,7.286,1.052,15.264,15.264,0,0,0,6.188-1.1,9.31,9.31,0,0,0-.6-.949H136.773S136.576,55.735,136.237,56.383Z" transform="translate(-118.624 -15.785)"/><rect class="o" width="0.438" height="2.544" transform="translate(28.146 42.351) rotate(172.78)"/><rect class="o" width="0.438" height="2.544" transform="translate(22.362 42.392) rotate(-166.16)"/><path class="k" d="M149.439,43.695c-.931-2.521-.332-5.728,0-8.515.406-3.411-.918-6.825-1.3-10.235l-10.535.19c-.413,1.46-.882,2.9-1.322,4.327-1.18,3.825-2.177,8.1-1.249,12.054A11.964,11.964,0,0,0,139,47.981a13.632,13.632,0,0,0,5.959,2.737,5.185,5.185,0,0,0,3.69-.215,4.053,4.053,0,0,0,1.859-3.951A13.983,13.983,0,0,0,149.439,43.695Z" transform="translate(-118.175 -21.883)"/><path class="m" d="M141.366,55.989l1.554-.018a.458.458,0,0,1,.458.458v.809a.458.458,0,0,1-.458.458h-.63l.039,3.158h-.154l-.044-3.163h-.761a.458.458,0,0,1-.458-.458v-.809A.458.458,0,0,1,141.366,55.989Zm-.277,1.263a.293.293,0,0,0,.3.291l1.552-.018a.3.3,0,0,0,.291-.3V56.42a.3.3,0,0,0-.3-.291l-1.554.018a.293.293,0,0,0-.289.3Z" transform="translate(-116.889 -15.785)"/><path class="m" d="M148.077,123.8c.2-1.6,2.008-15.764,4.355-22.565a25.3,25.3,0,0,0,1.4-7.016c.3-7.08,1.231-24.08,3.3-29.019a99.448,99.448,0,0,1,4.52-9.716l-.229-.135a100.036,100.036,0,0,0-4.54,9.746c-2.081,4.983-3.012,22.019-3.316,29.109a24.982,24.982,0,0,1-1.375,6.938c-2.365,6.826-4.178,21.025-4.378,22.62Z" transform="translate(-142.06 -15.785)"/><path class="p" d="M143.09,112.767c.069-5.026,1.272-9.924,1.465-14.942.211-5.455,0-10.926.19-16.386.094-2.684.151-5.37.151-8.056,0-2.141-.259-4.259-.429-6.386-1.939,2.785-2.721,6.278-3.209,9.764.752-2.122,1.261-3.516,1.261-3.516s2.035,21.394.52,27.983.752,22.255.752,22.255h.218a54.518,54.518,0,0,1-.919-10.717Z" transform="translate(-118.752 -15.785)"/><path class="q" d="M132.742,41.27v.138a24.373,24.373,0,0,0,.353,5.077c.034.188.08.374.126.536.023.112.057.213.08.325.06.174.105.337.165.488a2.687,2.687,0,0,0,.19.426,2.134,2.134,0,0,0,.252.44c1.414,1.971,1.146,5.068,1,6.172a.481.481,0,0,0,.346.525c8.847,2.489,13.241.135,13.241.135a25.641,25.641,0,0,1,.229-3.823,2.638,2.638,0,0,1,1.118-2.006c1.194-.749,1.634-3.014,1.788-4.6.105-.956.105-1.675.105-1.675s1.041-6.567-.529-7.589a7.762,7.762,0,0,0-2.7-.472,77.226,77.226,0,0,0-12.271.344c-1.52.183-2.567.438-2.773.731A13.814,13.814,0,0,0,132.742,41.27Z" transform="translate(-117.398 -15.785)"/><path class="r" d="M137.383,35.256l2.459,3.271-1.231,1.405,1.041,1.242-2.269,4.916Z" transform="translate(-109.823 -15.785)"/><path class="s" d="M146.737,35.373l-2.459,3.268,1.231,1.405-1.041,1.242,2.269,4.919Z" transform="translate(-123.611 -15.785)"/><path class="t" d="M135,49.737a10.863,10.863,0,0,1,.442,5.141.481.481,0,0,0,.346.525c8.847,2.489,13.241.135,13.241.135a25.639,25.639,0,0,1,.229-3.823,2.652,2.652,0,0,1,1.077-1.978Z" transform="translate(-117.932 -15.785)"/><path class="t" d="M143.975,35.256l.312,12.936a8.535,8.535,0,0,0-1.776-.3c-1.031.016-1.953.621-2.98.768V35.37C141.107,35.3,142.448,35.247,143.975,35.256Z" transform="translate(-116.415 -15.785)"/><path class="u" d="M151.94,48.682a.38.38,0,0,0,.142-.018v1.989a2.764,2.764,0,0,1-2.764,2.75h-2.734V53a7.575,7.575,0,0,0-1.123-4.307,4.016,4.016,0,0,1-.442-.866c-.06-.151-.108-.309-.163-.481-.028-.11-.062-.229-.083-.33a4.556,4.556,0,0,1-.124-.534,23.774,23.774,0,0,1-.355-5.077v-.149a2.122,2.122,0,0,1,.392.158c.917.144,1.465,1.164,1.834,2.063a13.6,13.6,0,0,0,1.9,3.55A4.229,4.229,0,0,0,151.94,48.682Z" transform="translate(-128.957 -15.785)"/><path class="v" d="M139.531,45.1c-.149,1.588-.591,3.853-1.781,4.6a2.629,2.629,0,0,0-1.123,2.006c-.053.536-.073,1.146-.073,1.7h-.621a2.764,2.764,0,0,1-2.766-2.753V48.192l.108.021a5.934,5.934,0,0,0,4.424-.933A6.834,6.834,0,0,0,139.531,45.1Z" transform="translate(-105.294 -15.785)"/><path class="w" d="M142.618,53.848c3.156-1.146,5.808-2.246,5.808-2.246l-1.114-2.622-4.694.587Z" transform="translate(-123.641 -15.785)"/><path class="a" d="M136.879,27.653a3.043,3.043,0,0,0,.63.713,6.568,6.568,0,0,1,.669.5,2.292,2.292,0,0,1,.811,1.758v3.1a2.98,2.98,0,0,0,2.723,3.016,2.918,2.918,0,0,0,3.115-2.911V32.054h.016a3.855,3.855,0,0,0,2.581-3.642V24.376a3.86,3.86,0,0,0-3.86-3.86h-.727c-2.134,0-3.864,3.864-3.864,3.864v2.127a1.375,1.375,0,0,0-.429-.66,1.235,1.235,0,0,0-1.634.142A1.327,1.327,0,0,0,136.879,27.653Z" transform="translate(-116.623 -15.785)"/><path class="x" d="M139.18,31.435a3.209,3.209,0,0,0,2.418,1.923,3.254,3.254,0,0,0,.862.032l.692-1.746c-.173.036-1.04.47-1.217.486a4.307,4.307,0,0,1-2.755-.694Z" transform="translate(-114.237 -15.785)"/><path class="k" d="M137.269,30.557a4.93,4.93,0,0,1,.67,4.17s.823.981,1.815-.891c.224-.435-1.1-.039-1.111-.528l.626-.726c0-.607.834-.725.485-1.222-.458-.657-.751-.086-1.111-.8-.177-.345-1.147-2.02-1.375-2.334-.939-1.375.661-3.2,1.05-4.815-.112-.52-.1-.855.1-.855a.36.36,0,0,0,.229-.119,5.2,5.2,0,0,1,.626-1.075,23.037,23.037,0,0,0,.862-2.67l1.643.97c.481-.138,5.524,1.073,6.253,2.766a4.99,4.99,0,0,1,.963,1.5l.431.257a10.2,10.2,0,0,0-2.368-6.981c-1.008-1.063-6.677-2.961-9.53.917S135.862,28.464,137.269,30.557Z" transform="translate(-117.813 -15.785)"/><path class="k" d="M135.477,19.915a7.942,7.942,0,0,0,.74.754,9.269,9.269,0,0,0,3.025,1.343,8.124,8.124,0,0,1,2.98,1.428,4.887,4.887,0,0,1,1.591,3.715,6.592,6.592,0,0,1-1.394,3.864c-.83,1.114-2,2.088-2.246,3.449a2.872,2.872,0,0,0,3.667,3.262,1.886,1.886,0,0,1-1-2.111,4.534,4.534,0,0,1,.853-1.465,10.5,10.5,0,0,0,1.215-9.973A6.6,6.6,0,0,0,142.8,21.3a11.322,11.322,0,0,0-4.245-1.49,9.505,9.505,0,0,1-2.663-.979,1.411,1.411,0,0,1-.163-.1c-.057-.032-.105-.069-.156-.1s-.057-.046-.085-.064a2.265,2.265,0,0,1-.653-.821A3.552,3.552,0,0,0,135.477,19.915Z" transform="translate(-113.085 -15.785)"/><path class="k" d="M143.5,24.57a2.235,2.235,0,0,1-1.641.2c-.112-.032-.121-.126-.021-.186a2.248,2.248,0,0,1,1.636-.2C143.583,24.417,143.6,24.511,143.5,24.57Z" transform="translate(-117.925 -15.785)"/><path class="k" d="M139.361,24.793a2.235,2.235,0,0,1-1.634-.243c-.1-.06-.085-.154.03-.183a2.248,2.248,0,0,1,1.632.243C139.48,24.667,139.467,24.754,139.361,24.793Z" transform="translate(-109.709 -15.785)"/><ellipse class="k" cx="0.387" cy="0.387" rx="0.387" ry="0.387" transform="translate(28.245 10.997) rotate(-94.54)"/><ellipse class="k" cx="0.387" cy="0.387" rx="0.387" ry="0.387" transform="translate(24.586 11.001) rotate(-94.54)"/><path class="x" d="M140.212,28.49l1.006.016a.229.229,0,0,0,.229-.273l-.557-1.41a.206.206,0,0,0-.392,0l-.5,1.391a.229.229,0,0,0,.211.275Z" transform="translate(-114.045 -15.785)"/><path class="m" d="M142.036,29.826a1.029,1.029,0,0,1-1.96,0,.11.11,0,0,1,.112-.126h1.735a.11.11,0,0,1,.112.126Z" transform="translate(-114.709 -15.785)"/><path class="a" d="M103.99,61.935l28.755,11.559a1.3,1.3,0,0,0,1.689-.72l9.922-24.687a1.3,1.3,0,0,0-.72-1.689L114.882,34.839a1.3,1.3,0,0,0-1.689.72l-9.924,24.687a1.3,1.3,0,0,0,.722,1.689Z" transform="translate(-80.223 -15.785)"/><path class="a" d="M144.1,48.966a.488.488,0,0,1-.385.213c-.083.011-.167.03-.229.044a1.146,1.146,0,0,1,.229.277.266.266,0,0,1-.172.385c-.186.08-.376.14-.568.2-.044.016-.087.021-.167.044a3.087,3.087,0,0,1,.282.133.277.277,0,0,1,.044.484,1.506,1.506,0,0,1-.775.266c-.121.016-.243.011-.364.034a4.687,4.687,0,0,1-2.017-.105,2.869,2.869,0,0,0-2.033.3l-1.416.72a.16.16,0,0,1-.06,0c-.011-.05-.028-.1-.037-.149-.14-.786-.277-1.577-.422-2.363-.021-.119,0-.154.124-.2.442-.154.873-.332,1.3-.5.105-.041.2-.1.3-.135a1.286,1.286,0,0,0,.591-.525,5.863,5.863,0,0,1,2.638-1.9,2.661,2.661,0,0,0,1.045-.6,1.311,1.311,0,0,1,.314-.213.151.151,0,0,1,.229.126.883.883,0,0,1-.229.7,3.564,3.564,0,0,1-1.167.823l-.2.108a.229.229,0,0,0,.229.241,7.393,7.393,0,0,0,1.05-.037l.88-.037a1.146,1.146,0,0,1,.536.064.16.16,0,0,1,.037.3,2.69,2.69,0,0,1-.605.3,4.243,4.243,0,0,1-.633.25c.039.046.06.087.083.089a3.208,3.208,0,0,0,.341.037,7.835,7.835,0,0,1,.935.044.351.351,0,0,1,.284.575Z" transform="translate(-112.78 -15.785)"/><path class="y" d="M153.771,36.106a4.726,4.726,0,0,0-3.635.777c-.766.431-7.493,16.273-7.493,16.273a2.771,2.771,0,0,0,3.053,3.259c3.564,0,15.182-4.813,15.182-4.813l-1.114-2.622L149.2,50.3s5.441-8.815,5.576-10.747S154.089,36.113,153.771,36.106Z" transform="translate(-136.094 -15.785)"/><path class="z" d="M123.812,64.648a10.481,10.481,0,1,0-10.481-10.481A10.481,10.481,0,0,0,123.812,64.648Zm0-19.654a9.168,9.168,0,1,1-9.168,9.168,9.168,9.168,0,0,1,9.168-9.168Z" transform="translate(-80.222 -15.785)"/><path class="m" d="M123.212,64.648a10.481,10.481,0,0,0,0-20.963.656.656,0,0,0,0,1.309A9.168,9.168,0,1,1,114.6,57.332a.656.656,0,1,0-1.228.458,10.522,10.522,0,0,0,9.839,6.858Z" transform="translate(-79.621 -15.785)"/></g></g></svg>