<svg xmlns="http://www.w3.org/2000/svg" width="179.703" height="121.249" viewBox="0 0 179.703 121.249"><defs><style>.a{fill:#e8ecfa;}.b{fill:#c8d1f3;}.c{fill:#aebbed;}.d{fill:#5669ef;}.e{fill:#fa4a56;}.f{fill:#fec95c;}.g{fill:#f7f8fd;}.h{fill:#c8d7fd;}.i{fill:#1b59f7;}.j{fill:#f49d64;}.k{fill:#0031a4;}.l{fill:#0c61ea;}.m{fill:#0244d5;}.n{fill:#ff9134;}.o{fill:#20158a;}.p{fill:#758bcd;}.q{fill:#493b69;}</style></defs><g transform="translate(-6.992)"><g transform="translate(-0.008)"><path class="a" d="M121.345,113.837H33.5L65.75,12.831H153.6Z" transform="translate(17.644 7.279)"/><path class="b" d="M114.879,107.427H27.03L59.284,6.413h87.849Z" transform="translate(13.976 3.638)"/><path class="a" d="M126.941,10.051,130.156,0H42.3L39.092,10.051Z" transform="translate(20.819)"/><path class="c" d="M49.63,6.413,20.516,97.784h87.849L137.479,6.413Z" transform="translate(10.281 3.638)"/><ellipse class="d" cx="1.836" cy="1.404" rx="1.836" ry="1.404" transform="translate(65.034 6.009) rotate(-45)"/><ellipse class="e" cx="1.836" cy="1.404" rx="1.836" ry="1.404" transform="translate(71.965 6.006) rotate(-45)"/><ellipse class="f" cx="1.836" cy="1.404" rx="1.836" ry="1.404" transform="translate(78.905 6.002) rotate(-45)"/><path class="g" d="M60.881,73.233H27.523L39.775,34.874H73.133Z" transform="translate(14.256 19.783)"/><path class="g" d="M108.84,28l-.905,2.866H36.9L37.82,28Z" transform="translate(19.574 15.886)"/><path class="g" d="M90.3,39.416l-.947,2.965H59.529l.947-2.965Z" transform="translate(32.412 22.359)"/><path class="g" d="M69.814,43.968l-.955,2.949H58.077l.939-2.949Z" transform="translate(31.588 24.942)"/><path class="d" d="M83.6,43.968l-.939,2.949H67.3l.955-2.949Z" transform="translate(36.823 24.942)"/><path class="d" d="M74.138,18.99l-.922,2.866H39.765l2.01-2.866Z" transform="translate(21.201 10.772)"/><path class="g" d="M72.847,23.023l-.922,2.866H38.483l.914-2.866Z" transform="translate(20.473 13.06)"/><path class="g" d="M75.42,14.956l-.905,2.874H41.048l.914-2.874Z" transform="translate(21.928 8.484)"/><path class="g" d="M91.74,34.874,90.8,37.831H60.981l.947-2.957Z" transform="translate(33.236 19.783)"/><path class="f" d="M87.383,48.516l-.947,2.957H56.625l.939-2.957Z" transform="translate(30.764 27.521)"/><path class="g" d="M85.934,53.063l-.947,2.957H55.167l.947-2.957Z" transform="translate(29.938 30.101)"/><path class="e" d="M84.487,57.61l-.955,2.957H53.72l.947-2.957Z" transform="translate(29.117 32.681)"/><path class="e" d="M54.993,43.5a8.713,8.713,0,0,0-1.271-1.6c-3.671-3.671-10.067-3.422-15.176.266l1.263,2.251a12.111,12.111,0,0,1,7.135-2.625,6.886,6.886,0,0,1,4.984,1.91,6.138,6.138,0,0,1,1.022,1.362,7.825,7.825,0,0,1,.831,4.876,13.157,13.157,0,0,1-3.871,7.426,14.852,14.852,0,0,1-1.9,1.6L49.262,61.2a17.169,17.169,0,0,0,2.425-2.077,15.708,15.708,0,0,0,4.593-8.9A10.209,10.209,0,0,0,54.993,43.5Z" transform="translate(20.509 22.276)"/><path class="h" d="M38.058,52.465a6.122,6.122,0,0,1-.748-.939l-2.018,1.553a8.513,8.513,0,0,0,.972,1.188,9.386,9.386,0,0,0,6.77,2.633,14.47,14.47,0,0,0,8.057-2.65l-1.254-2.234C45.742,54.915,40.816,55.222,38.058,52.465Z" transform="translate(18.663 29.229)"/><path class="i" d="M40.7,44.7a14.853,14.853,0,0,1,1.553-1.337l-1.263-2.251A17.243,17.243,0,0,0,38.9,42.9c-4.859,4.868-6,11.737-3.015,16.09l2-1.553C35.653,54.078,36.757,48.646,40.7,44.7Z" transform="translate(18.07 23.321)"/><rect class="a" width="5.092" height="5.092" transform="translate(176.216 40.53) rotate(45)"/><rect class="a" width="4.378" height="4.378" transform="translate(38.684 29.588) rotate(45)"/><rect class="a" width="3.779" height="3.779" transform="translate(184.03 27.204) rotate(45)"/><rect class="a" width="3.256" height="3.256" transform="translate(28.968 22.663) rotate(45)"/><rect class="a" width="3.256" height="3.256" transform="translate(48.84 11.453) rotate(45)"/><path class="e" d="M43.383,9.105l-.475,2.866H56.216l.963-2.866Z" transform="translate(22.984 5.165)"/><path class="g" d="M107.976,9.105l-57.8.064-2.342,2.866,59.22-.064Z" transform="translate(29.9 5.165)"/><path class="g" d="M94.272,31.586H64.352l5.084-16.629h29.92Z" transform="translate(35.148 8.484)"/><g transform="translate(141.511 24.878)"><path class="j" d="M103.9,73.463l4.913,1.5,2.742-.541-1.326-2.445L105.4,69.795Z" transform="translate(-71.85 -5.283)"/><path class="a" d="M107.414,74.345c1.852,3.816,1.126,8.2,2.223,8.4s3.846-9.092,2.067-10.485a3.9,3.9,0,0,0-2.9-.9A2.671,2.671,0,0,1,107.414,74.345Z" transform="translate(-70.451 -4.668)"/><path class="k" d="M98.242,55.962S87.706,68.707,89.7,72.093s22.185,8.758,22.185,8.758c3.2-1.43,1.927-4.994,1.927-4.994L101.547,68.4l4.446-8.344Z" transform="translate(-77.603 -10.789)"/><path class="j" d="M101.086,84.267l1.852,4.779,2.127,1.823,1.1-2.549-1.26-5.142Z" transform="translate(-72.97 0.045)"/><path class="l" d="M108.54,61.593,105.7,75.309l2.564,21.437a3.705,3.705,0,0,1-1.9,1.237,4.158,4.158,0,0,1-.845.133,5.039,5.039,0,0,1-2.3-.445s-6.447-17.517-6.81-23.6v-.585c-.259-6.284.889-18.4.889-18.4h6.061a4.573,4.573,0,0,1,.845.074,5.306,5.306,0,0,1,2.831,1.438,5.38,5.38,0,0,1,1.519,4.994Z" transform="translate(-74.853 -11.138)"/><path class="m" d="M105.1,98.274a4.158,4.158,0,0,1-.845.133c-1.267-6.039-4.016-19.266-4.609-23.334-.689-4.72,1.652-16.2,2.416-19.7.133-.63.222-1.008.23-1.023l.815.237c0,.1-.1.4-.207.86-.741,3.327-3.068,15-2.416,19.488C101.08,78.987,103.837,92.265,105.1,98.274Z" transform="translate(-73.595 -11.429)"/><path class="m" d="M105.794,60.433a5.669,5.669,0,0,1-2.045,1.171,3.216,3.216,0,0,0-2.1,2.023,5.187,5.187,0,0,1-1.63,2.342l-.556.467a7.239,7.239,0,0,0-2.475,4.446,19.26,19.26,0,0,1-.526,2.282l-.1.333c-.259-6.284.889-18.4.889-18.4h6a5.313,5.313,0,0,1,3.7,1.482A4.633,4.633,0,0,1,105.794,60.433Z" transform="translate(-74.863 -11.133)"/><path class="a" d="M103.9,87.584c-1.852,3.809-5.75,5.928-5.187,6.965s9.522-2.593,9.522-4.861a3.9,3.9,0,0,0-1.089-2.838A2.751,2.751,0,0,1,103.9,87.584Z" transform="translate(-73.936 1.507)"/><path class="j" d="M106.8,34a5.42,5.42,0,1,0-10.8,0c0,2.445-.741,5.417,3.349,5.417l1.215,4.55h4.564l-1.215-4.779A5.928,5.928,0,0,0,106.8,34Z" transform="translate(-75.019 -21.866)"/><path class="j" d="M94.746,35.043l-3.572,2.823-4.5-6.321a2.86,2.86,0,0,0-1.126-.8,12.932,12.932,0,0,1-1.919-.889,4.135,4.135,0,0,1-1.267-1.163c-.23-.378-.682-.541-.674-1.438a1.416,1.416,0,0,1,.074-.4,1.482,1.482,0,0,1,.674-1.023c-.637-.615-1.7-1.415-1.415-2.06s2.964,1.482,3.7,1.867l.422-1.334a21.848,21.848,0,0,1,1.526,2.475c.067.1.133.215.2.319l.319.6C87.544,28.374,94.746,35.043,94.746,35.043Z" transform="translate(-80.976 -23.652)"/><path class="f" d="M119.125,55.727c.074,1.037-1.438,2.6-2.9,3.853-.474.408-.948.785-1.356,1.089-.741.548-1.23.9-1.23.9l-.23,5.55a2.349,2.349,0,0,1,.1.63,2.223,2.223,0,0,1-1.578,2.1,14.82,14.82,0,0,1-9.633-.674,17.878,17.878,0,0,1-2.327-1.156,2.453,2.453,0,0,1-1.082-2.712c1.26-5.187.1-10.463-.274-11.041a4.727,4.727,0,0,1-.741-4.061,5.187,5.187,0,0,1,.4-.852,2.112,2.112,0,0,0-.289-2.653,70.89,70.89,0,0,1-6.039-6.573l-.459-.571c-2.808-3.446-4.809-6.328-4.809-6.328.445-2.964,3.631-3.6,3.631-3.6l9.611,9.825a4.268,4.268,0,0,0,3.068,1.482h.193l1.482.119.511.044.5.044,3.134.245a7.454,7.454,0,0,1,4.179,1.719l.067.059c.126.111.245.237.378.363,0,0,1.949,3.831,3.564,7.21.193.408.385.815.563,1.2s.415.889.608,1.3A12.863,12.863,0,0,1,119.125,55.727Z" transform="translate(-78.709 -21.269)"/><path class="n" d="M112.146,48.682a5.624,5.624,0,0,1-5.624-2.653.251.251,0,0,0,0-.067,9.41,9.41,0,0,0-2.542-2.682,7.926,7.926,0,0,1-3.7-5.4l3.134.245a7.454,7.454,0,0,1,4.179,1.719l.067.059c.126.111.245.237.378.363,0,0,1.949,3.831,3.564,7.21C111.782,47.9,111.983,48.3,112.146,48.682Z" transform="translate(-73.293 -17.988)"/><path class="n" d="M101.174,66.65a17.882,17.882,0,0,1-2.327-1.156,2.453,2.453,0,0,1-1.082-2.712c1.26-5.187.1-10.463-.274-11.041a4.728,4.728,0,0,1-.741-4.061,5.189,5.189,0,0,1,.4-.852,2.112,2.112,0,0,0-.289-2.653A70.888,70.888,0,0,1,90.822,37.6l-.459-.571L89.548,36a82.25,82.25,0,0,0,8.514,7.647,2.5,2.5,0,0,1,.674,3.06,5.187,5.187,0,0,0-.363,1.06,5.039,5.039,0,0,0,1.371,4.646c1.1,1.082,2.334,3.164.741,7.121C99.551,61.87,101.544,64.212,101.174,66.65Z" transform="translate(-77.563 -18.735)"/><path class="n" d="M110.352,53.519l-4.846-4.787.645-2.882Z" transform="translate(-71.211 -14.815)"/><path class="e" d="M105.67,47.911l9.633.393-.445,11.93-8.825-.378a16.961,16.961,0,0,1-.926-6.239C105.24,51.127,105.67,47.911,105.67,47.911Z" transform="translate(-71.374 -13.994)"/><path class="d" d="M114.486,39.484a7.854,7.854,0,0,1-2.964-3.149A21.741,21.741,0,0,0,106.7,29.94a11.115,11.115,0,0,0-5.246-2.445,11.655,11.655,0,0,1-2.223-.578,3.1,3.1,0,0,0-2.838.289,1.688,1.688,0,0,0-.282.237,10.514,10.514,0,0,0,1.749.445,11.115,11.115,0,0,1,5.246,2.445,21.747,21.747,0,0,1,4.824,6.395,7.825,7.825,0,0,0,2.912,3.142,6.669,6.669,0,0,1,1.667,9.633,4.364,4.364,0,0,1-1.408,1.23,4.6,4.6,0,0,0,4.965-1.615,6.669,6.669,0,0,0-1.578-9.633Z" transform="translate(-74.952 -22.439)"/><path class="k" d="M112.709,49.287a6.669,6.669,0,0,0-1.645-9.633,7.847,7.847,0,0,1-2.964-3.149,21.748,21.748,0,0,0-4.824-6.395,11.115,11.115,0,0,0-5.246-2.445,10.514,10.514,0,0,1-1.749-.445c-1.326,1.378.341,4.446.341,4.446,4.09,0,3.7,2.816,3.7,5.476,0,2.045,2.549,7.921,5.928,9.737a8.084,8.084,0,0,1,2.542,1.964v.044a4.8,4.8,0,0,0,2.445,1.578A4.364,4.364,0,0,0,112.709,49.287Z" transform="translate(-75.087 -22.231)"/><circle class="j" cx="1.371" cy="1.371" r="1.371" transform="translate(23.863 12.821)"/></g><g transform="translate(7 14.985)"><path class="o" d="M31.8,34.331c0,.554-8.523,5.988-13.78,8.523L9.105,38.813c3.985-1.513,21-7.813,21-7.813Z" transform="translate(3.108 -7.154)"/><path class="j" d="M6.541,83.853l-2.5,4.24L1.747,89.486,1.108,86.9l2-4.667Z" transform="translate(0.387 10.275)"/><path class="c" d="M21.421,58.576S18.388,72.59,16.449,78.095,6.5,97.273,6.5,97.273a6.392,6.392,0,0,1-2.749-.611,6.624,6.624,0,0,1-.71-.4A6.393,6.393,0,0,1,1.32,94.737L8.479,76.07l-.256-15.4c0-1.087,1.037-7.813,1.037-7.813.767-2.628,2.806.44,5.32.916l2.131,1.477.753.526,3.253,2.28Z" transform="translate(0.46 -0.076)"/><path class="p" d="M17.087,54.21c0,.085-.05.362-.114.781-.582,3.779-3.04,19.639-4.262,22.076-1.179,2.3-7.721,15.406-9.4,18.787a6.623,6.623,0,0,1-.71-.4C4.323,92,10.815,79,11.987,76.691s3.836-19.448,4.262-22.218a1.266,1.266,0,0,1,.057-.376Z" transform="translate(0.894 0.703)"/><path class="o" d="M4.421,86.909c1.158,3.892,4.51,6.528,3.843,7.4S-.338,90.368,0,88.23a3.743,3.743,0,0,1,1.47-2.514A2.628,2.628,0,0,0,4.421,86.909Z" transform="translate(0.008 11.459)"/><path class="j" d="M17.087,84.916l-.17,4.915-1.35,2.323-1.8-1.967-.483-5.057Z" transform="translate(4.531 11.187)"/><path class="a" d="M21.6,81.884c-.327,7.174-1.342,16.82-1.342,16.82A4.972,4.972,0,0,1,18,99.35a4.468,4.468,0,0,1-.817,0,5.618,5.618,0,0,1-2.131-.668L12.627,77.473,6.774,62.557a6.535,6.535,0,0,1,2.649-8.225,9.127,9.127,0,0,1,2.394-1.073l1.065.469.916.4,3.253,1.421.313.142,2,.881.9.178s1.03,13.63,1.421,19.469v.916C21.718,78.481,21.69,80.1,21.6,81.884Z" transform="translate(2.129 0.418)"/><path class="b" d="M16.354,99.431a4.468,4.468,0,0,1-.817,0c.057-3.218.291-17.857,0-22.125S11.986,57.3,11.24,53.866c-.092-.419-.142-.646-.142-.668l.753-.2c0,.107.114.547.256,1.236.916,4.361,3.9,18.816,4.2,22.978C16.645,81.525,16.411,96.22,16.354,99.431Z" transform="translate(3.786 0.33)"/><path class="b" d="M21.218,76.578l-2.23-5.3a6.961,6.961,0,0,0-3.026-4.51l-.59-.384a4.972,4.972,0,0,1-1.833-2.024A3.1,3.1,0,0,0,11.3,62.685a5.448,5.448,0,0,1-2.081-.859c-2.039-1.364-1.584-4.9-1.584-5.171l8.957-1.662.313.142,2,.881.9.178s1.03,13.63,1.421,19.469A7.737,7.737,0,0,0,21.218,76.578Z" transform="translate(2.594 1.008)"/><path class="o" d="M19.213,57.685a25.116,25.116,0,0,1-5.647.653,17.863,17.863,0,0,1-3.331-.263c-.632-.114-2.131-.554-3.551-.98a4.616,4.616,0,0,1-1.065-.5A3.658,3.658,0,0,0,8.132,59.24c1.158.355,2.4.71,2.933.817a14.858,14.858,0,0,0,2.77.22,20.9,20.9,0,0,0,4.7-.547,3.054,3.054,0,0,0,2.379-2.983A3.7,3.7,0,0,1,19.213,57.685Z" transform="translate(1.922 1.554)"/><path class="o" d="M16.881,88.583c2.884,2.841,7.1,3.551,6.911,4.659s-9.44.653-10.15-1.421a3.743,3.743,0,0,1,.092-2.912A2.579,2.579,0,0,0,16.881,88.583Z" transform="translate(4.566 12.435)"/><path class="j" d="M7.95,31.964a5.671,5.671,0,0,1,5.427-5.888A5.671,5.671,0,0,1,18.8,31.964c0,2.458.767,5.441-3.367,5.441l-1.222,4.574H9.648l1.222-4.8A5.959,5.959,0,0,1,7.95,31.964Z" transform="translate(2.715 -8.829)"/><path class="f" d="M18.367,29.62c-4.105,0-3.445,2.635-3.4,4.439,0,.661-2.522,1.485-3.956,3.445,0,0-3.48-1.257-3.473-3.942,0-2.323.469-5.086,1.818-6.322s5.959-1.421,7.593-1.676a10.654,10.654,0,0,0,1.79-.447C20.043,26.5,18.367,29.62,18.367,29.62Z" transform="translate(2.576 -9.155)"/><circle class="j" cx="1.378" cy="1.378" r="1.378" transform="translate(15.878 23.824)"/><path class="e" d="M31.985,35.629,25.223,40.1l-4.7-6.62,6.9-4.56Z" transform="translate(6.991 -7.863)"/><path class="q" d="M55.095,14.726,25.673,34.176l4.56,6.712L59.655,21.438Z" transform="translate(8.744 -13.123)"/><path class="j" d="M52.1,11.977l4.56,6.712,2.969-4.184-2.451-3.6Z" transform="translate(11.705 -10.399)"/><path class="e" d="M59.983,10.7l-5.092.589,2.451,3.6Z" transform="translate(13.995 -10.703)"/><path class="j" d="M40.6,28.5a8.31,8.31,0,0,1-2.685.625,2.351,2.351,0,0,1-.511-.092c.54-.71,1.023-1.541.71-1.9-.575-.71-2.841,1.9-2.841,1.9a5.682,5.682,0,0,0-1,1.492c-.526.5-9.006,4.517-9.006,4.517l2.465,3.608,5.952-4.51a2.735,2.735,0,0,1,1.264-.412,12.4,12.4,0,0,0,1.989-.227s3.48-.781,4.1-2.2a10.221,10.221,0,0,0,.469-2.053.71.71,0,0,0-.9-.746Z" transform="translate(8.605 -8.51)"/><path class="k" d="M35.811,37.1s-8.481,5.739-13.836,8.225a2.948,2.948,0,0,0-1.69,2.877c.227,3.4.71,10.178,1.065,15.115a3.3,3.3,0,0,1-2.55,3.452,22.793,22.793,0,0,1-5.057.547,15.952,15.952,0,0,1-2.969-.263c-.575-.107-1.9-.5-3.147-.9A3.857,3.857,0,0,1,4.863,62.6c0-4.851-.249-16.266,1.421-20.854,1.74-4.78,5.363-5.469,5.363-5.469,1.335,1.925,2.983,1.03,4.184,1.8l1.563.362h.6a5.3,5.3,0,0,0,2.08-.426c4.689-2,13.667-5.981,13.667-5.981S36.556,34.007,35.811,37.1Z" transform="translate(1.66 -6.803)"/><path class="o" d="M19.369,43.323a109.713,109.713,0,0,0,9.582-5.455A117.265,117.265,0,0,1,17.877,42.13a3.36,3.36,0,0,0-2.131,2.621c-.874,3.416.469,4.972.256,8.687-.078,1.335-2.706,2.443-3.282,4.752-.661,2.656,1.946,4.766,1.818,6.932a20.425,20.425,0,0,0,2.422-.5,3.282,3.282,0,0,0,2.188-2.969c-.376-4.972-1.293-11.855-1.534-15.413A2.983,2.983,0,0,1,19.369,43.323Z" transform="translate(4.301 -4.818)"/></g></g></g></svg>