<svg xmlns="http://www.w3.org/2000/svg" xmlns:xlink="http://www.w3.org/1999/xlink" width="101.583" height="123.426" viewBox="0 0 101.583 123.426"><defs><style>.a{fill:#c8c8ee;}.b{fill:#dadaf5;}.c{fill:#fff;}.d{fill:#eaeafa;}.e{fill:#f6f6fe;}.f{fill:url(#a);}.g{fill:#ffa668;}.h{fill:url(#b);}.i{fill:#212785;}.j{fill:#4f5cd3;}.k{fill:#e4e8fd;}.l{fill:#3f47c7;}.m{fill:#2e34a5;}.n{fill:#5e72fa;}.o{fill:url(#c);}.p{fill:url(#d);}.q{fill:url(#e);}.r{fill:url(#f);}.s{fill:url(#g);}.t{fill:url(#h);}.u{fill:#121c7c;}.v{fill:url(#i);}.w{fill:#fcb3b3;}.x{fill:url(#j);}</style><linearGradient id="a" y1="0.5" x2="1" y2="0.5" gradientUnits="objectBoundingBox"><stop offset="0" stop-color="#f788a8"/><stop offset="1" stop-color="#ff4d7b"/></linearGradient><linearGradient id="b" x1="10.241" y1="-7.947" x2="10.799" y2="-7.947" xlink:href="#a"/><linearGradient id="c" x1="20.997" y1="-0.046" x2="21.087" y2="0.83" xlink:href="#a"/><linearGradient id="d" x1="54.756" y1="0.602" x2="54.759" y2="0.891" gradientUnits="objectBoundingBox"><stop offset="0" stop-color="#fcb3b3"/><stop offset="1" stop-color="#fc8e8e"/></linearGradient><linearGradient id="e" x1="49.85" y1="0.32" x2="49.807" y2="0.99" xlink:href="#d"/><linearGradient id="f" x1="237.19" y1="0.501" x2="238.19" y2="0.501" xlink:href="#d"/><linearGradient id="g" x1="36.121" y1="0.5" x2="37.121" y2="0.5" gradientUnits="objectBoundingBox"><stop offset="0" stop-color="#4048c8"/><stop offset="1" stop-color="#2d32a4"/></linearGradient><linearGradient id="h" x1="44.324" y1="1.102" x2="44.268" y2="1.21" xlink:href="#g"/><linearGradient id="i" x1="318.942" y1="1.964" x2="318.942" y2="1.517" xlink:href="#d"/><linearGradient id="j" x1="69.7" y1="-2.081" x2="70.71" y2="-2.081" xlink:href="#a"/></defs><g transform="translate(-1006.636 -130)"><g transform="translate(1013.841 130)"><path class="a" d="M29.937,36.185h-.264a1.6,1.6,0,0,0-1.6,1.6v5.045a1.6,1.6,0,0,0,1.6,1.59h.267Z" transform="translate(-5.135 -6.619)"/><path class="a" d="M29.937,23.246h-.264a1.6,1.6,0,0,0-1.6,1.6v5.045a1.6,1.6,0,0,0,1.6,1.6h.267Z" transform="translate(-5.135 -4.252)"/><path class="b" d="M93.939,7.585v107.8A7.6,7.6,0,0,1,86.382,123H37.968a7.611,7.611,0,0,1-7.613-7.615V7.585A7.623,7.623,0,0,1,37.968,0H86.38a7.611,7.611,0,0,1,7.557,7.585Z" transform="translate(-5.553)"/><path class="c" d="M86.936,3.041H67.359a1.822,1.822,0,0,0-1.652,1.216,3.248,3.248,0,0,1-6,0,1.822,1.822,0,0,0-1.653-1.216H38.5a5.1,5.1,0,0,0-5.1,5.1v107.8a5.161,5.161,0,0,0,5.1,5.161H86.879a5.146,5.146,0,0,0,5.129-5.13V8.141a5.1,5.1,0,0,0-5.073-5.1Z" transform="translate(-6.109 -0.556)"/><circle class="c" cx="4.309" cy="4.309" r="4.309" transform="translate(31.382 108.687)"/><path class="b" d="M96.723,138.161a.586.586,0,0,1-.583.583H92.467a.583.583,0,0,1-.4-1.006.571.571,0,0,1,.4-.171H96.14a.583.583,0,0,1,.583.593Z" transform="translate(-16.808 -25.165)"/><path class="b" d="M45.559,138.161a.586.586,0,0,1-.583.583H41.3a.583.583,0,0,1-.4-1.006.571.571,0,0,1,.4-.171h3.67a.583.583,0,0,1,.583.593Z" transform="translate(-7.449 -25.165)"/><path class="b" d="M43.551,140.168a.585.585,0,0,1-.583-.583v-3.672a.583.583,0,0,1,1.006-.4.571.571,0,0,1,.171.4v3.672a.583.583,0,0,1-.593.583Z" transform="translate(-7.86 -24.756)"/><path class="d" d="M53.384,14.719V26.745a2.027,2.027,0,0,1-2.027,2.027H39.337a2.027,2.027,0,0,1-2.027-2.027V14.719a2.027,2.027,0,0,1,2.027-2.027H51.362A2.027,2.027,0,0,1,53.384,14.719Z" transform="translate(-6.825 -2.322)"/><path class="d" d="M75.5,14.719V26.745a2.027,2.027,0,0,1-2.027,2.027H61.453a2.027,2.027,0,0,1-2.027-2.027V14.719a2.027,2.027,0,0,1,2.027-2.027H73.477A2.027,2.027,0,0,1,75.5,14.719Z" transform="translate(-10.872 -2.322)"/><path class="d" d="M97.62,14.719V26.745a2.027,2.027,0,0,1-2.027,2.027H83.571a2.027,2.027,0,0,1-2.027-2.027V14.719a2.027,2.027,0,0,1,2.027-2.027H95.595a2.027,2.027,0,0,1,2.025,2.027Z" transform="translate(-14.917 -2.322)"/><path class="e" d="M87.514,26.483,83.861,37.943a2.027,2.027,0,0,1-2.543,1.314L69.861,35.606a2.027,2.027,0,0,1-1.314-2.543L72.2,21.606a2.027,2.027,0,0,1,2.543-1.314L86.2,23.942a2.027,2.027,0,0,1,1.312,2.542Z" transform="translate(-12.522 -3.694)"/><path class="b" d="M89.252,56.852v8.04A1.353,1.353,0,0,1,87.9,66.245H42.061a1.353,1.353,0,0,1-1.353-1.353v-8.04A1.353,1.353,0,0,1,42.061,55.5H87.9a1.353,1.353,0,0,1,1.353,1.353Z" transform="translate(-7.447 -10.153)"/><path class="d" d="M40.721,84.126V76.09a1.353,1.353,0,0,1,1.352-1.353H87.9a1.353,1.353,0,0,1,1.353,1.353v8.036A1.353,1.353,0,0,1,87.9,85.479H42.063a1.353,1.353,0,0,1-1.343-1.353Z" transform="translate(-7.449 -13.671)"/><path class="c" d="M76.3,78.608a.916.916,0,0,1-.913.913H46.006a.915.915,0,1,1,0-1.829H75.389a.916.916,0,0,1,.915.916Z" transform="translate(-8.249 -14.213)"/><path class="c" d="M61.343,83.72a.916.916,0,0,1-.913.913H46.011a.915.915,0,1,1,0-1.829H60.429a.916.916,0,0,1,.913.916Z" transform="translate(-8.25 -15.147)"/><path class="d" d="M89.252,95.331v8.034a1.352,1.352,0,0,1-1.353,1.352H42.061a1.353,1.353,0,0,1-1.353-1.353V95.331a1.353,1.353,0,0,1,1.353-1.353H87.9a1.353,1.353,0,0,1,1.353,1.354Z" transform="translate(-7.447 -17.191)"/><path class="b" d="M51.484,93.98H42.061a1.353,1.353,0,0,0-1.353,1.353v8.034a1.352,1.352,0,0,0,1.353,1.352h9.413Z" transform="translate(-7.447 -17.191)"/><path class="c" d="M88.758,97.73a.916.916,0,0,1-.913.913H58.462a.915.915,0,1,1,0-1.829H87.844a.916.916,0,0,1,.914.916Z" transform="translate(-10.527 -17.71)"/><path class="c" d="M73.8,102.828a.916.916,0,0,1-.913.913H58.467a.915.915,0,1,1,0-1.829H72.884a.916.916,0,0,1,.913.916Z" transform="translate(-10.528 -18.643)"/><path class="d" d="M104.462,55.016l-1.54,7.887a1.353,1.353,0,0,1-1.586,1.069L56.357,55.19A1.353,1.353,0,0,1,55.293,53.6l1.54-7.887a1.353,1.353,0,0,1,1.586-1.069L103.4,53.429a1.353,1.353,0,0,1,1.064,1.588Z" transform="translate(-10.109 -8.162)"/><path class="a" d="M67.655,46.446l-9.238-1.809a1.353,1.353,0,0,0-1.586,1.069l-1.538,7.887a1.352,1.352,0,0,0,1.069,1.586L65.6,56.989Z" transform="translate(-10.11 -8.16)"/><path class="c" d="M103.881,57.259a.916.916,0,0,1-1.073.722L73.971,52.35a.915.915,0,1,1,.35-1.8l28.832,5.635a.916.916,0,0,1,.726,1.069Z" transform="translate(-13.396 -9.245)"/><path class="c" d="M88.221,59.4a.916.916,0,0,1-1.073.722L73,57.353a.915.915,0,1,1,.35-1.8L87.5,58.323a.916.916,0,0,1,.722,1.073Z" transform="translate(-13.219 -10.16)"/><circle class="f" cx="2.906" cy="2.906" r="2.906" transform="translate(48.444 39.535)"/><circle class="g" cx="2.906" cy="2.906" r="2.906" transform="translate(35.75 79.251)"/><circle class="a" cx="4.335" cy="4.335" r="4.335" transform="translate(34.189 14.075)"/></g><g transform="translate(988.344 120)"><path class="h" d="M62.622,42.591a3.056,3.056,0,0,0-3.831-4.3L48.529,42.55a76.275,76.275,0,0,0-12.073-5.4,3.056,3.056,0,0,0-2.489,5.567l13.271,5.932a3.056,3.056,0,0,0,2.412.033l11.477-4.761A3.037,3.037,0,0,0,62.622,42.591Z"/><path class="i" d="M35.182,121.2l2.9.046c.19,2.05-1.57,6.418,1.159,7.713,3.34,1.585,4.711,2.161,5.36,4.032a.33.33,0,0,1-.31.437l-9.665-.151a.319.319,0,0,1-.31-.384C34.514,131.965,35.6,122.923,35.182,121.2Z"/><path class="i" d="M19.587,120.744l2.9.072c.17,2.052-1.629,6.4,1.092,7.722,3.325,1.616,4.692,2.2,5.323,4.083a.33.33,0,0,1-.314.437l-9.663-.24a.319.319,0,0,1-.308-.386C18.821,131.5,19.989,122.475,19.587,120.744Z"/><path class="j" d="M38.731,124.326c-.111.247-2.063.26-3.257.242-.531,0-.91-.017-.91-.017l-1.993-16.029c-.1-1.166-.269-2.325-.458-3.478-.884-5.34-.991-26.8-.991-26.8l-2.183-.079s-2.55,17.465-3,22.316a19.188,19.188,0,0,1-.376,2.305,9.364,9.364,0,0,0-.179,2.72c.076,1.845-2.164,19.07-2.164,19.07l-4.107-.386s.5-20.812.913-25.165c.351-3.74.253-23.744.218-29.283V68.32l.258.017,18.057.972V72.2c.024,5.718.1,18.247.218,21.884C38.937,98.862,38.884,123.984,38.731,124.326Z"/><path class="k" d="M37.332,124.329l-.172-.076c.131-.52.218-25.045.031-30.2-.129-4.087-.2-18.952-.218-21.891V70.592h.19v1.574c.013,2.939.085,17.8.218,21.884C37.537,98.753,37.5,123.94,37.332,124.329Z"/><path class="k" d="M20.672,124.222h-.19c0-.218.509-20.864.915-25.17.362-3.866.242-25.261.216-29.51V68.261l.36.02v.19h-.157v1.092c.028,4.253.148,25.665-.218,29.534C21.177,103.372,20.677,124.023,20.672,124.222Z"/><path class="l" d="M25.558,102.787a18.975,18.975,0,0,0,.376-2.308c.437-4.637,2.794-20.884,3-22.316H26.875a10.816,10.816,0,0,0-1.155,3.644c-.382,3.434-.524,6.89-.655,10.344-.511,12.638-1.939,19.727-2.458,32.367l.62.059s2.24-17.227,2.161-19.07a9.387,9.387,0,0,1,.17-2.72Z"/><path class="l" d="M33.081,100.96c-.832-7.423-1.875-15.407-.4-22.674l-1.561-.041c.015,2.367.159,21.79.989,26.8.19,1.155.356,2.314.458,3.48l2,16.029s.38.011.908.017C35.051,114.9,34.16,110.586,33.081,100.96Z"/><path class="m" d="M38.541,71.191a19.16,19.16,0,0,1-7.8.788c-3.19-.3-8.49-.552-10.5-2.233V68.32l.258.017c2,1.747,7.248,1.626,10.435,1.928,4.085.382,6.268.218,7.624-.341h0v.57C38.544,70.678,38.541,70.887,38.541,71.191Z"/><rect class="n" width="0.55" height="3.382" transform="translate(27.092 69.282) rotate(5.143)"/><rect class="n" width="0.548" height="3.369" transform="translate(34.315 69.945) rotate(5.38)"/><path class="k" d="M31.468,72.88,29.525,72.7a.568.568,0,0,1-.513-.616l.092-1.013a.568.568,0,0,1,.618-.513l1.943.177a.568.568,0,0,1,.513.616l-.092,1.013a.568.568,0,0,1-.618.513ZM29.7,70.758a.369.369,0,0,0-.4.334l-.092,1.013a.369.369,0,0,0,.334.4l1.943.177a.369.369,0,0,0,.4-.334l.092-1.013a.369.369,0,0,0-.334-.4Z"/><rect class="k" width="0.197" height="4.073" transform="translate(30.73 72.898) rotate(5.143)"/><path class="o" d="M38.563,69.551c-.146,2.432-18.437,1.092-18.288-1.338.923-15.634-3.1-26.735-.7-29.254.266-.279,1.148-2,5.067-3.4.155-.057.317-.111.48-.164l.168-.057c.12-.031.231-.055.349-.079h.037a18.247,18.247,0,0,1,2.131-.273,17.832,17.832,0,0,1,1.795-.035h.24c.157,0,.312.015.474.026a2.2,2.2,0,0,1,.389.037,14.928,14.928,0,0,1,1.725.218c.19.035.382.074.57.116s.325.072.487.114a8.217,8.217,0,0,1,4.312,2.4C38.941,44.34,38.319,58.166,38.563,69.551Z"/><path class="c" d="M33.494,35.474a3.074,3.074,0,0,1-1.253,1.8,5.443,5.443,0,0,1-3.078.989h-.334c-2.153-.055-3.86-1.183-4.183-2.7.155-.057.317-.111.48-.164l.168-.057c.12-.031.231-.055.349-.079h.037a18.248,18.248,0,0,1,2.131-.273c.675-.013,1.358-.024,2.035-.024.157,0,.312.015.474.026a2.2,2.2,0,0,1,.389.037,14.928,14.928,0,0,1,1.725.218c.19.035.382.074.57.116S33.332,35.433,33.494,35.474Z"/><path class="p" d="M33.007,35.367c-.3,1.31-1.9,2.347-3.858,2.4-2.05.057-3.768-.978-4.021-2.362l.168-.057c.12-.031.231-.055.349-.079h.037q.458-.087.923-.146l.194-7.51a2.21,2.21,0,1,1,4.419.111l-.188,7.333c.463.041.934.107,1.41.2A5.5,5.5,0,0,1,33.007,35.367Z"/><path class="q" d="M32.815,23.185l.539,5.414a4.063,4.063,0,1,1-8.078.806l-.539-5.421a4.063,4.063,0,0,1,8.078-.806Z"/><path class="r" d="M25.44,27.637a1.127,1.127,0,0,1-1-.589,4.738,4.738,0,0,1-.819-1.939.825.825,0,0,1,.192-.825.528.528,0,0,1,.506-.055,1.155,1.155,0,0,1,.437.308,2.229,2.229,0,0,1,.585,1.38Z"/><path class="s" d="M34.605,23.238c-1.762,1.166-8.418.142-8.534.092a.182.182,0,0,0-.031.085c-.068.548.015,3.593-.279,4.054-.319.5-.308-.6-.406-.873s-.533-2.017-.533-2.017a4.864,4.864,0,0,0-.437-1.5c-.371-.7-1.07-2.334-.26-3.425a1.374,1.374,0,0,1,1.819-.5s2.325-2.65,4.779-2.386,1.415,2.17,1.415,2.17a5.472,5.472,0,0,1,2.126-.131.967.967,0,0,1,.873.784C35.134,19.581,36.367,22.067,34.605,23.238Z"/><path class="t" d="M34.605,23.238c-1.762,1.166-8.418.142-8.534.092a.182.182,0,0,0-.031.085.731.731,0,0,1-.1-.118c.157-.159.528-.063.734-.061h.891a11.169,11.169,0,0,0,1.771-.17,6.313,6.313,0,0,0,3.294-1.581A7.236,7.236,0,0,0,34.26,18.8a.967.967,0,0,1,.873.784S36.367,22.067,34.605,23.238Z"/><path class="u" d="M32.009,25.338a1.965,1.965,0,0,1-1.445-.1c-.092-.046-.085-.129.011-.162a1.978,1.978,0,0,1,1.445.1C32.112,25.222,32.106,25.3,32.009,25.338Z"/><path class="u" d="M28.178,25.233a1.965,1.965,0,0,1-1.439.192c-.1-.026-.109-.109-.02-.162a1.965,1.965,0,0,1,1.434-.192C28.254,25.106,28.268,25.181,28.178,25.233Z"/><path class="c" d="M28.892,31.656A1.275,1.275,0,0,1,27.8,31a.153.153,0,1,1,.269-.148.952.952,0,0,0,1.164.424.153.153,0,0,1,.1.288A1.354,1.354,0,0,1,28.892,31.656Z"/><circle class="u" cx="0.293" cy="0.293" r="0.293" transform="translate(27.867 27.075) rotate(-0.64)"/><circle class="u" cx="0.293" cy="0.293" r="0.293" transform="translate(30.757 27.04) rotate(-0.64)"/><path class="c" d="M31.365,28.962A1.454,1.454,0,1,1,32.8,27.492a1.454,1.454,0,0,1-1.437,1.469ZM31.335,26.3a1.207,1.207,0,1,0,1.22,1.194,1.207,1.207,0,0,0-1.22-1.194Z"/><path class="c" d="M28.051,29a1.454,1.454,0,1,1,1.437-1.469A1.454,1.454,0,0,1,28.051,29Zm-.031-2.661a1.207,1.207,0,1,0,1.22,1.194,1.207,1.207,0,0,0-1.22-1.194Z"/><path class="c" d="M29.416,27.623l-.164-.181a.67.67,0,0,1,.5-.218.517.517,0,0,1,.362.218l-.2.148a.279.279,0,0,0-.19-.131A.461.461,0,0,0,29.416,27.623Z"/><path class="v" d="M30.274,29.968l-1.124.013a.1.1,0,0,1-.1-.153,6.469,6.469,0,0,0,.437-1.153.1.1,0,0,1,.1-.076h.218a.1.1,0,0,1,.1.074,6.27,6.27,0,0,0,.461,1.142.107.107,0,0,1-.1.153Z"/><path class="w" d="M61.347,48.8c.081-.046.157-.094.24-.131a1.771,1.771,0,0,1,.766-.127.847.847,0,0,0,.712-.458.3.3,0,0,0,.028-.258c-.026-.05-.151-.063-.231-.072a2.013,2.013,0,0,1-.467-.024c-.482-.17-.917.094-1.375.114a4.514,4.514,0,0,0-1.338.419,7.508,7.508,0,0,0-.751.345,1.546,1.546,0,0,1-.729.17c-.522,0-1.046.022-1.567-.017-.592-.044-1.179-.142-1.812-.218l-1.334,3.08a4.969,4.969,0,0,0,.55-.02c.886-.05,1.775-.118,2.661-.148a3.526,3.526,0,0,1,1.64.373c.356.17.694.384,1.059.528a7.963,7.963,0,0,0,1.03.277c.341.083.683.159,1.026.231s.686.155,1.033.194a.808.808,0,0,0,.816-.4c.063-.116.251-.168.389-.238a2.577,2.577,0,0,1,.325-.116.3.3,0,0,0,.218-.266.249.249,0,0,1,.245-.251,1.229,1.229,0,0,0,.8-.537.417.417,0,0,1,.164-.1.218.218,0,0,0,.07-.408.889.889,0,0,0-.747-.192.411.411,0,0,1-.144.015c-.334-.094-.67-.179-1-.3A2.218,2.218,0,0,1,63.242,50c-.293-.19-.587-.373-.873-.561Z"/><path class="e" d="M63.787,30.8l9.152,9.938a1.03,1.03,0,0,1-.07,1.447l-33.8,31.13a1.022,1.022,0,0,1-1.45-.048l-9.152-9.938Z"/><path class="b" d="M63.783,30.8l-1.862-2.024a1.03,1.03,0,0,0-1.454-.059L26.661,59.849A1.03,1.03,0,0,0,26.6,61.3l1.862,2.024Z"/><circle class="g" cx="3.611" cy="3.611" r="3.611" transform="translate(33.354 63.795) rotate(-42.64)"/><path class="b" d="M64.237,36.138a.668.668,0,0,1-.039.943L41.227,58.236a.667.667,0,1,1-.9-.98L63.294,36.1a.666.666,0,0,1,.943.037Z"/><path class="b" d="M66.292,38.371a.668.668,0,0,1-.039.943L43.281,60.473a.667.667,0,1,1-.9-.98L65.348,38.338a.666.666,0,0,1,.943.033Z"/><path class="b" d="M59.954,48.335a.668.668,0,0,1-.039.943L45.338,62.7a.667.667,0,0,1-.9-.98L59.011,48.3a.666.666,0,0,1,.943.039Z"/><path class="w" d="M39.88,66.77c.092,0,.183-.02.273-.017a1.771,1.771,0,0,1,.749.218.847.847,0,0,0,.838-.118.3.3,0,0,0,.133-.218c0-.057-.109-.12-.181-.162a2.01,2.01,0,0,1-.413-.218c-.365-.356-.873-.3-1.3-.476a4.441,4.441,0,0,0-1.391-.181c-.275-.02-.552,0-.827,0a1.546,1.546,0,0,1-.731-.153c-.469-.218-.958-.421-1.415-.672-.52-.288-1.011-.624-1.55-.963l-2.513,2.236c.181.076.345.148.509.218.827.327,1.659.637,2.478.985a3.526,3.526,0,0,1,1.332,1.026c.251.3.469.64.74.923a7.959,7.959,0,0,0,.819.686q.41.327.834.64a7.755,7.755,0,0,0,.856.609.808.808,0,0,0,.908-.02c.1-.079.3-.048.454-.052a2.581,2.581,0,0,1,.343.031.3.3,0,0,0,.319-.146.249.249,0,0,1,.327-.127,1.229,1.229,0,0,0,.954-.151.417.417,0,0,1,.188-.02c.218,0,.321-.138.236-.341a.889.889,0,0,0-.6-.487.41.41,0,0,1-.138-.046,9.568,9.568,0,0,1-.777-.688,2.216,2.216,0,0,1-.24-.406c-.186-.295-.376-.585-.565-.873Z"/><path class="d" d="M32.184,61.971l2.969,1.578a1.9,1.9,0,0,1,.786,2.57l-.092.175a1.9,1.9,0,0,1-2.567.782l-2.971-1.581a1.9,1.9,0,0,1-.784-2.565l.092-.175a1.9,1.9,0,0,1,2.567-.784Z"/><path class="x" d="M32.167,66.957A3.056,3.056,0,0,0,34.1,61.532l-8.663-6.953A76.251,76.251,0,0,0,24.371,41.4a3.056,3.056,0,0,0-6.078.491l1.17,14.49A3.056,3.056,0,0,0,20.6,58.509l9.684,7.772A3.037,3.037,0,0,0,32.167,66.957Z"/></g></g></svg>