<svg xmlns="http://www.w3.org/2000/svg" xmlns:xlink="http://www.w3.org/1999/xlink" width="204.268" height="134" viewBox="0 0 204.268 134"><defs><style>.a{fill:#e2a672;}.b{clip-path:url(#a);}.c{fill:#c5cced;}.d{fill:#fff;}.e{fill:#dadaf5;}.f{fill:#eaeafa;}.g{fill:#f49758;}.h{fill:url(#b);}.ac,.i{fill:#121c7c;}.i{opacity:0.05;}.j{fill:#efebf7;}.k{fill:#3f47c7;}.l{fill:#c8c8ee;}.m{fill:url(#c);}.n{fill:#4f5cd3;}.o{fill:#fb688f;}.p{fill:#ffa668;}.q{fill:#ecf3fe;}.r{fill:url(#d);}.s{fill:url(#e);}.t{fill:#eabcbc;}.u{fill:#212785;}.v{fill:#ff4f7c;}.w{fill:url(#f);}.x{fill:#6870f2;}.y{fill:#fcb3b3;}.z{fill:#fc8e8e;}.aa{fill:url(#g);}.ab{fill:url(#h);}.ad{fill:#4a4f72;}</style><clipPath id="a"><path class="a" d="M0,0H204.268V134H0Z" transform="translate(1373 1882)"/></clipPath><linearGradient id="b" y1="0.5" x2="1" y2="0.5" gradientUnits="objectBoundingBox"><stop offset="0" stop-color="#ffb583"/><stop offset="1" stop-color="#ff4f7c"/></linearGradient><linearGradient id="c" y1="0.5" x2="1" y2="0.5" gradientUnits="objectBoundingBox"><stop offset="0" stop-color="#fcb3b3"/><stop offset="1" stop-color="#fc8e8e"/></linearGradient><linearGradient id="d" x1="0.001" y1="0.5" x2="1" y2="0.5" xlink:href="#c"/><linearGradient id="e" x1="29.137" y1="0.5" x2="30.137" y2="0.5" gradientUnits="objectBoundingBox"><stop offset="0" stop-color="#4048c8"/><stop offset="1" stop-color="#2d32a4"/></linearGradient><linearGradient id="f" x1="37.114" y1="0.689" x2="37.817" y2="0.412" xlink:href="#e"/><linearGradient id="g" x1="33.804" y1="0.246" x2="34.504" y2="0.477" xlink:href="#e"/><linearGradient id="h" x1="42.402" y1="0.851" x2="42.883" y2="0.28" xlink:href="#e"/></defs><g class="b" transform="translate(-1373 -1882)"><g transform="translate(1394.236 1882)"><path class="c" d="M161.26,134H.536a.537.537,0,1,1,0-1.075H161.26a.537.537,0,1,1,0,1.075Z"/><rect class="d" width="97.951" height="100.365" rx="2.399" transform="translate(31.707)"/><path class="e" d="M40.223,10.166a1.4,1.4,0,0,1-.418-1,1.42,1.42,0,0,1,1.42-1.42h79.662a1.423,1.423,0,1,1,0,2.845H41.225a1.4,1.4,0,0,1-1-.42Z"/><path class="e" d="M76.16,16.088a1.423,1.423,0,0,1-1.412,1.42H41.225a1.423,1.423,0,0,1,0-2.845H74.748a1.423,1.423,0,0,1,1.412,1.425Z"/><path class="f" d="M45.718,59.09V57.577A34.96,34.96,0,0,1,100.818,29c.241.171.486.346.724.523a35.141,35.141,0,0,1,14.1,28.057V59.09Z"/><path class="d" d="M115.6,58.893h-66.9a33.451,33.451,0,0,1,52.721-27.345c.232.162.464.328.689.5A33.4,33.4,0,0,1,115.6,58.893Z"/><path class="f" d="M103.516,37.15l-2.123,2.287a.49.49,0,1,1-.718-.668l2.127-2.287a.49.49,0,1,1,.718.668Z"/><path class="f" d="M99.717,34.04l-1.727,2.6a.49.49,0,0,1-.821-.532l1.727-2.6a.49.49,0,1,1,.816.543Z"/><path class="f" d="M96.421,32.073l-1.381,2.8a.49.49,0,0,1-.875-.438l1.381-2.8a.49.49,0,1,1,.875.438Z"/><path class="f" d="M92.9,30.538l-1.013,2.946a.491.491,0,1,1-.928-.32l1.015-2.952a.491.491,0,0,1,.928.32Z"/><path class="f" d="M89.214,29.464l-.632,3.064a.491.491,0,1,1-.961-.2l.632-3.064a.491.491,0,0,1,.961.2Z"/><path class="f" d="M85.422,28.866l-.239,3.114a.491.491,0,0,1-.978-.074l.239-3.114a.491.491,0,0,1,.978.074Z"/><path class="f" d="M85.422,28.866l-.239,3.114a.491.491,0,0,1-.978-.074l.239-3.114a.491.491,0,0,1,.978.074Z"/><path class="g" d="M81.664,31.9a.49.49,0,1,1-.98,0V28.781a.49.49,0,1,1,.98,0Z"/><path class="f" d="M77.762,29.133l.554,3.064a.49.49,0,1,1-.965.175L76.8,29.308a.49.49,0,0,1,.965-.175Z"/><path class="f" d="M74.02,30l.941,2.976a.49.49,0,0,1-.935.3l-.941-2.976a.49.49,0,1,1,.934-.3Z"/><path class="f" d="M70.417,31.324l1.313,2.834a.49.49,0,0,1-.889.411l-1.313-2.834a.49.49,0,1,1,.889-.411Z"/><path class="f" d="M67.014,33.1l1.661,2.644a.49.49,0,0,1-.829.521L66.185,33.62a.49.49,0,1,1,.829-.521Z"/><path class="f" d="M63.863,35.294,65.846,37.7a.49.49,0,0,1-.757.622l-1.983-2.407a.49.49,0,1,1,.757-.622Z"/><path class="f" d="M61.016,37.861,63.289,40a.49.49,0,0,1-.672.713l-2.274-2.14a.49.49,0,1,1,.672-.713Z"/><path class="f" d="M58.521,40.787l2.528,1.834a.49.49,0,0,1-.576.792l-2.528-1.832a.49.49,0,1,1,.576-.792Z"/><path class="f" d="M56.415,43.989l2.74,1.5a.49.49,0,1,1-.471.86l-2.74-1.482a.49.49,0,1,1,.471-.86Z"/><path class="f" d="M54.735,47.451l2.909,1.138a.49.49,0,0,1-.357.913l-2.909-1.136a.49.49,0,1,1,.357-.913Z"/><path class="f" d="M53.507,51.091l3.029.759a.49.49,0,0,1-.239.95l-3.029-.759a.49.49,0,1,1,.239-.95Z"/><path class="g" d="M109.4,54.986l3.123-.018a.49.49,0,0,1,0,.98l-3.123.018a.49.49,0,1,1,0-.98Z"/><path class="g" d="M52.5,54.986l3.123-.018a.49.49,0,1,1,0,.98l-3.123.018a.49.49,0,0,1,0-.98Z"/><path class="f" d="M108.6,51.364l3.009-.81a.49.49,0,0,1,.256.945l-3.009.805a.49.49,0,1,1-.256-.945Z"/><path class="f" d="M108.6,51.364l3.009-.81a.49.49,0,0,1,.256.945l-3.009.805a.49.49,0,1,1-.256-.945Z"/><path class="f" d="M107.438,48.125l2.887-1.191a.49.49,0,1,1,.374.906l-2.889,1.182a.49.49,0,1,1-.374-.906Z"/><path class="f" d="M105.867,45.061l2.712-1.549a.49.49,0,0,1,.486.851l-2.7,1.549a.49.49,0,1,1-.486-.851Z"/><path class="f" d="M103.921,42.221l2.493-1.88a.491.491,0,0,1,.591.783L104.512,43a.491.491,0,1,1-.591-.783Z"/><path class="f" d="M103.921,42.221l2.493-1.88a.491.491,0,0,1,.591.783L104.512,43a.491.491,0,1,1-.591-.783Z"/><path class="h" d="M106.4,58.895h-48.5a24.251,24.251,0,1,1,48.5,0Z"/><path class="d" d="M95.235,58.895H69.056a13.089,13.089,0,1,1,26.179,0Z"/><path class="i" d="M83.126,34.666A24.292,24.292,0,0,0,59.91,58.895H57.842A24.279,24.279,0,0,1,82.093,34.642C82.439,34.642,82.785,34.651,83.126,34.666Z"/><path class="j" d="M88,58.895H76.3a5.852,5.852,0,1,1,11.7,0Z"/><path class="i" d="M102.422,32.278,84.538,58.91l-.829,1.237-1.232-1.261-1.609-1.652,20.867-25.461C101.967,31.939,102.2,32.108,102.422,32.278Z"/><path class="k" d="M83.761,60.136l-3.084-3.084L108.883,31.42a.4.4,0,0,1,.549.013.4.4,0,0,1,.013.549Z"/><circle class="l" cx="5.953" cy="5.953" r="5.953" transform="translate(76.193 52.942)"/><rect class="m" width="7.905" height="7.905" rx="0.978" transform="translate(38.233 69.643)"/><path class="e" d="M49.484,72.03a.891.891,0,0,1-.265-.639.9.9,0,0,1,.9-.9H75.915a.9.9,0,0,1,0,1.81h-25.8a.891.891,0,0,1-.632-.267Z"/><path class="e" d="M62.718,75.8a.9.9,0,0,1-.9.9h-11.7a.9.9,0,1,1,0-1.808H61.808a.9.9,0,0,1,.91.9Z"/><rect class="n" width="7.905" height="7.905" rx="0.978" transform="translate(84.546 69.643)"/><path class="e" d="M95.8,72.03a.891.891,0,0,1-.265-.639.9.9,0,0,1,.9-.9h25.792a.9.9,0,0,1,0,1.81H96.436A.891.891,0,0,1,95.8,72.03Z"/><path class="e" d="M109.031,75.8a.9.9,0,0,1-.9.9H96.436a.9.9,0,1,1,0-1.808h11.691A.9.9,0,0,1,109.031,75.8Z"/><rect class="o" width="7.905" height="7.905" rx="0.978" transform="translate(38.233 83.855)"/><path class="e" d="M49.484,86.242a.891.891,0,0,1-.265-.639.9.9,0,0,1,.9-.908h25.8a.9.9,0,1,1,0,1.81h-25.8a.893.893,0,0,1-.632-.263Z"/><path class="e" d="M62.718,90.011a.9.9,0,0,1-.9.9h-11.7a.9.9,0,1,1,0-1.808H61.808a.9.9,0,0,1,.91.9Z"/><rect class="p" width="7.905" height="7.905" rx="0.978" transform="translate(84.546 83.855)"/><path class="e" d="M95.8,86.242a.891.891,0,0,1-.265-.639.9.9,0,0,1,.9-.9h25.792a.9.9,0,1,1,0,1.81H96.436A.893.893,0,0,1,95.8,86.242Z"/><path class="e" d="M109.031,90.011a.9.9,0,0,1-.9.9H96.436a.9.9,0,1,1,0-1.808h11.691A.9.9,0,0,1,109.031,90.011Z"/><path class="q" d="M153.276,25.643a8.268,8.268,0,1,1-11.665.788,8.268,8.268,0,0,1,11.665-.788ZM143.052,37.349a7.275,7.275,0,1,0-.694-10.266,7.275,7.275,0,0,0,.694,10.266Z"/><path class="f" d="M153.276,25.643a8.268,8.268,0,1,1-11.665.788,8.268,8.268,0,0,1,11.665-.788ZM143.052,37.349a7.275,7.275,0,1,0-.694-10.266,7.275,7.275,0,0,0,.694,10.266Z"/><path class="r" d="M147.615,23.513a.827.827,0,0,1-.462,1.447A6.944,6.944,0,0,0,143.27,37.1a.829.829,0,1,1-1.094,1.245,8.6,8.6,0,0,1,4.815-15.033.827.827,0,0,1,.624.2Z"/><path class="l" d="M143.94,32.609l1.221-2.261H143.8a.243.243,0,1,1,0-.484h1.764a.23.23,0,0,1,.252.247.613.613,0,0,1-.077.265l-1.3,2.473a.291.291,0,0,1-.265.184.258.258,0,0,1-.282-.247.438.438,0,0,1,.046-.177Z"/><path class="l" d="M146.273,32.725a.267.267,0,0,1,.153-.484.245.245,0,0,1,.162.055,1.053,1.053,0,0,0,.681.265.549.549,0,0,0,.611-.543h0c0-.322-.269-.521-.657-.521a2.134,2.134,0,0,0-.538.107.438.438,0,0,1-.26-.107.26.26,0,0,1-.107-.243l.068-1.131a.254.254,0,0,1,.252-.247h1.423a.249.249,0,0,1,.247.247.245.245,0,0,1-.247.243h-1.18l-.05.735a1.335,1.335,0,0,1,.5-.09.969.969,0,0,1,1.094.987h0a1.056,1.056,0,0,1-1.149,1.064,1.591,1.591,0,0,1-1-.337Z"/><path class="l" d="M148.906,30.639h0a.757.757,0,0,1,.744-.8.748.748,0,0,1,.735.794h0a.742.742,0,1,1-1.479,0Zm1.081,0h0c0-.252-.144-.457-.346-.457s-.337.206-.337.449h0c0,.256.144.457.346.457S149.987,30.889,149.987,30.639Zm-.565,2.094,2.059-2.812a.171.171,0,0,1,.153-.081.177.177,0,0,1,.179.175.2.2,0,0,1-.039.116l-2.059,2.812a.184.184,0,0,1-.158.081.173.173,0,0,1-.175-.175.2.2,0,0,1,.039-.107Zm1.381-.488h0a.742.742,0,1,1,1.479,0h0a.759.759,0,0,1-.744.8.751.751,0,0,1-.735-.8Zm1.081,0h0c0-.252-.144-.457-.346-.457s-.337.206-.337.449h0c0,.256.144.457.346.457s.335-.2.335-.442Z"/><path class="s" d="M19.7,43.582c.956-2.593.3-5.679-.046-8.535a49.481,49.481,0,0,1,.1-10.916l12.1.385c.422,1.5.906,2.979,1.359,4.447C34.43,32.9,35.454,37.279,34.5,41.35a12.3,12.3,0,0,1-4.075,6.644,14.148,14.148,0,0,1-6.128,2.812,5.307,5.307,0,0,1-3.793-.219,4.182,4.182,0,0,1-1.9-4.073A15.2,15.2,0,0,1,19.7,43.582Z"/><path class="t" d="M29.825,121.243H33.41c.363,4.13,1.412,8.94,3.856,9.211.9.875-7.918,4.134-8.48.777C28.311,128.391,30.374,129.19,29.825,121.243Z"/><path class="u" d="M28.558,130.754v2.394a.488.488,0,0,0,.488.488H41.266a.486.486,0,0,0,.468-.63c-.341-1.04-1.433-2.963-4.793-2.611,0,0-.961,1.72-4.121,1.081S28.656,130.236,28.558,130.754Z"/><path class="t" d="M11.892,121.681l-2.79-.037c-.74,4.077-1.983,9.052-4.44,9.1-.974.794,7.281,4.48,8.15,1.188C13.542,129.159,10.616,129.56,11.892,121.681Z"/><path class="u" d="M3.421,133.624h9.161a.438.438,0,0,0,.438-.438v-2.147a.134.134,0,0,0-.219-.094c-2.646,2.234-4.287-1.578-6.721-1.186-1.836.3-2.742,2.267-3.092,3.283a.438.438,0,0,0,.433.582Z"/><path class="o" d="M36.355,42.82a26.583,26.583,0,0,0,1.029,3.3c.6,1.532,1.427,3.064,2.39,3.149,3.252.245,8.848-7.137,8.848-7.137l-1.606-2.3-5.909,5.016S38.675,32.93,37.016,32.97a.727.727,0,0,0-.232.037c-.142.039.055.219-.048.339a4.123,4.123,0,0,0-.757,2.456A36.808,36.808,0,0,0,36.355,42.82Z"/><path class="v" d="M35.977,35.524c.219-.742.451-1.484.683-2.213l.035-.112h.352a5.541,5.541,0,0,1,.875,2.162,16.8,16.8,0,0,1,.186,2.758,27.065,27.065,0,0,1-.14,4,11.207,11.207,0,0,1-.394,1.854,7.06,7.06,0,0,1-.337.875,23.969,23.969,0,0,1-.926-2.976A33.229,33.229,0,0,1,35.977,35.524Z"/><path class="w" d="M34.064,27.51a15.144,15.144,0,0,1-3.353,7.469,5.155,5.155,0,0,1-1.449,1.455,1.956,1.956,0,0,1-1.97.074,2.949,2.949,0,0,1-.9-1.175l-3.76-7.27a9.261,9.261,0,0,1-1.261-3.569,8.694,8.694,0,0,1,.875-3.749,5.472,5.472,0,0,1,1.49-2.307,5.124,5.124,0,0,1,2.519-.875,10.286,10.286,0,0,1,3.064-.042,5.344,5.344,0,0,1,2.013.744,2.776,2.776,0,0,1,1.077,1.609,23.264,23.264,0,0,1,1.5,4.815,10.986,10.986,0,0,1,.149,2.821Z"/><path class="n" d="M7.826,122.712l4.18,1.018s7.472-24.117,7.809-28.311c.254-3.092,4.517-15.42,6.743-21.666.786-2.226,1.313-3.685,1.313-3.685S30,92.486,28.416,99.393s.79,23.321.79,23.321h5.1s-2.825-14.945,3.064-37.7c4.624-17.889.495-28.429-1.475-32.121-.1-.186-.2-.355-.285-.51a9.753,9.753,0,0,0-.632-.994h-13s-.193.341-.547,1.022c-.088.169-.182.361-.291.571-.821,1.626-2.2,4.493-3.913,8.6-2.14,5.132-3.114,22.349-3.46,30.455a26.328,26.328,0,0,1-1.451,7.314C9.467,107.55,7.826,122.712,7.826,122.712Z"/><path class="u" d="M21.423,52.415l.081.022a29.127,29.127,0,0,0,7.634,1.094,15.846,15.846,0,0,0,6.471-1.151,9.751,9.751,0,0,0-.632-.994H21.97S21.778,51.734,21.423,52.415Z"/><rect class="x" width="0.457" height="2.662" transform="translate(32.297 54.487) rotate(172.519)"/><rect class="x" width="0.457" height="2.666" transform="matrix(-0.971, -0.239, 0.239, -0.971, 26.405, 54.296)"/><path class="d" d="M28.151,52.478v.847a.479.479,0,0,0,.479.471h.8l.046,3.313h.162L29.6,53.8h.657a.473.473,0,0,0,.468-.477v-.847a.477.477,0,0,0-.477-.468l-1.628.02A.471.471,0,0,0,28.151,52.478Zm.166,0a.306.306,0,0,1,.3-.311l1.628-.02a.309.309,0,0,1,.311.306V53.3a.309.309,0,0,1-.306.311l-1.626.02a.306.306,0,0,1-.311-.306Z"/><path class="d" d="M9.273,123.049c.219-1.67,2.105-16.519,4.574-23.636A26.514,26.514,0,0,0,15.3,92.062c.317-7.419,1.289-25.231,3.453-30.407A104.3,104.3,0,0,1,23.5,51.476l-.252-.142a101.957,101.957,0,0,0-4.758,10.212c-2.182,5.2-3.169,23.062-3.478,30.495a26.185,26.185,0,0,1-1.442,7.27c-2.477,7.152-4.377,22.029-4.6,23.7Z"/><path class="o" d="M19.764,38.373V38.5a22.726,22.726,0,0,0,.418,4.727c.035.173.081.348.127.5.024.105.057.2.081.3.057.162.105.313.162.453a2.506,2.506,0,0,0,.186.394,1.989,1.989,0,0,0,.243.4c1.668,2.237.985,6.117.985,6.117,8.55,2.34,12.733,0,12.733,0a23.464,23.464,0,0,1,.151-3.567,2.46,2.46,0,0,1,1.009-1.889c1.094-.718,1.471-2.845,1.587-4.322.081-.893.07-1.565.07-1.565s.858-6.141-.626-7.067a7.549,7.549,0,0,0-2.526-.394,72.573,72.573,0,0,0-11.435.532,5.247,5.247,0,0,0-2.571.731A12.753,12.753,0,0,0,19.764,38.373Z"/><path class="v" d="M19.764,38.373V38.5a22.726,22.726,0,0,0,.418,4.727c.035.173.081.348.127.5.024.105.057.2.081.3.057.162.105.313.162.453a2.506,2.506,0,0,0,.186.394,1.989,1.989,0,0,0,.243.4c1.668,2.237.985,6.117.985,6.117,8.55,2.34,13.013,0,13.013,0a15.016,15.016,0,0,1-.131-3.567,2.46,2.46,0,0,1,1.009-1.889c1.094-.718,1.471-2.845,1.587-4.322a6.365,6.365,0,0,1-1.668,2.062,5.53,5.53,0,0,1-4.112.95,9.451,9.451,0,0,0-1.751-.267c-1.009.035-1.889.672-2.884.788a3.954,3.954,0,0,1-3.3-1.484,12.76,12.76,0,0,1-1.83-3.283c-.359-.823-.893-1.751-1.751-1.878A1.442,1.442,0,0,0,19.764,38.373Z"/><path class="y" d="M25.719,32.828v-.081c3.344-.077,7.557-.206,8.647-.149-.079,2.626-1.355,5.782-4.425,5.782-2.93,0-6.465-2.725-7-5.252C23.739,33.007,24.693,32.9,25.719,32.828Z"/><path class="z" d="M22.938,33.16c.565,2.512,4.082,5.213,7,5.213,3.127,0,4.39-3.116,4.425-5.78a2.358,2.358,0,0,1-.3-.013c-.243,2.464-1.547,5.034-4.377,5.034A8.364,8.364,0,0,1,22.938,33.16Z"/><path class="k" d="M28.422,99.391c-1.587,6.9.788,23.321.788,23.321h.534a325.285,325.285,0,0,0,1.333-60.635c-2.909,3.092-3.928,7.391-4.519,11.678.788-2.226,1.313-3.683,1.313-3.683S30.011,92.486,28.422,99.391Z"/><path class="o" d="M21.371,33.863s1.313.622,1.055,3.539-1.738,15.643-5.09,14.961-7.583-4.653-7.583-4.653l1.37-2.239,5.128,2.5S17.274,32.125,21.371,33.863Z"/><path class="y" d="M7.047,45.77s-2.189-.363-3.11-.613a5.558,5.558,0,0,1-1.8-.613,7.067,7.067,0,0,1-1.4-1.937,7.915,7.915,0,0,1-.031-2.1c.09-.28.438-1.217.438-1.217s.042-.151.317-.022a.326.326,0,0,1,.411.138c.2.254.254.488-.105,1.094l.643-.486a.409.409,0,0,1,.333.23c.123.219-.046.475-.138.589a2.493,2.493,0,0,1-.365.306,3.064,3.064,0,0,1,.155.961,1.843,1.843,0,0,1,.727.558,1.532,1.532,0,0,1,1.055.285,8.872,8.872,0,0,1,1.313.219c.42.133.937.031,1.532.186a2.734,2.734,0,0,1,1.482.783,13.649,13.649,0,0,0,2.626,1.352L9.752,47.709"/><line class="y" x1="2.705" y1="1.95" transform="translate(7.047 45.77)"/><path class="z" d="M1.423,39.255l-.3.56c-.037.072-.451.805-.451.805l.079-.267.285-.788.1-.274a.1.1,0,0,1,.05-.057.252.252,0,0,1,.131-.013.751.751,0,0,1,.1.033Z"/><path class="z" d="M1.764,40.487s-.407.35-.462.416a16.223,16.223,0,0,0,.116,1.692s-.278-1.145-.324-1.451-.05-.28.219-.63S2.329,39.612,1.764,40.487Z"/><path class="d" d="M17.832,94.224a1.832,1.832,0,1,1,1.832-1.832A1.832,1.832,0,0,1,17.832,94.224Zm0-3.3A1.473,1.473,0,1,0,19.3,92.394,1.473,1.473,0,0,0,17.832,90.921Z"/><path class="d" d="M32.534,94.224a1.832,1.832,0,1,1,1.832-1.832A1.832,1.832,0,0,1,32.534,94.224Zm0-3.3a1.473,1.473,0,1,0,1.473,1.473A1.473,1.473,0,0,0,32.534,90.921Z"/><path class="y" d="M22.08,27.041a3.129,3.129,0,0,0,.657.731,6.739,6.739,0,0,1,.687.519,2.357,2.357,0,0,1,.834,1.806v3.189a3.07,3.07,0,0,0,2.8,3.1,3,3,0,0,0,3.2-2.992V31.558h.018a3.961,3.961,0,0,0,2.652-3.742V23.673a3.966,3.966,0,0,0-3.966-3.966h-.748a3.97,3.97,0,0,0-3.97,3.97v2.189a1.407,1.407,0,0,0-.438-.678,1.269,1.269,0,0,0-1.679.147A1.363,1.363,0,0,0,22.08,27.041Z"/><path class="z" d="M26.886,30.928a3.283,3.283,0,0,0,2.477,1.97,3.344,3.344,0,0,0,.875.033V31.554a4.546,4.546,0,0,1-.541.079,4.427,4.427,0,0,1-2.812-.7Z"/><path class="aa" d="M21.246,30.026c1.458,2.145,1.628,5.8,1.628,5.8A3.074,3.074,0,0,0,25.319,33.9a3.035,3.035,0,0,0,.337-1.449V32.39a3.051,3.051,0,0,0-.554-1.751,17.239,17.239,0,0,1-1.263-2.129,7.713,7.713,0,0,0-.624-1.018,6.062,6.062,0,0,1-.893-4.819c-.116-.534-.105-.875.1-.875a.37.37,0,0,0,.232-.123,5.344,5.344,0,0,1,.643-1.1,23.668,23.668,0,0,0,.875-2.738l1.694.987c.495-.14,5.675,1.094,6.428,2.845a5.128,5.128,0,0,1,.989,1.532l.438.263A10.44,10.44,0,0,0,31.3,16.3c-1.031-1.092-6.861-3.044-9.794.952S19.8,27.875,21.246,30.026Z"/><path class="ab" d="M24.264,19.09a8.166,8.166,0,0,0,.759.775,9.735,9.735,0,0,0,3.11,1.381A8.406,8.406,0,0,1,31.2,22.714a5.034,5.034,0,0,1,1.635,3.819A6.784,6.784,0,0,1,31.4,30.5c-.854,1.145-2.053,2.145-2.309,3.545A2.95,2.95,0,0,0,32.854,37.4a1.937,1.937,0,0,1-1.024-2.169,4.645,4.645,0,0,1,.875-1.5,10.792,10.792,0,0,0,1.25-10.249,6.753,6.753,0,0,0-2.167-2.959,11.531,11.531,0,0,0-4.364-1.532,9.767,9.767,0,0,1-2.736-1.007,1.443,1.443,0,0,1-.169-.1c-.059-.033-.109-.072-.16-.105s-.059-.046-.088-.066a2.329,2.329,0,0,1-.672-.845A3.661,3.661,0,0,0,24.264,19.09Z"/><path class="d" d="M28.013,29.63a1.849,1.849,0,0,0,.606-.112.219.219,0,1,0-.14-.4,1.3,1.3,0,0,1-1.589-.582.219.219,0,0,0-.368.2A1.751,1.751,0,0,0,28.013,29.63Z"/><path class="ac" d="M27.529,23.874a2.3,2.3,0,0,1-1.685.206c-.116-.033-.127-.129-.022-.19a2.311,2.311,0,0,1,1.683-.206C27.619,23.717,27.634,23.813,27.529,23.874Z"/><path class="ac" d="M31.718,24.1a2.3,2.3,0,0,1-1.681-.249c-.1-.061-.088-.158.031-.19a2.311,2.311,0,0,1,1.676.249C31.847,23.973,31.834,24.074,31.718,24.1Z"/><circle class="ac" cx="0.398" cy="0.398" r="0.398" transform="translate(30.211 25.355) rotate(-4.54)"/><circle class="ac" cx="0.398" cy="0.398" r="0.398" transform="translate(26.457 25.357) rotate(-4.54)"/><path class="z" d="M28.142,27.9l1.033.018a.232.232,0,0,0,.232-.28l-.573-1.449a.219.219,0,0,0-.4,0l-.512,1.429a.232.232,0,0,0,.223.282Z"/><path class="ad" d="M45.6,47.683l-6.4-.193a.425.425,0,0,1-.363-.619L45.4,34.217A.425.425,0,0,1,45.805,34l6.266.488a.425.425,0,0,1,.344.619l-6.43,12.367a.425.425,0,0,1-.39.21Z"/><path class="y" d="M46.49,41.674c-.3.886.643,2,2.108,2.5s2.543-2.72,1.081-3.213S46.788,40.785,46.49,41.674Z"/></g></g></svg>