<svg id="Layer_2" data-name="Layer 2" xmlns="http://www.w3.org/2000/svg" xmlns:xlink="http://www.w3.org/1999/xlink" width="169.33" height="134" viewBox="0 0 169.33 134">
  <defs>
    <linearGradient id="linear-gradient" y1="0.5" x2="1" y2="0.5" gradientUnits="objectBoundingBox">
      <stop offset="0" stop-color="#ffb583"/>
      <stop offset="1" stop-color="#ff4f7c"/>
    </linearGradient>
    <linearGradient id="linear-gradient-2" x1="43.228" y1="-9.528" x2="42.373" y2="-9.811" gradientUnits="objectBoundingBox">
      <stop offset="0" stop-color="#f788a8"/>
      <stop offset="1" stop-color="#ff4d7b"/>
    </linearGradient>
    <linearGradient id="linear-gradient-3" x1="32.11" y1="0.219" x2="32.139" y2="0.938" xlink:href="#linear-gradient-2"/>
    <linearGradient id="linear-gradient-4" x1="252.266" y1="-0.358" x2="252.266" y2="-0.282" xlink:href="#linear-gradient-2"/>
    <linearGradient id="linear-gradient-5" x1="246.658" y1="-0.369" x2="246.658" y2="-0.292" xlink:href="#linear-gradient-2"/>
    <linearGradient id="linear-gradient-6" x1="76.882" y1="0.501" x2="77.88" y2="0.501" xlink:href="#linear-gradient-2"/>
    <linearGradient id="linear-gradient-7" x1="97.991" y1="0.5" x2="98.99" y2="0.5" xlink:href="#linear-gradient-2"/>
    <linearGradient id="linear-gradient-8" x1="103.793" y1="1.839" x2="102.044" y2="1.059" xlink:href="#linear-gradient-2"/>
    <linearGradient id="linear-gradient-9" x1="33.055" y1="0.972" x2="32.499" y2="0.785" xlink:href="#linear-gradient-2"/>
  </defs>
  <g id="Layer_1" data-name="Layer 1">
    <path id="Path_10236" data-name="Path 10236" d="M38.249,132.18a7.72,7.72,0,0,1-.431,1.311H5.65A18.949,18.949,0,0,1,2.1,129.865a4.916,4.916,0,0,1-.1-5.1,4.867,4.867,0,0,1,3.956-1.857,14.589,14.589,0,0,1,4.433.857,24.066,24.066,0,0,1-1.68-8,6.773,6.773,0,0,1,.653-3.667,4.537,4.537,0,0,1,3.468-2.1,5.331,5.331,0,0,1,1.873.124,7.953,7.953,0,0,1,4.63,3.75,23.6,23.6,0,0,1,2.207,5.68,8.638,8.638,0,0,1,8.137-7,6.6,6.6,0,0,1,1.453.135,4.311,4.311,0,0,1,2.116,1.045,2.854,2.854,0,0,1,.6,3.5c-1.907,2.911-2.088,6.61-3.649,9.709a3.667,3.667,0,0,1,.458-.562h0a4.355,4.355,0,0,1,3.174-1.24,4.852,4.852,0,0,1,3.83,2.446,6.381,6.381,0,0,1,.589,4.591Z" fill="#ffefeb"/>
    <path id="Path_10237" data-name="Path 10237" d="M33.846,117.234c-1.907,2.911-2.088,6.61-3.649,9.709-.147,0-.108-.731-.119-1.293a14.405,14.405,0,0,1,1-5.68,15.3,15.3,0,0,0,1.187-3.349,5.042,5.042,0,0,0-.766-3.438,4.453,4.453,0,0,0-.374-.488,4.311,4.311,0,0,1,2.116,1.045A2.85,2.85,0,0,1,33.846,117.234Z" fill="#fcb3b3"/>
    <rect id="Rectangle_508" data-name="Rectangle 508" width="9.175" height="0.186" transform="matrix(0.763, -0.646, 0.646, 0.763, 29.549, 132.723)" fill="#fcb3b3"/>
    <path id="Path_10238" data-name="Path 10238" d="M36.938,128.836H34.387l0-2.556h.186l0,2.368h2.365Z" fill="#fcb3b3"/>
    <path id="Path_10239" data-name="Path 10239" d="M34.476,130.878H31.925l0-2.556h.186l0,2.37h2.365Z" fill="#fcb3b3"/>
    <path id="Path_10240" data-name="Path 10240" d="M32.072,132.881H29.519l0-2.556H29.7l0,2.368h2.365Z" fill="#fcb3b3"/>
    <path id="Path_10241" data-name="Path 10241" d="M30.2,126.943a3.669,3.669,0,0,1,.458-.562C30.484,126.686,30.312,126.936,30.2,126.943Z" fill="#c8c8ee"/>
    <path id="Path_10242" data-name="Path 10242" d="M21.545,119.553l-.539,2.48S19.445,113.37,12.835,110a5.331,5.331,0,0,1,1.873.124,7.953,7.953,0,0,1,4.63,3.75A23.9,23.9,0,0,1,21.545,119.553Z" fill="#fcb3b3"/>
    <path id="Path_10243" data-name="Path 10243" d="M21.02,131.768l-.08-.172L12,112.735l.17-.08,8.859,18.691,9.088-17.8.165.085Z" fill="#fcb3b3"/>
    <path id="Path_10244" data-name="Path 10244" d="M21.048,133.5l-.112-1.868L4.3,127.032l.05-.179,16.761,4.63.121,2Z" fill="#fcb3b3"/>
    <path id="Path_10245" data-name="Path 10245" d="M28.678,116.583l-1.013-1.717.16-.1.942,1.6,1.286-.3.041.181Z" fill="#fcb3b3"/>
    <path id="Path_10246" data-name="Path 10246" d="M26.615,120.6,25.389,118.2l.167-.085,1.167,2.283,2.177-.193.018.186Z" fill="#fcb3b3"/>
    <path id="Path_10247" data-name="Path 10247" d="M23.738,126.242l-1.49-4.877.176-.055L23.858,126l2.5-.94.066.176Z" fill="#fcb3b3"/>
    <path id="Path_10248" data-name="Path 10248" d="M13.862,116.4l-3.007-.66.041-.181,2.815.617.523-3.138.183.03Z" fill="#fcb3b3"/>
    <path id="Path_10249" data-name="Path 10249" d="M16.413,121.834l-4.35-.976.041-.183,4.215.949,1.708-2.98.16.092Z" fill="#fcb3b3"/>
    <path id="Path_10250" data-name="Path 10250" d="M19.161,127.624l-4.314-1.153.048-.179,4.153,1.109.747-1.891.172.069Z" fill="#fcb3b3"/>
    <path id="Path_10251" data-name="Path 10251" d="M5.563,128.8l-.138-.124,1.018-1.146-.85-2.608.176-.057.882,2.709Z" fill="#fcb3b3"/>
    <path id="Path_10252" data-name="Path 10252" d="M8.4,129.7l-.064-.174,2.237-.83-2.093-2.872.149-.11,2.239,3.069Z" fill="#fcb3b3"/>
    <path id="Path_10253" data-name="Path 10253" d="M11.1,131.956l-.08-.167,3.935-1.9L13,127.358l.147-.112,2.09,2.707Z" fill="#fcb3b3"/>
    <rect id="Rectangle_509" data-name="Rectangle 509" width="137.039" height="7.784" rx="2.29" fill="#ffeee9"/>
    <path id="Path_10254" data-name="Path 10254" d="M0,4.465V5.5A2.292,2.292,0,0,0,2.292,7.793H134.747A2.292,2.292,0,0,0,137.039,5.5V4.465Z" fill="#fcb3b3"/>
    <rect id="Rectangle_510" data-name="Rectangle 510" width="127.035" height="77.179" transform="translate(5.001 7.784)" fill="#fff"/>
    <path id="Path_10255" data-name="Path 10255" d="M60.715,78.749h-.062a.371.371,0,0,1-.307-.429,14.759,14.759,0,0,1,1.779-5.712c1.036-1.6,3.152-3.087,5.354-2.565,1.946.458,3.053,2.175,4.126,3.832.974,1.508,1.9,2.931,3.385,3.5,2.177.823,4.607-.672,5.886-2.569a18.767,18.767,0,0,0,2.017-4.65c.229-.7.474-1.43.747-2.134.811-2.095,2.336-4.767,4.983-5.606,3.016-.956,6.069.834,7.921,2.828a28.536,28.536,0,0,1,2.906,3.954c.642.988,1.3,2.008,2.042,2.936a8.736,8.736,0,0,0,3.784,3,4.23,4.23,0,0,0,4.371-.754,7.058,7.058,0,0,0,1.449-3.064c.069-.229.138-.458.209-.688.61-1.948,1.561-3.126,2.824-3.5a5.37,5.37,0,0,1,2.968.229,8.442,8.442,0,0,0,1.675.342,5.32,5.32,0,0,0,4.545-2.739,17.01,17.01,0,0,0,1.834-5.272l.053-.229a15.092,15.092,0,0,1,2.184-5.673.374.374,0,0,1,.6.438,14.579,14.579,0,0,0-2.063,5.4l-.053.229a17.406,17.406,0,0,1-1.928,5.5,6.052,6.052,0,0,1-5.221,3.083,9.1,9.1,0,0,1-1.834-.367,4.644,4.644,0,0,0-2.558-.229c-1.013.3-1.795,1.316-2.326,3.012-.071.229-.138.458-.2.688a7.579,7.579,0,0,1-1.634,3.378,4.969,4.969,0,0,1-5.15.933,9.506,9.506,0,0,1-4.126-3.243c-.759-.956-1.433-1.992-2.083-2.993a28.189,28.189,0,0,0-2.826-3.853c-1.62-1.744-4.463-3.477-7.151-2.627-2.365.749-3.761,3.223-4.513,5.164-.266.688-.5,1.4-.733,2.1a19.4,19.4,0,0,1-2.106,4.832c-1.442,2.141-4.229,3.809-6.768,2.849-1.719-.649-2.75-2.244-3.747-3.786-1.038-1.6-2.017-3.119-3.667-3.511-1.85-.44-3.667.857-4.554,2.246a14.151,14.151,0,0,0-1.669,5.427A.374.374,0,0,1,60.715,78.749Z" fill="#dadaf5"/>
    <rect id="Rectangle_511" data-name="Rectangle 511" width="44.793" height="38.946" rx="1.297" transform="translate(70.468 13.08)" fill="#fff"/>
    <path id="Path_10256" data-name="Path 10256" d="M25.462,40.039v-6.86a.761.761,0,0,0-.761-.761H20.642a.761.761,0,0,0-.761.761v6.86Z" fill="#fcb3b3"/>
    <path id="Path_10257" data-name="Path 10257" d="M36.074,40.039V27.186a.761.761,0,0,0-.761-.761H31.252a.761.761,0,0,0-.761.761V40.039Z" fill="#fcb3b3"/>
    <path id="Path_10258" data-name="Path 10258" d="M46.684,40.039V17.878a.761.761,0,0,0-.761-.761H41.864a.761.761,0,0,0-.761.761V40.032Z" fill="#fcb3b3"/>
    <path id="Path_10259" data-name="Path 10259" d="M51.534,40.314h-36.5a.282.282,0,0,1,0-.562h36.5a.282.282,0,0,1,0,.562Z" fill="#dadaf5"/>
    <path id="Path_10260" data-name="Path 10260" d="M51.534,40.314h-36.5a.282.282,0,0,1,0-.562h36.5a.282.282,0,0,1,0,.562Z" fill="#dadaf5"/>
    <circle id="Ellipse_21" data-name="Ellipse 21" cx="3.048" cy="3.048" r="3.048" transform="translate(17.041 48.091)" fill="#ffa668"/>
    <rect id="Rectangle_512" data-name="Rectangle 512" width="24.508" height="1.774" rx="0.543" transform="translate(25.017 50.252)" fill="#dadaf5"/>
    <circle id="Ellipse_22" data-name="Ellipse 22" cx="3.048" cy="3.048" r="3.048" transform="translate(17.041 56.56)" fill="#ff4f7c"/>
    <rect id="Rectangle_513" data-name="Rectangle 513" width="24.508" height="1.774" rx="0.543" transform="translate(25.017 58.719)" fill="#dadaf5"/>
    <circle id="Ellipse_23" data-name="Ellipse 23" cx="3.048" cy="3.048" r="3.048" transform="translate(17.041 65.027)" fill="#4f5cd3"/>
    <rect id="Rectangle_514" data-name="Rectangle 514" width="24.508" height="1.774" rx="0.543" transform="translate(25.017 67.188)" fill="#dadaf5"/>
    <circle id="Ellipse_24" data-name="Ellipse 24" cx="3.048" cy="3.048" r="3.048" transform="translate(17.041 73.496)" fill="url(#linear-gradient)"/>
    <rect id="Rectangle_515" data-name="Rectangle 515" width="24.508" height="1.774" rx="0.543" transform="translate(25.017 75.657)" fill="#dadaf5"/>
    <path id="Path_10261" data-name="Path 10261" d="M107.724,40.688h0L94.763,33.2l14.05-5.171a14.935,14.935,0,0,1-1.089,12.654Z" fill="#fc8e8e"/>
    <path id="Path_10262" data-name="Path 10262" d="M94.33,30.942l6-13.706a14.926,14.926,0,0,1,8.052,8.542Z" fill="#ff4f7c"/>
    <path id="Path_10263" data-name="Path 10263" d="M90.965,32.895l12.964,7.483a14.974,14.974,0,1,1-6.965-21.187Z" fill="#dadaf5"/>
    <path id="Path_10264" data-name="Path 10264" d="M60.381,77.63h-.062a.371.371,0,0,1-.307-.429A14.759,14.759,0,0,1,61.79,71.49c1.036-1.6,3.152-3.087,5.354-2.565,1.946.458,3.053,2.175,4.126,3.832.974,1.508,1.9,2.931,3.385,3.5,2.177.823,4.607-.672,5.886-2.569a18.767,18.767,0,0,0,2.017-4.65c.229-.7.474-1.43.747-2.134.811-2.095,2.336-4.767,4.983-5.606,3.016-.956,6.069.834,7.921,2.828a28.537,28.537,0,0,1,2.906,3.954c.642.988,1.3,2.008,2.042,2.936a8.736,8.736,0,0,0,3.784,3,4.23,4.23,0,0,0,4.371-.754,7.058,7.058,0,0,0,1.449-3.064c.069-.229.138-.458.209-.688.61-1.948,1.561-3.126,2.824-3.5a5.37,5.37,0,0,1,2.968.229,8.439,8.439,0,0,0,1.675.342,5.32,5.32,0,0,0,4.545-2.739,17.01,17.01,0,0,0,1.834-5.272l.053-.229a15.092,15.092,0,0,1,2.184-5.673.374.374,0,1,1,.6.438,14.579,14.579,0,0,0-2.063,5.4l-.053.229a17.406,17.406,0,0,1-1.928,5.5,6.038,6.038,0,0,1-5.223,3.085,9.1,9.1,0,0,1-1.834-.367A4.644,4.644,0,0,0,114,66.72c-1.013.3-1.795,1.316-2.326,3.012-.071.229-.138.458-.2.688a7.579,7.579,0,0,1-1.634,3.378,4.969,4.969,0,0,1-5.15.933,9.516,9.516,0,0,1-4.126-3.241c-.759-.956-1.433-1.992-2.083-2.993a24.99,24.99,0,0,0-2.81-3.873C94.043,62.879,91.2,61.146,88.513,62c-2.365.749-3.761,3.223-4.513,5.164-.266.688-.5,1.405-.733,2.1a19.451,19.451,0,0,1-2.106,4.834c-1.442,2.141-4.229,3.809-6.768,2.849-1.719-.649-2.75-2.244-3.747-3.786-1.038-1.6-2.017-3.119-3.667-3.511-1.85-.44-3.667.857-4.554,2.246a14.151,14.151,0,0,0-1.669,5.427.374.374,0,0,1-.374.312Z" fill="#ff4f7c"/>
    <circle id="Ellipse_25" data-name="Ellipse 25" cx="1.318" cy="1.318" r="1.318" transform="translate(59.251 76.544)" fill="#ff4f7c"/>
    <circle id="Ellipse_26" data-name="Ellipse 26" cx="0.665" cy="0.665" r="0.665" transform="translate(59.904 77.197)" fill="#fff"/>
    <circle id="Ellipse_27" data-name="Ellipse 27" cx="1.318" cy="1.318" r="1.318" transform="translate(126.122 52.182)" fill="#ff4f7c"/>
    <circle id="Ellipse_28" data-name="Ellipse 28" cx="0.665" cy="0.665" r="0.665" transform="translate(126.776 52.835)" fill="#fff"/>
    <path id="Path_10265" data-name="Path 10265" d="M135.474,28.109a14.638,14.638,0,0,0,3.262,7.268,5.058,5.058,0,0,0,1.41,1.416,1.873,1.873,0,0,0,1.912.073,2.789,2.789,0,0,0,.871-1.146l3.667-7.073a9.05,9.05,0,0,0,1.226-3.475,8.361,8.361,0,0,0-.866-3.647A5.363,5.363,0,0,0,145.5,19.28a4.9,4.9,0,0,0-2.452-.846,10.011,10.011,0,0,0-2.98-.041,5.2,5.2,0,0,0-1.96.724,2.69,2.69,0,0,0-1.047,1.565,22.639,22.639,0,0,0-1.458,4.678,10.69,10.69,0,0,0-.133,2.748Z" fill="#121c7c"/>
    <path id="Path_10266" data-name="Path 10266" d="M149.439,43.695c-.931-2.521-.286-5.526.046-8.313a48.123,48.123,0,0,0-.1-10.621l-11.776.374c-.413,1.46-.882,2.9-1.322,4.327-1.18,3.825-2.177,8.1-1.249,12.054A11.964,11.964,0,0,0,139,47.981a13.632,13.632,0,0,0,5.959,2.737,5.185,5.185,0,0,0,3.69-.215,4.053,4.053,0,0,0,1.859-3.951A13.983,13.983,0,0,0,149.439,43.695Z" fill="#121c7c"/>
    <g id="_Group_" data-name="&lt;Group&gt;">
      <path id="Path_10267" data-name="Path 10267" d="M117.731,58.247c-.087,0-.873.284-1.082.312s-.931.229-1.112.284-.479,0-.408-.273.811-.543,1.224-.688,1.21-.353,1.375-.429a6.33,6.33,0,0,0,.917-.516.38.38,0,0,0,0-.52c-.165-.206-.507-.229-.917-.752s-.167-.791-.044-.811.229.229.307.316a1.7,1.7,0,0,0,.4.259,4.43,4.43,0,0,0,1.834.387,2.329,2.329,0,0,1,1.251.348,68.482,68.482,0,0,1,10.314-5.194l-.637-11.536h5.109l-.046,12.391v.358a1.308,1.308,0,0,1-.041.291,1.994,1.994,0,0,1-1.219,1.639c-.11.055-12.675,4.183-12.7,4.194-.215.092-.094.47-.688.857-.367.229-1.018.474-1.187.642a4.617,4.617,0,0,0-.532.786,6.158,6.158,0,0,1-.818,1.229c-.2.112-.3.055-.376-.073a4.785,4.785,0,0,1,.619-1.4c.2-.355-.076-.44-.147-.419a4.981,4.981,0,0,0-.763.559c-.115.126-.637.474-.979.733s-.658.442-.814.206.126-.458.144-.458a9.7,9.7,0,0,0,.825-.759c.229-.25.658-.518.823-.7s.071-.307-.073-.339-.688.289-.876.367-.917.383-1.311.562-.649.229-.756.046.021-.435.364-.605a8.571,8.571,0,0,0,1.07-.559c.348-.229,1.164-.438,1.164-.594S117.809,58.249,117.731,58.247Z" fill="#fcb3b3"/>
    </g>
    <g id="_Group_2" data-name="&lt;Group&gt;">
      <path id="Path_10268" data-name="Path 10268" d="M123.168,55.182a62.229,62.229,0,0,1,8.639-4.206l-.688-12.471h.021c0-1.352,1.726-2.792,3.085-2.89,1.419-.1,1.957,1.272,2.063,2.689a2.132,2.132,0,0,1,0,.351l-.048,13.172v.358a1.311,1.311,0,0,1-.041.291,1.994,1.994,0,0,1-1.219,1.639c-.083.041-6.954,2.292-10.555,3.486Z" fill="url(#linear-gradient-2)"/>
    </g>
    <path id="Path_10269" data-name="Path 10269" d="M158.884,122.5l2.663-.037c.706,3.9,1.891,8.639,4.238,8.684.928.759-6.949,4.275-7.777,1.132C157.31,129.627,160.1,130.007,158.884,122.5Z" fill="#fcb3b3"/>
    <path id="Path_10270" data-name="Path 10270" d="M166.971,133.888h-8.744a.429.429,0,0,1-.429-.429V131.41a.126.126,0,0,1,.213-.089c2.521,2.132,4.094-1.506,6.418-1.132,1.751.284,2.617,2.164,2.95,3.129a.429.429,0,0,1-.408.571Z" fill="#121c7c"/>
    <path id="Path_10271" data-name="Path 10271" d="M141.772,122.068H138.35c-.348,3.94-1.348,8.531-3.681,8.792-.855.839,7.564,3.947,8.093.74C143.216,128.9,141.245,129.657,141.772,122.068Z" fill="#fcb3b3"/>
    <path id="Path_10272" data-name="Path 10272" d="M142.98,131.151v2.292a.458.458,0,0,1-.458.458H130.853a.458.458,0,0,1-.447-.6c.328-.992,1.375-2.828,4.584-2.491,0,0,.917,1.641,3.933,1.031S142.886,130.644,142.98,131.151Z" fill="#121c7c"/>
    <path id="Path_10273" data-name="Path 10273" d="M162.767,123.475l-3.99.981s-7.133-23.016-7.454-27.009c-.241-2.952-4.311-14.715-6.436-20.685-.749-2.125-1.261-3.518-1.261-3.518s-2.033,21.4-.52,27.983-.754,22.255-.754,22.255h-4.859s2.7-14.263-2.918-35.985c-4.417-17.071-.493-27.131,1.4-30.656.1-.176.188-.339.27-.486a9.309,9.309,0,0,1,.6-.949h12.414s.183.325.523.974c.085.16.174.344.277.546.784,1.552,2.1,4.288,3.736,8.21,2.056,4.9,2.973,21.332,3.305,29.065a25.125,25.125,0,0,0,1.375,6.977C161.2,109,162.767,123.475,162.767,123.475Z" fill="#4f5cd3"/>
    <path id="Path_10274" data-name="Path 10274" d="M136.858,57.014c.1-.179.188-.339.273-.488s.158-.268.229-.38h.319c-.087.138-.19.3-.309.513-.083.147-.174.307-.27.484-1.884,3.521-5.792,13.546-1.391,30.557,5.157,19.94,3.282,33.773,2.964,35.776h-.28c.3-1.834,2.23-15.673-2.952-35.709C131.018,70.663,134.958,60.564,136.858,57.014Z" fill="#fff"/>
    <path id="Path_10275" data-name="Path 10275" d="M149.79,56.383l-.078.021a27.8,27.8,0,0,1-7.286,1.052,15.264,15.264,0,0,1-6.188-1.1,9.313,9.313,0,0,1,.6-.949h12.414S149.45,55.735,149.79,56.383Z" fill="#212785"/>
    <rect id="Rectangle_516" data-name="Rectangle 516" width="0.438" height="2.544" transform="matrix(0.992, 0.126, -0.126, 0.992, 139.576, 55.612)" fill="#6870f2"/>
    <rect id="Rectangle_517" data-name="Rectangle 517" width="0.438" height="2.544" transform="matrix(0.971, -0.239, 0.239, 0.971, 144.431, 55.706)" fill="#6870f2"/>
    <path id="Path_10276" data-name="Path 10276" d="M142.925,55.989l-1.554-.018a.458.458,0,0,0-.458.458v.809a.458.458,0,0,0,.458.458H142l-.039,3.158h.154l.044-3.163h.761a.458.458,0,0,0,.458-.458v-.809A.458.458,0,0,0,142.925,55.989Zm.277,1.263a.293.293,0,0,1-.3.291l-1.552-.018a.3.3,0,0,1-.291-.3V56.42a.3.3,0,0,1,.3-.291l1.554.018a.293.293,0,0,1,.289.3Z" fill="#fff"/>
    <path id="Path_10277" data-name="Path 10277" d="M161.385,123.8c-.2-1.6-2.008-15.764-4.355-22.565a25.3,25.3,0,0,1-1.4-7.016c-.3-7.08-1.231-24.08-3.3-29.019a99.449,99.449,0,0,0-4.52-9.716l.229-.135a100.037,100.037,0,0,1,4.54,9.746c2.081,4.983,3.012,22.019,3.317,29.109a24.983,24.983,0,0,0,1.375,6.938c2.365,6.826,4.178,21.025,4.378,22.62Z" fill="#fff"/>
    <path id="Path_10278" data-name="Path 10278" d="M143.065,112.767c-.069-5.026-1.272-9.924-1.465-14.942-.211-5.455,0-10.926-.19-16.386-.094-2.684-.151-5.37-.151-8.056,0-2.141.259-4.259.429-6.386,1.939,2.785,2.721,6.278,3.209,9.764-.752-2.122-1.261-3.516-1.261-3.516s-2.035,21.394-.52,27.983-.752,22.255-.752,22.255h-.218a54.518,54.518,0,0,0,.919-10.717Z" fill="#3f47c7"/>
    <path id="Path_10279" data-name="Path 10279" d="M152.059,41.27v.138a24.372,24.372,0,0,1-.353,5.077c-.034.188-.08.374-.126.536-.023.112-.057.213-.08.325-.06.174-.105.337-.165.488a2.687,2.687,0,0,1-.19.426,2.134,2.134,0,0,1-.252.44c-1.414,1.971-1.146,5.068-1,6.172a.481.481,0,0,1-.346.525c-8.847,2.489-13.241.135-13.241.135a25.639,25.639,0,0,0-.229-3.823,2.638,2.638,0,0,0-1.118-2.006c-1.194-.749-1.634-3.014-1.788-4.6-.105-.956-.105-1.675-.105-1.675s-1.041-6.567.529-7.589a7.762,7.762,0,0,1,2.7-.472,77.228,77.228,0,0,1,12.271.344c1.52.183,2.567.438,2.773.731A13.814,13.814,0,0,1,152.059,41.27Z" fill="url(#linear-gradient-3)"/>
    <path id="Path_10280" data-name="Path 10280" d="M139.842,35.256l-2.459,3.271,1.231,1.405-1.041,1.242,2.269,4.916Z" fill="url(#linear-gradient-4)"/>
    <path id="Path_10281" data-name="Path 10281" d="M144.277,35.373l2.459,3.268-1.231,1.405,1.041,1.242-2.269,4.919Z" fill="url(#linear-gradient-5)"/>
    <path id="Path_10282" data-name="Path 10282" d="M150.335,49.737a10.863,10.863,0,0,0-.442,5.141.481.481,0,0,1-.346.525c-8.847,2.489-13.241.135-13.241.135a25.636,25.636,0,0,0-.229-3.823A2.652,2.652,0,0,0,135,49.737Z" fill="#eaeafa"/>
    <path id="Path_10283" data-name="Path 10283" d="M139.842,35.256l-.312,12.936a8.535,8.535,0,0,1,1.776-.3c1.031.016,1.953.621,2.98.768V35.37C142.71,35.3,141.369,35.247,139.842,35.256Z" fill="#eaeafa"/>
    <path id="Path_10284" data-name="Path 10284" d="M144.419,48.682a.38.38,0,0,1-.142-.018v1.989a2.764,2.764,0,0,0,2.764,2.75h2.734V53a7.575,7.575,0,0,1,1.123-4.307,4.016,4.016,0,0,0,.442-.866c.06-.151.108-.309.163-.481.028-.11.062-.229.083-.33a4.556,4.556,0,0,0,.124-.534,23.773,23.773,0,0,0,.355-5.077v-.149a2.123,2.123,0,0,0-.392.158c-.917.144-1.465,1.164-1.834,2.063a13.6,13.6,0,0,1-1.9,3.55A4.229,4.229,0,0,1,144.419,48.682Z" fill="url(#linear-gradient-6)"/>
    <path id="Path_10285" data-name="Path 10285" d="M133.166,45.1c.149,1.588.591,3.853,1.781,4.6a2.629,2.629,0,0,1,1.123,2.006c.053.536.073,1.146.073,1.7h.621a2.764,2.764,0,0,0,2.766-2.753V48.192l-.108.021A5.934,5.934,0,0,1,135,47.28,6.834,6.834,0,0,1,133.166,45.1Z" fill="url(#linear-gradient-7)"/>
    <path id="Path_10286" data-name="Path 10286" d="M148.426,53.848c-3.156-1.146-5.808-2.246-5.808-2.246l1.114-2.622,4.694.587Z" fill="url(#linear-gradient-8)"/>
    <path id="Path_10287" data-name="Path 10287" d="M147.147,27.653a3.043,3.043,0,0,1-.63.713,6.568,6.568,0,0,0-.669.5,2.292,2.292,0,0,0-.811,1.758v3.1a2.98,2.98,0,0,1-2.723,3.016,2.918,2.918,0,0,1-3.115-2.911V32.054h-.016a3.855,3.855,0,0,1-2.581-3.642V24.376a3.86,3.86,0,0,1,3.86-3.86h.727a3.864,3.864,0,0,1,3.864,3.864v2.127a1.375,1.375,0,0,1,.429-.66,1.235,1.235,0,0,1,1.634.142A1.327,1.327,0,0,1,147.147,27.653Z" fill="#fcb3b3"/>
    <path id="Path_10288" data-name="Path 10288" d="M142.46,31.435a3.209,3.209,0,0,1-2.418,1.923,3.255,3.255,0,0,1-.862.032V32.051a4.423,4.423,0,0,0,.525.078,4.307,4.307,0,0,0,2.755-.694Z" fill="#fc8e8e"/>
    <path id="Path_10289" data-name="Path 10289" d="M147.947,30.557c-1.416,2.086-1.584,5.643-1.584,5.643a2.992,2.992,0,0,1-2.379-1.873,2.955,2.955,0,0,1-.328-1.41v-.06a2.979,2.979,0,0,1,.541-1.7,16.778,16.778,0,0,0,1.229-2.063,7.509,7.509,0,0,1,.607-.99,5.9,5.9,0,0,0,.864-4.7c.112-.52.1-.855-.1-.855a.36.36,0,0,1-.229-.119,5.2,5.2,0,0,0-.626-1.075,23.037,23.037,0,0,1-.862-2.67l-1.643.97c-.481-.138-5.524,1.073-6.253,2.766a4.99,4.99,0,0,0-.963,1.5l-.431.257a10.2,10.2,0,0,1,2.368-6.981c1.008-1.063,6.677-2.961,9.53.917S149.354,28.464,147.947,30.557Z" fill="#121c7c"/>
    <path id="Path_10290" data-name="Path 10290" d="M145.011,19.915a7.944,7.944,0,0,1-.74.754,9.269,9.269,0,0,1-3.025,1.343,8.124,8.124,0,0,0-2.98,1.428,4.887,4.887,0,0,0-1.591,3.715,6.592,6.592,0,0,0,1.394,3.864c.83,1.114,2,2.088,2.246,3.449a2.872,2.872,0,0,1-3.667,3.262,1.886,1.886,0,0,0,1-2.111,4.534,4.534,0,0,0-.853-1.465,10.5,10.5,0,0,1-1.215-9.973,6.6,6.6,0,0,1,2.109-2.881,11.322,11.322,0,0,1,4.245-1.49,9.505,9.505,0,0,0,2.663-.979,1.411,1.411,0,0,0,.163-.1c.057-.032.105-.069.156-.1s.057-.046.085-.064a2.265,2.265,0,0,0,.653-.821A3.552,3.552,0,0,1,145.011,19.915Z" fill="#121c7c"/>
    <path id="Path_10291" data-name="Path 10291" d="M141.832,24.57a2.235,2.235,0,0,0,1.641.2c.112-.032.121-.126.021-.186a2.248,2.248,0,0,0-1.637-.2C141.745,24.417,141.731,24.511,141.832,24.57Z" fill="#121c7c"/>
    <path id="Path_10292" data-name="Path 10292" d="M137.75,24.793a2.235,2.235,0,0,0,1.634-.243c.1-.06.085-.154-.03-.183a2.248,2.248,0,0,0-1.632.243C137.631,24.667,137.644,24.754,137.75,24.793Z" fill="#121c7c"/>
    <circle id="Ellipse_29" data-name="Ellipse 29" cx="0.387" cy="0.387" r="0.387" transform="translate(138.385 26.72) rotate(-85.46)" fill="#121c7c"/>
    <circle id="Ellipse_30" data-name="Ellipse 30" cx="0.387" cy="0.387" r="0.387" transform="translate(142.043 26.725) rotate(-85.46)" fill="#121c7c"/>
    <path id="Path_10293" data-name="Path 10293" d="M141.236,28.49l-1.006.016a.229.229,0,0,1-.229-.273l.557-1.41a.206.206,0,0,1,.392,0l.5,1.391a.229.229,0,0,1-.211.275Z" fill="#fc8e8e"/>
    <path id="Path_10294" data-name="Path 10294" d="M140.076,29.826a1.029,1.029,0,0,0,1.96,0,.11.11,0,0,0-.112-.126h-1.735a.11.11,0,0,0-.112.126Z" fill="#fff"/>
    <path id="Path_10295" data-name="Path 10295" d="M143.636,61.935,114.88,73.493a1.3,1.3,0,0,1-1.689-.72l-9.922-24.687a1.3,1.3,0,0,1,.72-1.689l28.756-11.559a1.3,1.3,0,0,1,1.689.72l9.924,24.687a1.3,1.3,0,0,1-.722,1.689Z" fill="#fcb3b3"/>
    <path id="Path_10296" data-name="Path 10296" d="M136.083,48.966a.488.488,0,0,0,.385.213c.083.011.167.03.229.044a1.146,1.146,0,0,0-.229.277.266.266,0,0,0,.172.385c.186.08.376.14.568.2.044.016.087.021.167.044a3.087,3.087,0,0,0-.282.133.277.277,0,0,0-.044.484,1.506,1.506,0,0,0,.775.266c.121.016.243.011.364.034a4.687,4.687,0,0,0,2.017-.105,2.87,2.87,0,0,1,2.033.3l1.416.72a.16.16,0,0,0,.06,0c.011-.05.028-.1.037-.149.14-.786.277-1.577.422-2.363.021-.119,0-.154-.124-.2-.442-.154-.873-.332-1.3-.5-.105-.041-.2-.1-.3-.135a1.286,1.286,0,0,1-.591-.525,5.863,5.863,0,0,0-2.638-1.9,2.661,2.661,0,0,1-1.045-.6,1.311,1.311,0,0,0-.314-.213.151.151,0,0,0-.229.126.883.883,0,0,0,.229.7,3.564,3.564,0,0,0,1.167.823l.2.108a.229.229,0,0,1-.229.241,7.393,7.393,0,0,1-1.05-.037l-.88-.037a1.146,1.146,0,0,0-.536.064.16.16,0,0,0-.037.3,2.69,2.69,0,0,0,.605.3,4.244,4.244,0,0,0,.633.25c-.039.046-.06.087-.083.089a3.208,3.208,0,0,1-.341.037,7.835,7.835,0,0,0-.935.044.351.351,0,0,0-.284.575Z" fill="#fcb3b3"/>
    <path id="Path_10297" data-name="Path 10297" d="M149.725,36.106a4.726,4.726,0,0,1,3.635.777c.766.431,7.493,16.273,7.493,16.273a2.771,2.771,0,0,1-3.053,3.259c-3.564,0-15.182-4.813-15.182-4.813l1.114-2.622L154.3,50.3s-5.441-8.815-5.576-10.747S149.407,36.113,149.725,36.106Z" fill="url(#linear-gradient-9)"/>
    <path id="Path_10298" data-name="Path 10298" d="M123.812,64.648a10.481,10.481,0,1,1,10.481-10.481A10.481,10.481,0,0,1,123.812,64.648Zm0-19.654a9.168,9.168,0,1,0,9.168,9.168,9.168,9.168,0,0,0-9.168-9.168Z" fill="rgba(0,0,0,0.13)"/>
    <path id="Path_10299" data-name="Path 10299" d="M123.812,64.648a10.481,10.481,0,1,1,0-20.963.656.656,0,0,1,0,1.309,9.168,9.168,0,1,0,8.611,12.338.656.656,0,0,1,1.229.458,10.523,10.523,0,0,1-9.84,6.858Z" fill="#fff"/>
    <path id="Path_10300" data-name="Path 10300" d="M168.767,134H1.116a.563.563,0,1,1,0-1.125H168.767a.563.563,0,1,1,0,1.125Z" fill="#fcb3b3"/>
  </g>
</svg>
