<svg xmlns="http://www.w3.org/2000/svg" width="45.167" height="42.273" viewBox="0 0 45.167 42.273">
  <g id="App_Integration" data-name="App Integration" transform="translate(-1 -3.1)">
    <g id="Group_13875" data-name="Group 13875" transform="translate(1 3.1)">
      <path id="Path_20534" data-name="Path 20534" d="M43.414,8.6H26.124l-3.74-3.74a.682.682,0,0,0-.988,0L19.772,6.487a3.545,3.545,0,0,0-.917-.353V3.806a.707.707,0,0,0-.706-.706H11.586a.707.707,0,0,0-.706.706V6.135c-.282.141-.635.212-.917.353L8.34,4.864a.682.682,0,0,0-.988,0L2.694,9.522a.682.682,0,0,0,0,.988l1.623,1.623a4.9,4.9,0,0,0-.353.917H1.706A.707.707,0,0,0,1,13.756V20.32a.707.707,0,0,0,.706.706H4.035c.141.282.212.635.353.917L2.764,23.5a.682.682,0,0,0,0,.988l4.587,4.658a.682.682,0,0,0,.988,0l1.623-1.623a4.9,4.9,0,0,0,.917.353V30.2a.707.707,0,0,0,.706.706h6.563a.707.707,0,0,0,.706-.706V27.871c.282-.141.635-.212.917-.353l1.694,1.623a.659.659,0,0,0,.917,0l.423-.423v13.9a2.756,2.756,0,0,0,2.752,2.752H43.414a2.756,2.756,0,0,0,2.752-2.752V11.428A2.772,2.772,0,0,0,43.414,8.6Zm1.411,2.752v3.387H28.735v-.988a.707.707,0,0,0-.706-.706H25.7c-.141-.282-.212-.635-.353-.917l1.623-1.623a.641.641,0,0,0,.212-.494H43.414A1.315,1.315,0,0,1,44.825,11.357ZM21.96,27.659l-1.553-1.482a.769.769,0,0,0-.776-.141,11.26,11.26,0,0,1-1.623.706.678.678,0,0,0-.494.635v2.117H12.292V27.377a.678.678,0,0,0-.494-.635,11.26,11.26,0,0,1-1.623-.706.644.644,0,0,0-.776.141L7.916,27.659l-3.67-3.67,1.482-1.482a.8.8,0,0,0,.141-.776,11.26,11.26,0,0,1-.706-1.623.678.678,0,0,0-.635-.494H2.411V14.392H4.529a.678.678,0,0,0,.635-.494,6.656,6.656,0,0,1,.706-1.623.8.8,0,0,0-.141-.776L4.246,10.016l3.67-3.67L9.469,7.9a.661.661,0,0,0,.776.141,11.26,11.26,0,0,1,1.623-.706.936.936,0,0,0,.423-.706V4.511h5.222V6.629a.678.678,0,0,0,.494.635,11.26,11.26,0,0,1,1.623.706.644.644,0,0,0,.776-.141L21.96,6.276l3.458,3.458h0l.212.212L24.077,11.5a.661.661,0,0,0-.141.776,11.261,11.261,0,0,1,.706,1.623.678.678,0,0,0,.635.494h2.117v.988h0v4.164H25.277a.678.678,0,0,0-.635.494,11.26,11.26,0,0,1-.706,1.623.751.751,0,0,0,.141.847l1.553,1.482Zm5.152-3.246a.682.682,0,0,0,0-.988L25.418,21.8a3.545,3.545,0,0,0,.353-.917H28.1a.707.707,0,0,0,.706-.706V15.944h16.02V38.316H24.218V27.306Zm16.3,19.478H25.559a1.4,1.4,0,0,1-1.411-1.341V39.8H44.755V42.55A1.259,1.259,0,0,1,43.414,43.891Z" transform="translate(-1 -3.1)" fill="#037ca4"/>
    </g>
    <g id="Group_13876" data-name="Group 13876" transform="translate(31.981 41.138)">
      <path id="Path_20535" data-name="Path 20535" d="M49.628,57H45.606a.706.706,0,0,0,0,1.411h4.023a.707.707,0,0,0,.706-.706A.759.759,0,0,0,49.628,57Z" transform="translate(-44.9 -57)" fill="#7e75e4"/>
    </g>
    <g id="Group_13877" data-name="Group 13877" transform="translate(8.057 10.157)">
      <path id="Path_20536" data-name="Path 20536" d="M17.846,13.1a6.846,6.846,0,1,0,6.846,6.846A6.852,6.852,0,0,0,17.846,13.1Zm0,12.28a5.5,5.5,0,1,1,5.5-5.5A5.512,5.512,0,0,1,17.846,25.38Z" transform="translate(-11 -13.1)" fill="#7e75e4"/>
    </g>
    <g id="Group_13878" data-name="Group 13878" transform="translate(29.794 19.12)">
      <path id="Path_20537" data-name="Path 20537" d="M48.857,43.584c4.3,0,6.21-1.835,6.21-3.74V29.54c0-1.835-1.905-3.74-6.21-3.74-4.023,0-7.057,1.623-7.057,3.74V40.126C41.941,42.1,44.976,43.584,48.857,43.584Zm4.8-3.67c0,1.411-1.976,2.329-4.869,2.329-3.246,0-5.716-1.27-5.716-2.329V36.95a10.029,10.029,0,0,0,5.716,1.482,8.05,8.05,0,0,0,4.869-1.27Zm-4.8-2.893c-3.246,0-5.716-1.27-5.716-2.329V31.8a10.029,10.029,0,0,0,5.716,1.482,8.049,8.049,0,0,0,4.869-1.27v2.682C53.656,36.033,51.68,37.021,48.857,37.021Zm0-9.81c2.823,0,4.869.988,4.869,2.329s-1.976,2.329-4.869,2.329c-3.246,0-5.716-1.27-5.716-2.329S45.54,27.211,48.857,27.211Z" transform="translate(-41.8 -25.8)" fill="#7e75e4"/>
    </g>
  </g>
</svg>
