<svg xmlns="http://www.w3.org/2000/svg" width="45.521" height="34.9" viewBox="0 0 45.521 34.9">
  <g id="Custom_Application_Development" data-name="Custom Application Development" transform="translate(-2 -9)">
    <rect id="Rectangle_2978" data-name="Rectangle 2978" width="4" height="1" transform="translate(22.761 40.45)" fill="#7e75e4"/>
    <rect id="Rectangle_2979" data-name="Rectangle 2979" width="1" height="1" transform="translate(18.761 11.45)" fill="#7e75e4"/>
    <rect id="Rectangle_2980" data-name="Rectangle 2980" width="3" height="1" transform="translate(21.761 11.45)" fill="#7e75e4"/>
    <path id="Path_20507" data-name="Path 20507" d="M33.472,28.222l1.13-1.13L33.53,26.019l-1.13,1.13a3.77,3.77,0,0,0-1.33-.556V25H29.552v1.593a3.77,3.77,0,0,0-1.33.555l-1.13-1.13-1.073,1.073,1.13,1.13a3.764,3.764,0,0,0-.556,1.331H25V31.07h1.593a3.764,3.764,0,0,0,.555,1.33l-1.13,1.13L27.091,34.6l1.13-1.13a3.77,3.77,0,0,0,1.331.556v1.593H31.07V34.028a3.77,3.77,0,0,0,1.33-.555l1.13,1.13L34.6,33.531l-1.13-1.13a3.764,3.764,0,0,0,.556-1.331h1.593V29.552H34.028A3.764,3.764,0,0,0,33.472,28.222Zm-3.161,4.365a2.276,2.276,0,1,1,2.276-2.276A2.276,2.276,0,0,1,30.311,32.587Z" transform="translate(-5.55 -3.861)" fill="#7e75e4"/>
    <path id="Path_20508" data-name="Path 20508" d="M56.828,9H52.276A2.276,2.276,0,0,0,50,11.276v4.552A2.276,2.276,0,0,0,52.276,18.1h4.552A2.276,2.276,0,0,0,59.1,15.828V11.276A2.276,2.276,0,0,0,56.828,9Zm.759,6.828a.759.759,0,0,1-.759.759H52.276a.759.759,0,0,1-.759-.759V11.276a.759.759,0,0,1,.759-.759h4.552a.759.759,0,0,1,.759.759Z" transform="translate(-11.583)" fill="#7e75e4"/>
    <path id="Path_20509" data-name="Path 20509" d="M56.828,26H52.276A2.276,2.276,0,0,0,50,28.276v4.552A2.276,2.276,0,0,0,52.276,35.1h4.552A2.276,2.276,0,0,0,59.1,32.828V28.276A2.276,2.276,0,0,0,56.828,26Zm.759,6.828a.759.759,0,0,1-.759.759H52.276a.759.759,0,0,1-.759-.759V28.276a.759.759,0,0,1,.759-.759h4.552a.759.759,0,0,1,.759.759Z" transform="translate(-11.583 -4.102)" fill="#037ca4"/>
    <path id="Path_20510" data-name="Path 20510" d="M56.828,43H52.276A2.276,2.276,0,0,0,50,45.276v4.552A2.276,2.276,0,0,0,52.276,52.1h4.552A2.276,2.276,0,0,0,59.1,49.828V45.276A2.276,2.276,0,0,0,56.828,43Zm.759,6.828a.759.759,0,0,1-.759.759H52.276a.759.759,0,0,1-.759-.759V45.276a.759.759,0,0,1,.759-.759h4.552a.759.759,0,0,1,.759.759Z" transform="translate(-11.583 -8.204)" fill="#7e75e4"/>
    <path id="Path_20511" data-name="Path 20511" d="M8.828,9H4.276A2.276,2.276,0,0,0,2,11.276v4.552A2.276,2.276,0,0,0,4.276,18.1H8.828A2.276,2.276,0,0,0,11.1,15.828V11.276A2.276,2.276,0,0,0,8.828,9Zm.759,6.828a.759.759,0,0,1-.759.759H4.276a.759.759,0,0,1-.759-.759V11.276a.759.759,0,0,1,.759-.759H8.828a.759.759,0,0,1,.759.759Z" transform="translate(0)" fill="#7e75e4"/>
    <path id="Path_20512" data-name="Path 20512" d="M8.828,26H4.276A2.276,2.276,0,0,0,2,28.276v4.552A2.276,2.276,0,0,0,4.276,35.1H8.828A2.276,2.276,0,0,0,11.1,32.828V28.276A2.276,2.276,0,0,0,8.828,26Zm.759,6.828a.759.759,0,0,1-.759.759H4.276a.759.759,0,0,1-.759-.759V28.276a.759.759,0,0,1,.759-.759H8.828a.759.759,0,0,1,.759.759Z" transform="translate(0 -4.102)" fill="#037ca4"/>
    <path id="Path_20513" data-name="Path 20513" d="M8.828,43H4.276A2.276,2.276,0,0,0,2,45.276v4.552A2.276,2.276,0,0,0,4.276,52.1H8.828A2.276,2.276,0,0,0,11.1,49.828V45.276A2.276,2.276,0,0,0,8.828,43Zm.759,6.828a.759.759,0,0,1-.759.759H4.276a.759.759,0,0,1-.759-.759V45.276a.759.759,0,0,1,.759-.759H8.828a.759.759,0,0,1,.759.759Z" transform="translate(0 -8.204)" fill="#7e75e4"/>
    <path id="Path_20514" data-name="Path 20514" d="M40.644,14.847l-1.073-1.073-.981.981V12.793A3.8,3.8,0,0,0,34.8,9H21.14a3.8,3.8,0,0,0-3.793,3.793v1.962l-.981-.981-1.073,1.073L17.347,16.9v8.79H15.829v1.517h1.517V36l-2.054,2.054,1.073,1.073.981-.981v1.962A3.8,3.8,0,0,0,21.14,43.9H34.8a3.8,3.8,0,0,0,3.793-3.793V38.144l.981.981,1.073-1.073L38.59,36v-8.79h1.517V25.691H38.59V16.9Zm-19.5-4.33H34.8a2.276,2.276,0,0,1,2.276,2.276v.759H18.864v-.759a2.276,2.276,0,0,1,2.276-2.276ZM34.8,42.382H21.14a2.276,2.276,0,0,1-2.276-2.276v-.759H37.073v.759A2.276,2.276,0,0,1,34.8,42.382Zm2.276-16.691H34.8v1.517h2.276v7.273l-3.257-3.257L32.743,32.3l4.33,4.33v1.2H18.864v-1.2l4.33-4.33-1.073-1.073-3.257,3.257V27.209H21.14V25.691H18.864V18.418l3.257,3.257L23.194,20.6l-4.33-4.33v-1.2H37.073v1.2l-4.33,4.33,1.073,1.073,3.257-3.257Z" transform="translate(-3.208)" fill="#037ca4"/>
  </g>
</svg>
