<svg xmlns="http://www.w3.org/2000/svg" width="44.5" height="44.5" viewBox="0 0 44.5 44.5">
  <g id="Desktop_and_Web_App_Development" data-name="Desktop and Web App Development" transform="translate(-4.75 -4.75)">
    <path id="Path_20498" data-name="Path 20498" d="M48.593,4.75H5.407a.657.657,0,0,0-.657.657V37.151a.657.657,0,0,0,.657.657H24.175L23.207,43.5a5.167,5.167,0,0,0-4.337,5.091.657.657,0,0,0,.657.657H46.34a2.914,2.914,0,0,0,2.91-2.91V5.407A.657.657,0,0,0,48.593,4.75ZM6.064,6.064H47.936V20.72a2.882,2.882,0,0,0-.939-.4V7.66A.657.657,0,0,0,46.34,7H7.66A.657.657,0,0,0,7,7.66V32.644a.657.657,0,0,0,.657.657h23.3v3.192H6.064Zm27.81,14.176a2.9,2.9,0,0,0-2.1.9H13.406a.657.657,0,0,0,0,1.314H31.051a2.9,2.9,0,0,0-.087.694v1.285H13.406a.657.657,0,0,0,0,1.314H30.964v1.98H13.406a.657.657,0,1,0,0,1.314H30.964v2.942H8.318V8.318H45.682V20.241ZM30.795,43.5l-.969-5.691h1.138v5.718c-.056-.011-.113-.017-.169-.026Zm-2.3-5.691.957,5.622h-4.9l.957-5.622Zm-4.459,6.936h5.933a3.859,3.859,0,0,1,1,.132V46.34a2.894,2.894,0,0,0,.479,1.6h-11.2a3.856,3.856,0,0,1,3.793-3.192Zm23.9,1.6a1.6,1.6,0,0,1-1.6,1.6H33.874a1.6,1.6,0,0,1-1.6-1.6V23.151a1.6,1.6,0,0,1,1.6-1.6H46.34a1.6,1.6,0,0,1,1.6,1.6Z" fill="#037ca4"/>
    <path id="Path_20499" data-name="Path 20499" d="M17.407,20.93a.657.657,0,0,0-.657.657v3.38a.657.657,0,1,0,1.314,0v-3.38a.657.657,0,0,0-.657-.657Z" transform="translate(-7.494 -10.104)" fill="#7e75e4"/>
    <path id="Path_20500" data-name="Path 20500" d="M26.707,23.4H53.9a.657.657,0,1,0,0-1.314H26.707a.657.657,0,0,0,0,1.314Z" transform="translate(-13.301 -10.824)" fill="#7e75e4"/>
    <path id="Path_20501" data-name="Path 20501" d="M53.9,30.856H26.707a.657.657,0,1,0,0,1.314H53.9a.657.657,0,1,0,0-1.314Z" transform="translate(-13.301 -16.302)" fill="#7e75e4"/>
    <path id="Path_20502" data-name="Path 20502" d="M53.9,39.628H26.707a.657.657,0,0,0,0,1.314H53.9a.657.657,0,0,0,0-1.314Z" transform="translate(-13.301 -21.78)" fill="#7e75e4"/>
    <path id="Path_20503" data-name="Path 20503" d="M91.807,53.314h4.506a.657.657,0,0,0,0-1.314H91.807a.657.657,0,0,0,0,1.314Z" transform="translate(-53.954 -29.506)" fill="#7e75e4"/>
    <path id="Path_20504" data-name="Path 20504" d="M97.06,113.75H94.807a.657.657,0,0,0,0,1.314H97.06a.657.657,0,1,0,0-1.314Z" transform="translate(-55.828 -68.068)" fill="#7e75e4"/>
    <path id="Path_20505" data-name="Path 20505" d="M91.562,72.875a4.412,4.412,0,1,0,4.412,4.412A4.412,4.412,0,0,0,91.562,72.875Zm0,7.511a3.1,3.1,0,1,1,3.1-3.1A3.1,3.1,0,0,1,91.562,80.386Z" transform="translate(-51.457 -42.542)" fill="#7e75e4"/>
    <path id="Path_20506" data-name="Path 20506" d="M96.3,79.9l-1.913,1.912-.3-.3a.657.657,0,0,0-.929.929l.768.768a.657.657,0,0,0,.929,0l2.377-2.377A.657.657,0,0,0,96.3,79.9Z" transform="translate(-55.088 -46.811)" fill="#7e75e4"/>
  </g>
</svg>
