<svg id="NET_Quick_Deliveries" data-name="NET Quick Deliveries" xmlns="http://www.w3.org/2000/svg" width="42.271" height="42.271" viewBox="0 0 42.271 42.271">
  <g id="Group_13848" data-name="Group 13848" transform="translate(31.745 35.996)">
    <g id="Group_13847" data-name="Group 13847">
      <path id="Path_20515" data-name="Path 20515" d="M385.331,436h0a.826.826,0,1,0,.826.826A.825.825,0,0,0,385.33,436Z" transform="translate(-384.505 -436)" fill="#037ca4"/>
    </g>
  </g>
  <g id="Group_13850" data-name="Group 13850" transform="translate(0 12.055)">
    <g id="Group_13849" data-name="Group 13849">
      <path id="Path_20516" data-name="Path 20516" d="M41.445,169.955h-.991v-20.02a3.926,3.926,0,0,0-3.921-3.921h-3.1a.826.826,0,0,0,0,1.651h3.1a2.273,2.273,0,0,1,2.27,2.27v20.02h-2.27a.826.826,0,1,0,0,1.651h4.087v.681a2.293,2.293,0,0,1-2.291,2.291H3.942a2.293,2.293,0,0,1-2.291-2.291v-.681H28.874a.826.826,0,1,0,0-1.651H3.467v-20.02a2.273,2.273,0,0,1,2.27-2.27H9.288a.826.826,0,0,0,0-1.651H5.737a3.926,3.926,0,0,0-3.921,3.921v20.02H.826a.826.826,0,0,0-.826.826v1.507a3.946,3.946,0,0,0,3.942,3.942H38.329a3.946,3.946,0,0,0,3.942-3.942v-1.507A.826.826,0,0,0,41.445,169.955Z" transform="translate(0 -146.014)" fill="#037ca4"/>
    </g>
  </g>
  <g id="Group_13852" data-name="Group 13852" transform="translate(18.507 38.308)">
    <g id="Group_13851" data-name="Group 13851">
      <path id="Path_20517" data-name="Path 20517" d="M228.639,464h-3.646a.826.826,0,0,0,0,1.651h3.646a.826.826,0,0,0,0-1.651Z" transform="translate(-224.167 -464)" fill="#037ca4"/>
    </g>
  </g>
  <g id="Group_13854" data-name="Group 13854" transform="translate(12.632 17.341)">
    <g id="Group_13853" data-name="Group 13853">
      <path id="Path_20518" data-name="Path 20518" d="M160.427,210.039a7.426,7.426,0,1,0,7.427,7.426A7.435,7.435,0,0,0,160.427,210.039Zm-5.984,7.426a5.976,5.976,0,0,1,.16-1.37h1.6v2.74h-1.6A5.976,5.976,0,0,1,154.442,217.465Zm.7,2.812H156.2v.39a4.209,4.209,0,0,0,.175,1.2A6.022,6.022,0,0,1,155.146,220.277Zm1.058-6.014v.39h-1.058a6.018,6.018,0,0,1,1.233-1.591A4.207,4.207,0,0,0,156.2,214.263Zm3.5,9.09a2.785,2.785,0,0,1-2.059-2.685v-.39h2.059Zm0-4.517h-2.059V216.1h2.059Zm0-4.182h-2.059v-.39a2.785,2.785,0,0,1,2.059-2.685Zm6,0h-1.058v-.39a4.21,4.21,0,0,0-.175-1.2A6.022,6.022,0,0,1,165.707,214.653Zm-2.5,6.014a2.785,2.785,0,0,1-2.059,2.685v-3.075h2.059Zm0-1.832h-2.059V216.1h2.059Zm0-4.182h-2.059v-3.075a2.785,2.785,0,0,1,2.059,2.685Zm1.267,7.215a4.207,4.207,0,0,0,.175-1.2v-.39h1.058A6.019,6.019,0,0,1,164.474,221.869Zm.175-3.033V216.1h1.6a5.942,5.942,0,0,1,0,2.74Z" transform="translate(-151.923 -208.962)" fill="#7e75e4"/>
    </g>
  </g>
  <g id="Group_13856" data-name="Group 13856" transform="translate(20.31 10.484)">
    <g id="Group_13855" data-name="Group 13855">
      <path id="Path_20519" data-name="Path 20519" d="M246.826,126.987a.826.826,0,0,0-.826.826v2.643a.826.826,0,1,0,1.651,0v-2.643A.826.826,0,0,0,246.826,126.987Z" transform="translate(-246 -126.987)" fill="#037ca4"/>
    </g>
  </g>
  <g id="Group_13858" data-name="Group 13858" transform="translate(11.07 9.9)">
    <g id="Group_13857" data-name="Group 13857">
      <path id="Path_20520" data-name="Path 20520" d="M135.5,120.152a.825.825,0,1,0,.242.584A.827.827,0,0,0,135.5,120.152Z" transform="translate(-134.09 -119.91)" fill="#037ca4"/>
    </g>
  </g>
  <g id="Group_13860" data-name="Group 13860" transform="translate(13.073 11.902)">
    <g id="Group_13859" data-name="Group 13859">
      <path id="Path_20521" data-name="Path 20521" d="M161.963,146.61l-2.208-2.208a.826.826,0,0,0-1.168,1.168l2.208,2.208a.826.826,0,1,0,1.168-1.168Z" transform="translate(-158.345 -144.16)" fill="#037ca4"/>
    </g>
  </g>
  <g id="Group_13862" data-name="Group 13862" transform="translate(25.228 10.973)">
    <g id="Group_13861" data-name="Group 13861">
      <path id="Path_20522" data-name="Path 20522" d="M310.23,133.148a.826.826,0,0,0-1.168,0l-3.247,3.247a.826.826,0,1,0,1.168,1.168l3.247-3.247A.826.826,0,0,0,310.23,133.148Z" transform="translate(-305.573 -132.906)" fill="#037ca4"/>
    </g>
  </g>
  <g id="Group_13864" data-name="Group 13864" transform="translate(19.484)">
    <g id="Group_13863" data-name="Group 13863">
      <path id="Path_20523" data-name="Path 20523" d="M239.574,1.651h.287a.826.826,0,0,0,0-1.651h-.287a2.753,2.753,0,0,0-2.75,2.75v.222h0a.826.826,0,0,0,0,1.651h0V7.911a.826.826,0,1,0,1.651,0V4.623H239.6a.826.826,0,0,0,0-1.651h-1.121V2.75A1.1,1.1,0,0,1,239.574,1.651Z" transform="translate(-235.998)" fill="#7e75e4"/>
    </g>
  </g>
  <g id="Group_13866" data-name="Group 13866" transform="translate(30.489 1.248)">
    <g id="Group_13865" data-name="Group 13865">
      <path id="Path_20524" data-name="Path 20524" d="M379.124,16.149a.826.826,0,0,0-.691-.375h-.69a2.606,2.606,0,0,0-4.118,1.316,5.951,5.951,0,0,1-2.176-1.676.826.826,0,0,0-1.352.1,3.224,3.224,0,0,0-.234,2.748.825.825,0,0,0-.22.562v.029a3.866,3.866,0,0,0,1.1,2.622,2.944,2.944,0,0,1-.536-.012.826.826,0,0,0-.536,1.516,5.874,5.874,0,0,0,3.176.93,5.741,5.741,0,0,0,4.378-1.929,6.073,6.073,0,0,0,1.511-3.959c0-.006,0-.013,0-.019v-.047l.452-1.026A.826.826,0,0,0,379.124,16.149Zm-1.973,1.313a.826.826,0,0,0-.07.352l.005.22A4.217,4.217,0,0,1,373.2,22.25l.062-.047a.826.826,0,0,0-.509-1.476,1.411,1.411,0,0,1-1.12-.778.826.826,0,0,0,.373-1.509,1.557,1.557,0,0,1-.6-.775,7.563,7.563,0,0,0,2.783,1.364.831.831,0,0,0,1.014-.986,1.017,1.017,0,0,1-.026-.225.954.954,0,0,1,1.649-.654.825.825,0,0,0,.361.225Z" transform="translate(-369.293 -15.111)" fill="#7e75e4"/>
    </g>
  </g>
  <g id="Group_13868" data-name="Group 13868" transform="translate(3.181 2.477)">
    <g id="Group_13867" data-name="Group 13867">
      <path id="Path_20525" data-name="Path 20525" d="M45.251,32.951H43.189a.826.826,0,0,0,0,1.651h1.07A2.121,2.121,0,1,1,42.3,31.656.826.826,0,0,0,42.3,30a3.772,3.772,0,1,0,3.772,3.772A.826.826,0,0,0,45.251,32.951Z" transform="translate(-38.533 -30.005)" fill="#7e75e4"/>
    </g>
  </g>
  <g id="Group_13870" data-name="Group 13870" transform="translate(10.791 1.247)">
    <g id="Group_13869" data-name="Group 13869">
      <path id="Path_20526" data-name="Path 20526" d="M133.868,16.279h-.345v-.345a.826.826,0,0,0-1.651,0v.345h-.345a.826.826,0,0,0,0,1.651h.345v.345a.826.826,0,0,0,1.651,0V17.93h.345a.826.826,0,0,0,0-1.651Z" transform="translate(-130.702 -15.109)" fill="#7e75e4"/>
    </g>
  </g>
  <g id="Group_13872" data-name="Group 13872" transform="translate(31.744 24.984)">
    <g id="Group_13871" data-name="Group 13871">
      <path id="Path_20527" data-name="Path 20527" d="M388.1,302.623h-2.772a.826.826,0,1,0,0,1.651H388.1a.826.826,0,1,0,0-1.651Z" transform="translate(-384.5 -302.623)" fill="#037ca4"/>
    </g>
  </g>
  <g id="Group_13874" data-name="Group 13874" transform="translate(6.302 24.984)">
    <g id="Group_13873" data-name="Group 13873">
      <path id="Path_20528" data-name="Path 20528" d="M79.929,302.623H77.157a.826.826,0,0,0,0,1.651h2.772a.826.826,0,1,0,0-1.651Z" transform="translate(-76.331 -302.623)" fill="#037ca4"/>
    </g>
  </g>
</svg>
