<svg xmlns="http://www.w3.org/2000/svg" width="45.917" height="45.917" viewBox="0 0 45.917 45.917">
  <g id="Support_and_Maintenance" data-name="Support and Maintenance" transform="translate(-1 -1)">
    <path id="Path_20488" data-name="Path 20488" d="M12.109,12.551c3.013,0,5.309-3.372,5.309-6.242a5.309,5.309,0,0,0-10.618,0C6.8,9.179,9.168,12.551,12.109,12.551Zm0-10.188a3.935,3.935,0,0,1,3.946,3.946c0,2.152-1.794,4.879-3.946,4.879S8.163,8.533,8.163,6.309A4.029,4.029,0,0,1,12.109,2.363Z" transform="translate(-1.639)" fill="#037ca4"/>
    <path id="Path_20489" data-name="Path 20489" d="M16.856,47.89V22.061H28.837a2.082,2.082,0,1,0-.072-4.161H13.412a.753.753,0,0,0-.646.359l-2.3,4.52-2.3-4.52a.753.753,0,0,0-.646-.359H4.8A3.828,3.828,0,0,0,1,21.7V32.177a.719.719,0,0,0,.717.717H4.157V47.961a3.154,3.154,0,0,0-2.511,3.085.651.651,0,0,0,.215.5.769.769,0,0,0,.43.143H8.748a.719.719,0,0,0,.717-.717V35.549h2.081V50.975a.719.719,0,0,0,.717.717h6.457a.736.736,0,0,0,.717-.717,3.148,3.148,0,0,0-.933-2.224A4.066,4.066,0,0,0,16.856,47.89ZM9.9,24.644a.753.753,0,0,0,.646.359h0a.753.753,0,0,0,.646-.359l2.726-5.381H28.837a.865.865,0,0,1,.789.574.757.757,0,0,1-.717.861H16.21a.719.719,0,0,0-.717.717V34.186H5.52V19.335H7.17ZM2.363,31.46V21.7a2.546,2.546,0,0,1,1.722-2.368V31.46H2.363Zm.789,18.869A1.813,1.813,0,0,1,4.8,49.253a.719.719,0,0,0,.717-.717V35.549H8.1v14.78Zm9.757,0V35.549h2.583V48.535a.719.719,0,0,0,.717.717,2.063,2.063,0,0,1,1.291.5,1.562,1.562,0,0,1,.359.574Z" transform="translate(0 -4.775)" fill="#037ca4"/>
    <path id="Path_20490" data-name="Path 20490" d="M14.42,38.02a.71.71,0,1,0-1,0A.694.694,0,0,0,14.42,38.02Z" transform="translate(-3.447 -10.115)"/>
    <path id="Path_20491" data-name="Path 20491" d="M14.42,34.42a.71.71,0,1,0-1,0A.764.764,0,0,0,14.42,34.42Z" transform="translate(-3.447 -9.098)"/>
    <path id="Path_20492" data-name="Path 20492" d="M14.42,30.72a.71.71,0,1,0-1,0A.694.694,0,0,0,14.42,30.72Z" transform="translate(-3.447 -8.053)"/>
    <path id="Path_20493" data-name="Path 20493" d="M38.146,35.3a3.946,3.946,0,1,0,3.946,3.946A3.981,3.981,0,0,0,38.146,35.3Zm0,6.457a2.511,2.511,0,0,1,0-5.022,2.5,2.5,0,0,1,2.511,2.511A2.451,2.451,0,0,1,38.146,41.757Z" transform="translate(-9.381 -9.691)" fill="#037ca4"/>
    <path id="Path_20494" data-name="Path 20494" d="M42.945,37.33c.072-.072.072-.215.143-.287l2.009-.574a.689.689,0,0,0,.5-.646V32.738a.689.689,0,0,0-.5-.646l-2.009-.574c-.072-.072-.072-.215-.143-.287l1-1.794a.763.763,0,0,0-.143-.861l-2.152-2.224a.763.763,0,0,0-.861-.143l-1.794,1c-.072-.072-.215-.072-.287-.143l-.072-.143,4.95-4.95L46.6,24.99a.694.694,0,0,0,1,0l5.022-5.022v1.578a.719.719,0,0,0,.717.717.678.678,0,0,0,.717-.717V18.317a.719.719,0,0,0-.717-.717H50.119a.717.717,0,0,0,0,1.435H51.7l-4.52,4.52-3.013-3.013a.694.694,0,0,0-1,0L38.281,25.42l-.072-.359a.689.689,0,0,0-.646-.5H34.479a.689.689,0,0,0-.646.5l-.574,2.009c-.072.072-.215.072-.287.143l-1.794-1a.782.782,0,0,0-.861.143l-2.224,2.224a.763.763,0,0,0-.143.861l1,1.794c-.072.072-.072.215-.143.287l-2.009.5a.689.689,0,0,0-.5.646v3.085a.689.689,0,0,0,.5.646l2.009.574c.072.072.072.215.143.287l-1,1.794a.763.763,0,0,0,.143.861l2.224,2.152a.763.763,0,0,0,.861.143l1.794-1c.072.072.215.072.287.143l.574,2.009a.689.689,0,0,0,.646.5h3.085a.689.689,0,0,0,.646-.5l.574-2.009c.072-.072.215-.072.287-.143l1.794,1a.782.782,0,0,0,.861-.143l2.152-2.152a.763.763,0,0,0,.143-.861ZM41.08,40.774l-1.65-.933a.538.538,0,0,0-.646,0c-.287.143-.5.215-.789.359a.629.629,0,0,0-.43.5l-.5,1.865H35.053l-.5-1.865a.759.759,0,0,0-.43-.5,2.652,2.652,0,0,1-.789-.359,1,1,0,0,0-.646,0l-1.65.933L29.6,39.339l.933-1.65a.538.538,0,0,0,0-.646c-.143-.287-.215-.5-.359-.789a.629.629,0,0,0-.5-.43l-1.865-.5V33.312l1.865-.5a.759.759,0,0,0,.5-.43,2.652,2.652,0,0,1,.359-.789,1,1,0,0,0,0-.646l-.933-1.65,1.435-1.435,1.65.933a.538.538,0,0,0,.646,0c.287-.143.5-.215.789-.359a.629.629,0,0,0,.43-.5l.5-1.865h2.009l.5,1.865a.759.759,0,0,0,.43.5,2.652,2.652,0,0,1,.789.359,1,1,0,0,0,.646,0l1.65-.933,1.435,1.435L41.582,30.8a.538.538,0,0,0,0,.646c.143.287.215.5.359.789a.629.629,0,0,0,.5.43l1.865.5v2.009l-1.865.5a.759.759,0,0,0-.5.43,2.652,2.652,0,0,1-.359.789,1,1,0,0,0,0,.646l.933,1.65Z" transform="translate(-7.148 -4.69)" fill="#7e75e4"/>
    <path id="Path_20495" data-name="Path 20495" d="M39.5,12.483a.779.779,0,0,0,.5.861l2.511.5a.812.812,0,0,0,.861-.5l.5-2.511a.7.7,0,0,0-1.363-.359l-.143.717a5.893,5.893,0,0,0-3.516-2.439,6.361,6.361,0,0,0-5.74,1.937.71.71,0,1,0,1,1,5.1,5.1,0,0,1,4.52-1.578,4.515,4.515,0,0,1,2.8,2.009l-1-.215A.782.782,0,0,0,39.5,12.483Z" transform="translate(-9.013 -2.156)" fill="#037ca4"/>
    <path id="Path_20496" data-name="Path 20496" d="M40.455,55.678a.756.756,0,0,0-.933.287c-1.578,3.229-4.52,3.874-7.031,2.152l1-.143a.69.69,0,1,0-.215-1.363l-2.511.359a.711.711,0,0,0-.574.789l.359,2.511a.7.7,0,0,0,.717.574h.072a.711.711,0,0,0,.574-.789l-.072-.717c3.3,2.224,7.031.933,8.9-2.726A.662.662,0,0,0,40.455,55.678Z" transform="translate(-8.246 -15.433)" fill="#037ca4"/>
    <path id="Path_20497" data-name="Path 20497" d="M60.6,54.087l-8.466-2.8a.884.884,0,0,0-.717.143.556.556,0,0,0-.143.717l2.8,8.466a.689.689,0,0,0,.646.5h0a.689.689,0,0,0,.646-.5l1.363-3.874L60.6,55.378a.666.666,0,0,0,0-1.291Zm-4.663,1.435a.647.647,0,0,0-.43.43l-.717,2.3-1.722-5.237L58.3,54.733Z" transform="translate(-14.183 -14.201)" fill="#037ca4"/>
  </g>
</svg>
