<svg xmlns="http://www.w3.org/2000/svg" width="46.699" height="46.699" viewBox="0 0 46.699 46.699">
  <g id="Enterprise_IOS_application" data-name="Enterprise IOS application" transform="translate(-16 -16)">
    <path id="Path_18919" data-name="Path 18919" d="M148.236,124.265l3.6-2.88-.973-1.215-2.627,2.1v-1.494a.778.778,0,0,0-.778-.778h-14.01a.778.778,0,0,0-.778.778v1.494l-2.627-2.1-.973,1.215,3.6,2.88v8.187H128v1.557h4.67V142.2l-3.6,2.88.973,1.215,2.627-2.1v1.494a.778.778,0,0,0,.778.778h14.01a.778.778,0,0,0,.778-.778V144.19l2.627,2.1.973-1.215-3.6-2.88V134.01h4.67v-1.557h-4.67ZM146.68,138.68H134.227v-4.67H146.68Zm-12.453-6.227v-4.67H146.68v4.67Zm12.453-10.9v4.67H134.227v-4.67Zm-12.453,23.35v-4.67H146.68v4.67Z" transform="translate(-101.104 -93.882)" fill="#0094c4"/>
    <path id="Path_18920" data-name="Path 18920" d="M208,152h1.557v1.557H208Z" transform="translate(-173.32 -122.769)" fill="#7e75e4"/>
    <path id="Path_18921" data-name="Path 18921" d="M240,152h6.227v1.557H240Z" transform="translate(-202.207 -122.769)" fill="#7e75e4"/>
    <path id="Path_18922" data-name="Path 18922" d="M208,216h1.557v1.557H208Z" transform="translate(-173.32 -180.542)" fill="#7e75e4"/>
    <path id="Path_18923" data-name="Path 18923" d="M240,216h6.227v1.557H240Z" transform="translate(-202.207 -180.542)" fill="#7e75e4"/>
    <path id="Path_18924" data-name="Path 18924" d="M208,280h1.557v1.557H208Z" transform="translate(-173.32 -238.315)" fill="#7e75e4"/>
    <path id="Path_18925" data-name="Path 18925" d="M240,280h6.227v1.557H240Z" transform="translate(-202.207 -238.315)" fill="#7e75e4"/>
    <path id="Path_18926" data-name="Path 18926" d="M208,344h1.557v1.557H208Z" transform="translate(-173.32 -296.089)" fill="#7e75e4"/>
    <path id="Path_18927" data-name="Path 18927" d="M240,344h6.227v1.557H240Z" transform="translate(-202.207 -296.089)" fill="#7e75e4"/>
    <path id="Path_18928" data-name="Path 18928" d="M359.783,23a1.558,1.558,0,0,0,1.557-1.557V17.557A1.558,1.558,0,0,0,359.783,16h-6.227A1.558,1.558,0,0,0,352,17.557v3.892A1.558,1.558,0,0,0,353.557,23h2.335v1.557h-1.557v1.557H359V24.562h-1.557V23Zm-6.227-5.448h6.227v3.892h-6.228Z" transform="translate(-303.311 0)" fill="#7e75e4"/>
    <path id="Path_18929" data-name="Path 18929" d="M66.335,24.562v1.557H71V24.562H69.448V23h2.335a1.558,1.558,0,0,0,1.557-1.557V17.557A1.558,1.558,0,0,0,71.783,16H65.557A1.558,1.558,0,0,0,64,17.557v3.892A1.558,1.558,0,0,0,65.557,23h2.335v1.557Zm-.778-7h6.227v3.892H65.557Z" transform="translate(-43.33 0)" fill="#7e75e4"/>
    <path id="Path_18930" data-name="Path 18930" d="M17.557,215h2.335v1.557H18.335v1.557H23v-1.557H21.448V215h2.335a1.558,1.558,0,0,0,1.557-1.557v-3.892A1.558,1.558,0,0,0,23.783,208H17.557A1.558,1.558,0,0,0,16,209.557v3.892A1.558,1.558,0,0,0,17.557,215Zm0-5.448h6.227v3.892H17.557Z" transform="translate(0 -173.32)" fill="#7e75e4"/>
    <path id="Path_18931" data-name="Path 18931" d="M407.783,216h-6.227A1.558,1.558,0,0,0,400,217.557v3.892A1.558,1.558,0,0,0,401.557,223h2.335v1.557h-1.557v1.557H407v-1.557h-1.557V223h2.335a1.558,1.558,0,0,0,1.557-1.557v-3.892A1.558,1.558,0,0,0,407.783,216Zm-6.227,5.448v-3.892h6.227v3.892Z" transform="translate(-346.641 -180.542)" fill="#7e75e4"/>
    <path id="Path_18932" data-name="Path 18932" d="M359.783,399a1.558,1.558,0,0,0,1.557-1.557v-3.892A1.558,1.558,0,0,0,359.783,392h-6.227A1.558,1.558,0,0,0,352,393.557v3.892A1.558,1.558,0,0,0,353.557,399h2.335v1.557h-1.557v1.557H359v-1.557h-1.557V399Zm-6.227-5.448h6.227v3.892h-6.228Z" transform="translate(-303.311 -339.419)" fill="#7e75e4"/>
    <path id="Path_18933" data-name="Path 18933" d="M71.783,399a1.558,1.558,0,0,0,1.557-1.557v-3.892A1.558,1.558,0,0,0,71.783,392H65.557A1.558,1.558,0,0,0,64,393.557v3.892A1.558,1.558,0,0,0,65.557,399h2.335v1.557H66.335v1.557H71v-1.557H69.448V399Zm-6.227-5.448h6.227v3.892H65.557Z" transform="translate(-43.33 -339.419)" fill="#7e75e4"/>
  </g>
</svg>
