<svg id="SIri_integration" data-name="SIri integration" xmlns="http://www.w3.org/2000/svg" xmlns:xlink="http://www.w3.org/1999/xlink" width="45.938" height="45.938" viewBox="0 0 45.938 45.938">
  <defs>
    <linearGradient id="linear-gradient" x1="0.5" x2="0.5" y2="1" gradientUnits="objectBoundingBox">
      <stop offset="0" stop-color="#0094c4"/>
      <stop offset="1" stop-color="#7e75e4"/>
    </linearGradient>
  </defs>
  <path id="Path_18934" data-name="Path 18934" d="M48,160h2.964v1.482H48Zm0,0" transform="translate(-43.554 -145.181)" fill="url(#linear-gradient)"/>
  <path id="Path_18935" data-name="Path 18935" d="M43.715,11.855a2.226,2.226,0,0,0,2.223-2.223V2.223A2.226,2.226,0,0,0,43.715,0H33.342a2.226,2.226,0,0,0-2.223,2.223V9.632a2.226,2.226,0,0,0,2.223,2.223h2.223v1.482H34.083v1.482h3.7v7.409H34.729A5.18,5.18,0,0,0,32.6,20.966c0-.075.005-.147.005-.22a5.923,5.923,0,0,0-10.92-3.185,5.9,5.9,0,0,0-2.417-.52,5.96,5.96,0,0,0-5.539,3.823,5.151,5.151,0,0,0-1.564.622H6.668V19.264H9.632a2.226,2.226,0,0,0,2.223-2.223V2.223A2.226,2.226,0,0,0,9.632,0H2.223A2.226,2.226,0,0,0,0,2.223V17.041a2.226,2.226,0,0,0,2.223,2.223H5.186v3.7h5.4a5.158,5.158,0,0,0-.72,1.482h-3.2V32.6H3.7a2.226,2.226,0,0,0-2.223,2.223v6.668H0v2.223a2.226,2.226,0,0,0,2.223,2.223H14.078A2.226,2.226,0,0,0,16.3,43.715V41.492H14.819V34.824A2.226,2.226,0,0,0,12.6,32.6H8.15V25.932H9.632a5.193,5.193,0,0,0,5.186,5.186h16.3a5.19,5.19,0,0,0,5.127-4.446h3.023V32.6H34.083V45.937H45.937V32.6H40.751V25.192H36.243a5.128,5.128,0,0,0-.461-1.482h3.487V14.819h3.7V13.337H41.492V11.855Zm-33.342,0H1.482V4.446h8.891ZM2.223,1.482H9.632a.741.741,0,0,1,.741.741v.741H1.482V2.223A.741.741,0,0,1,2.223,1.482ZM1.482,17.041v-3.7h8.891v3.7a.741.741,0,0,1-.741.741H2.223A.741.741,0,0,1,1.482,17.041ZM14.819,43.715a.741.741,0,0,1-.741.741H2.223a.741.741,0,0,1-.741-.741v-.741H14.819Zm-1.482-8.891v6.668H2.964V34.824a.741.741,0,0,1,.741-.741H12.6A.741.741,0,0,1,13.337,34.824Zm22.228,9.632V40.01h8.891v4.446Zm8.891-5.927H35.564V34.083h8.891ZM31.119,29.637h-16.3a3.7,3.7,0,0,1-.445-7.38l.486-.059.137-.47a4.433,4.433,0,0,1,6.592-2.542l.707.436.353-.754a4.435,4.435,0,0,1,8.411,2.562l-.112.733.733.111a3.7,3.7,0,0,1-.562,7.362ZM33.342,1.482H43.715a.741.741,0,0,1,.741.741V7.409H32.6V2.223A.741.741,0,0,1,33.342,1.482ZM32.6,9.632V8.891H44.456v.741a.741.741,0,0,1-.741.741H33.342A.741.741,0,0,1,32.6,9.632Zm7.409,3.7H37.046V11.855H40.01Zm0,0" fill="url(#linear-gradient)"/>
  <path id="Path_18936" data-name="Path 18936" d="M400,384h1.482v1.482H400Zm0,0" transform="translate(-362.954 -348.436)" fill="url(#linear-gradient)"/>
  <path id="Path_18937" data-name="Path 18937" d="M448,448h1.482v1.482H448Zm0,0" transform="translate(-406.508 -406.508)" fill="url(#linear-gradient)"/>
  <path id="Path_18938" data-name="Path 18938" d="M432,384h2.964v1.482H432Zm0,0" transform="translate(-391.99 -348.436)" fill="url(#linear-gradient)"/>
  <path id="Path_18939" data-name="Path 18939" d="M400,448h2.964v1.482H400Zm0,0" transform="translate(-362.954 -406.508)" fill="url(#linear-gradient)"/>
</svg>
