<svg xmlns="http://www.w3.org/2000/svg" width="45.477" height="45.477" viewBox="0 0 45.477 45.477">
  <g id="Android_UI_UX_Design" data-name="Android UI/UX Design" transform="translate(-0.5)">
    <path id="Path_20206" data-name="Path 20206" d="M141.592,368h-1.516v3.032H126.433v1.516h13.643v2.274A2.274,2.274,0,0,1,137.8,377.1H121.127a2.282,2.282,0,0,1-1.971-1.137l-1.313.758a3.805,3.805,0,0,0,3.283,1.895H137.8a3.794,3.794,0,0,0,3.79-3.79Zm0,0" transform="translate(-106.226 -333.135)" fill="#037ca4"/>
    <path id="Path_20207" data-name="Path 20207" d="M232.5,432h1.516v1.516H232.5Zm0,0" transform="translate(-210.02 -391.071)" fill="#7e75e4"/>
    <path id="Path_20208" data-name="Path 20208" d="M48.754,20.464V18.949H46.442a9.854,9.854,0,0,0-9.057-9.057V7.579H35.869V9.892a9.851,9.851,0,0,0-1.516.236V6.064H46.48V4.548H34.353V3.79a2.274,2.274,0,0,1,2.274-2.274H53.3a2.273,2.273,0,0,1,1.5.568l1-1.137A3.785,3.785,0,0,0,53.3,0H36.627a3.794,3.794,0,0,0-3.79,3.79v6.821a9.866,9.866,0,0,0-6.025,8.337H24.5v1.516h2.314a9.809,9.809,0,0,0,9.055,9.061v2.309h1.516V29.525a9.809,9.809,0,0,0,9.055-9.061ZM35.869,26.528v1.481a8.306,8.306,0,0,1-3.032-.875V25.77a3.79,3.79,0,1,1,7.579,0v1.364a8.314,8.314,0,0,1-3.032.877V26.528Zm-1.516-8.337a2.274,2.274,0,1,1,2.274,2.274A2.274,2.274,0,0,1,34.353,18.191Zm7.832,7.731c-.082.075-.169.136-.252.206V25.77a5.305,5.305,0,0,0-2.864-4.705,3.79,3.79,0,1,0-4.883,0,5.305,5.305,0,0,0-2.864,4.705v.362c-.084-.069-.171-.134-.252-.206a8.342,8.342,0,0,1-2.739-5.461h1.476V18.949H28.328a8.346,8.346,0,0,1,7.541-7.541v1.477h1.516V11.408a8.346,8.346,0,0,1,7.541,7.541H43.448v1.516h1.476a8.342,8.342,0,0,1-2.739,5.461Zm0,0" transform="translate(-21.726 0)" fill="#037ca4"/>
    <path id="Path_20209" data-name="Path 20209" d="M289.933,42.611a.758.758,0,0,0,.758-.758v-9.1a.758.758,0,0,0-.758-.758H273.258a.758.758,0,0,0-.758.758v9.1a.758.758,0,0,0,.758.758Zm-15.917-9.1h15.159V41.1H274.016Zm0,0" transform="translate(-246.23 -28.968)" fill="#7e75e4"/>
    <path id="Path_20210" data-name="Path 20210" d="M304.5,64h3.032v1.516H304.5Zm0,0" transform="translate(-275.198 -57.936)" fill="#7e75e4"/>
    <path id="Path_20211" data-name="Path 20211" d="M352.5,64h7.579v1.516H352.5Zm0,0" transform="translate(-318.651 -57.936)" fill="#7e75e4"/>
    <path id="Path_20212" data-name="Path 20212" d="M304.5,96h12.127v1.516H304.5Zm0,0" transform="translate(-275.198 -86.905)" fill="#7e75e4"/>
    <path id="Path_20213" data-name="Path 20213" d="M260.824,160a2.4,2.4,0,0,0-1.592.606l-6.612,5.829V160H251.1v7.579h.219l-4.312,3.8a5.306,5.306,0,0,0-5,5.29v1.337a1.971,1.971,0,0,1-1.1,1.774.758.758,0,0,0,.339,1.436h5.306a5.306,5.306,0,0,0,5.29-5L262.63,164a2.408,2.408,0,0,0-1.806-4Zm-14.267,19.707h-3.466a3.5,3.5,0,0,0,.434-1.695v-1.337a3.8,3.8,0,0,1,3.487-3.777l3.323,3.323A3.794,3.794,0,0,1,246.557,179.706ZM261.493,163,251.071,174.81l-2.649-2.648,11.813-10.423A.892.892,0,0,1,261.493,163Zm0,0" transform="translate(-217.255 -144.841)" fill="#037ca4"/>
    <path id="Path_20214" data-name="Path 20214" d="M1.258,331.369H17.933a.758.758,0,0,0,.758-.758v-6.064a.758.758,0,0,0-.758-.758H12.627V320H11.111v3.79H1.258a.758.758,0,0,0-.758.758v6.064A.758.758,0,0,0,1.258,331.369Zm.758-6.064H17.175v4.548H2.016Zm0,0" transform="translate(0 -289.682)" fill="#037ca4"/>
    <path id="Path_20215" data-name="Path 20215" d="M32.5,392h3.79v1.516H32.5Zm0,0" transform="translate(-28.968 -354.861)" fill="#7e75e4"/>
    <path id="Path_20216" data-name="Path 20216" d="M88.5,392h6.821v1.516H88.5Zm0,0" transform="translate(-79.663 -354.861)" fill="#7e75e4"/>
    <path id="Path_20217" data-name="Path 20217" d="M1.258,39.579H8.837a.758.758,0,0,0,.758-.758V32.758A.758.758,0,0,0,8.837,32H1.258a.758.758,0,0,0-.758.758v6.064A.758.758,0,0,0,1.258,39.579Zm.758-6.064H8.079v4.548H2.016Zm0,0" transform="translate(0 -28.968)" fill="#7e75e4"/>
    <path id="Path_20218" data-name="Path 20218" d="M32.5,64h3.032v1.516H32.5Zm0,0" transform="translate(-28.968 -57.936)" fill="#7e75e4"/>
  </g>
</svg>
