<svg xmlns="http://www.w3.org/2000/svg" width="45.255" height="56.999" viewBox="0 0 45.255 56.999">
  <g id="Custom_Android_App_Development" data-name="Custom Android App Development" style="isolation: isolate">
    <g id="Group_13781" data-name="Group 13781" transform="translate(0 0)">
      <g id="Group_13780" data-name="Group 13780">
        <path id="Path_20175" data-name="Path 20175" fill="none" stroke="#000" stroke-linecap="round" stroke-linejoin="round" stroke-miterlimit="10" stroke-width="15"/>
      </g>
    </g>
    <g id="Group_13782" data-name="Group 13782" transform="translate(11.744 0)">
      <path id="Path_20176" data-name="Path 20176" d="M194.224,141.183h9.67a2.3,2.3,0,0,0,2.292-2.292v-1.1a7.127,7.127,0,0,0-3.312-6.016l.44-.817a.835.835,0,1,0-1.47-.793l-.476.883a7.1,7.1,0,0,0-4.618,0l-.476-.883a.835.835,0,1,0-1.47.793l.44.817a7.126,7.126,0,0,0-3.312,6.016v1.1A2.3,2.3,0,0,0,194.224,141.183Zm-.622-3.388a5.457,5.457,0,0,1,10.914,0v1.1a.623.623,0,0,1-.622.622h-9.67a.623.623,0,0,1-.622-.622Z" transform="translate(-182.304 -115.285)" fill="#7e75e4"/>
      <path id="Path_20177" data-name="Path 20177" d="M227.6,183.048a.835.835,0,0,0,.835-.835v-.8a.835.835,0,1,0-1.67,0v.8A.835.835,0,0,0,227.6,183.048Z" transform="translate(-213.262 -160.467)" fill="#037ca4"/>
      <path id="Path_20178" data-name="Path 20178" d="M270.943,183.048a.835.835,0,0,0,.835-.835v-.8a.835.835,0,1,0-1.67,0v.8A.835.835,0,0,0,270.943,183.048Z" transform="translate(-251.775 -160.467)" fill="#037ca4"/>
      <path id="Path_20179" data-name="Path 20179" d="M193.594,250.992v3.31a2.36,2.36,0,0,0,4.719,0v-3.259H199.8V254.3a2.36,2.36,0,1,0,4.719,0v-3.31a2.121,2.121,0,0,0,1.665-2.068v-.247a.835.835,0,1,0-1.67,0v.247a.449.449,0,0,1-.448.448H194.047a.449.449,0,0,1-.448-.448v-5.868a.449.449,0,0,1,.448-.448h10.018a.449.449,0,0,1,.448.448v1.724a.835.835,0,0,0,1.67,0v-1.724a2.121,2.121,0,0,0-2.118-2.118H194.047a2.121,2.121,0,0,0-2.118,2.118v5.868A2.122,2.122,0,0,0,193.594,250.992Zm7.877.05h1.379V254.3a.689.689,0,1,1-1.379,0v-3.259Zm-6.207,0h1.379V254.3a.689.689,0,1,1-1.379,0v-3.259Z" transform="translate(-182.302 -214.108)" fill="#7e75e4"/>
      <path id="Path_20180" data-name="Path 20180" d="M330.041,246.429a2.36,2.36,0,1,0,4.719,0V243.3a2.36,2.36,0,0,0-4.719,0Zm1.67-3.13a.689.689,0,0,1,1.379,0v3.13a.689.689,0,1,1-1.379,0Z" transform="translate(-305.034 -214.111)" fill="#7e75e4"/>
      <path id="Path_20181" data-name="Path 20181" d="M141.816,248.789a2.362,2.362,0,0,0,2.36-2.36V243.3a2.36,2.36,0,0,0-4.719,0v3.13A2.362,2.362,0,0,0,141.816,248.789Zm-.689-5.489a.689.689,0,0,1,1.379,0v3.13a.689.689,0,0,1-1.379,0Z" transform="translate(-135.672 -214.111)" fill="#7e75e4"/>
      <path id="Path_20182" data-name="Path 20182" d="M135.478,0H116.231a.835.835,0,0,0,0,1.67h19.248A1.834,1.834,0,0,1,137.31,3.5V7.287H107.14V3.5a1.834,1.834,0,0,1,1.832-1.832h3.4a.835.835,0,0,0,0-1.67h-3.4a3.506,3.506,0,0,0-3.5,3.5v50a3.506,3.506,0,0,0,3.5,3.5h26.507a3.506,3.506,0,0,0,3.5-3.5V3.5a3.506,3.506,0,0,0-3.5-3.5Zm1.832,53.5a1.834,1.834,0,0,1-1.832,1.832H108.972A1.834,1.834,0,0,1,107.14,53.5V49.712h30.17V53.5Zm0-5.455H107.14V8.957h30.17V48.042Z" transform="translate(-105.47 0)" fill="#037ca4"/>
      <path id="Path_20183" data-name="Path 20183" d="M237.185,465.828h2.692a.835.835,0,1,0,0-1.67h-2.692a.835.835,0,0,0,0,1.67Z" transform="translate(-221.776 -412.473)" fill="#037ca4"/>
      <circle id="Ellipse_404" data-name="Ellipse 404" cx="1.107" cy="1.107" r="1.107" transform="translate(12.127 3.371)" fill="#037ca4"/>
      <path id="Path_20184" data-name="Path 20184" d="M253.9,34.389a.835.835,0,0,0,0-1.67h-4.628a.835.835,0,1,0,0,1.67Z" transform="translate(-232.519 -29.076)" fill="#037ca4"/>
      <path id="Path_20185" data-name="Path 20185" d="M320.482,102.3a.835.835,0,0,0,.835-.835v-.51a.835.835,0,1,0-1.67,0v.51A.835.835,0,0,0,320.482,102.3Z" transform="translate(-295.798 -88.974)" fill="#037ca4"/>
      <path id="Path_20186" data-name="Path 20186" d="M343.5,98.23a.835.835,0,0,0,.835-.835V96.374a.835.835,0,0,0-1.67,0v1.021A.835.835,0,0,0,343.5,98.23Z" transform="translate(-316.253 -84.9)" fill="#037ca4"/>
      <path id="Path_20187" data-name="Path 20187" d="M366.518,94.157a.835.835,0,0,0,.835-.835V91.791a.835.835,0,0,0-1.67,0v1.531A.835.835,0,0,0,366.518,94.157Z" transform="translate(-336.708 -80.828)" fill="#037ca4"/>
    </g>
  </g>
</svg>
