<svg xmlns="http://www.w3.org/2000/svg" width="45.817" height="45.818" viewBox="0 0 45.817 45.818">
  <g id="Native_Android_Development_app" data-name="Native Android Development app" transform="translate(-2 -1.998)">
    <path id="Path_20188" data-name="Path 20188" d="M44,23.381H40.945V13.454a2.291,2.291,0,0,0-2.291-2.291H34.8a9.917,9.917,0,0,0-19.778.008c-.013,0-.024-.008-.038-.008H10.4a2.291,2.291,0,0,0-2.291,2.291v9.927H5.818a2.291,2.291,0,0,0-2.291,2.291V41.708H2.764A.764.764,0,0,0,2,42.471V44a3.823,3.823,0,0,0,3.818,3.818H27.2A3.823,3.823,0,0,0,31.018,44V42.471a.764.764,0,0,0-.764-.764H29.49V25.672A2.291,2.291,0,0,0,27.2,23.381H9.636V13.454a.764.764,0,0,1,.764-.764h4.582c.014,0,.025-.007.038-.008A9.917,9.917,0,0,0,34.8,12.69h3.856a.764.764,0,0,1,.764.764v9.927H36.363A3.823,3.823,0,0,0,32.545,27.2V44a3.823,3.823,0,0,0,3.818,3.818H44A3.823,3.823,0,0,0,47.817,44V27.2A3.823,3.823,0,0,0,44,23.381ZM29.49,44A2.291,2.291,0,0,1,27.2,46.29H5.818A2.291,2.291,0,0,1,3.527,44v-.764h9.163a2.291,2.291,0,0,0,2.291,2.291h3.054a2.291,2.291,0,0,0,2.291-2.291H29.49Zm-15.272-.764H18.8a.764.764,0,0,1-.764.764H14.982A.764.764,0,0,1,14.218,43.235ZM27.2,24.908a.764.764,0,0,1,.764.764V41.708H5.054V25.672a.764.764,0,0,1,.764-.764Zm-2.291-4.582a8.4,8.4,0,1,1,8.4-8.4,8.4,8.4,0,0,1-8.4,8.4Zm9.163,9.163H46.29V41.708H34.072Zm2.291-4.582H44A2.291,2.291,0,0,1,46.29,27.2v.764H34.072V27.2A2.291,2.291,0,0,1,36.363,24.908ZM44,46.29H36.363A2.291,2.291,0,0,1,34.072,44v-.764H46.29V44A2.291,2.291,0,0,1,44,46.29Z" transform="translate(0 0)" fill="#037ca4"/>
    <path id="Path_20189" data-name="Path 20189" d="M52.291,57H50.764a.764.764,0,1,0,0,1.527h1.527a.764.764,0,1,0,0-1.527Z" transform="translate(-11.346 -13.001)" fill="#7e75e4"/>
    <path id="Path_20190" data-name="Path 20190" d="M8.764,47.745H27.091a.764.764,0,0,0,.764-.764V34.764A.764.764,0,0,0,27.091,34H8.764A.764.764,0,0,0,8,34.764V46.982A.764.764,0,0,0,8.764,47.745Zm.764-12.218h16.8V46.218H9.527Z" transform="translate(-1.418 -7.565)" fill="#7e75e4"/>
    <path id="Path_20191" data-name="Path 20191" d="M50.764,34.527h1.527a.764.764,0,1,0,0-1.527H50.764a.764.764,0,1,0,0,1.527Z" transform="translate(-11.346 -7.328)" fill="#7e75e4"/>
    <path id="Path_20192" data-name="Path 20192" d="M32.57,6.934l-.407.407V6.764A.764.764,0,0,0,31.4,6H28.345a.764.764,0,0,0-.764.764v.577l-.407-.407a.764.764,0,0,0-1.08,0L23.934,9.095a.764.764,0,0,0,0,1.08l.407.407h-.577a.764.764,0,0,0-.764.764V14.4a.764.764,0,0,0,.764.764h.577l-.407.407a.764.764,0,0,0,0,1.08l2.161,2.161a.764.764,0,0,0,1.08,0l.407-.407v.577a.764.764,0,0,0,.764.764H31.4a.764.764,0,0,0,.764-.764V18.4l.407.407a.764.764,0,0,0,1.08,0l2.161-2.161a.764.764,0,0,0,0-1.08l-.407-.407h.577a.764.764,0,0,0,.764-.764V11.345a.764.764,0,0,0-.764-.764H35.4l.407-.407a.764.764,0,0,0,0-1.08L33.65,6.934a.764.764,0,0,0-1.08,0Zm.285,4.7a.764.764,0,0,0,.706.471h1.657v1.527H33.561a.764.764,0,0,0-.54,1.3l1.171,1.171L33.11,17.192,31.94,16.021a.764.764,0,0,0-1.3.54v1.657H29.109V16.561a.764.764,0,0,0-1.3-.54l-1.171,1.171L25.554,16.11l1.171-1.171a.764.764,0,0,0-.54-1.3H24.527V12.109h1.657a.764.764,0,0,0,.54-1.3L25.554,9.635l1.081-1.081,1.171,1.171a.764.764,0,0,0,1.3-.54V7.527h1.527V9.184a.764.764,0,0,0,1.3.54L33.11,8.554l1.081,1.081-1.171,1.171a.764.764,0,0,0-.166.832Z" transform="translate(-4.964 -0.946)" fill="#7e75e4"/>
    <path id="Path_20193" data-name="Path 20193" d="M31.291,12a2.291,2.291,0,1,0,2.291,2.291A2.291,2.291,0,0,0,31.291,12Zm0,3.054a.764.764,0,1,1,.764-.764A.764.764,0,0,1,31.291,15.054Z" transform="translate(-6.382 -2.364)" fill="#037ca4"/>
    <path id="Path_20194" data-name="Path 20194" d="M47.527,40h-.764a.764.764,0,1,0,0,1.527h.764a.764.764,0,0,0,0-1.527Z" transform="translate(-10.401 -8.983)" fill="#7e75e4"/>
    <path id="Path_20195" data-name="Path 20195" d="M50.764,41.527h4.582a.764.764,0,0,0,0-1.527H50.764a.764.764,0,0,0,0,1.527Z" transform="translate(-11.346 -8.983)" fill="#7e75e4"/>
    <path id="Path_20196" data-name="Path 20196" d="M47.527,44h-.764a.764.764,0,1,0,0,1.527h.764a.764.764,0,0,0,0-1.527Z" transform="translate(-10.401 -9.928)" fill="#7e75e4"/>
    <path id="Path_20197" data-name="Path 20197" d="M55.345,44H50.764a.764.764,0,1,0,0,1.527h4.582a.764.764,0,0,0,0-1.527Z" transform="translate(-11.346 -9.928)" fill="#7e75e4"/>
    <path id="Path_20198" data-name="Path 20198" d="M47.527,48h-.764a.764.764,0,1,0,0,1.527h.764a.764.764,0,1,0,0-1.527Z" transform="translate(-10.401 -10.874)" fill="#7e75e4"/>
    <path id="Path_20199" data-name="Path 20199" d="M55.345,48H50.764a.764.764,0,1,0,0,1.527h4.582a.764.764,0,1,0,0-1.527Z" transform="translate(-11.346 -10.874)" fill="#7e75e4"/>
    <path id="Path_20200" data-name="Path 20200" d="M15.527,38h-.764a.764.764,0,1,0,0,1.527h.764a.764.764,0,1,0,0-1.527Z" transform="translate(-2.837 -8.51)" fill="#7e75e4"/>
    <path id="Path_20201" data-name="Path 20201" d="M24.109,38H18.764a.764.764,0,1,0,0,1.527h5.345a.764.764,0,1,0,0-1.527Z" transform="translate(-3.782 -8.51)" fill="#7e75e4"/>
    <path id="Path_20202" data-name="Path 20202" d="M15.527,42h-.764a.764.764,0,1,0,0,1.527h.764a.764.764,0,1,0,0-1.527Z" transform="translate(-2.837 -9.456)" fill="#7e75e4"/>
    <path id="Path_20203" data-name="Path 20203" d="M24.109,42H18.764a.764.764,0,1,0,0,1.527h5.345a.764.764,0,1,0,0-1.527Z" transform="translate(-3.782 -9.456)" fill="#7e75e4"/>
    <path id="Path_20204" data-name="Path 20204" d="M15.527,46h-.764a.764.764,0,0,0,0,1.527h.764a.764.764,0,0,0,0-1.527Z" transform="translate(-2.837 -10.401)" fill="#7e75e4"/>
    <path id="Path_20205" data-name="Path 20205" d="M24.109,46H18.764a.764.764,0,0,0,0,1.527h5.345a.764.764,0,0,0,0-1.527Z" transform="translate(-3.782 -10.401)" fill="#7e75e4"/>
  </g>
</svg>
