<svg xmlns="http://www.w3.org/2000/svg" viewBox="0 0 63 63"><defs><style>.cls-1{fill:#e9ffe9;}.cls-2{fill:#4caf50;}.cls-3{fill:#fafafa;}</style></defs><title>Android</title><g id="Layer_2" data-name="Layer 2"><g id="Layer_1-2" data-name="Layer 1"><rect class="cls-1" width="63" height="63" rx="10" ry="10"/><path class="cls-2" d="M16.81,24.59a2.59,2.59,0,0,0-2.59,2.59v12.1a2.59,2.59,0,0,0,5.19,0V27.18A2.59,2.59,0,0,0,16.81,24.59Z"/><path class="cls-2" d="M46.19,24.59a2.59,2.59,0,0,0-2.59,2.59v12.1a2.59,2.59,0,0,0,5.19,0V27.18A2.59,2.59,0,0,0,46.19,24.59Z"/><path class="cls-2" d="M41,24.59H22a.86.86,0,0,0-.86.86V39.28a4.32,4.32,0,0,0,3.46,4.23v6.14a2.59,2.59,0,1,0,5.19,0v-6h3.46v6a2.59,2.59,0,1,0,5.19,0V43.52a4.32,4.32,0,0,0,3.46-4.23V25.46A.86.86,0,0,0,41,24.59Z"/><path class="cls-2" d="M37.78,14.35l2.11-2.11A.86.86,0,0,0,38.69,11l0,0-2.45,2.45a11.83,11.83,0,0,0-9.43,0L24.33,11a.86.86,0,0,0-1.22,1.22l2.11,2.11A9.12,9.12,0,0,0,21.13,22a.86.86,0,0,0,.86.86H41a.86.86,0,0,0,.86-.86A9.12,9.12,0,0,0,37.78,14.35Z"/><circle class="cls-3" cx="27.18" cy="18.5" r="0.86"/><circle class="cls-3" cx="35.82" cy="18.5" r="0.86"/></g></g></svg>