<svg xmlns="http://www.w3.org/2000/svg" viewBox="0 0 63 63"><defs><style>.cls-1{fill:#f3f8ff;}.cls-2{fill:#252f3e;}.cls-3{fill:#f90;}</style></defs><title>AWS</title><g id="Layer_2" data-name="Layer 2"><g id="Layer_1-2" data-name="Layer 1"><rect class="cls-1" width="63" height="63" rx="10" ry="10"/><path class="cls-2" d="M21.55,27.77a4.59,4.59,0,0,0,.17,1.35,8.11,8.11,0,0,0,.49,1.09.66.66,0,0,1,.11.35A.6.6,0,0,1,22,31l-1,.64a.73.73,0,0,1-.39.14.7.7,0,0,1-.45-.21,4.69,4.69,0,0,1-.55-.71c-.15-.26-.3-.55-.47-.89a5.6,5.6,0,0,1-4.46,2.09,4.15,4.15,0,0,1-3-1.09,3.89,3.89,0,0,1-1.12-2.91A3.9,3.9,0,0,1,12,24.94a5.52,5.52,0,0,1,3.71-1.18,12,12,0,0,1,1.61.12c.56.08,1.14.2,1.74.33V23.1a3.36,3.36,0,0,0-.71-2.43,3.49,3.49,0,0,0-2.47-.7,6.9,6.9,0,0,0-1.64.2,12.08,12.08,0,0,0-1.64.52,4.35,4.35,0,0,1-.53.2.93.93,0,0,1-.24,0c-.21,0-.32-.15-.32-.47v-.74a1,1,0,0,1,.11-.53,1.14,1.14,0,0,1,.42-.32,8.73,8.73,0,0,1,1.91-.68,9.19,9.19,0,0,1,2.37-.29,5.54,5.54,0,0,1,4,1.23,5,5,0,0,1,1.26,3.73v4.91Zm-6.16,2.3A4.91,4.91,0,0,0,17,29.8a3.38,3.38,0,0,0,1.44-1,2.41,2.41,0,0,0,.52-1,5.44,5.44,0,0,0,.15-1.32v-.64a12.66,12.66,0,0,0-1.39-.26,11.42,11.42,0,0,0-1.43-.09,3.5,3.5,0,0,0-2.26.61,2.11,2.11,0,0,0-.74,1.74,2,2,0,0,0,2.15,2.17Zm12.17,1.64a.85.85,0,0,1-.58-.15,1.24,1.24,0,0,1-.32-.59L23.12,19.25a2.66,2.66,0,0,1-.14-.61.33.33,0,0,1,.36-.38h1.49a.84.84,0,0,1,.59.15,1.24,1.24,0,0,1,.3.59l2.55,10,2.37-10a1.06,1.06,0,0,1,.29-.59,1,1,0,0,1,.61-.15h1.21a.91.91,0,0,1,.61.15,1,1,0,0,1,.29.59L36,29.17,38.66,19a1.3,1.3,0,0,1,.3-.59,1,1,0,0,1,.59-.15H41a.34.34,0,0,1,.38.38,1.51,1.51,0,0,1,0,.24,2.16,2.16,0,0,1-.11.38L37.55,31a1.16,1.16,0,0,1-.32.59,1,1,0,0,1-.58.15h-1.3a.91.91,0,0,1-.61-.15,1.07,1.07,0,0,1-.29-.61l-2.35-9.78L29.77,31a1.18,1.18,0,0,1-.29.61.94.94,0,0,1-.61.15Zm19.48.41a10,10,0,0,1-2.33-.27A6.9,6.9,0,0,1,43,31.24a1.09,1.09,0,0,1-.47-.42,1.07,1.07,0,0,1-.09-.42v-.77c0-.32.12-.47.35-.47a.86.86,0,0,1,.27,0l.38.15a8.25,8.25,0,0,0,1.67.53,9.1,9.1,0,0,0,1.8.18,4.09,4.09,0,0,0,2.21-.5,1.63,1.63,0,0,0,.79-1.44,1.48,1.48,0,0,0-.41-1.06,3.8,3.8,0,0,0-1.53-.79l-2.2-.68A4.62,4.62,0,0,1,43.32,24a3.61,3.61,0,0,1-.76-2.2A3.37,3.37,0,0,1,43,20.16a3.9,3.9,0,0,1,1.09-1.24,4.81,4.81,0,0,1,1.58-.79,6.61,6.61,0,0,1,1.91-.26,7.61,7.61,0,0,1,1,.06c.35,0,.67.11,1,.17s.59.15.86.24a3.31,3.31,0,0,1,.64.27,1.31,1.31,0,0,1,.45.38.82.82,0,0,1,.14.5v.71c0,.32-.12.49-.35.49a1.58,1.58,0,0,1-.58-.18,6.94,6.94,0,0,0-2.91-.59,3.91,3.91,0,0,0-2,.42,1.46,1.46,0,0,0-.71,1.35,1.43,1.43,0,0,0,.45,1.08,4.53,4.53,0,0,0,1.67.83l2.15.68a4.61,4.61,0,0,1,2.35,1.46,3.43,3.43,0,0,1,.7,2.12A3.9,3.9,0,0,1,52,29.62,4.08,4.08,0,0,1,50.9,31a4.89,4.89,0,0,1-1.68.85A7.21,7.21,0,0,1,47.05,32.12Z"/><path class="cls-3" d="M49.92,39.49c-5,3.68-12.23,5.64-18.47,5.64a33.41,33.41,0,0,1-22.54-8.6c-.47-.42,0-1,.52-.67a45.46,45.46,0,0,0,22.56,6,45,45,0,0,0,17.21-3.52C50,38,50.74,38.88,49.92,39.49Z"/><path class="cls-3" d="M52,37.12c-.64-.82-4.21-.39-5.84-.2-.49.06-.56-.36-.12-.68,2.85-2,7.53-1.43,8.08-.76S54,40.85,51.3,43.1c-.41.35-.8.17-.62-.29C51.28,41.31,52.63,37.93,52,37.12Z"/></g></g></svg>