<svg xmlns="http://www.w3.org/2000/svg" viewBox="0 0 63 63"><defs><style>.cls-1{fill:#fffaee;}.cls-2{fill:#fafafa;}.cls-3{fill:#ffa000;}.cls-4{fill:#f57f17;}.cls-5{fill:#ffca28;}</style></defs><title>Firebase</title><g id="Layer_2" data-name="Layer 2"><g id="Layer_1-2" data-name="Layer 1"><rect class="cls-1" width="63" height="63" rx="10" ry="10"/><circle class="cls-2" cx="27.18" cy="18.5" r="0.86"/><circle class="cls-2" cx="35.82" cy="18.5" r="0.86"/><path class="cls-3" d="M36.32,25.59l-4.26,4-4-8,2-4.59c.52-.92,1.36-.92,1.88,0Z"/><polygon class="cls-4" points="32.05 29.55 16.12 44.38 28.1 21.57 32.05 29.55"/><path class="cls-5" d="M41,19.52c.76-.73,1.55-.48,1.75.55l4.15,24.1L33.13,52.42a6.53,6.53,0,0,1-1.76.38,6.39,6.39,0,0,1-1.61-.39l-13.65-8Z"/><path class="cls-3" d="M28.1,21.57l-12,22.8,5.33-33.33c.2-1,.79-1.14,1.31-.22Z"/></g></g></svg>