<svg xmlns="http://www.w3.org/2000/svg" viewBox="0 0 63 63"><defs><style>.cls-1{fill:#f0f6ff;}.cls-2{fill:#ea4335;}.cls-3{fill:#4285f4;}.cls-4{fill:#34a853;}.cls-5{fill:#fbbc05;}</style></defs><title>Google Cloud</title><g id="Layer_2" data-name="Layer 2"><g id="Layer_1-2" data-name="Layer 1"><rect class="cls-1" width="63" height="63" rx="10" ry="10"/><path class="cls-2" d="M38.27,24.12l3.56-3.56.24-1.5a16.05,16.05,0,0,0-22.67,1.4A16.46,16.46,0,0,0,15.92,27l1.28-.18,7.13-1.17.55-.56a8.93,8.93,0,0,1,12.19-1Z"/><path class="cls-3" d="M46.91,26.86a16.06,16.06,0,0,0-4.84-7.8l-5,5a8.89,8.89,0,0,1,3.26,7.05V32a4.43,4.43,0,1,1,0,8.85H31.41l-.87,1v5.34l.87.84h8.92a11.55,11.55,0,0,0,6.58-21.12"/><path class="cls-4" d="M22.51,48h8.91V40.85H22.51a4.39,4.39,0,0,1-1.83-.4l-1.26.39L15.83,44.4l-.31,1.21a11.56,11.56,0,0,0,7,2.36"/><path class="cls-5" d="M22.51,24.86a11.58,11.58,0,0,0-7,20.76l5.17-5.17a4.45,4.45,0,1,1,5.89-5.89l5.17-5.17a11.57,11.57,0,0,0-9.23-4.54"/></g></g></svg>