<svg xmlns="http://www.w3.org/2000/svg" viewBox="0 0 63 63"><defs><style>.cls-1{fill:#fef4f2;}.cls-2{fill:#e64c18;}.cls-3{fill:#f36518;}.cls-4{fill:#fff;}</style></defs><title>Html 5</title><g id="Layer_2" data-name="Layer 2"><g id="Layer_1-2" data-name="Layer 1"><rect class="cls-1" width="63" height="63" rx="10" ry="10"/><path class="cls-2" d="M46.69,19.63,44.3,47.39a21,21,0,0,1-25.59.07l-2.4-27.84Z"/><polygon class="cls-3" points="31.5 22.23 31.5 51.14 41.49 48.32 43.72 22.23 31.5 22.23"/><polygon class="cls-4" points="22.02 25.86 23 37.46 36.02 37.46 35.6 42.25 31.5 43.36 27.23 42.16 27.13 39.17 23.15 39.17 23.65 45.06 31.5 47.28 39.35 45.06 40.33 33.54 26.61 33.54 26.27 29.78 26.27 29.78 40.65 29.71 40.98 25.86 22.02 25.86"/><polygon points="22.87 11.21 22.87 13.21 20.96 13.21 20.96 11.21 19.19 11.21 19.19 16.93 20.96 16.93 20.96 15.07 22.87 15.07 22.87 16.93 24.64 16.93 24.64 11.21 22.87 11.21"/><polygon points="30.92 11.21 25.48 11.21 25.48 13.21 27.25 13.21 27.25 16.97 29.15 16.97 29.15 13.21 30.92 13.21 30.92 11.21"/><polygon points="41.06 15.15 41.06 11.26 39.16 11.26 39.16 15.15 39.16 16.97 41.06 16.97 43.81 16.97 43.81 15.15 41.06 15.15"/><polygon points="36.28 11.26 34.95 13.29 33.63 11.26 31.72 11.26 31.72 16.97 33.63 16.97 33.63 14.14 34.95 16.17 36.28 14.14 36.28 16.97 38.19 16.97 38.19 11.26 36.28 11.26"/></g></g></svg>