<svg xmlns="http://www.w3.org/2000/svg" viewBox="0 0 63 63"><defs><style>.cls-1{fill:#f7f7f7;}</style></defs><title>Ios</title><g id="Layer_2" data-name="Layer 2"><g id="Layer_1-2" data-name="Layer 1"><rect class="cls-1" width="63" height="63" rx="10" ry="10"/><path d="M25.81,52.11c-6.13,0-11.21-12.56-11.21-18.93,0-10.42,7.81-12.7,10.83-12.7a12.46,12.46,0,0,1,4.08,1,9.13,9.13,0,0,0,2.33.67,7.26,7.26,0,0,0,1.67-.54,13.41,13.41,0,0,1,5-1.22h0a10.34,10.34,0,0,1,8.65,4.37l.63.95-.91.69c-1.3,1-3.66,2.76-3.66,6.3a7.11,7.11,0,0,0,4,6.57c.57.34,1.16.69,1.16,1.47,0,.5-4,11.32-9.85,11.32a7.93,7.93,0,0,1-3.33-.81,6.75,6.75,0,0,0-3-.71,7.62,7.62,0,0,0-2.35.63,11.49,11.49,0,0,1-4.07.95Z"/><path d="M39.18,10.89c.15,5.48-3.77,9.28-7.68,9C30.85,15.56,35.41,10.89,39.18,10.89Z"/></g></g></svg>