<svg xmlns="http://www.w3.org/2000/svg" viewBox="0 0 63 63"><defs><style>.cls-1{fill:#fffaee;}.cls-2{fill:#fafafa;}.cls-3{fill:#8e714e;}.cls-4{fill:#442d22;}.cls-5{fill:#fff;}.cls-6{fill:#a6a385;}.cls-7{fill:#499d4a;}.cls-8{fill:#58aa50;}</style></defs><title>MongoDB_1</title><g id="Layer_2" data-name="Layer 2"><g id="Layer_1-2" data-name="Layer 1"><rect class="cls-1" width="63" height="63" rx="10" ry="10"/><circle class="cls-2" cx="27.18" cy="18.5" r="0.86"/><circle class="cls-2" cx="35.82" cy="18.5" r="0.86"/><path class="cls-3" d="M48.55,43.86s-.09.11-.09.16c0,.35,0,1.28,0,1.91a.06.06,0,0,0,.05.05l.72,0a1.87,1.87,0,0,0,.72-.1.93.93,0,0,0,.46-.88c0-.85-.6-1.17-1.48-1.17a1.4,1.4,0,0,0-.37,0Zm2.26,3.91c0-.87-.64-1.35-1.79-1.35-.05,0-.42,0-.51,0s-.06,0-.06.05c0,.62,0,1.61,0,2a.66.66,0,0,0,.29.47,2,2,0,0,0,.76.11,1.2,1.2,0,0,0,1.3-1.29Zm-4-4.39c.09,0,.35,0,1,0l1.77,0c.76,0,1.81.27,1.81,1.41A1.37,1.37,0,0,1,50.45,46s0,0,0,0a1.58,1.58,0,0,1,1.38,1.5,1.84,1.84,0,0,1-1.29,1.71,4.19,4.19,0,0,1-1.63.27c-.45,0-1.65-.05-2.31,0-.07,0,.06-.34.12-.39a1.63,1.63,0,0,0,.45-.07c.24-.06.26-.13.3-.49s0-1.39,0-2.16c0-1.06,0-1.78,0-2.13s-.11-.36-.3-.41l-.6-.09s.11-.34.16-.38Zm-5.05,5.45a1.77,1.77,0,0,0,1,.24,1.94,1.94,0,0,0,1.4-.5,2.66,2.66,0,0,0,.79-2.1,2.51,2.51,0,0,0-1.15-2.27,3.1,3.1,0,0,0-1.65-.39,1.31,1.31,0,0,0-.49.06.26.26,0,0,0-.09.14c0,.18,0,1.52,0,2.31s0,2,0,2.08a.54.54,0,0,0,.19.42Zm-2-5.45,1.11,0c.55,0,.95,0,2,0a3.24,3.24,0,0,1,2.14.68,2.84,2.84,0,0,1,1,2.24,2.93,2.93,0,0,1-1.21,2.52,4,4,0,0,1-2.51.71l-2.47,0h0c0-.08.07-.39.14-.39a1.4,1.4,0,0,0,.4-.08c.18-.07.22-.17.25-.49,0-.6,0-1.33,0-2.15,0-.59,0-1.73,0-2.1s-.16-.39-.42-.44-.31-.06-.55-.09c0-.06.12-.33.17-.39Z"/><path class="cls-4" d="M29.13,49.16a1.76,1.76,0,0,1-.57-.15.27.27,0,0,1-.07-.14c0-.31,0-1.18,0-1.77a2.06,2.06,0,0,0-.28-1.17,1.2,1.2,0,0,0-1-.53,2.34,2.34,0,0,0-1.33.63s-.08.07-.07,0,0-.29,0-.42a.23.23,0,0,0-.06-.18,5.84,5.84,0,0,1-1.36.35c-.21,0-.26.25,0,.32h0a1.94,1.94,0,0,1,.52.23.27.27,0,0,1,.08.25c0,.66,0,1.66,0,2.21,0,.22-.07.3-.23.33h0a3.46,3.46,0,0,1-.37.07.51.51,0,0,0,0,.39c.1,0,.6,0,1,0,.58,0,.88,0,1,0a.57.57,0,0,0,0-.39,1.62,1.62,0,0,1-.4-.06c-.16,0-.2-.11-.21-.3,0-.46,0-1.44,0-2.11a.42.42,0,0,1,.1-.32,1.32,1.32,0,0,1,.81-.3.91.91,0,0,1,.6.2.86.86,0,0,1,.28.55c0,.38,0,1.12,0,1.77,0,.35,0,.44-.16.48a1.67,1.67,0,0,1-.4.08.51.51,0,0,0,0,.39c.25,0,.55,0,1,0s.89,0,1,0a.61.61,0,0,0,0-.38Zm2.42-3.34c-.46,0-.75.36-.75.92s.25,1.23,1,1.23a.68.68,0,0,0,.46-.18,1.16,1.16,0,0,0,.28-.81c0-.73-.36-1.16-1-1.16Zm-.06,3.87a.75.75,0,0,0-.38.1c-.37.24-.53.46-.53.74a.77.77,0,0,0,.31.63,1.56,1.56,0,0,0,1.05.32c.89,0,1.29-.48,1.29-1a.67.67,0,0,0-.51-.67,3.54,3.54,0,0,0-1.23-.16ZM31.55,52a1.94,1.94,0,0,1-1.25-.37,1.15,1.15,0,0,1-.46-.87.67.67,0,0,1,.18-.44,4.64,4.64,0,0,1,.81-.65s0,0,0,0a.06.06,0,0,0,0,0,.83.83,0,0,1-.57-.55v0c0-.05,0-.11.05-.16l.25-.16a3.6,3.6,0,0,0,.4-.26.06.06,0,0,0,0-.05.06.06,0,0,0,0,0A1.28,1.28,0,0,1,30,47a1.33,1.33,0,0,1,.56-1.1,2.57,2.57,0,0,1,1.26-.43h0a2.68,2.68,0,0,1,1,.21,1.62,1.62,0,0,0,.57.09.76.76,0,0,0,.61-.23.48.48,0,0,1,0,.18.66.66,0,0,1-.11.4.5.5,0,0,1-.39.17h0l-.23,0,0,0s0,0,0,.06v0a3.23,3.23,0,0,1,.05.38A1.42,1.42,0,0,1,32.7,48a2,2,0,0,1-1,.39h-.25c-.07,0-.25.11-.25.25s.08.29.46.32l.25,0a7.67,7.67,0,0,1,1.41.18,1,1,0,0,1,.66.94,1.92,1.92,0,0,1-1.23,1.63,2.82,2.82,0,0,1-1.16.25Zm5-6.1a.81.81,0,0,0-.47.13,1.35,1.35,0,0,0-.52,1.24c0,1.15.58,2,1.4,2a.89.89,0,0,0,.6-.21,1.56,1.56,0,0,0,.39-1.22c0-1.14-.57-1.9-1.4-1.9Zm.16,3.75a1.93,1.93,0,0,1-2-2.12,1.9,1.9,0,0,1,.87-1.66,2.64,2.64,0,0,1,1.34-.39,1.88,1.88,0,0,1,1.93,2,2,2,0,0,1-.92,1.81,2.43,2.43,0,0,1-1.2.38h0ZM21.1,45.86a.81.81,0,0,0-.47.13,1.35,1.35,0,0,0-.52,1.24c0,1.15.58,2,1.4,2a.89.89,0,0,0,.6-.21,1.56,1.56,0,0,0,.39-1.22c0-1.14-.56-1.9-1.4-1.9Zm.16,3.75a1.93,1.93,0,0,1-2-2.12,1.9,1.9,0,0,1,.87-1.66,2.64,2.64,0,0,1,1.34-.39,1.88,1.88,0,0,1,1.93,2,2,2,0,0,1-.92,1.81,2.37,2.37,0,0,1-1.2.38Zm-10-.09a.37.37,0,0,1,0-.2.3.3,0,0,1,0-.13,3.23,3.23,0,0,0,.39-.08c.18,0,.25-.14.25-.36,0-.53,0-1.52,0-2.21v0a.27.27,0,0,0-.1-.25,2,2,0,0,0-.53-.23c-.08,0-.13-.07-.12-.12s.05-.11.17-.13a6.41,6.41,0,0,0,1.34-.34.22.22,0,0,1,0,.14v.1c0,.1,0,.21,0,.32a.07.07,0,0,0,.07.06l.05,0a2.47,2.47,0,0,1,1.33-.6,1.13,1.13,0,0,1,1,.62.07.07,0,0,0,.06,0,.06.06,0,0,0,.05,0,2.66,2.66,0,0,1,1.37-.63c.81,0,1.3.6,1.3,1.63,0,.29,0,.67,0,1s0,.59,0,.79a.28.28,0,0,0,.16.21,1.87,1.87,0,0,0,.51.12h0a.7.7,0,0,1-.05.33h-.22l-.67,0c-.54,0-.82,0-1.09,0a.85.85,0,0,1,0-.33,2.72,2.72,0,0,0,.33-.08c.18-.05.22-.13.23-.36s0-1.58,0-1.93a.86.86,0,0,0-.89-.76,1.55,1.55,0,0,0-.89.34.16.16,0,0,0,0,.09h0a4,4,0,0,1,0,.72v.57c0,.39,0,.76,0,1a.26.26,0,0,0,.21.27l.13,0,.28.06a.47.47,0,0,1,0,.25.17.17,0,0,1,0,.09l-1.05,0H13.9a.46.46,0,0,1,0-.18.27.27,0,0,1,0-.16l.12,0,.28-.05c.15,0,.2-.12.21-.32a15.19,15.19,0,0,0,0-2,.82.82,0,0,0-.86-.76,1.61,1.61,0,0,0-.89.34.28.28,0,0,0-.08.2v.52c0,.63,0,1.42,0,1.76a.27.27,0,0,0,.25.27l.2,0,.16,0a.73.73,0,0,1,0,.33H13l-.68,0-.7,0a2.11,2.11,0,0,0-.32,0Z"/><path class="cls-5" d="M32.21,42.1l-.83-.28s.1-4.22-1.41-4.52c-1-1.17.16-49.62,3.79-.16a3,3,0,0,0-1.47,1.69,15.56,15.56,0,0,0-.08,3.27Z"/><path class="cls-6" d="M32.21,42.1l-.83-.28s.1-4.22-1.41-4.52c-1-1.17.16-49.62,3.79-.16a3,3,0,0,0-1.47,1.69,15.56,15.56,0,0,0-.08,3.27Z"/><path class="cls-5" d="M32.65,38A14.65,14.65,0,0,0,38.2,23.36c-1.63-7.2-5.49-9.56-5.91-10.47a10.18,10.18,0,0,1-.91-1.77l.3,20s-.63,6.13,1,6.88"/><path class="cls-7" d="M32.65,38A14.65,14.65,0,0,0,38.2,23.36c-1.63-7.2-5.49-9.56-5.91-10.47a10.18,10.18,0,0,1-.91-1.77l.3,20s-.63,6.13,1,6.88"/><path class="cls-5" d="M31,38.29s-6.8-4.64-6.39-12.81,5.18-12.18,6.11-12.91A1.88,1.88,0,0,0,31.34,11c.42.91.34,13.57.4,15.07C31.92,31.85,31.42,37.2,31,38.29Z"/><path class="cls-8" d="M31,38.29s-6.8-4.64-6.39-12.81,5.18-12.18,6.11-12.91A1.88,1.88,0,0,0,31.34,11c.42.91.34,13.57.4,15.07C31.92,31.85,31.42,37.2,31,38.29Z"/></g></g></svg>