<svg xmlns="http://www.w3.org/2000/svg" xmlns:xlink="http://www.w3.org/1999/xlink" viewBox="0 0 63 63"><defs><style>.cls-1{fill:#ffe9e9;}.cls-2{fill:url(#linear-gradient);}.cls-3{fill:url(#linear-gradient-2);}.cls-4{fill:url(#radial-gradient);}.cls-5{fill:#231f1f;}</style><linearGradient id="linear-gradient" x1="-8511.23" y1="-6611.02" x2="-8496.2" y2="-6619.9" gradientTransform="translate(1039.55 820.61) scale(0.12)" gradientUnits="userSpaceOnUse"><stop offset="0" stop-color="#909ca9"/><stop offset="1" stop-color="#ededee"/></linearGradient><linearGradient id="linear-gradient-2" x1="-8510.89" y1="-6778.32" x2="-8498.8" y2="-6778.32" gradientTransform="translate(1039.55 820.61) scale(0.12)" gradientUnits="userSpaceOnUse"><stop offset="0" stop-color="#939fab"/><stop offset="1" stop-color="#dcdee1"/></linearGradient><radialGradient id="radial-gradient" cx="-6008.03" cy="-7361.74" r="16.05" gradientTransform="matrix(-0.11, -0.02, 0.03, -0.23, -393.8, -1759.35)" gradientUnits="userSpaceOnUse"><stop offset="0" stop-color="#ee352c"/><stop offset="1" stop-color="#a91d22"/></radialGradient></defs><title>MsSQL</title><g id="Layer_2" data-name="Layer 2"><g id="Layer_1-2" data-name="Layer 1"><rect class="cls-1" width="63" height="63" rx="10" ry="10"/><path class="cls-2" d="M39.45,24.94l-4.93,1.61-4.29,1.89-1.2.32c-.31.29-.63.59-1,.88s-.73.63-1,.84a7.51,7.51,0,0,0-1,1,4.4,4.4,0,0,0-.72,1.22,2.05,2.05,0,0,0,.29,1.85,6.54,6.54,0,0,0,2.7,2,17.13,17.13,0,0,0,2.37.79,31.4,31.4,0,0,0,5.06.72,5.8,5.8,0,0,0,.65,0,8.88,8.88,0,0,0,.48-.91,23.09,23.09,0,0,0,1.75-4.63,21.93,21.93,0,0,0,.45-3.21c0-.36,0-1.57,0-2a13.93,13.93,0,0,0-.19-1.75.4.4,0,0,1,0-.15l.67-.2-.12-.29h0Zm-1.13.66a12.08,12.08,0,0,1,.19,1.87,1,1,0,0,1,0,.25s-.63-.35-1.06-.62-1.08-.7-1.19-.79,0,0,.27-.13C37.05,26,38.28,25.6,38.32,25.6Zm-2.51.83a1.24,1.24,0,0,1,.32.18,23.11,23.11,0,0,0,2.26,1.26c.14.06.15,0-.16.25a16.25,16.25,0,0,1-2.56,1.38l-.34.15a1,1,0,0,1,0-.21,11,11,0,0,0,.4-2.62c0-.37,0-.37,0-.38s0,0,0,0Zm-.52.2a8,8,0,0,1,0,1.08,9.49,9.49,0,0,1-.34,1.62,2.49,2.49,0,0,1-.09.26,6.56,6.56,0,0,1-.69-.67,5,5,0,0,1-.69-1,3.14,3.14,0,0,1-.21-.51c.06,0,2-.8,2-.79Zm-2.44,1h0a.7.7,0,0,1,.06.13,5,5,0,0,0,.62,1.11,6.31,6.31,0,0,0,.86.93l.18.16s0,0-.58.25-1.47.54-2.35.82l-.63.21s0,0,.07-.16a21,21,0,0,0,1.47-3l.14-.37a.13.13,0,0,1,.08-.1h.06Zm-.75.31a8.34,8.34,0,0,1-.37.77c-.36.7-.76,1.4-1.29,2.24l-.19.29s0,0-.09-.1a3.42,3.42,0,0,1-.29-.87,3.48,3.48,0,0,1,0-1.11c0-.23,0-.23.16-.28.48-.24,2-1,2-1Zm6.43.26v.16a20.28,20.28,0,0,1-.22,2.8c0,.15,0,.26,0,.27L38,31.32a9.62,9.62,0,0,1-1.72-.73,7.59,7.59,0,0,1-.87-.54l.34-.18a22,22,0,0,0,2-1.2c.23-.15.57-.4.65-.47l.06,0Zm-9.25,1.1s0,0,0,.16,0,.28,0,.4a2.76,2.76,0,0,0,.33,1.5,3.1,3.1,0,0,1,.13.28s-2.49.75-3.27,1l-.45.12s0,0,0-.06A3.92,3.92,0,0,1,27,30.76a4.82,4.82,0,0,1,1.23-.94l1-.56h0Zm5.82,1,.2.11a11.23,11.23,0,0,0,2.86,1.11l.09,0-.12.07c-.5.28-2.13,1-3.79,1.58l-.53.2-.09,0,.15-.29a18.4,18.4,0,0,0,1.17-2.67l.05-.14Zm-.59.19a1.07,1.07,0,0,1-.06.17,23.61,23.61,0,0,1-1.29,2.61l-.26.44-.25-.15a7.67,7.67,0,0,1-1.95-1.66l-.07-.08.34-.09a24.35,24.35,0,0,0,3.27-1.13Zm3.68,1.29h0c0,.09-.19.85-.34,1.41s-.24.83-.45,1.48c-.09.28-.17.52-.17.52h0a15.58,15.58,0,0,1-3-.85c-.26-.1-.63-.27-.66-.29a4.35,4.35,0,0,1,.5-.23c1.7-.74,3.46-1.58,4.06-1.95a.49.49,0,0,1,.14-.07Zm-8.5.29s-.47.69-1.13,1.62l-.6.85-.34.5-.16.24-.17-.14a6.21,6.21,0,0,1-.69-.71,3.06,3.06,0,0,1-.62-1.2c0-.18,0-.27,0-.28l2-.47,1.33-.31.4-.09Zm.48.18.12.13A7,7,0,0,0,32,33.82a1,1,0,0,1,.2.13l-3.36,1.19-1.08.38-.07,0-.07,0,.11-.16c.35-.51.79-1.06,1.75-2.22l.66-.79Zm3,2.13.37.13a11.93,11.93,0,0,0,1.38.43A15.31,15.31,0,0,0,37,35.3c.08,0,.13,0,.11,0l-1,.32c-.64.2-2.6.78-4.19,1.24l-.56.16a.3.3,0,0,1-.16,0l.2-.25a22.13,22.13,0,0,0,1.51-2l.23-.34Zm-.66,0s-.26.43-.72,1.16l-.5.78-.25.41-.11.19h-.06c-.13,0-1.08-.37-1.33-.47a9.23,9.23,0,0,1-.87-.4,3.63,3.63,0,0,1-.64-.41l1.13-.31c1.63-.44,2.54-.7,3.13-.89l.21-.06Zm4.64,1.09h0s-.59,1.72-.81,2.24c0,.12-.07.15-.09.15l-1.47-.21c-.93-.14-2.49-.41-2.88-.5l-.09,0,.56-.13c1.19-.27,1.77-.41,2.35-.59a16.6,16.6,0,0,0,2.2-.85l.24-.1Z"/><path class="cls-3" d="M34.36,13.44a23.7,23.7,0,0,0-2.26.81,14.11,14.11,0,0,0-2.6,1.3,2,2,0,0,0-.5.5.35.35,0,0,0,0,.13l.5.47,1.19.38,2.83.51,3.24.56,0-.28h0l-.43-.07-.09-.15c-.44-.78-.92-1.74-1.21-2.39a12.33,12.33,0,0,1-.54-1.5c-.06-.25-.07-.27-.11-.27h0Zm-.06.19h0s0,.11,0,.23a7.79,7.79,0,0,0,.36,1.57c.14.41.14.39,0,.34-.38-.1-2.08-.4-3.32-.57L31,15.15s.89-.49,1.29-.67,1.91-.82,2-.84ZM30.71,15.3l.15,0a22.22,22.22,0,0,0,3.87.74l.23,0-.23.12c-.53.26-1.11.59-1.51.84l-.24.13-.18,0-.15,0-.37-.37L30.9,15.48Zm-.15.12.53.66.64.79.11.15s-.76-.13-1.16-.22-.57-.14-.82-.22l-.21-.07v-.05c0-.25.32-.62.86-1l0,0Zm4.47.89s0,0,.08.13c.13.28.52,1,.62,1.18s.08.05-.44,0l-1.67-.28.09-.06a7.28,7.28,0,0,0,1.14-.79l.18-.15h0Z"/><path class="cls-4" d="M29,16a.37.37,0,0,0,0,.32,1.47,1.47,0,0,0,.35.41S31,18.37,31.24,18.6a5.18,5.18,0,0,1,1.35,3.54A5.74,5.74,0,0,1,32,24.82a17.41,17.41,0,0,1-4.94,5.63l.37-.12a11.85,11.85,0,0,1,1.32-.79,47.18,47.18,0,0,1,6.16-2.76,76.77,76.77,0,0,1,12.49-3.35l.34-.05-.05-.08a11.49,11.49,0,0,0-.75-1.06,9,9,0,0,0-2.65-2.2,19.63,19.63,0,0,0-5.75-1.93c-.45-.09-1.44-.26-2.25-.38-1.71-.26-2.81-.45-4-.66-.44-.07-1.09-.19-1.52-.28a9.66,9.66,0,0,1-1-.26c-.27-.1-.66-.21-.74-.53Zm1,.93.14,0,.54.16.49.13.41.11s.4,1.23.53,1.69c0,.18.09.32.08.32a.75.75,0,0,1-.09-.15,7.76,7.76,0,0,0-1.92-2.17L30,16.95Zm1.83.51.2,0c.63.14,1.77.36,2.5.48l.22,0-.1.06c-.12.06-.62.36-.78.47a7.14,7.14,0,0,0-1.06.84l-.2.2s0-.06,0-.14a12.08,12.08,0,0,0-.67-1.83l-.07-.17h0Zm3.23.62a1.43,1.43,0,0,1,.13.41,6.1,6.1,0,0,1,.18,1.71c0,.16,0,.3,0,.32v0l-.19-.06L33.54,20,33,19.84a8.81,8.81,0,0,1,.66-.66,17.3,17.3,0,0,1,1.43-1.11Zm.26,0s1.54.25,2.24.39l1.32.28s-.06.05-.31.16a16.18,16.18,0,0,0-2.44,1.33l-.35.23a2,2,0,0,1,0-.24,5.21,5.21,0,0,0-.4-2A.56.56,0,0,1,35.31,18.1Zm4,.78a2.8,2.8,0,0,1-.08.49,9.35,9.35,0,0,1-.94,2.16,2.46,2.46,0,0,1-.16.25l-.22-.12A12.14,12.14,0,0,0,36.41,21l-.28-.12s1.17-.82,1.81-1.2,1.32-.76,1.34-.75Zm.28,0,1.07.29a22,22,0,0,1,2.54.93l.27.12-.19,0a27.79,27.79,0,0,0-4.3,1.33l-.21.08a1,1,0,0,1,.08-.19,7.55,7.55,0,0,0,.72-2.48c0-.07,0-.13,0-.13ZM32.8,20.48s.53.11.81.19,1.33.42,1.33.44l-.22.19c-.49.41-1,.84-1.52,1.38l-.32.29s0,0,0-.05a8.41,8.41,0,0,0-.05-2.25C32.81,20.58,32.8,20.49,32.8,20.48Zm10.89,0a7.16,7.16,0,0,1-.4.62c-.22.32-.55.75-1.29,1.68L41,24l-.28.34-.1-.15a7.7,7.7,0,0,0-1.51-1.67l-.28-.22-.07-.06s.63-.28,1.11-.48c.84-.34,2-.75,2.85-1,.45-.14.93-.28.94-.27Zm.29.07a.86.86,0,0,1,.21.1,12.65,12.65,0,0,1,2.49,1.87c.2.19.69.7.68.7l-.37,0a36.75,36.75,0,0,0-5.51.92l-.25.06.32-.32a9.54,9.54,0,0,0,2.26-3l.17-.35h0Zm-8.3.85c.05,0,.54.24.9.42s.84.44.87.46l-.4.21c-.7.35-1.3.68-1.93,1.06l-.33.2s0,0,.09-.2a7.79,7.79,0,0,0,.76-2.05c0-.06,0-.09,0-.09Zm-.48.09a7.12,7.12,0,0,1-.19.72,9.18,9.18,0,0,1-.66,1.51l-.2.34-.09.15-.21-.2a2.74,2.74,0,0,0-.69-.51l-.18-.1s.64-.61,1.13-1,1.09-.89,1.1-.88Zm3,1.22.18.12a14.18,14.18,0,0,1,1.29,1c.21.18.62.54.7.63l0,0-.3.09c-1.71.47-3,.89-4.57,1.46l-.33.12s0,0,.34-.34A16.37,16.37,0,0,0,38,22.93l.13-.2Zm-.78.19s-.5.73-.81,1.13-1,1.3-1.46,1.83l-.35.41s0-.05,0-.14a3.12,3.12,0,0,0-.32-1.34c-.09-.17-.1-.21-.08-.23s1.16-.68,1.84-1.05c.46-.25,1.19-.61,1.2-.6Zm-4.71,1.16.19.1a4.09,4.09,0,0,1,.64.43,1.11,1.11,0,0,1-.22.18c-.35.25-.89.66-1.2.91s-.34.27-.3.21a6.4,6.4,0,0,0,.81-1.64.63.63,0,0,1,.07-.19Zm1.26,1s0,0,.14.18a2.69,2.69,0,0,1,.42,1.08v.07l-.51.2c-.91.35-1.76.7-2.33,1l-.62.3-.33.16.26-.19a15,15,0,0,0,2.8-2.58l.16-.18h0Zm-.58.14a7.88,7.88,0,0,1-.7.79,12.37,12.37,0,0,1-2.32,1.87L30.1,28s0,0,.4-.44c.25-.26.43-.49.65-.76a1.26,1.26,0,0,1,.37-.35C32.06,26,33.33,25.19,33.34,25.2Z"/><path class="cls-5" d="M17.2,40.64H17a3.07,3.07,0,0,0-2.87,1.88,5,5,0,0,0,0,3.58,3.1,3.1,0,0,0,2.61,1.83c.28,0,.47.2,1,.83l.67.78h1.21l-.81-.81a8.61,8.61,0,0,1-.81-.87s.17-.11.38-.17A2.77,2.77,0,0,0,20,46.17a3.23,3.23,0,0,0,.41-1.65c.12-2.39-1.14-3.89-3.25-3.88h0Zm1.06,6.26a2.85,2.85,0,0,1-2,.14,2.59,2.59,0,0,1-1.39-1.49,4.24,4.24,0,0,1,.08-2.73,2.31,2.31,0,0,1,2.19-1.44c1.47,0,2.31.9,2.42,2.6a2.82,2.82,0,0,1-1.3,2.92ZM39.2,42.69A1.3,1.3,0,0,0,38,43.3l-.21.32v-.83H37v5h.88v-1.6c0-1.46,0-1.63.22-2a1.1,1.1,0,0,1,1.24-.69l.31.09v-.87H39.2Zm-5.17,0a2.85,2.85,0,0,0-1.68,4.62,2.72,2.72,0,0,0,3,.43l.42-.18v-.79l-.42.22a2,2,0,0,1-2.23-.07,2.25,2.25,0,0,1-.6-1.33h3.55v-.68a2,2,0,0,0-2-2.22h0Zm-1.44,2.2a2.05,2.05,0,0,1,.62-1.2A1.33,1.33,0,0,1,34,43.4a1.22,1.22,0,0,1,.74.25,2,2,0,0,1,.52,1.18H32.6Zm-21.22-.9c-1-.58-1.38-1-1.33-1.49.15-1.36,1.83-1.17,2.76-.66v-.91a3.59,3.59,0,0,0-1.25-.23,2.12,2.12,0,0,0-2.2,1.11c-.5,1.11-.06,2,1.55,2.89.9.53,1.3,1,1.3,1.48,0,1-1.24,1.39-2.52.74l-.5-.24a7.9,7.9,0,0,0,0,1,5.47,5.47,0,0,0,1,.28c1.46.29,2.79-.39,2.92-1.51s-.27-1.59-1.7-2.45h0ZM47,42.63a2.66,2.66,0,0,0-.54.06,2.93,2.93,0,0,0-1.14,4.55,2.73,2.73,0,0,0,3,.43l.42-.18v-.79l-.42.22a2,2,0,0,1-2.23-.07,2.23,2.23,0,0,1-.6-1.33H49v-.67a2,2,0,0,0-2-2.22h0Zm-1.44,2.2a2.08,2.08,0,0,1,.62-1.2,1.32,1.32,0,0,1,.76-.25,1.22,1.22,0,0,1,.74.25,2,2,0,0,1,.52,1.19H45.55Zm-16.13-.88c-1-.58-1.38-1-1.32-1.49.15-1.36,1.83-1.17,2.76-.66v-.91a3.57,3.57,0,0,0-1.25-.23,2.12,2.12,0,0,0-2.21,1.11c-.5,1.11-.05,2,1.55,2.89.9.53,1.3,1,1.3,1.47,0,1-1.24,1.39-2.52.74l-.5-.24a7.9,7.9,0,0,0,0,1,6,6,0,0,0,1,.28c1.46.29,2.8-.39,2.92-1.51s-.27-1.59-1.7-2.45h0Zm22.74-1.27a1.29,1.29,0,0,0-1.16.61l-.21.32v-.83h-.88v5h.88v-1.6c0-1.46,0-1.63.22-2a1.1,1.1,0,0,1,1.24-.69l.31.09v-.87h-.41ZM22.43,43.92V40.73h-.89v7.06h3.73V47H22.43v-3Zm20.52,1-.73,1.9-.7-1.91-.71-2.12h-.91c.59,1.67,1.23,3.37,1.87,5h.84l1-2.48,1-2.53h-.87s-.38,1-.78,2.13h0ZM24.47,38.8a.49.49,0,0,0,.36-.14.48.48,0,0,0,.15-.35.47.47,0,0,0-.15-.35.49.49,0,0,0-.35-.14.49.49,0,0,0-.36.14.48.48,0,0,0-.14.35.46.46,0,0,0,.14.35.48.48,0,0,0,.35.14h0ZM24.16,38a.45.45,0,0,1,.77.31.44.44,0,0,1-.13.32.43.43,0,0,1-.31.13.42.42,0,0,1-.31-.13.44.44,0,0,1-.13-.32A.42.42,0,0,1,24.16,38Zm.21.36h.06s.08,0,.11.11l.07.15h.11l-.09-.17c0-.07-.07-.11-.11-.12a.21.21,0,0,0,.12-.06.16.16,0,0,0,0-.11.15.15,0,0,0-.05-.12.29.29,0,0,0-.18-.05h-.18v.64h.09v-.27h0Zm0-.3h.08a.2.2,0,0,1,.12,0s0,0,0,.08,0,.11-.13.11h-.1v-.22h0Zm-14.66.24c0-.22,0-.39,0-.49h0a1.46,1.46,0,0,0,.07.26l.85,1.9h.14L11.63,38a1.73,1.73,0,0,0,.07-.24h0c0,.19,0,.36,0,.49V40H12v-2.5h-.37l-.78,1.74-.12.31h0a2,2,0,0,0-.11-.3l-.77-1.75H9.43V40h.28V38.3h0Zm2.9,0h.25v1.55h-.25Zm.13-.57a.18.18,0,0,0,.13-.05.18.18,0,0,0,.06-.13.16.16,0,0,0-.06-.13.18.18,0,0,0-.13-.05.18.18,0,0,0-.13.05.18.18,0,0,0-.06.13.16.16,0,0,0,.06.13.19.19,0,0,0,.13.05h0Zm1.92,2.16v-.27a.72.72,0,0,1-.44.15.57.57,0,0,1-.44-.18.71.71,0,0,1-.17-.49.74.74,0,0,1,.18-.52.58.58,0,0,1,.45-.19.73.73,0,0,1,.42.14v-.29a.87.87,0,0,0-.41-.09.88.88,0,0,0-.67.27,1,1,0,0,0-.25.71.91.91,0,0,0,.23.64.81.81,0,0,0,.62.26,1,1,0,0,0,.49-.13Zm.72-.83a.81.81,0,0,1,.13-.48.36.36,0,0,1,.29-.15.33.33,0,0,1,.22.06v-.3a.45.45,0,0,0-.17,0,.43.43,0,0,0-.28.1.6.6,0,0,0-.19.3h0v-.37h-.29V40h.29v-.91ZM17,40a.84.84,0,0,0,.65-.26,1.12,1.12,0,0,0,0-1.37.79.79,0,0,0-.62-.25.89.89,0,0,0-.65.23,1,1,0,0,0-.26.72.93.93,0,0,0,.23.66A.83.83,0,0,0,17,40h0Zm-.41-1.45a.56.56,0,0,1,.43-.17.53.53,0,0,1,.42.17,1,1,0,0,1,0,1,.52.52,0,0,1-.43.18.56.56,0,0,1-.43-.18.72.72,0,0,1-.16-.5.7.7,0,0,1,.16-.52Zm2.54,1.3a.47.47,0,0,0,.17-.37.45.45,0,0,0-.13-.33,1,1,0,0,0-.33-.19,1,1,0,0,1-.27-.15.24.24,0,0,1-.07-.18.22.22,0,0,1,.09-.18.35.35,0,0,1,.23-.07.67.67,0,0,1,.41.13v-.29a.84.84,0,0,0-.38-.09.68.68,0,0,0-.45.15.49.49,0,0,0-.06.69.92.92,0,0,0,.32.2,1.2,1.2,0,0,1,.29.17.22.22,0,0,1,.07.17c0,.17-.11.25-.34.25a.71.71,0,0,1-.46-.17v.31a.84.84,0,0,0,.44.11.78.78,0,0,0,.49-.17h0Zm1.36-1.71a.89.89,0,0,0-.65.23,1,1,0,0,0-.26.72.93.93,0,0,0,.23.66.93.93,0,0,0,1.29,0,1,1,0,0,0,.24-.69,1,1,0,0,0-.22-.68.81.81,0,0,0-.62-.25h0Zm.55.94a.77.77,0,0,1-.14.5.52.52,0,0,1-.43.18.56.56,0,0,1-.43-.18.72.72,0,0,1-.16-.5.73.73,0,0,1,.17-.53.56.56,0,0,1,.43-.17.54.54,0,0,1,.42.17.87.87,0,0,1,.14.53h0Zm.77.89h.29V38.43h.42v-.24h-.42v-.28c0-.25.1-.38.3-.38a.39.39,0,0,1,.19,0v-.26a.52.52,0,0,0-.21,0,.53.53,0,0,0-.38.14.6.6,0,0,0-.18.46v.29h-.3v.24h.3V40ZM23,39.48c0,.35.15.53.47.53a.52.52,0,0,0,.27-.06V39.7a.3.3,0,0,1-.18.06.24.24,0,0,1-.21-.07.42.42,0,0,1-.06-.26v-1h.45v-.24H23.3v-.53l-.29.09v.43H22.7v.24H23v1.06Zm30.67,3.29a.49.49,0,0,0-.35-.14.49.49,0,0,0-.5.5.47.47,0,0,0,.14.35.5.5,0,0,0,.36.14.49.49,0,0,0,.36-.14.48.48,0,0,0,.15-.35.5.5,0,0,0-.15-.36Zm0,.67a.46.46,0,0,1-.63,0,.44.44,0,0,1-.13-.32.43.43,0,0,1,.45-.44.43.43,0,0,1,.31.12.43.43,0,0,1,.13.31A.41.41,0,0,1,53.63,43.44Zm-.26-.29a.25.25,0,0,0,.12-.06.16.16,0,0,0,0-.12.15.15,0,0,0-.05-.12.29.29,0,0,0-.18-.05h-.18v.64h.09v-.27h.06s.08,0,.11.11l.07.15h.11l-.09-.17c0-.07-.06-.11-.1-.12h0Zm-.06-.06h-.1v-.22h.08a.2.2,0,0,1,.12,0s0,0,0,.08,0,.11-.13.11h0Zm-15.94-5h.08v-.64h.21v-.08h-.5v.08h.21v.64Zm.48-.48a1.15,1.15,0,0,0,0-.14.4.4,0,0,0,0,.07l.25.55h0l.25-.55,0-.07c0,.06,0,.1,0,.14v.48h.09v-.72h-.1l-.22.5,0,.09h0a.52.52,0,0,0,0-.09l-.22-.5h-.12v.72h.08v-.48h0Z"/></g></g></svg>