<svg xmlns="http://www.w3.org/2000/svg" viewBox="0 0 63 63"><defs><style>.cls-1{fill:#fff5eb;}.cls-2{fill:none;}.cls-3{fill:#5d87a1;}.cls-4{fill:#f8981d;}</style></defs><title>MySQL</title><g id="Layer_2" data-name="Layer 2"><g id="Layer_1-2" data-name="Layer 1"><rect class="cls-1" width="63" height="63" rx="10" ry="10"/><path class="cls-2" d="M.16,9.7H62.84a.11.11,0,0,1,.11.11V53.19a.11.11,0,0,1-.11.11H.16a.11.11,0,0,1-.11-.11V9.81A.11.11,0,0,1,.16,9.7Z"/><path class="cls-3" d="M19.31,44.91h-1.6a.11.11,0,0,1-.11-.1q-.09-4.25-.49-8h0l-2.57,8a.11.11,0,0,1-.1.07H13.28a.11.11,0,0,1-.1-.07l-2.55-8h0q-.28,3.6-.36,8a.11.11,0,0,1-.11.1H8.81a.11.11,0,0,1-.11-.11q.15-5.31.74-10a.11.11,0,0,1,.11-.09h1.94a.11.11,0,0,1,.1.07L14,42.21h0l2.45-7.4a.11.11,0,0,1,.1-.07h1.85a.11.11,0,0,1,.11.09q.65,5.51.77,10.08m7.38-7.51q-1,5.64-2.74,8.2a3.65,3.65,0,0,1-2.91,2,2.75,2.75,0,0,1-1-.23.11.11,0,0,1-.07-.1v-.72a.11.11,0,0,1,.12-.11,5.31,5.31,0,0,0,.59,0,1.71,1.71,0,0,0,1.19-.41,1.49,1.49,0,0,0,.54-1.11A7.42,7.42,0,0,0,22,43.21l-1.82-5.66a.11.11,0,0,1,.1-.14h1.45a.11.11,0,0,1,.1.07l1.32,4.27a9.7,9.7,0,0,1,.36,1.52.11.11,0,0,0,.21,0,28.69,28.69,0,0,0,1.34-5.79.11.11,0,0,1,.1-.09h1.52Z"/><path class="cls-4" d="M49.25,44.91H44.62a.11.11,0,0,1-.11-.11v-10a.11.11,0,0,1,.11-.11H46a.11.11,0,0,1,.11.11v8.71a.11.11,0,0,0,.11.11h3a.11.11,0,0,1,.11.11v1A.11.11,0,0,1,49.25,44.91Zm-6.1.2-1.62-.8a.11.11,0,0,1,0-.17,3.23,3.23,0,0,0,.35-.35A6.25,6.25,0,0,0,43,39.64q0-5-4-5a3.75,3.75,0,0,0-3,1.28A6.23,6.23,0,0,0,34.86,40a6,6,0,0,0,1.05,3.93,3.61,3.61,0,0,0,2.91,1.13,4.72,4.72,0,0,0,1.29-.17.1.1,0,0,1,.08,0l2.3,1.34a.11.11,0,0,0,.14,0l.55-1A.11.11,0,0,0,43.15,45.11Zm-6-2.23a6.27,6.27,0,0,1-.62-3.19q0-3.84,2.34-3.84a2,2,0,0,1,1.79.92,6.21,6.21,0,0,1,.62,3.16q0,3.87-2.34,3.87a2,2,0,0,1-1.79-.92m-3-.78a2.7,2.7,0,0,1-.95,2.12,3.74,3.74,0,0,1-2.55.83,5.06,5.06,0,0,1-2.81-.9.11.11,0,0,1,0-.14l.35-.7a.11.11,0,0,1,.14,0,4.85,4.85,0,0,0,2.09.56,2.29,2.29,0,0,0,1.44-.41,1.38,1.38,0,0,0,.55-1.13c0-.6-.42-1.12-1.19-1.55s-2-1.15-2.13-1.21h0a2.43,2.43,0,0,1-1.15-2.16,2.53,2.53,0,0,1,.87-2A3.26,3.26,0,0,1,31,34.6a4.64,4.64,0,0,1,2.5.7.11.11,0,0,1,0,.13l-.31.7a.11.11,0,0,1-.14.05,4.94,4.94,0,0,0-1.86-.38,1.74,1.74,0,0,0-1.2.38,1.26,1.26,0,0,0-.46,1c0,.6.43,1.12,1.22,1.57s2.09,1.17,2.18,1.22h0a2.4,2.4,0,0,1,1.18,2.15"/><path class="cls-3" d="M51.4,31.33a5.68,5.68,0,0,0-2.38.34c-.16.07-.41.07-.49.24a.11.11,0,0,0,0,.11c.07.1.09.24.17.36a2.86,2.86,0,0,0,.64.75c.26.2.52.39.79.56.48.3,1,.47,1.49.76.27.17.54.39.81.58s.22.26.39.32v0c-.08-.11-.11-.26-.19-.38l0,0-.35-.34h0A5.85,5.85,0,0,0,51,33.32c-.39-.27-1.25-.64-1.41-1.09l0,0a4.9,4.9,0,0,0,.85-.2c.42-.11.8-.09,1.23-.2l.59-.17v-.11c-.22-.22-.38-.52-.61-.72a16.37,16.37,0,0,0-2-1.51c-.38-.25-.87-.41-1.28-.61-.15-.07-.39-.11-.48-.23a5,5,0,0,1-.5-.95c-.36-.68-.7-1.43-1-2.14a13.29,13.29,0,0,0-.63-1.4,12.4,12.4,0,0,0-4.76-4.6,5.85,5.85,0,0,0-1.56-.5h0l-.89,0h0a6.08,6.08,0,0,1-.55-.42c-.7-.44-2.51-1.4-3-.14-.33.8.49,1.59.77,2a5.65,5.65,0,0,1,.63.92c.09.21.11.43.2.65a14.72,14.72,0,0,0,.64,1.65,5.87,5.87,0,0,0,.45.76c.09.13.25.19.3.38a.1.1,0,0,1,0,.08,4.25,4.25,0,0,0-.26.89,5.42,5.42,0,0,0,.36,4.13c.2.31.66,1,1.29.72s.43-.92.59-1.54c0-.15,0-.25.09-.34v0c.17.34.34.67.5,1h0A7,7,0,0,0,42,31.22c.29.22.53.6.9.74v0h0a1.32,1.32,0,0,0-.28-.24h0a6,6,0,0,1-.64-.73,15.83,15.83,0,0,1-1.38-2.24c-.2-.38-.37-.8-.53-1.18a3,3,0,0,1-.1-.3.11.11,0,0,0-.18,0,3.16,3.16,0,0,0-.51.72,7,7,0,0,0-.35,1.86l0,0c-.39-.1-.53-.5-.68-.85A5.32,5.32,0,0,1,38,25.66c.09-.26.46-1.07.31-1.31S38,24,37.9,23.79a5,5,0,0,1-.44-.79c-.29-.69-.44-1.45-.76-2.14a6.62,6.62,0,0,0-.61-.95,6.09,6.09,0,0,1-.68-1c-.06-.14-.15-.36,0-.5a.2.2,0,0,1,.17-.16c.16-.13.61,0,.77.11a6.23,6.23,0,0,1,1.22.61,2.36,2.36,0,0,0,.56.41h.29c.39.08.83,0,1.2.13a7.91,7.91,0,0,1,1.77.85,10.91,10.91,0,0,1,3.83,4.2c.15.28.21.54.34.84.26.6.58,1.22.84,1.81a8.1,8.1,0,0,0,.87,1.65c.18.26.92.39,1.25.53a8.67,8.67,0,0,1,.85.34c.42.26.83.55,1.23.84.2.15.81.45.85.7M38.86,20.65a1.91,1.91,0,0,0-.5.06v0h0a3.73,3.73,0,0,0,.39.5v0l.28.58,0,0a.67.67,0,0,0,.26-.58.11.11,0,0,0,0-.07c-.05-.08-.07-.15-.12-.23s-.23-.18-.33-.28"/><path class="cls-4" d="M52.57,44.91h.15a.11.11,0,0,0,.11-.11v-1a.11.11,0,0,0-.11-.11h-.2a.11.11,0,0,0-.1.07l-.19.52a.11.11,0,0,1-.2,0l-.21-.53a.11.11,0,0,0-.1-.07h-.19a.11.11,0,0,0-.11.11v1a.11.11,0,0,0,.11.11h0a.11.11,0,0,0,.11-.11V44h0l.33.88a.11.11,0,0,0,.1.07h0a.11.11,0,0,0,.1-.07l.12-.33a.11.11,0,0,1,.2,0v.36Zm-2.05,0h.16a.11.11,0,0,0,.11-.11V44a.11.11,0,0,1,.11-.11H51a.11.11,0,0,0,.11-.11h0a.11.11,0,0,0-.11-.11h-.78a.11.11,0,0,0-.11.11h0a.11.11,0,0,0,.11.11h.16a.11.11,0,0,1,.11.11v.93Z"/></g></g></svg>