<svg xmlns="http://www.w3.org/2000/svg" viewBox="0 0 63 63"><defs><style>.cls-1{fill:#e9fcff;}.cls-2{fill:#fafafa;}.cls-3{fill:#61dafb;}</style></defs><title>React Js</title><g id="Layer_2" data-name="Layer 2"><g id="Layer_1-2" data-name="Layer 1"><rect class="cls-1" width="63" height="63" rx="10" ry="10"/><circle class="cls-2" cx="27.18" cy="18.5" r="0.86"/><circle class="cls-2" cx="35.82" cy="18.5" r="0.86"/><path class="cls-3" d="M53.7,31.5c0-2.94-3.68-5.73-9.33-7.46,1.3-5.76.72-10.34-1.83-11.8a4,4,0,0,0-2-.51v2a2.1,2.1,0,0,1,1,.24c1.23.71,1.76,3.39,1.35,6.85-.1.85-.26,1.75-.46,2.66a43.86,43.86,0,0,0-5.75-1A44.15,44.15,0,0,0,32.92,18c3-2.74,5.72-4.24,7.6-4.24v-2h0c-2.49,0-5.75,1.77-9,4.85-3.29-3.06-6.55-4.81-9-4.81v2c1.87,0,4.65,1.49,7.6,4.22a42.75,42.75,0,0,0-3.74,4.52,42.26,42.26,0,0,0-5.76,1c-.21-.91-.36-1.78-.47-2.62-.43-3.46.1-6.15,1.32-6.86a2,2,0,0,1,1-.24v-2h0a4,4,0,0,0-2,.51c-2.54,1.47-3.11,6-1.8,11.77C13,25.79,9.3,28.57,9.3,31.5S13,37.23,18.63,39c-1.3,5.76-.72,10.34,1.83,11.8a4,4,0,0,0,2,.51c2.49,0,5.75-1.77,9-4.85,3.29,3.06,6.55,4.81,9,4.81a4,4,0,0,0,2-.51c2.54-1.47,3.11-6,1.8-11.77C50,37.22,53.7,34.44,53.7,31.5Zm-11.78-6c-.33,1.17-.75,2.37-1.22,3.57-.37-.72-.76-1.45-1.19-2.17s-.86-1.43-1.3-2.12C39.49,24.94,40.73,25.18,41.92,25.47Zm-4.15,9.64c-.71,1.22-1.43,2.38-2.18,3.46-1.35.12-2.72.18-4.09.18s-2.73-.06-4.07-.17Q26.3,37,25.24,35.13t-1.88-3.6c.56-1.21,1.19-2.43,1.87-3.61s1.43-2.38,2.18-3.46c1.35-.12,2.72-.18,4.09-.18s2.73.06,4.07.17q1.13,1.62,2.19,3.44t1.88,3.6C39.08,32.71,38.45,33.92,37.77,35.11Zm2.92-1.18c.49,1.21.91,2.43,1.25,3.6-1.19.29-2.43.53-3.73.72.44-.7.89-1.41,1.3-2.14S40.32,34.65,40.7,33.93Zm-9.18,9.66A37.31,37.31,0,0,1,29,40.69c.81,0,1.65.06,2.49.06s1.69,0,2.52-.06A35.33,35.33,0,0,1,31.52,43.59Zm-6.73-5.33c-1.29-.19-2.53-.43-3.71-.71.33-1.17.75-2.37,1.22-3.57.37.72.76,1.45,1.19,2.17S24.34,37.57,24.78,38.26Zm6.69-18.83A37.31,37.31,0,0,1,34,22.32c-.81,0-1.65-.06-2.49-.06s-1.69,0-2.52.06A35.33,35.33,0,0,1,31.47,19.42Zm-6.7,5.33c-.44.7-.89,1.41-1.3,2.14s-.81,1.45-1.18,2.17c-.49-1.21-.91-2.43-1.25-3.6C22.23,25.19,23.48,24.94,24.78,24.75ZM16.58,36.08c-3.2-1.37-5.28-3.16-5.28-4.58s2.07-3.22,5.28-4.58c.78-.33,1.63-.63,2.51-.91a43.47,43.47,0,0,0,2,5.51,42.86,42.86,0,0,0-2,5.48C18.22,36.73,17.37,36.42,16.58,36.08ZM21.45,49c-1.23-.71-1.76-3.39-1.35-6.85.1-.85.26-1.75.46-2.66a43.86,43.86,0,0,0,5.75,1A44.15,44.15,0,0,0,30.08,45c-3,2.74-5.72,4.24-7.6,4.24A2.16,2.16,0,0,1,21.45,49Zm21.47-6.9c.43,3.46-.1,6.15-1.32,6.86a2,2,0,0,1-1,.24c-1.87,0-4.65-1.49-7.6-4.22a42.75,42.75,0,0,0,3.74-4.52,42.26,42.26,0,0,0,5.76-1A25.34,25.34,0,0,1,42.92,42.12Zm3.48-6c-.78.33-1.63.63-2.51.91a43.47,43.47,0,0,0-2-5.51,42.86,42.86,0,0,0,2-5.48c.9.28,1.75.59,2.54.92,3.2,1.37,5.28,3.16,5.28,4.58S49.61,34.73,46.41,36.08Z"/><path class="cls-3" d="M22.43,11.77Z"/><circle class="cls-3" cx="31.49" cy="31.5" r="4.14"/><path class="cls-3" d="M40.51,11.74Z"/></g></g></svg>