<svg xmlns="http://www.w3.org/2000/svg" viewBox="0 0 63 63"><defs><style>.cls-1{fill:#f6ffe3;}.cls-2{fill:#95bf46;}.cls-3{fill:#5e8e3e;}.cls-4{fill:#fff;}</style></defs><title>Shopify</title><g id="Layer_2" data-name="Layer 2"><g id="Layer_1-2" data-name="Layer 1"><rect class="cls-1" width="63" height="63" rx="10" ry="10"/><path class="cls-2" d="M44.5,19.49a.38.38,0,0,0-.34-.32L41,18.94l-2.33-2.31a1,1,0,0,0-.86-.11l-1.17.36c-.7-2-1.94-3.87-4.12-3.87h-.18a2.65,2.65,0,0,0-2-1.17c-5.07,0-7.49,6.34-8.25,9.56l-3.55,1.1c-1.1.35-1.13.38-1.28,1.42-.11.78-3,23-3,23l22.43,4.2,12.15-2.63s-4.27-28.84-4.29-29Zm-9.11-2.23-1.9.59c0-.13,0-.27,0-.41A9.31,9.31,0,0,0,33,14.38C34.16,14.52,34.91,15.79,35.39,17.26Zm-3.74-2.64A9.41,9.41,0,0,1,32.16,18c0,.08,0,.15,0,.22l-3.92,1.21c.75-2.91,2.17-4.32,3.41-4.85ZM30.14,13.2a1.15,1.15,0,0,1,.65.22c-1.63.76-3.37,2.69-4.1,6.54l-3.1,1c.86-2.93,2.91-7.72,6.55-7.72Z"/><path class="cls-3" d="M44.15,19.18,41,18.94l-2.33-2.31a.58.58,0,0,0-.32-.15l-1.7,34.69,12.15-2.63s-4.27-28.84-4.29-29a.38.38,0,0,0-.34-.32"/><path class="cls-4" d="M32.51,25.89,31,30.35a6.89,6.89,0,0,0-2.92-.7c-2.36,0-2.48,1.48-2.48,1.85,0,2,5.31,2.82,5.31,7.58,0,3.75-2.38,6.17-5.59,6.17a7.77,7.77,0,0,1-5.82-2.4l1-3.41s2,1.74,3.73,1.74a1.51,1.51,0,0,0,1.57-1.52c0-2.66-4.35-2.77-4.35-7.14,0-3.67,2.64-7.23,8-7.23a6.55,6.55,0,0,1,3.06.59"/></g></g></svg>