<svg xmlns="http://www.w3.org/2000/svg" viewBox="0 0 63 63"><defs><style>.cls-1{fill:#ebf8ff;}.cls-2{fill:#fafafa;}.cls-3{fill:#007acc;}</style></defs><title>Typescript</title><g id="Layer_2" data-name="Layer 2"><g id="Layer_1-2" data-name="Layer 1"><rect class="cls-1" width="63" height="63" rx="10" ry="10"/><circle class="cls-2" cx="27.18" cy="18.5" r="0.86"/><circle class="cls-2" cx="35.82" cy="18.5" r="0.86"/><path class="cls-3" d="M13.19,31.5V49.81H49.81V13.19H13.19ZM42.7,30A4.56,4.56,0,0,1,45,31.35a6,6,0,0,1,.88,1.17s-1.58,1.12-2.55,1.71c0,0-.18-.13-.33-.36a2.08,2.08,0,0,0-1.72-1c-1.11-.08-1.83.51-1.82,1.47a1.34,1.34,0,0,0,.16.69c.24.51.7.81,2.12,1.42,2.62,1.13,3.74,1.87,4.44,2.93a5.32,5.32,0,0,1,.42,4.47,4.91,4.91,0,0,1-4.05,2.9,11.23,11.23,0,0,1-2.79,0A6.74,6.74,0,0,1,36,44.77a6.44,6.44,0,0,1-1-1.41,2.74,2.74,0,0,1,.34-.21l1.35-.77,1.05-.61.22.33a4.92,4.92,0,0,0,1.39,1.33A3.39,3.39,0,0,0,43,43.23a1.59,1.59,0,0,0,.2-2c-.29-.41-.88-.75-2.52-1.46a9.07,9.07,0,0,1-3.45-2.12,4.83,4.83,0,0,1-1-1.83,7.32,7.32,0,0,1-.06-2.34A4.45,4.45,0,0,1,39.92,30,9.28,9.28,0,0,1,42.7,30Zm-8.6,1.54v1.5H29.35V46.62H26V33.07H21.21V31.6a14.41,14.41,0,0,1,0-1.51s2.93,0,6.45,0h6.39Z"/></g></g></svg>