<svg xmlns="http://www.w3.org/2000/svg" viewBox="0 0 63 63"><defs><style>.cls-1{fill:#ebfbff;}.cls-2{fill:#00769d;}</style></defs><title>Wordpress</title><g id="Layer_2" data-name="Layer 2"><g id="Layer_1-2" data-name="Layer 1"><rect class="cls-1" width="63" height="63" rx="10" ry="10"/><path class="cls-2" d="M23.24,23.6H21l6.21,17.57,3.48-9.94L28,23.6h-2.4V21.93H36.2V23.6H33.71l6.21,17.57,2.23-6.38c2.93-8.18-2.4-10.73-2.4-12.55a3.3,3.3,0,0,1,3.3-3.3h.29a17.27,17.27,0,0,0-26.22,3h6.12V23.6Z"/><path class="cls-2" d="M14.23,31.5A17.26,17.26,0,0,0,23.4,46.75l-7.79-22A17.21,17.21,0,0,0,14.23,31.5Z"/><path class="cls-2" d="M46.53,23a12.21,12.21,0,0,1-.21,4.73h.07l-.26.75h0a16.09,16.09,0,0,1-.57,1.63L39.62,46.74A17.28,17.28,0,0,0,46.53,23Z"/><path class="cls-2" d="M26.17,47.93A17.35,17.35,0,0,0,36.59,48L31.54,33.73Z"/><path class="cls-2" d="M46.09,16.91a20.64,20.64,0,1,0,6,14.59A20.5,20.5,0,0,0,46.09,16.91ZM31.5,50.68A19.18,19.18,0,1,1,50.68,31.5,19.2,19.2,0,0,1,31.5,50.68Z"/></g></g></svg>