<svg xmlns="http://www.w3.org/2000/svg" viewBox="0 0 63 63"><defs><style>.cls-1{fill:#e9fcff;}.cls-2{fill:#fafafa;}.cls-3{fill:#3498db;}</style></defs><title>xamarin</title><g id="Layer_2" data-name="Layer 2"><g id="Layer_1-2" data-name="Layer 1"><rect class="cls-1" width="63" height="63" rx="10" ry="10"/><circle class="cls-2" cx="27.18" cy="18.5" r="0.86"/><circle class="cls-2" cx="35.82" cy="18.5" r="0.86"/><path class="cls-3" d="M23,13.61a3.19,3.19,0,0,0-2.7,1.56L11.8,29.94a3.21,3.21,0,0,0,0,3.12l8.5,14.77A3.19,3.19,0,0,0,23,49.39H40a3.19,3.19,0,0,0,2.7-1.56l8.5-14.77a3.21,3.21,0,0,0,0-3.12L42.7,15.17A3.19,3.19,0,0,0,40,13.61Zm.15,8.64h3a.39.39,0,0,1,.32.19l5,8.87a.38.38,0,0,1,0,.14.38.38,0,0,1,0-.14l5-8.87a.39.39,0,0,1,.33-.19h2.93a.4.4,0,0,1,.33.56L35.25,31.5l4.86,8.68a.4.4,0,0,1-.33.57H36.84a.39.39,0,0,1-.33-.2l-5-8.87a.38.38,0,0,1,0-.14.38.38,0,0,1,0,.14l-5,8.87a.39.39,0,0,1-.32.2H23.22a.4.4,0,0,1-.33-.57l4.86-8.68-4.86-8.69a.4.4,0,0,1,.26-.56Z"/></g></g></svg>