<svg xmlns="http://www.w3.org/2000/svg" width="610" height="454.583" viewBox="0 0 610 454.583">
  <g id="our_project_img" data-name="our project img" transform="translate(0 -54.953)">
    <g id="Background_Complete" data-name="Background Complete" transform="translate(0 54.953)">
      <g id="Group_13275" data-name="Group 13275">
        <g id="Group_13273" data-name="Group 13273">
          <rect id="Rectangle_2513" data-name="Rectangle 2513" width="610" height="0.305" transform="translate(0 399.483)" fill="#ebebeb"/>
          <path id="Path_19083" data-name="Path 19083" d="M280.752,400.026H45.171a6.972,6.972,0,0,1-6.964-6.964V61.916a6.971,6.971,0,0,1,6.964-6.963H280.752a6.971,6.971,0,0,1,6.963,6.963V393.063A6.972,6.972,0,0,1,280.752,400.026ZM45.171,55.258a6.665,6.665,0,0,0-6.659,6.658V393.063a6.666,6.666,0,0,0,6.659,6.659H280.752a6.665,6.665,0,0,0,6.658-6.659V61.916a6.665,6.665,0,0,0-6.658-6.658Z" transform="translate(8.406 -54.953)" fill="#ebebeb"/>
          <path id="Path_19084" data-name="Path 19084" d="M497.047,400.026H261.468a6.971,6.971,0,0,1-6.963-6.964V61.916a6.97,6.97,0,0,1,6.963-6.963H497.047a6.972,6.972,0,0,1,6.965,6.963V393.063A6.973,6.973,0,0,1,497.047,400.026ZM261.468,55.258a6.665,6.665,0,0,0-6.658,6.658V393.063a6.665,6.665,0,0,0,6.658,6.659H497.047a6.667,6.667,0,0,0,6.66-6.659V61.916a6.666,6.666,0,0,0-6.66-6.658Z" transform="translate(55.991 -54.953)" fill="#ebebeb"/>
        </g>
        <g id="Group_13274" data-name="Group 13274" transform="translate(64 407.791)">
          <rect id="Rectangle_2514" data-name="Rectangle 2514" width="31.717" height="0.305" transform="translate(148.814 3.311)" fill="#ebebeb"/>
          <rect id="Rectangle_2515" data-name="Rectangle 2515" width="66.004" height="0.305" fill="#ebebeb"/>
          <rect id="Rectangle_2516" data-name="Rectangle 2516" width="32.107" height="0.305" transform="translate(115.486 14.64)" fill="#ebebeb"/>
          <rect id="Rectangle_2517" data-name="Rectangle 2517" width="47.375" height="0.305" transform="translate(251.036 12.59)" fill="#ebebeb"/>
          <rect id="Rectangle_2518" data-name="Rectangle 2518" width="13.047" height="0.305" transform="translate(309.274 12.59)" fill="#ebebeb"/>
          <rect id="Rectangle_2519" data-name="Rectangle 2519" width="66.558" height="0.305" transform="translate(418.322 7.439)" fill="#ebebeb"/>
        </g>
      </g>
      <g id="Group_13287" data-name="Group 13287" transform="translate(80.331 34.885)">
        <g id="Group_13279" data-name="Group 13279">
          <g id="Group_13276" data-name="Group 13276" transform="translate(0 3.215)">
            <rect id="Rectangle_2520" data-name="Rectangle 2520" width="181.028" height="191.03" transform="translate(13.515 6.183)" fill="#e6e6e6"/>
            <path id="Path_19085" data-name="Path 19085" d="M279.788,86.183H67.642a1.8,1.8,0,0,0-1.8,1.8h0a1.8,1.8,0,0,0,1.8,1.8H279.788a1.8,1.8,0,0,0,1.8-1.8h0A1.8,1.8,0,0,0,279.788,86.183Z" transform="translate(-65.845 -86.183)" fill="#e6e6e6"/>
            <rect id="Rectangle_2521" data-name="Rectangle 2521" width="185.12" height="191.03" transform="translate(17.105 6.183)" fill="#f0f0f0"/>
            <rect id="Rectangle_2522" data-name="Rectangle 2522" width="181.028" height="7.137" transform="translate(13.515 197.212)" fill="#e6e6e6"/>
            <rect id="Rectangle_2523" data-name="Rectangle 2523" width="185.12" height="7.137" transform="translate(29.901 197.212)" fill="#f0f0f0"/>
            <rect id="Rectangle_2524" data-name="Rectangle 2524" width="169.522" height="163.613" transform="translate(191.471 16.937) rotate(90)" fill="#fafafa"/>
            <path id="Path_19086" data-name="Path 19086" d="M119.124,269.587l63.118-169.522h29.8L148.919,269.587Z" transform="translate(-54.124 -83.129)" fill="#fff"/>
            <path id="Path_19087" data-name="Path 19087" d="M148.792,269.587,211.91,100.065h11.616L160.408,269.587Z" transform="translate(-47.597 -83.129)" fill="#fff"/>
            <rect id="Rectangle_2525" data-name="Rectangle 2525" width="169.522" height="1.366" transform="translate(191.471 16.937) rotate(90)" fill="#e6e6e6"/>
          </g>
          <g id="Group_13277" data-name="Group 13277" transform="translate(0.686)" opacity="0.6">
            <path id="Path_19088" data-name="Path 19088" d="M89.139,256.1H66.407L78.659,83.547H101.39Z" transform="translate(-66.407 -83.547)" fill="#f0f0f0"/>
            <path id="Path_19089" data-name="Path 19089" d="M95.491,256.1H77.782L90.033,83.547h17.71Z" transform="translate(-63.905 -83.547)" fill="#e6e6e6"/>
            <path id="Path_19090" data-name="Path 19090" d="M107.771,256.1H85.04L97.291,83.547h22.731Z" transform="translate(-62.308 -83.547)" fill="#f0f0f0"/>
            <path id="Path_19091" data-name="Path 19091" d="M114.124,256.1H96.414L108.665,83.547h17.71Z" transform="translate(-59.806 -83.547)" fill="#e6e6e6"/>
            <path id="Path_19092" data-name="Path 19092" d="M126.4,256.1H103.672L115.923,83.547h22.732Z" transform="translate(-58.209 -83.547)" fill="#f0f0f0"/>
          </g>
          <g id="Group_13278" data-name="Group 13278" transform="translate(165.861 0)" opacity="0.6">
            <path id="Path_19093" data-name="Path 19093" d="M229.78,256.1h12.846L235.7,83.548H222.856Z" transform="translate(-197.164 -83.548)" fill="#f0f0f0"/>
            <path id="Path_19094" data-name="Path 19094" d="M225.678,256.1h10.009L228.763,83.548H218.755Z" transform="translate(-198.066 -83.548)" fill="#e6e6e6"/>
            <path id="Path_19095" data-name="Path 19095" d="M219.25,256.1H232.1L225.173,83.548H212.327Z" transform="translate(-199.48 -83.548)" fill="#f0f0f0"/>
            <path id="Path_19096" data-name="Path 19096" d="M215.149,256.1h10.009L218.233,83.548H208.225Z" transform="translate(-200.383 -83.548)" fill="#e6e6e6"/>
            <path id="Path_19097" data-name="Path 19097" d="M208.721,256.1h12.846L214.643,83.548H201.8Z" transform="translate(-201.797 -83.548)" fill="#f0f0f0"/>
          </g>
        </g>
        <g id="Group_13281" data-name="Group 13281" transform="translate(315.008)">
          <g id="Group_13280" data-name="Group 13280" transform="translate(0)">
            <rect id="Rectangle_2526" data-name="Rectangle 2526" width="125.18" height="166.433" fill="#e6e6e6"/>
            <rect id="Rectangle_2527" data-name="Rectangle 2527" width="130.783" height="166.433" transform="translate(3.908)" fill="#f5f5f5"/>
            <rect id="Rectangle_2528" data-name="Rectangle 2528" width="144.521" height="108.873" transform="translate(9.214 150.859) rotate(-85.379)" fill="#fff"/>
            <rect id="Rectangle_2529" data-name="Rectangle 2529" width="144.521" height="2.681" transform="translate(115.06 159.415) rotate(-85.378)" fill="#e6e6e6"/>
          </g>
        </g>
        <g id="Group_13285" data-name="Group 13285" transform="translate(154.629 141.666)">
          <g id="Group_13282" data-name="Group 13282" transform="translate(0 86.936)">
            <rect id="Rectangle_2530" data-name="Rectangle 2530" width="69.916" height="135.996" transform="translate(232.051)" fill="#f5f5f5"/>
            <rect id="Rectangle_2531" data-name="Rectangle 2531" width="5.765" height="135.996" transform="translate(296.201)" fill="#f0f0f0"/>
            <rect id="Rectangle_2532" data-name="Rectangle 2532" width="160.988" height="57.544" transform="translate(237.438 61.424) rotate(180)" fill="#e6e6e6"/>
            <rect id="Rectangle_2533" data-name="Rectangle 2533" width="217.755" height="10.2" transform="translate(301.967 10.2) rotate(180)" fill="#f0f0f0"/>
            <rect id="Rectangle_2534" data-name="Rectangle 2534" width="69.916" height="135.996" transform="translate(14.295)" fill="#f5f5f5"/>
            <path id="Rectangle_2535" data-name="Rectangle 2535" d="M13.79,0h6.383a13.79,13.79,0,0,1,13.79,13.79V92.663a0,0,0,0,1,0,0H0a0,0,0,0,1,0,0V13.79A13.79,13.79,0,0,1,13.79,0Z" transform="translate(0 43.333)" fill="#e6e6e6"/>
            <rect id="Rectangle_2536" data-name="Rectangle 2536" width="5.765" height="135.996" transform="translate(78.446)" fill="#f0f0f0"/>
          </g>
          <g id="Group_13283" data-name="Group 13283" transform="translate(102.949)">
            <path id="Path_19098" data-name="Path 19098" d="M328.841,276.22H313.757l3.67-29.358h15.085Z" transform="translate(-268.882 -189.284)" fill="#f0f0f0"/>
            <path id="Path_19099" data-name="Path 19099" d="M331.575,276.22H316.491l3.67-29.358h15.084Z" transform="translate(-268.281 -189.284)" fill="#f5f5f5"/>
            <path id="Path_19100" data-name="Path 19100" d="M333.079,261.541H317.995l1.835-14.679h15.085Z" transform="translate(-267.95 -189.284)" fill="#f0f0f0"/>
            <path id="Path_19101" data-name="Path 19101" d="M286.677,268.409h106.7a1.48,1.48,0,0,0,1.469-1.663l-8.224-65.784a1.477,1.477,0,0,0-1.468-1.3h-106.7a1.48,1.48,0,0,0-1.468,1.663l8.223,65.784A1.479,1.479,0,0,0,286.677,268.409Z" transform="translate(-276.975 -199.667)" fill="#f0f0f0"/>
            <path id="Path_19102" data-name="Path 19102" d="M287.977,268.409h106.7a1.48,1.48,0,0,0,1.468-1.663l-8.223-65.784a1.479,1.479,0,0,0-1.468-1.3h-106.7a1.48,1.48,0,0,0-1.469,1.663l8.224,65.784A1.477,1.477,0,0,0,287.977,268.409Z" transform="translate(-276.689 -199.667)" fill="#f5f5f5"/>
            <path id="Path_19103" data-name="Path 19103" d="M392.082,264.2l-7.7-61.573a.414.414,0,0,0-.41-.364H281.516a.413.413,0,0,0-.41.466l7.7,61.573a.413.413,0,0,0,.41.362H391.671A.414.414,0,0,0,392.082,264.2Z" transform="translate(-276.066 -199.095)" fill="#e6e6e6"/>
            <path id="Path_19104" data-name="Path 19104" d="M372.273,264.669l-27.084-62.4H321.443l27.084,62.4Z" transform="translate(-267.191 -199.095)" fill="#ebebeb"/>
            <path id="Path_19105" data-name="Path 19105" d="M346.322,264.669l-27.084-62.4H310.68l27.084,62.4Z" transform="translate(-269.559 -199.095)" fill="#ebebeb"/>
            <path id="Rectangle_2537" data-name="Rectangle 2537" d="M0,0H24.569a0,0,0,0,1,0,0V.746a2.006,2.006,0,0,1-2.006,2.006H2.006A2.006,2.006,0,0,1,0,.746V0A0,0,0,0,1,0,0Z" transform="translate(77.022 86.936) rotate(-180)" fill="#f5f5f5"/>
            <path id="Rectangle_2538" data-name="Rectangle 2538" d="M0,0H16.667a0,0,0,0,1,0,0V.746a2.006,2.006,0,0,1-2.006,2.006H2.006A2.006,2.006,0,0,1,0,.746V0A0,0,0,0,1,0,0Z" transform="translate(55.297 86.936) rotate(180)" fill="#f0f0f0"/>
          </g>
          <g id="Group_13284" data-name="Group 13284" transform="translate(125.272 80.84)">
            <path id="Path_19106" data-name="Path 19106" d="M376.431,272.027H300.469l-2.054-6.1h68.132Z" transform="translate(-294.58 -265.93)" fill="#f5f5f5"/>
            <path id="Path_19107" data-name="Path 19107" d="M309.519,272.027H296.97l-1.7-6.1h12.55Z" transform="translate(-295.272 -265.93)" fill="#f0f0f0"/>
          </g>
          <path id="Rectangle_2539" data-name="Rectangle 2539" d="M0,0H21.62a0,0,0,0,1,0,0V.92A4.18,4.18,0,0,1,17.44,5.1H4.18A4.18,4.18,0,0,1,0,.92V0A0,0,0,0,1,0,0Z" transform="translate(115.345 86.936) rotate(-180)" fill="#f0f0f0"/>
        </g>
        <g id="Group_13286" data-name="Group 13286" transform="translate(26.342 248.212)">
          <rect id="Rectangle_2540" data-name="Rectangle 2540" width="21.19" height="98.493" transform="translate(23.376 116.386) rotate(180)" fill="#e0e0e0"/>
          <path id="Path_19108" data-name="Path 19108" d="M183.7,403.386H98.03L87.436,287H173.11Z" transform="translate(-87.436 -287)" fill="#e6e6e6"/>
          <path id="Path_19109" data-name="Path 19109" d="M187.341,403.386H101.667L91.074,287h85.674Z" transform="translate(-86.636 -287)" fill="#f0f0f0"/>
          <path id="Path_19110" data-name="Path 19110" d="M110.843,388.179,102.6,297.56H162.5l8.248,90.619Z" transform="translate(-84.102 -284.677)" fill="#fff"/>
        </g>
      </g>
    </g>
    <g id="Shadow" transform="translate(68.456 481.906)">
      <ellipse id="_Path_" data-name="&lt;Path&gt;" cx="236.545" cy="13.815" rx="236.545" ry="13.815" fill="#f5f5f5"/>
    </g>
    <g id="Upload_Window" data-name="Upload Window" transform="translate(119.199 129.352)">
      <g id="Group_13294" data-name="Group 13294" transform="translate(0)">
        <g id="Group_13292" data-name="Group 13292">
          <g id="Group_13291" data-name="Group 13291">
            <rect id="Rectangle_2541" data-name="Rectangle 2541" width="1.221" height="16.265" transform="translate(0.458 74.528) rotate(-1.872)" fill="#407bff"/>
            <rect id="Rectangle_2542" data-name="Rectangle 2542" width="1.221" height="7.729" transform="translate(0 60.507) rotate(-1.872)" fill="#407bff"/>
            <path id="Path_19111" data-name="Path 19111" d="M114.918,293.974H347.77a9.235,9.235,0,0,0,9.263-9.576l-5.185-158.887a9.992,9.992,0,0,0-9.888-9.576H109.108a9.235,9.235,0,0,0-9.263,9.576L105.029,284.4A9.994,9.994,0,0,0,114.918,293.974Z" transform="translate(-97.234 -115.936)" fill="#407bff"/>
            <g id="Group_13289" data-name="Group 13289" transform="translate(3.352)">
              <g id="Group_13288" data-name="Group 13288">
                <path id="Path_19112" data-name="Path 19112" d="M115.53,293.974H348.382a9.235,9.235,0,0,0,9.263-9.576L352.46,125.512a9.992,9.992,0,0,0-9.888-9.576H109.72a9.235,9.235,0,0,0-9.263,9.576L105.642,284.4A9.992,9.992,0,0,0,115.53,293.974Z" transform="translate(-100.452 -115.936)" fill="#99bbeb"/>
                <path id="Path_19113" data-name="Path 19113" d="M115.53,293.974H348.382a9.235,9.235,0,0,0,9.263-9.576L352.46,125.512a9.992,9.992,0,0,0-9.888-9.576H109.72a9.235,9.235,0,0,0-9.263,9.576L105.642,284.4A9.992,9.992,0,0,0,115.53,293.974Z" transform="translate(-100.452 -115.936)" fill="#fff" opacity="0.5"/>
              </g>
              <path id="Path_19114" data-name="Path 19114" d="M341.291,119.861H108.44q-.4,0-.782.032c-5.971.49-5.112,9.544.9,9.544H341.8c6.007,0,6.276-9.054.272-9.544Q341.687,119.862,341.291,119.861Z" transform="translate(-99.761 -115.073)" fill="#3580e9" opacity="0.5"/>
              <path id="Path_19115" data-name="Path 19115" d="M113.173,124.181a2.111,2.111,0,0,1-2.124,2.2,2.285,2.285,0,0,1-2.267-2.2,2.112,2.112,0,0,1,2.124-2.195A2.284,2.284,0,0,1,113.173,124.181Z" transform="translate(-98.619 -114.605)" fill="#fafafa"/>
              <path id="Path_19116" data-name="Path 19116" d="M119.294,124.181a2.112,2.112,0,0,1-2.124,2.2,2.285,2.285,0,0,1-2.267-2.2,2.112,2.112,0,0,1,2.124-2.195A2.284,2.284,0,0,1,119.294,124.181Z" transform="translate(-97.273 -114.605)" fill="#fafafa"/>
              <ellipse id="Ellipse_345" data-name="Ellipse 345" cx="2.16" cy="2.231" rx="2.16" ry="2.231" transform="matrix(0.701, -0.713, 0.713, 0.701, 24.188, 9.552)" fill="#fafafa"/>
            </g>
            <path id="Path_19117" data-name="Path 19117" d="M117.927,273.684H340.716a3.338,3.338,0,0,0,3.359-3.471L339.81,139.55a3.612,3.612,0,0,0-3.584-3.471H113.436a3.337,3.337,0,0,0-3.357,3.471l4.263,130.663A3.613,3.613,0,0,0,117.927,273.684Z" transform="translate(-94.982 -111.505)" fill="#fff"/>
            <g id="Group_13290" data-name="Group 13290" transform="translate(77.743 40.744)" opacity="0.3">
              <path id="Path_19118" data-name="Path 19118" d="M251.26,236.349h-4.066v-1.157h2.872l-.093-2.871,1.156-.038Z" transform="translate(-142.559 -131.084)" fill="#407bff"/>
              <path id="Path_19119" data-name="Path 19119" d="M257.069,235.825h-6.478v-1.157h6.478Zm-12.955,0h-6.479v-1.157h6.479Zm-12.956,0h-6.478v-1.157h6.478Zm-12.956,0h-6.477v-1.157H218.2Zm-12.955,0h-6.478v-1.157h6.478Zm-12.956,0h-6.477v-1.157h6.477Zm-12.955,0h-6.478v-1.157h6.478Z" transform="translate(-158.913 -130.559)" fill="#407bff"/>
              <path id="Path_19120" data-name="Path 19120" d="M168.3,236.349h-4.031l-.131-4.028,1.156-.038.1,2.909H168.3Z" transform="translate(-160.832 -131.084)" fill="#407bff"/>
              <path id="Path_19121" data-name="Path 19121" d="M164.458,242.2l-.211-6.478,1.155-.038.211,6.478Zm-.423-12.956-.211-6.478,1.157-.038.211,6.478Zm-.422-12.956-.211-6.478,1.155-.038.211,6.478Zm-.422-12.956-.212-6.478,1.155-.038.212,6.478Zm-.423-12.956-.212-6.478,1.157-.038.211,6.478Zm-.423-12.956-.21-6.478,1.155-.038.211,6.478Zm-.422-12.956-.211-6.478,1.155-.037.211,6.477Z" transform="translate(-161.365 -147.438)" fill="#407bff"/>
              <path id="Path_19122" data-name="Path 19122" d="M161.561,153.4l-.133-4.066H165.5v1.157h-2.871l.093,2.871Z" transform="translate(-161.428 -149.333)" fill="#407bff"/>
              <path id="Path_19123" data-name="Path 19123" d="M254.285,150.49h-6.478v-1.157h6.478Zm-12.955,0h-6.478v-1.157h6.478Zm-12.956,0H221.9v-1.157h6.478Zm-12.956,0H208.94v-1.157h6.477Zm-12.955,0h-6.478v-1.157h6.478Zm-12.955,0h-6.479v-1.157h6.479Zm-12.956,0h-6.478v-1.157h6.478Z" transform="translate(-159.526 -149.333)" fill="#99bbeb"/>
              <path id="Path_19124" data-name="Path 19124" d="M247.414,153.4l-.1-2.909h-2.911v-1.157h4.031l.131,4.028Z" transform="translate(-143.172 -149.333)" fill="#407bff"/>
              <path id="Path_19125" data-name="Path 19125" d="M249.793,242.2l-.211-6.478,1.155-.038.211,6.478Zm-.423-12.956-.211-6.478,1.157-.038.21,6.478Zm-.422-12.956-.211-6.478,1.155-.038.212,6.478Zm-.422-12.956-.212-6.478,1.155-.038.212,6.478Zm-.423-12.956-.211-6.478,1.155-.038.211,6.478Zm-.423-12.956-.21-6.478,1.155-.038.211,6.478Zm-.422-12.956-.211-6.478,1.155-.037.211,6.478Z" transform="translate(-142.592 -147.438)" fill="#407bff"/>
            </g>
          </g>
        </g>
        <g id="Group_13293" data-name="Group 13293" transform="translate(97.241 68.142)">
          <path id="Path_19126" data-name="Path 19126" d="M235.253,213.544H192.661a15.377,15.377,0,0,1-15.244-14.761,14.3,14.3,0,0,1,12.335-14.71A16.454,16.454,0,0,1,205.7,171.79,17.466,17.466,0,0,1,220.61,180.2a14.071,14.071,0,0,1,4.138-.616A14.879,14.879,0,0,1,239.387,192.8a11.382,11.382,0,0,1,6.466,9.788,10.547,10.547,0,0,1-10.6,10.957ZM205.7,174.634a13.594,13.594,0,0,0-13.385,11.014l-.2,1.085-1.1.071a11.468,11.468,0,0,0-10.749,11.889,12.51,12.51,0,0,0,12.4,12.008h42.591a7.7,7.7,0,0,0,7.758-8.02,8.508,8.508,0,0,0-5.479-7.582l-.881-.332-.04-.941a11.992,11.992,0,0,0-11.862-11.4,11.162,11.162,0,0,0-4.248.83l-1.2.492-.6-1.15A14.663,14.663,0,0,0,205.7,174.634Z" transform="translate(-177.41 -171.79)" fill="#7faeef"/>
          <path id="Path_19127" data-name="Path 19127" d="M218.865,196.731l-11.748-11.376-11.005,11.376h6.44l.384,11.762h9.873l-.384-11.762Z" transform="translate(-173.295 -168.806)" fill="#7faeef"/>
        </g>
      </g>
    </g>
    <g id="Character" transform="translate(314.459 114.451)">
      <g id="Group_13302" data-name="Group 13302" transform="translate(0)">
        <path id="Path_19128" data-name="Path 19128" d="M371.172,156.8c1.128,1.617,2.029,2.984,2.961,4.5.928,1.48,1.8,2.979,2.654,4.5,1.71,3.029,3.3,6.129,4.754,9.324a100.654,100.654,0,0,1,3.953,9.859,76.571,76.571,0,0,1,2.871,10.554l.473,2.783.057.348.066.444c.048.427.1.794.12,1.27a13.056,13.056,0,0,1,0,1.436l-.056.771-.129.85a12.408,12.408,0,0,1-.462,1.779,11.4,11.4,0,0,1-.86,1.856,10.4,10.4,0,0,1-2.693,3.079,12.154,12.154,0,0,1-5.5,2.34,18,18,0,0,1-3.98.2,24.5,24.5,0,0,1-3.239-.383,46.27,46.27,0,0,1-5.577-1.431,76.556,76.556,0,0,1-9.81-4.022,88.1,88.1,0,0,1-9.043-5.047l3.508-7.786a186.526,186.526,0,0,0,18.4,3.978,31.932,31.932,0,0,0,4.136.35,6.735,6.735,0,0,0,2.621-.292c.074-.057-.2-.144-1.013.394a4.376,4.376,0,0,0-1.11,1.208,4.111,4.111,0,0,0-.351.732,3.937,3.937,0,0,0-.184.578l-.073.392a1.81,1.81,0,0,1-.028.2c0,.063-.029.027-.029.044a1.208,1.208,0,0,1-.048-.162l-.07-.256-.55-2.051a97.721,97.721,0,0,0-6.852-16.581c-1.376-2.752-2.888-5.469-4.426-8.169-.766-1.352-1.569-2.686-2.361-4.015-.783-1.3-1.641-2.715-2.353-3.83Z" transform="translate(-237.958 -92.044)" fill="#ffb573"/>
        <path id="Path_19129" data-name="Path 19129" d="M353.688,188.762l-5.289-5.275-5.264,11.73s4.978,2.762,9.417.748Z" transform="translate(-238.97 -86.174)" fill="#ffb573"/>
        <path id="Path_19130" data-name="Path 19130" d="M341.739,180.044l-3.9,9.9,6.457,6.032,5.264-11.73Z" transform="translate(-240.134 -86.931)" fill="#ffb573"/>
        <g id="Group_13296" data-name="Group 13296" transform="translate(0 50.792)">
          <g id="Group_13295" data-name="Group 13295" transform="translate(0 0)">
            <rect id="Rectangle_2543" data-name="Rectangle 2543" width="103.14" height="103.14" transform="matrix(0.985, 0.173, -0.173, 0.985, 17.894, 0)" fill="#7faeef"/>
            <rect id="Rectangle_2544" data-name="Rectangle 2544" width="103.14" height="103.14" transform="matrix(0.985, 0.173, -0.173, 0.985, 17.894, 0)" fill="#fff" opacity="0.6"/>
          </g>
          <rect id="Rectangle_2545" data-name="Rectangle 2545" width="93.103" height="93.103" transform="translate(21.966 5.814) rotate(9.991)" fill="#fff"/>
          <circle id="Ellipse_346" data-name="Ellipse 346" cx="17.187" cy="17.187" r="17.187" transform="matrix(0.819, -0.574, 0.574, 0.819, 31.309, 34.348)" fill="#7faeef" opacity="0.77"/>
          <path id="Path_19131" data-name="Path 19131" d="M333.454,197.481,302.722,219l-14.133-20.177L265.4,215.061l-2.877,16.329,91.68,16.15,2.876-16.329Z" transform="translate(-256.704 -133.887)" fill="#7faeef" opacity="0.77"/>
        </g>
        <path id="Path_19132" data-name="Path 19132" d="M325.141,126.775c.017.811-.4,1.479-.93,1.49s-.975-.638-.992-1.449.4-1.479.93-1.49S325.123,125.964,325.141,126.775Z" transform="translate(-243.351 -98.969)" fill="#263238"/>
        <path id="Path_19133" data-name="Path 19133" d="M325.2,127.725s-1.748,4.72-3.733,7.022c1.464,1.31,3.893.647,3.893.647Z" transform="translate(-243.736 -98.441)" fill="#ff5652"/>
        <path id="Path_19134" data-name="Path 19134" d="M327.93,123.09a.476.476,0,0,1-.354-.077,3.775,3.775,0,0,0-3.4-.55.477.477,0,0,1-.36-.883,4.736,4.736,0,0,1,4.3.648.476.476,0,0,1-.187.863Z" transform="translate(-243.285 -99.849)" fill="#263238"/>
        <path id="Path_19135" data-name="Path 19135" d="M347.463,129.052c-.515,7.486.074,22.609,5.8,26.841,0,0-1.4,6.106-14.978,7.812-14.928,1.875-8.065-6.515-8.065-6.515,7.9-2.969,6.933-8.987,4.8-14.485Z" transform="translate(-242.158 -98.149)" fill="#ffb573"/>
        <path id="Path_19136" data-name="Path 19136" d="M374.5,395.027a.824.824,0,0,1-.1-.039.971.971,0,0,1-.509-1.01,1.111,1.111,0,0,1,.414-.837c1.149-.977,4.493-.548,4.635-.528a.238.238,0,0,1,.124.417C378.29,393.7,375.7,395.443,374.5,395.027Zm3.808-2c-1.131-.09-3-.1-3.689.478a.643.643,0,0,0-.245.487c-.013.448.174.537.237.566C375.258,394.869,377.088,393.937,378.311,393.027Z" transform="translate(-232.202 -40.19)" fill="#407bff"/>
        <path id="Path_19137" data-name="Path 19137" d="M377.106,393.207c-1.172-.406-2.413-1.093-2.622-1.8a.779.779,0,0,1,.392-.9,1.3,1.3,0,0,1,1.043-.189c1.471.31,3.013,2.794,3.078,2.9a.239.239,0,0,1-.209.364A6.189,6.189,0,0,1,377.106,393.207Zm-1.124-2.381a1.433,1.433,0,0,0-.163-.045.827.827,0,0,0-.676.118c-.259.174-.218.314-.2.373.19.648,2.092,1.545,3.371,1.774A6.309,6.309,0,0,0,375.983,390.826Z" transform="translate(-232.079 -40.68)" fill="#407bff"/>
        <path id="Path_19138" data-name="Path 19138" d="M314.228,408.675c-1.292,0-2.539-.178-2.956-.759a.9.9,0,0,1,.02-1.042,1.185,1.185,0,0,1,.755-.558c1.676-.456,5.194,1.548,5.341,1.635a.237.237,0,0,1-.072.439A17.5,17.5,0,0,1,314.228,408.675Zm-1.6-1.953a1.749,1.749,0,0,0-.46.055.715.715,0,0,0-.467.334c-.168.3-.107.442-.046.527.468.649,3.013.664,4.884.4A10.781,10.781,0,0,0,312.632,406.722Z" transform="translate(-246.013 -37.166)" fill="#407bff"/>
        <path id="Path_19139" data-name="Path 19139" d="M316.8,408.83a.231.231,0,0,1-.1-.021c-1.215-.545-3.621-2.722-3.437-3.86.043-.267.232-.6.887-.666a1.762,1.762,0,0,1,1.322.41c1.28,1.05,1.552,3.762,1.563,3.876a.238.238,0,0,1-.238.261Zm-2.456-4.08a1.426,1.426,0,0,0-.143.007c-.429.044-.456.212-.465.268-.111.683,1.525,2.392,2.765,3.138a5.6,5.6,0,0,0-1.329-3.1A1.273,1.273,0,0,0,314.343,404.751Z" transform="translate(-245.543 -37.6)" fill="#407bff"/>
        <path id="Path_19140" data-name="Path 19140" d="M327.228,412.017H317.163l-1-23.309h10.065Z" transform="translate(-244.904 -41.025)" fill="#ffb573"/>
        <path id="Path_19141" data-name="Path 19141" d="M390.758,394.333l-9.333,2.565-11.949-21.855,9.333-2.565Z" transform="translate(-233.174 -44.596)" fill="#ffb573"/>
        <path id="Path_19142" data-name="Path 19142" d="M380.449,392.6l10.067-5.151a.879.879,0,0,1,1.076.222l5.845,7.06a1.48,1.48,0,0,1-.5,2.264c-3.545,1.737-5.358,2.4-9.784,4.669-2.724,1.394-10.825,7.418-14.912,8.483-4,1.042-5.677-2.838-4.1-3.639A23.039,23.039,0,0,0,379.276,393.9,2.44,2.44,0,0,1,380.449,392.6Z" transform="translate(-233.597 -41.323)" fill="#263238"/>
        <path id="Path_19143" data-name="Path 19143" d="M321.42,406.859h10.992a.877.877,0,0,1,.856.687l1.989,8.948a1.464,1.464,0,0,1-1.448,1.79c-3.965-.067-9.694-.3-14.678-.3-5.828,0-10.86.318-17.694.318-4.132,0-5.279-4.177-3.549-4.555,7.874-1.723,14.3-1.908,21.107-6.1A4.654,4.654,0,0,1,321.42,406.859Z" transform="translate(-249.095 -37.032)" fill="#263238"/>
        <path id="Path_19144" data-name="Path 19144" d="M352.7,169.517c1.049,2.7,2.2,5.341,3.368,7.813,2.007,4.276,4.006,8.012,5.46,10.592,1.3,2.324,2.142,3.7,2.142,3.7l21.986-10.9s-8.857-25.465-18.1-28.3C358.077,149.542,347.956,157.377,352.7,169.517Z" transform="translate(-237.131 -93.139)" fill="#e3964d"/>
        <path id="Path_19145" data-name="Path 19145" d="M361.238,168.39c-1.915,1.408-3.282,5.2-4.254,9.648,1.254,2.451,2.408,4.577,3.339,6.239,1.3,2.325,2.14,3.7,2.14,3.7l2.522-1.253C364.815,180.84,363.872,174.207,361.238,168.39Z" transform="translate(-235.923 -89.495)" opacity="0.2"/>
        <path id="Path_19146" data-name="Path 19146" d="M314.379,186.118c0,3.426.083,7.193.275,11.345.493,11.29,1.726,25.36,4.083,42.843h53.831c.37-8.262-4.823-48.583,3.151-87.522a140.951,140.951,0,0,0-18.032-2.274c-6.877-.329-16.838-.548-22.88,0a102.572,102.572,0,0,0-15.482,2.8S314.366,158.909,314.379,186.118Z" transform="translate(-245.296 -93.502)" fill="#e3964d"/>
        <path id="Path_19147" data-name="Path 19147" d="M337.573,167.871a48.553,48.553,0,0,1-2.677,4.887c-.888,1.441-1.781,2.822-2.717,4.163-1.848,2.695-3.794,5.274-5.829,7.795a111.972,111.972,0,0,1-13.582,14.25,61.643,61.643,0,0,1-8.422,6.231l-1.2.7-.314.178-.44.222-.888.426a17.922,17.922,0,0,1-3.587,1.157,22.778,22.778,0,0,1-6.669.339,32.141,32.141,0,0,1-10.718-3.206,42.284,42.284,0,0,1-4.484-2.56,38.482,38.482,0,0,1-4.155-3.115l4.321-7.365c5.276,1.383,11.237,2.628,15.332,2.044a7.291,7.291,0,0,0,2.417-.675,4.521,4.521,0,0,0,.7-.451,1.594,1.594,0,0,1,.122-.118l.063-.051.173-.124.741-.521a56.942,56.942,0,0,0,5.932-5.167,125.934,125.934,0,0,0,11.091-12.86c1.745-2.287,3.436-4.63,5.051-6.976.8-1.177,1.588-2.35,2.32-3.5.712-1.13,1.459-2.344,1.845-3.09Z" transform="translate(-254.643 -91.236)" fill="#ffb573"/>
        <path id="Path_19148" data-name="Path 19148" d="M279.044,187.973l-9.283-4.4-.838,12.45s7.215,1.251,11.035-1.568Z" transform="translate(-255.296 -86.155)" fill="#ffb573"/>
        <path id="Path_19149" data-name="Path 19149" d="M260.018,185.689l3.577,9.49,7.287.844.838-12.451Z" transform="translate(-257.255 -86.155)" fill="#ffb573"/>
        <path id="Path_19150" data-name="Path 19150" d="M338.586,163.175c-.318,9.617-20.128,31.779-20.128,31.779l-20.932-13.67s6.637-12.416,15.254-21.4C325.781,146.331,338.967,151.632,338.586,163.175Z" transform="translate(-249.003 -93.134)" fill="#e3964d"/>
        <g id="Group_13297" data-name="Group 13297" transform="translate(71.259 327.888)">
          <path id="Path_19151" data-name="Path 19151" d="M316.162,388.714l.515,12.015h10.07l-.515-12.015Z" transform="translate(-316.162 -368.912)" opacity="0.2"/>
          <path id="Path_19152" data-name="Path 19152" d="M378.814,372.483l-9.336,2.566,6.164,11.264,9.336-2.566Z" transform="translate(-304.433 -372.483)" opacity="0.2"/>
        </g>
        <path id="Path_19153" data-name="Path 19153" d="M352.1,127.23c-.405,9.982-.134,15.844-5.062,21.066-7.413,7.854-19.812,3.547-22.4-6.355-2.328-8.911-1.276-23.736,8.4-27.907A13.625,13.625,0,0,1,352.1,127.23Z" transform="translate(-243.269 -101.71)" fill="#ffb573"/>
        <path id="Path_19154" data-name="Path 19154" d="M332.692,134c-3.593-2.557-7.117-7.843-6.845-11.774-3.322-.135-5.558-5.625-3.728-9.625,1.152,2.575,5.115.678,6.659-1.355-.83-1.965-.694-5.219,5-7.524-.475,1.66-.227,4.448,5.49,2.44,6.947-2.44,19.152-.813,15.575,7.455,4.893.882,11.231,10.973,5.843,16.287s-6.506,13.875-11.115,14.756S332.963,145.841,332.692,134Z" transform="translate(-243.738 -103.722)" fill="#273860"/>
        <path id="Path_19155" data-name="Path 19155" d="M346.163,111.693a9.327,9.327,0,0,1,11.146,3.133C353.522,113.277,351.355,112.269,346.163,111.693Z" transform="translate(-238.303 -102.127)" fill="#263238"/>
        <path id="Path_19156" data-name="Path 19156" d="M334.065,128.853a10.106,10.106,0,0,1-2.364,6.041c-1.9,2.216-3.987.926-4.408-1.7-.378-2.362.155-6.361,2.522-7.619C332.146,124.338,334.151,126.177,334.065,128.853Z" transform="translate(-242.479 -99.001)" fill="#ffb573"/>
        <g id="Group_13298" data-name="Group 13298" transform="translate(91.28 146.805)">
          <path id="Path_19157" data-name="Path 19157" d="M333.825,224.054s-4.749,76.162,4.253,104.247c14.259,44.484,39.677,89.921,39.677,89.921l18.178-5.467s-19.991-47.966-26.567-85.437c-5.906-33.661-.8-75.769-.8-103.264Z" transform="translate(-332.573 -224.054)" fill="#374888"/>
        </g>
        <path id="Path_19158" data-name="Path 19158" d="M333.055,238.1c5.08-1.485,9.04-.925,10.069,3.6,2.684,11.8-5.367,42.921-9.379,57.158C332.116,278.452,332.493,254.053,333.055,238.1Z" transform="translate(-241.293 -74.321)" opacity="0.2"/>
        <g id="Group_13299" data-name="Group 13299" transform="translate(131.328 328.696)">
          <path id="Path_19159" data-name="Path 19159" d="M365.4,380.211c-.076.022,4.743,5.628,4.743,5.628l19.863-5.973-2.525-6.721Z" transform="translate(-365.399 -373.145)" fill="#263238"/>
        </g>
        <g id="Group_13300" data-name="Group 13300" transform="translate(57.122 146.805)">
          <path id="Path_19160" data-name="Path 19160" d="M320.886,224.054s-15.16,64.259-16.227,94.954c-1.2,34.424,10.817,115.619,10.817,115.619h17.051s2.1-81.828,2.857-113.183c.827-34.182,20.891-97.39,20.891-97.39Z" transform="translate(-304.575 -224.054)" fill="#374888"/>
        </g>
        <g id="Group_13301" data-name="Group 13301" transform="translate(64.737 350.587)">
          <path id="Path_19161" data-name="Path 19161" d="M310.821,391.088c-.078,0,.963,7.078.963,7.078h20.741l.561-6.317Z" transform="translate(-310.817 -391.088)" fill="#263238"/>
        </g>
        <path id="Path_19162" data-name="Path 19162" d="M324.429,148.964c2.307-.8,19.895-3.034,32.658-2.353,7.286.389,11.4,1.183,14.372,2.624s-2.357,8.693-4.819,9.579c1,2.78-4.554,6.329-7.72,8.014-1.268,2.616-13.74,5.031-21.067-.587C332.227,161.929,317.845,151.246,324.429,148.964Z" transform="translate(-243.457 -94.314)" fill="#c76d18"/>
      </g>
    </g>
  </g>
</svg>
