<svg xmlns="http://www.w3.org/2000/svg" xmlns:xlink="http://www.w3.org/1999/xlink" width="157.4" height="193.667" viewBox="0 0 157.4 193.667">
  <defs>
    <clipPath id="clip-path">
      <rect width="115.4" height="193.667" fill="none"/>
    </clipPath>
  </defs>
  <g id="Group_3303" data-name="Group 3303" transform="translate(-1294 -805)">
    <g id="Repeat_Grid_7" data-name="Repeat Grid 7" transform="translate(1336 805)" opacity="0.17" clip-path="url(#clip-path)">
      <g transform="translate(-1404 -765)">
        <circle id="Ellipse_86" data-name="Ellipse 86" cx="3" cy="3" r="3" transform="translate(1404 765)" fill="#9796a8"/>
      </g>
      <g transform="translate(-1386 -765)">
        <circle id="Ellipse_86-2" data-name="Ellipse 86" cx="3" cy="3" r="3" transform="translate(1404 765)" fill="#9796a8"/>
      </g>
      <g transform="translate(-1368 -765)">
        <circle id="Ellipse_86-3" data-name="Ellipse 86" cx="3" cy="3" r="3" transform="translate(1404 765)" fill="#9796a8"/>
      </g>
      <g transform="translate(-1350 -765)">
        <circle id="Ellipse_86-4" data-name="Ellipse 86" cx="3" cy="3" r="3" transform="translate(1404 765)" fill="#9796a8"/>
      </g>
      <g transform="translate(-1332 -765)">
        <circle id="Ellipse_86-5" data-name="Ellipse 86" cx="3" cy="3" r="3" transform="translate(1404 765)" fill="#9796a8"/>
      </g>
      <g transform="translate(-1314 -765)">
        <circle id="Ellipse_86-6" data-name="Ellipse 86" cx="3" cy="3" r="3" transform="translate(1404 765)" fill="#9796a8"/>
      </g>
      <g transform="translate(-1296 -765)">
        <circle id="Ellipse_86-7" data-name="Ellipse 86" cx="3" cy="3" r="3" transform="translate(1404 765)" fill="#9796a8"/>
      </g>
      <g transform="translate(-1404 -747)">
        <circle id="Ellipse_86-8" data-name="Ellipse 86" cx="3" cy="3" r="3" transform="translate(1404 765)" fill="#9796a8"/>
      </g>
      <g transform="translate(-1386 -747)">
        <circle id="Ellipse_86-9" data-name="Ellipse 86" cx="3" cy="3" r="3" transform="translate(1404 765)" fill="#9796a8"/>
      </g>
      <g transform="translate(-1368 -747)">
        <circle id="Ellipse_86-10" data-name="Ellipse 86" cx="3" cy="3" r="3" transform="translate(1404 765)" fill="#9796a8"/>
      </g>
      <g transform="translate(-1350 -747)">
        <circle id="Ellipse_86-11" data-name="Ellipse 86" cx="3" cy="3" r="3" transform="translate(1404 765)" fill="#9796a8"/>
      </g>
      <g transform="translate(-1332 -747)">
        <circle id="Ellipse_86-12" data-name="Ellipse 86" cx="3" cy="3" r="3" transform="translate(1404 765)" fill="#9796a8"/>
      </g>
      <g transform="translate(-1314 -747)">
        <circle id="Ellipse_86-13" data-name="Ellipse 86" cx="3" cy="3" r="3" transform="translate(1404 765)" fill="#9796a8"/>
      </g>
      <g transform="translate(-1296 -747)">
        <circle id="Ellipse_86-14" data-name="Ellipse 86" cx="3" cy="3" r="3" transform="translate(1404 765)" fill="#9796a8"/>
      </g>
      <g transform="translate(-1404 -729)">
        <circle id="Ellipse_86-15" data-name="Ellipse 86" cx="3" cy="3" r="3" transform="translate(1404 765)" fill="#9796a8"/>
      </g>
      <g transform="translate(-1386 -729)">
        <circle id="Ellipse_86-16" data-name="Ellipse 86" cx="3" cy="3" r="3" transform="translate(1404 765)" fill="#9796a8"/>
      </g>
      <g transform="translate(-1368 -729)">
        <circle id="Ellipse_86-17" data-name="Ellipse 86" cx="3" cy="3" r="3" transform="translate(1404 765)" fill="#9796a8"/>
      </g>
      <g transform="translate(-1350 -729)">
        <circle id="Ellipse_86-18" data-name="Ellipse 86" cx="3" cy="3" r="3" transform="translate(1404 765)" fill="#9796a8"/>
      </g>
      <g transform="translate(-1332 -729)">
        <circle id="Ellipse_86-19" data-name="Ellipse 86" cx="3" cy="3" r="3" transform="translate(1404 765)" fill="#9796a8"/>
      </g>
      <g transform="translate(-1314 -729)">
        <circle id="Ellipse_86-20" data-name="Ellipse 86" cx="3" cy="3" r="3" transform="translate(1404 765)" fill="#9796a8"/>
      </g>
      <g transform="translate(-1296 -729)">
        <circle id="Ellipse_86-21" data-name="Ellipse 86" cx="3" cy="3" r="3" transform="translate(1404 765)" fill="#9796a8"/>
      </g>
      <g transform="translate(-1404 -711)">
        <circle id="Ellipse_86-22" data-name="Ellipse 86" cx="3" cy="3" r="3" transform="translate(1404 765)" fill="#9796a8"/>
      </g>
      <g transform="translate(-1386 -711)">
        <circle id="Ellipse_86-23" data-name="Ellipse 86" cx="3" cy="3" r="3" transform="translate(1404 765)" fill="#9796a8"/>
      </g>
      <g transform="translate(-1368 -711)">
        <circle id="Ellipse_86-24" data-name="Ellipse 86" cx="3" cy="3" r="3" transform="translate(1404 765)" fill="#9796a8"/>
      </g>
      <g transform="translate(-1350 -711)">
        <circle id="Ellipse_86-25" data-name="Ellipse 86" cx="3" cy="3" r="3" transform="translate(1404 765)" fill="#9796a8"/>
      </g>
      <g transform="translate(-1332 -711)">
        <circle id="Ellipse_86-26" data-name="Ellipse 86" cx="3" cy="3" r="3" transform="translate(1404 765)" fill="#9796a8"/>
      </g>
      <g transform="translate(-1314 -711)">
        <circle id="Ellipse_86-27" data-name="Ellipse 86" cx="3" cy="3" r="3" transform="translate(1404 765)" fill="#9796a8"/>
      </g>
      <g transform="translate(-1296 -711)">
        <circle id="Ellipse_86-28" data-name="Ellipse 86" cx="3" cy="3" r="3" transform="translate(1404 765)" fill="#9796a8"/>
      </g>
      <g transform="translate(-1404 -693)">
        <circle id="Ellipse_86-29" data-name="Ellipse 86" cx="3" cy="3" r="3" transform="translate(1404 765)" fill="#9796a8"/>
      </g>
      <g transform="translate(-1386 -693)">
        <circle id="Ellipse_86-30" data-name="Ellipse 86" cx="3" cy="3" r="3" transform="translate(1404 765)" fill="#9796a8"/>
      </g>
      <g transform="translate(-1368 -693)">
        <circle id="Ellipse_86-31" data-name="Ellipse 86" cx="3" cy="3" r="3" transform="translate(1404 765)" fill="#9796a8"/>
      </g>
      <g transform="translate(-1350 -693)">
        <circle id="Ellipse_86-32" data-name="Ellipse 86" cx="3" cy="3" r="3" transform="translate(1404 765)" fill="#9796a8"/>
      </g>
      <g transform="translate(-1332 -693)">
        <circle id="Ellipse_86-33" data-name="Ellipse 86" cx="3" cy="3" r="3" transform="translate(1404 765)" fill="#9796a8"/>
      </g>
      <g transform="translate(-1314 -693)">
        <circle id="Ellipse_86-34" data-name="Ellipse 86" cx="3" cy="3" r="3" transform="translate(1404 765)" fill="#9796a8"/>
      </g>
      <g transform="translate(-1296 -693)">
        <circle id="Ellipse_86-35" data-name="Ellipse 86" cx="3" cy="3" r="3" transform="translate(1404 765)" fill="#9796a8"/>
      </g>
      <g transform="translate(-1404 -675)">
        <circle id="Ellipse_86-36" data-name="Ellipse 86" cx="3" cy="3" r="3" transform="translate(1404 765)" fill="#9796a8"/>
      </g>
      <g transform="translate(-1386 -675)">
        <circle id="Ellipse_86-37" data-name="Ellipse 86" cx="3" cy="3" r="3" transform="translate(1404 765)" fill="#9796a8"/>
      </g>
      <g transform="translate(-1368 -675)">
        <circle id="Ellipse_86-38" data-name="Ellipse 86" cx="3" cy="3" r="3" transform="translate(1404 765)" fill="#9796a8"/>
      </g>
      <g transform="translate(-1350 -675)">
        <circle id="Ellipse_86-39" data-name="Ellipse 86" cx="3" cy="3" r="3" transform="translate(1404 765)" fill="#9796a8"/>
      </g>
      <g transform="translate(-1332 -675)">
        <circle id="Ellipse_86-40" data-name="Ellipse 86" cx="3" cy="3" r="3" transform="translate(1404 765)" fill="#9796a8"/>
      </g>
      <g transform="translate(-1314 -675)">
        <circle id="Ellipse_86-41" data-name="Ellipse 86" cx="3" cy="3" r="3" transform="translate(1404 765)" fill="#9796a8"/>
      </g>
      <g transform="translate(-1296 -675)">
        <circle id="Ellipse_86-42" data-name="Ellipse 86" cx="3" cy="3" r="3" transform="translate(1404 765)" fill="#9796a8"/>
      </g>
      <g transform="translate(-1404 -657)">
        <circle id="Ellipse_86-43" data-name="Ellipse 86" cx="3" cy="3" r="3" transform="translate(1404 765)" fill="#9796a8"/>
      </g>
      <g transform="translate(-1386 -657)">
        <circle id="Ellipse_86-44" data-name="Ellipse 86" cx="3" cy="3" r="3" transform="translate(1404 765)" fill="#9796a8"/>
      </g>
      <g transform="translate(-1368 -657)">
        <circle id="Ellipse_86-45" data-name="Ellipse 86" cx="3" cy="3" r="3" transform="translate(1404 765)" fill="#9796a8"/>
      </g>
      <g transform="translate(-1350 -657)">
        <circle id="Ellipse_86-46" data-name="Ellipse 86" cx="3" cy="3" r="3" transform="translate(1404 765)" fill="#9796a8"/>
      </g>
      <g transform="translate(-1332 -657)">
        <circle id="Ellipse_86-47" data-name="Ellipse 86" cx="3" cy="3" r="3" transform="translate(1404 765)" fill="#9796a8"/>
      </g>
      <g transform="translate(-1314 -657)">
        <circle id="Ellipse_86-48" data-name="Ellipse 86" cx="3" cy="3" r="3" transform="translate(1404 765)" fill="#9796a8"/>
      </g>
      <g transform="translate(-1296 -657)">
        <circle id="Ellipse_86-49" data-name="Ellipse 86" cx="3" cy="3" r="3" transform="translate(1404 765)" fill="#9796a8"/>
      </g>
      <g transform="translate(-1404 -639)">
        <circle id="Ellipse_86-50" data-name="Ellipse 86" cx="3" cy="3" r="3" transform="translate(1404 765)" fill="#9796a8"/>
      </g>
      <g transform="translate(-1386 -639)">
        <circle id="Ellipse_86-51" data-name="Ellipse 86" cx="3" cy="3" r="3" transform="translate(1404 765)" fill="#9796a8"/>
      </g>
      <g transform="translate(-1368 -639)">
        <circle id="Ellipse_86-52" data-name="Ellipse 86" cx="3" cy="3" r="3" transform="translate(1404 765)" fill="#9796a8"/>
      </g>
      <g transform="translate(-1350 -639)">
        <circle id="Ellipse_86-53" data-name="Ellipse 86" cx="3" cy="3" r="3" transform="translate(1404 765)" fill="#9796a8"/>
      </g>
      <g transform="translate(-1332 -639)">
        <circle id="Ellipse_86-54" data-name="Ellipse 86" cx="3" cy="3" r="3" transform="translate(1404 765)" fill="#9796a8"/>
      </g>
      <g transform="translate(-1314 -639)">
        <circle id="Ellipse_86-55" data-name="Ellipse 86" cx="3" cy="3" r="3" transform="translate(1404 765)" fill="#9796a8"/>
      </g>
      <g transform="translate(-1296 -639)">
        <circle id="Ellipse_86-56" data-name="Ellipse 86" cx="3" cy="3" r="3" transform="translate(1404 765)" fill="#9796a8"/>
      </g>
      <g transform="translate(-1404 -621)">
        <circle id="Ellipse_86-57" data-name="Ellipse 86" cx="3" cy="3" r="3" transform="translate(1404 765)" fill="#9796a8"/>
      </g>
      <g transform="translate(-1386 -621)">
        <circle id="Ellipse_86-58" data-name="Ellipse 86" cx="3" cy="3" r="3" transform="translate(1404 765)" fill="#9796a8"/>
      </g>
      <g transform="translate(-1368 -621)">
        <circle id="Ellipse_86-59" data-name="Ellipse 86" cx="3" cy="3" r="3" transform="translate(1404 765)" fill="#9796a8"/>
      </g>
      <g transform="translate(-1350 -621)">
        <circle id="Ellipse_86-60" data-name="Ellipse 86" cx="3" cy="3" r="3" transform="translate(1404 765)" fill="#9796a8"/>
      </g>
      <g transform="translate(-1332 -621)">
        <circle id="Ellipse_86-61" data-name="Ellipse 86" cx="3" cy="3" r="3" transform="translate(1404 765)" fill="#9796a8"/>
      </g>
      <g transform="translate(-1314 -621)">
        <circle id="Ellipse_86-62" data-name="Ellipse 86" cx="3" cy="3" r="3" transform="translate(1404 765)" fill="#9796a8"/>
      </g>
      <g transform="translate(-1296 -621)">
        <circle id="Ellipse_86-63" data-name="Ellipse 86" cx="3" cy="3" r="3" transform="translate(1404 765)" fill="#9796a8"/>
      </g>
      <g transform="translate(-1404 -603)">
        <circle id="Ellipse_86-64" data-name="Ellipse 86" cx="3" cy="3" r="3" transform="translate(1404 765)" fill="#9796a8"/>
      </g>
      <g transform="translate(-1386 -603)">
        <circle id="Ellipse_86-65" data-name="Ellipse 86" cx="3" cy="3" r="3" transform="translate(1404 765)" fill="#9796a8"/>
      </g>
      <g transform="translate(-1368 -603)">
        <circle id="Ellipse_86-66" data-name="Ellipse 86" cx="3" cy="3" r="3" transform="translate(1404 765)" fill="#9796a8"/>
      </g>
      <g transform="translate(-1350 -603)">
        <circle id="Ellipse_86-67" data-name="Ellipse 86" cx="3" cy="3" r="3" transform="translate(1404 765)" fill="#9796a8"/>
      </g>
      <g transform="translate(-1332 -603)">
        <circle id="Ellipse_86-68" data-name="Ellipse 86" cx="3" cy="3" r="3" transform="translate(1404 765)" fill="#9796a8"/>
      </g>
      <g transform="translate(-1314 -603)">
        <circle id="Ellipse_86-69" data-name="Ellipse 86" cx="3" cy="3" r="3" transform="translate(1404 765)" fill="#9796a8"/>
      </g>
      <g transform="translate(-1296 -603)">
        <circle id="Ellipse_86-70" data-name="Ellipse 86" cx="3" cy="3" r="3" transform="translate(1404 765)" fill="#9796a8"/>
      </g>
      <g transform="translate(-1404 -585)">
        <circle id="Ellipse_86-71" data-name="Ellipse 86" cx="3" cy="3" r="3" transform="translate(1404 765)" fill="#9796a8"/>
      </g>
      <g transform="translate(-1386 -585)">
        <circle id="Ellipse_86-72" data-name="Ellipse 86" cx="3" cy="3" r="3" transform="translate(1404 765)" fill="#9796a8"/>
      </g>
      <g transform="translate(-1368 -585)">
        <circle id="Ellipse_86-73" data-name="Ellipse 86" cx="3" cy="3" r="3" transform="translate(1404 765)" fill="#9796a8"/>
      </g>
      <g transform="translate(-1350 -585)">
        <circle id="Ellipse_86-74" data-name="Ellipse 86" cx="3" cy="3" r="3" transform="translate(1404 765)" fill="#9796a8"/>
      </g>
      <g transform="translate(-1332 -585)">
        <circle id="Ellipse_86-75" data-name="Ellipse 86" cx="3" cy="3" r="3" transform="translate(1404 765)" fill="#9796a8"/>
      </g>
      <g transform="translate(-1314 -585)">
        <circle id="Ellipse_86-76" data-name="Ellipse 86" cx="3" cy="3" r="3" transform="translate(1404 765)" fill="#9796a8"/>
      </g>
      <g transform="translate(-1296 -585)">
        <circle id="Ellipse_86-77" data-name="Ellipse 86" cx="3" cy="3" r="3" transform="translate(1404 765)" fill="#9796a8"/>
      </g>
    </g>
    <path id="Rectangle_870" data-name="Rectangle 870" d="M50,0h50a0,0,0,0,1,0,0V50a50,50,0,0,1-50,50H0a0,0,0,0,1,0,0V50A50,50,0,0,1,50,0Z" transform="translate(1294 872)" fill="#fbe196"/>
  </g>
</svg>
