<svg xmlns="http://www.w3.org/2000/svg" width="45.535" height="45.535" viewBox="0 0 45.535 45.535">
  <g id="Custom_IPhone_App_Development" data-name="Custom IPhone App Development" transform="translate(-1 -1)">
    <path id="Path_18835" data-name="Path 18835" d="M46.535,24.5a10.3,10.3,0,0,0-8.079-10.038V4.672A3.676,3.676,0,0,0,34.784,1h-19.1a3.676,3.676,0,0,0-3.672,3.672v8.079H7.771l-.443,1.774-1.567-.941L1.833,17.51l.941,1.569L1,19.522v5.554l1.774.443-.942,1.569L5.76,31.014l1.567-.941.444,1.774h4.246V42.863a3.676,3.676,0,0,0,3.672,3.672h19.1a3.676,3.676,0,0,0,3.672-3.672V34.54A10.3,10.3,0,0,0,46.535,24.5Zm-1.469,0a8.748,8.748,0,0,1-.958,3.976,3.664,3.664,0,0,0-2.557-2.307L38.456,25.4v-.176A3.676,3.676,0,0,0,39.925,22.3V20.831a3.672,3.672,0,0,0-4-3.658,3.778,3.778,0,0,0-3.346,3.81V22.3a3.676,3.676,0,0,0,1.469,2.922V25.4l-3.094.774A3.664,3.664,0,0,0,28.4,28.478,8.809,8.809,0,1,1,45.066,24.5ZM34.05,14.464a10.2,10.2,0,0,0-1.469.446V12.751H17.892V23.033h8.2A10.182,10.182,0,0,0,34.05,34.54v1.713H16.423V11.282H34.05Zm-7.646,7.1H19.361V14.22H31.112v1.391A10.318,10.318,0,0,0,26.4,21.564ZM15.689,2.469h19.1a2.206,2.206,0,0,1,2.2,2.2v2.2h-23.5v-2.2A2.206,2.206,0,0,1,15.689,2.469ZM12.017,25.657a3.672,3.672,0,1,1,0-6.716Zm-3.1,4.721L8.56,28.946l-.149-.393-.839-.341-1.585.952-2.3-2.305.952-1.586-.367-.9-1.8-.449V20.669l1.8-.449.369-.9-.952-1.586,2.3-2.305,1.585.952.9-.364.449-1.8h3.1v3.162a5.141,5.141,0,1,0,0,9.834v3.162ZM34.784,45.066h-19.1a2.206,2.206,0,0,1-2.2-2.2v-2.2h23.5v2.2A2.206,2.206,0,0,1,34.784,45.066Zm2.2-5.876h-23.5V8.344h23.5v5.913c-.244-.018-.486-.037-.734-.037s-.491.02-.734.037V9.813H14.954V37.722H35.519V34.747c.244.018.486.037.734.037s.491-.02.734-.037Zm-.734-5.876a8.788,8.788,0,0,1-6.61-3v-.579A2.2,2.2,0,0,1,31.312,27.6l4.207-1.051V24.407l-.365-.212a2.18,2.18,0,0,1-1.1-1.9V20.982a2.3,2.3,0,0,1,2-2.347,2.2,2.2,0,0,1,2.4,2.194V22.3a2.18,2.18,0,0,1-1.1,1.9l-.365.212v2.138L41.194,27.6a2.2,2.2,0,0,1,1.669,2.138v.579A8.788,8.788,0,0,1,36.253,33.315Z" transform="translate(0 0)" fill="#0094c4"/>
    <path id="Path_18836" data-name="Path 18836" d="M38,5h1.469V6.469H38Z" transform="translate(-9.826 -1.062)" fill="#7e75e4"/>
    <path id="Path_18837" data-name="Path 18837" d="M28,5h5.876V6.469H28Z" transform="translate(-7.17 -1.062)" fill="#7e75e4"/>
    <path id="Path_18838" data-name="Path 18838" d="M30,57h5.876v1.469H30Z" transform="translate(-7.701 -14.871)" fill="#7e75e4"/>
    <path id="Path_18839" data-name="Path 18839" d="M44,57h1.469v1.469H44Z" transform="translate(-11.419 -14.871)" fill="#7e75e4"/>
    <path id="Path_18840" data-name="Path 18840" d="M22,57h1.469v1.469H22Z" transform="translate(-5.577 -14.871)" fill="#7e75e4"/>
    <path id="Path_18841" data-name="Path 18841" d="M24,33h6.61v1.469H24Z" transform="translate(-6.108 -8.498)" fill="#7e75e4"/>
    <path id="Path_18842" data-name="Path 18842" d="M24,37h6.61v1.469H24Z" transform="translate(-6.108 -9.56)" fill="#7e75e4"/>
    <path id="Path_18843" data-name="Path 18843" d="M24,41h6.61v1.469H24Z" transform="translate(-6.108 -10.622)" fill="#7e75e4"/>
    <path id="Path_18844" data-name="Path 18844" d="M24,45h6.61v1.469H24Z" transform="translate(-6.108 -11.685)" fill="#7e75e4"/>
    <path id="Path_18845" data-name="Path 18845" d="M56.2,15.282a2.2,2.2,0,0,0,.734-4.271V5H55.469v6.011a2.2,2.2,0,0,0,.734,4.271Zm0-2.938a.734.734,0,1,1-.734.734A.735.735,0,0,1,56.2,12.344Z" transform="translate(-14.075 -1.062)" fill="#7e75e4"/>
    <path id="Path_18846" data-name="Path 18846" d="M56,1h1.469V2.469H56Z" transform="translate(-14.606)" fill="#7e75e4"/>
    <path id="Path_18847" data-name="Path 18847" d="M10.2,45a2.2,2.2,0,0,0-.734,4.271v6.011h1.469V49.271A2.2,2.2,0,0,0,10.2,45Zm0,2.938a.734.734,0,1,1,.734-.734A.735.735,0,0,1,10.2,47.938Z" transform="translate(-1.859 -11.685)" fill="#7e75e4"/>
    <path id="Path_18848" data-name="Path 18848" d="M10,61h1.469v1.469H10Z" transform="translate(-2.39 -15.934)" fill="#7e75e4"/>
  </g>
</svg>
