<svg id="IOS_UI_UX_design" data-name="IOS UI/UX design" xmlns="http://www.w3.org/2000/svg" width="45.035" height="45.03" viewBox="0 0 45.035 45.03">
  <g id="_027---Good-User-Experience" data-name="027---Good-User-Experience">
    <path id="Shape" d="M37.529,24.461V3a3,3,0,0,0-3-3H3A3,3,0,0,0,0,3V39.03a3,3,0,0,0,3,3H27.187A10.5,10.5,0,1,0,37.529,24.461ZM3,1.5H34.527a1.5,1.5,0,0,1,1.5,1.5v6H1.5V3A1.5,1.5,0,0,1,3,1.5ZM1.5,39.03V10.508H36.028V24.139A10.488,10.488,0,0,0,25.915,40.531H3a1.5,1.5,0,0,1-1.5-1.5Zm33.026,4.5a9.007,9.007,0,1,1,9.007-9.007A9.007,9.007,0,0,1,34.527,43.534Z" fill="#0094c4"/>
    <path id="Shape-2" data-name="Shape" d="M6.252,8.5A2.252,2.252,0,1,0,4,6.252,2.252,2.252,0,0,0,6.252,8.5Zm0-3a.751.751,0,1,1-.751.751A.751.751,0,0,1,6.252,5.5Z" transform="translate(-0.998 -0.998)" fill="#7e75e4"/>
    <path id="Shape-3" data-name="Shape" d="M14.252,8.5A2.252,2.252,0,1,0,12,6.252,2.252,2.252,0,0,0,14.252,8.5Zm0-3a.751.751,0,1,1-.751.751A.751.751,0,0,1,14.252,5.5Z" transform="translate(-2.993 -0.998)" fill="#7e75e4"/>
    <path id="Shape-4" data-name="Shape" d="M32.252,8.5h7.506a2.252,2.252,0,1,0,0-4.5H32.252a2.252,2.252,0,1,0,0,4.5Zm0-3h7.506a.751.751,0,0,1,0,1.5H32.252a.751.751,0,1,1,0-1.5Z" transform="translate(-7.483 -0.998)" fill="#7e75e4"/>
    <path id="Shape-5" data-name="Shape" d="M19,24.506a3,3,0,0,0,3-3V17.751a.751.751,0,0,0-1.5,0V21.5a1.5,1.5,0,0,1-3,0V17.751a.751.751,0,0,0-1.5,0V21.5A3,3,0,0,0,19,24.506Z" transform="translate(-3.991 -4.24)" fill="#7e75e4"/>
    <path id="Shape-6" data-name="Shape" d="M26.3,24.356a.751.751,0,0,0,1.051-.15L29,22l1.651,2.2a.751.751,0,1,0,1.2-.9l-1.914-2.552L31.855,18.2a.751.751,0,0,0-1.2-.9L29,19.5l-1.651-2.2a.751.751,0,0,0-1.2.9l1.914,2.552L26.15,23.3a.751.751,0,0,0,.15,1.051Z" transform="translate(-6.485 -4.24)" fill="#7e75e4"/>
    <path id="Shape-7" data-name="Shape" d="M6.252,39.007h6a2.252,2.252,0,0,0,2.252-2.252v-4.5A2.252,2.252,0,0,0,12.256,30h-6A2.252,2.252,0,0,0,4,32.252v4.5A2.252,2.252,0,0,0,6.252,39.007ZM5.5,36.755v-4.4l6.182,5.153H6.252A.751.751,0,0,1,5.5,36.755Zm7.506-4.5v4.4L6.825,31.5h5.431A.751.751,0,0,1,13.007,32.252Z" transform="translate(-0.998 -7.483)" fill="#0094c4"/>
    <path id="Shape-8" data-name="Shape" d="M20,30.751a.751.751,0,0,0,.751.751H32.76a.751.751,0,0,0,0-1.5H20.751A.751.751,0,0,0,20,30.751Z" transform="translate(-4.988 -7.483)" fill="#7e75e4"/>
    <path id="Shape-9" data-name="Shape" d="M22.765,44H4.751a.751.751,0,0,0,0,1.5H22.765a.751.751,0,1,0,0-1.5Z" transform="translate(-0.998 -10.974)" fill="#7e75e4"/>
    <path id="Shape-10" data-name="Shape" d="M18.261,48H4.751a.751.751,0,1,0,0,1.5h13.51a.751.751,0,1,0,0-1.5Z" transform="translate(-0.998 -11.972)" fill="#7e75e4"/>
    <path id="Shape-11" data-name="Shape" d="M29.007,35H20.751a.751.751,0,1,0,0,1.5h8.256a.751.751,0,1,0,0-1.5Z" transform="translate(-4.988 -8.73)" fill="#7e75e4"/>
    <path id="Shape-12" data-name="Shape" d="M27.506,40H20.751a.751.751,0,1,0,0,1.5h6.755a.751.751,0,0,0,0-1.5Z" transform="translate(-4.988 -9.977)" fill="#7e75e4"/>
    <path id="Shape-13" data-name="Shape" d="M43,42a3,3,0,1,0-3,3A3,3,0,0,0,43,42Zm-4.5,0a1.5,1.5,0,1,1,2.252,1.292v-.542a.751.751,0,1,0-1.5,0v.542A1.5,1.5,0,0,1,38.5,42Z" transform="translate(-9.229 -9.727)" fill="#7e75e4"/>
    <path id="Shape-14" data-name="Shape" d="M50,39a3,3,0,1,0,3,3A3,3,0,0,0,50,39Zm.751,4.295v-.542a.751.751,0,0,0-1.5,0v.542a1.5,1.5,0,1,1,1.5,0Z" transform="translate(-11.723 -9.727)" fill="#7e75e4"/>
    <path id="Shape-15" data-name="Shape" d="M47,49H42.5A1.5,1.5,0,0,0,41,50.5a3.753,3.753,0,1,0,7.506,0A1.5,1.5,0,0,0,47,49Zm-2.252,3.753A2.252,2.252,0,0,1,42.5,50.5H47A2.252,2.252,0,0,1,44.753,52.753Z" transform="translate(-10.226 -12.222)" fill="#0094c4"/>
  </g>
</svg>
