<svg id="Native_IOS_App_Development" data-name="Native IOS App Development" xmlns="http://www.w3.org/2000/svg" xmlns:xlink="http://www.w3.org/1999/xlink" width="45.152" height="45.152" viewBox="0 0 45.152 45.152">
  <defs>
    <linearGradient id="linear-gradient" x1="0.5" x2="0.5" y2="1" gradientUnits="objectBoundingBox">
      <stop offset="0" stop-color="#7e75e4"/>
      <stop offset="1" stop-color="#0094c4"/>
    </linearGradient>
  </defs>
  <path id="Path_18849" data-name="Path 18849" d="M43.116,7.408H33.864a.661.661,0,0,0,0,1.323h9.251a.714.714,0,0,1,.714.714v25.47a.714.714,0,0,1-.714.714H2.037a.714.714,0,0,1-.714-.714V9.444a.714.714,0,0,1,.714-.714H16.568v1.323H3.307a.661.661,0,0,0-.661.661V28.191a.661.661,0,0,0,1.323,0V11.376h12.6v3.548l-2.832,1.353a.666.666,0,0,0-.376.6V27.661a.662.662,0,0,0,.376.6l8.554,4.087a.671.671,0,0,0,.57,0l4.809-2.3a.661.661,0,1,0-.57-1.194L23.238,30.7V21.378l7.231-3.455v9.321l-.983.469a.661.661,0,0,0,.57,1.194l1.359-.649a.662.662,0,0,0,.376-.6V16.874a.665.665,0,0,0-.376-.6l-2.832-1.353V11.376h12.6V32.982H3.968V31.013a.661.661,0,0,0-1.323,0v2.631a.661.661,0,0,0,.661.661H41.845a.661.661,0,0,0,.661-.661V10.715a.661.661,0,0,0-.661-.661H28.584V8.731h2.458a.661.661,0,0,0,0-1.323H28.584V6.085h5.931a.661.661,0,0,0,.661-.661V3.855a1.984,1.984,0,1,0-1.323,0v.907H27.923a.661.661,0,0,0-.661.661V7.408H23.238V3.855a1.984,1.984,0,1,0-1.323,0V7.408H17.891V5.424a.661.661,0,0,0-.661-.661H11.3V3.855a1.984,1.984,0,1,0-1.323,0V5.424a.661.661,0,0,0,.661.661h5.931V7.408H2.037A2.039,2.039,0,0,0,0,9.444v25.47a2.039,2.039,0,0,0,2.037,2.037h14.34a6.3,6.3,0,0,1-2.366,4.233H11.2a1.984,1.984,0,0,0,0,3.968H33.952a1.984,1.984,0,1,0,0-3.968H31.144a6.366,6.366,0,0,1-2.367-4.233H43.116a2.039,2.039,0,0,0,2.037-2.037V9.444A2.039,2.039,0,0,0,43.116,7.408Zm-8.6-6.085a.661.661,0,1,1-.661.661A.662.662,0,0,1,34.515,1.323Zm-11.938,0a.661.661,0,1,1-.661.661A.662.662,0,0,1,22.576,1.323Zm-11.938,0a.661.661,0,1,1-.661.661A.662.662,0,0,1,10.638,1.323Zm7.253,10.053h4.024v.994l-4.024,1.923Zm11.7,5.5-7.02,3.354-7.02-3.354,7.02-3.354ZM14.683,17.923l7.231,3.455V30.7l-7.231-3.455Zm12.578-3.631L23.238,12.37v-.994h4.024Zm0-5.562v1.323H23.238V8.731Zm-5.346,0v1.323H17.891V8.731Zm12.7,34.437a.662.662,0,0,1-.661.661H11.2a.661.661,0,1,1,0-1.323H33.952A.662.662,0,0,1,34.614,43.168Zm-5.367-1.984H15.906a7.459,7.459,0,0,0,1.8-4.233h9.74A7.459,7.459,0,0,0,29.247,41.184Zm0,0" fill="url(#linear-gradient)"/>
</svg>
