<svg xmlns="http://www.w3.org/2000/svg" xmlns:xlink="http://www.w3.org/1999/xlink" width="45.742" height="45.956" viewBox="0 0 45.742 45.956">
  <defs>
    <linearGradient id="linear-gradient" x1="0.5" x2="0.5" y2="1" gradientUnits="objectBoundingBox">
      <stop offset="0" stop-color="#0094c4"/>
      <stop offset="1" stop-color="#7e75e4"/>
    </linearGradient>
  </defs>
  <g id="Support_Maintain_Upgrade_ios_app" data-name="Support, Maintain &amp; Upgrade ios app" transform="translate(-1.193 0)">
    <g id="Group_12994" data-name="Group 12994" transform="translate(1.193 0)">
      <g id="Group_12993" data-name="Group 12993" transform="translate(0 0)">
        <path id="Path_18907" data-name="Path 18907" d="M46.248,38.93H4.764V13.653A2.287,2.287,0,0,1,7.019,11.34h4.633a7.124,7.124,0,0,0,2.168,2.049v2.477a2,2,0,0,0,2,2h1.061a7.9,7.9,0,0,0,3.774,4.975v.9a2.247,2.247,0,0,1-1.742,2.2l-2.964.693a6.033,6.033,0,0,0-4.678,5.9v3.168H8.106V14.637h2.979a.687.687,0,0,0,0-1.373H7.419a.687.687,0,0,0-.687.687V36.377a.687.687,0,0,0,.687.687h33.61a.687.687,0,0,0,.687-.687V13.95a.687.687,0,0,0-.687-.687H35.216v-1.29a1.985,1.985,0,0,0-.1-.633h6a2.287,2.287,0,0,1,2.255,2.312V36.07a.687.687,0,0,0,1.373,0V13.653a3.661,3.661,0,0,0-3.628-3.686H33.918a.687.687,0,0,0,.413-.818c-.132-.488-.28-.964-.441-1.415a12.649,12.649,0,0,0-3.023-4.919A9.193,9.193,0,0,0,24.9,0a9.511,9.511,0,0,0-4.18.938,7.121,7.121,0,0,0-9.805,9.026h-3.9a3.662,3.662,0,0,0-3.628,3.686V38.93H1.88a.687.687,0,0,0-.687.687v1.417a4.929,4.929,0,0,0,4.923,4.923h35.9a4.929,4.929,0,0,0,4.923-4.923V39.616A.687.687,0,0,0,46.248,38.93ZM16.65,15.989v.5h-.834a.623.623,0,0,1-.623-.623V11.974a.623.623,0,0,1,.623-.623h.834Zm.537-6.541a.683.683,0,0,0-.256.117c-.157.068-.316.132-.478.191a7.739,7.739,0,0,1,.694-3.221,15.516,15.516,0,0,0,1.722,1.827,8.683,8.683,0,0,1-1.35.919C17.41,9.34,17.3,9.395,17.187,9.448Zm.836,6.541V10.566l.146-.075A10.267,10.267,0,0,0,19.95,9.246,12.63,12.63,0,0,0,27.482,11.8a12.1,12.1,0,0,0,3.53-.6v4.8a6.453,6.453,0,0,1-1.02,3.487H25.261a.687.687,0,1,0,0,1.373h3.557a6.49,6.49,0,0,1-10.794-4.861ZM36.668,35.642H12.642V32.523a4.665,4.665,0,0,1,3.617-4.561l.448-.1a9.2,9.2,0,0,0,1.931,2.321.687.687,0,0,0,.9-1.039,7.845,7.845,0,0,1-1.417-1.612l1.1-.258a3.615,3.615,0,0,0,2.8-3.534v-.285a7.845,7.845,0,0,0,5.259-.1v.382a3.615,3.615,0,0,0,2.8,3.534l1.106.259a7.84,7.84,0,0,1-9.969,2.727.687.687,0,0,0-.6,1.234A9.212,9.212,0,0,0,32.6,27.857l.447.1a4.665,4.665,0,0,1,3.617,4.561ZM35.216,15.866V14.637h5.126V35.691h-2.3V32.523a6.033,6.033,0,0,0-4.677-5.9L30.4,25.931a2.247,2.247,0,0,1-1.742-2.2v-1.06a7.93,7.93,0,0,0,2.04-1.826,3.131,3.131,0,0,0,3.1-3.073A2,2,0,0,0,35.216,15.866Zm-3.479,3.247a7.789,7.789,0,0,0,.421-1.251h.262A1.751,1.751,0,0,1,31.737,19.113Zm2.105-7.14v3.892a.623.623,0,0,1-.623.623h-.834V11.351h.834A.623.623,0,0,1,33.842,11.974Zm-9.013-10.6A7.865,7.865,0,0,1,29.912,3.8,11.3,11.3,0,0,1,32.6,8.194c.149.417.286.859.408,1.312a.685.685,0,0,0,.415.461h-.2a.688.688,0,0,0-.116.011h-.733a.686.686,0,0,0-1.049-.434,9.048,9.048,0,0,1-3.84.878,11.35,11.35,0,0,1-7.1-2.58l-2.467-2.66A8.69,8.69,0,0,1,19.52,3.335,8.421,8.421,0,0,1,24.829,1.376Zm-7.311.18a5.774,5.774,0,0,1,1.715.262c-.2.146-.4.3-.6.472A10.323,10.323,0,0,0,16.468,4.9h0l0,.005-.005.008v0a9.108,9.108,0,0,0-1.37,5.2,2,2,0,0,0-1.251,1.6A5.748,5.748,0,0,1,17.519,1.556ZM45.561,41.033a3.554,3.554,0,0,1-3.55,3.55H6.116a3.554,3.554,0,0,1-3.55-3.55V40.3H45.561Z" transform="translate(-1.193 0)" fill="url(#linear-gradient)"/>
      </g>
    </g>
    <g id="Group_12996" data-name="Group 12996" transform="translate(20.997 12.247)">
      <g id="Group_12995" data-name="Group 12995">
        <circle id="Ellipse_343" data-name="Ellipse 343" cx="0.673" cy="0.673" r="0.673" fill="#0094c4"/>
      </g>
    </g>
    <g id="Group_12998" data-name="Group 12998" transform="translate(26.409 12.247)">
      <g id="Group_12997" data-name="Group 12997">
        <circle id="Ellipse_344" data-name="Ellipse 344" cx="0.673" cy="0.673" r="0.673" fill="#0094c4"/>
      </g>
    </g>
    <g id="Group_13000" data-name="Group 13000" transform="translate(21.843 16.94)">
      <g id="Group_12999" data-name="Group 12999">
        <path id="Path_18908" data-name="Path 18908" d="M236.3,188.925a.673.673,0,0,0-.952,0,2.087,2.087,0,0,1-2.948,0,.673.673,0,0,0-.952.952,3.435,3.435,0,0,0,4.852,0A.673.673,0,0,0,236.3,188.925Z" transform="translate(-231.254 -188.728)" fill="#0094c4"/>
      </g>
    </g>
  </g>
</svg>
