<svg xmlns="http://www.w3.org/2000/svg" viewBox="0 0 60.8 100.5" width="31" height="52"><style>.a{fill:#F6851F;stroke-width:0.8;stroke:#F6851F;}.b{fill:#156DA5;stroke-width:0.5;stroke:#146CA4;}</style><path d="M10 59.6c0 0.3 0.3 0.6 0.6 0.7l2.7 0.6c0.1 0.5 0.2 0.9 0.4 1.4l-2 1.8c-0.3 0.2-0.3 0.6-0.2 0.9 0.4 0.8 0.8 1.5 1.2 2.2 0.2 0.3 0.5 0.4 0.9 0.3l2.6-0.8c0.3 0.4 0.6 0.7 1 1l-0.8 2.6c-0.1 0.3 0 0.7 0.3 0.9 0.6 0.4 1.4 0.9 2.2 1.2 0.3 0.1 0.7 0.1 0.9-0.2l1.8-2c0.4 0.1 0.9 0.3 1.4 0.4l0.6 2.7c0.1 0.3 0.4 0.6 0.7 0.6 0.4 0 0.8 0.1 1.2 0.1s0.8 0 1.2-0.1c0.3 0 0.6-0.3 0.7-0.6l0.6-2.7c0.5-0.1 0.9-0.2 1.4-0.4l1.8 2c0.2 0.3 0.6 0.3 0.9 0.2 0.8-0.4 1.5-0.8 2.2-1.2 0.3-0.2 0.4-0.5 0.3-0.9l-0.8-2.6c0.4-0.3 0.7-0.6 1-1l2.6 0.8c0.3 0.1 0.7 0 0.9-0.3 0.4-0.6 0.9-1.4 1.2-2.2 0.1-0.3 0.1-0.7-0.2-0.9l-2-1.8c0.1-0.4 0.3-0.9 0.4-1.4l2.7-0.6c0.3-0.1 0.6-0.4 0.6-0.7 0-0.4 0.1-0.8 0.1-1.2s0-0.8-0.1-1.2c0-0.3-0.3-0.6-0.6-0.7l-2.7-0.6c-0.1-0.5-0.2-0.9-0.4-1.4l2-1.8c0.3-0.2 0.3-0.6 0.2-0.9 -0.4-0.8-0.8-1.5-1.2-2.2 -0.2-0.3-0.5-0.4-0.9-0.3l-2.6 0.8c-0.3-0.4-0.6-0.7-1-1l0.8-2.6c0.1-0.3 0-0.7-0.3-0.9 -0.6-0.4-1.4-0.9-2.2-1.2 -0.3-0.1-0.7-0.1-0.9 0.2l-1.8 2c-0.4-0.1-0.9-0.3-1.4-0.4l-0.6-2.7c-0.1-0.3-0.4-0.6-0.7-0.6 -0.8-0.1-1.7-0.1-2.5 0 -0.3 0-0.6 0.3-0.7 0.6l-0.6 2.7c-0.5 0.1-0.9 0.2-1.4 0.4l-1.8-2c-0.2-0.3-0.6-0.3-0.9-0.2 -0.8 0.4-1.5 0.8-2.2 1.2 -0.3 0.2-0.4 0.5-0.3 0.9l0.8 2.6c-0.4 0.3-0.7 0.6-1 1l-2.6-0.8c-0.3-0.1-0.7 0-0.9 0.3 -0.4 0.6-0.9 1.4-1.2 2.2 -0.1 0.3-0.1 0.7 0.2 0.9l2 1.8c-0.1 0.4-0.3 0.9-0.4 1.4l-2.7 0.6c-0.3 0.1-0.6 0.4-0.6 0.7 0 0.4-0.1 0.8-0.1 1.2S9.9 59.2 10 59.6L10 59.6zM11.5 57.8l2.6-0.6c0.3-0.1 0.5-0.3 0.6-0.6 0.1-0.7 0.3-1.4 0.6-2.1 0.1-0.3 0-0.6-0.2-0.8l-2-1.8c0.2-0.3 0.4-0.6 0.5-1l2.6 0.8c0.3 0.1 0.6 0 0.8-0.2 0.5-0.6 1-1.1 1.5-1.5 0.2-0.2 0.3-0.5 0.2-0.8l-0.8-2.5c0.3-0.2 0.6-0.4 1-0.5l1.8 2c0.2 0.2 0.6 0.3 0.8 0.2 0.7-0.3 1.4-0.4 2.1-0.6 0.3-0.1 0.6-0.3 0.6-0.6l0.6-2.6c0.4 0 0.7 0 1.1 0l0.6 2.6c0.1 0.3 0.3 0.5 0.6 0.6 0.7 0.1 1.4 0.3 2.1 0.6 0.3 0.1 0.6 0 0.8-0.2l1.8-2c0.3 0.2 0.7 0.4 1 0.5l-0.8 2.6c-0.1 0.3 0 0.6 0.2 0.8 0.6 0.5 1.1 1 1.5 1.5 0.2 0.2 0.5 0.3 0.8 0.2l2.6-0.8c0.2 0.3 0.4 0.6 0.5 1l-2 1.8c-0.2 0.2-0.3 0.6-0.2 0.8 0.3 0.7 0.4 1.4 0.6 2.1 0.1 0.3 0.3 0.6 0.6 0.6l2.6 0.6c0 0.2 0 0.4 0 0.5s0 0.4 0 0.5l-2.6 0.6c-0.3 0.1-0.5 0.3-0.6 0.6 -0.1 0.7-0.3 1.4-0.6 2.1 -0.1 0.3 0 0.6 0.2 0.8l2 1.8c-0.2 0.3-0.4 0.7-0.5 1l-2.5-0.8c-0.3-0.1-0.6 0-0.8 0.2 -0.5 0.6-1 1.1-1.5 1.5 -0.2 0.2-0.3 0.5-0.2 0.8l0.8 2.6c-0.3 0.2-0.6 0.4-0.9 0.5l-1.8-2c-0.2-0.2-0.5-0.3-0.8-0.2 -0.7 0.3-1.4 0.4-2.1 0.6 -0.3 0.1-0.6 0.3-0.6 0.6l-0.6 2.6c-0.4 0-0.7 0-1.1 0l-0.6-2.6c-0.1-0.3-0.3-0.5-0.6-0.6 -0.7-0.1-1.4-0.3-2.1-0.6 -0.3-0.1-0.6 0-0.8 0.2l-1.8 2c-0.3-0.2-0.6-0.4-1-0.5l0.8-2.5c0.1-0.3 0-0.6-0.2-0.8 -0.6-0.5-1.1-1-1.5-1.5 -0.2-0.2-0.5-0.3-0.8-0.2l-2.5 0.8c-0.2-0.3-0.4-0.6-0.5-1l2-1.8c0.2-0.2 0.3-0.5 0.2-0.8 -0.3-0.7-0.4-1.4-0.6-2.1 -0.1-0.3-0.3-0.6-0.6-0.6l-2.6-0.6c0-0.2 0-0.4 0-0.5S11.5 58 11.5 57.8z" class="a"/><path d="M50.3 38.5c0.3-0.1 0.5-0.3 0.5-0.6 0-0.4 0.1-0.7 0.1-1.1s0-0.7-0.1-1.1c0-0.3-0.2-0.6-0.5-0.6l-2.1-0.7c-0.1-0.2-0.1-0.3-0.2-0.5l1-2c0.1-0.3 0.1-0.6-0.1-0.8 -0.4-0.6-1-1.1-1.5-1.5 -0.2-0.2-0.6-0.2-0.8-0.1l-2 1c-0.2-0.1-0.3-0.1-0.5-0.2l-0.7-2.1c-0.1-0.3-0.3-0.5-0.6-0.5 -0.8-0.1-1.4-0.1-2.2 0 -0.3 0-0.6 0.2-0.6 0.5l-0.7 2.1c-0.2 0.1-0.3 0.1-0.5 0.2l-2-1c-0.3-0.1-0.6-0.1-0.8 0.1 -0.6 0.4-1.1 1-1.5 1.5 -0.2 0.2-0.2 0.6-0.1 0.8l1 2c-0.1 0.2-0.1 0.3-0.2 0.5l-2.1 0.7c-0.3 0.1-0.5 0.3-0.5 0.6 0 0.4-0.1 0.7-0.1 1.1s0 0.7 0.1 1.1c0 0.3 0.2 0.6 0.5 0.6l2.1 0.7c0.1 0.2 0.1 0.3 0.2 0.5l-1 2c-0.1 0.3-0.1 0.6 0.1 0.8 0.4 0.6 1 1.1 1.5 1.5 0.2 0.2 0.6 0.2 0.8 0.1l2-1c0.2 0.1 0.3 0.1 0.5 0.2l0.7 2.1c0.1 0.3 0.3 0.5 0.6 0.5 0.4 0 0.7 0.1 1.1 0.1 0.3 0 0.7 0 1.1-0.1 0.3 0 0.6-0.2 0.6-0.5l0.7-2.1c0.2-0.1 0.3-0.1 0.5-0.2l2 1c0.3 0.1 0.6 0.1 0.8-0.1 0.6-0.4 1.1-1 1.5-1.5 0.2-0.2 0.2-0.6 0.1-0.8l-1-2c0.1-0.2 0.1-0.3 0.2-0.5L50.3 38.5zM47.3 37.8c-0.2 0.1-0.4 0.3-0.5 0.5 -0.1 0.4-0.2 0.7-0.4 1 -0.1 0.2-0.1 0.5 0 0.7l1 1.9c-0.2 0.2-0.4 0.4-0.6 0.6l-1.9-1c-0.2-0.1-0.5-0.1-0.7 0 -0.3 0.2-0.7 0.3-1 0.4 -0.2 0.1-0.4 0.3-0.5 0.5l-0.6 2c-0.3 0-0.5 0-0.8 0l-0.6-2c-0.1-0.2-0.3-0.4-0.5-0.5 -0.3-0.1-0.7-0.2-1-0.4 -0.2-0.1-0.5-0.1-0.7 0l-1.9 1c-0.2-0.2-0.4-0.4-0.6-0.6l1-1.9c0.1-0.2 0.1-0.5 0-0.7 -0.2-0.3-0.3-0.7-0.4-1 -0.1-0.2-0.3-0.4-0.5-0.5l-2-0.6c0-0.1 0-0.3 0-0.4 0-0.1 0-0.3 0-0.4l2-0.6c0.2-0.1 0.4-0.3 0.5-0.5 0.1-0.3 0.2-0.7 0.4-1 0.1-0.2 0.1-0.5 0-0.7l-1-1.9c0.2-0.2 0.4-0.4 0.6-0.6l1.9 1c0.2 0.1 0.5 0.1 0.7 0 0.3-0.2 0.7-0.3 1-0.4 0.2-0.1 0.4-0.3 0.5-0.5l0.6-2c0.3 0 0.5 0 0.8 0l0.6 2c0.1 0.2 0.3 0.4 0.5 0.5 0.4 0.1 0.7 0.2 1 0.4 0.2 0.1 0.5 0.1 0.7 0l1.9-1c0.2 0.2 0.4 0.4 0.6 0.6l-1 1.9c-0.1 0.2-0.1 0.5 0 0.7 0.2 0.3 0.3 0.7 0.4 1 0.1 0.2 0.3 0.4 0.5 0.5l2 0.6c0 0.1 0 0.3 0 0.4 0 0.1 0 0.3 0 0.4L47.3 37.8z" class="a"/><path d="M25.4 66.9c4.7 0 8.5-3.8 8.5-8.5s-3.8-8.5-8.5-8.5 -8.5 3.8-8.5 8.5S20.7 66.9 25.4 66.9zM25.4 51.4c3.8 0 7 3.1 7 7s-3.1 7-7 7 -7-3.1-7-7S21.5 51.4 25.4 51.4z" class="a"/><path d="M9.9 43.3l1.2 1c3.5-4.2 8.7-6.7 14.3-6.7 0.4 0 0.8 0 1.2 0l-1 1 1.1 1.1 2.3-2.3c0.3-0.3 0.3-0.8 0-1.1l-2.3-2.3 -1.1 1.1 1.1 1.1c-0.4 0-0.9-0.1-1.3-0.1C19.4 36.1 13.8 38.7 9.9 43.3L9.9 43.3z" class="a"/><path d="M41.6 32.9c-2.1 0-3.9 1.7-3.9 3.9s1.7 3.9 3.9 3.9c2.1 0 3.9-1.7 3.9-3.9S43.8 32.9 41.6 32.9zM41.6 39.1c-1.3 0-2.3-1-2.3-2.3s1-2.3 2.3-2.3c1.3 0 2.3 1 2.3 2.3S42.9 39.1 41.6 39.1z" class="a"/><path d="M50.2 50.8l-3.9-0.8c-0.4-0.1-0.8 0.2-0.9 0.6l-0.8 3.9 1.5 0.3 0.4-2.1c0.8 1.6 1.1 3.3 1.1 5 0 2.7-0.9 5.2-2.5 7.3l1.2 1c1.9-2.3 2.9-5.2 2.9-8.2 0-2-0.5-4-1.4-5.8l2 0.4L50.2 50.8z" class="a"/><path d="M25.8 8.1c0.9 0 1.6-0.7 1.6-1.6s-0.7-1.6-1.6-1.6h0c-0.9 0-1.6 0.7-1.6 1.6S24.9 8.1 25.8 8.1z" class="b"/><path d="M30.4 8.1h4.7c0.9 0 1.6-0.7 1.6-1.6s-0.7-1.6-1.6-1.6h-4.7c-0.9 0-1.6 0.7-1.6 1.6S29.5 8.1 30.4 8.1z" class="b"/><path d="M60.6 95.3V9.6c0-5.2-4.2-9.4-9.4-9.4 0 0 0 0 0 0H9.6c-5.2 0-9.4 4.2-9.4 9.4v85.6c0 6 4.9 4.9 10.9 4.9h36.4C53.6 100.2 60.6 101.3 60.6 95.3zM57.4 84.3H3.4V12.8h54.1L57.4 84.3 57.4 84.3zM3.4 87.5h27 27v6.6c0 1.6-1.3 2.8-2.8 2.8H30.4 6.4c-1.7 0-3-1.4-3-3V87.5zM9.6 3.4H51.2c0 0 0 0 0 0 3.5 0 6.3 2.8 6.3 6.3H3.4V9.6C3.4 6.2 6.2 3.4 9.6 3.4L9.6 3.4z" class="b"/><path d="M27.3 92c0 1.7 1.4 3.1 3.1 3.1s3.1-1.4 3.1-3.1 -1.4-3.1-3.1-3.1S27.3 90.2 27.3 92zM30.4 90.9c0.6 0 1 0.5 1 1s-0.5 1-1 1 -1-0.5-1-1S29.8 90.9 30.4 90.9z" class="b"/></svg>
