<svg xmlns="http://www.w3.org/2000/svg" viewBox="0 0 100.8 100.8" width="52" height="52"><style>.a{fill:#146CA4;stroke-width:0.8;stroke:#146CA4;}.b{fill:#F6851F;stroke-width:0.8;stroke:#F6851F;}</style><path d="M95.4 0.4h-90c-2.8 0-5 2.2-5 5v61.7c0 2.8 2.2 5 5 5h17.4c0.1 0.2 0 0.5-0.1 0.7l-4.2 7c-1.2 2-0.9 4.5 0.8 6.1l5.7 5.7c1.6 1.6 4.1 1.9 6.1 0.8l7-4.2c0.3-0.1 0.6-0.1 0.9 0 0.3 0.1 0.5 0.3 0.6 0.6l2 7.9c0.6 2.2 2.6 3.8 4.9 3.8h8.1c2.3 0 4.3-1.6 4.9-3.8l2-7.9c0.1-0.3 0.3-0.5 0.6-0.6 0.3-0.1 0.6-0.1 0.8 0l7 4.2c2 1.2 4.5 0.9 6.1-0.8l5.7-5.7c1.6-1.6 1.9-4.1 0.8-6.1l-4.2-7c-0.1-0.2-0.1-0.4-0.1-0.6h17.4c2.8 0 5-2.2 5-5V5.4C100.4 2.6 98.1 0.4 95.4 0.4L95.4 0.4zM87 64.4c0 0.8-0.5 1.4-1.3 1.6l-7.9 2c-1.3 0.4-2.4 1.3-2.9 2.6 -0.5 1.2-0.4 2.7 0.3 3.8l4.2 7c0.4 0.7 0.3 1.5-0.2 2l-5.7 5.8c-0.5 0.5-1.4 0.7-2 0.3l-7-4.2c-2.1-1.2-4.7-0.5-6 1.6 -0.2 0.3-0.3 0.7-0.4 1l-2 7.9c-0.2 0.7-0.9 1.3-1.6 1.3h-8.1c-0.8 0-1.4-0.5-1.6-1.3l-2-7.9c-0.4-1.3-1.3-2.4-2.6-2.9 -0.5-0.2-1.1-0.3-1.7-0.3 -0.8 0-1.5 0.2-2.1 0.6l-7 4.2c-0.7 0.4-1.5 0.3-2-0.2l-5.7-5.7c-0.5-0.5-0.7-1.4-0.2-2l4.2-7c1.2-2.1 0.5-4.7-1.6-6 -0.3-0.2-0.7-0.3-1-0.4l-7.9-2c-0.7-0.2-1.3-0.9-1.3-1.6v-8.1c0-0.8 0.5-1.4 1.3-1.6l7.9-2c1.3-0.4 2.4-1.3 2.9-2.6 0.5-1.2 0.4-2.7-0.3-3.8l-4.2-7c-0.4-0.7-0.3-1.5 0.3-2l5.8-5.7c0.5-0.5 1.4-0.7 2-0.2l7 4.2c2.1 1.2 4.7 0.5 6-1.6 0.2-0.3 0.3-0.7 0.4-1l2-7.9c0.2-0.7 0.9-1.3 1.6-1.3h8.1c0.8 0 1.4 0.5 1.6 1.3l2 7.9c0.4 1.3 1.3 2.4 2.6 2.9 1.2 0.5 2.7 0.4 3.8-0.3l7-4.2c0.7-0.4 1.5-0.3 2 0.3l5.8 5.8c0.5 0.5 0.7 1.4 0.3 2l-4.2 7c-1.2 2.1-0.5 4.7 1.6 6 0.3 0.2 0.7 0.3 1 0.4l7.9 2c0.7 0.2 1.3 0.9 1.3 1.6L87 64.4zM97 67c0 0.9-0.7 1.7-1.7 1.7h-7.4c1.5-0.9 2.4-2.5 2.4-4.3v-8.1c0-2.3-1.6-4.3-3.8-4.8l-7.9-2c-0.2-0.1-0.4-0.2-0.6-0.4 0 0 0-0.1-0.1-0.2 -0.1-0.3-0.1-0.6 0-0.8l4.2-7c1.2-2 0.9-4.5-0.8-6.1l-5.7-5.7c-1.6-1.6-4.1-1.9-6.1-0.8l-7 4.2c-0.3 0.1-0.6 0.1-0.9 0 -0.3-0.1-0.5-0.3-0.6-0.6l-2-7.9c-0.6-2.2-2.6-3.8-4.8-3.8h-8.1c-2.3 0-4.3 1.6-4.8 3.8l-2 7.9c-0.1 0.3-0.3 0.5-0.6 0.6 -0.3 0.1-0.6 0.1-0.8 0l-7-4.2c-2-1.2-4.5-0.9-6.1 0.8l-5.7 5.7c-1.6 1.6-1.9 4.1-0.8 6.1l4.2 7c0.1 0.3 0.1 0.6 0 0.9 -0.1 0.3-0.3 0.5-0.6 0.6l-7.9 2c-2.2 0.6-3.8 2.6-3.8 4.9v8.1c0 1.7 0.9 3.4 2.4 4.3H5.4c-0.9 0-1.7-0.7-1.7-1.7v-50h93.3V67zM97 13.7H3.7V5.4c0-0.9 0.7-1.7 1.7-1.7h90c0.9 0 1.7 0.7 1.7 1.7V13.7z" class="a"/><path d="M7 7h3.3v3.3H7V7z" class="a"/><path d="M13.7 7h3.3v3.3h-3.3V7z" class="a"/><path d="M20.4 7h3.3v3.3h-3.3V7z" class="a"/><path d="M50.4 40.4c-11 0-20 9-20 20s9 20 20 20 20-9 20-20C70.4 49.3 61.4 40.4 50.4 40.4zM50.4 77c-9.2 0-16.7-7.5-16.7-16.7s7.5-16.7 16.7-16.7 16.7 7.5 16.7 16.7C67 69.6 59.6 77 50.4 77z" class="b"/><path d="M48.7 58.7h3.3v3.3h-3.3V58.7z" class="b"/><path d="M55.4 58.7h3.3v3.3h-3.3V58.7z" class="b"/><path d="M42 58.7h3.3v3.3h-3.3V58.7z" class="b"/></svg>
