<?xml version="1.0" encoding="utf-8"?>
<!-- Generator: Adobe Illustrator 24.0.2, SVG Export Plug-In . SVG Version: 6.00 Build 0)  -->
<svg version="1.1" id="Layer_1" xmlns="http://www.w3.org/2000/svg" xmlns:xlink="http://www.w3.org/1999/xlink" x="0px" y="0px"
	 viewBox="0 0 100 72.07" enable-background="new 0 0 100 72.07" xml:space="preserve" height="52" width="72">
<g>
	<g>
		<path fill="#146CA4" d="M92.676,0h-5.129c-0.809,0-1.465,0.656-1.465,1.465s0.656,1.465,1.465,1.465h5.129
			c2.423,0,4.395,1.971,4.395,4.395v6.738H2.93V7.324c0-2.423,1.971-4.395,4.395-4.395h83.556c0.809,0,1.465-0.656,1.465-1.465
			S91.69,0,90.881,0H7.324C3.286,0,0,3.286,0,7.324v23.961c0,0.809,0.656,1.465,1.465,1.465s1.465-0.656,1.465-1.465V16.992H97.07
			v45.579c0,0.809,0.656,1.465,1.465,1.465S100,63.381,100,62.571V7.324C100,3.286,96.714,0,92.676,0z"/>
		<path fill="#146CA4" d="M98.535,59.471c-0.809,0-1.465,0.656-1.465,1.465v3.81c0,2.423-1.971,4.395-4.395,4.395H7.324
			c-2.423,0-4.395-1.971-4.395-4.395V29.759c0-0.809-0.656-1.465-1.465-1.465S0,28.95,0,29.759v34.987
			c0,4.039,3.286,7.324,7.324,7.324h85.352c4.039,0,7.324-3.286,7.324-7.324v-3.81C100,60.127,99.344,59.471,98.535,59.471z"/>
		<path fill="#F6851F" stroke="#F6851F" stroke-miterlimit="10" d="M21.188,31.828c-0.572-0.572-1.5-0.572-2.071,0l-8.803,8.803
			c-0.275,0.275-0.429,0.647-0.429,1.036c0,0.389,0.154,0.761,0.429,1.036L19,51.388c0.286,0.286,0.661,0.429,1.036,0.429
			c0.375,0,0.75-0.143,1.036-0.429c0.572-0.572,0.572-1.5,0-2.072l-7.651-7.65l7.767-7.767C21.76,33.327,21.76,32.4,21.188,31.828
			L21.188,31.828z"/>
		<path fill="#F6851F" stroke="#F6851F" stroke-miterlimit="10" d="M40.887,51.388c0.286,0.286,0.661,0.429,1.036,0.429
			c0.375,0,0.75-0.143,1.036-0.429l8.687-8.686c0.275-0.275,0.429-0.647,0.429-1.036c0-0.389-0.154-0.761-0.429-1.036l-8.803-8.803
			c-0.572-0.572-1.5-0.572-2.071,0c-0.572,0.572-0.572,1.5,0,2.072l7.767,7.767l-7.651,7.65
			C40.315,49.889,40.315,50.816,40.887,51.388L40.887,51.388z"/>
		<path fill="#F6851F" stroke="#F6851F" stroke-miterlimit="10" d="M25.779,56.784c0.591,0,1.148-0.36,1.37-0.946l10.409-27.421
			c0.287-0.756-0.093-1.602-0.85-1.889c-0.756-0.287-1.602,0.093-1.889,0.85L24.41,54.799c-0.287,0.756,0.093,1.602,0.85,1.889
			C25.431,56.753,25.606,56.784,25.779,56.784L25.779,56.784z"/>
		<path fill="#146CA4" d="M6.446,8.569c0,2.423,1.971,4.395,4.395,4.395s4.395-1.971,4.395-4.395s-1.971-4.395-4.395-4.395
			S6.446,6.146,6.446,8.569z M12.306,8.569c0,0.808-0.657,1.465-1.465,1.465S9.376,9.376,9.376,8.569s0.657-1.465,1.465-1.465
			S12.306,7.761,12.306,8.569z"/>
		<path fill="#146CA4" d="M17.806,8.569c0,2.423,1.971,4.395,4.395,4.395s4.395-1.971,4.395-4.395S24.624,4.174,22.2,4.174
			S17.806,6.146,17.806,8.569z M23.665,8.569c0,0.808-0.657,1.465-1.465,1.465c-0.808,0-1.465-0.657-1.465-1.465
			s0.657-1.465,1.465-1.465C23.008,7.104,23.665,7.761,23.665,8.569z"/>
		<path fill="#146CA4" d="M29.165,8.569c0,2.423,1.971,4.395,4.395,4.395s4.395-1.971,4.395-4.395s-1.971-4.395-4.395-4.395
			S29.165,6.146,29.165,8.569z M35.024,8.569c0,0.808-0.657,1.465-1.465,1.465s-1.465-0.657-1.465-1.465s0.657-1.465,1.465-1.465
			S35.024,7.761,35.024,8.569z"/>
		<path fill="#F6851F" d="M65.527,33.373h9.18c2.423,0,4.395-1.971,4.395-4.395s-1.971-4.395-4.395-4.395h-9.18
			c-2.423,0-4.395,1.971-4.395,4.395S63.104,33.373,65.527,33.373z M65.527,27.513h9.18c0.808,0,1.465,0.657,1.465,1.465
			c0,0.808-0.657,1.465-1.465,1.465h-9.18c-0.808,0-1.465-0.657-1.465-1.465C64.063,28.17,64.72,27.513,65.527,27.513z"/>
		<path fill="#F6851F" d="M65.527,45.091h24.219c2.423,0,4.395-1.971,4.395-4.395c0-2.423-1.971-4.395-4.395-4.395H65.527
			c-2.423,0-4.395,1.971-4.395,4.395C61.133,43.12,63.104,45.091,65.527,45.091z M65.527,39.232h24.219
			c0.808,0,1.465,0.657,1.465,1.465c0,0.808-0.657,1.465-1.465,1.465H65.527c-0.808,0-1.465-0.657-1.465-1.465
			C64.063,39.889,64.72,39.232,65.527,39.232z"/>
		<path fill="#F6851F" d="M65.527,56.81h17.024c2.423,0,4.395-1.971,4.395-4.395c0-2.423-1.971-4.395-4.395-4.395H65.527
			c-2.423,0-4.395,1.971-4.395,4.395C61.133,54.839,63.104,56.81,65.527,56.81z M65.527,50.951h17.024
			c0.808,0,1.465,0.657,1.465,1.465c0,0.808-0.657,1.465-1.465,1.465H65.527c-0.808,0-1.465-0.657-1.465-1.465
			C64.063,51.608,64.72,50.951,65.527,50.951z"/>
	</g>
</g>
</svg>
