<svg xmlns="http://www.w3.org/2000/svg" width="696.944" height="325.53" viewBox="0 0 696.944 325.53">
  <g id="Ecommerce_software_development" data-name="Ecommerce software development" transform="translate(-2139.655 -879.409)">
    <path id="Path_19643" data-name="Path 19643" d="M3799.639,879.409l-61.106,20.209,12.268,10.224-52.874,55.35-46.734-40.126-127.086,112.659,20.074,22.645,107.33-95.146,48.476,41.621,74.115-77.586,13.24,11.035Z" transform="translate(-1092.092)" fill="#323843"/>
    <g id="Group_13576" data-name="Group 13576" transform="translate(2503.416 923.572)">
      <path id="Path_19644" data-name="Path 19644" d="M3862.228,1088.541h74.695s14-1.048,8.354,117.866h-77.669v-93.269S3868.058,1094.42,3862.228,1088.541Z" transform="translate(-3862.228 -1088.54)" fill="#c6d4e2"/>
      <path id="Path_19645" data-name="Path 19645" d="M3864.616,1088.541h74.7s14-1.048,8.354,117.866H3870v-93.269S3870.447,1094.42,3864.616,1088.541Z" transform="translate(-3864.112 -1088.54)" fill="#61617b"/>
      <g id="Group_13574" data-name="Group 13574" transform="translate(38.065 65.384)">
        <path id="Path_19646" data-name="Path 19646" d="M4052.316,1417.832a9.834,9.834,0,1,1,9.834-9.834A9.845,9.845,0,0,1,4052.316,1417.832Zm0-18.494a8.66,8.66,0,1,0,8.66,8.66A8.669,8.669,0,0,0,4052.316,1399.338Z" transform="translate(-4042.482 -1398.164)" fill="#c6d4e2"/>
      </g>
      <g id="Group_13575" data-name="Group 13575" transform="translate(12.886 9.299)">
        <path id="Path_19647" data-name="Path 19647" d="M3924.5,1135.072h61.079a1.248,1.248,0,1,0,0-2.5H3924.5a1.248,1.248,0,0,0,0,2.5Z" transform="translate(-3923.248 -1132.577)" fill="#c6d4e2"/>
        <path id="Rectangle_2699" data-name="Rectangle 2699" d="M.888,0H43.581a.888.888,0,0,1,.888.888v0a.888.888,0,0,1-.888.888H.888A.888.888,0,0,1,0,.888v0A.888.888,0,0,1,.888,0Z" transform="translate(0.888 14.22)" fill="#c6d4e2"/>
        <path id="Path_19648" data-name="Path 19648" d="M4203.166,1195.709h-3.645a.888.888,0,0,0,0,1.776h3.645a.888.888,0,0,0,0-1.776Z" transform="translate(-4140.479 -1182.377)" fill="#c6d4e2"/>
        <path id="Rectangle_2700" data-name="Rectangle 2700" d="M.888,0H43.581a.888.888,0,0,1,.888.888v0a.888.888,0,0,1-.888.888H.888A.888.888,0,0,1,0,.888v0A.888.888,0,0,1,.888,0Z" transform="translate(0.888 21.168)" fill="#c6d4e2"/>
        <path id="Path_19649" data-name="Path 19649" d="M4203.166,1228.609h-3.645a.888.888,0,0,0,0,1.776h3.645a.888.888,0,0,0,0-1.776Z" transform="translate(-4140.479 -1208.33)" fill="#c6d4e2"/>
        <path id="Rectangle_2701" data-name="Rectangle 2701" d="M.888,0H43.581a.888.888,0,0,1,.888.888v0a.888.888,0,0,1-.888.888H.888A.888.888,0,0,1,0,.888v0A.888.888,0,0,1,.888,0Z" transform="translate(0.888 26.7)" fill="#c6d4e2"/>
        <path id="Path_19650" data-name="Path 19650" d="M4203.166,1254.809h-3.645a.888.888,0,0,0,0,1.776h3.645a.888.888,0,0,0,0-1.776Z" transform="translate(-4140.479 -1228.997)" fill="#c6d4e2"/>
        <path id="Rectangle_2702" data-name="Rectangle 2702" d="M.888,0H43.581a.888.888,0,0,1,.888.888v0a.888.888,0,0,1-.888.888H.888A.888.888,0,0,1,0,.888v0A.888.888,0,0,1,.888,0Z" transform="translate(0.888 33.012)" fill="#c6d4e2"/>
        <path id="Path_19651" data-name="Path 19651" d="M4203.166,1284.7h-3.645a.888.888,0,0,0,0,1.776h3.645a.888.888,0,0,0,0-1.776Z" transform="translate(-4140.479 -1252.574)" fill="#c6d4e2"/>
        <path id="Rectangle_2703" data-name="Rectangle 2703" d="M.888,0H43.581a.888.888,0,0,1,.888.888v0a.888.888,0,0,1-.888.888H.888A.888.888,0,0,1,0,.888v0A.888.888,0,0,1,.888,0Z" transform="translate(0.888 39.4)" fill="#c6d4e2"/>
        <path id="Path_19652" data-name="Path 19652" d="M4203.166,1314.947h-3.645a.888.888,0,0,0,0,1.776h3.645a.888.888,0,0,0,0-1.776Z" transform="translate(-4140.479 -1276.435)" fill="#c6d4e2"/>
        <path id="Rectangle_2704" data-name="Rectangle 2704" d="M.888,0H43.581a.888.888,0,0,1,.888.888v0a.888.888,0,0,1-.888.888H.888A.888.888,0,0,1,0,.888v0A.888.888,0,0,1,.888,0Z" transform="translate(0.888 45.787)" fill="#c6d4e2"/>
        <path id="Path_19653" data-name="Path 19653" d="M4203.166,1345.2h-3.645a.888.888,0,0,0,0,1.776h3.645a.888.888,0,0,0,0-1.776Z" transform="translate(-4140.479 -1300.297)" fill="#c6d4e2"/>
        <path id="Path_19654" data-name="Path 19654" d="M3985.574,1152.04H3924.5a1.247,1.247,0,0,0,0,2.495h61.079a1.247,1.247,0,1,0,0-2.495Z" transform="translate(-3923.248 -1147.93)" fill="#c6d4e2"/>
        <path id="Path_19655" data-name="Path 19655" d="M4068.085,1407.53a16.463,16.463,0,0,0-4.723-.807s4.827,3.229,5.415,5.724c0,0,2.8-8.66,8.592-13.651C4077.368,1398.8,4070.365,1401.915,4068.085,1407.53Z" transform="translate(-4033.773 -1342.578)" fill="#c6d4e2"/>
      </g>
    </g>
    <path id="Path_19656" data-name="Path 19656" d="M2835.916,2415.832H2140.339a.686.686,0,0,1-.684-.684h0a.686.686,0,0,1,.684-.683h695.577a.686.686,0,0,1,.684.683h0A.686.686,0,0,1,2835.916,2415.832Z" transform="translate(0 -1210.892)" fill="#61617b"/>
    <g id="Group_13599" data-name="Group 13599" transform="translate(2362.56 1033.492)">
      <g id="Group_13578" data-name="Group 13578" transform="translate(14.985 154.499)">
        <path id="Path_19657" data-name="Path 19657" d="M3413.107,2344.071v8.8a3.36,3.36,0,0,1-.581,1.894,3.415,3.415,0,0,1-1.592,1.269,3.168,3.168,0,0,1-.621.175,3.306,3.306,0,0,1-.6.054H3269.562a3.4,3.4,0,0,1-3.387-3.217c0-.058,0-.116,0-.174v-8.8c0-.058,0-.116,0-.174a3.4,3.4,0,0,1,3.387-3.217h140.155a3.328,3.328,0,0,1,.6.054,3.167,3.167,0,0,1,.621.174,3.412,3.412,0,0,1,1.592,1.269A3.361,3.361,0,0,1,3413.107,2344.071Z" transform="translate(-3266.171 -2340.68)" fill="#ffb93e"/>
        <path id="Path_19658" data-name="Path 19658" d="M3344.284,2356.261H3269.2a3.214,3.214,0,0,1-3.023-3.217c0-.058,0-.116,0-.174v-8.8c0-.058,0-.116,0-.174a3.214,3.214,0,0,1,3.023-3.217h65.865A27.916,27.916,0,0,0,3344.284,2356.261Z" transform="translate(-3266.171 -2340.68)" fill="#ffa412"/>
        <g id="Group_13577" data-name="Group 13577" transform="translate(51.495)">
          <rect id="Rectangle_2705" data-name="Rectangle 2705" width="1.593" height="15.581" transform="translate(76.794 0)" fill="#ffa412"/>
          <rect id="Rectangle_2706" data-name="Rectangle 2706" width="1.593" height="15.581" transform="translate(71.402 0)" fill="#ffa412"/>
          <rect id="Rectangle_2707" data-name="Rectangle 2707" width="1.593" height="15.581" transform="translate(64.936 0)" fill="#ffa412"/>
          <rect id="Rectangle_2708" data-name="Rectangle 2708" width="1.593" height="15.581" transform="translate(55.025 0)" fill="#ffa412"/>
          <rect id="Rectangle_2709" data-name="Rectangle 2709" width="1.593" height="15.581" transform="translate(44.544 0)" fill="#ffa412"/>
          <rect id="Rectangle_2710" data-name="Rectangle 2710" width="1.593" height="15.581" transform="translate(28.477 0)" fill="#ffa412"/>
          <rect id="Rectangle_2711" data-name="Rectangle 2711" width="1.593" height="15.581" transform="translate(13.433 0)" fill="#ffa412"/>
          <rect id="Rectangle_2712" data-name="Rectangle 2712" width="1.593" height="15.581" transform="translate(0 0)" fill="#ffa412"/>
          <rect id="Rectangle_2713" data-name="Rectangle 2713" width="1.593" height="15.581" transform="translate(81.927 0)" fill="#ffa412"/>
          <rect id="Rectangle_2714" data-name="Rectangle 2714" width="1.593" height="15.581" transform="translate(85.318 0)" fill="#ffa412"/>
          <rect id="Rectangle_2715" data-name="Rectangle 2715" width="1.593" height="15.581" transform="translate(88.592 0)" fill="#ffa412"/>
          <path id="Path_19659" data-name="Path 19659" d="M3942.8,2340.734v15.473a3.31,3.31,0,0,1-.6.054h-1V2340.68h1A3.332,3.332,0,0,1,3942.8,2340.734Z" transform="translate(-3850.155 -2340.68)" fill="#ffa412"/>
          <path id="Path_19660" data-name="Path 19660" d="M3953.284,2343.031v12.586a3.414,3.414,0,0,1-1.591,1.269v-15.124A3.412,3.412,0,0,1,3953.284,2343.031Z" transform="translate(-3858.424 -2341.533)" fill="#ffa412"/>
        </g>
      </g>
      <g id="Group_13580" data-name="Group 13580" transform="translate(0 138.917)">
        <path id="Path_19661" data-name="Path 19661" d="M3342.146,2270.286v8.8a3.363,3.363,0,0,1-.581,1.893,3.418,3.418,0,0,1-1.591,1.269,3.18,3.18,0,0,1-.621.175,3.337,3.337,0,0,1-.6.054H3198.6a3.4,3.4,0,0,1-3.388-3.217c0-.058,0-.116,0-.174v-8.8c0-.058,0-.116,0-.174a3.4,3.4,0,0,1,3.388-3.217h140.155c.09,0,.18,0,.268.011a1.117,1.117,0,0,1,.114.011c.042,0,.084.01.125.017s.061.009.09.015a3.2,3.2,0,0,1,.621.174l.088.036.086.038.17.083.1.054c.03.017.058.032.086.051.055.032.107.066.16.1s.118.084.174.13.088.069.131.106c0,0,.006,0,.008.008l.086.077a3.2,3.2,0,0,1,.246.253c.023.026.046.053.067.079s.043.054.066.083c.043.056.086.114.125.172A3.361,3.361,0,0,1,3342.146,2270.286Z" transform="translate(-3195.21 -2266.895)" fill="#ffb93e"/>
        <path id="Path_19662" data-name="Path 19662" d="M3273.323,2282.476h-75.086a3.214,3.214,0,0,1-3.024-3.217c0-.058,0-.116,0-.174v-8.8c0-.058,0-.116,0-.174a3.213,3.213,0,0,1,3.024-3.217H3264.1c.03.127.06.255.092.384A27.771,27.771,0,0,0,3273.323,2282.476Z" transform="translate(-3195.21 -2266.895)" fill="#ffa412"/>
        <g id="Group_13579" data-name="Group 13579" transform="translate(51.495)">
          <rect id="Rectangle_2716" data-name="Rectangle 2716" width="1.593" height="15.581" transform="translate(76.794 0.001)" fill="#ffa412"/>
          <rect id="Rectangle_2717" data-name="Rectangle 2717" width="1.593" height="15.581" transform="translate(71.402 0.001)" fill="#ffa412"/>
          <rect id="Rectangle_2718" data-name="Rectangle 2718" width="1.593" height="15.581" transform="translate(64.936 0.001)" fill="#ffa412"/>
          <rect id="Rectangle_2719" data-name="Rectangle 2719" width="1.593" height="15.581" transform="translate(55.025 0.001)" fill="#ffa412"/>
          <rect id="Rectangle_2720" data-name="Rectangle 2720" width="1.593" height="15.581" transform="translate(44.545 0.001)" fill="#ffa412"/>
          <rect id="Rectangle_2721" data-name="Rectangle 2721" width="1.593" height="15.581" transform="translate(28.477 0.001)" fill="#ffa412"/>
          <rect id="Rectangle_2722" data-name="Rectangle 2722" width="1.593" height="15.581" transform="translate(13.433 0.001)" fill="#ffa412"/>
          <rect id="Rectangle_2723" data-name="Rectangle 2723" width="1.593" height="15.581" transform="translate(0 0.001)" fill="#ffa412"/>
          <rect id="Rectangle_2724" data-name="Rectangle 2724" width="1.593" height="15.581" transform="translate(81.927 0.001)" fill="#ffa412"/>
          <rect id="Rectangle_2725" data-name="Rectangle 2725" width="1.593" height="15.581" transform="translate(85.318 0.001)" fill="#ffa412"/>
          <rect id="Rectangle_2726" data-name="Rectangle 2726" width="1.593" height="15.581" transform="translate(88.592 0.001)" fill="#ffa412"/>
          <path id="Path_19663" data-name="Path 19663" d="M3871.841,2266.948v15.473a3.356,3.356,0,0,1-.6.054h-1v-15.581h1A3.311,3.311,0,0,1,3871.841,2266.948Z" transform="translate(-3779.193 -2266.894)" fill="#ffa412"/>
          <path id="Path_19664" data-name="Path 19664" d="M3882.323,2269.246v12.586a3.417,3.417,0,0,1-1.592,1.269v-15.124A3.415,3.415,0,0,1,3882.323,2269.246Z" transform="translate(-3787.463 -2267.748)" fill="#ffa412"/>
        </g>
      </g>
      <g id="Group_13582" data-name="Group 13582" transform="translate(7.241 123.72)">
        <path id="Path_19665" data-name="Path 19665" d="M3376.438,2198.323v8.8a3.359,3.359,0,0,1-.581,1.893,3.419,3.419,0,0,1-1.592,1.269,3.155,3.155,0,0,1-.62.174,3.317,3.317,0,0,1-.6.055H3232.892a3.353,3.353,0,0,1-1.563-.385,3.406,3.406,0,0,1-1.813-2.681c-.006-.05-.01-.1-.011-.151s0-.116,0-.174v-8.8c0-.058,0-.116,0-.174a3.4,3.4,0,0,1,3.387-3.217h140.155a3.317,3.317,0,0,1,.6.054,3.189,3.189,0,0,1,.62.175,3.417,3.417,0,0,1,1.592,1.269A3.36,3.36,0,0,1,3376.438,2198.323Z" transform="translate(-3229.501 -2194.932)" fill="#ffb93e"/>
        <path id="Path_19666" data-name="Path 19666" d="M3307.614,2210.513h-75.086a2.737,2.737,0,0,1-1.4-.385,3.429,3.429,0,0,1-1.617-2.681c-.006-.05-.01-.1-.011-.151s0-.116,0-.174v-8.8c0-.058,0-.116,0-.174a3.214,3.214,0,0,1,3.024-3.217h65.865a28.1,28.1,0,0,0,8.76,15.2C3307.3,2210.258,3307.459,2210.385,3307.614,2210.513Z" transform="translate(-3229.501 -2194.932)" fill="#ffa412"/>
        <g id="Group_13581" data-name="Group 13581" transform="translate(51.495)">
          <rect id="Rectangle_2727" data-name="Rectangle 2727" width="1.593" height="15.581" transform="translate(76.794 0.001)" fill="#ffa412"/>
          <rect id="Rectangle_2728" data-name="Rectangle 2728" width="1.593" height="15.581" transform="translate(71.402 0.001)" fill="#ffa412"/>
          <rect id="Rectangle_2729" data-name="Rectangle 2729" width="1.593" height="15.581" transform="translate(64.936 0.001)" fill="#ffa412"/>
          <rect id="Rectangle_2730" data-name="Rectangle 2730" width="1.593" height="15.581" transform="translate(55.025 0.001)" fill="#ffa412"/>
          <rect id="Rectangle_2731" data-name="Rectangle 2731" width="1.593" height="15.581" transform="translate(44.544 0.001)" fill="#ffa412"/>
          <rect id="Rectangle_2732" data-name="Rectangle 2732" width="1.593" height="15.581" transform="translate(28.477 0.001)" fill="#ffa412"/>
          <rect id="Rectangle_2733" data-name="Rectangle 2733" width="1.593" height="15.581" transform="translate(13.433 0.001)" fill="#ffa412"/>
          <rect id="Rectangle_2734" data-name="Rectangle 2734" width="1.593" height="15.581" transform="translate(0 0.001)" fill="#ffa412"/>
          <rect id="Rectangle_2735" data-name="Rectangle 2735" width="1.593" height="15.581" transform="translate(81.927 0.001)" fill="#ffa412"/>
          <rect id="Rectangle_2736" data-name="Rectangle 2736" width="1.593" height="15.581" transform="translate(85.317 0.001)" fill="#ffa412"/>
          <rect id="Rectangle_2737" data-name="Rectangle 2737" width="1.593" height="15.581" transform="translate(88.592 0.001)" fill="#ffa412"/>
          <path id="Path_19667" data-name="Path 19667" d="M3906.134,2194.985v15.472a3.314,3.314,0,0,1-.6.054h-1v-15.581h1A3.314,3.314,0,0,1,3906.134,2194.985Z" transform="translate(-3813.486 -2194.931)" fill="#ffa412"/>
          <path id="Path_19668" data-name="Path 19668" d="M3916.616,2197.283v12.586a3.418,3.418,0,0,1-1.592,1.269v-15.124A3.417,3.417,0,0,1,3916.616,2197.283Z" transform="translate(-3821.755 -2195.785)" fill="#ffa412"/>
        </g>
      </g>
      <g id="Group_13584" data-name="Group 13584" transform="translate(10.599 108.139)">
        <path id="Path_19669" data-name="Path 19669" d="M3392.335,2124.539v8.8a3.36,3.36,0,0,1-.581,1.893,3.415,3.415,0,0,1-1.591,1.269,3.2,3.2,0,0,1-.621.174,3.3,3.3,0,0,1-.6.054H3248.79a3.4,3.4,0,0,1-3.387-3.217c0-.058,0-.116,0-.174v-8.8c0-.058,0-.116,0-.174a3.4,3.4,0,0,1,2.986-3.192,3.191,3.191,0,0,1,.4-.024h140.155a3.324,3.324,0,0,1,.6.054,3.2,3.2,0,0,1,.621.174,3.416,3.416,0,0,1,1.591,1.269A3.361,3.361,0,0,1,3392.335,2124.539Z" transform="translate(-3245.399 -2121.147)" fill="#ffb93e"/>
        <path id="Path_19670" data-name="Path 19670" d="M3323.512,2136.729h-75.086a3.215,3.215,0,0,1-3.024-3.217c0-.058,0-.116,0-.174v-8.8c0-.058,0-.116,0-.174a3.271,3.271,0,0,1,2.666-3.192,2.532,2.532,0,0,1,.358-.024h65.865c0,.008,0,.017.005.024A27.917,27.917,0,0,0,3323.512,2136.729Z" transform="translate(-3245.399 -2121.147)" fill="#ffa412"/>
        <g id="Group_13583" data-name="Group 13583" transform="translate(51.495)">
          <rect id="Rectangle_2738" data-name="Rectangle 2738" width="1.593" height="15.581" transform="translate(76.794 0.001)" fill="#ffa412"/>
          <rect id="Rectangle_2739" data-name="Rectangle 2739" width="1.593" height="15.581" transform="translate(71.402 0.001)" fill="#ffa412"/>
          <rect id="Rectangle_2740" data-name="Rectangle 2740" width="1.593" height="15.581" transform="translate(64.936 0.001)" fill="#ffa412"/>
          <rect id="Rectangle_2741" data-name="Rectangle 2741" width="1.593" height="15.581" transform="translate(55.025 0.001)" fill="#ffa412"/>
          <rect id="Rectangle_2742" data-name="Rectangle 2742" width="1.593" height="15.581" transform="translate(44.545 0.001)" fill="#ffa412"/>
          <rect id="Rectangle_2743" data-name="Rectangle 2743" width="1.593" height="15.581" transform="translate(28.477 0.001)" fill="#ffa412"/>
          <rect id="Rectangle_2744" data-name="Rectangle 2744" width="1.593" height="15.581" transform="translate(13.433 0.001)" fill="#ffa412"/>
          <rect id="Rectangle_2745" data-name="Rectangle 2745" width="1.593" height="15.581" transform="translate(0 0.001)" fill="#ffa412"/>
          <rect id="Rectangle_2746" data-name="Rectangle 2746" width="1.593" height="15.581" transform="translate(81.927 0.001)" fill="#ffa412"/>
          <rect id="Rectangle_2747" data-name="Rectangle 2747" width="1.593" height="15.581" transform="translate(85.318 0.001)" fill="#ffa412"/>
          <rect id="Rectangle_2748" data-name="Rectangle 2748" width="1.593" height="15.581" transform="translate(88.592 0.001)" fill="#ffa412"/>
          <path id="Path_19671" data-name="Path 19671" d="M3922.031,2121.2v15.472a3.31,3.31,0,0,1-.6.054h-1v-15.581h1A3.332,3.332,0,0,1,3922.031,2121.2Z" transform="translate(-3829.383 -2121.144)" fill="#ffa412"/>
          <path id="Path_19672" data-name="Path 19672" d="M3932.513,2123.5v12.586a3.411,3.411,0,0,1-1.591,1.269v-15.124A3.413,3.413,0,0,1,3932.513,2123.5Z" transform="translate(-3837.653 -2121.999)" fill="#ffa412"/>
        </g>
      </g>
      <g id="Group_13586" data-name="Group 13586" transform="translate(0.294 92.582)">
        <path id="Path_19673" data-name="Path 19673" d="M3343.54,2050.871v8.8a3.363,3.363,0,0,1-.581,1.893,3.417,3.417,0,0,1-1.592,1.269,3.205,3.205,0,0,1-.621.174c-.065.011-.131.022-.2.03l-.111.011c-.035,0-.073.006-.111.008-.06,0-.12.005-.18.005H3199.994a3.4,3.4,0,0,1-3.387-3.217c0-.058,0-.116,0-.174v-8.8c0-.058,0-.116,0-.175s.006-.1.01-.142a3.411,3.411,0,0,1,2.542-2.969c.034-.009.069-.017.1-.024a3.388,3.388,0,0,1,.733-.081h140.155c.1,0,.2.006.3.013l.135.015h0c.052.007.1.017.157.026a3.172,3.172,0,0,1,.621.174,3.415,3.415,0,0,1,1.592,1.269A3.362,3.362,0,0,1,3343.54,2050.871Z" transform="translate(-3196.603 -2047.479)" fill="#ffb93e"/>
        <path id="Path_19674" data-name="Path 19674" d="M3274.716,2063.061H3199.63a3.215,3.215,0,0,1-3.024-3.217c0-.058,0-.116,0-.174v-8.8c0-.058,0-.116,0-.175s.006-.1.01-.142a3.3,3.3,0,0,1,2.349-2.99,1.1,1.1,0,0,1,.129-.03,2.69,2.69,0,0,1,.536-.054H3265.5c.008.038.017.073.026.111a27.881,27.881,0,0,0,9.164,15.446Z" transform="translate(-3196.603 -2047.479)" fill="#ffa412"/>
        <g id="Group_13585" data-name="Group 13585" transform="translate(51.495)">
          <rect id="Rectangle_2749" data-name="Rectangle 2749" width="1.593" height="15.581" transform="translate(76.794 0.001)" fill="#ffa412"/>
          <rect id="Rectangle_2750" data-name="Rectangle 2750" width="1.593" height="15.581" transform="translate(71.402 0.001)" fill="#ffa412"/>
          <rect id="Rectangle_2751" data-name="Rectangle 2751" width="1.593" height="15.581" transform="translate(64.936 0.001)" fill="#ffa412"/>
          <rect id="Rectangle_2752" data-name="Rectangle 2752" width="1.593" height="15.581" transform="translate(55.025 0.001)" fill="#ffa412"/>
          <rect id="Rectangle_2753" data-name="Rectangle 2753" width="1.593" height="15.581" transform="translate(44.544 0.001)" fill="#ffa412"/>
          <rect id="Rectangle_2754" data-name="Rectangle 2754" width="1.593" height="15.581" transform="translate(28.477 0.001)" fill="#ffa412"/>
          <rect id="Rectangle_2755" data-name="Rectangle 2755" width="1.593" height="15.581" transform="translate(13.433 0.001)" fill="#ffa412"/>
          <rect id="Rectangle_2756" data-name="Rectangle 2756" width="1.593" height="15.581" transform="translate(0 0.001)" fill="#ffa412"/>
          <rect id="Rectangle_2757" data-name="Rectangle 2757" width="1.593" height="15.581" transform="translate(81.927 0.001)" fill="#ffa412"/>
          <rect id="Rectangle_2758" data-name="Rectangle 2758" width="1.593" height="15.581" transform="translate(85.318 0.001)" fill="#ffa412"/>
          <rect id="Rectangle_2759" data-name="Rectangle 2759" width="1.593" height="15.581" transform="translate(88.592 0.001)" fill="#ffa412"/>
          <path id="Path_19675" data-name="Path 19675" d="M3873.237,2047.532V2063a3.309,3.309,0,0,1-.6.054h-1v-15.581h1A3.309,3.309,0,0,1,3873.237,2047.532Z" transform="translate(-3780.589 -2047.478)" fill="#ffa412"/>
          <path id="Path_19676" data-name="Path 19676" d="M3883.718,2049.83v12.586a3.414,3.414,0,0,1-1.592,1.269v-15.124A3.412,3.412,0,0,1,3883.718,2049.83Z" transform="translate(-3788.858 -2048.332)" fill="#ffa412"/>
        </g>
      </g>
      <g id="Group_13588" data-name="Group 13588" transform="translate(0 77.112)">
        <path id="Path_19677" data-name="Path 19677" d="M3342.146,1977.612v8.8a3.359,3.359,0,0,1-.581,1.893,3.419,3.419,0,0,1-1.591,1.269,3.081,3.081,0,0,1-.484.146h0c-.045.011-.088.021-.133.028a3.314,3.314,0,0,1-.6.054H3198.6a3.079,3.079,0,0,1-.439-.03,1.62,1.62,0,0,1-.167-.026,3.4,3.4,0,0,1-2.782-3.161c0-.058,0-.116,0-.174v-8.8c0-.058,0-.116,0-.174a3.4,3.4,0,0,1,3.388-3.217h140.155c.09,0,.18,0,.268.011l.114.011c.042,0,.084.009.125.017s.061.009.09.015a3.188,3.188,0,0,1,.621.175c.03.011.058.022.088.036l.086.037c.058.026.114.055.17.083s.124.068.184.1.107.066.16.1.118.084.174.129.088.07.131.107a.027.027,0,0,1,.008.007c.028.025.058.051.086.077a3.208,3.208,0,0,1,.246.253c.023.026.046.052.067.079l.066.082c.043.056.086.115.125.172A3.361,3.361,0,0,1,3342.146,1977.612Z" transform="translate(-3195.21 -1974.221)" fill="#ffb93e"/>
        <path id="Path_19678" data-name="Path 19678" d="M3273.323,1989.8h-75.086c-.06,0-.12,0-.178-.006s-.129-.011-.193-.02a3.27,3.27,0,0,1-2.653-3.191c0-.058,0-.116,0-.174v-8.8c0-.058,0-.116,0-.174a3.213,3.213,0,0,1,3.024-3.217H3264.1c.03.127.06.255.092.384a27.824,27.824,0,0,0,9,15.086Z" transform="translate(-3195.21 -1974.221)" fill="#ffa412"/>
        <g id="Group_13587" data-name="Group 13587" transform="translate(51.495 0)">
          <rect id="Rectangle_2760" data-name="Rectangle 2760" width="1.593" height="15.581" transform="translate(76.794 0.001)" fill="#ffa412"/>
          <rect id="Rectangle_2761" data-name="Rectangle 2761" width="1.593" height="15.581" transform="translate(71.402 0.001)" fill="#ffa412"/>
          <rect id="Rectangle_2762" data-name="Rectangle 2762" width="1.593" height="15.581" transform="translate(64.936 0.001)" fill="#ffa412"/>
          <rect id="Rectangle_2763" data-name="Rectangle 2763" width="1.593" height="15.581" transform="translate(55.025 0.001)" fill="#ffa412"/>
          <rect id="Rectangle_2764" data-name="Rectangle 2764" width="1.593" height="15.581" transform="translate(44.545 0.001)" fill="#ffa412"/>
          <rect id="Rectangle_2765" data-name="Rectangle 2765" width="1.593" height="15.581" transform="translate(28.477 0.001)" fill="#ffa412"/>
          <rect id="Rectangle_2766" data-name="Rectangle 2766" width="1.593" height="15.581" transform="translate(13.433 0.001)" fill="#ffa412"/>
          <rect id="Rectangle_2767" data-name="Rectangle 2767" width="1.593" height="15.581" transform="translate(0 0.001)" fill="#ffa412"/>
          <rect id="Rectangle_2768" data-name="Rectangle 2768" width="1.593" height="15.581" transform="translate(81.927 0.001)" fill="#ffa412"/>
          <rect id="Rectangle_2769" data-name="Rectangle 2769" width="1.593" height="15.581" transform="translate(85.318 0.001)" fill="#ffa412"/>
          <rect id="Rectangle_2770" data-name="Rectangle 2770" width="1.593" height="15.581" transform="translate(88.592 0.001)" fill="#ffa412"/>
          <path id="Path_19679" data-name="Path 19679" d="M3871.841,1974.276v15.472a3.3,3.3,0,0,1-.6.055h-1v-15.581h1A3.322,3.322,0,0,1,3871.841,1974.276Z" transform="translate(-3779.193 -1974.222)" fill="#ffa412"/>
          <path id="Path_19680" data-name="Path 19680" d="M3882.323,1976.575v12.586a3.416,3.416,0,0,1-1.592,1.269v-15.124A3.415,3.415,0,0,1,3882.323,1976.575Z" transform="translate(-3787.463 -1975.077)" fill="#ffa412"/>
        </g>
      </g>
      <g id="Group_13590" data-name="Group 13590" transform="translate(7.241 61.916)">
        <path id="Path_19681" data-name="Path 19681" d="M3376.438,1905.649v8.8a3.359,3.359,0,0,1-.581,1.893,3.417,3.417,0,0,1-1.592,1.269,3.171,3.171,0,0,1-.62.174,3.3,3.3,0,0,1-.6.055H3232.892a3.359,3.359,0,0,1-1.563-.384,3.407,3.407,0,0,1-1.813-2.68c-.006-.051-.01-.1-.011-.152s0-.116,0-.174v-8.8c0-.058,0-.116,0-.174a3.4,3.4,0,0,1,3.387-3.217h140.155a3.317,3.317,0,0,1,.6.054,3.189,3.189,0,0,1,.62.174,3.417,3.417,0,0,1,1.592,1.269A3.361,3.361,0,0,1,3376.438,1905.649Z" transform="translate(-3229.501 -1902.258)" fill="#ffb93e"/>
        <path id="Path_19682" data-name="Path 19682" d="M3307.614,1917.839h-75.086a2.742,2.742,0,0,1-1.4-.384,3.429,3.429,0,0,1-1.617-2.68c-.006-.051-.01-.1-.011-.152s0-.116,0-.174v-8.8c0-.058,0-.116,0-.174a3.214,3.214,0,0,1,3.024-3.217h65.865a28.1,28.1,0,0,0,8.76,15.2C3307.3,1917.584,3307.459,1917.711,3307.614,1917.839Z" transform="translate(-3229.501 -1902.258)" fill="#ffa412"/>
        <g id="Group_13589" data-name="Group 13589" transform="translate(51.495 0)">
          <rect id="Rectangle_2771" data-name="Rectangle 2771" width="1.593" height="15.581" transform="translate(76.794 0.001)" fill="#ffa412"/>
          <rect id="Rectangle_2772" data-name="Rectangle 2772" width="1.593" height="15.581" transform="translate(71.402 0.001)" fill="#ffa412"/>
          <rect id="Rectangle_2773" data-name="Rectangle 2773" width="1.593" height="15.581" transform="translate(64.936 0.001)" fill="#ffa412"/>
          <rect id="Rectangle_2774" data-name="Rectangle 2774" width="1.593" height="15.581" transform="translate(55.025 0.001)" fill="#ffa412"/>
          <rect id="Rectangle_2775" data-name="Rectangle 2775" width="1.593" height="15.581" transform="translate(44.544 0.001)" fill="#ffa412"/>
          <rect id="Rectangle_2776" data-name="Rectangle 2776" width="1.593" height="15.581" transform="translate(28.477 0.001)" fill="#ffa412"/>
          <rect id="Rectangle_2777" data-name="Rectangle 2777" width="1.593" height="15.581" transform="translate(13.433 0.001)" fill="#ffa412"/>
          <rect id="Rectangle_2778" data-name="Rectangle 2778" width="1.593" height="15.581" transform="translate(0 0.001)" fill="#ffa412"/>
          <rect id="Rectangle_2779" data-name="Rectangle 2779" width="1.593" height="15.581" transform="translate(81.927 0.001)" fill="#ffa412"/>
          <rect id="Rectangle_2780" data-name="Rectangle 2780" width="1.593" height="15.581" transform="translate(85.317 0.001)" fill="#ffa412"/>
          <rect id="Rectangle_2781" data-name="Rectangle 2781" width="1.593" height="15.581" transform="translate(88.592 0.001)" fill="#ffa412"/>
          <path id="Path_19683" data-name="Path 19683" d="M3906.134,1902.313v15.472a3.325,3.325,0,0,1-.6.054h-1v-15.581h1A3.325,3.325,0,0,1,3906.134,1902.313Z" transform="translate(-3813.486 -1902.259)" fill="#ffa412"/>
          <path id="Path_19684" data-name="Path 19684" d="M3916.616,1904.612V1917.2a3.42,3.42,0,0,1-1.592,1.269v-15.124A3.414,3.414,0,0,1,3916.616,1904.612Z" transform="translate(-3821.755 -1903.114)" fill="#ffa412"/>
        </g>
      </g>
      <g id="Group_13592" data-name="Group 13592" transform="translate(18.695 46.335)">
        <path id="Path_19685" data-name="Path 19685" d="M3430.675,1831.866v8.8a3.363,3.363,0,0,1-.581,1.893,3.416,3.416,0,0,1-1.592,1.269,3.155,3.155,0,0,1-.621.174,3.31,3.31,0,0,1-.6.054H3287.129a3.4,3.4,0,0,1-3.387-3.217c0-.058,0-.116,0-.174v-8.8c0-.058,0-.116,0-.174a3.4,3.4,0,0,1,2.986-3.192,3.167,3.167,0,0,1,.4-.024h140.155a3.3,3.3,0,0,1,.6.054,3.147,3.147,0,0,1,.621.174,3.415,3.415,0,0,1,1.592,1.269A3.361,3.361,0,0,1,3430.675,1831.866Z" transform="translate(-3283.738 -1828.475)" fill="#ffb93e"/>
        <path id="Path_19686" data-name="Path 19686" d="M3361.851,1844.056h-75.086a3.214,3.214,0,0,1-3.023-3.217c0-.058,0-.116,0-.174v-8.8c0-.058,0-.116,0-.174a3.27,3.27,0,0,1,2.666-3.192,2.5,2.5,0,0,1,.358-.024h65.865c0,.007,0,.017.005.024A27.91,27.91,0,0,0,3361.851,1844.056Z" transform="translate(-3283.738 -1828.475)" fill="#ffa412"/>
        <g id="Group_13591" data-name="Group 13591" transform="translate(51.496)">
          <rect id="Rectangle_2782" data-name="Rectangle 2782" width="1.593" height="15.581" transform="translate(76.794 0.001)" fill="#ffa412"/>
          <rect id="Rectangle_2783" data-name="Rectangle 2783" width="1.593" height="15.581" transform="translate(71.402 0.001)" fill="#ffa412"/>
          <rect id="Rectangle_2784" data-name="Rectangle 2784" width="1.593" height="15.581" transform="translate(64.936 0.001)" fill="#ffa412"/>
          <rect id="Rectangle_2785" data-name="Rectangle 2785" width="1.593" height="15.581" transform="translate(55.025 0.001)" fill="#ffa412"/>
          <rect id="Rectangle_2786" data-name="Rectangle 2786" width="1.593" height="15.581" transform="translate(44.544 0.001)" fill="#ffa412"/>
          <rect id="Rectangle_2787" data-name="Rectangle 2787" width="1.593" height="15.581" transform="translate(28.477 0.001)" fill="#ffa412"/>
          <rect id="Rectangle_2788" data-name="Rectangle 2788" width="1.593" height="15.581" transform="translate(13.433 0.001)" fill="#ffa412"/>
          <rect id="Rectangle_2789" data-name="Rectangle 2789" width="1.593" height="15.581" transform="translate(0 0.001)" fill="#ffa412"/>
          <rect id="Rectangle_2790" data-name="Rectangle 2790" width="1.593" height="15.581" transform="translate(81.927 0.001)" fill="#ffa412"/>
          <rect id="Rectangle_2791" data-name="Rectangle 2791" width="1.593" height="15.581" transform="translate(85.318 0.001)" fill="#ffa412"/>
          <rect id="Rectangle_2792" data-name="Rectangle 2792" width="1.593" height="15.581" transform="translate(88.592 0.001)" fill="#ffa412"/>
          <path id="Path_19687" data-name="Path 19687" d="M3960.373,1828.528V1844a3.311,3.311,0,0,1-.6.054h-1v-15.581h1A3.311,3.311,0,0,1,3960.373,1828.528Z" transform="translate(-3867.725 -1828.474)" fill="#ffa412"/>
          <path id="Path_19688" data-name="Path 19688" d="M3970.855,1830.826v12.585a3.412,3.412,0,0,1-1.591,1.269v-15.124A3.412,3.412,0,0,1,3970.855,1830.826Z" transform="translate(-3875.995 -1829.328)" fill="#ffa412"/>
        </g>
      </g>
      <g id="Group_13594" data-name="Group 13594" transform="translate(0.294 30.778)">
        <path id="Path_19689" data-name="Path 19689" d="M3343.54,1758.2v8.8a3.363,3.363,0,0,1-.581,1.894,3.418,3.418,0,0,1-1.592,1.269,3.181,3.181,0,0,1-.621.174c-.065.011-.131.022-.2.03s-.1.011-.157.015l-.079.006c-.054,0-.109,0-.165,0H3199.994a3.4,3.4,0,0,1-3.387-3.217c0-.058,0-.116,0-.174v-8.8c0-.058,0-.116,0-.174a3.4,3.4,0,0,1,3.387-3.217h140.155c.06,0,.12,0,.18.005a3.364,3.364,0,0,1,.418.049,3.163,3.163,0,0,1,.621.174,2.956,2.956,0,0,1,.294.131c.06.03.118.06.175.094a.051.051,0,0,1,.019.011c.058.034.114.069.17.107a.2.2,0,0,1,.028.019c.052.034.1.071.152.111a3.01,3.01,0,0,1,.337.294c.034.032.066.066.1.1a.2.2,0,0,1,.017.019c.02.021.039.041.058.064l.011.013c.034.04.068.08.1.124.047.06.092.12.135.184A3.362,3.362,0,0,1,3343.54,1758.2Z" transform="translate(-3196.603 -1754.807)" fill="#ffb93e"/>
        <path id="Path_19690" data-name="Path 19690" d="M3274.716,1770.388H3199.63a3.215,3.215,0,0,1-3.024-3.217c0-.058,0-.116,0-.174v-8.8c0-.058,0-.116,0-.174a3.215,3.215,0,0,1,3.024-3.217H3265.5c.026.118.054.238.086.36a27.787,27.787,0,0,0,9.1,15.2Z" transform="translate(-3196.603 -1754.807)" fill="#ffa412"/>
        <g id="Group_13593" data-name="Group 13593" transform="translate(51.495)">
          <rect id="Rectangle_2793" data-name="Rectangle 2793" width="1.593" height="15.581" transform="translate(76.794 0.001)" fill="#ffa412"/>
          <rect id="Rectangle_2794" data-name="Rectangle 2794" width="1.593" height="15.581" transform="translate(71.402 0.001)" fill="#ffa412"/>
          <rect id="Rectangle_2795" data-name="Rectangle 2795" width="1.593" height="15.581" transform="translate(64.936 0.001)" fill="#ffa412"/>
          <rect id="Rectangle_2796" data-name="Rectangle 2796" width="1.593" height="15.581" transform="translate(55.025 0.001)" fill="#ffa412"/>
          <rect id="Rectangle_2797" data-name="Rectangle 2797" width="1.593" height="15.581" transform="translate(44.544 0.001)" fill="#ffa412"/>
          <rect id="Rectangle_2798" data-name="Rectangle 2798" width="1.593" height="15.581" transform="translate(28.477 0.001)" fill="#ffa412"/>
          <rect id="Rectangle_2799" data-name="Rectangle 2799" width="1.593" height="15.581" transform="translate(13.433 0.001)" fill="#ffa412"/>
          <rect id="Rectangle_2800" data-name="Rectangle 2800" width="1.593" height="15.581" transform="translate(0 0.001)" fill="#ffa412"/>
          <rect id="Rectangle_2801" data-name="Rectangle 2801" width="1.593" height="15.581" transform="translate(81.927 0.001)" fill="#ffa412"/>
          <rect id="Rectangle_2802" data-name="Rectangle 2802" width="1.593" height="15.581" transform="translate(85.318 0.001)" fill="#ffa412"/>
          <rect id="Rectangle_2803" data-name="Rectangle 2803" width="1.593" height="15.581" transform="translate(88.592 0.001)" fill="#ffa412"/>
          <path id="Path_19691" data-name="Path 19691" d="M3873.237,1754.861v15.472a3.32,3.32,0,0,1-.6.054h-1v-15.581h1A3.3,3.3,0,0,1,3873.237,1754.861Z" transform="translate(-3780.589 -1754.807)" fill="#ffa412"/>
          <path id="Path_19692" data-name="Path 19692" d="M3883.718,1757.159v12.586a3.417,3.417,0,0,1-1.592,1.269V1755.89A3.413,3.413,0,0,1,3883.718,1757.159Z" transform="translate(-3788.858 -1755.661)" fill="#ffa412"/>
        </g>
      </g>
      <g id="Group_13596" data-name="Group 13596" transform="translate(10.599 15.556)">
        <path id="Path_19693" data-name="Path 19693" d="M3392.335,1686.118v8.8a3.361,3.361,0,0,1-.581,1.893,3.415,3.415,0,0,1-1.591,1.269,3.2,3.2,0,0,1-.621.174,3.313,3.313,0,0,1-.6.054H3248.79a3.348,3.348,0,0,1-1.514-.36,3.4,3.4,0,0,1-1.863-2.718c0-.045-.008-.092-.01-.139s0-.116,0-.174v-8.8c0-.058,0-.116,0-.174a3.4,3.4,0,0,1,2.986-3.192,3.145,3.145,0,0,1,.4-.024h140.155a3.3,3.3,0,0,1,.6.054,3.159,3.159,0,0,1,.621.174,3.414,3.414,0,0,1,1.591,1.269A3.36,3.36,0,0,1,3392.335,1686.118Z" transform="translate(-3245.399 -1682.727)" fill="#ffb93e"/>
        <path id="Path_19694" data-name="Path 19694" d="M3323.512,1698.308h-75.086a2.731,2.731,0,0,1-1.352-.36,3.424,3.424,0,0,1-1.663-2.718c0-.045-.008-.092-.01-.139s0-.116,0-.174v-8.8c0-.058,0-.116,0-.174a3.271,3.271,0,0,1,2.666-3.192,2.5,2.5,0,0,1,.358-.024h65.865c0,.008,0,.017.005.024a28.075,28.075,0,0,0,8.784,15.2Q3323.292,1698.131,3323.512,1698.308Z" transform="translate(-3245.399 -1682.727)" fill="#ffa412"/>
        <g id="Group_13595" data-name="Group 13595" transform="translate(51.495)">
          <rect id="Rectangle_2804" data-name="Rectangle 2804" width="1.593" height="15.581" transform="translate(76.794 0)" fill="#ffa412"/>
          <rect id="Rectangle_2805" data-name="Rectangle 2805" width="1.593" height="15.581" transform="translate(71.402 0)" fill="#ffa412"/>
          <rect id="Rectangle_2806" data-name="Rectangle 2806" width="1.593" height="15.581" transform="translate(64.936 0)" fill="#ffa412"/>
          <rect id="Rectangle_2807" data-name="Rectangle 2807" width="1.593" height="15.581" transform="translate(55.025 0)" fill="#ffa412"/>
          <rect id="Rectangle_2808" data-name="Rectangle 2808" width="1.593" height="15.581" transform="translate(44.545 0)" fill="#ffa412"/>
          <rect id="Rectangle_2809" data-name="Rectangle 2809" width="1.593" height="15.581" transform="translate(28.477 0)" fill="#ffa412"/>
          <rect id="Rectangle_2810" data-name="Rectangle 2810" width="1.593" height="15.581" transform="translate(13.433 0)" fill="#ffa412"/>
          <rect id="Rectangle_2811" data-name="Rectangle 2811" width="1.593" height="15.581" transform="translate(0 0)" fill="#ffa412"/>
          <rect id="Rectangle_2812" data-name="Rectangle 2812" width="1.593" height="15.581" transform="translate(81.927 0)" fill="#ffa412"/>
          <rect id="Rectangle_2813" data-name="Rectangle 2813" width="1.593" height="15.581" transform="translate(85.318 0)" fill="#ffa412"/>
          <rect id="Rectangle_2814" data-name="Rectangle 2814" width="1.593" height="15.581" transform="translate(88.592 0)" fill="#ffa412"/>
          <path id="Path_19695" data-name="Path 19695" d="M3922.031,1682.78v15.472a3.31,3.31,0,0,1-.6.054h-1v-15.581h1A3.3,3.3,0,0,1,3922.031,1682.78Z" transform="translate(-3829.383 -1682.726)" fill="#ffa412"/>
          <path id="Path_19696" data-name="Path 19696" d="M3932.513,1685.077v12.586a3.413,3.413,0,0,1-1.591,1.269v-15.124A3.413,3.413,0,0,1,3932.513,1685.077Z" transform="translate(-3837.653 -1683.579)" fill="#ffa412"/>
        </g>
      </g>
      <g id="Group_13598" data-name="Group 13598" transform="translate(0.294)">
        <path id="Path_19697" data-name="Path 19697" d="M3343.54,1612.451v8.8a3.363,3.363,0,0,1-.581,1.893,3.417,3.417,0,0,1-1.592,1.269,3.172,3.172,0,0,1-.621.174c-.065.011-.131.022-.2.03l-.111.011c-.035,0-.073.006-.111.007-.06,0-.12.006-.18.006H3199.994a3.4,3.4,0,0,1-3.387-3.217c0-.058,0-.116,0-.174v-8.8c0-.058,0-.116,0-.174a3.4,3.4,0,0,1,3.387-3.217h140.155a3.308,3.308,0,0,1,.6.054,3.155,3.155,0,0,1,.621.174,3.415,3.415,0,0,1,1.592,1.269A3.363,3.363,0,0,1,3343.54,1612.451Z" transform="translate(-3196.603 -1609.06)" fill="#ffb93e"/>
        <path id="Path_19698" data-name="Path 19698" d="M3274.716,1624.641H3199.63a3.215,3.215,0,0,1-3.024-3.217c0-.058,0-.116,0-.174v-8.8c0-.058,0-.116,0-.174a3.215,3.215,0,0,1,3.024-3.217H3265.5a27.923,27.923,0,0,0,9.191,15.556Z" transform="translate(-3196.603 -1609.06)" fill="#ffa412"/>
        <g id="Group_13597" data-name="Group 13597" transform="translate(51.495)">
          <rect id="Rectangle_2815" data-name="Rectangle 2815" width="1.593" height="15.581" transform="translate(76.794 0)" fill="#ffa412"/>
          <rect id="Rectangle_2816" data-name="Rectangle 2816" width="1.593" height="15.581" transform="translate(71.403 0)" fill="#ffa412"/>
          <rect id="Rectangle_2817" data-name="Rectangle 2817" width="1.593" height="15.581" transform="translate(64.936 0)" fill="#ffa412"/>
          <rect id="Rectangle_2818" data-name="Rectangle 2818" width="1.593" height="15.581" transform="translate(55.025 0)" fill="#ffa412"/>
          <rect id="Rectangle_2819" data-name="Rectangle 2819" width="1.593" height="15.581" transform="translate(44.545 0)" fill="#ffa412"/>
          <rect id="Rectangle_2820" data-name="Rectangle 2820" width="1.593" height="15.581" transform="translate(28.477 0)" fill="#ffa412"/>
          <rect id="Rectangle_2821" data-name="Rectangle 2821" width="1.593" height="15.581" transform="translate(13.433 0)" fill="#ffa412"/>
          <rect id="Rectangle_2822" data-name="Rectangle 2822" width="1.593" height="15.581" transform="translate(0 0)" fill="#ffa412"/>
          <rect id="Rectangle_2823" data-name="Rectangle 2823" width="1.593" height="15.581" transform="translate(81.927 0)" fill="#ffa412"/>
          <rect id="Rectangle_2824" data-name="Rectangle 2824" width="1.593" height="15.581" transform="translate(85.318 0)" fill="#ffa412"/>
          <rect id="Rectangle_2825" data-name="Rectangle 2825" width="1.593" height="15.581" transform="translate(88.592 0)" fill="#ffa412"/>
          <path id="Path_19699" data-name="Path 19699" d="M3873.237,1609.113v15.472a3.331,3.331,0,0,1-.6.055h-1v-15.581h1A3.309,3.309,0,0,1,3873.237,1609.113Z" transform="translate(-3780.588 -1609.059)" fill="#ffa412"/>
          <path id="Path_19700" data-name="Path 19700" d="M3883.718,1611.41V1624a3.415,3.415,0,0,1-1.592,1.269v-15.124A3.415,3.415,0,0,1,3883.718,1611.41Z" transform="translate(-3788.858 -1609.912)" fill="#ffa412"/>
        </g>
      </g>
    </g>
    <g id="man" transform="translate(2154.449 966.903)">
      <path id="Path_19701" data-name="Path 19701" d="M2487.107,2354.871s-1.235,10.04.734,10.5c.763.179,23.455-.048,23.455-.048s0-2.713-3.717-3.316-10.248-2.813-11.353-7.736S2487.107,2354.871,2487.107,2354.871Z" transform="translate(-2428.226 -2128.702)" fill="#233862"/>
      <path id="Path_19702" data-name="Path 19702" d="M2463.383,1889.539c0,8.563-9.892,53.767-9.892,53.767s-9.978,1.792-14.29-2.493c0,0,.937-41.931,2.437-50.85.3-1.805-.178-4.47-1.115-7.71-3.695-12.762-14.449-34.413-11.982-47.248,3.093-16.089,24.95,1.243,24.95,1.243s.956,4.319,2.272,10.531C2458.683,1860.555,2463.383,1883.638,2463.383,1889.539Z" transform="translate(-2382.043 -1715.306)" fill="#2b478b"/>
      <path id="Path_19703" data-name="Path 19703" d="M2455.763,1846.779l-15.24,35.474c-3.695-12.762-14.449-34.413-11.982-47.248,3.093-16.089,24.95,1.243,24.95,1.243S2454.447,1840.567,2455.763,1846.779Z" transform="translate(-2382.043 -1715.306)" fill="#233862"/>
      <path id="Path_19704" data-name="Path 19704" d="M2720.484,1753.841s4.921-7.76,6.928-7.849,7-1.975,7.646-.958-3.079,3.476-4.687,4.74-2.656,4.541-5.373,4.659A11.973,11.973,0,0,1,2720.484,1753.841Z" transform="translate(-2612.622 -1649.494)" fill="#e49963"/>
      <path id="Path_19705" data-name="Path 19705" d="M2549.12,1523.141s10.5,30.688,15.32,36.511,21.745,14.428,21.893,15.2c.35,1.827-1.049,4.681-2.633,4.689-5.625.031-17.028-4.245-22.309-9.306-5.589-5.356-14.434-35.959-14.434-35.959Z" transform="translate(-2475.739 -1474.696)" fill="#5f9aa8"/>
      <path id="Path_19706" data-name="Path 19706" d="M2782.042,1681.545s6-.094,9.273-2.142,9.889-1.963,11.232-.934,1.122,1.645-.519,2.576-7.158,5.3-11.685,4.884a33.925,33.925,0,0,0-9.9.989Z" transform="translate(-2659.922 -1596.663)" fill="#e49963"/>
      <path id="Path_19707" data-name="Path 19707" d="M2213.129,2315.41s-4.119,3.818-3.315,6.531,4.521,4.521,5.023,7.837,2.511,5.124,4.32,5.124h8.622s1.331-2.333-1.884-3.037-4.427-4.6-4.226-8.216a64.725,64.725,0,0,0-.3-8.439l-6.832-1.608Z" transform="translate(-2209.709 -2098.233)" fill="#233862"/>
      <path id="Path_19708" data-name="Path 19708" d="M2294.325,1777.674s-25.925,49.994-40.392,75.915-18.989,33.155-18.989,33.155-8.289-3.316-9.042-5.576c0,0,7.438-42.884,19.46-58.03,5.472-6.895,5.224-26.344,6.848-37.216,1.07-7.161,5.942-19.808,5.942-19.808Z" transform="translate(-2222.483 -1666.36)" fill="#2b478b"/>
      <path id="Path_19709" data-name="Path 19709" d="M2536.852,1393.882a20.564,20.564,0,0,1,3.674,6.529c-9-.62-20.164-12.874-20.164-12.874a21.413,21.413,0,0,0,11.125-9.015q.349-.546.679-1.13a26.251,26.251,0,0,0,1.886-4.16l2.667,4.677,4.435,7.777a57.261,57.261,0,0,1-3.069,6.085Q2537.526,1392.761,2536.852,1393.882Z" transform="translate(-2454.76 -1356.444)" fill="#e49963"/>
      <path id="Path_19710" data-name="Path 19710" d="M2421.868,1458.227c-.277,4.372-1.6,10.994-3.385,18.34-.7,2.846-1.46,5.8-2.263,8.775-1.3,4.827-2.66,9.682-4.06,14.252l-.052.163c-.1.465-.259.958-.4,1.41-1.215,4.036-2.379,7.772-3.393,10.944-1.942,6.066-1.955,9.445-3.505,10.13-3.115,1.377-15.378-.1-22.726-3.286-6.208-2.644-15.668-10.615-15.62-14.627.056-4.651,6.3-18.654,10.435-35,5.1-19.971,16.426-35.92,25.869-39.207.7-.229,1.458,1.252,4.195,3.88a15.328,15.328,0,0,0,8.728,4.263l1.8,3C2419.92,1445.551,2422.32,1451.1,2421.868,1458.227Z" transform="translate(-2333.36 -1401.298)" fill="#80bdcc"/>
      <path id="Path_19711" data-name="Path 19711" d="M2531.313,1578.171c-.7,2.846-1.46,5.8-2.263,8.775-1.3,4.827-2.66,9.682-4.06,14.252l-.052.163c-.1.465-.259.958-.4,1.41-1.215,4.036-2.379,7.772-3.393,10.944-19.638-24.944-8.5-54.817-8.5-54.817Z" transform="translate(-2446.19 -1502.901)" fill="#5f9aa8"/>
      <path id="Path_19712" data-name="Path 19712" d="M2495.4,1492.783s18.546,43.051,30.074,44.208c5.688.571,29.663-1.165,36.515-2.555,0,0,1.283-1.788-.608-7.121,0,0-26.226-2.231-30.913-6.063-6.976-5.7-4.784-29.786-12.927-34.708S2497.965,1481.676,2495.4,1492.783Z" transform="translate(-2435.067 -1443.359)" fill="#80bdcc"/>
      <path id="Path_19713" data-name="Path 19713" d="M2582.614,1400.93a57.261,57.261,0,0,1-3.069,6.085c-5.511-4.057-6.452-10.57-6.6-13.249-.043-.758-.021-1.209-.021-1.209s.257.028.7.079c.93.1,2.681.3,4.553.517Z" transform="translate(-2496.22 -1371.688)" fill="#d68d5d"/>
      <path id="Path_19714" data-name="Path 19714" d="M2584.911,1340.832s-14.081-3-12.08-11.737,1.531-15.014,10.606-13.47,10.052,5.277,10.094,8.357S2588.625,1341.386,2584.911,1340.832Z" transform="translate(-2495.995 -1310.817)" fill="#e49963"/>
      <path id="Path_19715" data-name="Path 19715" d="M2568.281,1312.613s4.609-10.95,17.351-7.994c8.727,2.025,6.439-6.831,5.925-8.293,0,0-6.779-1.274-13.79-2.393C2563.051,1291.586,2567.495,1310.407,2568.281,1312.613Z" transform="translate(-2491.583 -1293.732)" fill="#2b478b"/>
    </g>
    <g id="man-2" data-name="man" transform="translate(2688.492 966.903)">
      <path id="Path_19716" data-name="Path 19716" d="M4764.2,1659.305s-5.8-1.557-8.468-4.344-7.085-1.944-8.639-1.274-2.384,3.457-.5,3.374c2.848-.125,3.994,3.766,8.486,4.466a33.925,33.925,0,0,1,9.355,3.378Z" transform="translate(-4744.061 -1577.151)" fill="#ab7041"/>
      <path id="Path_19717" data-name="Path 19717" d="M4837.9,1478.758s-6.648,38.9-17.562,42.785c-6.117,2.18-18.349-3.471-25.148-7l2.175-3.694s13.017,1.785,14.632.782c2.812-1.746.484-34.636,7.851-40.657S4833.793,1468.124,4837.9,1478.758Z" transform="translate(-4783.251 -1431.161)" fill="#d88029"/>
      <path id="Path_19718" data-name="Path 19718" d="M4843.393,2366.247h-23.467c.085-.631.607-2.734,3.766-3.2,3.728-.551,10.3-2.721,11.505-7.836s9.111,1.762,9.111,1.762S4845.13,2365.167,4843.393,2366.247Z" transform="translate(-4802.762 -2129.562)" fill="#233862"/>
      <path id="Path_19719" data-name="Path 19719" d="M4938.977,1818.109c-3.912,7.983-13.188,19.1-16.609,27.719a15.819,15.819,0,0,0-1.3,5.616c-.081,19.336-21.07,57.463-21.07,57.463-2,1.3-10.544-1.3-10.544-1.3s.99-8.473,5.893-37.749c2.7-16.149,7.264-40.194,10.809-58.511.914-4.718,1.76-9.056,2.488-12.781,1.574-8.034,2.607-13.217,2.607-13.217l8.139.135,21.982.364S4950.5,1794.6,4938.977,1818.109Z" transform="translate(-4857.607 -1681.535)" fill="#2b478b"/>
      <path id="Path_19720" data-name="Path 19720" d="M5001.366,1818.109c-3.912,7.983-13.189,19.1-16.61,27.719-4.85-10.261-12.207-25.859-16.211-34.478.913-4.718,1.76-9.056,2.487-12.781,1.156-5.554,1.5-8.04,2.607-13.217l30.122.5S5012.885,1794.6,5001.366,1818.109Z" transform="translate(-4919.997 -1681.535)" fill="#233862"/>
      <path id="Path_19721" data-name="Path 19721" d="M5268.3,2325.183c-.916,2.678-4.7,4.331-5.342,7.622a6.347,6.347,0,0,1-2.862,4.521h-10.311c-.17-.383-.886-2.378,2.038-2.892,3.241-.57,4.612-4.412,4.561-8.034,0-.087,0-.176,0-.265a65.874,65.874,0,0,1,.652-8.155l6.892-1.325,1.151,1.611.18.255S5269.219,2322.5,5268.3,2325.183Z" transform="translate(-5141.69 -2100.642)" fill="#233862"/>
      <path id="Path_19722" data-name="Path 19722" d="M5024.571,1861.825c4.13,7.5,34.6,42.327,34.6,42.327s9.6-3.244,11.314-9.077c0,0-18.023-29.613-26.219-42.233-2.343-3.609-3.646-58.769-12-68.822-10.47-12.6-29.425,11.307-29.425,11.307s5.932,19.291,7.775,25.367C5014.706,1834.17,5021.725,1856.656,5024.571,1861.825Z" transform="translate(-4947.052 -1677.591)" fill="#2b478b"/>
      <path id="Path_19723" data-name="Path 19723" d="M4757.339,1660.94s-5.8-1.557-8.469-4.343-7.084-1.944-8.639-1.274-2.385,3.457-.5,3.374c2.847-.125,3.993,3.766,8.486,4.466a33.9,33.9,0,0,1,9.354,3.378Z" transform="translate(-4738.645 -1578.441)" fill="#9e6138"/>
      <path id="Path_19724" data-name="Path 19724" d="M4897.824,1393.88a64.621,64.621,0,0,1-4.3-8.194l7.1-12.456c4.137,11.666,13.69,14.3,13.69,14.3s-11.169,12.255-20.164,12.874A20.576,20.576,0,0,1,4897.824,1393.88Z" transform="translate(-4860.816 -1356.442)" fill="#9c5f33"/>
      <path id="Path_19725" data-name="Path 19725" d="M4849.378,1340.832s14.081-3,12.08-11.737-1.531-15.014-10.606-13.47-10.052,5.277-10.094,8.357S4845.663,1341.386,4849.378,1340.832Z" transform="translate(-4819.194 -1310.817)" fill="#ab7041"/>
      <path id="Path_19726" data-name="Path 19726" d="M4850.047,1312.613s-4.61-10.95-17.351-7.994c-8.727,2.025-6.439-6.831-5.925-8.293,0,0,6.779-1.274,13.791-2.393C4855.277,1291.586,4850.833,1310.407,4850.047,1312.613Z" transform="translate(-4807.646 -1293.732)" fill="#233862"/>
      <path id="Path_19727" data-name="Path 19727" d="M4883.3,1458.227c.277,4.372,1.595,10.994,3.385,18.34.7,2.846,1.46,5.8,2.263,8.775,1.3,4.827,2.66,9.682,4.06,14.252l.052.163c.1.465.259.958.4,1.41,1.215,4.036,2.379,7.772,3.393,10.944,1.942,6.066,1.956,9.445,3.505,10.13,3.115,1.377,15.378-.1,22.727-3.286,6.208-2.644,15.668-10.615,15.62-14.627-.056-4.651-6.3-18.654-10.435-35-5.1-19.971-16.427-35.92-25.869-39.207-.705-.229-1.458,1.252-4.195,3.88a15.441,15.441,0,0,1-8.772,4.26l-1.753,3C4885.247,1445.551,4882.848,1451.1,4883.3,1458.227Z" transform="translate(-4852.709 -1401.298)" fill="#e2923d"/>
      <path id="Path_19728" data-name="Path 19728" d="M4909.342,1586.946c.7,2.845-.8-2.975,0,0,1.3,4.827,2.66,9.682,4.061,14.252l.052.163c.1.465.259.958.4,1.41,1.215,4.036,2.379,7.772,3.393,10.944,19.638-24.944,8.5-54.817,8.5-54.817Z" transform="translate(-4873.104 -1502.901)" fill="#d88029"/>
      <path id="Path_19729" data-name="Path 19729" d="M4848.1,1490.045s-12.286,45.237-23.536,48.01c-5.551,1.368-20.786-5.693-27.585-9.224,0,0-1.71-1.389,2.066-6.31,0,0,20.129,3.78,21.745,2.777,2.812-1.746-2.857-32.284,4.509-38.306S4843.989,1479.411,4848.1,1490.045Z" transform="translate(-4784.355 -1442.448)" fill="#e2923d"/>
      <path id="Path_19730" data-name="Path 19730" d="M4880.918,1345.971s-1.584-2.62-5.806-3.044c0,0,12.412.261,12.929,4.075s.653,4.418.653,4.418S4882.136,1351.688,4880.918,1345.971Z" transform="translate(-4846.294 -1332.538)" fill="#233862"/>
    </g>
    <path id="Path_19731" data-name="Path 19731" d="M3246.705,1701.708c-.036.008-.073.013-.109.019.032.007.064.017.094.026a2.354,2.354,0,0,1,.309.111,3.183,3.183,0,0,1,1.594,1.56,3.647,3.647,0,0,1,.362,1.436c0,.058,0,.116,0,.175v8.8c0,.058,0,.116,0,.174a3.671,3.671,0,0,1-.362,1.436A3.183,3.183,0,0,1,3247,1717a2.612,2.612,0,0,1-.718.2,2.343,2.343,0,0,1-.351.024h-9.946a3.271,3.271,0,0,1,2.666,3.193c0,.058,0,.116,0,.174v8.8c0,.058,0,.116,0,.174a3.215,3.215,0,0,1-3.024,3.217h3.357a3.214,3.214,0,0,1,3.024,3.217c0,.058,0,.116,0,.174v8.8c0,.058,0,.116,0,.174a3.45,3.45,0,0,1-1.629,2.833h5.847a2.554,2.554,0,0,1,.48.045,2.76,2.76,0,0,1,.917.339,3.074,3.074,0,0,1,.677.542,3.563,3.563,0,0,1,.95,2.291c0,.058,0,.116,0,.174v8.8c0,.058,0,.116,0,.174a3.564,3.564,0,0,1-.95,2.291,2.889,2.889,0,0,1-1.593.881,2.575,2.575,0,0,1-.48.045H3231.24a3.214,3.214,0,0,1,3.023,3.217c0,.058,0,.116,0,.174v8.8c0,.058,0,.116,0,.174a3.214,3.214,0,0,1-3.023,3.217h-18.018a3.214,3.214,0,0,1-3.023-3.217c0-.058,0-.116,0-.174v-8.8c0-.058,0-.116,0-.174a3.214,3.214,0,0,1,3.023-3.217h-14.985a3.214,3.214,0,0,1-3.024-3.217c0-.058,0-.116,0-.174v-8.8c0-.058,0-.116,0-.174a3.213,3.213,0,0,1,3.024-3.217h5.846a3.431,3.431,0,0,1-1.617-2.681c-.006-.05-.01-.1-.011-.152s0-.116,0-.174v-8.8c0-.058,0-.116,0-.174a3.214,3.214,0,0,1,3.023-3.217h3.357a3.215,3.215,0,0,1-3.024-3.217c0-.058,0-.116,0-.174v-8.8c0-.058,0-.116,0-.174a3.271,3.271,0,0,1,2.666-3.193h-9.946a3.215,3.215,0,0,1-3.024-3.217c0-.058,0-.116,0-.174v-8.8c0-.058,0-.116,0-.175s.006-.1.01-.142a3.164,3.164,0,0,0-.3-6.18c0-.058,0-.116,0-.174v-8.8c0-.058,0-.116,0-.174a3.214,3.214,0,0,1,3.024-3.217h5.846a3.43,3.43,0,0,1-1.617-2.68c-.006-.051-.01-.1-.011-.152s0-.116,0-.175v-8.8c0-.058,0-.116,0-.175a3.214,3.214,0,0,1,3.023-3.217h11.454a3.215,3.215,0,0,1-3.024-3.217c0-.058,0-.116,0-.174v-8.8c0-.058,0-.116,0-.174a3.27,3.27,0,0,1,2.666-3.192h-18.042a3.215,3.215,0,0,1-3.024-3.217c0-.058,0-.116,0-.175v-8.8c0-.058,0-.116,0-.174a3.215,3.215,0,0,1,3.024-3.217h8.953a3.424,3.424,0,0,1-1.663-2.718c0-.045-.007-.092-.01-.139s0-.116,0-.174v-8.8c0-.058,0-.116,0-.174a3.27,3.27,0,0,1,2.666-3.192h-9.946a3.215,3.215,0,0,1-3.024-3.217c0-.058,0-.116,0-.174v-8.8c0-.058,0-.116,0-.174a3.215,3.215,0,0,1,3.024-3.217h47.4a2.7,2.7,0,0,1,1.068.221,3.185,3.185,0,0,1,1.594,1.559,3.675,3.675,0,0,1,.362,1.436c0,.058,0,.116,0,.174v8.8c0,.058,0,.116,0,.174a3.67,3.67,0,0,1-.362,1.436,3.184,3.184,0,0,1-1.594,1.56,2.612,2.612,0,0,1-.718.2,2.375,2.375,0,0,1-.351.025h-9.946a3.27,3.27,0,0,1,2.666,3.192c0,.058,0,.116,0,.174v8.8c0,.058,0,.116,0,.174a3.44,3.44,0,0,1-1.672,2.857h8.953a2.7,2.7,0,0,1,1.068.221,2.339,2.339,0,0,1,.283.139,3.245,3.245,0,0,1,1.311,1.421,3.675,3.675,0,0,1,.362,1.436c0,.058,0,.116,0,.174v8.8c0,.059,0,.116,0,.175a3.671,3.671,0,0,1-.362,1.436,3.183,3.183,0,0,1-1.594,1.56,2.6,2.6,0,0,1-.718.2,2.409,2.409,0,0,1-.351.024h-18.042a3.27,3.27,0,0,1,2.666,3.192c0,.058,0,.116,0,.174v8.8c0,.058,0,.116,0,.174a3.215,3.215,0,0,1-3.023,3.217h11.453a3.214,3.214,0,0,1,3.024,3.217c0,.058,0,.116,0,.175v8.8c0,.058,0,.116,0,.175a3.449,3.449,0,0,1-1.629,2.832h5.847a2.534,2.534,0,0,1,.48.045,2.754,2.754,0,0,1,.917.339,3.073,3.073,0,0,1,.677.542,3.564,3.564,0,0,1,.95,2.291c0,.058,0,.116,0,.174v8.8c0,.058,0,.116,0,.174a3.563,3.563,0,0,1-.95,2.291,2.927,2.927,0,0,1-1.312.815A1.994,1.994,0,0,1,3246.705,1701.708Z" transform="translate(-832.65 -575.568)" fill="#e2810e" opacity="0.5"/>
    <path id="Path_19732" data-name="Path 19732" d="M3064.783,1584.626a1.407,1.407,0,0,0-1.705,1.007l-3.284,12.923h-41.986l3.114-12.251a1.383,1.383,0,0,0-1.023-1.678,1.407,1.407,0,0,0-1.705,1.007l-33.354,131.245h-.13v.51l-10.35,40.725a1.382,1.382,0,0,0,1.022,1.679,1.434,1.434,0,0,0,.343.042,1.4,1.4,0,0,0,1.363-1.048l10.134-39.877h41.986l-9.964,39.205a1.383,1.383,0,0,0,1.022,1.679,1.43,1.43,0,0,0,.342.042,1.4,1.4,0,0,0,1.363-1.048l16.148-63.541h.622v-2.03h-.105l27.17-106.908A1.383,1.383,0,0,0,3064.783,1584.626Zm-5.5,15.959-5.5,21.635h-41.986l5.5-21.635Zm-53.5,45.3,5.5-21.634h41.986l-5.5,21.634Zm41.47,2.03-5.5,21.635h-41.986l5.5-21.635Zm-17.526,68.963h-41.986l5.672-22.319v.685h41.813Zm-35.972-23.664,5.5-21.634h41.986l-5.5,21.634Z" transform="translate(-658.404 -556.261)" fill="#2b478b"/>
    <g id="Group_13602" data-name="Group 13602" transform="translate(2248.304 1044.969)">
      <circle id="Ellipse_398" data-name="Ellipse 398" cx="79.321" cy="79.321" r="79.321" transform="translate(6.92 0)" fill="#e2810e"/>
      <circle id="Ellipse_399" data-name="Ellipse 399" cx="79.321" cy="79.321" r="79.321" transform="translate(0 0)" fill="#ffb93e"/>
      <g id="Group_13600" data-name="Group 13600" transform="translate(7.051 7.988)">
        <path id="Path_19733" data-name="Path 19733" d="M2759.819,1845.776a72.048,72.048,0,1,1,28.132-5.68A71.824,71.824,0,0,1,2759.819,1845.776Zm0-140.228a67.959,67.959,0,1,0,48.054,19.9A67.513,67.513,0,0,0,2759.819,1705.547Z" transform="translate(-2687.549 -1701.236)" fill="#ffa412"/>
      </g>
      <g id="Group_13601" data-name="Group 13601" transform="translate(47.669 26.886)">
        <path id="Path_19734" data-name="Path 19734" d="M2921.494,1865.073a11.914,11.914,0,0,0-.171-4.2,8.709,8.709,0,0,0-1.774-3.484,16.449,16.449,0,0,0-3.548-3.131,43.443,43.443,0,0,0-5.5-3.079,113.841,113.841,0,0,1-10.154-5.58,35.969,35.969,0,0,1-7.592-6.179,21.164,21.164,0,0,1-4.484-7.531,23.883,23.883,0,0,1,1.93-18.06,20.086,20.086,0,0,1,5.6-6.221,25.08,25.08,0,0,1,8.019-3.819,33.436,33.436,0,0,1,10.011-1.154l1.414-11.912,9.588,1.137-1.433,12.079a29.983,29.983,0,0,1,9.024,3.836,22.665,22.665,0,0,1,10.1,14.492,30.166,30.166,0,0,1,.4,10.236l-17.317-2.055q.792-6.679-1.781-10.344a10.209,10.209,0,0,0-7.547-4.254,12.978,12.978,0,0,0-4.733.2,8.789,8.789,0,0,0-3.45,1.678,8.2,8.2,0,0,0-2.224,2.869,12.058,12.058,0,0,0-1.055,3.77,11.056,11.056,0,0,0,.156,3.8,8.167,8.167,0,0,0,1.7,3.336,16.5,16.5,0,0,0,3.578,3.133,55.759,55.759,0,0,0,5.715,3.3q5.553,2.86,10.048,5.708a36.391,36.391,0,0,1,7.555,6.231,20.434,20.434,0,0,1,5.259,17.135,21.844,21.844,0,0,1-2.751,8.592,19.847,19.847,0,0,1-5.623,6.163,24.222,24.222,0,0,1-8.062,3.673,36.118,36.118,0,0,1-10.061,1.064l-1.314,11.076-9.528-1.131,1.308-11.021a40.484,40.484,0,0,1-9.36-3.312,25.654,25.654,0,0,1-7.668-5.793,22.961,22.961,0,0,1-4.811-8.615,27.95,27.95,0,0,1-.8-11.722l17.318,2.055a17.23,17.23,0,0,0,.326,6.727,11.14,11.14,0,0,0,2.464,4.583,10.81,10.81,0,0,0,3.961,2.728,18.519,18.519,0,0,0,4.748,1.212,15.458,15.458,0,0,0,5.029-.136,10.317,10.317,0,0,0,3.8-1.581,8.215,8.215,0,0,0,2.517-2.778A10.016,10.016,0,0,0,2921.494,1865.073Z" transform="translate(-2879.893 -1790.725)" fill="#ffa412"/>
      </g>
    </g>
    <g id="Group_13615" data-name="Group 13615" transform="translate(2486.699 1013.62)">
      <g id="Group_13603" data-name="Group 13603" transform="translate(0 0)">
        <path id="Path_19735" data-name="Path 19735" d="M3868.971,1727.095l-15.887-1.367a83.437,83.437,0,0,0-1.876-22.858,80.408,80.408,0,0,0-14.128-31.672c-13.605-18.057-54.018-28.159-54.018-28.159V1640.7l1.453-.157a5.774,5.774,0,0,0-1.453-.69v-5.526a19.536,19.536,0,0,1,4.593.45,31.372,31.372,0,0,0-4.593-.825v-2.906c58.542,1.565,77.634,36.926,83.617,64.292A109.566,109.566,0,0,1,3868.971,1727.095Z" transform="translate(-3783.062 -1606.533)" fill="#82b378"/>
        <path id="Path_19736" data-name="Path 19736" d="M3938.5,1630.379l-69.528,5.14c-.36-10.709-3.155-21.784-5.858-30.179a142.428,142.428,0,0,0-5.318-14.115c-20.8-45.575-74.734-51.752-74.734-51.752l59.861-24.515c28.918,2.176,49.206,16.065,63.4,33.5C3934.111,1582.614,3938.5,1630.379,3938.5,1630.379Z" transform="translate(-3783.062 -1514.957)" fill="#a8d29f"/>
      </g>
      <path id="Path_19737" data-name="Path 19737" d="M4193.058,1755.53l-69.528,5.14-15.887-1.367a83.418,83.418,0,0,0-1.876-22.858,94.347,94.347,0,0,1,11.9-5.955q1.833-.776,3.565-1.575c44.269-20.432,40.145-52.26,39.641-55.3C4188.67,1707.765,4193.058,1755.53,4193.058,1755.53Z" transform="translate(-4037.62 -1640.107)" fill="#82b378" opacity="0.5"/>
      <g id="Group_13604" data-name="Group 13604" transform="translate(11.903 3.543)">
        <path id="Path_19738" data-name="Path 19738" d="M3977.5,1648.969l-61.962-1.2.219-1.193a83.557,83.557,0,0,0-4.214-39,77.764,77.764,0,0,0-21.089-31.465c-12.078-11-28.22-19.181-47.977-24.327l-3.043-.792,48.362-19.247.186,0c.524-.012,12.979-.2,28.991,7.373a89.912,89.912,0,0,1,25.681,18.434c9.551,9.722,17.586,21.961,23.881,36.376.5,1.107,12.267,27.531,11.645,43.4v.02Zm-59.533-3.214,57.59,1.114.561-9.642c.247-6.338-1.653-15.681-5.493-27.019-2.918-8.614-5.946-15.386-5.976-15.453-6.186-14.165-14.061-26.177-23.411-35.71a87.89,87.89,0,0,0-25.044-18.022,75.83,75.83,0,0,0-23.591-6.923,16.053,16.053,0,0,0-7.753,1.034l-33.517,13.339a2,2,0,0,0,.132,3.772c16.3,5.248,29.87,12.757,40.426,22.382a79.8,79.8,0,0,1,21.626,32.339,88.076,88.076,0,0,1,5.015,27.987A74.262,74.262,0,0,1,3917.963,1645.755Z" transform="translate(-3839.43 -1531.736)" fill="#82b378"/>
      </g>
      <g id="Group_13611" data-name="Group 13611" transform="translate(78.61 95.534)">
        <g id="Group_13606" data-name="Group 13606" transform="translate(5.47 16.629)">
          <path id="Path_19739" data-name="Path 19739" d="M4259.48,2054.57l-.4,4.662a1.785,1.785,0,0,1-.394.977,1.819,1.819,0,0,1-.9.6,1.571,1.571,0,0,1-.337.063,1.63,1.63,0,0,1-.318,0l-.529-.045-.461-.041-.844-.073-.891-.077-.844-.073-.952-.083-.846-.073-1.874-.163-.844-.073-2.014-.175-.843-.073-2.583-.225-.843-.073-4.407-.383-.844-.073-4.708-.409-.844-.073-7.671-.666-.843-.073-.984-.084-6.143-.532-.843-.073-6.272-.545-.845-.073-4.652-.4-8.02-.7-12.82-1.112a1.811,1.811,0,0,1-1.631-1.6.959.959,0,0,1-.009-.112,1.751,1.751,0,0,1,.005-.242l.4-4.662c0-.03.006-.058.01-.088a1.813,1.813,0,0,1,1.282-1.488,1.767,1.767,0,0,1,.662-.066l19.244,1.67.067.006.844.073.679.059,5.5.478.1.008.844.073,5.331.463.665.056v0h0l.176.015.953.083.3.026.54.047,5.331.463.844.073,1.494.129.845.073,4.709.409.622.055.221.019.623.054,3.785.328.844.073.081.007.843.073,1.659.143.844.073,2.013.174.843.073,1.875.163.6.053.246.021.6.052.354.03.844.073.815.071.075.006.769.067.075.006.461.041.844.073.33.028h.005l.159.015.846.073.952.082.844.073,1.734.152.461.039.528.045a1.811,1.811,0,0,1,.635.178,1.81,1.81,0,0,1,.784.746A1.779,1.779,0,0,1,4259.48,2054.57Z" transform="translate(-4181.219 -2046.154)" fill="#ffb93e"/>
          <path id="Path_19740" data-name="Path 19740" d="M4222.457,2057.811l-6.143-.532-.843-.073-6.272-.546-.845-.073-4.652-.4-8.02-.7-12.82-1.112-.187-.017a1.667,1.667,0,0,1-1.443-1.581.972.972,0,0,1-.009-.112,1.753,1.753,0,0,1,.005-.242l.4-4.662c0-.03.006-.058.01-.088a1.812,1.812,0,0,1,1.164-1.5,1.468,1.468,0,0,1,.586-.071l.193.017,19.244,1.67.067.006.844.073.679.058,4.653.4.845.073.1.008.844.073,5.331.463.665.058h0l.176.015.953.083.3.026c.005.041.011.083.017.124h0A14.8,14.8,0,0,0,4222.457,2057.811Z" transform="translate(-4181.219 -2046.099)" fill="#ffa412"/>
          <g id="Group_13605" data-name="Group 13605" transform="translate(27.134 2.233)">
            <rect id="Rectangle_2826" data-name="Rectangle 2826" width="0.847" height="8.286" transform="matrix(0.996, 0.086, -0.086, 0.996, 41.404, 3.529)" fill="#ffa412"/>
            <rect id="Rectangle_2827" data-name="Rectangle 2827" width="0.847" height="8.286" transform="matrix(0.996, 0.086, -0.086, 0.996, 38.547, 3.282)" fill="#ffa412"/>
            <rect id="Rectangle_2828" data-name="Rectangle 2828" width="0.847" height="8.286" transform="translate(35.121 2.984) rotate(4.957)" fill="#ffa412"/>
            <rect id="Rectangle_2829" data-name="Rectangle 2829" width="0.847" height="8.286" transform="translate(29.869 2.529) rotate(4.957)" fill="#ffa412"/>
            <rect id="Rectangle_2830" data-name="Rectangle 2830" width="0.847" height="8.286" transform="translate(24.317 2.047) rotate(4.957)" fill="#ffa412"/>
            <rect id="Rectangle_2831" data-name="Rectangle 2831" width="0.847" height="8.286" transform="translate(15.804 1.309) rotate(4.959)" fill="#ffa412"/>
            <rect id="Rectangle_2832" data-name="Rectangle 2832" width="0.847" height="8.286" transform="translate(7.834 0.617) rotate(4.971)" fill="#ffa412"/>
            <rect id="Rectangle_2833" data-name="Rectangle 2833" width="0.847" height="8.286" transform="matrix(0.996, 0.086, -0.086, 0.996, 0.716, 0)" fill="#ffa412"/>
            <rect id="Rectangle_2834" data-name="Rectangle 2834" width="0.847" height="8.286" transform="translate(44.123 3.765) rotate(4.957)" fill="#ffa412"/>
            <rect id="Rectangle_2835" data-name="Rectangle 2835" width="0.847" height="8.286" transform="matrix(0.996, 0.086, -0.086, 0.996, 45.919, 3.921)" fill="#ffa412"/>
            <rect id="Rectangle_2836" data-name="Rectangle 2836" width="0.847" height="8.286" transform="matrix(0.996, 0.086, -0.086, 0.996, 47.654, 4.071)" fill="#ffa412"/>
            <path id="Path_19741" data-name="Path 19741" d="M4539.723,2076.591l-.711,8.2a1.743,1.743,0,0,1-.319,0l-.527-.046.716-8.255.527.046A1.766,1.766,0,0,1,4539.723,2076.591Z" transform="translate(-4489.922 -2072.305)" fill="#ffa412"/>
            <path id="Path_19742" data-name="Path 19742" d="M4545.25,2078.29l-.579,6.668a1.81,1.81,0,0,1-.9.6l.7-8.013A1.815,1.815,0,0,1,4545.25,2078.29Z" transform="translate(-4494.343 -2073.138)" fill="#ffa412"/>
          </g>
        </g>
        <g id="Group_13608" data-name="Group 13608" transform="translate(0 7.959)">
          <path id="Path_19743" data-name="Path 19743" d="M4233.578,2013.516l-.4,4.662a1.785,1.785,0,0,1-.394.977c-.028.036-.059.068-.09.1a1.834,1.834,0,0,1-.429.336,1.78,1.78,0,0,1-.377.161h0l0,0a1.868,1.868,0,0,1-.338.064,1.824,1.824,0,0,1-.318,0l-.529-.045-.461-.041-.075-.005-.768-.068-.075-.005-.816-.071-.843-.073-.354-.03-.6-.052-.246-.021-.6-.053-1.875-.163-.109-.009-.735-.064-.109-.01-1.9-.165-.844-.073-1.659-.145-.843-.073-.081-.007-.844-.073-3.785-.328-.622-.055-.222-.019-.622-.054-4.708-.408-.846-.073-1.494-.129-.843-.073-5.331-.463-.51-.043h0l-.332-.03-.952-.082-.032,0-.812-.071-5.331-.461-.843-.073-.1-.009-.845-.073-4.653-.4-.679-.06-.843-.073-.241-.021-19.722-1.709-.118-.011-5.412-.469a1.808,1.808,0,0,1-1.63-1.6c-.005-.038-.007-.073-.009-.111a1.769,1.769,0,0,1,.005-.243l.4-4.662c0-.03.005-.058.009-.088s.007-.056.013-.085a1.812,1.812,0,0,1,1.931-1.469l1.263.108,0,0,.122.009,6.012.521,16.01,1.389,2.077.182.844.073.678.058.51.043.844.073,4.241.369.844.073,1.185.1h0l.069.005.774.068,6,.519,1.126.1.846.073,7.668.666.844.073,4.708.409.844.073,4.406.382.846.073.551.049.844.073,1.185.1.844.073,2.015.174.688.06.155.013.69.06.952.083.233.021.843.073.954.083.843.073.166.015.528.045a1.424,1.424,0,0,1,.2.03c.04.008.078.017.118.026a1.528,1.528,0,0,1,.312.118h.005l0,0s0,0,0,0a1.812,1.812,0,0,1,.784.746A1.784,1.784,0,0,1,4233.578,2013.516Z" transform="translate(-4155.316 -2005.1)" fill="#ffb93e"/>
          <path id="Path_19744" data-name="Path 19744" d="M4196.554,2016.754l-.812-.071-5.331-.461-.843-.073-.1-.009-.845-.073-4.653-.4-.679-.06-.843-.073-.241-.021-19.722-1.709-.118-.011-5.412-.469-.187-.017a1.667,1.667,0,0,1-1.443-1.58c-.005-.037-.007-.073-.009-.111a1.768,1.768,0,0,1,.005-.243l.4-4.662c0-.03.005-.058.009-.088s.007-.056.013-.085a1.7,1.7,0,0,1,1.737-1.486l.194.017,1.263.109,0,0,.122.009,6.012.521,16.008,1.391,2.079.18.844.073.678.058.51.043.844.073,4.241.369.844.073,1.185.1h0l.069.005c.006.04.011.079.017.12h0a14.871,14.871,0,0,0,4.019,8.422v0h0C4196.464,2016.668,4196.509,2016.711,4196.554,2016.754Z" transform="translate(-4155.316 -2005.042)" fill="#ffa412"/>
          <g id="Group_13607" data-name="Group 13607" transform="translate(27.134 2.234)">
            <rect id="Rectangle_2837" data-name="Rectangle 2837" width="0.847" height="8.286" transform="translate(41.403 3.529) rotate(4.959)" fill="#ffa412"/>
            <rect id="Rectangle_2838" data-name="Rectangle 2838" width="0.847" height="8.286" transform="matrix(0.996, 0.086, -0.086, 0.996, 38.547, 3.282)" fill="#ffa412"/>
            <rect id="Rectangle_2839" data-name="Rectangle 2839" width="0.847" height="8.286" transform="translate(35.122 2.984) rotate(4.971)" fill="#ffa412"/>
            <rect id="Rectangle_2840" data-name="Rectangle 2840" width="0.847" height="8.286" transform="matrix(0.996, 0.086, -0.086, 0.996, 29.87, 2.529)" fill="#ffa412"/>
            <rect id="Rectangle_2841" data-name="Rectangle 2841" width="0.847" height="8.286" transform="matrix(0.996, 0.086, -0.086, 0.996, 24.317, 2.047)" fill="#ffa412"/>
            <rect id="Rectangle_2842" data-name="Rectangle 2842" width="0.847" height="8.286" transform="translate(15.804 1.309) rotate(4.957)" fill="#ffa412"/>
            <rect id="Rectangle_2843" data-name="Rectangle 2843" width="0.847" height="8.286" transform="translate(7.833 0.617) rotate(4.956)" fill="#ffa412"/>
            <rect id="Rectangle_2844" data-name="Rectangle 2844" width="0.847" height="8.286" transform="matrix(0.996, 0.086, -0.086, 0.996, 0.716, 0)" fill="#ffa412"/>
            <rect id="Rectangle_2845" data-name="Rectangle 2845" width="0.847" height="8.286" transform="matrix(0.996, 0.086, -0.086, 0.996, 44.123, 3.765)" fill="#ffa412"/>
            <rect id="Rectangle_2846" data-name="Rectangle 2846" width="0.847" height="8.286" transform="translate(45.92 3.921) rotate(4.973)" fill="#ffa412"/>
            <rect id="Rectangle_2847" data-name="Rectangle 2847" width="0.847" height="8.286" transform="matrix(0.996, 0.086, -0.086, 0.996, 47.654, 4.072)" fill="#ffa412"/>
            <path id="Path_19745" data-name="Path 19745" d="M4513.819,2035.538l-.711,8.2a1.77,1.77,0,0,1-.319,0l-.528-.046.716-8.255.528.046A1.738,1.738,0,0,1,4513.819,2035.538Z" transform="translate(-4464.019 -2031.251)" fill="#ffa412"/>
            <path id="Path_19746" data-name="Path 19746" d="M4519.347,2037.236l-.578,6.668a1.82,1.82,0,0,1-.9.6l.7-8.013A1.818,1.818,0,0,1,4519.347,2037.236Z" transform="translate(-4468.44 -2032.083)" fill="#ffa412"/>
          </g>
        </g>
        <g id="Group_13610" data-name="Group 13610" transform="translate(2.735)">
          <path id="Path_19747" data-name="Path 19747" d="M4246.529,1975.817l-.4,4.662a1.809,1.809,0,0,1-1.3,1.577,1.772,1.772,0,0,1-.656.064l-.527-.045-.461-.041-.4-.034h-.006l-.318-.028-.12-.011-.724-.062-.167-.015-.294-.026-.55-.047-.294-.026-.658-.056-.233-.021-.611-.052-.232-.021-.952-.083-.692-.06-.154-.013-.689-.06-1.185-.1-.829-.071-.015,0-.828-.071-1.185-.1-.844-.073-.553-.049-.846-.073-1.185-.1-.843-.073-2.378-.206-.844-.073-1.185-.1-.844-.073-2.681-.232-.843-.073-1.185-.1-.846-.075-5.639-.487-.845-.075-.984-.084-.2-.017-.844-.073-5.1-.442-.748-.065-.1-.008-1.185-.1-.844-.073-4.243-.369-.844-.073-.508-.043-.679-.058v0l-.843-.073-2.253-.2-21.2-1.839a1.793,1.793,0,0,1-.632-.174,1.812,1.812,0,0,1-1.014-1.533,1.7,1.7,0,0,1,.006-.244l.4-4.662c0-.058.013-.116.022-.174a1.819,1.819,0,0,1,1.29-1.408,1.8,1.8,0,0,1,.551-.065h.011l.077.005,24.979,2.167.508.045.843.073,6.272.544.845.073,1.256.109,5.869.51.845.073,7.668.665.844.073,4.708.408.844.073,4.407.383.845.073,2.581.225.844.073,2.014.174.843.073,1.877.163.843.073.952.083.844.073.89.077.846.073.461.041.527.045a1.731,1.731,0,0,1,.315.056,1.605,1.605,0,0,1,.32.12,1.812,1.812,0,0,1,.784.746A1.78,1.78,0,0,1,4246.529,1975.817Z" transform="translate(-4168.268 -1967.402)" fill="#ffb93e"/>
          <path id="Path_19748" data-name="Path 19748" d="M4209.506,1979.062l-.2-.017-.844-.073-5.1-.442-.748-.065-.1-.008-1.185-.1-.844-.073-4.243-.367-.844-.073-.508-.045-.679-.058-.843-.073-2.255-.2-21.4-1.856a1.439,1.439,0,0,1-.561-.169l0,0a1.782,1.782,0,0,1-.89-1.522,1.7,1.7,0,0,1,.006-.244l.4-4.662c0-.058.013-.116.022-.174a1.793,1.793,0,0,1,1.168-1.419,1.435,1.435,0,0,1,.568-.064l.1.01h.011l25.057,2.172.508.045.843.073,6.272.544.845.073,1.256.109a14.871,14.871,0,0,0,4.037,8.547C4209.417,1978.975,4209.46,1979.018,4209.506,1979.062Z" transform="translate(-4168.268 -1967.351)" fill="#ffa412"/>
          <g id="Group_13609" data-name="Group 13609" transform="translate(27.135 2.232)">
            <rect id="Rectangle_2848" data-name="Rectangle 2848" width="0.847" height="8.286" transform="matrix(0.996, 0.086, -0.086, 0.996, 41.403, 3.529)" fill="#ffa412"/>
            <rect id="Rectangle_2849" data-name="Rectangle 2849" width="0.847" height="8.286" transform="matrix(0.996, 0.086, -0.086, 0.996, 38.546, 3.282)" fill="#ffa412"/>
            <rect id="Rectangle_2850" data-name="Rectangle 2850" width="0.847" height="8.286" transform="translate(35.121 2.984) rotate(4.957)" fill="#ffa412"/>
            <rect id="Rectangle_2851" data-name="Rectangle 2851" width="0.847" height="8.286" transform="translate(29.869 2.529) rotate(4.956)" fill="#ffa412"/>
            <rect id="Rectangle_2852" data-name="Rectangle 2852" width="0.847" height="8.286" transform="translate(24.317 2.047) rotate(4.957)" fill="#ffa412"/>
            <rect id="Rectangle_2853" data-name="Rectangle 2853" width="0.847" height="8.286" transform="matrix(0.996, 0.086, -0.086, 0.996, 15.804, 1.309)" fill="#ffa412"/>
            <rect id="Rectangle_2854" data-name="Rectangle 2854" width="0.847" height="8.286" transform="matrix(0.996, 0.086, -0.086, 0.996, 7.833, 0.618)" fill="#ffa412"/>
            <rect id="Rectangle_2855" data-name="Rectangle 2855" width="0.847" height="8.286" transform="translate(0.716 0) rotate(4.956)" fill="#ffa412"/>
            <rect id="Rectangle_2856" data-name="Rectangle 2856" width="0.847" height="8.286" transform="translate(44.122 3.765) rotate(4.956)" fill="#ffa412"/>
            <rect id="Rectangle_2857" data-name="Rectangle 2857" width="0.847" height="8.286" transform="translate(45.919 3.921) rotate(4.957)" fill="#ffa412"/>
            <rect id="Rectangle_2858" data-name="Rectangle 2858" width="0.847" height="8.286" transform="matrix(0.996, 0.086, -0.086, 0.996, 47.654, 4.072)" fill="#ffa412"/>
            <path id="Path_19749" data-name="Path 19749" d="M4526.773,1997.839l-.711,8.2a1.787,1.787,0,0,1-.319,0l-.527-.046.716-8.255.527.046A1.748,1.748,0,0,1,4526.773,1997.839Z" transform="translate(-4476.973 -1993.552)" fill="#ffa412"/>
            <path id="Path_19750" data-name="Path 19750" d="M4532.3,1999.538l-.579,6.668a1.816,1.816,0,0,1-.9.6l.695-8.013A1.815,1.815,0,0,1,4532.3,1999.538Z" transform="translate(-4481.393 -1994.386)" fill="#ffa412"/>
          </g>
        </g>
        <path id="Path_19751" data-name="Path 19751" d="M4183.639,1979.78c0,.03,0,.058-.006.088l-.425,4.66a1.783,1.783,0,0,1-.036.242,1.862,1.862,0,0,1-.707,1.114.542.542,0,0,1-.071.049,1.32,1.32,0,0,1-.184.1,1.461,1.461,0,0,1-.767.141l-.187-.017-5.41-.491a1.81,1.81,0,0,1,.881,1.681c0,.03,0,.058-.005.088l-.424,4.66a1.87,1.87,0,0,1-.038.24,1.8,1.8,0,0,1-1.012,1.29l-12.82-1.112-.187-.017a1.667,1.667,0,0,1-1.443-1.581c-.005-.037-.007-.075-.009-.112a1.681,1.681,0,0,1,.006-.242l.4-4.662c0-.03.005-.058.009-.088a1.812,1.812,0,0,1,1.164-1.5l-5.412-.469-.187-.017a1.667,1.667,0,0,1-1.443-1.58c-.005-.038-.007-.073-.009-.111a1.77,1.77,0,0,1,.005-.244l.4-4.662c0-.03.005-.058.009-.088s.007-.056.013-.085a1.7,1.7,0,0,1,1.737-1.486l.194.017,1.263.109a1.879,1.879,0,0,1-.884-1.766l.4-4.662c.005-.058.013-.116.022-.174a1.793,1.793,0,0,1,1.167-1.419l.123.011,20.933,1.9.077.007.011,0,.1.009a1.7,1.7,0,0,1,1.447,1.766c0,.058,0,.116-.009.174l-.421,4.662a1.751,1.751,0,0,1-.038.24,1.845,1.845,0,0,1-.791,1.172l0,0a1.139,1.139,0,0,1-.184.1s0,0,0,0a1.772,1.772,0,0,1-.165.066l1.262.114.193.019a1.5,1.5,0,0,1,.926.446A1.872,1.872,0,0,1,4183.639,1979.78Z" transform="translate(-4155.316 -1967.611)" fill="#e2810e" opacity="0.5"/>
      </g>
      <path id="Path_19752" data-name="Path 19752" d="M4176.171,1672.5c-10.208,0-15.861,6.1-15.861,16.313s10.57,16.376,20.777,16.376,16.188-6.168,16.188-16.376S4186.379,1672.5,4176.171,1672.5Z" transform="translate(-4080.645 -1639.228)" fill="#82b378"/>
      <g id="Group_13614" data-name="Group 13614" transform="translate(47.501 31.236)">
        <path id="Path_19753" data-name="Path 19753" d="M4593.507,2310.616a12.314,12.314,0,1,0-12.314,12.314A12.314,12.314,0,0,0,4593.507,2310.616Z" transform="translate(-4450.437 -2164.117)" fill="#2b478b"/>
        <path id="Path_19754" data-name="Path 19754" d="M4611.7,2335.453a5.665,5.665,0,1,0-5.665,5.665A5.665,5.665,0,0,0,4611.7,2335.453Z" transform="translate(-4475.274 -2188.954)" fill="#c65447"/>
        <path id="Path_19755" data-name="Path 19755" d="M4128.458,2310.616a12.314,12.314,0,1,0-12.314,12.314A12.314,12.314,0,0,0,4128.458,2310.616Z" transform="translate(-4083.593 -2164.117)" fill="#2b478b"/>
        <path id="Path_19756" data-name="Path 19756" d="M4146.646,2335.453a5.665,5.665,0,1,0-5.666,5.665A5.665,5.665,0,0,0,4146.646,2335.453Z" transform="translate(-4108.43 -2188.954)" fill="#c65447"/>
        <path id="Path_19757" data-name="Path 19757" d="M4164.663,1675.379a1.847,1.847,0,0,0-2.61-.1l-15.763,14.627a1.854,1.854,0,0,0-.5.794l-2,6.291-132.275,6.272a1.847,1.847,0,0,0-1.758,1.935l2.709,55.661a1.847,1.847,0,0,0,1.711,1.753l108.612,7.881c.045,0,.09,0,.135,0a1.847,1.847,0,0,0,1.759-1.287l22.223-69.832c.01-.028.019-.056.027-.085l2.23-7.01,15.406-14.3A1.847,1.847,0,0,0,4164.663,1675.379Zm-36.964,72.158-12.147-.465,5.082-20.5,13.774-.117Zm-15.415-.59-13.673-.524,4.622-19.7,14.094-.119Zm-17.964,17.779,3.547-15.127,13.63.522-3.86,15.571Zm-15.793-1.146,2.716-14.618,13.365.512-3.522,15.017Zm-17.405-1.263,2.124-14.044,14.763.565-2.7,14.509Zm-14.521-1.053,1.025-13.589,12.4.475-2.108,13.936Zm-17.613-1.278.844-12.993,14.593.559-1.017,13.48Zm-14.454-32.515,13.364-.113-1.06,16.317-11.537-.442Zm16.574-.141,14.85-.126-1.294,17.152-14.626-.561Zm16.505-22.077L4046.2,1724l-14.884.126,1.179-18.156Zm19.037-.9-2.95,19.5-14.288.121,1.424-18.873Zm19.8-.939-3.768,20.28-15.739.133,2.969-19.628Zm19.172-.909-4.933,21.037-14.747.125,3.792-20.408Zm-39.164,24.528,15.627-.132-3.486,18.759-14.873-.57Zm-5.951,17.933-12.641-.484,1.3-17.3,14.045-.119Zm24.84-18.093,14.589-.124-4.585,19.552-13.518-.518Zm18.637-3.36,4.964-21.166,14.563-.691-5.389,21.737Zm-74.708-17.388-1.171,18.031-13.728.116-.847-17.4Zm-13.82,40.319,11.173.428-.836,12.884-9.723-.706ZM4121.6,1766.7l-10.722-.778,3.887-15.681,11.927.457Zm13.831-43.461-14,.119,5.42-21.867,15.74-.746Z" transform="translate(-4009.38 -1672.272)" fill="#699dee"/>
        <g id="Group_13612" data-name="Group 13612" transform="translate(146.36)">
          <path id="Path_19758" data-name="Path 19758" d="M4703.3,1674.42a2.217,2.217,0,0,1-1.468-3.879l8.062-7.113a2.216,2.216,0,1,1,2.933,3.324l-8.061,7.113A2.206,2.206,0,0,1,4703.3,1674.42Z" transform="translate(-4701.083 -1662.874)" fill="#c65447"/>
        </g>
        <g id="Group_13613" data-name="Group 13613" transform="translate(0 30.621)">
          <path id="Path_19759" data-name="Path 19759" d="M4012.925,1867.974a2.216,2.216,0,0,1-2.212-2.109L4008,1810.2a2.216,2.216,0,1,1,4.427-.216l2.709,55.661a2.216,2.216,0,0,1-2.106,2.322C4013,1867.973,4012.961,1867.974,4012.925,1867.974Z" transform="translate(-4008.001 -1807.88)" fill="#c65447"/>
        </g>
        <path id="Path_19760" data-name="Path 19760" d="M4146.027,2161.644l-2.478-14.913a1.846,1.846,0,0,0,1.758-1.843v-20.2a1.848,1.848,0,0,0-.676-1.428l-15.024-12.314a1.847,1.847,0,0,0-2.342,2.857l14.347,11.76v17.507l-105.962,1.914-3.287-9.253a1.847,1.847,0,1,0-3.481,1.236l3.132,8.819-14.094,5.505a1.847,1.847,0,1,0,1.344,3.441l15.454-6.037,1.958-.035,10.2,14.645c.513.737,1.471.238,1.428-.744l-.607-14.1,84.688-1.529,12.528,15.331C4145.354,2162.8,4146.146,2162.36,4146.027,2161.644Z" transform="translate(-4014.898 -2015.998)" fill="#699dee"/>
      </g>
    </g>
    <g id="Group_13619" data-name="Group 13619" transform="translate(2357.128 892.692)">
      <path id="Path_19761" data-name="Path 19761" d="M3413.956,1774.352a2.141,2.141,0,0,0,.355,2.3.019.019,0,0,0,.009.009c1,1.277,3.271,2.324,5.819,3.277.325.123.617.236.874.345.068.028.135.058.2.087l.153.068c2.449,1.111,1.873,1.741,6.406,4.141,5.167,2.733,7.839,1.931,8.472,1.318.535-.521-1.461-2.216-3.683-4.129-.107-.092-.214-.186-.324-.279-.3-.254-.592-.513-.887-.77-2.629-2.317-2.641-3.806-3.653-8.211-.822-3.579-1-21.182-1-21.182l-7.79,1.162s1.965,13.415.164,16.176c-.965,1.473-2.424,1.969-3.427,3.155q-.107.125-.207.251A10.189,10.189,0,0,0,3413.956,1774.352Z" transform="translate(-3362.182 -1580.479)" fill="#e49963"/>
      <path id="Path_19762" data-name="Path 19762" d="M3413.956,1850.9a2.141,2.141,0,0,0,.355,2.295.018.018,0,0,0,.009.009c1.121,1.236,3.342,2.29,5.82,3.26.324.127.613.247.872.362.068.029.135.058.2.087l.153.068c2.449,1.112,1.873,1.741,6.406,4.141,5.167,2.733,7.839,1.931,8.472,1.318.535-.521-1.461-2.216-3.683-4.129a17.258,17.258,0,0,1-8.524-2.79c-3.291-2.191-6.089-5.479-8.392-7.159q-.107.124-.207.251A10.183,10.183,0,0,0,3413.956,1850.9Z" transform="translate(-3362.182 -1657.03)" fill="#365da4"/>
      <path id="Path_19763" data-name="Path 19763" d="M3681.269,1771.511c.513,2.563,4.167,2.136,8.249,1.139s3.112.188,8.922-.455,7.57-2.809,7.747-3.673c.159-.766-2.712-1.037-5.791-1.391-.387-.043-.776-.092-1.165-.139-3.477-.436-6.022-2.68-9.18-4.522-2.991-1.745-7.455-8.855-7.455-8.855l-7.968.631s4.181,6.351,5.8,9.111c.951,1.624.9,3.771.782,5.43A10.226,10.226,0,0,0,3681.269,1771.511Z" transform="translate(-3567.955 -1582.288)" fill="#e49963"/>
      <path id="Path_19764" data-name="Path 19764" d="M3713.872,1823.139c4.082-1,3.112.188,8.922-.455s7.57-2.809,7.747-3.673c.159-.766-2.712-1.037-5.791-1.391l-.028.059a16.377,16.377,0,0,1-8.321,2.586c-3.941.1-8.116-1.033-10.838-.989a10.227,10.227,0,0,0,.061,2.725C3706.136,1824.564,3709.789,1824.136,3713.872,1823.139Z" transform="translate(-3592.309 -1632.777)" fill="#365da4"/>
      <path id="Path_19765" data-name="Path 19765" d="M3459.385,1549.4l-17.171,46.212a15.727,15.727,0,0,1-5.167-.473,22.269,22.269,0,0,1-4.994-2.432s4.26-44.372,12.069-53.6S3459.385,1549.4,3459.385,1549.4Z" transform="translate(-3376.605 -1411.124)" fill="#aa413e"/>
      <path id="Path_19766" data-name="Path 19766" d="M3204.363,1457.667s49.342-16.684,60.346-13.134,44.044,69.285,44.044,69.285a6.379,6.379,0,0,1-2.781,1.755c-1.893.71-6.476.664-6.476.664s-29.818-25.558-33.367-33.013-4.97-14.554-8.52-13.844-45.792,17.394-55.376,7.454-7.077-22.853-7.077-22.853Z" transform="translate(-3189.502 -1338.085)" fill="#c65447"/>
      <path id="Path_19767" data-name="Path 19767" d="M3220.08,944.244a11.967,11.967,0,0,0-6.476-1.239,3.03,3.03,0,0,1,1.366-.648c-1.108-.165-3.583.935-3.583.935-15.421-5.942-17.844,16.764-17.52,22.039s.361,11.346-7.338,16.077c-15.146,9.309-2.366,25.559-2.366,25.559.119.071,7.047,11.821,7.047,11.821-.389-4.263,19.28-26.758,29.541-33.5,2.5-3.678,3.386-10.174,3.452-10.686-.431,5.151-1.312,8.041-2.1,9.668C3230.792,976.277,3225.733,947.457,3220.08,944.244Z" transform="translate(-3177.088 -942.309)" fill="#2b478b"/>
      <path id="Path_19768" data-name="Path 19768" d="M3319.1,1090.695c.051.023-4.955,2.623-8.72,1.593-3.542-.966-5.856-5.558-5.808-5.568,1.5-.3,1.933-2.359,1.9-11.217l.678.134,11.4,2.258s-.259,3.588-.267,6.968C3318.278,1087.7,3318.449,1090.392,3319.1,1090.695Z" transform="translate(-3276.045 -1047.375)" fill="#e49963"/>
      <path id="Path_19769" data-name="Path 19769" d="M3328.187,1078.393s-.259,3.588-.267,6.968c-6.38-.18-9.753-6-11.135-9.226Z" transform="translate(-3285.68 -1047.875)" fill="#d68d5d"/>
      <path id="Path_19770" data-name="Path 19770" d="M3295.358,982.748s-3.344-5.283-4.146-9.8c-.573-3.225,1.07-15.18,13.083-13.458a16.321,16.321,0,0,1,6.769,2.559c2.608,1.762,6.373,5.565,2.164,16l-1.094,3.524Z" transform="translate(-3265.429 -955.729)" fill="#2b478b"/>
      <path id="Path_19771" data-name="Path 19771" d="M3323.807,1006.836s-15.095.249-15.105-9.154-1.966-15.7,7.672-16.26,11.514,3.029,12.281,6.167S3327.734,1006.529,3323.807,1006.836Z" transform="translate(-3279.17 -973.117)" fill="#e49963"/>
      <path id="Path_19772" data-name="Path 19772" d="M3310.075,974.58c-2.33-2.823-4.091-2.21-5.08-1.362-3.263-4.874-13.573,2.175-13.573,2.175a17.962,17.962,0,0,1-5.875,10.612s2.751,1.7,9.094.068c4.992-1.284,8.614-8.388,9.932-11.357a11.98,11.98,0,0,1,3.359,4.448c.752,2.395,1.091,7.324,2.528,7.156C3310.46,986.32,3313.574,978.822,3310.075,974.58Z" transform="translate(-3261.039 -965.336)" fill="#2b478b"/>
      <path id="Path_19773" data-name="Path 19773" d="M3183.832,1209.112c.814,2.26,3.311,2.842,6.657,2.45,6.381-.746,15.859-5.029,22.689-7.992,10.413-4.513,15.146-.272,18.459-3.145s-3.787-9.261,2.367-38.921c2.087-10.058-11.137-31.623-11.137-31.623s-1.191,6.324-13.8-1.266c-.251-.151-10.224,16.2-10.224,16.2s-10.352,22.144-8.863,28.387C3192.825,1185.1,3181.465,1202.545,3183.832,1209.112Z" transform="translate(-3180.545 -1089.271)" fill="#c65447"/>
      <path id="Path_19774" data-name="Path 19774" d="M3369.9,1134.613l7.8,32s.97,1.728,2.492,4.187c3.571,5.774,10.181,15.584,14.413,16.581,2.087.492,6.527-1.245,11.44-3.728,9.289-4.693-1.966-28.808-1.966-28.808.71-4.26-15.476-1.34-15.476-1.34s12.472,18.73,10.262,18.888c-4.816.343-9.717-22.9-14.219-30.648C3381.393,1136.14,3369.9,1134.613,3369.9,1134.613Z" transform="translate(-3327.579 -1094.004)" fill="#c65447"/>
      <path id="Path_19775" data-name="Path 19775" d="M3364.977,1072.138s.281,1.194,3.253,1.01c0,0,2.5-.154,2.418-1.467A8.027,8.027,0,0,0,3364.977,1072.138Z" transform="translate(-3323.695 -1044.119)" fill="#fff"/>
      <path id="Path_19776" data-name="Path 19776" d="M3183.832,1313.111c.814,2.26,3.311,2.842,6.657,2.45,4.416-1.924,23.493-9.315,23.281-14.323-.317-7.414-3.668-7.651-1.3-16.8,1.9-7.348-15.727-21.011-18.538-23.982-5.287,10.03-5.433,10.5-3.945,16.747C3192.825,1289.1,3181.465,1306.544,3183.832,1313.111Z" transform="translate(-3180.545 -1193.269)" fill="#b5453c"/>
      <path id="Path_19777" data-name="Path 19777" d="M3418.64,1301.193c3.572,5.775,10.181,15.584,14.413,16.581,2.087.492,6.527-1.245,11.44-3.728a29.711,29.711,0,0,1-10.453.573c-3.668-.355-4.733-4.852-10.532-11.6C3419.747,1298.649,3418.824,1299.749,3418.64,1301.193Z" transform="translate(-3366.025 -1224.4)" fill="#b5453c"/>
      <path id="Path_19778" data-name="Path 19778" d="M3198.014,1128.618s-16.648,1.718-19.46,7.717-11.06,29.617-8.623,40.49,23.994-8.061,23.994-8.061Z" transform="translate(-3169.487 -1089.275)" fill="#c65447"/>
      <g id="Group_13618" data-name="Group 13618" transform="translate(2.784 53.417)">
        <path id="Path_19779" data-name="Path 19779" d="M3287.951,1247.527l-8.558-49.632a3.179,3.179,0,0,0-3.662-2.585L3185.3,1210.9a3.179,3.179,0,0,0-2.585,3.662l8.558,49.632a3.18,3.18,0,0,0,3.663,2.585l90.428-15.592A3.18,3.18,0,0,0,3287.951,1247.527Z" transform="translate(-3182.671 -1195.264)" fill="#699ff0"/>
        <rect id="Rectangle_2859" data-name="Rectangle 2859" width="98.102" height="11.221" transform="translate(0.94 24.486) rotate(-9.783)" fill="#365da4"/>
        <g id="Group_13616" data-name="Group 13616" transform="translate(10.657 27.177)">
          <rect id="Rectangle_2860" data-name="Rectangle 2860" width="60.024" height="8.822" transform="translate(0 10.199) rotate(-9.783)" fill="#afcdfb"/>
          <path id="Path_19780" data-name="Path 19780" d="M3259.756,1440.131a2.4,2.4,0,0,0-2.768-1.953l-7.346,1.267a2.4,2.4,0,0,0-1.953,2.767l1.093,6.337a2.4,2.4,0,0,0,2.768,1.953l7.346-1.266a2.4,2.4,0,0,0,1.953-2.768Z" transform="translate(-3244.588 -1414.03)" fill="#afcdfb"/>
        </g>
        <g id="Group_13617" data-name="Group 13617" transform="translate(35.403 37.377)">
          <path id="Path_19781" data-name="Path 19781" d="M3351.559,1385.016,3409.665,1375a.928.928,0,0,0,.757-1.072l-.154-.893a.928.928,0,0,0-1.072-.757l-58.106,10.019a.928.928,0,0,0-.757,1.072l.154.893A.928.928,0,0,0,3351.559,1385.016Z" transform="translate(-3350.319 -1372.262)" fill="#afcdfb" opacity="0.2"/>
          <path id="Path_19782" data-name="Path 19782" d="M3355.75,1409.416l58.127-10.023a.917.917,0,0,0,.748-1.06l-.147-.852a.917.917,0,0,0-1.06-.748l-58.127,10.023a.917.917,0,0,0-.748,1.06l.147.852A.918.918,0,0,0,3355.75,1409.416Z" transform="translate(-3353.64 -1391.555)" fill="#afcdfb" opacity="0.2"/>
          <path id="Path_19783" data-name="Path 19783" d="M3418.565,1421.1l-.167-.965a.947.947,0,0,0-1.094-.772l-58.069,10.013a.946.946,0,0,0-.772,1.094l.166.965a.946.946,0,0,0,1.094.772l58.069-10.012A.947.947,0,0,0,3418.565,1421.1Z" transform="translate(-3356.733 -1409.407)" fill="#afcdfb" opacity="0.2"/>
        </g>
      </g>
      <path id="Path_19784" data-name="Path 19784" d="M3246.548,1243.527s4.917-5.387,9.868-4.414,6.17,4.91,5.608,5.754a4.523,4.523,0,0,1-4.78,1.5C3254.713,1245.8,3246.548,1243.527,3246.548,1243.527Z" transform="translate(-3230.275 -1176.343)" fill="#e49963"/>
      <path id="Path_19785" data-name="Path 19785" d="M3458.47,1207.129s4.917-5.387,9.868-4.414,6.17,4.91,5.608,5.754a4.522,4.522,0,0,1-4.78,1.5C3466.635,1209.406,3458.47,1207.129,3458.47,1207.129Z" transform="translate(-3397.444 -1147.631)" fill="#e49963"/>
    </g>
  </g>
</svg>
