<svg xmlns="http://www.w3.org/2000/svg" xmlns:xlink="http://www.w3.org/1999/xlink" width="610.506" height="337.119" viewBox="0 0 610.506 337.119">
  <defs>
    <clipPath id="clip-path">
      <circle id="Ellipse_394" data-name="Ellipse 394" cx="11.94" cy="11.94" r="11.94" transform="translate(0 9.089) rotate(-22.372)" fill="none"/>
    </clipPath>
    <clipPath id="clip-path-2">
      <path id="Path_19581" data-name="Path 19581" d="M445.269,358.163H425.479l-3.37-12.789H441.9Z" transform="translate(-422.11 -345.374)" fill="none"/>
    </clipPath>
    <clipPath id="clip-path-3">
      <path id="Path_19584" data-name="Path 19584" d="M449.138,363.21H430.278l-3.211-12.188h18.859Z" transform="translate(-427.067 -351.022)" fill="none"/>
    </clipPath>
  </defs>
  <g id="Group_13573" data-name="Group 13573" transform="translate(-147.442 -160.435)">
    <g id="Group_13572" data-name="Group 13572" transform="translate(147.442 160.977)">
      <path id="Path_19492" data-name="Path 19492" d="M434.693,216.6a6.625,6.625,0,0,1,2.713.582,4.941,4.941,0,0,1,9.54-2.564,11.18,11.18,0,1,1,22.144,2.6,7.695,7.695,0,1,1,5.849,12.692H434.693a6.657,6.657,0,0,1,0-13.315Z" transform="translate(-51.006 -146.222)" fill="#e1f1ff"/>
      <path id="Path_19493" data-name="Path 19493" d="M383.8,419.04c-25.123-5.419-59.22,9.313-84.96,11.6-48.7,4.32-77.716-17.98-90.515-39.866-16.038-27.429-11.119-62.945,16.479-89.433,30.839-29.6,62.817-27.09,100.775-39.717,34.122-11.35,62.763-39.7,88.933-69.329,43.861-49.66,128.282-41.149,150.858,31.927,7.7,24.924,9.176,49.621,33.167,65,28.93,18.548,65.964,16.539,97.314,28.872,26.653,10.486,47.421,37.96,42.7,67.456-5.239,32.724-38.394,58.491-68.443,67.394-32.408,9.6-62.926,5.3-95.695,7.148" transform="translate(-129.647 -160.977)" fill="none" stroke="#a1c7ff" stroke-linejoin="round" stroke-width="1" stroke-dasharray="3 2.5"/>
      <g id="Group_13478" data-name="Group 13478" transform="translate(203.691 42.964)">
        <g id="Group_13477" data-name="Group 13477" transform="translate(44.741 237.339)">
          <line id="Line_179" data-name="Line 179" y1="56.148" x2="7.185" fill="#fff" stroke="#89b5f4" stroke-miterlimit="10" stroke-width="2"/>
          <line id="Line_180" data-name="Line 180" x1="7.185" y1="56.148" transform="translate(84.41)" fill="#fff" stroke="#89b5f4" stroke-miterlimit="10" stroke-width="2"/>
        </g>
        <rect id="Rectangle_2669" data-name="Rectangle 2669" width="181.077" height="241.819" fill="#fff" stroke="#89b5f4" stroke-miterlimit="10" stroke-width="1"/>
        <rect id="Rectangle_2670" data-name="Rectangle 2670" width="221.936" height="161.195" transform="translate(171.136 9.941) rotate(90)" fill="#e9f1ff" stroke="#89b5f4" stroke-miterlimit="10" stroke-width="1"/>
      </g>
      <g id="Group_13484" data-name="Group 13484" transform="translate(246.398 72.137)">
        <g id="Group_13479" data-name="Group 13479" transform="translate(0 89.603)">
          <path id="Path_19494" data-name="Path 19494" d="M350.435,281.347s13.845,36.227,3.709,40.176-20.259,31.961-20.259,31.961c-.011-.065-5.3-30.328-1.968-46.536C335.247,290.723,350.435,281.347,350.435,281.347Z" transform="translate(-330.817 -281.347)" fill="none" stroke="#4a63fe" stroke-linejoin="round" stroke-width="1" stroke-dasharray="3 2"/>
          <path id="Path_19495" data-name="Path 19495" d="M389.9,281.347s-13.845,36.227-3.709,40.176,20.257,31.961,20.257,31.961c.012-.065,5.3-30.328,1.969-46.536C405.084,290.723,389.9,281.347,389.9,281.347Z" transform="translate(-313.062 -281.347)" fill="none" stroke="#4a63fe" stroke-linejoin="round" stroke-width="1" stroke-dasharray="3 2"/>
        </g>
        <line id="Line_181" data-name="Line 181" y1="20.376" transform="translate(48.103)" fill="none" stroke="#202263" stroke-linecap="round" stroke-linejoin="round" stroke-width="2"/>
        <path id="Path_19496" data-name="Path 19496" d="M394.511,314.031c1.336,24.854-22.137,39.928-22.137,39.928s-22.168-14.641-22.139-39.928C350.248,302.576,393.9,302.593,394.511,314.031Z" transform="translate(-324.143 -183.461)" fill="none" stroke="#fff" stroke-miterlimit="10" stroke-width="1"/>
        <path id="Path_19497" data-name="Path 19497" d="M370.865,344.331c-5.41-4.726-15.665-15.688-16.014-31.086,1.624-1.2,7.14-3.029,15.7-3.029,8.979,0,14.676,1.975,16.222,3.234C387.243,328.611,376.5,339.618,370.865,344.331Z" transform="translate(-322.557 -181.822)" fill="none" stroke="#fff" stroke-miterlimit="10" stroke-width="1"/>
        <path id="Path_19498" data-name="Path 19498" d="M369.292,335.08c-3.9-4.261-9.836-13.9-9.585-22.394a41.416,41.416,0,0,1,9.064-.9,40.956,40.956,0,0,1,9.825,1.059C378.807,321.5,373.36,330.822,369.292,335.08Z" transform="translate(-320.89 -181.283)" fill="none" stroke="#fff" stroke-miterlimit="10" stroke-width="1"/>
        <path id="Path_19499" data-name="Path 19499" d="M403.573,253.878c-9.308-21.151-28.4-30.331-28.4-30.331-3.381,1.423-19.107,9.18-28.414,30.331-11.244,25.556,1.377,91.247,1.377,91.247h54.056S414.817,279.434,403.573,253.878Z" transform="translate(-326.94 -211.609)" fill="#f9c201"/>
        <g id="Group_13480" data-name="Group 13480" transform="translate(19.144 121.142)">
          <path id="Path_19500" data-name="Path 19500" d="M345.73,309.127h56.834c.21-1.307.434-2.749.666-4.308H345.064C345.3,306.378,345.521,307.819,345.73,309.127Z" transform="translate(-345.064 -304.819)" fill="#fff"/>
        </g>
        <circle id="Ellipse_393" data-name="Ellipse 393" cx="11.94" cy="11.94" r="11.94" transform="translate(32.641 48.561) rotate(-22.372)" fill="#4a63fe"/>
        <g id="Group_13483" data-name="Group 13483" transform="translate(32.641 39.472)">
          <g id="Group_13482" data-name="Group 13482" clip-path="url(#clip-path)">
            <g id="Group_13481" data-name="Group 13481" transform="translate(1.833 1.43)" opacity="0.44">
              <rect id="Rectangle_2671" data-name="Rectangle 2671" width="2.855" height="29.77" transform="matrix(0.741, 0.672, -0.672, 0.741, 22.702, 2.177)" fill="#fff"/>
              <rect id="Rectangle_2672" data-name="Rectangle 2672" width="1.835" height="29.77" transform="translate(25.889 5.342) rotate(42.202)" fill="#fff"/>
              <rect id="Rectangle_2673" data-name="Rectangle 2673" width="1.835" height="29.77" transform="translate(19.998 0) rotate(42.202)" fill="#fff"/>
            </g>
          </g>
        </g>
        <path id="Path_19501" data-name="Path 19501" d="M370.842,243.609a16.163,16.163,0,1,0,16.163,16.163A16.163,16.163,0,0,0,370.842,243.609Zm0,28.1a11.94,11.94,0,1,1,11.94-11.939A11.94,11.94,0,0,1,370.842,271.711Z" transform="translate(-322.616 -204.714)" fill="none" stroke="#202263" stroke-miterlimit="10" stroke-width="1" stroke-dasharray="3 2"/>
        <path id="Path_19502" data-name="Path 19502" d="M393.891,242.238a65.744,65.744,0,0,0-21.585-18.691c-2.67,1.122-13.028,6.2-21.855,18.68Z" transform="translate(-324.069 -211.609)" fill="#202263"/>
        <path id="Path_19503" data-name="Path 19503" d="M348.572,240.548H397.2c-.18-.285-.36-.567-.543-.845H349.089Q348.829,240.12,348.572,240.548Z" transform="translate(-324.715 -206.056)" fill="#fff"/>
        <path id="Path_19504" data-name="Path 19504" d="M368.258,284.6c-11.446,1.907-3.678,59.895-.887,78.483a.887.887,0,0,0,1.774,0C371.937,344.493,379.7,286.5,368.258,284.6Z" transform="translate(-320.032 -190.626)" fill="none" stroke="#4a63fe" stroke-miterlimit="10" stroke-width="1" stroke-dasharray="3 2"/>
      </g>
      <g id="Group_13495" data-name="Group 13495" transform="translate(223.648 74.058)">
        <g id="Group_13485" data-name="Group 13485" transform="translate(114.97)">
          <line id="Line_182" data-name="Line 182" x2="16.399" fill="none" stroke="#89b5f4" stroke-linejoin="round" stroke-width="1"/>
          <line id="Line_183" data-name="Line 183" x2="26.137" transform="translate(0 2.998)" fill="none" stroke="#89b5f4" stroke-linejoin="round" stroke-width="1"/>
          <line id="Line_184" data-name="Line 184" x2="26.137" transform="translate(0 5.995)" fill="none" stroke="#89b5f4" stroke-linejoin="round" stroke-width="1"/>
          <line id="Line_185" data-name="Line 185" x2="26.137" transform="translate(0 8.993)" fill="none" stroke="#89b5f4" stroke-linejoin="round" stroke-width="1"/>
        </g>
        <g id="Group_13486" data-name="Group 13486" transform="translate(4.585 18.691)">
          <line id="Line_186" data-name="Line 186" x2="16.399" fill="none" stroke="#89b5f4" stroke-linejoin="round" stroke-width="1"/>
          <line id="Line_187" data-name="Line 187" x2="26.137" transform="translate(0 2.998)" fill="none" stroke="#89b5f4" stroke-linejoin="round" stroke-width="1"/>
          <line id="Line_188" data-name="Line 188" x2="26.137" transform="translate(0 5.995)" fill="none" stroke="#89b5f4" stroke-linejoin="round" stroke-width="1"/>
          <line id="Line_189" data-name="Line 189" x2="26.137" transform="translate(0 8.993)" fill="none" stroke="#89b5f4" stroke-linejoin="round" stroke-width="1"/>
        </g>
        <g id="Group_13487" data-name="Group 13487" transform="translate(114.97 53.841)">
          <line id="Line_190" data-name="Line 190" x2="9.111" transform="translate(17.098)" fill="none" stroke="#89b5f4" stroke-linejoin="round" stroke-width="1"/>
          <line id="Line_191" data-name="Line 191" x2="26.137" transform="translate(0 2.998)" fill="none" stroke="#89b5f4" stroke-linejoin="round" stroke-width="1"/>
          <line id="Line_192" data-name="Line 192" x2="26.137" transform="translate(0 5.996)" fill="none" stroke="#89b5f4" stroke-linejoin="round" stroke-width="1"/>
          <line id="Line_193" data-name="Line 193" x2="26.137" transform="translate(0 8.993)" fill="none" stroke="#89b5f4" stroke-linejoin="round" stroke-width="1"/>
        </g>
        <g id="Group_13488" data-name="Group 13488" transform="translate(0 173.043)">
          <line id="Line_194" data-name="Line 194" x2="9.111" transform="translate(17.098)" fill="none" stroke="#89b5f4" stroke-linejoin="round" stroke-width="1"/>
          <line id="Line_195" data-name="Line 195" x2="26.137" transform="translate(0 2.998)" fill="none" stroke="#89b5f4" stroke-linejoin="round" stroke-width="1"/>
          <line id="Line_196" data-name="Line 196" x2="26.137" transform="translate(0 5.996)" fill="none" stroke="#89b5f4" stroke-linejoin="round" stroke-width="1"/>
          <line id="Line_197" data-name="Line 197" x2="26.137" transform="translate(0 8.993)" fill="none" stroke="#89b5f4" stroke-linejoin="round" stroke-width="1"/>
        </g>
        <g id="Group_13489" data-name="Group 13489" transform="translate(104.501 168.934)">
          <line id="Line_198" data-name="Line 198" x1="16.289" fill="none" stroke="#89b5f4" stroke-linejoin="round" stroke-width="1"/>
          <line id="Line_199" data-name="Line 199" x1="26.137" transform="translate(0.073 2.998)" fill="none" stroke="#89b5f4" stroke-linejoin="round" stroke-width="1"/>
          <line id="Line_200" data-name="Line 200" x1="26.137" transform="translate(0.073 5.995)" fill="none" stroke="#89b5f4" stroke-linejoin="round" stroke-width="1"/>
          <line id="Line_201" data-name="Line 201" x1="26.137" transform="translate(0.073 8.993)" fill="none" stroke="#89b5f4" stroke-linejoin="round" stroke-width="1"/>
        </g>
        <g id="Group_13490" data-name="Group 13490" transform="translate(72.098 3.707)">
          <path id="Path_19505" data-name="Path 19505" d="M368.285,236.427h17.576V218.852H405.39" transform="translate(-367.288 -218.852)" fill="none" stroke="#4a63fe" stroke-linejoin="round" stroke-width="0.75"/>
          <circle id="Ellipse_395" data-name="Ellipse 395" cx="0.997" cy="0.997" r="0.997" transform="translate(0 16.579)" fill="#4a63fe"/>
        </g>
        <g id="Group_13491" data-name="Group 13491" transform="translate(15.517 31.862)">
          <path id="Path_19506" data-name="Path 19506" d="M364.749,261.079H325.434V239.8" transform="translate(-325.434 -239.805)" fill="none" stroke="#4a63fe" stroke-linejoin="round" stroke-width="0.75"/>
          <path id="Path_19507" data-name="Path 19507" d="M355.945,255.918a1,1,0,1,0-1,1A1,1,0,0,0,355.945,255.918Z" transform="translate(-315.634 -234.609)" fill="#4a63fe"/>
        </g>
        <g id="Group_13492" data-name="Group 13492" transform="translate(7.994 110.211)">
          <path id="Path_19508" data-name="Path 19508" d="M343.346,298.856H319.835v57.368" transform="translate(-319.835 -297.859)" fill="none" stroke="#4a63fe" stroke-linejoin="round" stroke-width="0.75"/>
          <path id="Path_19509" data-name="Path 19509" d="M338.585,299.111a1,1,0,1,0-1,1A1,1,0,0,0,338.585,299.111Z" transform="translate(-314.076 -298.114)" fill="#4a63fe"/>
        </g>
        <g id="Group_13493" data-name="Group 13493" transform="translate(69.067 109.271)">
          <path id="Path_19510" data-name="Path 19510" d="M366.029,298.156h22v58.308h9.748" transform="translate(-365.032 -297.159)" fill="none" stroke="#4a63fe" stroke-linejoin="round" stroke-width="0.75"/>
          <path id="Path_19511" data-name="Path 19511" d="M367.281,298.411a1,1,0,1,0-1,1A1,1,0,0,0,367.281,298.411Z" transform="translate(-365.287 -297.414)" fill="#4a63fe"/>
        </g>
        <g id="Group_13494" data-name="Group 13494" transform="translate(109.506 66.302)">
          <path id="Path_19512" data-name="Path 19512" d="M396.125,305.64h15.988v-40.2" transform="translate(-395.128 -265.436)" fill="none" stroke="#4a63fe" stroke-linejoin="round" stroke-width="0.75"/>
          <circle id="Ellipse_396" data-name="Ellipse 396" cx="0.997" cy="0.997" r="0.997" transform="translate(0 39.442)" fill="#4a63fe"/>
        </g>
      </g>
      <path id="Path_19513" data-name="Path 19513" d="M471.692,280.155" transform="translate(-36.002 -120.017)" fill="none" stroke="#b7d1ff" stroke-miterlimit="10" stroke-width="1" stroke-dasharray="3 2"/>
      <g id="Group_13507" data-name="Group 13507" transform="translate(64.709 3.478)">
        <line id="Line_202" data-name="Line 202" x2="11.591" transform="translate(327.358 26.148)" fill="none" stroke="#a1c7ff" stroke-linecap="round" stroke-miterlimit="10" stroke-width="1"/>
        <line id="Line_203" data-name="Line 203" x2="11.591" transform="translate(377.773 209.606)" fill="none" stroke="#a1c7ff" stroke-linecap="round" stroke-miterlimit="10" stroke-width="1"/>
        <line id="Line_204" data-name="Line 204" x2="6.902" transform="translate(316.097 26.148)" fill="none" stroke="#a1c7ff" stroke-linecap="round" stroke-miterlimit="10" stroke-width="1"/>
        <line id="Line_205" data-name="Line 205" x2="11.591" transform="translate(501.875 131.749)" fill="none" stroke="#a1c7ff" stroke-linecap="round" stroke-miterlimit="10" stroke-width="1"/>
        <line id="Line_206" data-name="Line 206" x2="6.902" transform="translate(490.615 131.749)" fill="none" stroke="#a1c7ff" stroke-linecap="round" stroke-miterlimit="10" stroke-width="1"/>
        <line id="Line_207" data-name="Line 207" x2="6.902" transform="translate(388.303 204.509)" fill="none" stroke="#a1c7ff" stroke-linecap="round" stroke-miterlimit="10" stroke-width="1"/>
        <line id="Line_208" data-name="Line 208" x2="11.591" transform="translate(26.653 185.485)" fill="none" stroke="#a1c7ff" stroke-linecap="round" stroke-miterlimit="10" stroke-width="1"/>
        <line id="Line_209" data-name="Line 209" x2="6.902" transform="translate(15.393 185.485)" fill="none" stroke="#a1c7ff" stroke-linecap="round" stroke-miterlimit="10" stroke-width="1"/>
        <path id="Path_19514" data-name="Path 19514" d="M199.843,238a2.122,2.122,0,1,1-2.122-2.122A2.122,2.122,0,0,1,199.843,238Z" transform="translate(-195.6 -138.713)" fill="none" stroke="#a1c7ff" stroke-linecap="round" stroke-miterlimit="10" stroke-width="1"/>
        <path id="Path_19515" data-name="Path 19515" d="M330.26,181.988a2.122,2.122,0,1,1-2.122-2.12A2.122,2.122,0,0,1,330.26,181.988Z" transform="translate(-150.778 -157.962)" fill="none" stroke="#a1c7ff" stroke-linecap="round" stroke-miterlimit="10" stroke-width="1"/>
        <path id="Path_19516" data-name="Path 19516" d="M558.783,248.87a2.122,2.122,0,1,1-2.122-2.122A2.121,2.121,0,0,1,558.783,248.87Z" transform="translate(-72.238 -134.977)" fill="none" stroke="#a1c7ff" stroke-linecap="round" stroke-miterlimit="10" stroke-width="1"/>
        <path id="Path_19517" data-name="Path 19517" d="M455.012,302.758a2.121,2.121,0,1,1-2.122-2.12A2.122,2.122,0,0,1,455.012,302.758Z" transform="translate(-107.902 -116.456)" fill="none" stroke="#a1c7ff" stroke-linecap="round" stroke-miterlimit="10" stroke-width="1"/>
        <g id="Group_13496" data-name="Group 13496" transform="translate(51.599 156.81)">
          <line id="Line_210" data-name="Line 210" y2="5.953" transform="translate(2.977)" fill="none" stroke="#a1c7ff" stroke-linecap="round" stroke-miterlimit="10" stroke-width="1"/>
          <line id="Line_211" data-name="Line 211" x1="5.953" transform="translate(0 2.976)" fill="none" stroke="#a1c7ff" stroke-linecap="round" stroke-miterlimit="10" stroke-width="1"/>
        </g>
        <g id="Group_13497" data-name="Group 13497" transform="translate(217.93)">
          <line id="Line_212" data-name="Line 212" y2="5.953" transform="translate(2.976)" fill="none" stroke="#a1c7ff" stroke-linecap="round" stroke-miterlimit="10" stroke-width="1"/>
          <line id="Line_213" data-name="Line 213" x1="5.953" transform="translate(0 2.976)" fill="none" stroke="#a1c7ff" stroke-linecap="round" stroke-miterlimit="10" stroke-width="1"/>
        </g>
        <g id="Group_13498" data-name="Group 13498" transform="translate(80.82 46.45)">
          <line id="Line_214" data-name="Line 214" y2="5.953" transform="translate(2.977)" fill="none" stroke="#a1c7ff" stroke-linecap="round" stroke-miterlimit="10" stroke-width="1"/>
          <line id="Line_215" data-name="Line 215" x1="5.953" transform="translate(0 2.976)" fill="none" stroke="#a1c7ff" stroke-linecap="round" stroke-miterlimit="10" stroke-width="1"/>
        </g>
        <g id="Group_13499" data-name="Group 13499" transform="translate(359.23 92.29)">
          <line id="Line_216" data-name="Line 216" y2="5.953" transform="translate(2.977)" fill="none" stroke="#a1c7ff" stroke-linecap="round" stroke-miterlimit="10" stroke-width="1"/>
          <line id="Line_217" data-name="Line 217" x1="5.953" transform="translate(0 2.976)" fill="none" stroke="#a1c7ff" stroke-linecap="round" stroke-miterlimit="10" stroke-width="1"/>
        </g>
        <g id="Group_13500" data-name="Group 13500" transform="translate(497.647 236.179)">
          <line id="Line_218" data-name="Line 218" y2="5.953" transform="translate(2.977)" fill="none" stroke="#a1c7ff" stroke-linecap="round" stroke-miterlimit="10" stroke-width="1"/>
          <line id="Line_219" data-name="Line 219" x1="5.953" transform="translate(0 2.977)" fill="none" stroke="#a1c7ff" stroke-linecap="round" stroke-miterlimit="10" stroke-width="1"/>
        </g>
        <g id="Group_13502" data-name="Group 13502" transform="translate(25.717 198.477)">
          <path id="Path_19518" data-name="Path 19518" d="M241.492,318a11.126,11.126,0,1,1-14.623-5.809A11.128,11.128,0,0,1,241.492,318Z" transform="translate(-212.881 -311.277)" fill="none" stroke="#a1c7ff" stroke-linecap="round" stroke-linejoin="round" stroke-width="1"/>
          <g id="Group_13501" data-name="Group 13501" transform="translate(0 1.47)">
            <path id="Path_19519" data-name="Path 19519" d="M235.52,327.563c-8.832,3.809-19.055,5.919-20.605,2.325-1.217-2.82,4.178-7,7.148-8.956l-.052,1.61c-4.868,3.206-4.809,5.033-4.327,6.151.887,2.056,7.287,2.012,17.324-2.318s14.461-8.954,13.574-11.01c-.492-1.141-1.8-2.437-7.452-1.088l-1.172-1.018c5.875-1.4,10.491-1.178,11.393.912C252.9,317.765,244.352,323.754,235.52,327.563Z" transform="translate(-214.739 -312.37)" fill="none" stroke="#a1c7ff" stroke-linecap="round" stroke-linejoin="round" stroke-width="1"/>
          </g>
        </g>
        <g id="Group_13504" data-name="Group 13504" transform="translate(394.44 54.518)">
          <circle id="Ellipse_397" data-name="Ellipse 397" cx="15.846" cy="15.846" r="15.846" transform="matrix(0.129, -0.992, 0.992, 0.129, 9.525, 31.426)" fill="none" stroke="#a1c7ff" stroke-linecap="round" stroke-linejoin="round" stroke-width="1"/>
          <g id="Group_13503" data-name="Group 13503" transform="translate(0 6.14)">
            <path id="Path_19520" data-name="Path 19520" d="M513.945,228.571c-13.137-3.886-26.245-10.9-24.663-16.245,1.24-4.195,10.955-3.851,15.987-3.281l-1.525,1.716c-8.25-.932-9.852,1.121-10.344,2.784-.9,3.058,6.138,8.845,21.068,13.261s23.987,3.39,24.893.331c.5-1.7.255-4.305-7.162-7.986l-.353-2.184c7.7,3.824,12.554,8.278,11.634,11.388C541.9,233.7,527.083,232.456,513.945,228.571Z" transform="translate(-489.151 -208.709)" fill="none" stroke="#a1c7ff" stroke-linecap="round" stroke-linejoin="round" stroke-width="1"/>
          </g>
        </g>
        <g id="Group_13505" data-name="Group 13505" transform="translate(340.83 135.676)">
          <path id="Path_19521" data-name="Path 19521" d="M478.9,276.847l-14.374,7.948-9.081-1.093,14.374-7.947Z" transform="translate(-447.125 -260.685)" fill="none" stroke="#a1c7ff" stroke-linecap="round" stroke-linejoin="round" stroke-width="1"/>
          <path id="Path_19522" data-name="Path 19522" d="M472.819,265.632l-14.374,7.947-9.081-1.093,14.374-7.947Z" transform="translate(-449.215 -264.539)" fill="none" stroke="#a1c7ff" stroke-linecap="round" stroke-linejoin="round" stroke-width="1"/>
          <line id="Line_220" data-name="Line 220" x2="8.169" y2="15.069" transform="translate(23.604 1.093)" fill="none" stroke="#a1c7ff" stroke-linecap="round" stroke-linejoin="round" stroke-width="1"/>
          <line id="Line_221" data-name="Line 221" x2="8.319" y2="14.935" transform="translate(9.081 9.174)" fill="none" stroke="#a1c7ff" stroke-linecap="round" stroke-linejoin="round" stroke-width="1"/>
          <line id="Line_222" data-name="Line 222" x2="8.318" y2="14.935" transform="translate(0 8.081)" fill="none" stroke="#a1c7ff" stroke-linecap="round" stroke-linejoin="round" stroke-width="1"/>
          <line id="Line_223" data-name="Line 223" x2="8.318" y2="14.935" transform="translate(14.374 0.134)" fill="none" stroke="#a1c7ff" stroke-linecap="round" stroke-linejoin="round" stroke-width="1"/>
        </g>
        <path id="Path_19523" data-name="Path 19523" d="M567.316,309.831l.327-10.023,7.757,6.357,9.634-2.786-3.648,9.341,5.627,8.3L577,320.437l-6.156,7.916-2.539-9.7-9.431-3.409Z" transform="translate(-70.748 -116.741)" fill="none" stroke="#a1c7ff" stroke-linecap="round" stroke-linejoin="round" stroke-width="1"/>
        <path id="Path_19524" data-name="Path 19524" d="M286.641,176.9l5.809-5.74,1.022,8.1,7.254,3.751-7.39,3.476-1.326,8.058-5.59-5.954-8.074,1.229,3.935-7.156-3.664-7.3Z" transform="translate(-167.161 -160.954)" fill="none" stroke="#a1c7ff" stroke-linecap="round" stroke-linejoin="round" stroke-width="1"/>
        <g id="Group_13506" data-name="Group 13506" transform="translate(15.545 49.765)">
          <path id="Path_19525" data-name="Path 19525" d="M235.739,220.341l-12.351,1.633L207.169,210.9l10.754-2.286Z" transform="translate(-207.169 -197.848)" fill="none" stroke="#a1c7ff" stroke-linecap="round" stroke-linejoin="round" stroke-width="1"/>
          <path id="Path_19526" data-name="Path 19526" d="M219.24,224.728l9.327-24.126,3.024,22.493" transform="translate(-203.02 -200.601)" fill="none" stroke="#a1c7ff" stroke-linecap="round" stroke-linejoin="round" stroke-width="1"/>
          <path id="Path_19527" data-name="Path 19527" d="M207.169,213.651l25.546-13.05-14.792,10.763" transform="translate(-207.169 -200.601)" fill="none" stroke="#a1c7ff" stroke-linecap="round" stroke-linejoin="round" stroke-width="1"/>
        </g>
      </g>
      <path id="Path_19528" data-name="Path 19528" d="M232.153,273.227a11.7,11.7,0,0,0-4.793,1.028,8.73,8.73,0,0,0-16.858-4.531,19.755,19.755,0,1,0-39.127,4.6,13.6,13.6,0,1,0-10.334,22.426h71.112a11.762,11.762,0,1,0,0-23.524Z" transform="translate(-147.442 -130.104)" fill="#e1f1ff"/>
      <g id="Group_13508" data-name="Group 13508" transform="translate(13.119 335.107)">
        <rect id="Rectangle_2674" data-name="Rectangle 2674" width="597.387" height="1.344" fill="#a1c7ff"/>
      </g>
      <g id="Group_13510" data-name="Group 13510" transform="translate(415.959 299.106)">
        <g id="Group_13509" data-name="Group 13509">
          <path id="Rectangle_2675" data-name="Rectangle 2675" d="M6.913,0H30.431a6.913,6.913,0,0,1,6.913,6.913v141.33a0,0,0,0,1,0,0H0a0,0,0,0,1,0,0V6.913A6.913,6.913,0,0,1,6.913,0Z" transform="translate(177.63 0) rotate(90)" fill="#99bbeb"/>
          <path id="Path_19529" data-name="Path 19529" d="M580.547,383.578h-3.293a9.3,9.3,0,0,1,9.289,9.29v18.766a9.3,9.3,0,0,1-9.289,9.289h3.293a9.3,9.3,0,0,0,9.289-9.289V392.868A9.3,9.3,0,0,0,580.547,383.578Z" transform="translate(-415.681 -383.578)" fill="#99bbeb" opacity="0.55" style="mix-blend-mode: multiply;isolation: isolate"/>
          <path id="Path_19530" data-name="Path 19530" d="M565.743,383.578H562.45a9.3,9.3,0,0,1,9.289,9.29v18.766a9.3,9.3,0,0,1-9.289,9.289h3.293a9.3,9.3,0,0,0,9.289-9.289V392.868A9.3,9.3,0,0,0,565.743,383.578Z" transform="translate(-420.769 -383.578)" fill="#99bbeb" opacity="0.55" style="mix-blend-mode: multiply;isolation: isolate"/>
          <path id="Rectangle_2676" data-name="Rectangle 2676" d="M6.913,0H30.431a6.913,6.913,0,0,1,6.913,6.913V143.791a0,0,0,0,1,0,0H0a0,0,0,0,1,0,0V6.913A6.913,6.913,0,0,1,6.913,0Z" transform="translate(143.791 0) rotate(90)" fill="#99bbeb"/>
          <path id="Rectangle_2677" data-name="Rectangle 2677" d="M0,0H135.739a3.6,3.6,0,0,1,3.6,3.6V24.841a3.6,3.6,0,0,1-3.6,3.6H0a0,0,0,0,1,0,0V0A0,0,0,0,1,0,0Z" transform="translate(0 4.452)" fill="#e9f1ff"/>
        </g>
        <line id="Line_224" data-name="Line 224" x1="129.714" transform="translate(9.626 11.714)" fill="none" stroke="#bbd8f9" stroke-miterlimit="10" stroke-width="1"/>
        <line id="Line_225" data-name="Line 225" x1="49.914" transform="translate(89.425 18.673)" fill="none" stroke="#bbd8f9" stroke-miterlimit="10" stroke-width="1"/>
        <line id="Line_226" data-name="Line 226" x1="123.466" transform="translate(15.874 25.269)" fill="none" stroke="#bbd8f9" stroke-miterlimit="10" stroke-width="1"/>
        <line id="Line_227" data-name="Line 227" x1="49.914" transform="translate(32.78 18.673)" fill="none" stroke="#bbd8f9" stroke-miterlimit="10" stroke-width="1"/>
      </g>
      <g id="Group_13512" data-name="Group 13512" transform="translate(399.039 261.761)">
        <g id="Group_13511" data-name="Group 13511">
          <path id="Rectangle_2678" data-name="Rectangle 2678" d="M6.913,0H30.431a6.913,6.913,0,0,1,6.913,6.913v141.33a0,0,0,0,1,0,0H0a0,0,0,0,1,0,0V6.913A6.913,6.913,0,0,1,6.913,0Z" transform="translate(177.631 0.001) rotate(90)" fill="#f9c201"/>
          <path id="Path_19531" data-name="Path 19531" d="M567.955,355.785h-3.293a9.3,9.3,0,0,1,9.289,9.29v18.766a9.3,9.3,0,0,1-9.289,9.289h3.293a9.3,9.3,0,0,0,9.289-9.289V365.075A9.3,9.3,0,0,0,567.955,355.785Z" transform="translate(-403.089 -355.785)" fill="#ffcd2e"/>
          <path id="Path_19532" data-name="Path 19532" d="M553.151,355.785h-3.293a9.3,9.3,0,0,1,9.289,9.29v18.766a9.3,9.3,0,0,1-9.289,9.289h3.293a9.3,9.3,0,0,0,9.29-9.289V365.075A9.3,9.3,0,0,0,553.151,355.785Z" transform="translate(-408.177 -355.785)" fill="#ffcd2e"/>
          <path id="Rectangle_2679" data-name="Rectangle 2679" d="M6.913,0H30.431a6.913,6.913,0,0,1,6.913,6.913V143.791a0,0,0,0,1,0,0H0a0,0,0,0,1,0,0V6.913A6.913,6.913,0,0,1,6.913,0Z" transform="translate(143.791 0.001) rotate(90)" fill="#ffcc5a"/>
          <path id="Rectangle_2680" data-name="Rectangle 2680" d="M0,0H135.739a3.6,3.6,0,0,1,3.6,3.6V24.841a3.6,3.6,0,0,1-3.6,3.6H0a0,0,0,0,1,0,0V0A0,0,0,0,1,0,0Z" transform="translate(0 4.453)" fill="#ffead7"/>
        </g>
        <line id="Line_228" data-name="Line 228" x1="129.714" transform="translate(9.626 11.715)" fill="none" stroke="#ffd19f" stroke-miterlimit="10" stroke-width="1"/>
        <line id="Line_229" data-name="Line 229" x1="49.914" transform="translate(89.425 18.673)" fill="none" stroke="#ffd19f" stroke-miterlimit="10" stroke-width="1"/>
        <line id="Line_230" data-name="Line 230" x1="123.465" transform="translate(15.874 25.27)" fill="none" stroke="#ffd19f" stroke-miterlimit="10" stroke-width="1"/>
        <line id="Line_231" data-name="Line 231" x1="49.914" transform="translate(32.78 18.673)" fill="none" stroke="#ffd19f" stroke-miterlimit="10" stroke-width="1"/>
      </g>
      <path id="Path_19533" data-name="Path 19533" d="M530.727,400.6" transform="translate(-15.713 -78.623)" fill="none" stroke="#fe881c" stroke-miterlimit="10" stroke-width="1"/>
      <g id="Group_13527" data-name="Group 13527" transform="translate(461.394 106.182)">
        <g id="Group_13516" data-name="Group 13516" transform="translate(5.399 73.986)">
          <g id="Group_13513" data-name="Group 13513" transform="translate(21.314 122.496)">
            <path id="Path_19534" data-name="Path 19534" d="M511.631,410.881l24.628-11.224-.929-1.958L510.7,408.923Z" transform="translate(-510.702 -382.283)" fill="#212237"/>
            <path id="Path_19535" data-name="Path 19535" d="M528.113,392.872l2.361-.466s2.081,2.413,3.277,4.21a14.569,14.569,0,0,1,1.579,2.9L510.7,410.743s.1-1.575,4.411-7.691a14.092,14.092,0,0,0,2.173-4.5Z" transform="translate(-510.702 -384.102)" fill="#4a63fe"/>
            <path id="Path_19536" data-name="Path 19536" d="M526.93,386.226l3.545,8.3s-.465,1.721-4.648,3.627a35.2,35.2,0,0,1-8.54,2.521L510.7,388.025" transform="translate(-510.702 -386.226)" fill="#ffceb6"/>
          </g>
          <g id="Group_13514" data-name="Group 13514" transform="translate(35.664 131.5)">
            <rect id="Rectangle_2681" data-name="Rectangle 2681" width="27.065" height="1.784" transform="translate(27.067 24.752) rotate(179.935)" fill="#212237"/>
            <path id="Path_19537" data-name="Path 19537" d="M544.591,403.011l2.342.551s.9,3.06,1.242,5.188a19.623,19.623,0,0,1,.271,3.68l-27.064.03s.707-1.774,7.163-5.559a14.082,14.082,0,0,0,3.838-3.2Z" transform="translate(-521.381 -389.461)" fill="#4a63fe"/>
            <path id="Path_19538" data-name="Path 19538" d="M544.522,398l-.208,9.026s-1.135,1.375-5.732,1.38a35.149,35.149,0,0,1-8.819-1.239L529,392.927" transform="translate(-518.761 -392.927)" fill="#ffceb6"/>
          </g>
          <g id="Group_13515" data-name="Group 13515">
            <path id="Path_19539" data-name="Path 19539" d="M513.689,298.613s-17.282,44.144-18.774,65.012,19.377,66.08,19.377,66.08l23.351-9.441s-15.9-40.243-13.414-52.664,12.918-39.746,12.918-39.746l2.98-32.791" transform="translate(-494.839 -295.062)" fill="#202263"/>
            <path id="Path_19540" data-name="Path 19540" d="M547.849,299.839c7.109,13.454,4.859,63.594,4.129,80.03s.993,54.156.993,54.156H526.309s-4.557-40.821-6.177-61.341c-1.409-17.845-4.86-48.6-2.7-69.12" transform="translate(-487.313 -293.42)" fill="#202263"/>
            <path id="Path_19541" data-name="Path 19541" d="M536.9,308.128c5.1,31.9,2.871,44.338,2.552,67.941s1.964,55.032,1.964,55.032" transform="translate(-480.384 -290.571)" fill="none" stroke="#4d59a3" stroke-miterlimit="10" stroke-width="0.5"/>
            <line id="Line_232" data-name="Line 232" y1="0.381" x2="26.829" transform="translate(38.528 135.198)" fill="none" stroke="#4d59a3" stroke-miterlimit="10" stroke-width="0.5"/>
            <path id="Path_19542" data-name="Path 19542" d="M529.186,309.735c.447,8.5,11.634,7.271,11.634,7.271" transform="translate(-483.035 -290.019)" fill="none" stroke="#4d59a3" stroke-miterlimit="10" stroke-width="0.5"/>
            <path id="Path_19543" data-name="Path 19543" d="M516.526,310.122c-.885,17.547,2.026,44.1,2.026,44.1" transform="translate(-487.443 -289.886)" fill="none" stroke="#4d59a3" stroke-miterlimit="10" stroke-width="0.5"/>
            <path id="Path_19544" data-name="Path 19544" d="M513.075,310.886c-.431,12.738,4.534,12.809,4.534,12.809" transform="translate(-488.581 -289.624)" fill="none" stroke="#4d59a3" stroke-miterlimit="10" stroke-width="0.5"/>
            <path id="Path_19545" data-name="Path 19545" d="M510.9,310.965c-1.8,5.185-7.835,3.776-7.835,3.776" transform="translate(-492.012 -289.596)" fill="none" stroke="#4d59a3" stroke-miterlimit="10" stroke-width="0.5"/>
            <path id="Path_19546" data-name="Path 19546" d="M519.027,335.733s-5.18,10.358-6.357,20.716,11.3,38.373,11.3,38.373" transform="translate(-488.738 -281.084)" fill="none" stroke="#4d59a3" stroke-miterlimit="10" stroke-width="0.5"/>
            <line id="Line_233" data-name="Line 233" y1="7.488" x2="19.505" transform="translate(17.32 122.016)" fill="none" stroke="#4d59a3" stroke-miterlimit="10" stroke-width="0.5"/>
          </g>
        </g>
        <g id="Group_13518" data-name="Group 13518" transform="translate(31.256)">
          <path id="Path_19547" data-name="Path 19547" d="M516.623,243.549s-3.941,10.229-.7,13.651c1.682,1.778,6.755,2.192,8.954.512,1.633-1.247,4.179-9.121,3.3-10.529C524.813,241.8,516.623,243.549,516.623,243.549Z" transform="translate(-513.891 -238.873)" fill="#f2b18f"/>
          <path id="Path_19548" data-name="Path 19548" d="M527.921,251.284l.759,10.7s-5.591,5.677-11.44-.6l.837-6.988Z" transform="translate(-512.998 -236.121)" fill="#f2b18f"/>
          <g id="Group_13517" data-name="Group 13517">
            <path id="Path_19549" data-name="Path 19549" d="M523.664,248.877" transform="translate(-510.79 -236.949)" fill="#212237"/>
            <path id="Path_19550" data-name="Path 19550" d="M531.65,252.652c.429-2.19,1.541-3.383,1.393-5.923a3.01,3.01,0,0,0-2.408-2.988s-.277-1.29-2.476-2.279-9.908-2.826-13.434.206c-.68.585-1.405,4.184,1.166,5.011,4.208,1.353,9.924-1.029,11.02,1.655a4.886,4.886,0,0,1,.133,2.694,7.266,7.266,0,0,0-.087.9l1.293.585c1.637.689-1,3.838-.523,5,.249.61,1.579.629,2.6-.116S531.184,255.035,531.65,252.652Z" transform="translate(-514.083 -240)" fill="#212237"/>
          </g>
          <path id="Path_19551" data-name="Path 19551" d="M524.326,249.817c1.02-1.575,1.978-1.43,2.565-.673.783,1.01-.375,3.371-.976,3.812-1.217.894-2.27.911-2.468-.128" transform="translate(-510.865 -237.046)" fill="#f2b18f"/>
        </g>
        <g id="Group_13526" data-name="Group 13526" transform="translate(0 13.306)">
          <path id="Path_19552" data-name="Path 19552" d="M537.783,259.3a11.244,11.244,0,0,1-6.266,1.744c-3.9,0-5.127-2.314-5.127-2.314s-15.407.406-23.118,7.8c-8.428,8.081-16.639,24.98-10.062,35.944s24.978-2.709,24.978-2.709" transform="translate(-490.822 -246.868)" fill="#4a63fe"/>
          <path id="Path_19553" data-name="Path 19553" d="M516.788,261.635c-11.915-3.326-13.069,63.54-13.069,63.54,7.706,4.79,53.626,3.238,53.626,3.238s4.5-38.885-9.705-62.024c-2.772-4.517-14.29-7.232-14.29-7.232S525.136,263.965,516.788,261.635Z" transform="translate(-486.389 -246.722)" fill="#4a63fe"/>
          <g id="Group_13519" data-name="Group 13519" transform="translate(0.308)">
            <path id="Path_19554" data-name="Path 19554" d="M491.208,256.025l15.313-2.924,11.265,64.5s-1.146,3.078-5.931,3.991a9.561,9.561,0,0,1-7.6-1.406Z" transform="translate(-490.996 -248.803)" fill="#ffd9c0"/>
            <path id="Path_19555" data-name="Path 19555" d="M496.778,250.083s7.722-1.243,9.531,2.795-2.366,6.334-5.885,7.237-10.227.609-9.005-4.278c1.072-4.294,8.17-4.329,9.782-3.138s1.809,4.038-2.8,4.687-2.937-3.264-.564-3.421" transform="translate(-490.974 -249.903)" fill="#ffc088"/>
            <path id="Path_19556" data-name="Path 19556" d="M495.682,256.175s1.526,1.95,4.577.485,3.187-6.9-4.532-4.876c-7.781,2.042-4.665,8.785.765,8.382Z" transform="translate(-491.05 -249.41)" fill="#ffaf5f"/>
            <path id="Path_19557" data-name="Path 19557" d="M497.172,256.689l-.726-3.8s-2.331.883-2.147,2.278C494.527,256.889,497.172,256.689,497.172,256.689Z" transform="translate(-489.937 -248.877)" fill="#f78d37"/>
            <path id="Path_19558" data-name="Path 19558" d="M494.309,255.225l.816,4.354a15.166,15.166,0,0,0,6.948-1.521l-.946-4.955s.222,2.4-2.789,3.182S494.309,255.225,494.309,255.225Z" transform="translate(-489.93 -248.803)" fill="#ffcda4"/>
          </g>
          <g id="Group_13520" data-name="Group 13520" transform="translate(19.654 6.841)">
            <path id="Path_19559" data-name="Path 19559" d="M505.536,258.975l11.155-.419,1.373,56.079a5.164,5.164,0,0,1-4.616,2.581,6.437,6.437,0,0,1-5.244-2.209Z" transform="translate(-505.418 -253.77)" fill="#ffead7"/>
            <path id="Path_19560" data-name="Path 19560" d="M510.209,254.994s5.6-.017,6.471,3.641-2.327,5.042-4.915,5.333-7.314-.856-5.946-4.827c1.2-3.488,6.236-2.566,7.257-1.342s.868,3.659-2.463,3.59-1.748-3.156-.05-2.971" transform="translate(-505.405 -254.994)" fill="#ffc088"/>
            <path id="Path_19561" data-name="Path 19561" d="M508.745,259.988a2.425,2.425,0,0,0,3.2,1.024c2.312-.83,2.968-5.411-2.713-4.732-5.727.684-4.208,6.807-.317,7.194Z" transform="translate(-505.448 -254.576)" fill="#ffaf5f"/>
            <path id="Path_19562" data-name="Path 19562" d="M509.678,260.789l-.125-3.313s-1.743.434-1.756,1.639C507.782,260.6,509.678,260.789,509.678,260.789Z" transform="translate(-504.641 -254.141)" fill="#f78d37"/>
            <path id="Path_19563" data-name="Path 19563" d="M507.8,259.007l.133,3.792a9.147,9.147,0,0,0,5.082-.356l-.163-4.319a2.5,2.5,0,0,1-2.3,2.319A2.389,2.389,0,0,1,507.8,259.007Z" transform="translate(-504.642 -253.918)" fill="#ffcda4"/>
          </g>
          <g id="Group_13521" data-name="Group 13521" transform="translate(25.52 9.876)">
            <path id="Path_19564" data-name="Path 19564" d="M526.5,259.386l13.444,4.375-18.25,53.049s-2.213,1.809-6.415.442a8.893,8.893,0,0,1-5.466-4.309Z" transform="translate(-509.814 -256.52)" fill="#ffd9c0"/>
            <path id="Path_19565" data-name="Path 19565" d="M529.713,257.253s6.682,2.378,6.419,6.172-4.561,3.722-7.748,2.889-8.411-3.928-5.375-7.057c2.669-2.751,8.342.265,9.124,1.846s-.262,3.793-4.207,2.306-.965-3.7.994-2.8" transform="translate(-505.594 -257.253)" fill="#ffc088"/>
            <path id="Path_19566" data-name="Path 19566" d="M526.021,261.457s.4,2.114,3.445,2.325,5.455-3.795-1.555-5.587c-7.068-1.809-7.429,4.569-2.931,6.593Z" transform="translate(-505.619 -257.039)" fill="#ffaf5f"/>
            <path id="Path_19567" data-name="Path 19567" d="M526.659,262.774l1.025-3.154s-2.23-.339-2.673.783C524.464,261.789,526.659,262.774,526.659,262.774Z" transform="translate(-504.621 -256.456)" fill="#f78d37"/>
            <path id="Path_19568" data-name="Path 19568" d="M525.259,260.27l-1.186,3.6a14.522,14.522,0,0,0,6.182,1.84l1.338-4.109s-.84,1.892-3.569,1.184S525.259,260.27,525.259,260.27Z" transform="translate(-504.913 -256.216)" fill="#ffcda4"/>
          </g>
          <g id="Group_13523" data-name="Group 13523" transform="translate(30.037 32.116)">
            <g id="Group_13522" data-name="Group 13522">
              <path id="Path_19569" data-name="Path 19569" d="M513.176,279.986c1.462-1.162,7.38-5.779,7.67-5.367.278.4-1.677,2.463-1.42,2.577.365.164,2.143-1.072,3.076-1.857.832-.7,2.283-1.688,2.635-1.365.668.614-3.946,4.4-3.946,4.4.2.185,4.2-4.995,4.813-4.538.883.656-3.762,5.774-3.744,6.115,0,0,2.795-5.556,3.448-5.07s-1.72,5.509-2.9,6.665c.789-1.13,2.143-5.486,2.619-5.133s-1.031,3.878-1.383,4.34a32.442,32.442,0,0,1-6.131,6.126" transform="translate(-513.176 -273.804)" fill="#f2b18f"/>
            </g>
          </g>
          <path id="Path_19570" data-name="Path 19570" d="M493.884,283.284c10.145-.211,29.408-8.817,29.408-8.817l7.632,10.71s-17.343,15.341-32.587,16.029Z" transform="translate(-489.769 -241.46)" fill="#4a63fe"/>
          <path id="Path_19571" data-name="Path 19571" d="M520.7,292.22l9.726-7.042-7.632-10.71s-14.278,6.665-27.458,8.665" transform="translate(-489.27 -241.46)" fill="none" stroke="#6e94ff" stroke-miterlimit="10" stroke-width="0.5"/>
          <g id="Group_13525" data-name="Group 13525" transform="translate(11.089 65.798)">
            <g id="Group_13524" data-name="Group 13524">
              <path id="Path_19572" data-name="Path 19572" d="M514.15,299.45c-1.858-.188-10.271-.906-10.294-.4-.02.485,2.742,1.168,2.588,1.4-.219.335-2.384.255-3.592.1-1.079-.14-2.832-.188-2.955.274-.231.876,5.695,1.568,5.695,1.568-.07.266-6.233-1.935-6.5-1.221-.388,1.029,6.284,2.83,6.454,3.127,0,0-5.352-3.168-5.639-2.407s4.422,3.709,6.039,4.046c-1.275-.525-4.767-3.461-4.977-2.906s2.963,2.708,3.508,2.908a33.121,33.121,0,0,0,8.907,1.813" transform="translate(-499.074 -298.871)" fill="#f2b18f"/>
            </g>
          </g>
          <path id="Path_19573" data-name="Path 19573" d="M531.645,321.7c8.7-5.1,17.1-18.75,18.04-32.607.613-9.055-5.445-20.683-13.219-25.855" transform="translate(-476.791 -245.319)" fill="#4a63fe"/>
          <path id="Path_19574" data-name="Path 19574" d="M531.442,293.606a113.217,113.217,0,0,1-23.836,6.881l-2.026,15.931c6.513.513,23.9.6,35.931-5.6" transform="translate(-485.749 -234.883)" fill="#4a63fe"/>
          <path id="Path_19575" data-name="Path 19575" d="M516.826,315.951s15.334-2.151,20.82-5.395c9.133-5.4,12.889-16.189,12.889-16.189" transform="translate(-481.884 -234.621)" fill="none" stroke="#6e94ff" stroke-miterlimit="10" stroke-width="0.5"/>
          <path id="Path_19576" data-name="Path 19576" d="M507.088,306.321s16.761-2.85,25.1-7.547c6.6-3.717,7.893-22.143,7.893-22.143" transform="translate(-485.231 -240.717)" fill="none" stroke="#6e94ff" stroke-miterlimit="10" stroke-width="0.5"/>
        </g>
      </g>
      <g id="Group_13552" data-name="Group 13552" transform="translate(280.864 210.423)">
        <g id="Group_13544" data-name="Group 13544" transform="translate(81.105 33.222)">
          <path id="Path_19577" data-name="Path 19577" d="M425.283,371.14a1.809,1.809,0,0,1-1.751-1.352l-6.646-25.214a1.813,1.813,0,0,1,1.751-2.271H450.68a1.81,1.81,0,0,1,1.751,1.349l6.645,25.216a1.812,1.812,0,0,1-1.751,2.272Z" transform="translate(-416.827 -342.303)" fill="#4a63fe"/>
          <path id="Path_19578" data-name="Path 19578" d="M456.993,369.512H424.951a.513.513,0,0,1-.5-.383l-6.645-25.217a.514.514,0,0,1,.5-.645h32.042a.512.512,0,0,1,.5.383l6.645,25.218A.512.512,0,0,1,456.993,369.512Z" transform="translate(-416.496 -341.972)" fill="#c7e2ff"/>
          <g id="Group_13535" data-name="Group 13535" transform="translate(4.784 3.312)">
            <path id="Path_19579" data-name="Path 19579" d="M446.5,360.228h-22.31l-3.8-14.418H442.7Z" transform="translate(-420.388 -344.41)" fill="#c7e2ff" style="mix-blend-mode: multiply;isolation: isolate"/>
            <path id="Path_19580" data-name="Path 19580" d="M447.121,359.186h-22.31l-3.8-14.418h22.31Z" transform="translate(-420.174 -344.768)" fill="#f0f8ff"/>
            <g id="Group_13534" data-name="Group 13534" transform="translate(2.313 0.814)">
              <g id="Group_13533" data-name="Group 13533" clip-path="url(#clip-path-2)">
                <g id="Group_13532" data-name="Group 13532" transform="translate(-2.173 1.542)" opacity="0.35">
                  <g id="Group_13528" data-name="Group 13528">
                    <rect id="Rectangle_2682" data-name="Rectangle 2682" width="28.92" height="1.019" fill="#a4d0ff"/>
                  </g>
                  <g id="Group_13529" data-name="Group 13529" transform="translate(0 2.896)">
                    <rect id="Rectangle_2683" data-name="Rectangle 2683" width="28.92" height="1.019" fill="#a4d0ff"/>
                  </g>
                  <g id="Group_13530" data-name="Group 13530" transform="translate(0 5.791)">
                    <rect id="Rectangle_2684" data-name="Rectangle 2684" width="28.92" height="1.019" fill="#a4d0ff"/>
                  </g>
                  <g id="Group_13531" data-name="Group 13531" transform="translate(0 8.687)">
                    <rect id="Rectangle_2685" data-name="Rectangle 2685" width="28.92" height="1.019" fill="#a4d0ff"/>
                  </g>
                </g>
              </g>
            </g>
          </g>
          <g id="Group_13543" data-name="Group 13543" transform="translate(11.554 10.94)">
            <path id="Path_19582" data-name="Path 19582" d="M450.308,365.178H429.047l-3.62-13.74h21.261Z" transform="translate(-425.426 -350.103)" fill="#c7e2ff" style="mix-blend-mode: multiply;isolation: isolate"/>
            <path id="Path_19583" data-name="Path 19583" d="M450.9,364.185H429.641l-3.62-13.74h21.261Z" transform="translate(-425.222 -350.445)" fill="#f0f8ff"/>
            <g id="Group_13542" data-name="Group 13542" transform="translate(2.205 0.776)">
              <g id="Group_13541" data-name="Group 13541" clip-path="url(#clip-path-3)">
                <g id="Group_13540" data-name="Group 13540" transform="translate(-2.071 1.469)">
                  <g id="Group_13536" data-name="Group 13536">
                    <rect id="Rectangle_2686" data-name="Rectangle 2686" width="27.561" height="0.971" fill="#c7e2ff"/>
                  </g>
                  <g id="Group_13537" data-name="Group 13537" transform="translate(0 2.76)">
                    <rect id="Rectangle_2687" data-name="Rectangle 2687" width="27.561" height="0.971" fill="#c7e2ff"/>
                  </g>
                  <g id="Group_13538" data-name="Group 13538" transform="translate(0 5.519)">
                    <rect id="Rectangle_2688" data-name="Rectangle 2688" width="27.561" height="0.971" fill="#c7e2ff"/>
                  </g>
                  <g id="Group_13539" data-name="Group 13539" transform="translate(0 8.279)">
                    <rect id="Rectangle_2689" data-name="Rectangle 2689" width="27.561" height="0.971" fill="#c7e2ff"/>
                  </g>
                </g>
              </g>
            </g>
          </g>
        </g>
        <g id="Group_13547" data-name="Group 13547" transform="translate(0 80.664)">
          <g id="Group_13545" data-name="Group 13545" transform="translate(0 17.545)">
            <rect id="Rectangle_2690" data-name="Rectangle 2690" width="27.065" height="1.212" transform="translate(2.815 27.044) rotate(-95.969)" fill="#ff7d12"/>
            <path id="Path_19585" data-name="Path 19585" d="M369.72,412.723l-.308,2.386s-2.949,1.207-5.032,1.77a24.966,24.966,0,0,1-4.2.707l-2.814-26.918s2.405.461,6.835,6.494a14.073,14.073,0,0,0,3.576,3.49Z" transform="translate(-356.159 -390.668)" fill="#2e53ed"/>
            <path id="Path_19586" data-name="Path 19586" d="M386.488,411.5l-19.616,1.375s-1.483-.988-1.962-5.559a35.128,35.128,0,0,1,.325-8.9l19.6-1.264" transform="translate(-353.618 -388.437)" fill="#f2b18f"/>
          </g>
          <path id="Path_19587" data-name="Path 19587" d="M499.985,418.6c-13.352.481-34.807.594-56.221.551-34.633-.071-69.165-.551-69.165-.551l-2.528-20.724s32.621-3.332,63.957-7.682c30.832-4.281,60.737,2.029,60.737,2.029" transform="translate(-351.104 -373.797)" fill="#091e89"/>
          <line id="Line_234" data-name="Line 234" x2="105.861" y2="0.095" transform="translate(22.557 37.115)" fill="none" stroke="#2058bc" stroke-miterlimit="10" stroke-width="0.5"/>
          <g id="Group_13546" data-name="Group 13546" transform="translate(15.233 16.399)">
            <rect id="Rectangle_2691" data-name="Rectangle 2691" width="27.065" height="1.212" transform="matrix(-0.587, -0.809, 0.809, -0.587, 15.9, 28.19)" fill="#ff7d12"/>
            <path id="Path_19588" data-name="Path 19588" d="M390.264,406.909l.927,2.22s-1.951,2.521-3.473,4.05a25.047,25.047,0,0,1-3.284,2.713l-15.9-21.9s2.314-.8,9.167,2.2a14.11,14.11,0,0,0,4.841,1.234Z" transform="translate(-367.553 -388.414)" fill="#2e53ed"/>
            <path id="Path_19589" data-name="Path 19589" d="M399.857,405.039l-12.249,5.492s-1.779-.113-4.48-3.832a35.187,35.187,0,0,1-4.169-7.869l19.541-9.015" transform="translate(-363.97 -389.815)" fill="#f2b18f"/>
          </g>
          <path id="Path_19590" data-name="Path 19590" d="M514.286,382.032s11.472,40.383-17.274,40.383-47.592-19.753-51.642-20.239S397.8,418.614,397.8,418.614l-12.77-19.744s34.807-17.948,48.412-20.725,50.162,6.169,50.162,6.169" transform="translate(-346.65 -377.61)" fill="#103bb2"/>
          <path id="Path_19591" data-name="Path 19591" d="M471.515,410.955" transform="translate(-316.927 -366.15)" fill="#202263"/>
          <path id="Path_19592" data-name="Path 19592" d="M498.935,383.143s3.572,20.32-3.586,26c-10.173,8.077-46.54-16-52.646-16s-51.065,17.645-51.065,17.645" transform="translate(-344.38 -375.709)" fill="none" stroke="#4873d3" stroke-miterlimit="10" stroke-width="0.5"/>
          <path id="Path_19593" data-name="Path 19593" d="M462.632,382.791c-.151,9.665,12.31,9.59,12.31,9.59" transform="translate(-319.981 -375.83)" fill="none" stroke="#4873d3" stroke-miterlimit="10" stroke-width="0.5"/>
          <line id="Line_235" data-name="Line 235" x2="11.832" y2="19.767" transform="translate(43.168 19.668)" fill="none" stroke="#4873d3" stroke-miterlimit="10" stroke-width="0.5"/>
        </g>
        <g id="Group_13548" data-name="Group 13548" transform="translate(134.581)">
          <path id="Path_19594" data-name="Path 19594" d="M458.1,326.022c-1.54,5.075-1.521,9.754,2.781,11.06s10.58.9,12.8-6.33c1.555-5.071-.7-10.248-5-11.554S459.643,320.947,458.1,326.022Z" transform="translate(-456.438 -317.125)" fill="#f2b18f" fill-rule="evenodd"/>
          <path id="Path_19595" data-name="Path 19595" d="M461.725,339.213a12.69,12.69,0,0,0,6.182.847c3.942-.512,4.715-2.018,4.715-2.018l-3.244-10.881-8.637,2.573Z" transform="translate(-455.211 -314.285)" fill="#f2b18f" fill-rule="evenodd"/>
          <path id="Path_19596" data-name="Path 19596" d="M459.241,324.178s-2.646,2.944-2.615,3.539,1.59,1.074,1.59,1.074" transform="translate(-456.626 -315.31)" fill="#f2b18f" fill-rule="evenodd"/>
          <path id="Path_19597" data-name="Path 19597" d="M458.208,322.027" transform="translate(-456.082 -316.049)" fill="none" stroke="#22252d" stroke-miterlimit="10" stroke-width="0.25"/>
          <path id="Path_19598" data-name="Path 19598" d="M467.509,330.407a8,8,0,0,1-4.68-7.883,5.137,5.137,0,0,1-4.621,1.032c2.011-3.913,6.3-6.638,10.766-5.838a9.111,9.111,0,0,1,6.1,3.872c2.221,3.287,2.255,5.111,3.307,8.84.376,1.333,1.373,4.32,2.925,5.279-2.034,1.59-8.712,4.388-17.167,2.608a11.161,11.161,0,0,0,3.511-9.18" transform="translate(-456.082 -317.578)" fill="#22252d"/>
          <path id="Path_19599" data-name="Path 19599" d="M464.489,326.325a1.6,1.6,0,0,1,2.314-.177c1.569,1.408-.621,4.249-1.912,4.684s-1.622-1.005-1.622-1.005" transform="translate(-454.343 -314.785)" fill="#f2b18f"/>
        </g>
        <g id="Group_13551" data-name="Group 13551" transform="translate(82.103 23.756)">
          <g id="Group_13550" data-name="Group 13550" transform="translate(0 29.751)">
            <g id="Group_13549" data-name="Group 13549">
              <path id="Path_19600" data-name="Path 19600" d="M432.384,361.312c-1.685-.808-9.356-4.336-9.548-3.87-.183.449,2.183,2.028,1.959,2.2-.32.24-2.329-.568-3.413-1.126-.966-.5-2.6-1.137-2.871-.744-.515.747,4.824,3.408,4.824,3.408-.154.226-5.207-3.934-5.7-3.355-.715.837,4.953,4.794,5.011,5.13,0,0-3.961-4.8-4.489-4.176s2.9,4.989,4.308,5.854c-1.02-.927-3.31-4.874-3.7-4.422s1.868,3.551,2.314,3.924a33.09,33.09,0,0,0,7.765,4.727" transform="translate(-417.571 -357.4)" fill="#f2b18f"/>
            </g>
          </g>
          <path id="Path_19601" data-name="Path 19601" d="M476.425,366.307s-4.067,22.315-16.832,24.385c-15.6,2.53-37.724-10.92-37.724-10.92l6.211-12.421c14.591,4.042,23.333,4.164,25.642,2.053s4.8-15.677,11.1-24.68,10.184-8.758,10.184-8.758,1.3,1.29,5.156,1.17a9.575,9.575,0,0,0,5.817-1.878s6.127,1.428,12.428,12.906,4.52,50.963,4.52,50.963-22.707,4.6-45.474-3.448c0,0-.806-37.169,4.667-45.378" transform="translate(-416.093 -335.258)" fill="#fd907e"/>
          <path id="Path_19602" data-name="Path 19602" d="M448.353,384.745C465,382,468.4,353.246,468.4,353.246" transform="translate(-406.991 -329.076)" fill="none" stroke="#ba4a13" stroke-miterlimit="10" stroke-width="0.5"/>
        </g>
      </g>
      <g id="Group_13559" data-name="Group 13559" transform="translate(21.273 244.785)">
        <g id="Group_13553" data-name="Group 13553" transform="translate(71.241 8.311)">
          <path id="Path_19603" data-name="Path 19603" d="M260.451,350.2l14.65,12.375L229.243,414.24s-3.479.869-8.057-3-4.894-7.94-4.894-7.94Z" transform="translate(-216.293 -349.04)" fill="#ffd9c0"/>
          <path id="Path_19604" data-name="Path 19604" d="M259.7,351.191s7.2,6.385,5.277,10.6-7.163,1.784-10.723-.915-8.667-9.112-3.623-11.049c4.433-1.7,10.125,4.865,10.418,7.109s-1.92,4.216-6.134.349.375-4.778,2.4-2.673" transform="translate(-205.218 -349.263)" fill="#ffc088"/>
          <path id="Path_19605" data-name="Path 19605" d="M253.306,354.311s-.406,2.643,3.248,4.552,8.29-1.379.445-7.271c-7.91-5.94-11.04,1.189-6.372,5.977Z" transform="translate(-205.244 -349.336)" fill="#ffaf5f"/>
          <path id="Path_19606" data-name="Path 19606" d="M253.317,356.346l2.587-3.064s-2.595-1.608-3.609-.56C251.04,354.016,253.317,356.346,253.317,356.346Z" transform="translate(-204.049 -348.295)" fill="#f78d37"/>
          <path id="Path_19607" data-name="Path 19607" d="M252.886,352.7l-2.975,3.494a22.048,22.048,0,0,0,6.81,5.492l3.373-3.991s-1.825,1.716-4.875-.59S252.886,352.7,252.886,352.7Z" transform="translate(-204.739 -348.179)" fill="#ffd19f"/>
        </g>
        <g id="Group_13554" data-name="Group 13554" transform="translate(6.495 14.207)">
          <path id="Path_19608" data-name="Path 19608" d="M168.754,368.8l18.05-13.254,38.435,54.844s.118,4.3-5.523,8.438-10.431,3.276-10.431,3.276Z" transform="translate(-167.886 -353.097)" fill="#ffead7"/>
          <path id="Path_19609" data-name="Path 19609" d="M172.381,357.685s9.22-6.416,13.609-2.916.238,8.848-3.791,12.16-12.749,7.3-13.7.863c-.84-5.654,8.207-10.272,10.878-9.934s4.388,3.5-1.16,7.221-5.431-1.88-2.48-3.592" transform="translate(-167.994 -353.724)" fill="#ffc088"/>
          <path id="Path_19610" data-name="Path 19610" d="M174.384,365.066s2.955,1.27,6.094-2.39.52-10.033-8.3-2.714c-8.887,7.379-1.438,13.165,5.289,9.2Z" transform="translate(-168.108 -352.737)" fill="#ffaf5f"/>
          <path id="Path_19611" data-name="Path 19611" d="M176.849,363.557l-2.882-3.928s-2.523,2.523-1.569,4.019C173.573,365.493,176.849,363.557,176.849,363.557Z" transform="translate(-166.708 -351.695)" fill="#f78d37"/>
          <path id="Path_19612" data-name="Path 19612" d="M172.407,364.478l3.284,4.507a24.758,24.758,0,0,0,8.089-6.24l-3.758-5.118s1.52,2.636-1.924,5.478S172.407,364.478,172.407,364.478Z" transform="translate(-166.63 -352.383)" fill="#ffd19f"/>
        </g>
        <g id="Group_13555" data-name="Group 13555" transform="translate(31.096 21.508)">
          <path id="Path_19613" data-name="Path 19613" d="M197.413,359.158l2.108,9.089-3.295,3.488-4.921-1.582-2.108-9.09a8.574,8.574,0,1,0,8.215-1.905Z" transform="translate(-186.417 -359.158)" fill="#b8daff"/>
          <rect id="Rectangle_2692" data-name="Rectangle 2692" width="8.433" height="35.981" transform="translate(6.057 16.028) rotate(-13.06)" fill="#b8daff"/>
          <path id="Path_19614" data-name="Path 19614" d="M201.289,394.615a8.573,8.573,0,1,0,10.289,6.413A8.571,8.571,0,0,0,201.289,394.615Zm6.694,9.8-3.633,3.394-4.758-1.448-1.123-4.844,3.633-3.4,4.758,1.448Z" transform="translate(-183.586 -347.049)" fill="#6486f2"/>
        </g>
        <g id="Group_13556" data-name="Group 13556" transform="translate(42.839 21.212)">
          <path id="Path_19615" data-name="Path 19615" d="M197.825,412.59l2.776-9.7,4.946-1.568,3.82,4.077-2.776,9.7a9.271,9.271,0,1,0-8.766-2.51Z" transform="translate(-195.156 -345.918)" fill="#6486f2"/>
          <rect id="Rectangle_2693" data-name="Rectangle 2693" width="38.906" height="9.119" transform="matrix(0.275, -0.961, 0.961, 0.275, 6.982, 51.601)" fill="#a1c7ff"/>
          <path id="Path_19616" data-name="Path 19616" d="M212.72,377.121a9.269,9.269,0,1,0-6.361-11.463A9.27,9.27,0,0,0,212.72,377.121Zm-1.186-12.778,5.218-1.3,3.737,3.866-1.479,5.169-5.217,1.3-3.737-3.866Z" transform="translate(-191.429 -358.938)" fill="#a1c7ff"/>
        </g>
        <g id="Group_13557" data-name="Group 13557" transform="translate(53.449)">
          <path id="Path_19617" data-name="Path 19617" d="M237.281,345.359l19.872,10.322-36.537,67.128s-4.031,2.451-10.24-.775-7.323-8.348-7.323-8.348Z" transform="translate(-203.052 -342.392)" fill="#ffead7"/>
          <path id="Path_19618" data-name="Path 19618" d="M241.273,343.151s9.816,5.466,8.265,11.63-8.3,5.04-13.075,2.929-12.078-8.411-6.353-12.838c5.029-3.889,13.066,2.385,13.824,5.162s-1.551,6.165-7.323,2.8-.41-6.294,2.408-4.359" transform="translate(-194.473 -343.151)" fill="#ffc088"/>
          <path id="Path_19619" data-name="Path 19619" d="M234.122,349.455s-.012,3.558,4.731,4.617,9.734-4.949-.775-9.529c-10.594-4.62-13.077,5.759-6.595,10.134Z" transform="translate(-194.503 -343.071)" fill="#ffaf5f"/>
          <path id="Path_19620" data-name="Path 19620" d="M234.59,351.851l2.562-4.934s-3.414-1.078-4.448.661C231.428,349.723,234.59,351.851,234.59,351.851Z" transform="translate(-192.965 -341.97)" fill="#f78d37"/>
          <path id="Path_19621" data-name="Path 19621" d="M233.307,347.446l-2.951,5.637a21.791,21.791,0,0,0,9.189,4.464l3.342-6.431s-1.889,2.908-5.978,1.109S233.307,347.446,233.307,347.446Z" transform="translate(-193.668 -341.675)" fill="#ffd19f"/>
        </g>
        <g id="Group_13558" data-name="Group 13558" transform="translate(0 50.066)">
          <rect id="Rectangle_2694" data-name="Rectangle 2694" width="69.68" height="41.6" transform="translate(15.279)" fill="#ffac06"/>
          <rect id="Rectangle_2695" data-name="Rectangle 2695" width="38.133" height="41.6" transform="translate(84.266)" fill="#ff8f08"/>
          <path id="Path_19622" data-name="Path 19622" d="M232.626,400.482H163.274l14.912-20.07h69.352Z" transform="translate(-163.274 -380.411)" fill="#ffd8bd"/>
          <path id="Path_19623" data-name="Path 19623" d="M234.543,400.483l38.324,0-8.7-20.07-38.324,0Z" transform="translate(-141.77 -380.411)" fill="#ffc69f"/>
        </g>
      </g>
      <g id="Group_13571" data-name="Group 13571" transform="translate(124.253 66.951)">
        <g id="Group_13562" data-name="Group 13562" transform="translate(0 118.839)">
          <g id="Group_13561" data-name="Group 13561" transform="translate(0 3.405)">
            <g id="Group_13560" data-name="Group 13560">
              <line id="Line_236" data-name="Line 236" y1="147.256" x2="16.803" transform="translate(47.177)" fill="none" stroke="#254bb7" stroke-miterlimit="10" stroke-width="1"/>
              <line id="Line_237" data-name="Line 237" y1="147.256" x2="16.802" fill="none" stroke="#254bb7" stroke-miterlimit="10" stroke-width="1"/>
              <line id="Line_238" data-name="Line 238" x2="46.963" transform="translate(2.594 126.395)" fill="none" stroke="#254bb7" stroke-miterlimit="10" stroke-width="1"/>
              <line id="Line_239" data-name="Line 239" x2="46.875" transform="translate(4.739 108.363)" fill="none" stroke="#254bb7" stroke-miterlimit="10" stroke-width="1"/>
              <line id="Line_240" data-name="Line 240" x2="46.778" transform="translate(6.552 89.836)" fill="none" stroke="#254bb7" stroke-miterlimit="10" stroke-width="1"/>
              <line id="Line_241" data-name="Line 241" x2="46.677" transform="translate(8.567 72.177)" fill="none" stroke="#254bb7" stroke-miterlimit="10" stroke-width="1"/>
              <line id="Line_242" data-name="Line 242" x2="46.96" transform="translate(10.672 53.73)" fill="none" stroke="#254bb7" stroke-miterlimit="10" stroke-width="1"/>
              <line id="Line_243" data-name="Line 243" x2="46.683" transform="translate(12.757 35.449)" fill="none" stroke="#254bb7" stroke-miterlimit="10" stroke-width="1"/>
              <line id="Line_244" data-name="Line 244" x2="46.847" transform="translate(15.057 18.184)" fill="none" stroke="#254bb7" stroke-miterlimit="10" stroke-width="1"/>
            </g>
            <line id="Line_245" data-name="Line 245" x1="16.802" y1="147.256" transform="translate(16.802)" fill="none" stroke="#254bb7" stroke-miterlimit="10" stroke-width="1"/>
            <line id="Line_246" data-name="Line 246" x1="16.802" y1="147.256" transform="translate(63.979)" fill="none" stroke="#254bb7" stroke-miterlimit="10" stroke-width="1"/>
            <line id="Line_247" data-name="Line 247" x1="46.963" transform="translate(31.225 126.395)" fill="none" stroke="#254bb7" stroke-miterlimit="10" stroke-width="1"/>
            <line id="Line_248" data-name="Line 248" x1="46.875" transform="translate(29.167 108.363)" fill="none" stroke="#254bb7" stroke-miterlimit="10" stroke-width="1"/>
            <line id="Line_249" data-name="Line 249" x1="46.778" transform="translate(27.452 89.836)" fill="none" stroke="#254bb7" stroke-miterlimit="10" stroke-width="1"/>
            <line id="Line_250" data-name="Line 250" x1="46.677" transform="translate(25.537 72.177)" fill="none" stroke="#254bb7" stroke-miterlimit="10" stroke-width="1"/>
            <line id="Line_251" data-name="Line 251" x1="46.96" transform="translate(23.15 53.73)" fill="none" stroke="#254bb7" stroke-miterlimit="10" stroke-width="1"/>
            <line id="Line_252" data-name="Line 252" x1="46.683" transform="translate(21.341 35.449)" fill="none" stroke="#254bb7" stroke-miterlimit="10" stroke-width="1"/>
            <line id="Line_253" data-name="Line 253" x1="46.847" transform="translate(18.877 18.184)" fill="none" stroke="#254bb7" stroke-miterlimit="10" stroke-width="1"/>
          </g>
          <rect id="Rectangle_2696" data-name="Rectangle 2696" width="60.816" height="4.262" transform="translate(9.682)" fill="#254bb7"/>
        </g>
        <g id="Group_13570" data-name="Group 13570" transform="translate(1.536)">
          <path id="Path_19624" data-name="Path 19624" d="M333.71,244.629l-16.717,31.7H272.84v-3.962H316l15.443-29.23Z" transform="translate(-230.134 -199.69)" fill="#202263"/>
          <g id="Group_13563" data-name="Group 13563" transform="translate(26.96)">
            <path id="Path_19625" data-name="Path 19625" d="M279.514,221.7c.227,5.333-.967,9.89-5.489,10.082s-10.541-1.78-10.885-9.387c-.242-5.333,3.254-9.814,7.776-10.006S279.287,216.369,279.514,221.7Z" transform="translate(-260.431 -210.259)" fill="#f2b18f" fill-rule="evenodd"/>
            <path id="Path_19626" data-name="Path 19626" d="M271.449,233.541a15.765,15.765,0,0,1-6.133-1.08c-3.713-1.49-4.2-2.8-4.2-2.8l5.9-9.79,7.772,4.677Z" transform="translate(-261.121 -207.687)" fill="#f2b18f" fill-rule="evenodd"/>
            <path id="Path_19627" data-name="Path 19627" d="M274.679,219.122s1.84,3.534,1.659,4.108-1.819.648-1.819.648" transform="translate(-256.516 -207.944)" fill="#f2b18f" fill-rule="evenodd"/>
            <path id="Path_19628" data-name="Path 19628" d="M268.5,222.7c.7,1.356,2.681,2.278,3.459-.149s.469-3.111,1.694-3.365c1.543-.318,1.109.8,6.385,1.146,3.151.207,4.6-2.185,4.251-3.9a3.349,3.349,0,0,0-2.779-2.892c-2.811-.493-1.911.1-3.718-.478s-2.5-2.131-5.386-2.256a5.5,5.5,0,0,0-4.478,2.128,3.456,3.456,0,0,0-4.192,1.51c-1.749,2.415-.684,3.421-1.754,5.867-.934,2.136-.267,5.774.806,6.839a4,4,0,0,0,5.672.114s-2.9-4.863-.779-4.718" transform="translate(-260.976 -210.803)" fill="#212237"/>
            <path id="Path_19629" data-name="Path 19629" d="M268.343,220.059a1.611,1.611,0,0,0-2.212-.754c-1.883.978-.462,4.3.687,5.046s1.834-.571,1.834-.571" transform="translate(-259.714 -207.954)" fill="#f2b18f"/>
          </g>
          <g id="Group_13566" data-name="Group 13566" transform="translate(6.258 75.919)">
            <g id="Group_13564" data-name="Group 13564" transform="translate(63.191 75.959)">
              <rect id="Rectangle_2697" data-name="Rectangle 2697" width="27.065" height="1.212" transform="translate(0.843 30.958) rotate(6.832)" fill="#103bb2"/>
              <path id="Path_19630" data-name="Path 19630" d="M298.375,339.829l-2.392.271s-1.251,2.931-1.844,5.005a24.839,24.839,0,0,0-.77,4.19l26.872,3.219s-.426-2.413-6.391-6.932a14.1,14.1,0,0,1-3.436-3.628Z" transform="translate(-292.526 -318.337)" fill="#22252d"/>
              <path id="Path_19631" data-name="Path 19631" d="M292.742,327.064,296.2,345.6s.966,1.5,5.529,2.045a35.154,35.154,0,0,0,8.9-.191l-2.186-23.618" transform="translate(-292.742 -323.834)" fill="#f2b18f"/>
            </g>
            <path id="Path_19632" data-name="Path 19632" d="M313.666,290.689l4.214,62.364-24.551,3.2-4.882-55.142" transform="translate(-231.027 -259.267)" fill="#141744"/>
            <line id="Line_254" data-name="Line 254" y1="3.09" x2="23.564" transform="translate(62.096 89.294)" fill="none" stroke="#4d59a3" stroke-miterlimit="10" stroke-width="0.5"/>
            <g id="Group_13565" data-name="Group 13565" transform="translate(37.15 77.322)">
              <rect id="Rectangle_2698" data-name="Rectangle 2698" width="27.065" height="1.212" transform="matrix(0.908, 0.419, -0.419, 0.908, 0.508, 14.581)" fill="#103bb2"/>
              <path id="Path_19633" data-name="Path 19633" d="M281.422,330.271l-2.358-.48s-2.095,2.4-3.3,4.194a24.926,24.926,0,0,0-2.025,3.748l24.569,11.353s.34-2.427-3.941-8.566a14.108,14.108,0,0,1-2.148-4.511Z" transform="translate(-273.232 -323.15)" fill="#22252d"/>
              <path id="Path_19634" data-name="Path 19634" d="M281.311,324.849l-3.609,6.64s.455,1.724,4.629,3.652a35.141,35.141,0,0,0,8.527,2.565l7.382-11.334" transform="translate(-271.87 -324.849)" fill="#f2b18f"/>
            </g>
            <path id="Path_19635" data-name="Path 19635" d="M247.141,269.733s-7.572,40.491,12.167,40.491c15.426,0,33.334.251,40.426.363a2.273,2.273,0,0,1,2.115,3.009l-11.237,33.09,23.951,10.471s19.52-43.952,17.359-60.423-56.97-18.629-56.97-18.629l-5.67-10.8" transform="translate(-245.714 -267.304)" fill="#202263"/>
            <path id="Path_19636" data-name="Path 19636" d="M254.383,272.845s-4.065,22.21,6.26,25.5,34.818,3.68,42.139,5.342a5.167,5.167,0,0,1,3.877,6.268l-13.317,37.22" transform="translate(-243.006 -265.4)" fill="none" stroke="#4d59a3" stroke-miterlimit="10" stroke-width="0.5"/>
            <path id="Path_19637" data-name="Path 19637" d="M269.526,274.966c-.966,7.341-15.826,10.11-15.826,10.11" transform="translate(-242.969 -264.671)" fill="none" stroke="#4d59a3" stroke-miterlimit="10" stroke-width="0.5"/>
            <line id="Line_255" data-name="Line 255" x2="24.214" y2="10.691" transform="translate(46.258 75.388)" fill="none" stroke="#4d59a3" stroke-miterlimit="10" stroke-width="0.5"/>
          </g>
          <g id="Group_13569" data-name="Group 13569" transform="translate(0 21.643)">
            <g id="Group_13568" data-name="Group 13568" transform="translate(75.84 53.502)">
              <g id="Group_13567" data-name="Group 13567">
                <path id="Path_19638" data-name="Path 19638" d="M297.5,267.012c1.864-.124,10.3-.547,10.3-.043,0,.485-2.78,1.071-2.634,1.311.207.343,2.373.337,3.586.223,1.082-.1,2.836-.089,2.943.376.2.885-5.746,1.369-5.746,1.369.06.267,6.3-1.716,6.54-.993.352,1.041-6.38,2.608-6.559,2.9,0,0,5.459-2.979,5.72-2.208s-4.548,3.553-6.176,3.832c1.291-.48,4.884-3.292,5.075-2.73s-3.056,2.6-3.606,2.783a33.142,33.142,0,0,1-8.966,1.5" transform="translate(-297.499 -266.728)" fill="#f2b18f"/>
              </g>
            </g>
            <path id="Path_19639" data-name="Path 19639" d="M273.724,240.674c0,17.917,2.576,24.208,8.851,28.037,6.424,3.921,20.78,5.162,29.522,5.907l-1.008,13.694s-33.4-.675-41.957-5.324-9.857-30.318-9.857-30.318" transform="translate(-234.796 -222.18)" fill="#4a63fe"/>
            <path id="Path_19640" data-name="Path 19640" d="M278.51,230.78c8.616,8.4,12.139,62.4,12.139,62.4-20.644,1.117-49.591,1.35-49.591,1.35s2.531-39.542,10.157-51.818a45.3,45.3,0,0,1,16.952-15.8,9.943,9.943,0,0,0,5.1,3.275,19.265,19.265,0,0,0,5.246.6" transform="translate(-241.057 -226.91)" fill="#4a63fe"/>
            <path id="Path_19641" data-name="Path 19641" d="M280.125,268.418c-9.809-3.8-9.531-24.725-9.531-24.725" transform="translate(-230.906 -221.142)" fill="none" stroke="#1c38ad" stroke-miterlimit="10" stroke-width="0.5"/>
            <path id="Path_19642" data-name="Path 19642" d="M285.279,284.713s-14.5-.043-21.246-12.463-7.76-26.41-7.76-26.41" transform="translate(-235.827 -220.404)" fill="none" stroke="#1c38ad" stroke-miterlimit="10" stroke-width="0.5"/>
          </g>
        </g>
      </g>
    </g>
  </g>
</svg>
