<svg xmlns="http://www.w3.org/2000/svg" viewBox="0 0 100 98.3" width="52" height="52"><style>.a{fill:#1B6BA4;}.b{fill:#FA8503;}</style><path d="M14 81.1l9.4 4.7v10.5c0 1.1 0.9 2 2 2h20.7c1.1 0 2-0.9 2-2V71.5c0-6.2-4.6-11.6-10.4-12.2 -0.2 0-7.5-0.6-11.1-4.2l-5.3-5.3c-1.5-1.5-3.4-2.3-5.5-2.3V31.9c0-4.3-3.5-7.8-7.8-7.8S0 27.5 0 31.9v26.5C0 68 5.4 76.8 14 81.1L14 81.1zM3.9 31.9c0-2.2 1.8-3.9 3.9-3.9s3.9 1.8 3.9 3.9v16.7c-2.4 1.4-3.9 3.9-3.9 6.8 0 2.1 0.8 4 2.3 5.5l10 10c0.8 0.8 2 0.8 2.8 0s0.8-2 0-2.8L12.9 58.1c-0.7-0.7-1.1-1.7-1.1-2.8 0-1.7 1-3.1 2.6-3.7 0 0 0 0 0 0l0 0c1.3-0.5 2.9-0.2 4.1 0.9l5.3 5.3c3.6 3.6 9 4.7 13.4 5.3 0 0 0 0 0 0 3.9 0.4 6.9 4.1 6.9 8.3v22.9H27.3v-9.8c0-0.7-0.4-1.4-1.1-1.7l-10.5-5.2C8.5 73.9 3.9 66.6 3.9 58.4V31.9z" class="a"/><circle cx="89.6" cy="76.4" r="2" class="a"/><path d="M92.2 24c-4.3 0-7.8 3.5-7.8 7.8v15.6c-2.1 0-4 0.8-5.5 2.3l-5.3 5.3c-3.1 3.1-8.2 3.6-11.1 4.2 -5.8 0.6-10.4 6-10.4 12.2v24.8c0 1.1 0.9 2 2 2h20.7c1.1 0 2-0.9 2-2V85.8l6.4-3.2c1-0.5 1.4-1.7 0.9-2.6 -0.5-1-1.7-1.4-2.6-0.9l-7.5 3.7c-0.7 0.3-1.1 1-1.1 1.7v9.8H55.9V71.5c0-4.2 3-7.9 6.9-8.3 0 0 0 0 0 0 4.6-0.6 9.8-1.6 13.4-5.3l5.3-5.3c1.1-1.1 2.7-1.4 4.1-0.9l0 0c0 0 0 0 0 0 1.6 0.6 2.6 2 2.6 3.7 0 1-0.4 2-1.1 2.8L77.1 68.1c-0.8 0.8-0.8 2 0 2.8 0.8 0.8 2 0.8 2.8 0l10-10c1.5-1.5 2.3-3.4 2.3-5.5 0-2.8-1.5-5.4-3.9-6.8V31.9c0-2.2 1.8-3.9 3.9-3.9s3.9 1.8 3.9 3.9v26.5c0 3.6-0.9 7.1-2.6 10.3 -0.5 0.9-0.2 2.1 0.8 2.6 0.9 0.5 2.1 0.2 2.6-0.8C98.9 66.8 100 62.6 100 58.4V31.9C100 27.5 96.5 24 92.2 24z" class="a"/><path d="M61.2 27.4l-3.3 3.3 -3.3-3.3 8-8c0.9 0.2 1.8 0.4 2.7 0.4 2.6 0 5.1-1 7-2.9 2.8-2.8 3.6-6.9 2.2-10.6l-0.8-2.1L68.4 9.4l-2.1-0.6 -0.6-2.1 5.2-5.2L68.8 0.7c-3.7-1.4-7.8-0.6-10.6 2.2 -2.5 2.5-3.5 6.2-2.5 9.6l-8 8L37 9.8l2.9-2.9L31 0l-5.9 5.9 7 8.8 2.9-2.9 10.7 10.7 -7.1 7.1c-3.7-1.1-7.7-0.2-10.4 2.6 -2 2-3 4.6-3 7.3s1.1 5.4 3 7.3c2 2 4.7 3 7.3 3 2.7 0 5.3-1 7.3-3 2.8-2.8 3.7-6.8 2.6-10.4l7.1-7.1 3.3 3.3 -3.3 3.3L64.6 48.2c1.2 1.2 2.7 1.8 4.4 1.8 1.7 0 3.2-0.6 4.4-1.8 2.4-2.4 2.4-6.3 0-8.7L61.2 27.4zM29 6.1l2.2-2.2 4.2 3.3 -3.1 3.1L29 6.1zM59.1 13.3l-0.3-0.9c-1-2.6-0.4-5.5 1.6-7.4 1.4-1.4 3.2-2.1 5-2L62.4 5.9l1.4 5.4 5.4 1.4 2.9-2.9c0 1.8-0.7 3.7-2 5 -1.9 2-4.9 2.6-7.4 1.6l-0.9-0.3 -9.3 9.3 -2.7-2.7L59.1 13.3zM42 35.8l0.4 0.9c1.2 2.8 0.6 6-1.6 8.2 -1.5 1.5-3.4 2.2-5.3 2.2 -1.9 0-3.8-0.7-5.3-2.2 -1.4-1.4-2.2-3.3-2.2-5.3 0-2 0.8-3.9 2.2-5.3 1.4-1.4 3.3-2.2 5.3-2.2 1 0 2 0.2 2.9 0.6l0.9 0.4 8.4-8.4 2.7 2.7L42 35.8zM61.2 31.5l2.7 2.7 -4.6 4.6 -2.7-2.7L61.2 31.5zM71.2 46.1c-0.6 0.6-1.4 1-2.3 1s-1.7-0.3-2.3-1l-5.2-5.2 4.6-4.6 5.2 5.2C72.5 42.8 72.5 44.9 71.2 46.1L71.2 46.1z" class="b"/><path d="M35.5 34.8c-1.3 0-2.5 0.5-3.4 1.4 -0.9 0.9-1.4 2.1-1.4 3.4 0 1.3 0.5 2.5 1.4 3.4 0.9 0.9 2.1 1.4 3.4 1.4 1.3 0 2.5-0.5 3.4-1.4 1.9-1.9 1.9-4.9 0-6.8C38 35.3 36.8 34.8 35.5 34.8L35.5 34.8zM36.9 41c-0.4 0.4-0.8 0.6-1.3 0.6 -0.5 0-1-0.2-1.3-0.6 -0.4-0.4-0.6-0.8-0.6-1.3 0-0.5 0.2-1 0.6-1.3 0.4-0.4 0.8-0.6 1.3-0.6 0.5 0 1 0.2 1.3 0.6C37.6 39 37.6 40.2 36.9 41z" class="b"/></svg>
