<svg xmlns="http://www.w3.org/2000/svg" width="520.861" height="325.782" viewBox="0 0 520.861 325.782">
  <g id="popup_image" data-name="popup image" transform="translate(-217.792 -185.884)">
    <g id="Group_13775" data-name="Group 13775" transform="translate(217.792 185.884)">
      <path id="Path_20120" data-name="Path 20120" d="M488.089,1525.005s1.739-11.394,23.927-14.46,42.82-27.643,79.411-24.076,66.954,25.95,108.606,19.092,67.733,1.883,77.075,8.778,48.007-1.618,50.863,11.015Z" transform="translate(-428.521 -1199.572)" fill="#a8d29f"/>
      <path id="Path_20121" data-name="Path 20121" d="M846.618,430.58s-25.043-1.225-11.758,75.1c0,0,8.937,25.908-2.345,42.606H998.594V430.58Z" transform="translate(-695.842 -376.653)" fill="#1b1b23"/>
      <g id="Group_13759" data-name="Group 13759" transform="translate(59.568 158.079)">
        <g id="Group_13754" data-name="Group 13754" transform="translate(88.655 66.214)">
          <path id="Path_20122" data-name="Path 20122" d="M960.343,1231.706s-11.6-13.536-.715-22.134c0,0,7.952-4.814,14.437-4.424,0,0-9.188,15.407-6.215,16.94s9-17.906,9-17.906,18.1-1.755,23.919,1.044c0,0-15.471,12.66-12.213,13.414s19.968-11.673,19.968-11.673,16.843,2.866,15.945,13.141-6.7,13.448-9.253,13.174-17.472-5.969-17.8-3.879,8.657,8.92,14.946,9.24c0,0-11.875,13.1-19.767,9.316s-8.566-9.771-13.485-12.018-9.119-2.241-7.088.05,10.934,4.519,13.748,9.5,5.338,8.333-2.827,7.1-21.438-7.2-22.021-14.045Z" transform="translate(-940.732 -1203.639)" fill="#599dad"/>
          <g id="Group_13753" data-name="Group 13753" transform="translate(0 16.667)">
            <path id="Path_20123" data-name="Path 20123" d="M999.191,1279.348s-45.747-1.763-55.85,11.32a33.086,33.086,0,0,1-9.11,12.785l-1.072,2.921s7.928-8.359,10.764-8.864C943.924,1297.51,939.488,1281.3,999.191,1279.348Z" transform="translate(-923.731 -1279.268)" fill="#599dad"/>
            <path id="Path_20124" data-name="Path 20124" d="M900.874,1384.936s-9.819,7.262-10.5,20.237l1.782.159s3.136-13.416,8.8-18.663S900.874,1384.936,900.874,1384.936Z" transform="translate(-890.373 -1360.751)" fill="#599dad"/>
          </g>
        </g>
        <g id="Group_13756" data-name="Group 13756" transform="translate(0 29.462)">
          <path id="Path_20125" data-name="Path 20125" d="M555.788,1084.671s18.457-10.336,9.843-24.363c0,0-6.89-8.613-14.273-10.828,0,0,3.937,20.918,0,21.41s-2.707-23.625-2.707-23.625-19.441-9.352-27.07-8.613c0,0,12.058,20.426,8.121,19.933s-17.472-21.164-17.472-21.164-19.933-3.691-23.132,8.121,1.969,17.718,4.922,18.457,21.9.492,21.41,2.953-13.289,6.4-20.425,4.183c0,0,7.875,19.441,18.211,18.457s13.535-7.383,19.933-7.875,11.074,1.23,7.875,2.953-14.027.565-19.195,4.958-9.352,7.1.246,9.069,26.824.739,30.269-6.644Z" transform="translate(-488.089 -1036.875)" fill="#6bb7bf"/>
          <g id="Group_13755" data-name="Group 13755" transform="translate(10.115 12.358)">
            <path id="Path_20126" data-name="Path 20126" d="M533.985,1092.953s51.679,16.734,57.585,35.437a39.259,39.259,0,0,0,4.922,17.965v3.691s-5.414-12.551-8.367-14.273C588.125,1135.773,599.691,1119.531,533.985,1092.953Z" transform="translate(-533.985 -1092.953)" fill="#6bb7bf"/>
            <path id="Path_20127" data-name="Path 20127" d="M808.882,1327.141s7.969,12.1,3.426,26.834l-2.05-.551s1.99-16.226-2.179-24.387S808.882,1327.141,808.882,1327.141Z" transform="translate(-746.376 -1273.74)" fill="#6bb7bf"/>
          </g>
        </g>
        <g id="Group_13758" data-name="Group 13758" transform="translate(81.068)">
          <path id="Path_20128" data-name="Path 20128" d="M871.94,966.19s-24.329-13.625-12.976-32.115c0,0,9.083-11.354,18.815-14.273,0,0-5.19,27.573,0,28.222s3.568-31.142,3.568-31.142,25.627-12.327,35.683-11.354c0,0-15.9,26.924-10.7,26.275s23.032-27.9,23.032-27.9,26.276-4.866,30.493,10.7-2.6,23.356-6.488,24.329-28.871.649-28.222,3.893,17.517,8.434,26.924,5.515c0,0-10.381,25.627-24.005,24.33s-17.841-9.732-26.276-10.381-14.6,1.622-10.38,3.893,18.49.744,25.3,6.536,12.327,9.359-.324,11.955-35.359.973-39.9-8.759Z" transform="translate(-855.946 -903.187)" fill="#86d1cd"/>
          <g id="Group_13757" data-name="Group 13757" transform="translate(3.145 16.291)">
            <path id="Path_20129" data-name="Path 20129" d="M981.479,977.108s-68.122,22.059-75.908,46.712c0,0,.324,11.029-6.488,23.68v4.866s7.137-16.544,11.029-18.815C910.113,1033.552,894.867,1012.142,981.479,977.108Z" transform="translate(-892.722 -977.108)" fill="#6bb7bf"/>
            <path id="Path_20130" data-name="Path 20130" d="M876.578,1285.811s-10.506,15.953-4.517,35.373l2.7-.726s-2.624-21.389,2.873-32.147S876.578,1285.811,876.578,1285.811Z" transform="translate(-870.216 -1215.419)" fill="#6bb7bf"/>
          </g>
        </g>
        <path id="Path_20131" data-name="Path 20131" d="M756.209,1479.527a47.657,47.657,0,0,0,47.657-47.657H708.552A47.657,47.657,0,0,0,756.209,1479.527Z" transform="translate(-659.966 -1315.359)" fill="#efcbab"/>
        <path id="Path_20132" data-name="Path 20132" d="M788.483,1479.162a47.691,47.691,0,0,1-53.576-47.293h11.84A47.666,47.666,0,0,0,788.483,1479.162Z" transform="translate(-680.513 -1315.358)" fill="#ffebdc"/>
        <path id="Path_20133" data-name="Path 20133" d="M802.2,1638.325H705.565a5.88,5.88,0,0,1,5.88-5.88h84.872a5.88,5.88,0,0,1,5.88,5.88Z" transform="translate(-657.638 -1471.731)" fill="#efcbab"/>
        <rect id="Rectangle_2908" data-name="Rectangle 2908" width="97.966" height="1.462" transform="translate(47.018 116.511)" fill="#efcdaf"/>
      </g>
      <g id="Group_13761" data-name="Group 13761" transform="translate(301.881 69.903)">
        <path id="Path_20134" data-name="Path 20134" d="M1697.669,526.56s-8.348-15.753,4.16-21.751c0,0,8.815-2.952,15.055-1.147,0,0-12.346,13.015-9.782,15.162s12.711-15.494,12.711-15.494,18.041,2.26,23.106,6.268c0,0-17.872,8.956-14.859,10.407S1750.1,513,1750.1,513s15.8,6.493,12.672,16.32-9.49,11.649-11.918,10.822-15.736-9.658-16.511-7.691,6.488,10.6,12.553,12.3c0,0-14.459,10.17-21.329,4.75s-6.212-11.412-10.519-14.684-8.4-4.188-6.926-1.507,9.676,6.809,11.329,12.281,3.378,9.3-4.318,6.31-19.333-11.733-18.4-18.535Z" transform="translate(-1671.288 -503.077)" fill="#599dad"/>
        <g id="Group_13760" data-name="Group 13760" transform="translate(0 19.09)">
          <path id="Path_20135" data-name="Path 20135" d="M1716.96,595.309s-44.245-11.761-56.973-1.215a33.084,33.084,0,0,1-11.693,10.474l-1.687,2.615s9.569-6.415,12.447-6.285C1659.054,600.9,1658.284,584.11,1716.96,595.309Z" transform="translate(-1633.607 -589.702)" fill="#599dad"/>
          <path id="Path_20136" data-name="Path 20136" d="M1602.3,655.024s-11.174,4.93-14.687,17.439l1.7.547s6-12.4,12.686-16.275S1602.3,655.024,1602.3,655.024Z" transform="translate(-1587.616 -640.159)" fill="#599dad"/>
        </g>
      </g>
      <g id="Group_13763" data-name="Group 13763" transform="translate(256.636 0)">
        <path id="Path_20137" data-name="Path 20137" d="M1398.968,250.857s-24.724-12.894-13.926-31.714c0,0,8.741-11.619,18.381-14.827,0,0-4.367,27.716.84,28.21s2.64-31.234,2.64-31.234,25.249-13.084,35.329-12.411c0,0-15.087,27.386-9.918,26.583s22.191-28.571,22.191-28.571,26.119-5.646,30.8,9.793-1.9,23.423-5.76,24.512-28.839,1.508-28.094,4.731,17.76,7.909,27.077,4.711c0,0-9.613,25.925-23.27,25.033s-18.124-9.2-26.573-9.594-14.543,2.056-10.26,4.2,18.5.193,25.486,5.779,12.6,8.989.032,11.959-35.314,2.026-40.143-7.567Z" transform="translate(-1382.312 -185.884)" fill="#86d1cd"/>
        <g id="Group_13762" data-name="Group 13762" transform="translate(5.185 16.021)">
          <path id="Path_20138" data-name="Path 20138" d="M1511.925,258.582s-67.435,24.077-74.483,48.951c0,0,.653,11.015-5.78,23.863l.144,4.864s6.641-16.749,10.465-19.135C1442.271,317.125,1426.394,296.179,1511.925,258.582Z" transform="translate(-1425.972 -258.582)" fill="#6bb7bf"/>
          <path id="Path_20139" data-name="Path 20139" d="M1411.532,577.954s-10.026,16.259-3.462,35.491l2.68-.806s-3.259-21.3,1.915-32.218S1411.532,577.954,1411.532,577.954Z" transform="translate(-1405.841 -505.14)" fill="#6bb7bf"/>
        </g>
      </g>
      <rect id="Rectangle_2909" data-name="Rectangle 2909" width="173.391" height="226.126" transform="translate(161.307 99.103)" fill="#1b1b23"/>
      <rect id="Rectangle_2910" data-name="Rectangle 2910" width="170.476" height="226.126" transform="translate(166.976 99.103)" fill="#303038"/>
      <path id="Path_20140" data-name="Path 20140" d="M2171,1524.247h-34.353c-1.841-1.562,1.274-5.108,4.529-5.346a20.072,20.072,0,0,1,5.243.62c.473-6.279,3.172-34.5,13.347-33.37,11.44,1.27,0,12.43-3.234,19.038a157.064,157.064,0,0,0-6.077,15.224c.929.2,1.89.4,2.872.58,1.516-4.656,7.158-20.316,14.333-19.4,8.424,1.068,5.038,7.347-.933,11.074-4.381,2.741-9.76,6.636-12.315,8.519a36.508,36.508,0,0,0,6.719.538C2167.018,1521.579,2169.89,1523.313,2171,1524.247Z" transform="translate(-1713.346 -1199.572)" fill="#a8d29f"/>
      <path id="Path_20141" data-name="Path 20141" d="M1094.076,475.753l0,0H923.6c.943-12.891-.478-22.253-2.754-28.984-4.372-12.944-11.907-16.192-11.907-16.192h160.776c13.722,0,24.362,8.267,27.259,19.24.108.413.209.824.3,1.235C1100.016,463.608,1094.189,475.524,1094.076,475.753Z" transform="translate(-756.622 -376.654)" fill="#303038"/>
      <path id="Path_20142" data-name="Path 20142" d="M1136.2,533.034l0,0H965.719c.943-12.891-.478-22.253-2.754-28.984,17.422,3.19,60.571,9.988,106.757,8.843,29.879-.741,53.491-2.74,69.666-4.56C1142.138,520.889,1136.311,532.8,1136.2,533.034Z" transform="translate(-798.744 -433.934)" fill="#2a2a31"/>
      <g id="Group_13765" data-name="Group 13765" transform="translate(189.106 147.004)">
        <path id="Rectangle_2911" data-name="Rectangle 2911" d="M2.121,0H91.661a2.12,2.12,0,0,1,2.12,2.12v0a2.12,2.12,0,0,1-2.12,2.12H2.12A2.12,2.12,0,0,1,0,2.121v0A2.121,2.121,0,0,1,2.121,0Z" transform="translate(11.22)" fill="#c6d4e2"/>
        <rect id="Rectangle_2912" data-name="Rectangle 2912" width="58.435" height="4.241" rx="2.12" transform="translate(11.22 7.135)" fill="#c6d4e2"/>
        <g id="Group_13764" data-name="Group 13764" transform="translate(0 0)">
          <path id="Path_20143" data-name="Path 20143" d="M1078.4,863.621v-8.662h-1.143q-1.04,0-1.04-.866,0-.624.814-.883a6.039,6.039,0,0,1,1.325-.208q.909-.069,1.464-.069.537,0,.676.216a2.586,2.586,0,0,1,.139,1.1v9.372h1.178q1.144,0,1.143.987,0,1.039-1.143,1.039h-4.747a1.308,1.308,0,0,1-.84-.268.909.909,0,0,1-.338-.754q0-1,1.161-1Z" transform="translate(-1075.886 -852.932)" fill="#c6d4e2"/>
        </g>
      </g>
      <g id="Group_13767" data-name="Group 13767" transform="translate(189.035 191.663)">
        <rect id="Rectangle_2913" data-name="Rectangle 2913" width="93.781" height="4.241" rx="2.12" transform="translate(11.291 0)" fill="#c6d4e2"/>
        <path id="Rectangle_2914" data-name="Rectangle 2914" d="M2.12,0H56.315a2.12,2.12,0,0,1,2.12,2.12v0a2.12,2.12,0,0,1-2.12,2.12H2.12A2.12,2.12,0,0,1,0,2.12v0A2.12,2.12,0,0,1,2.12,0Z" transform="translate(11.291 7.135)" fill="#c6d4e2"/>
        <g id="Group_13766" data-name="Group 13766">
          <path id="Path_20144" data-name="Path 20144" d="M1082.881,1066.089q0,.866-1.21.865h-5.022q-1.087,0-1.087-.873a1.1,1.1,0,0,1,.291-.643q.428-.489,1.255-1.47,1.255-1.577,2.1-2.725.291-.383.827-1.164a2.813,2.813,0,0,0,.444-1.317,1.354,1.354,0,0,0-.383-.987,1.313,1.313,0,0,0-.98-.39,1.5,1.5,0,0,0-1.011.367,1.744,1.744,0,0,0-.459.919q-.215.873-.276,1.011a.776.776,0,0,1-.75.49.859.859,0,0,1-.719-.337,1.149,1.149,0,0,1-.245-.766,3.7,3.7,0,0,1,.168-1.087,3.266,3.266,0,0,1,1.3-1.806,3.778,3.778,0,0,1,2.159-.6,3.344,3.344,0,0,1,2.327.844,2.95,2.95,0,0,1,.965,2.269,3.955,3.955,0,0,1-.689,2.116q-.383.6-1.577,2.116-.613.782-1.929,2.27h3.307Q1082.881,1065.194,1082.881,1066.089Z" transform="translate(-1075.563 -1055.579)" fill="#c6d4e2"/>
        </g>
      </g>
      <g id="Group_13769" data-name="Group 13769" transform="translate(188.842 228.446)">
        <path id="Rectangle_2915" data-name="Rectangle 2915" d="M2.12,0H91.661a2.12,2.12,0,0,1,2.12,2.12v0a2.121,2.121,0,0,1-2.121,2.121H2.12A2.12,2.12,0,0,1,0,2.121v0A2.12,2.12,0,0,1,2.12,0Z" transform="translate(11.484 0.471)" fill="#c6d4e2"/>
        <path id="Rectangle_2916" data-name="Rectangle 2916" d="M2.12,0H56.315a2.12,2.12,0,0,1,2.12,2.12v0a2.12,2.12,0,0,1-2.12,2.12H2.12A2.12,2.12,0,0,1,0,2.12v0A2.12,2.12,0,0,1,2.12,0Z" transform="translate(11.484 7.606)" fill="#c6d4e2"/>
        <g id="Group_13768" data-name="Group 13768">
          <path id="Path_20145" data-name="Path 20145" d="M1082.2,1230.779a3.283,3.283,0,0,1-1.142,2.614,4.025,4.025,0,0,1-2.739.939,3.835,3.835,0,0,1-2.191-.61,2.789,2.789,0,0,1-1.44-2.332.979.979,0,0,1,.25-.673.82.82,0,0,1,.642-.282.981.981,0,0,1,.767.548,12,12,0,0,0,.673,1,1.745,1.745,0,0,0,1.33.547,1.661,1.661,0,0,0,1.564-.814,2.163,2.163,0,0,0,.219-1.033q0-1.533-1.8-1.706-1.018-.094-1.017-.861a.819.819,0,0,1,.591-.8q1.1-.407,1.119-.422a1.511,1.511,0,0,0,.591-1.362,1.224,1.224,0,0,0-.343-.915,1.257,1.257,0,0,0-.92-.337,1.682,1.682,0,0,0-1.123.344,2.254,2.254,0,0,0-.577,1.017.713.713,0,0,1-.717.548.736.736,0,0,1-.616-.329,1.189,1.189,0,0,1-.242-.72,2,2,0,0,1,.266-.97,3,3,0,0,1,1.346-1.268,3.941,3.941,0,0,1,1.816-.422,3.164,3.164,0,0,1,2.214.806,2.734,2.734,0,0,1,.884,2.12,2.905,2.905,0,0,1-1.314,2.5A2.836,2.836,0,0,1,1082.2,1230.779Z" transform="translate(-1074.685 -1222.485)" fill="#c6d4e2"/>
        </g>
      </g>
      <g id="Group_13770" data-name="Group 13770" transform="translate(208.734 109.195)">
        <path id="Rectangle_2917" data-name="Rectangle 2917" d="M2.463,0h54.9a2.462,2.462,0,0,1,2.462,2.462v0a2.463,2.463,0,0,1-2.463,2.463H2.463A2.463,2.463,0,0,1,0,2.463v0A2.463,2.463,0,0,1,2.463,0Z" transform="translate(15.083)" fill="#c6d4e2"/>
        <path id="Rectangle_2918" data-name="Rectangle 2918" d="M2.463,0H87.527A2.463,2.463,0,0,1,89.99,2.463v0a2.463,2.463,0,0,1-2.463,2.463H2.463A2.463,2.463,0,0,1,0,2.463v0A2.463,2.463,0,0,1,2.463,0Z" transform="translate(0 7.596)" fill="#c6d4e2"/>
      </g>
      <g id="Group_13771" data-name="Group 13771" transform="translate(177.369 130.361)">
        <path id="Path_20146" data-name="Path 20146" d="M1092.38,821.163c-18.571,0-36.194-2.331-49.332-5.661-13.273-3.365-20.423-8.865-20.423-13.744,0-4.422,5.827-8.488,16.85-11.76h0c-10.564,3.136-16.214,7.74-16.214,11.76,0,4.461,7.323,8.876,20.092,12.113,13.092,3.319,30.5,5.147,49.027,5.147s35.935-1.828,49.027-5.147c12.769-3.237,20.092-7.653,20.092-12.113,0-4.724-7.711-10.595-20.125-15.321-14.115-5.375-31.515-7.369-48.994-7.369-32.815,0-46.324,3.831-58.044,8.631h0c11.771-4.821,25.113-10.286,58.044-10.286,17.549,0,35.024,2.974,49.2,8.373,12.676,4.827,20.55,10.946,20.55,15.971,0,4.879-7.31,9.418-20.583,12.784C1128.414,817.872,1110.951,821.163,1092.38,821.163Z" transform="translate(-1022.625 -777.413)" fill="#c65447"/>
      </g>
      <g id="Group_13774" data-name="Group 13774" transform="translate(262.611 120.022)">
        <path id="Path_20147" data-name="Path 20147" d="M1824.379,1169.169s-.611,5.945-1.282,7.07-3.528,4.718-4.745,5.423.743-4.735.5-5.793-1,1.932-1.538,2-.4-2.621-.418-3.6,2.61-3.4,3.537-5.483S1824.379,1169.169,1824.379,1169.169Z" transform="translate(-1727.092 -1071.544)" fill="#ffb27d"/>
        <path id="Path_20148" data-name="Path 20148" d="M1484.184,888.26l-1.367-2.578s.678-4.594-5.078-7.5a2.808,2.808,0,0,0-3.291.859c-1.094,1.581,2.084,1.295,1.914,4a4.972,4.972,0,0,0,2.9,5.171l1.476,1.71Z" transform="translate(-1459.939 -845.469)" fill="#ffb27d"/>
        <path id="Path_20149" data-name="Path 20149" d="M1554.276,893.555s-4.943,24.262-32.146,32.19c-8.492,2.475-27.783-25.482-27.783-25.482s.678-2.577,4.927-1.985c0,0,18.784,12.435,21.149,13.786,2.1,1.2,15.9-15.409,22.189-18.088A16.056,16.056,0,0,1,1554.276,893.555Z" transform="translate(-1475.631 -856.927)" fill="#e58638"/>
        <g id="Group_13772" data-name="Group 13772" transform="translate(0 31.856)">
          <rect id="Rectangle_2919" data-name="Rectangle 2919" width="5.081" height="25.558" transform="translate(5.487 5.022) rotate(-81.268)" fill="#c65447"/>
          <path id="Path_20150" data-name="Path 20150" d="M1409.423,876.66l5.488,3.413.771-5.022Z" transform="translate(-1409.423 -875.051)" fill="#ffb27d"/>
          <path id="Path_20151" data-name="Path 20151" d="M1552.4,894.774l-.244,1.588a1.789,1.789,0,0,1-2.04,1.5l-1.169-.179.771-5.022,1.271.2A1.685,1.685,0,0,1,1552.4,894.774Z" transform="translate(-1518.202 -888.777)" fill="#ffb27d"/>
        </g>
        <g id="Group_13773" data-name="Group 13773" transform="translate(49.883 91.543)">
          <path id="Path_20152" data-name="Path 20152" d="M1870.4,1583.625s3.375,3.08,2.716,5.268-3.7,3.647-4.116,6.321-2.057,4.134-3.539,4.134H1858.4s-1.09-1.882,1.544-2.449,3.627-3.71,3.462-6.628a51.446,51.446,0,0,1,.247-6.808l5.6-1.3Z" transform="translate(-1809.162 -1486.018)" fill="#233862"/>
          <path id="Path_20153" data-name="Path 20153" d="M1655.612,1615.333s.606,7.009-.876,7.738l-18.961-.039s0-2.188,3.045-2.675,8.4-2.269,9.3-6.24S1655.612,1615.333,1655.612,1615.333Z" transform="translate(-1635.775 -1509.761)" fill="#233862"/>
          <path id="Path_20154" data-name="Path 20154" d="M1653.147,1169.652s1,12.286,2.176,27.054c1.6,20.061,3.519,44.7,3.709,49.372.329,8.106,1.647,21.073,1.647,21.073s3.126,3.081,9.383,1.782a209.259,209.259,0,0,0,7.168-38.095c.025-.321.049-.645.074-.968,1.481-19.938,3.785-61.92,3.785-61.92Z" transform="translate(-1649.318 -1163.087)" fill="#2b478b"/>
          <path id="Path_20155" data-name="Path 20155" d="M1653.147,1169.652s1,12.286,2.176,27.054l21.907,34.132c.025-.321.049-.645.074-.968,1.481-19.938,3.785-61.92,3.785-61.92Z" transform="translate(-1649.318 -1163.087)" fill="#233862"/>
          <path id="Path_20156" data-name="Path 20156" d="M1673.871,1153.908s18.026,44.495,29.878,65.4,15.557,26.745,15.557,26.745,6.791-2.675,7.408-4.5c0,0-4.532-40.367-12.47-50.208-4.485-5.561-9.754-22.247-10-28.083s-1.6-17.384-1.6-17.384Z" transform="translate(-1665.475 -1145.885)" fill="#2b478b"/>
        </g>
        <path id="Path_20157" data-name="Path 20157" d="M1713.468,818.869s-12.2,5.885-19.228,3.7a16.6,16.6,0,0,1,4.76-3.808c-.244-1.411-.433-2.636-.541-3.675a33.974,33.974,0,0,1-.3-3.755l4.705-3.7,4.462-3.541C1706.977,814.05,1713.468,818.869,1713.468,818.869Z" transform="translate(-1631.472 -787.873)" fill="#ffb27d"/>
        <path id="Path_20158" data-name="Path 20158" d="M1684.273,924.189c.027.745-1.569,1.6-2.271,1.917a49.821,49.821,0,0,1-15.6,4.42c-6.518.666-14.225-.8-16.875-.746a1.1,1.1,0,0,1-.73-.293c-.189-.134-.324-7.989-.189-17.867,0-.4,0-.8.027-1.2v-.133c.054-3.861.189-7.908.379-11.956.379-8.894,1.082-17.468,2.271-22.208a24.078,24.078,0,0,1,7.626-11.983l2.434-2.13a11.693,11.693,0,0,0,7.572-.9c2.813-1.358,5.841-2.823,6.328-2.45,3.678,2.69,6.166,8.734,7.491,16.457a85.564,85.564,0,0,1,1.109,14.645c0,1.917-.054,3.888-.162,5.832a183.889,183.889,0,0,0,.379,25C1684.165,922.139,1684.246,923.337,1684.273,924.189Z" transform="translate(-1595.85 -830.368)" fill="#ee9849"/>
        <path id="Path_20159" data-name="Path 20159" d="M1734.449,982.13c-42.709-.085-7.877-46.344-7.877-46.344l6.919-2.247a134.417,134.417,0,0,1,.8,15.647c0,2.049-.039,4.154-.117,6.23C1733.706,966.682,1734.175,976.469,1734.449,982.13Z" transform="translate(-1646.242 -888.793)" fill="#e58638"/>
        <path id="Path_20160" data-name="Path 20160" d="M1721.283,820.427s-3.083,5.618-8.951,7.19a33.961,33.961,0,0,1-.3-3.755l4.705-3.7Z" transform="translate(-1645.344 -800.401)" fill="#ed985f"/>
        <path id="Path_20161" data-name="Path 20161" d="M1694.266,769.17s11.635,1.9,12.727-5.249,3.329-11.725-4.053-13.242-9.246,1-10.2,3.3S1691.268,768.49,1694.266,769.17Z" transform="translate(-1629.723 -745.871)" fill="#ffb27d"/>
        <path id="Path_20162" data-name="Path 20162" d="M1697.92,734.45c.106-.121.349-.219.891-.248a2.2,2.2,0,0,0-1.012-.285,2.728,2.728,0,0,0-1.812-2.413,1.626,1.626,0,0,1,.788,1.173c-1.5-1.544-4.723-2.667-13.64-1.963-11.751.927-7.878,8.451-6.357,9.349s5.351-1.562,8.185-1.337,3.374,4.321,4.335,4.883.583-.432,1.885-1.02,1.425,1.568,1.049,2.97,1.412,3.251,1.412,3.251l1.807-1.946c1.806-1.945,3.509-10.186,2.688-11.943C1698.066,734.765,1697.995,734.608,1697.92,734.45Z" transform="translate(-1616.421 -730.499)" fill="#2c3a64"/>
        <path id="Path_20163" data-name="Path 20163" d="M1749.932,858.6s7.362,3.486,10.891,8.845c5.475,8.313,11.821,38.609,11.938,41.415s-4.632,22.612-4.632,22.612-4.817-.318-6.059-2.749c0,0,.962-20.351.353-21.659s-20.081-27.3-17.892-32.844S1749.932,858.6,1749.932,858.6Z" transform="translate(-1670.546 -830.368)" fill="#ee9849"/>
        <path id="Path_20164" data-name="Path 20164" d="M1500.42,895.794s.4-1.581-.7-2.292-2.106-2.644-2.568-2.382c-.958.542.524,2.229.253,4.333C1497.313,896.19,1499.028,898.121,1500.42,895.794Z" transform="translate(-1477.566 -855.704)" fill="#ffb27d"/>
      </g>
      <path id="Path_20165" data-name="Path 20165" d="M589.517,1457.55s-17.292-44.279-29.42-37.228S589.517,1457.55,589.517,1457.55Z" transform="translate(-482.93 -1147.684)" fill="#a8d29f"/>
      <path id="Path_20166" data-name="Path 20166" d="M539.222,1533.464s-22.844-19.742-33.279-16.076S539.222,1533.464,539.222,1533.464Z" transform="translate(-441.185 -1223.597)" fill="#a8d29f"/>
      <path id="Path_20167" data-name="Path 20167" d="M1760.225,1563.137s5.264-18.3,11.44-16.145S1760.225,1563.137,1760.225,1563.137Z" transform="translate(-1420.304 -1246.894)" fill="#a8d29f"/>
      <path id="Path_20168" data-name="Path 20168" d="M1782.023,1592.936s13.439-8.822,16.392-6.095S1782.023,1592.936,1782.023,1592.936Z" transform="translate(-1437.298 -1277.691)" fill="#a8d29f"/>
      <path id="Path_20169" data-name="Path 20169" d="M1198.271,1429.477H1093.443a1.279,1.279,0,0,1-1.276-1.276h0a1.279,1.279,0,0,1,1.276-1.276h104.829a1.279,1.279,0,0,1,1.276,1.276h0A1.28,1.28,0,0,1,1198.271,1429.477Z" transform="translate(-899.473 -1153.426)" fill="#c6d4e2"/>
      <path id="Path_20170" data-name="Path 20170" d="M1198.271,1452.647H1093.443a1.279,1.279,0,0,1-1.276-1.276h0a1.279,1.279,0,0,1,1.276-1.276h104.829a1.279,1.279,0,0,1,1.276,1.276h0A1.28,1.28,0,0,1,1198.271,1452.647Z" transform="translate(-899.473 -1171.489)" fill="#c6d4e2"/>
      <path id="Path_20171" data-name="Path 20171" d="M1198.271,1478.324H1093.443a1.279,1.279,0,0,1-1.276-1.276h0a1.279,1.279,0,0,1,1.276-1.276h104.829a1.279,1.279,0,0,1,1.276,1.276h0A1.28,1.28,0,0,1,1198.271,1478.324Z" transform="translate(-899.473 -1191.507)" fill="#c6d4e2"/>
      <path id="Rectangle_2920" data-name="Rectangle 2920" d="M1.276,0H92.258a1.276,1.276,0,0,1,1.276,1.276v0a1.276,1.276,0,0,1-1.276,1.276H1.276A1.276,1.276,0,0,1,0,1.276v0A1.276,1.276,0,0,1,1.276,0Z" transform="translate(192.694 289.924)" fill="#c6d4e2"/>
      <rect id="Rectangle_2921" data-name="Rectangle 2921" width="520.861" height="1.108" rx="0.554" transform="translate(0 324.674)" fill="#1c468a"/>
    </g>
  </g>
</svg>
