<svg xmlns="http://www.w3.org/2000/svg" viewBox="0 0 59.7 82.2" width="38" height="52"><style>.a{fill:none;stroke-width:4;stroke:#F6851F;}.b{fill:#146BA4;}</style><path d="M36.3 24.7h-6.9c-0.9 0-1.7-0.8-1.7-1.7v-6.9c0-0.9 0.8-1.7 1.7-1.7h6.9c0.9 0 1.7 0.8 1.7 1.7v6.9C38 23.9 37.3 24.7 36.3 24.7z" class="a"/><path d="M18.3 24.7h-6.9c-0.9 0-1.7-0.8-1.7-1.7v-6.9c0-0.9 0.8-1.7 1.7-1.7h6.9c0.9 0 1.7 0.8 1.7 1.7v6.9C20 23.9 19.2 24.7 18.3 24.7z" class="a"/><path d="M18.3 42.3h-6.9c-0.9 0-1.7-0.8-1.7-1.7v-6.9c0-0.9 0.8-1.7 1.7-1.7h6.9c0.9 0 1.7 0.8 1.7 1.7v6.9C20 41.5 19.2 42.3 18.3 42.3z" class="a"/><path d="M36.3 42.3h-6.9c-0.9 0-1.7-0.8-1.7-1.7v-6.9c0-0.9 0.8-1.7 1.7-1.7h6.9c0.9 0 1.7 0.8 1.7 1.7v6.9C38 41.5 37.3 42.3 36.3 42.3z" class="a"/><path d="M18.3 59.9h-6.9c-0.9 0-1.7-0.8-1.7-1.7v-6.9c0-0.9 0.8-1.7 1.7-1.7h6.9c0.9 0 1.7 0.8 1.7 1.7v6.9C20 59.2 19.2 59.9 18.3 59.9z" class="a"/><path d="M8 81.5h24.7v-3.5H8c-2.5 0-4.5-2-4.5-4.5V17.3H0v56.2C0 78.5 3 81.5 8 81.5z" class="b"/><rect x="19.2" y="70.1" width="9" height="3.5" class="b"/><path d="M59.7 50.9c0-3.6-1.4-7-4-9.5l-8.3-6.3V8C47.4 3 44.4 0 39.4 0H8C3 0 0 4 0 9v16.9h3.5V8c0-2.5 2-4.5 4.5-4.5h5.4l1.6 3.3c0.4 0.8 1.2 1.2 2 1.2H30.5c0.9 0 1.6-0.5 2-1.2l1.6-3.3h5.4c2.5 0 4.5 2 4.5 4.5v44l-3.8-3.8c-2.7-2.7-7.2-2.7-9.9 0 -0.1 0.1-0.1 0.1-0.2 0.2l-0.8 0.7c-1.7 2.4-1.4 4.4-0.3 6.4l1.8 2.6c-0.9-1.7-1.5-1.4 2.3 2.9l1 0.9 2.6 2.6c-2.3 4.6-2.4 10-0.1 14.6l0.6 1.3v1.7h3.5v-2.2c0-0.3-0.1-0.7-0.2-1l-0.9-1.7c-1.9-3.8-1.6-8.2 0.7-11.8 0.6-0.9 0.5-2.1-0.3-2.8l-7.1-7.5c-1.8-2.7-0.4-3.8 0.4-4.8 1-1.2 3.7 0.1 4.7 1.1l0 0 11.1 11.1 2.1-3.2 -3.8-3.8V39.3l5.6 4.2c1.7 1.7 3.2 4.9 3.2 7.3v31.3h3.5" class="b"/></svg>
