<svg xmlns="http://www.w3.org/2000/svg" width="540.734" height="575.725" viewBox="0 0 540.734 575.725">
  <g id="Group_13387" data-name="Group 13387" transform="translate(-16.965 12.923)">
    <g id="Group_13322" data-name="Group 13322" transform="translate(16.965 -12.923)">
      <g id="Group_13321" data-name="Group 13321" transform="translate(0 0)">
        <path id="Path_19212" data-name="Path 19212" d="M585.093,367.174H565.382c-5.334,0-11.554-4.827-13.582-10.542a156.026,156.026,0,0,0-6.556-15.674c-2.628-5.429-1.661-13.2,2.109-16.971l14.033-14.033a25.243,25.243,0,0,0,0-35.657L538.61,251.52a25.213,25.213,0,0,0-35.657,0l-14.033,14.033c-2.252,2.252-6,3.6-10.032,3.6a16,16,0,0,1-6.934-1.49,156.751,156.751,0,0,0-15.7-6.569c-5.712-2.029-10.539-8.248-10.539-13.579V227.8a25.242,25.242,0,0,0-25.213-25.213H388.289A25.242,25.242,0,0,0,363.076,227.8v19.714c0,5.335-4.827,11.554-10.539,13.579a156.538,156.538,0,0,0-15.682,6.552,16.2,16.2,0,0,1-6.92,1.485c-4.042,0-7.8-1.347-10.063-3.606l-14.01-14a25.221,25.221,0,0,0-35.66,0L247.4,274.3a25.2,25.2,0,0,0-.005,35.654l14.033,14.033c3.774,3.773,4.743,11.551,2.115,16.983A156.013,156.013,0,0,0,257,356.634c-2.028,5.712-8.245,10.539-13.579,10.539H223.708a25.242,25.242,0,0,0-25.213,25.213V424.6a25.242,25.242,0,0,0,25.213,25.213h19.711c5.334,0,11.554,4.824,13.582,10.536a155.994,155.994,0,0,0,6.553,15.666c2.625,5.429,1.653,13.206-2.123,16.983L247.4,507.034a25.242,25.242,0,0,0,0,35.657L270.2,565.5a25.214,25.214,0,0,0,35.657,0l14.033-14.033c2.258-2.257,6.017-3.605,10.057-3.605a15.97,15.97,0,0,1,6.919,1.485A156.635,156.635,0,0,0,352.54,555.9c5.712,2.028,10.539,8.248,10.539,13.582V589.2a25.242,25.242,0,0,0,25.213,25.213h32.217A25.242,25.242,0,0,0,445.722,589.2V569.482c0-5.334,4.827-11.554,10.539-13.579a156.645,156.645,0,0,0,15.683-6.552,16.192,16.192,0,0,1,6.919-1.485c4.042,0,7.8,1.348,10.06,3.606L502.956,565.5a25.208,25.208,0,0,0,35.657-.005L561.4,542.7a25.254,25.254,0,0,0,0-35.66l-14.022-14.027c-3.771-3.771-4.737-11.548-2.112-16.98a156.311,156.311,0,0,0,6.55-15.675c2.026-5.712,8.242-10.536,13.577-10.536H585.1a25.242,25.242,0,0,0,25.213-25.213V392.392A25.252,25.252,0,0,0,585.093,367.174ZM478.286,408.5A73.889,73.889,0,1,1,404.4,334.607,73.973,73.973,0,0,1,478.286,408.5Z" transform="translate(-69.578 -38.684)" fill="#f3f3f3"/>
        <path id="Path_19213" data-name="Path 19213" d="M181.909,140.377a3.721,3.721,0,0,1,2.559-2.244h8.954a15.263,15.263,0,0,0,15.246-15.246v-14.61a15.263,15.263,0,0,0-15.246-15.246h-8.952a3.722,3.722,0,0,1-2.559-2.243,73.942,73.942,0,0,0-3.135-7.494A3.633,3.633,0,0,1,179,79.955l6.365-6.365a15.265,15.265,0,0,0,0-21.56L175.031,41.7a15.247,15.247,0,0,0-21.563,0l-6.362,6.362a2.956,2.956,0,0,1-1.857.516,3.522,3.522,0,0,1-1.481-.295,74.118,74.118,0,0,0-7.493-3.133,3.723,3.723,0,0,1-2.247-2.559V33.642A15.263,15.263,0,0,0,118.782,18.4h-14.61A15.263,15.263,0,0,0,88.926,33.642V42.6a3.716,3.716,0,0,1-2.243,2.556,74.29,74.29,0,0,0-7.5,3.135,3.553,3.553,0,0,1-1.481.292,2.951,2.951,0,0,1-1.855-.513L69.483,41.7a15.247,15.247,0,0,0-21.56,0L37.594,52.033a15.267,15.267,0,0,0,0,21.563l6.362,6.362a3.626,3.626,0,0,1,.221,3.336,74.28,74.28,0,0,0-3.135,7.5,3.728,3.728,0,0,1-2.559,2.246H29.529a15.263,15.263,0,0,0-15.245,15.246v14.61a15.262,15.262,0,0,0,15.242,15.246h8.954a3.719,3.719,0,0,1,2.559,2.243,73.839,73.839,0,0,0,3.135,7.493,3.631,3.631,0,0,1-.218,3.339l-6.365,6.365a15.247,15.247,0,0,0,0,21.563l10.329,10.326a15.247,15.247,0,0,0,21.56,0l6.365-6.365a2.956,2.956,0,0,1,1.858-.516,3.521,3.521,0,0,1,1.481.295,74.062,74.062,0,0,0,7.494,3.133,3.723,3.723,0,0,1,2.246,2.559v8.954a15.263,15.263,0,0,0,15.246,15.246h14.61a15.263,15.263,0,0,0,15.246-15.246v-8.952a3.716,3.716,0,0,1,2.244-2.556,74.228,74.228,0,0,0,7.493-3.135,3.535,3.535,0,0,1,1.484-.295,2.962,2.962,0,0,1,1.857.516l6.365,6.365a15.247,15.247,0,0,0,21.56,0l10.329-10.329a15.264,15.264,0,0,0,0-21.56L179,151.218a3.632,3.632,0,0,1-.221-3.338A75.3,75.3,0,0,0,181.909,140.377Zm-40.736-24.795a29.7,29.7,0,1,1-29.7-29.7A29.732,29.732,0,0,1,141.173,115.582Z" transform="translate(-14.284 -18.396)" fill="#f3f3f3"/>
      </g>
    </g>
    <path id="Path_19214" data-name="Path 19214" d="M560.36,257.7a8.179,8.179,0,0,1-1.1-4.195,8.463,8.463,0,0,1,8.655-8.27l.364.012c.928-2.021,3.438-3.453,6.373-3.419,3.3.036,6.023,1.915,6.546,4.348a13.669,13.669,0,0,1,1.75-.094,12.72,12.72,0,0,1,5.3,1.192,6.726,6.726,0,0,1,11.821.693,9.31,9.31,0,0,1,4.946-1.345,8.9,8.9,0,0,1,8.975,8.822,8.564,8.564,0,0,1-3.423,6.721,6.658,6.658,0,0,1,1.271,3.978,7.194,7.194,0,0,1-7.479,6.882,14.162,14.162,0,0,1-2.2-.339c-3.2,5.135-12.193,2.719-11.42,1.811-10.158,11.946-21.15,10.452-21.414,10.348,4.332-1.033,6.662-4.563,8.48-8.877a11.466,11.466,0,0,1-3.767.583,10.631,10.631,0,0,1-8.535-4.182,10.075,10.075,0,0,1-3.468.564c-4.915-.056-8.859-3.546-8.811-7.792C553.268,261.448,556.324,258.395,560.36,257.7Z" transform="translate(-153.776 -62.8)" fill="#fd907e"/>
    <g id="Group_13323" data-name="Group 13323" transform="translate(345.678 361.112)">
      <path id="Path_19215" data-name="Path 19215" d="M639.858,496.554H499.682a3.285,3.285,0,0,0-3.5,3.213V596.5a3.7,3.7,0,0,0,3.5,3.7H639.866c1.919,0,3.156-1.788,3.156-3.7V499.767A3,3,0,0,0,639.858,496.554Z" transform="translate(-483.184 -496.554)" fill="#1f3445"/>
      <path id="Path_19216" data-name="Path 19216" d="M637.526,591.246c0,2.108-.458,2.962-2.444,2.962h-124.5c-1.986,0-4.586-.854-4.586-2.962V510.9c0-2.108,2.6-3.9,4.586-3.9h124.5c1.986,0,2.444,1.79,2.444,3.9Z" transform="translate(-485.985 -499.533)" fill="#fff"/>
      <rect id="Rectangle_2552" data-name="Rectangle 2552" width="172.271" height="8.578" rx="2.044" transform="translate(0 106.827)" fill="#1f3445"/>
    </g>
    <g id="Group_13324" data-name="Group 13324" transform="translate(56.873 68.234)">
      <path id="Path_19217" data-name="Path 19217" d="M74.016,94.677l-.041,68.98a7.846,7.846,0,0,0,7.858,7.853l100.03.059a7.852,7.852,0,0,0,7.864-7.844l.04-68.979a7.86,7.86,0,0,0-7.854-7.857L81.882,86.83A7.854,7.854,0,0,0,74.016,94.677Z" transform="translate(-73.975 -86.83)" fill="#1f3445"/>
      <path id="Path_19218" data-name="Path 19218" d="M228.09,144.282a4.668,4.668,0,1,1-4.663-4.671A4.664,4.664,0,0,1,228.09,144.282Z" transform="translate(-115.263 -101.882)" fill="#fff"/>
      <rect id="Rectangle_2553" data-name="Rectangle 2553" width="89.934" height="68.789" transform="translate(9.466 7.971)" fill="#fff"/>
    </g>
    <rect id="Rectangle_2554" data-name="Rectangle 2554" width="52.681" height="70.241" rx="2.416" transform="translate(318.677 72.542)" fill="#1f3445"/>
    <rect id="Rectangle_2555" data-name="Rectangle 2555" width="44.319" height="62.189" transform="translate(322.804 76.933)" fill="#fff"/>
    <path id="Path_19219" data-name="Path 19219" d="M476.57,94.033s.144-5.127-3.886-5.127-3.742,5.127-3.742,5.127h-6.765v6.621h21.015V94.033Zm-3.886-3.646c2.357-.007,2.271,3.217,2.257,3.646l-4.452-.018C470.362,90.165,472.683,90.388,472.683,90.388Z" transform="translate(-127.81 -19.188)" fill="#0094c4"/>
    <g id="Group_13325" data-name="Group 13325" transform="translate(337.1 90.515)">
      <rect id="Rectangle_2556" data-name="Rectangle 2556" width="24.304" height="0.715" fill="#c6d4e2"/>
    </g>
    <g id="Group_13326" data-name="Group 13326" transform="translate(337.1 101.237)">
      <rect id="Rectangle_2557" data-name="Rectangle 2557" width="24.304" height="0.715" fill="#c6d4e2"/>
    </g>
    <g id="Group_13327" data-name="Group 13327" transform="translate(337.1 111.244)">
      <rect id="Rectangle_2558" data-name="Rectangle 2558" width="24.304" height="0.715" fill="#c6d4e2"/>
    </g>
    <g id="Group_13328" data-name="Group 13328" transform="translate(337.1 121.967)">
      <rect id="Rectangle_2559" data-name="Rectangle 2559" width="24.304" height="0.715" fill="#c6d4e2"/>
    </g>
    <path id="Path_19220" data-name="Path 19220" d="M458.209,115.055l-2.565,2.154-.862-1.026a.67.67,0,0,0-1.026.861l1.293,1.54a.67.67,0,0,0,.944.082l3.078-2.585a.67.67,0,1,0-.861-1.026Z" transform="translate(-125.363 -26.601)" fill="#99bbeb"/>
    <path id="Path_19221" data-name="Path 19221" d="M458.209,130.359l-2.565,2.153-.862-1.026a.67.67,0,0,0-1.026.861l1.293,1.539a.669.669,0,0,0,.944.082l3.078-2.584a.67.67,0,1,0-.861-1.026Z" transform="translate(-125.363 -30.965)" fill="#99bbeb"/>
    <path id="Path_19222" data-name="Path 19222" d="M458.209,144.454l-2.565,2.153-.862-1.026a.67.67,0,0,0-1.026.861l1.293,1.539a.669.669,0,0,0,.944.083l3.078-2.585a.67.67,0,1,0-.861-1.026Z" transform="translate(-125.363 -34.985)" fill="#99bbeb"/>
    <path id="Path_19223" data-name="Path 19223" d="M458.128,158.731l-2.565,2.154-.862-1.026a.67.67,0,0,0-1.026.861l1.293,1.539a.669.669,0,0,0,.944.082l3.078-2.584a.67.67,0,0,0-.861-1.026Z" transform="translate(-125.34 -39.056)" fill="#99bbeb"/>
    <g id="Group_13329" data-name="Group 13329" transform="translate(77.424 362.923)">
      <path id="Path_19224" data-name="Path 19224" d="M179.616,499.128l-68.979-.04a7.845,7.845,0,0,0-7.854,7.857l-.059,100.031a7.851,7.851,0,0,0,7.844,7.863l68.979.041a7.862,7.862,0,0,0,7.857-7.854L187.463,507A7.855,7.855,0,0,0,179.616,499.128Z" transform="translate(-102.724 -499.088)" fill="#1f3445"/>
      <path id="Path_19225" data-name="Path 19225" d="M160.094,653.2a4.668,4.668,0,1,1,4.671-4.662A4.664,4.664,0,0,1,160.094,653.2Z" transform="translate(-117.754 -540.376)" fill="#fff"/>
      <rect id="Rectangle_2560" data-name="Rectangle 2560" width="68.789" height="89.934" transform="translate(7.979 9.466)" fill="#fff"/>
    </g>
    <path id="MobileMe" d="M352.353,184.716a9.913,9.913,0,0,1-9.875,9.95H311.922a9.956,9.956,0,0,1-1.552-19.777,6.3,6.3,0,0,1,6.165-7.379,6.189,6.189,0,0,1,4.044,1.5c1.944-4.411,4.434-8.436,11.421-8.436,8.474,0,12.491,6.585,12.491,13.534,0,.291-.012.578-.031.863A9.935,9.935,0,0,1,352.353,184.716Z" transform="translate(-82.144 -39.626)" fill="#f9c201"/>
    <path id="MobileMe-2" data-name="MobileMe" d="M375.877,604.49a16.373,16.373,0,0,1-16.311,16.433H309.1a16.443,16.443,0,0,1-2.563-32.663,10.483,10.483,0,0,1-.153-1.776,10.373,10.373,0,0,1,10.336-10.411,10.225,10.225,0,0,1,6.679,2.471c3.209-7.285,7.323-13.934,18.863-13.934,14,0,20.63,10.876,20.63,22.352,0,.48-.02.956-.052,1.427A16.408,16.408,0,0,1,375.877,604.49Z" transform="translate(-79.504 -154.851)" fill="#82b378"/>
    <path id="MobileMe-3" data-name="MobileMe" d="M595.731,414.474A16.127,16.127,0,0,0,611.8,430.659H661.5a16.2,16.2,0,0,0,2.525-32.171,10.252,10.252,0,0,0-10.03-12,10.069,10.069,0,0,0-6.578,2.434c-3.161-7.176-7.213-13.724-18.579-13.724-13.786,0-20.32,10.712-20.32,22.016,0,.473.02.941.051,1.405A16.161,16.161,0,0,0,595.731,414.474Z" transform="translate(-165.897 -100.832)" fill="#99bbeb"/>
    <g id="Group_13378" data-name="Group 13378" transform="translate(385.469 164.094)">
      <g id="Group_13331" data-name="Group 13331" transform="translate(92.45)">
        <rect id="Rectangle_2561" data-name="Rectangle 2561" width="4.289" height="4.289" transform="translate(0 0.047)" fill="none"/>
        <g id="Group_13330" data-name="Group 13330" transform="translate(0.329)">
          <circle id="Ellipse_359" data-name="Ellipse 359" cx="2.144" cy="2.144" r="2.144" fill="#073953"/>
        </g>
      </g>
      <g id="Group_13333" data-name="Group 13333" transform="translate(92.45 7.72)">
        <rect id="Rectangle_2562" data-name="Rectangle 2562" width="4.289" height="4.289" transform="translate(0 0.19)" fill="none"/>
        <g id="Group_13332" data-name="Group 13332" transform="translate(0.299)">
          <circle id="Ellipse_360" data-name="Ellipse 360" cx="2.144" cy="2.144" r="2.144" fill="#073953"/>
        </g>
      </g>
      <g id="Group_13335" data-name="Group 13335" transform="translate(92.45 15.44)">
        <rect id="Rectangle_2563" data-name="Rectangle 2563" width="4.289" height="4.289" transform="translate(0 0.333)" fill="none"/>
        <g id="Group_13334" data-name="Group 13334" transform="translate(0.269)">
          <circle id="Ellipse_361" data-name="Ellipse 361" cx="2.144" cy="2.144" r="2.144" fill="#073953"/>
        </g>
      </g>
      <g id="Group_13337" data-name="Group 13337" transform="translate(92.45 22.921)">
        <rect id="Rectangle_2564" data-name="Rectangle 2564" width="4.289" height="4.289" fill="none"/>
        <g id="Group_13336" data-name="Group 13336" transform="translate(0.239 0.239)">
          <circle id="Ellipse_362" data-name="Ellipse 362" cx="2.144" cy="2.144" r="2.144" fill="#073953"/>
        </g>
      </g>
      <g id="Group_13339" data-name="Group 13339" transform="translate(92.45 30.784)">
        <rect id="Rectangle_2565" data-name="Rectangle 2565" width="4.289" height="4.289" fill="none"/>
        <g id="Group_13338" data-name="Group 13338" transform="translate(0.21 0.096)">
          <circle id="Ellipse_363" data-name="Ellipse 363" cx="2.144" cy="2.144" r="2.144" fill="#073953"/>
        </g>
      </g>
      <g id="Group_13341" data-name="Group 13341" transform="translate(92.45 38.6)">
        <rect id="Rectangle_2566" data-name="Rectangle 2566" width="4.289" height="4.289" transform="translate(0 0.047)" fill="none"/>
        <g id="Group_13340" data-name="Group 13340" transform="translate(0.18)">
          <circle id="Ellipse_364" data-name="Ellipse 364" cx="2.144" cy="2.144" r="2.144" fill="#073953"/>
        </g>
      </g>
      <g id="Group_13343" data-name="Group 13343" transform="translate(92.45 46.32)">
        <rect id="Rectangle_2567" data-name="Rectangle 2567" width="4.289" height="4.289" transform="translate(0 0.19)" fill="none"/>
        <g id="Group_13342" data-name="Group 13342" transform="translate(0.15)">
          <circle id="Ellipse_365" data-name="Ellipse 365" cx="2.144" cy="2.144" r="2.144" fill="#073953"/>
        </g>
      </g>
      <g id="Group_13345" data-name="Group 13345" transform="translate(92.45 54.04)">
        <rect id="Rectangle_2568" data-name="Rectangle 2568" width="4.289" height="4.289" transform="translate(0 0.333)" fill="none"/>
        <g id="Group_13344" data-name="Group 13344" transform="translate(0.12)">
          <circle id="Ellipse_366" data-name="Ellipse 366" cx="2.144" cy="2.144" r="2.144" fill="#073953"/>
        </g>
      </g>
      <g id="Group_13347" data-name="Group 13347" transform="translate(92.45 61.521)">
        <rect id="Rectangle_2569" data-name="Rectangle 2569" width="4.289" height="4.289" fill="none"/>
        <g id="Group_13346" data-name="Group 13346" transform="translate(0.09 0.238)">
          <circle id="Ellipse_367" data-name="Ellipse 367" cx="2.144" cy="2.144" r="2.144" fill="#073953"/>
        </g>
      </g>
      <g id="Group_13349" data-name="Group 13349" transform="translate(92.45 69.384)">
        <rect id="Rectangle_2570" data-name="Rectangle 2570" width="4.289" height="4.289" fill="none"/>
        <g id="Group_13348" data-name="Group 13348" transform="translate(0.06 0.095)">
          <circle id="Ellipse_368" data-name="Ellipse 368" cx="2.144" cy="2.144" r="2.144" fill="#073953"/>
        </g>
      </g>
      <g id="Group_13351" data-name="Group 13351" transform="translate(92.45 77.2)">
        <rect id="Rectangle_2571" data-name="Rectangle 2571" width="4.289" height="4.289" transform="translate(0 0.048)" fill="none"/>
        <g id="Group_13350" data-name="Group 13350" transform="translate(0.03)">
          <circle id="Ellipse_369" data-name="Ellipse 369" cx="2.144" cy="2.144" r="2.144" fill="#073953"/>
        </g>
      </g>
      <g id="Group_13353" data-name="Group 13353" transform="translate(92.45 84.92)">
        <rect id="Rectangle_2572" data-name="Rectangle 2572" width="4.289" height="4.289" transform="translate(0 0.191)" fill="none"/>
        <g id="Group_13352" data-name="Group 13352" transform="translate(0.001)">
          <circle id="Ellipse_370" data-name="Ellipse 370" cx="2.144" cy="2.144" r="2.144" fill="#073953"/>
        </g>
      </g>
      <g id="Group_13355" data-name="Group 13355" transform="translate(84.587 85.11)">
        <rect id="Rectangle_2573" data-name="Rectangle 2573" width="4.289" height="4.289" fill="none"/>
        <g id="Group_13354" data-name="Group 13354" transform="translate(0.334)">
          <circle id="Ellipse_371" data-name="Ellipse 371" cx="2.144" cy="2.144" r="2.144" fill="#073953"/>
        </g>
      </g>
      <g id="Group_13357" data-name="Group 13357" transform="translate(77.2 85.11)">
        <rect id="Rectangle_2574" data-name="Rectangle 2574" width="4.289" height="4.289" transform="translate(0.238)" fill="none"/>
        <g id="Group_13356" data-name="Group 13356">
          <circle id="Ellipse_372" data-name="Ellipse 372" cx="2.144" cy="2.144" r="2.144" fill="#073953"/>
        </g>
      </g>
      <g id="Group_13359" data-name="Group 13359" transform="translate(69.48 85.11)">
        <rect id="Rectangle_2575" data-name="Rectangle 2575" width="4.289" height="4.289" transform="translate(0.095)" fill="none"/>
        <g id="Group_13358" data-name="Group 13358">
          <circle id="Ellipse_373" data-name="Ellipse 373" cx="2.144" cy="2.144" r="2.144" fill="#073953"/>
        </g>
      </g>
      <g id="Group_13361" data-name="Group 13361" transform="translate(61.713 85.11)">
        <rect id="Rectangle_2576" data-name="Rectangle 2576" width="4.289" height="4.289" fill="none"/>
        <g id="Group_13360" data-name="Group 13360" transform="translate(0.048)">
          <circle id="Ellipse_374" data-name="Ellipse 374" cx="2.144" cy="2.144" r="2.144" fill="#073953"/>
        </g>
      </g>
      <g id="Group_13363" data-name="Group 13363" transform="translate(53.85 85.11)">
        <rect id="Rectangle_2577" data-name="Rectangle 2577" width="4.289" height="4.289" fill="none"/>
        <g id="Group_13362" data-name="Group 13362" transform="translate(0.191)">
          <circle id="Ellipse_375" data-name="Ellipse 375" cx="2.144" cy="2.144" r="2.144" fill="#073953"/>
        </g>
      </g>
      <g id="Group_13365" data-name="Group 13365" transform="translate(45.987 85.11)">
        <rect id="Rectangle_2578" data-name="Rectangle 2578" width="4.289" height="4.289" fill="none"/>
        <g id="Group_13364" data-name="Group 13364" transform="translate(0.334)">
          <circle id="Ellipse_376" data-name="Ellipse 376" cx="2.144" cy="2.144" r="2.144" fill="#073953"/>
        </g>
      </g>
      <g id="Group_13367" data-name="Group 13367" transform="translate(38.6 85.11)">
        <rect id="Rectangle_2579" data-name="Rectangle 2579" width="4.289" height="4.289" transform="translate(0.238)" fill="none"/>
        <g id="Group_13366" data-name="Group 13366">
          <circle id="Ellipse_377" data-name="Ellipse 377" cx="2.144" cy="2.144" r="2.144" fill="#073953"/>
        </g>
      </g>
      <g id="Group_13369" data-name="Group 13369" transform="translate(30.88 85.11)">
        <rect id="Rectangle_2580" data-name="Rectangle 2580" width="4.289" height="4.289" transform="translate(0.095)" fill="none"/>
        <g id="Group_13368" data-name="Group 13368">
          <circle id="Ellipse_378" data-name="Ellipse 378" cx="2.144" cy="2.144" r="2.144" fill="#073953"/>
        </g>
      </g>
      <g id="Group_13371" data-name="Group 13371" transform="translate(23.112 85.11)">
        <rect id="Rectangle_2581" data-name="Rectangle 2581" width="4.289" height="4.289" fill="none"/>
        <g id="Group_13370" data-name="Group 13370" transform="translate(0.048)">
          <circle id="Ellipse_379" data-name="Ellipse 379" cx="2.144" cy="2.144" r="2.144" fill="#073953"/>
        </g>
      </g>
      <g id="Group_13373" data-name="Group 13373" transform="translate(15.249 85.11)">
        <rect id="Rectangle_2582" data-name="Rectangle 2582" width="4.289" height="4.289" fill="none"/>
        <g id="Group_13372" data-name="Group 13372" transform="translate(0.191)">
          <circle id="Ellipse_380" data-name="Ellipse 380" cx="2.144" cy="2.144" r="2.144" fill="#073953"/>
        </g>
      </g>
      <g id="Group_13375" data-name="Group 13375" transform="translate(7.386 85.11)">
        <rect id="Rectangle_2583" data-name="Rectangle 2583" width="4.289" height="4.289" fill="none"/>
        <g id="Group_13374" data-name="Group 13374" transform="translate(0.334)">
          <circle id="Ellipse_381" data-name="Ellipse 381" cx="2.144" cy="2.144" r="2.144" fill="#073953"/>
        </g>
      </g>
      <g id="Group_13377" data-name="Group 13377" transform="translate(0 85.11)">
        <rect id="Rectangle_2584" data-name="Rectangle 2584" width="4.289" height="4.289" transform="translate(0.238)" fill="none"/>
        <g id="Group_13376" data-name="Group 13376">
          <circle id="Ellipse_382" data-name="Ellipse 382" cx="2.144" cy="2.144" r="2.144" fill="#073953"/>
        </g>
      </g>
    </g>
    <g id="Group_13379" data-name="Group 13379" transform="translate(202.744 193.044)">
      <path id="Path_19226" data-name="Path 19226" d="M451.4,261.434H282.664c-2.31,0-4.622,1.332-4.622,3.641V381.52c0,2.31,2.312,4.05,4.622,4.05h63.023s.042,10.758.058,10.758h-8.691a3.726,3.726,0,1,0,0,7.448h62.058a3.726,3.726,0,1,0,0-7.448h-8.975c.013,0-.086-10.758-.086-10.758h61.36c2.31,0,4.561-1.743,4.561-4.05V265.075C455.972,262.766,453.713,261.434,451.4,261.434Z" transform="translate(-278.042 -261.434)" fill="#1f3445"/>
      <rect id="Rectangle_2585" data-name="Rectangle 2585" width="162.264" height="100.789" rx="6.142" transform="translate(8.548 7.553)" fill="#fff"/>
    </g>
    <g id="Group_13380" data-name="Group 13380" transform="translate(455.963 72.191)">
      <path id="Path_19227" data-name="Path 19227" d="M674.874,92.366H638.563a6.281,6.281,0,0,0-6.278,6.289v73.727a6.281,6.281,0,0,0,6.278,6.28h36.311a6.287,6.287,0,0,0,6.283-6.28V98.655A6.291,6.291,0,0,0,674.874,92.366Z" transform="translate(-632.285 -92.366)" fill="#1f3445"/>
      <rect id="Rectangle_2586" data-name="Rectangle 2586" width="39.454" height="59.311" transform="translate(4.709 10.608)" fill="#fff"/>
      <path id="Path_19228" data-name="Path 19228" d="M671.527,100.561H654.693V98.725H671.53v1.836Z" transform="translate(-638.675 -94.18)" fill="#fff"/>
      <path id="Path_19229" data-name="Path 19229" d="M687.037,99.479a1.609,1.609,0,1,1-1.61-1.607A1.61,1.61,0,0,1,687.037,99.479Z" transform="translate(-646.981 -93.936)" fill="#fff"/>
      <rect id="Rectangle_2587" data-name="Rectangle 2587" width="15.331" height="4.717" transform="translate(16.767 74.879)" fill="#fff"/>
    </g>
    <path id="Path_19230" data-name="Path 19230" d="M236,147.5h91.5s18.228-.715,18.228,17.87V228.63" transform="translate(-63.308 -35.897)" fill="none" stroke="#012f58" stroke-miterlimit="10" stroke-width="3"/>
    <rect id="Rectangle_2588" data-name="Rectangle 2588" width="4.289" height="11.437" transform="translate(170.905 105.168)" fill="#012f58"/>
    <rect id="Rectangle_2589" data-name="Rectangle 2589" width="4.289" height="11.437" transform="translate(200.927 210.247)" fill="#012f58"/>
    <path id="Path_19245" data-name="Path 19245" d="M243.133,293.5H179.872c-18.585,0-17.87,18.228-17.87,18.228v91.5l0,40.532" transform="translate(-42.204 -77.534)" fill="none" stroke="#012f58" stroke-miterlimit="10" stroke-width="3"/>
    <rect id="Rectangle_2590" data-name="Rectangle 2590" width="17.156" height="6.433" transform="translate(111.575 359.644)" fill="#012f58"/>
    <path id="Path_19246" data-name="Path 19246" d="M474.337,531.63l-51.109,0S405,532.342,405,513.756V450.495" transform="translate(-111.504 -122.307)" fill="none" stroke="#012f58" stroke-miterlimit="10" stroke-width="3"/>
    <rect id="Rectangle_2591" data-name="Rectangle 2591" width="5.719" height="12.867" transform="translate(355.328 403.247)" fill="#012f58"/>
    <rect id="Rectangle_2592" data-name="Rectangle 2592" width="138.675" height="20.73" transform="translate(222.729 215.608)" fill="#99bbeb"/>
    <rect id="Rectangle_2593" data-name="Rectangle 2593" width="115.562" height="13.224" transform="translate(373.556 384.305)" fill="#99bbeb"/>
    <rect id="Rectangle_2594" data-name="Rectangle 2594" width="115.8" height="6.433" transform="translate(373.556 402.175)" fill="#e3f8fa"/>
    <rect id="Rectangle_2595" data-name="Rectangle 2595" width="34.669" height="37.217" transform="translate(462.908 86.226)" fill="#99bbeb"/>
    <rect id="Rectangle_2596" data-name="Rectangle 2596" width="34.669" height="13.295" transform="translate(462.908 126.47)" fill="#c6d4e2"/>
    <rect id="Rectangle_2597" data-name="Rectangle 2597" width="103.649" height="7.148" transform="translate(222.014 284.23)" fill="#c6d4e2" stroke="#c6d4e2" stroke-width="1"/>
    <rect id="Rectangle_2598" data-name="Rectangle 2598" width="79.345" height="7.148" transform="translate(71.188 128.4)" fill="#c6d4e2" stroke="#c6d4e2" stroke-width="1"/>
    <rect id="Rectangle_2599" data-name="Rectangle 2599" width="30.022" height="7.148" transform="translate(330.667 284.23)" fill="#c6d4e2" stroke="#c6d4e2" stroke-width="1"/>
    <rect id="Rectangle_2600" data-name="Rectangle 2600" width="30.626" height="21.316" transform="translate(222.729 240.26)" fill="#e3f8fa"/>
    <rect id="Rectangle_2601" data-name="Rectangle 2601" width="29.196" height="22.883" transform="translate(120.51 418.965)" fill="#fff2b5"/>
    <rect id="Rectangle_2602" data-name="Rectangle 2602" width="30.626" height="21.316" transform="translate(258.745 240.26)" fill="#e3f8fa"/>
    <rect id="Rectangle_2603" data-name="Rectangle 2603" width="30.626" height="21.316" transform="translate(294.761 240.26)" fill="#e3f8fa"/>
    <rect id="Rectangle_2604" data-name="Rectangle 2604" width="30.626" height="21.316" transform="translate(330.778 240.26)" fill="#e3f8fa"/>
    <rect id="Rectangle_2605" data-name="Rectangle 2605" width="60.045" height="7.863" transform="translate(89.773 380.016)" fill="#99bbeb"/>
    <rect id="Rectangle_2606" data-name="Rectangle 2606" width="60.045" height="2.859" transform="translate(90.488 445.779)" fill="#e3f8fa" stroke="#e3f8fa" stroke-width="1"/>
    <rect id="Rectangle_2607" data-name="Rectangle 2607" width="60.045" height="2.859" transform="translate(90.488 451.498)" fill="#e3f8fa" stroke="#e3f8fa" stroke-width="1"/>
    <rect id="Rectangle_2608" data-name="Rectangle 2608" width="80.355" height="11.471" transform="translate(70.949 83.472)" fill="#99bbeb"/>
    <rect id="Rectangle_2609" data-name="Rectangle 2609" width="28.593" height="23.589" transform="translate(89.773 391.453)" fill="#ffe6e2"/>
    <path id="Path_19247" data-name="Path 19247" d="M534,415.757v-12.5l6.969,6.252Z" transform="translate(-148.293 -108.835)" fill="#99bbeb"/>
    <path id="Path_19248" data-name="Path 19248" d="M552,415.757v-12.5l6.969,6.252Z" transform="translate(-153.426 -108.835)" fill="#99bbeb"/>
    <path id="Path_19249" data-name="Path 19249" d="M570,415.757v-12.5l6.969,6.252Z" transform="translate(-158.559 -108.835)" fill="#99bbeb"/>
    <path id="Path_19250" data-name="Path 19250" d="M328.129,207h12.5l-6.252,6.969Z" transform="translate(-89.582 -52.867)" fill="#f9c201"/>
    <path id="Path_19251" data-name="Path 19251" d="M328.129,225h12.5l-6.252,6.969Z" transform="translate(-89.582 -58)" fill="#f9c201"/>
    <path id="Path_19252" data-name="Path 19252" d="M328.129,243h12.5l-6.252,6.969Z" transform="translate(-89.582 -63.133)" fill="#f9c201"/>
    <path id="Path_19253" data-name="Path 19253" d="M228,607.757v-12.5l6.969,6.252Z" transform="translate(-61.027 -163.59)" fill="#82b378"/>
    <path id="Path_19254" data-name="Path 19254" d="M246,607.757v-12.5l6.969,6.252Z" transform="translate(-66.16 -163.59)" fill="#82b378"/>
    <path id="Path_19255" data-name="Path 19255" d="M264,607.757v-12.5l6.969,6.252Z" transform="translate(-71.293 -163.59)" fill="#82b378"/>
    <path id="Path_19258" data-name="Path 19258" d="M638.722,425.243a19.331,19.331,0,0,0,4.414,2.218c.264.1.54.194.8.279.274.116.558.228.844.334a20.911,20.911,0,0,0,4.807,1.169,2.6,2.6,0,0,0,2.6-1.5l7.718-20.9a2.027,2.027,0,0,0-1.169-2.609h0a46.094,46.094,0,0,0-5.133-2.2l-.38-.139a41.393,41.393,0,0,0-5.177-1.609,2.047,2.047,0,0,0-2.626,1.21l-7.718,20.9A2.292,2.292,0,0,0,638.722,425.243Zm2.467-6.752.274.287a.8.8,0,0,1,.1.764l-.177.477a.218.218,0,0,1-.337.114l-.358-.229a.369.369,0,0,1-.141-.42l.344-.932A.164.164,0,0,1,641.189,418.491Zm.025-.8.344-.931a.164.164,0,0,1,.3-.061l.275.287a.8.8,0,0,1,.1.763l-.177.477a.218.218,0,0,1-.337.114l-.358-.229A.37.37,0,0,1,641.214,417.686Zm-.458,4.163a.218.218,0,0,1-.337.113l-.358-.229a.368.368,0,0,1-.14-.419l.344-.932a.163.163,0,0,1,.294-.061l.276.287a.806.806,0,0,1,.1.764Zm1.819-2.606.275.287a.806.806,0,0,1,.1.765l-.176.477a.219.219,0,0,1-.337.113l-.358-.229a.368.368,0,0,1-.14-.42l.344-.931A.163.163,0,0,1,642.575,419.243Zm.026-.8.344-.932a.164.164,0,0,1,.294-.061l.275.288a.8.8,0,0,1,.1.764l-.177.478a.219.219,0,0,1-.337.114l-.358-.23A.369.369,0,0,1,642.6,418.438Zm-.459,4.163a.218.218,0,0,1-.337.114l-.358-.229a.37.37,0,0,1-.14-.42l.345-.932a.163.163,0,0,1,.294-.061l.275.287a.8.8,0,0,1,.1.764Zm1.847-2.651.275.287a.808.808,0,0,1,.1.764l-.177.478a.217.217,0,0,1-.337.113l-.359-.229a.37.37,0,0,1-.14-.42l.344-.931A.164.164,0,0,1,643.989,419.95Zm.025-.8.345-.932a.163.163,0,0,1,.294-.061l.275.288a.806.806,0,0,1,.1.764c-.1.264-.177.478-.177.478a.218.218,0,0,1-.337.113l-.359-.229A.369.369,0,0,1,644.014,419.145Zm-.459,4.162a.218.218,0,0,1-.337.114l-.358-.229a.367.367,0,0,1-.14-.419l.344-.932a.163.163,0,0,1,.295-.061l.275.287a.8.8,0,0,1,.1.764C643.633,423.094,643.555,423.308,643.555,423.308Zm1.872-2.69.274.287a.805.805,0,0,1,.1.765l-.177.477a.218.218,0,0,1-.337.113l-.357-.229a.367.367,0,0,1-.141-.42l.344-.932A.164.164,0,0,1,645.427,420.618Zm.024-.8.345-.932a.164.164,0,0,1,.3-.061l.274.287a.806.806,0,0,1,.1.765l-.177.477a.218.218,0,0,1-.337.112l-.357-.229A.368.368,0,0,1,645.451,419.813Zm-.458,4.163a.219.219,0,0,1-.337.113l-.358-.229a.368.368,0,0,1-.14-.42l.344-.931a.163.163,0,0,1,.295-.061l.275.288a.806.806,0,0,1,.1.764C645.072,423.762,644.994,423.976,644.994,423.976Zm1.837-6.26a.772.772,0,1,1,.457.991A.772.772,0,0,1,646.831,417.716Zm-.24,6.623a.367.367,0,0,1-.38.227l-.42-.058a.219.219,0,0,1-.183-.305l.176-.477a.8.8,0,0,1,.572-.516l.4-.041a.164.164,0,0,1,.185.238Zm.709-1.8a.366.366,0,0,1-.378.227l-.422-.058a.219.219,0,0,1-.183-.305l.177-.477a.805.805,0,0,1,.572-.517l.4-.039a.163.163,0,0,1,.184.237l-.345.933Zm.664-1.8a.367.367,0,0,1-.378.227l-.422-.059a.219.219,0,0,1-.183-.305l.177-.478a.807.807,0,0,1,.572-.517l.4-.039a.163.163,0,0,1,.184.237l-.344.933Zm.154,4.025a.371.371,0,0,1-.38.227l-.422-.059a.218.218,0,0,1-.182-.305l.177-.477a.807.807,0,0,1,.571-.517l.4-.039a.164.164,0,0,1,.185.238l-.344.932Zm.709-1.8a.368.368,0,0,1-.379.227l-.422-.058a.219.219,0,0,1-.182-.305l.177-.477a.806.806,0,0,1,.571-.517l.4-.04a.163.163,0,0,1,.184.238l-.345.932Zm.664-1.8a.369.369,0,0,1-.379.228l-.422-.059a.218.218,0,0,1-.182-.305l.177-.477a.806.806,0,0,1,.571-.518l.4-.04a.163.163,0,0,1,.184.238l-.344.933Zm.16,3.979a.368.368,0,0,1-.379.227l-.422-.058a.219.219,0,0,1-.183-.306l.177-.477a.8.8,0,0,1,.572-.516l.4-.04a.163.163,0,0,1,.183.237Zm.709-1.8a.368.368,0,0,1-.379.228l-.421-.059a.217.217,0,0,1-.182-.3l.176-.477a.806.806,0,0,1,.571-.518l.4-.039a.163.163,0,0,1,.183.238l-.344.931Zm.664-1.8a.367.367,0,0,1-.379.227l-.422-.058a.218.218,0,0,1-.182-.305l.176-.478a.806.806,0,0,1,.571-.517l.4-.04a.163.163,0,0,1,.184.238l-.344.932Zm.169,3.928a.369.369,0,0,1-.38.227l-.421-.059a.218.218,0,0,1-.182-.3l.176-.477a.807.807,0,0,1,.571-.517l.4-.039a.163.163,0,0,1,.184.238l-.344.931Zm.71-1.8a.368.368,0,0,1-.379.227l-.422-.058a.219.219,0,0,1-.183-.306l.177-.477a.808.808,0,0,1,.571-.518l.4-.039a.163.163,0,0,1,.184.238l-.345.932Zm.663-1.8a.369.369,0,0,1-.379.227l-.421-.059a.218.218,0,0,1-.183-.305l.177-.478a.807.807,0,0,1,.571-.517l.4-.039a.163.163,0,0,1,.184.238l-.345.932Zm-1.446-18.367,3.128,1.155a.228.228,0,1,1-.157.427l-3.129-1.155a.228.228,0,0,1,.158-.427Zm-5.36,1.164,11.8,4.359-3.359,9.1L642.4,413.774Z" transform="translate(-177.819 -107.952)" fill="#fff"/>
    <g id="Group_13383" data-name="Group 13383" transform="translate(236.688 131.962)">
      <path id="Path_19259" data-name="Path 19259" d="M346.311,188.682h-.718a.591.591,0,0,1-.494-.384,5.9,5.9,0,0,0-.239-.57.586.586,0,0,1,.076-.618l.511-.51a.919.919,0,0,0,0-1.3l-.829-.829a.918.918,0,0,0-1.3,0l-.511.511a.523.523,0,0,1-.365.131.586.586,0,0,1-.252-.054,5.753,5.753,0,0,0-.572-.239.593.593,0,0,1-.384-.495v-.718a.919.919,0,0,0-.918-.918h-1.173a.919.919,0,0,0-.918.918v.718a.592.592,0,0,1-.384.495,5.673,5.673,0,0,0-.571.239.6.6,0,0,1-.252.054.526.526,0,0,1-.367-.131l-.51-.51a.918.918,0,0,0-1.3,0l-.83.83a.917.917,0,0,0,0,1.3l.511.51a.588.588,0,0,1,.077.619,5.594,5.594,0,0,0-.239.57.591.591,0,0,1-.494.383h-.718a.92.92,0,0,0-.919.919v1.173a.92.92,0,0,0,.919.918h.718a.594.594,0,0,1,.495.384,5.559,5.559,0,0,0,.238.57.585.585,0,0,1-.077.618l-.511.51a.921.921,0,0,0,0,1.3l.831.831a.918.918,0,0,0,1.3,0l.511-.511a.525.525,0,0,1,.366-.132.576.576,0,0,1,.252.054,5.652,5.652,0,0,0,.57.238.594.594,0,0,1,.384.495v.718a.919.919,0,0,0,.918.919h1.173a.919.919,0,0,0,.918-.919v-.718a.592.592,0,0,1,.384-.494,5.835,5.835,0,0,0,.571-.239.588.588,0,0,1,.252-.054.526.526,0,0,1,.367.132l.511.511a.917.917,0,0,0,1.3,0l.829-.83a.919.919,0,0,0,0-1.3l-.51-.511a.586.586,0,0,1-.076-.618,5.761,5.761,0,0,0,.238-.57.592.592,0,0,1,.495-.384h.718a.919.919,0,0,0,.918-.918V189.6A.92.92,0,0,0,346.311,188.682Zm-3.889,1.5a2.69,2.69,0,1,1-2.691-2.691A2.694,2.694,0,0,1,342.423,190.187Z" transform="translate(-327.441 -177.896)" fill="#fff"/>
      <path id="Path_19260" data-name="Path 19260" d="M332.257,180.88a.147.147,0,0,1,.1-.09h.359a.613.613,0,0,0,.612-.613v-.586a.613.613,0,0,0-.612-.612h-.359a.15.15,0,0,1-.1-.09,2.979,2.979,0,0,0-.126-.3.146.146,0,0,1,.009-.134l.256-.255a.613.613,0,0,0,0-.866l-.415-.415a.613.613,0,0,0-.866,0l-.256.256a.118.118,0,0,1-.074.021.137.137,0,0,1-.059-.012,3.147,3.147,0,0,0-.3-.126.149.149,0,0,1-.09-.1V176.6a.613.613,0,0,0-.612-.613h-.587a.613.613,0,0,0-.612.613v.359a.149.149,0,0,1-.09.1,3.073,3.073,0,0,0-.3.126.148.148,0,0,1-.059.012.118.118,0,0,1-.074-.021l-.256-.256a.614.614,0,0,0-.866,0l-.415.415a.614.614,0,0,0,0,.866l.256.256a.147.147,0,0,1,.009.134,2.979,2.979,0,0,0-.126.3.15.15,0,0,1-.1.09h-.359a.613.613,0,0,0-.612.612v.587a.613.613,0,0,0,.612.612h.359a.15.15,0,0,1,.1.09,2.981,2.981,0,0,0,.126.3.147.147,0,0,1-.009.134l-.256.256a.612.612,0,0,0,0,.866l.415.415a.614.614,0,0,0,.866,0L328,182.6a.118.118,0,0,1,.074-.021.137.137,0,0,1,.059.012,3.158,3.158,0,0,0,.3.126.149.149,0,0,1,.09.1v.36a.613.613,0,0,0,.612.613h.587a.613.613,0,0,0,.612-.613v-.359a.149.149,0,0,1,.09-.1,3.151,3.151,0,0,0,.3-.126.137.137,0,0,1,.059-.012.118.118,0,0,1,.074.021l.256.256a.612.612,0,0,0,.866,0l.415-.415a.613.613,0,0,0,0-.866l-.256-.255a.148.148,0,0,1-.009-.134A3.051,3.051,0,0,0,332.257,180.88Zm-1.635-1a1.192,1.192,0,1,1-1.192-1.192A1.193,1.193,0,0,1,330.622,179.884Z" transform="translate(-325.528 -175.983)" fill="#fff"/>
    </g>
    <line id="Line_64" data-name="Line 64" x2="23.589" transform="translate(222.729 265.288)" fill="none" stroke="#c6d4e2" stroke-miterlimit="10" stroke-width="1"/>
    <line id="Line_65" data-name="Line 65" x2="23.589" transform="translate(222.729 268.147)" fill="none" stroke="#c6d4e2" stroke-miterlimit="10" stroke-width="1"/>
    <line id="Line_66" data-name="Line 66" x2="20.73" transform="translate(222.729 271.006)" fill="none" stroke="#c6d4e2" stroke-miterlimit="10" stroke-width="1"/>
    <line id="Line_67" data-name="Line 67" x2="27.878" transform="translate(222.729 273.865)" fill="none" stroke="#c6d4e2" stroke-miterlimit="10" stroke-width="1"/>
    <line id="Line_68" data-name="Line 68" x2="26.448" transform="translate(222.729 276.725)" fill="none" stroke="#c6d4e2" stroke-miterlimit="10" stroke-width="1"/>
    <line id="Line_69" data-name="Line 69" x2="30.737" transform="translate(222.729 279.584)" fill="none" stroke="#c6d4e2" stroke-miterlimit="10" stroke-width="1"/>
    <line id="Line_70" data-name="Line 70" x2="23.589" transform="translate(294.926 265.288)" fill="none" stroke="#c6d4e2" stroke-miterlimit="10" stroke-width="1"/>
    <line id="Line_71" data-name="Line 71" x2="23.589" transform="translate(294.926 268.147)" fill="none" stroke="#c6d4e2" stroke-miterlimit="10" stroke-width="1"/>
    <line id="Line_72" data-name="Line 72" x2="27.878" transform="translate(294.926 271.006)" fill="none" stroke="#c6d4e2" stroke-miterlimit="10" stroke-width="1"/>
    <line id="Line_73" data-name="Line 73" x2="30.737" transform="translate(294.926 273.865)" fill="none" stroke="#c6d4e2" stroke-miterlimit="10" stroke-width="1"/>
    <line id="Line_74" data-name="Line 74" x2="26.448" transform="translate(294.926 276.725)" fill="none" stroke="#c6d4e2" stroke-miterlimit="10" stroke-width="1"/>
    <line id="Line_75" data-name="Line 75" x2="30.737" transform="translate(294.926 279.584)" fill="none" stroke="#c6d4e2" stroke-miterlimit="10" stroke-width="1"/>
    <line id="Line_76" data-name="Line 76" x2="30.737" transform="translate(258.47 265.288)" fill="none" stroke="#c6d4e2" stroke-miterlimit="10" stroke-width="1"/>
    <line id="Line_77" data-name="Line 77" x2="27.163" transform="translate(258.47 268.147)" fill="none" stroke="#c6d4e2" stroke-miterlimit="10" stroke-width="1"/>
    <line id="Line_78" data-name="Line 78" x2="20.73" transform="translate(258.47 271.006)" fill="none" stroke="#c6d4e2" stroke-miterlimit="10" stroke-width="1"/>
    <line id="Line_79" data-name="Line 79" x2="30.737" transform="translate(258.47 273.865)" fill="none" stroke="#c6d4e2" stroke-miterlimit="10" stroke-width="1"/>
    <line id="Line_80" data-name="Line 80" x2="30.737" transform="translate(258.47 276.725)" fill="none" stroke="#c6d4e2" stroke-miterlimit="10" stroke-width="1"/>
    <line id="Line_81" data-name="Line 81" x2="30.737" transform="translate(258.47 279.584)" fill="none" stroke="#c6d4e2" stroke-miterlimit="10" stroke-width="1"/>
    <line id="Line_82" data-name="Line 82" x2="29.308" transform="translate(120.51 391.81)" fill="none" stroke="#c6d4e2" stroke-miterlimit="10" stroke-width="1"/>
    <line id="Line_83" data-name="Line 83" x2="29.308" transform="translate(120.51 394.67)" fill="none" stroke="#c6d4e2" stroke-miterlimit="10" stroke-width="1"/>
    <line id="Line_84" data-name="Line 84" x2="29.308" transform="translate(120.51 397.529)" fill="none" stroke="#c6d4e2" stroke-miterlimit="10" stroke-width="1"/>
    <line id="Line_85" data-name="Line 85" x2="29.308" transform="translate(120.51 400.388)" fill="none" stroke="#c6d4e2" stroke-miterlimit="10" stroke-width="1"/>
    <line id="Line_86" data-name="Line 86" x2="29.308" transform="translate(120.51 403.247)" fill="none" stroke="#c6d4e2" stroke-miterlimit="10" stroke-width="1"/>
    <line id="Line_87" data-name="Line 87" x2="29.308" transform="translate(120.51 406.107)" fill="none" stroke="#c6d4e2" stroke-miterlimit="10" stroke-width="1"/>
    <line id="Line_88" data-name="Line 88" x2="29.308" transform="translate(120.51 408.966)" fill="none" stroke="#c6d4e2" stroke-miterlimit="10" stroke-width="1"/>
    <line id="Line_89" data-name="Line 89" x2="29.308" transform="translate(120.51 411.825)" fill="none" stroke="#c6d4e2" stroke-miterlimit="10" stroke-width="1"/>
    <line id="Line_90" data-name="Line 90" x2="29.308" transform="translate(120.51 414.685)" fill="none" stroke="#c6d4e2" stroke-miterlimit="10" stroke-width="1"/>
    <line id="Line_91" data-name="Line 91" x2="25.019" transform="translate(71.188 100.165)" fill="none" stroke="#c6d4e2" stroke-miterlimit="10" stroke-width="1"/>
    <line id="Line_92" data-name="Line 92" x2="25.019" transform="translate(71.188 103.024)" fill="none" stroke="#c6d4e2" stroke-miterlimit="10" stroke-width="1"/>
    <line id="Line_93" data-name="Line 93" x2="25.019" transform="translate(71.188 105.883)" fill="none" stroke="#c6d4e2" stroke-miterlimit="10" stroke-width="1"/>
    <line id="Line_94" data-name="Line 94" x2="25.019" transform="translate(71.188 108.743)" fill="none" stroke="#c6d4e2" stroke-miterlimit="10" stroke-width="1"/>
    <line id="Line_95" data-name="Line 95" x2="25.019" transform="translate(71.188 111.602)" fill="none" stroke="#c6d4e2" stroke-miterlimit="10" stroke-width="1"/>
    <line id="Line_96" data-name="Line 96" x2="25.019" transform="translate(71.188 114.461)" fill="none" stroke="#c6d4e2" stroke-miterlimit="10" stroke-width="1"/>
    <line id="Line_97" data-name="Line 97" x2="25.019" transform="translate(71.188 117.32)" fill="none" stroke="#c6d4e2" stroke-miterlimit="10" stroke-width="1"/>
    <line id="Line_98" data-name="Line 98" x2="25.019" transform="translate(71.188 120.18)" fill="none" stroke="#c6d4e2" stroke-miterlimit="10" stroke-width="1"/>
    <line id="Line_99" data-name="Line 99" x2="25.019" transform="translate(71.188 123.039)" fill="none" stroke="#c6d4e2" stroke-miterlimit="10" stroke-width="1"/>
    <line id="Line_100" data-name="Line 100" x2="22.874" transform="translate(99.78 100.165)" fill="none" stroke="#c6d4e2" stroke-miterlimit="10" stroke-width="1"/>
    <line id="Line_101" data-name="Line 101" x2="22.874" transform="translate(99.78 103.024)" fill="none" stroke="#c6d4e2" stroke-miterlimit="10" stroke-width="1"/>
    <line id="Line_102" data-name="Line 102" x2="22.874" transform="translate(99.78 105.883)" fill="none" stroke="#c6d4e2" stroke-miterlimit="10" stroke-width="1"/>
    <line id="Line_103" data-name="Line 103" x2="22.874" transform="translate(99.78 108.743)" fill="none" stroke="#c6d4e2" stroke-miterlimit="10" stroke-width="1"/>
    <line id="Line_104" data-name="Line 104" x2="22.874" transform="translate(99.78 111.602)" fill="none" stroke="#c6d4e2" stroke-miterlimit="10" stroke-width="1"/>
    <line id="Line_105" data-name="Line 105" x2="22.874" transform="translate(99.78 114.461)" fill="none" stroke="#c6d4e2" stroke-miterlimit="10" stroke-width="1"/>
    <line id="Line_106" data-name="Line 106" x2="22.874" transform="translate(99.78 117.32)" fill="none" stroke="#c6d4e2" stroke-miterlimit="10" stroke-width="1"/>
    <line id="Line_107" data-name="Line 107" x2="22.874" transform="translate(99.78 120.18)" fill="none" stroke="#c6d4e2" stroke-miterlimit="10" stroke-width="1"/>
    <line id="Line_108" data-name="Line 108" x2="22.874" transform="translate(99.78 123.039)" fill="none" stroke="#c6d4e2" stroke-miterlimit="10" stroke-width="1"/>
    <line id="Line_109" data-name="Line 109" x2="35.741" transform="translate(373.556 413.255)" fill="none" stroke="#c6d4e2" stroke-miterlimit="10" stroke-width="1"/>
    <line id="Line_110" data-name="Line 110" x2="35.741" transform="translate(373.556 416.114)" fill="none" stroke="#c6d4e2" stroke-miterlimit="10" stroke-width="1"/>
    <line id="Line_111" data-name="Line 111" x2="35.741" transform="translate(373.556 418.973)" fill="none" stroke="#c6d4e2" stroke-miterlimit="10" stroke-width="1"/>
    <line id="Line_112" data-name="Line 112" x2="35.741" transform="translate(373.556 421.833)" fill="none" stroke="#c6d4e2" stroke-miterlimit="10" stroke-width="1"/>
    <line id="Line_113" data-name="Line 113" x2="35.741" transform="translate(373.556 424.692)" fill="none" stroke="#c6d4e2" stroke-miterlimit="10" stroke-width="1"/>
    <line id="Line_114" data-name="Line 114" x2="35.741" transform="translate(373.556 427.551)" fill="none" stroke="#c6d4e2" stroke-miterlimit="10" stroke-width="1"/>
    <line id="Line_115" data-name="Line 115" x2="35.741" transform="translate(373.556 430.41)" fill="none" stroke="#c6d4e2" stroke-miterlimit="10" stroke-width="1"/>
    <line id="Line_116" data-name="Line 116" x2="35.741" transform="translate(373.556 433.27)" fill="none" stroke="#c6d4e2" stroke-miterlimit="10" stroke-width="1"/>
    <line id="Line_117" data-name="Line 117" x2="35.741" transform="translate(373.556 436.129)" fill="none" stroke="#c6d4e2" stroke-miterlimit="10" stroke-width="1"/>
    <line id="Line_118" data-name="Line 118" x2="35.741" transform="translate(413.585 413.255)" fill="none" stroke="#c6d4e2" stroke-miterlimit="10" stroke-width="1"/>
    <line id="Line_119" data-name="Line 119" x2="35.741" transform="translate(413.585 416.114)" fill="none" stroke="#c6d4e2" stroke-miterlimit="10" stroke-width="1"/>
    <line id="Line_120" data-name="Line 120" x2="35.741" transform="translate(413.585 418.973)" fill="none" stroke="#c6d4e2" stroke-miterlimit="10" stroke-width="1"/>
    <line id="Line_121" data-name="Line 121" x2="35.741" transform="translate(413.585 421.833)" fill="none" stroke="#c6d4e2" stroke-miterlimit="10" stroke-width="1"/>
    <line id="Line_122" data-name="Line 122" x2="35.741" transform="translate(413.585 424.692)" fill="none" stroke="#c6d4e2" stroke-miterlimit="10" stroke-width="1"/>
    <line id="Line_123" data-name="Line 123" x2="35.741" transform="translate(413.585 427.551)" fill="none" stroke="#c6d4e2" stroke-miterlimit="10" stroke-width="1"/>
    <line id="Line_124" data-name="Line 124" x2="35.741" transform="translate(413.585 430.41)" fill="none" stroke="#c6d4e2" stroke-miterlimit="10" stroke-width="1"/>
    <line id="Line_125" data-name="Line 125" x2="35.741" transform="translate(413.585 433.27)" fill="none" stroke="#c6d4e2" stroke-miterlimit="10" stroke-width="1"/>
    <line id="Line_126" data-name="Line 126" x2="35.741" transform="translate(413.585 436.129)" fill="none" stroke="#c6d4e2" stroke-miterlimit="10" stroke-width="1"/>
    <line id="Line_127" data-name="Line 127" x2="35.741" transform="translate(453.615 413.255)" fill="none" stroke="#c6d4e2" stroke-miterlimit="10" stroke-width="1"/>
    <line id="Line_128" data-name="Line 128" x2="35.741" transform="translate(453.615 416.114)" fill="none" stroke="#c6d4e2" stroke-miterlimit="10" stroke-width="1"/>
    <line id="Line_129" data-name="Line 129" x2="35.741" transform="translate(453.615 418.973)" fill="none" stroke="#c6d4e2" stroke-miterlimit="10" stroke-width="1"/>
    <line id="Line_130" data-name="Line 130" x2="35.741" transform="translate(453.615 421.833)" fill="none" stroke="#c6d4e2" stroke-miterlimit="10" stroke-width="1"/>
    <line id="Line_131" data-name="Line 131" x2="35.741" transform="translate(453.615 424.692)" fill="none" stroke="#c6d4e2" stroke-miterlimit="10" stroke-width="1"/>
    <line id="Line_132" data-name="Line 132" x2="35.741" transform="translate(453.615 427.551)" fill="none" stroke="#c6d4e2" stroke-miterlimit="10" stroke-width="1"/>
    <line id="Line_133" data-name="Line 133" x2="35.741" transform="translate(453.615 430.41)" fill="none" stroke="#c6d4e2" stroke-miterlimit="10" stroke-width="1"/>
    <line id="Line_134" data-name="Line 134" x2="35.741" transform="translate(453.615 433.27)" fill="none" stroke="#c6d4e2" stroke-miterlimit="10" stroke-width="1"/>
    <line id="Line_135" data-name="Line 135" x2="35.741" transform="translate(453.615 436.129)" fill="none" stroke="#c6d4e2" stroke-miterlimit="10" stroke-width="1"/>
    <line id="Line_136" data-name="Line 136" x2="24.304" transform="translate(126.229 100.165)" fill="none" stroke="#c6d4e2" stroke-miterlimit="10" stroke-width="1"/>
    <line id="Line_137" data-name="Line 137" x2="24.304" transform="translate(126.229 103.024)" fill="none" stroke="#c6d4e2" stroke-miterlimit="10" stroke-width="1"/>
    <line id="Line_138" data-name="Line 138" x2="24.304" transform="translate(126.229 105.883)" fill="none" stroke="#c6d4e2" stroke-miterlimit="10" stroke-width="1"/>
    <line id="Line_139" data-name="Line 139" x2="24.304" transform="translate(126.229 108.743)" fill="none" stroke="#c6d4e2" stroke-miterlimit="10" stroke-width="1"/>
    <line id="Line_140" data-name="Line 140" x2="24.304" transform="translate(126.229 111.602)" fill="none" stroke="#c6d4e2" stroke-miterlimit="10" stroke-width="1"/>
    <line id="Line_141" data-name="Line 141" x2="24.304" transform="translate(126.229 114.461)" fill="none" stroke="#c6d4e2" stroke-miterlimit="10" stroke-width="1"/>
    <line id="Line_142" data-name="Line 142" x2="24.304" transform="translate(126.229 117.32)" fill="none" stroke="#c6d4e2" stroke-miterlimit="10" stroke-width="1"/>
    <line id="Line_143" data-name="Line 143" x2="24.304" transform="translate(126.229 120.18)" fill="none" stroke="#c6d4e2" stroke-miterlimit="10" stroke-width="1"/>
    <line id="Line_144" data-name="Line 144" x2="24.304" transform="translate(126.229 123.039)" fill="none" stroke="#c6d4e2" stroke-miterlimit="10" stroke-width="1"/>
    <line id="Line_145" data-name="Line 145" x2="27.878" transform="translate(90.488 418.973)" fill="none" stroke="#c6d4e2" stroke-miterlimit="10" stroke-width="1"/>
    <line id="Line_146" data-name="Line 146" x2="27.878" transform="translate(90.488 421.833)" fill="none" stroke="#c6d4e2" stroke-miterlimit="10" stroke-width="1"/>
    <line id="Line_147" data-name="Line 147" x2="27.878" transform="translate(90.488 424.692)" fill="none" stroke="#c6d4e2" stroke-miterlimit="10" stroke-width="1"/>
    <line id="Line_148" data-name="Line 148" x2="27.878" transform="translate(90.488 427.551)" fill="none" stroke="#c6d4e2" stroke-miterlimit="10" stroke-width="1"/>
    <line id="Line_149" data-name="Line 149" x2="27.878" transform="translate(90.488 430.41)" fill="none" stroke="#c6d4e2" stroke-miterlimit="10" stroke-width="1"/>
    <line id="Line_150" data-name="Line 150" x2="27.878" transform="translate(90.488 433.27)" fill="none" stroke="#c6d4e2" stroke-miterlimit="10" stroke-width="1"/>
    <line id="Line_151" data-name="Line 151" x2="27.878" transform="translate(90.488 436.129)" fill="none" stroke="#c6d4e2" stroke-miterlimit="10" stroke-width="1"/>
    <line id="Line_152" data-name="Line 152" x2="27.878" transform="translate(90.488 438.988)" fill="none" stroke="#c6d4e2" stroke-miterlimit="10" stroke-width="1"/>
    <line id="Line_153" data-name="Line 153" x2="27.878" transform="translate(90.488 441.848)" fill="none" stroke="#c6d4e2" stroke-miterlimit="10" stroke-width="1"/>
    <g id="Group_13385" data-name="Group 13385" transform="translate(199.816 335.409)">
      <g id="Group_13384" data-name="Group 13384">
        <path id="Path_19261" data-name="Path 19261" d="M274.531,494.149l5.806-7.32a12.7,12.7,0,0,0,4.23,3.355l-5.806,7.32a2.7,2.7,0,1,1-4.23-3.355Z" transform="translate(-273.946 -468.078)" fill="#99bbeb"/>
        <path id="Path_19262" data-name="Path 19262" d="M293.458,482.123a10.8,10.8,0,1,0-11.965-9.489A10.8,10.8,0,0,0,293.458,482.123Zm-9.283-9.8a8.1,8.1,0,1,1,8.973,7.117A8.107,8.107,0,0,1,284.175,472.324Z" transform="translate(-276.078 -460.597)" fill="#99bbeb"/>
        <path id="Path_19263" data-name="Path 19263" d="M302.5,472.469l-1.788.207a4.505,4.505,0,0,0-4.985-3.954l-.207-1.788A6.307,6.307,0,0,1,302.5,472.469Z" transform="translate(-280.098 -462.392)" fill="#99bbeb"/>
      </g>
    </g>
    <path id="Path_19264" data-name="Path 19264" d="M331.691,596.362a5.6,5.6,0,1,1,5.6,5.6A5.6,5.6,0,0,1,331.691,596.362Zm8.29,12.644a5.155,5.155,0,0,1,.9-6.553,7.141,7.141,0,0,0-1.22-.112h-4.749a7.175,7.175,0,0,0-7.166,7.167v5.81l.014.09.4.125a33.291,33.291,0,0,0,8.585,1.545v-2.651A6.168,6.168,0,0,1,339.98,609.006Zm12.768-7.047a5.6,5.6,0,1,0-5.6-5.6A5.6,5.6,0,0,0,352.748,601.959Zm2.375.382h-4.749a7.135,7.135,0,0,0-2.235.361,5.158,5.158,0,0,1,.646,6.3,6.168,6.168,0,0,1,3.233,5.42v2.641c.462.021.915.036,1.347.036a20.022,20.022,0,0,0,8.509-1.6l.374-.19h.04v-5.81A7.175,7.175,0,0,0,355.123,602.341Zm-14.212,4.122a3.472,3.472,0,1,0,3.472-3.472A3.472,3.472,0,0,0,340.911,606.464Zm4.944,3.708H342.91a4.451,4.451,0,0,0-4.445,4.446v3.6l.009.056.248.077a20.225,20.225,0,0,0,6.044.975,12.416,12.416,0,0,0,5.278-.991l.232-.118h.025v-3.6A4.45,4.45,0,0,0,345.855,610.172Z" transform="translate(-89.473 -162.309)" fill="#fff"/>
    <path id="Path_19265" data-name="Path 19265" d="M96.189,241.6C83.382,241.6,73,250.038,73,260.442s10.382,18.84,23.189,18.84a28.729,28.729,0,0,0,3.615-.228c4.981,4.981,10.926,5.874,16.675,6.005v-1.22c-3.1-1.52-5.8-4.29-5.8-7.456a8.758,8.758,0,0,1,.1-1.3c5.245-3.454,8.6-8.729,8.6-14.642C119.377,250.038,108.995,241.6,96.189,241.6Z" transform="translate(-33.293 -5.089)" fill="#fd907e"/>
    <path id="Path_19266" data-name="Path 19266" d="M108.829,259.853l-.895.31-.925-2.664a5.426,5.426,0,1,0-10.247,3.558l.925,2.665-.973.338a1.314,1.314,0,0,0-.753,1.3l3.533,10.173c.147.422.831.283,1.253.137l12.115-4.207c.422-.147.441-.252.295-.674l-3.533-10.173C109.477,260.2,109.252,259.706,108.829,259.853Zm-2.944,1.022-6.148,2.134-.925-2.664a3.262,3.262,0,1,1,6.148-2.135Z" transform="translate(-39.834 -8.538)" fill="#fff"/>
    <g id="Group_13386" data-name="Group 13386" transform="translate(420.091 191.207)">
      <path id="Path_19267" data-name="Path 19267" d="M592.56,272.35l-2.542-2.225-7.268,6.23a1.489,1.489,0,0,0,1.014.4h17.592a1.479,1.479,0,0,0,1.01-.4l-7.264-6.23Z" transform="translate(-582.286 -262.075)" fill="#fff"/>
      <path id="Path_19268" data-name="Path 19268" d="M602.372,259.262a1.48,1.48,0,0,0-1.014-.4H583.765a1.474,1.474,0,0,0-1.011.4l9.807,8.406Z" transform="translate(-582.287 -258.864)" fill="#fff"/>
      <path id="Path_19269" data-name="Path 19269" d="M582.1,260.667v12.194l7.094-6.028Z" transform="translate(-582.101 -259.378)" fill="#fff"/>
      <path id="Path_19270" data-name="Path 19270" d="M600.924,266.832l7.094,6.028v-12.2Z" transform="translate(-587.469 -259.376)" fill="#fff"/>
    </g>
  </g>
</svg>
