<svg xmlns="http://www.w3.org/2000/svg" viewBox="0 0 90 100" width="47" height="52"><style>.a{fill:#146CA4;}.b{fill:#FA8503;stroke-width:2;stroke:#FA8503;}</style><path d="M53.3 95c0 0.9-0.7 1.7-1.7 1.7H5C4.1 96.7 3.3 95.9 3.3 95V5C3.3 4.1 4.1 3.3 5 3.3h46.7C52.6 3.3 53.3 4.1 53.3 5v8.9c0 0.6 0.5 1.1 1.1 1.1h1.2c0.6 0 1.1-0.5 1.1-1.1V5c0-2.8-2.2-5-5-5H5C2.2 0 0 2.2 0 5v90c0 2.8 2.2 5 5 5h46.7c2.8 0 5-2.2 5-5v-9c0-0.6-0.5-1-1-1h-1.3c-0.6 0-1 0.5-1 1L53.3 95 53.3 95z" class="a"/><path d="M48.2 17.8v-4.1c0-0.9-0.7-1.7-1.7-1.7l0 0H11.1c-0.9 0-1.7 0.7-1.7 1.7l0 0v73c0 0.9 0.7 1.7 1.7 1.7l0 0h35.4c0.9 0 1.7-0.7 1.7-1.7l0 0v-5.6c0-0.6-0.5-1-1-1h-1.3c-0.5 0-1 0.4-1 1V85H12.8V15.3h32.1v2.4c0 0.5 0.4 0.9 0.9 0.9h1.5C47.8 18.7 48.2 18.3 48.2 17.8z" class="a"/><path d="M27 6h6.7c0.9 0 1.7 0.7 1.7 1.7l0 0c0 0.9-0.7 1.7-1.7 1.7H27c-0.9 0-1.7-0.7-1.7-1.7l0 0C25.3 6.7 26.1 6 27 6z" class="a"/><circle cx="20.3" cy="7.7" r="1.7" class="a"/><path d="M58.1 70.7l-2.8 1.8 1.5 2.2c-13.2-1.6-23.4-12.9-23.4-26.5 0-12.4 8.5-23.1 20.5-25.9 0.8-0.2 1.4-1 1.2-1.9l0 0c-0.2-0.9-1.1-1.6-2-1.3C39.6 22.4 30 34.4 30 48.3c0 15.5 11.9 28.3 27 29.8l-1.7 2.6 2.8 1.8 3.3-5c0.4-0.6 0.4-1.3 0-1.8L58.1 70.7z" class="a"/><path d="M63 18.5l1.7-2.6 -2.8-1.8 -3.3 5c-0.4 0.6-0.4 1.3 0 1.8l3.3 5 2.8-1.8 -1.5-2.2c13.2 1.6 23.4 12.9 23.4 26.5 0 12.4-8.5 23.1-20.5 25.9 -0.8 0.2-1.4 1-1.2 1.9l0 0c0.2 0.9 1.1 1.6 2 1.3C80.4 74.3 90 62.3 90 48.3 90 32.8 78.1 20 63 18.5z" class="a"/><path d="M77.1 38.8c-0.1-0.3-0.3-0.5-0.6-0.6 -0.3-0.1-0.6 0-0.8 0.2l-4.1 4.1c-0.2 0.2-0.5 0.2-0.7 0l-3.2-3.2c-0.2-0.2-0.2-0.5 0-0.7l4.1-4.1c0.2-0.2 0.3-0.5 0.2-0.8 -0.1-0.3-0.3-0.5-0.6-0.6 -2.8-0.8-5.8 0-7.9 2.1 -2.1 2.1-2.9 5.3-2 8.1l-3.4 3.4 -7.1-7.1c-0.2-0.2-0.5-0.3-0.8-0.3 -0.1 0-0.1 0-0.1-0.1 0-0.3-0.1-0.6-0.3-0.8l-3.5-3.5c-0.5-0.5-1.2-0.5-1.7 0l-1.8 1.8c-0.5 0.5-0.5 1.2 0 1.7l3.5 3.5c0.2 0.2 0.5 0.3 0.8 0.3 0.1 0 0.1 0 0.1 0.1 0 0.3 0.1 0.6 0.3 0.8l7.1 7.1L53.5 51.4c-0.2 0.2-0.2 0.5 0 0.7 0.1 0.1 0.2 0.2 0.4 0.2s0.3 0 0.4-0.1l8.1-8.1c0.2-0.2 0.3-0.5 0.2-0.8 -0.8-2.6-0.2-5.3 1.7-7.2 1.7-1.7 4.2-2.4 6.6-1.9l-3.9 3.9c-0.6 0.6-0.6 1.5 0 2.1l3.2 3.2c0.6 0.6 1.5 0.6 2.1 0l3.9-3.9c0.4 2 0 4-1.1 5.6 -0.2 0.2-0.1 0.5 0.1 0.7 0.2 0.2 0.5 0.1 0.7-0.1C77.3 43.7 77.7 41.2 77.1 38.8L77.1 38.8zM48.2 42.4c0 0 0 0 0-0.1 0-0.3-0.1-0.6-0.3-0.8 -0.2-0.2-0.5-0.3-0.8-0.3 0 0-0.1 0-0.1 0l-3.5-3.5c-0.1-0.1-0.1-0.2 0-0.2l1.8-1.8c0.1-0.1 0.2-0.1 0.2 0l3.5 3.5c0 0 0 0 0 0.1 0 0.3 0.1 0.6 0.3 0.8 0.2 0.2 0.5 0.3 0.8 0.3 0 0 0.1 0 0.1 0l7.1 7.1 -2 2L48.2 42.4z" class="b"/><path d="M66.8 48.7c2.5 0.8 5.2 0.3 7.3-1.2 0.2-0.2 0.3-0.5 0.1-0.7 -0.2-0.2-0.5-0.3-0.7-0.1 -1.8 1.4-4.2 1.8-6.4 1.1 -0.3-0.1-0.6 0-0.8 0.2L54.4 59.7c-0.1 0.1-0.2 0.2-0.3 0.2l-1.5 0.9c-0.6 0.4-1.1 1-1.2 1.7 -0.1 0.3-0.2 0.5-0.4 0.7l-2.1 2.1c-0.1 0.1-0.1 0.1-0.2 0l-3.7-3.7c-0.1-0.1-0.1-0.1 0-0.2l2.1-2.1c0.2-0.2 0.5-0.3 0.7-0.4l0 0c0.7-0.2 1.3-0.6 1.7-1.2l0.9-1.6c0.1-0.1 0.2-0.2 0.2-0.3l2-2c0.2-0.2 0.2-0.5 0-0.7 -0.2-0.2-0.5-0.2-0.7 0l-2 2c-0.2 0.2-0.3 0.4-0.4 0.6l-0.9 1.6c-0.2 0.4-0.6 0.6-1 0.7l0 0c-0.5 0.1-0.9 0.3-1.2 0.7l-2.1 2.1c-0.5 0.5-0.5 1.2 0 1.6l3.7 3.7c0.5 0.5 1.2 0.5 1.6 0l2.1-2.1c0.3-0.3 0.6-0.8 0.7-1.2 0.1-0.4 0.4-0.8 0.7-1l1.5-0.9c0.2-0.1 0.4-0.3 0.6-0.4l4.9-4.9 1.2 1.2c-0.2 0.3-0.3 0.6-0.3 0.9 0 0.4 0.2 0.8 0.4 1.1l4.7 4.7c0.8 0.8 1.7 1.5 2.8 1.9 0.3 0.1 0.6 0 0.7-0.2 0.1-0.3 0-0.6-0.2-0.7 -0.9-0.4-1.8-1-2.5-1.7l-4.7-4.7c-0.1-0.1-0.1-0.2-0.1-0.4 0-0.1 0.1-0.3 0.2-0.4l3.2-3.2c0.1-0.1 0.2-0.1 0.4-0.1 0.1 0 0.3 0.1 0.4 0.2l4.7 4.7c1.1 1.1 1.9 2.5 2.3 4.1 0.1 0.3 0.3 0.8 0 1l-1.1 1.1c-0.1 0.1-0.3 0.2-0.5 0.1 -0.3-0.1-0.6 0.1-0.6 0.4 -0.1 0.3 0.1 0.6 0.4 0.6 0.5 0.1 1.1 0 1.4-0.4l1.1-1.1c0.6-0.5 0.5-1.3 0.3-2 -0.4-1.7-1.3-3.3-2.6-4.5l-4.7-4.7c-0.3-0.3-0.7-0.4-1.1-0.4 -0.3 0-0.6 0.1-0.9 0.3l-1.2-1.2L66.8 48.7zM64 54.1l-2 2 -1.2-1.2 2-2L64 54.1z" class="b"/></svg>
