<svg xmlns="http://www.w3.org/2000/svg" width="70" height="70" viewBox="0 0 70 70">
  <g id="_5" data-name="5" transform="translate(-301 -2384)">
    <circle id="Ellipse_221" data-name="Ellipse 221" cx="35" cy="35" r="35" transform="translate(301 2384)" fill="#43c7d2"/>
    <g id="_005-browser-1" data-name="005-browser-1" transform="translate(319 2362.333)">
      <g id="Group_10092" data-name="Group 10092" transform="translate(0 42.667)">
        <g id="Group_10091" data-name="Group 10091" transform="translate(0 0)">
          <path id="Path_16238" data-name="Path 16238" d="M30.725,42.667H2.793A2.8,2.8,0,0,0,0,45.46V67.806A2.8,2.8,0,0,0,2.793,70.6H30.725a2.8,2.8,0,0,0,2.793-2.793V45.46A2.8,2.8,0,0,0,30.725,42.667ZM32.4,48.253H30.167a.559.559,0,1,0,0,1.117H32.4V67.806a1.678,1.678,0,0,1-1.676,1.676H2.793a1.678,1.678,0,0,1-1.676-1.676V49.371h25.7a.559.559,0,0,0,0-1.117H1.117V45.46a1.678,1.678,0,0,1,1.676-1.676H30.725A1.678,1.678,0,0,1,32.4,45.46v2.793Z" transform="translate(0 -42.667)" fill="#fff"/>
          <path id="Path_16239" data-name="Path 16239" d="M43.784,85.333h-.559a.559.559,0,0,0,0,1.117h.559a.559.559,0,0,0,0-1.117Z" transform="translate(-39.874 -82.54)" fill="#fff"/>
          <path id="Path_16240" data-name="Path 16240" d="M86.451,85.333h-.559a.559.559,0,0,0,0,1.117h.559a.559.559,0,0,0,0-1.117Z" transform="translate(-79.748 -82.54)" fill="#fff"/>
          <path id="Path_16241" data-name="Path 16241" d="M136.42,167.146a.534.534,0,0,0-.051-.105,8.953,8.953,0,0,0-7.325-4.874.606.606,0,0,0-.06-.012l-.581-.022h-.022l-.251.01c-.117,0-.235,0-.346.013a8.945,8.945,0,0,0-7.355,4.892.537.537,0,0,0-.039.085,8.628,8.628,0,0,0-.836,5.13.547.547,0,0,0,.017.118,8.952,8.952,0,0,0,8.206,7.6l.049,0h0c.189.015.379.023.574.023s.4-.017.6-.03a.551.551,0,0,0,.083,0,8.942,8.942,0,0,0,8.151-7.592.544.544,0,0,0,.018-.117,8.632,8.632,0,0,0-.832-5.12Zm-1.176.145a7.055,7.055,0,0,1-2.714,1.877,12.826,12.826,0,0,0-2.249-5.679A7.844,7.844,0,0,1,135.245,167.29Zm-3.7,3.781a12.213,12.213,0,0,1-.492,3.41,12.453,12.453,0,0,1-5.308,0,12.218,12.218,0,0,1-.49-3.41c0-.132.015-.26.019-.391a12.7,12.7,0,0,0,6.252,0C131.533,170.811,131.548,170.94,131.548,171.071Zm-3.453-7.809.3-.012h.029c.1,0,.195.011.292.015a12.175,12.175,0,0,1,1.856,3.014,11.934,11.934,0,0,1,.867,3.258,11.338,11.338,0,0,1-6.081,0,11.931,11.931,0,0,1,.867-3.258A12.178,12.178,0,0,1,128.1,163.262Zm-1.569.219a13.227,13.227,0,0,0-1.324,2.359,13.033,13.033,0,0,0-.927,3.327,7.061,7.061,0,0,1-2.71-1.871A7.825,7.825,0,0,1,126.526,163.481Zm-5.944,7.59a7.76,7.76,0,0,1,.48-2.672,8.593,8.593,0,0,0,3.1,1.93c-.013.246-.021.493-.021.742a13.339,13.339,0,0,0,.369,3.068,11.992,11.992,0,0,1-3.87-2.164A7.8,7.8,0,0,1,120.582,171.071Zm.456,2.6a13.082,13.082,0,0,0,3.841,1.747,13.129,13.129,0,0,0,1.646,3.239A7.852,7.852,0,0,1,121.038,173.669Zm7.674,5.207c-.1,0-.2.016-.308.016s-.2-.008-.3-.012a11.978,11.978,0,0,1-1.923-3.176,13.251,13.251,0,0,0,4.444,0A11.986,11.986,0,0,1,128.711,178.877Zm1.571-.222a13.126,13.126,0,0,0,1.645-3.238,13.1,13.1,0,0,0,3.844-1.75A7.84,7.84,0,0,1,130.283,178.655Zm5.885-6.681a11.99,11.99,0,0,1-3.872,2.165,13.34,13.34,0,0,0,.369-3.068c0-.249-.008-.5-.021-.742a8.6,8.6,0,0,0,3.1-1.93A7.568,7.568,0,0,1,136.168,171.974Z" transform="translate(-111.644 -154.312)" fill="#fff"/>
        </g>
      </g>
    </g>
  </g>
</svg>
