<svg xmlns="http://www.w3.org/2000/svg" width="71" height="73" viewBox="0 0 71 73">
  <g id="Group_10143" data-name="Group 10143" transform="translate(-179 90)">
    <rect id="Rectangle_1385" data-name="Rectangle 1385" width="71" height="73" rx="12" transform="translate(179 -90)" fill="#f9c201" opacity="0.1"/>
    <g id="_001-coding" data-name="001-coding" transform="translate(195 -71.011)">
      <g id="Group_10083" data-name="Group 10083" transform="translate(1 0.011)">
        <g id="Group_10082" data-name="Group 10082" transform="translate(0 0)">
          <path id="Path_16187" data-name="Path 16187" d="M38.186,4.467A1.923,1.923,0,0,0,36.327,2.49h-10.6A3.1,3.1,0,0,0,22.692.011H7.2A3.1,3.1,0,0,0,4.162,2.49H2.86A1.923,1.923,0,0,0,1,4.467V30.261A1.923,1.923,0,0,0,2.86,32.238H14.843l-1.271,3.719h-.8a.62.62,0,1,0,0,1.239H26.411a.62.62,0,1,0,0-1.239h-.8l-1.271-3.719H36.327a1.923,1.923,0,0,0,1.859-1.977V4.467ZM5.339,3.11A1.861,1.861,0,0,1,7.2,1.251H22.692A1.861,1.861,0,0,1,24.551,3.11v9.3a1.861,1.861,0,0,1-1.859,1.859H12.776a.62.62,0,0,0-.438.182l-3.28,3.28V14.885a.62.62,0,0,0-.62-.62h-.62a2.482,2.482,0,0,1-2.479-2.479V3.11Zm9.543,32.847,1.271-3.719h6.88L24.3,35.957ZM36.327,31H2.86a.7.7,0,0,1-.62-.737V27.28H36.947v2.981A.7.7,0,0,1,36.327,31Zm.62-26.532V26.041H2.24V4.467a.7.7,0,0,1,.62-.737H4.1v8.057A3.723,3.723,0,0,0,7.818,15.5v3.1H7.2a.62.62,0,1,0,0,1.239h8.057a.62.62,0,0,0,0-1.239H9.934l3.1-3.1h9.659a3.1,3.1,0,0,0,3.1-3.1V3.73H36.327A.7.7,0,0,1,36.946,4.467Z" transform="translate(-1 -0.011)" fill="#f9c201"/>
          <path id="Path_16188" data-name="Path 16188" d="M89.006,65.8a.62.62,0,0,0,.876-.876l-2.041-2.041,2.041-2.041a.62.62,0,0,0-.876-.876l-2.479,2.479a.619.619,0,0,0,0,.876Z" transform="translate(-80.147 -55.442)" fill="#f9c201"/>
          <path id="Path_16189" data-name="Path 16189" d="M155.231,64.083a.62.62,0,0,0,.62-.62v-3.1a.62.62,0,0,0-1.239,0v3.1A.62.62,0,0,0,155.231,64.083Z" transform="translate(-143.455 -55.407)" fill="#f9c201"/>
          <path id="Path_16190" data-name="Path 16190" d="M154.662,128.928a.342.342,0,0,0,.056.105.589.589,0,0,0,.074.1.72.72,0,0,0,.2.13.62.62,0,0,0,.236.05.653.653,0,0,0,.44-.18c.025-.031.05-.062.074-.1a.342.342,0,0,0,.056-.105.4.4,0,0,0,.037-.112.861.861,0,0,0,.012-.124.652.652,0,0,0-.18-.44.643.643,0,0,0-.676-.13.714.714,0,0,0-.2.13.651.651,0,0,0-.18.44.8.8,0,0,0,.012.124A.388.388,0,0,0,154.662,128.928Z" transform="translate(-143.456 -118.776)" fill="#f9c201"/>
          <path id="Path_16191" data-name="Path 16191" d="M189.365,95.117h1.859a.62.62,0,1,0,0-1.239h-1.859a.62.62,0,1,0,0,1.239Z" transform="translate(-175.11 -87.061)" fill="#f9c201"/>
          <path id="Path_16192" data-name="Path 16192" d="M249.1,95.117h1.859a.62.62,0,0,0,0-1.239H249.1a.62.62,0,0,0,0,1.239Z" transform="translate(-230.504 -87.061)" fill="#f9c201"/>
          <path id="Path_16193" data-name="Path 16193" d="M36.384,256.011h-.62a.62.62,0,1,0,0,1.239h.62a.62.62,0,1,0,0-1.239Z" transform="translate(-32.665 -237.418)" fill="#f9c201"/>
          <path id="Path_16194" data-name="Path 16194" d="M36.384,290.144h-.62a.62.62,0,0,0,0,1.239h.62a.62.62,0,0,0,0-1.239Z" transform="translate(-32.665 -269.072)" fill="#f9c201"/>
          <path id="Path_16195" data-name="Path 16195" d="M36.384,324.278h-.62a.62.62,0,1,0,0,1.239h.62a.62.62,0,1,0,0-1.239Z" transform="translate(-32.665 -300.727)" fill="#f9c201"/>
          <path id="Path_16196" data-name="Path 16196" d="M223.5,257.251h4.338a.62.62,0,1,0,0-1.239H223.5a.62.62,0,1,0,0,1.239Z" transform="translate(-206.764 -237.419)" fill="#f9c201"/>
          <path id="Path_16197" data-name="Path 16197" d="M317.365,257.251h1.859a.62.62,0,1,0,0-1.239h-1.859a.62.62,0,0,0,0,1.239Z" transform="translate(-293.813 -237.419)" fill="#f9c201"/>
          <path id="Path_16198" data-name="Path 16198" d="M377.1,257.251h2.479a.62.62,0,1,0,0-1.239H377.1a.62.62,0,1,0,0,1.239Z" transform="translate(-349.208 -237.419)" fill="#f9c201"/>
          <path id="Path_16199" data-name="Path 16199" d="M446.6,256.011h-1.24a.62.62,0,1,0,0,1.239h1.24a.62.62,0,1,0,0-1.239Z" transform="translate(-412.516 -237.418)" fill="#f9c201"/>
          <path id="Path_16200" data-name="Path 16200" d="M104.031,291.384h3.719a.62.62,0,0,0,0-1.239h-3.719a.62.62,0,1,0,0,1.239Z" transform="translate(-95.973 -269.073)" fill="#f9c201"/>
          <path id="Path_16201" data-name="Path 16201" d="M193.083,290.765a.62.62,0,0,0-.62-.62h-3.1a.62.62,0,1,0,0,1.239h3.1A.62.62,0,0,0,193.083,290.765Z" transform="translate(-175.11 -269.073)" fill="#f9c201"/>
          <path id="Path_16202" data-name="Path 16202" d="M269.263,290.765a.62.62,0,0,0-.62-.62h-2.479a.62.62,0,1,0,0,1.239h2.479A.62.62,0,0,0,269.263,290.765Z" transform="translate(-246.332 -269.073)" fill="#f9c201"/>
          <path id="Path_16203" data-name="Path 16203" d="M338.149,290.765a.62.62,0,0,0-.62-.62h-3.1a.62.62,0,1,0,0,1.239h3.1A.62.62,0,0,0,338.149,290.765Z" transform="translate(-309.64 -269.073)" fill="#f9c201"/>
          <path id="Path_16204" data-name="Path 16204" d="M414.949,290.144h-3.719a.62.62,0,1,0,0,1.239h3.719a.62.62,0,0,0,0-1.239Z" transform="translate(-380.862 -269.072)" fill="#f9c201"/>
          <path id="Path_16205" data-name="Path 16205" d="M80.91,324.278H78.431a.62.62,0,1,0,0,1.239H80.91a.62.62,0,0,0,0-1.239Z" transform="translate(-72.232 -300.727)" fill="#f9c201"/>
          <path id="Path_16206" data-name="Path 16206" d="M149.177,324.278H146.7a.62.62,0,1,0,0,1.239h2.479a.62.62,0,1,0,0-1.239Z" transform="translate(-135.541 -300.727)" fill="#f9c201"/>
          <path id="Path_16207" data-name="Path 16207" d="M218.063,324.278h-3.1a.62.62,0,1,0,0,1.239h3.1a.62.62,0,1,0,0-1.239Z" transform="translate(-198.849 -300.727)" fill="#f9c201"/>
          <path id="Path_16208" data-name="Path 16208" d="M293.624,324.278h-1.859a.62.62,0,1,0,0,1.239h1.859a.62.62,0,0,0,0-1.239Z" transform="translate(-270.073 -300.727)" fill="#f9c201"/>
          <path id="Path_16209" data-name="Path 16209" d="M355.216,324.278H351.5a.62.62,0,0,0,0,1.239h3.719a.62.62,0,1,0,0-1.239Z" transform="translate(-325.467 -300.727)" fill="#f9c201"/>
          <path id="Path_16210" data-name="Path 16210" d="M438.69,324.278h-1.859a.62.62,0,1,0,0,1.239h1.859a.62.62,0,1,0,0-1.239Z" transform="translate(-404.603 -300.727)" fill="#f9c201"/>
        </g>
      </g>
    </g>
  </g>
</svg>
