<svg xmlns="http://www.w3.org/2000/svg" width="70" height="70" viewBox="0 0 70 70">
  <g id="_2" data-name="2" transform="translate(-301 -1994)">
    <circle id="Ellipse_221" data-name="Ellipse 221" cx="35" cy="35" r="35" transform="translate(301 1994)" fill="#f96e9b"/>
    <g id="Page-1" transform="translate(321.001 2014)">
      <g id="_033---UI-Data-Information" data-name="033---UI-Data-Information" transform="translate(-0.001)">
        <path id="Shape" d="M29.86,0H2.518A1.57,1.57,0,0,0,1,1.616V28.763a1.57,1.57,0,0,0,1.519,1.616H29.86a1.57,1.57,0,0,0,1.519-1.616V1.616A1.57,1.57,0,0,0,29.86,0ZM2.518,1.013H29.86a.569.569,0,0,1,.506.6V4.051H2.012V1.616a.569.569,0,0,1,.506-.6ZM29.86,29.367H2.518a.569.569,0,0,1-.506-.6V5.063H30.366v23.7A.562.562,0,0,1,29.86,29.367Z" transform="translate(-0.999)" fill="#fff"/>
        <circle id="Oval" cx="1.5" cy="1.5" r="1.5" transform="translate(1.19 1.19)" fill="#fff"/>
        <ellipse id="Oval-2" data-name="Oval" cx="0.5" cy="1.5" rx="0.5" ry="1.5" transform="translate(4.19 1.19)" fill="#fff"/>
        <ellipse id="Oval-3" data-name="Oval" cx="0.5" cy="1.5" rx="0.5" ry="1.5" transform="translate(6.19 1.19)" fill="#fff"/>
        <path id="Shape-2" data-name="Shape" d="M48.506,5.013h3.544a.506.506,0,0,0,0-1.013H48.506a.506.506,0,1,0,0,1.013Z" transform="translate(-24.202 -1.975)" fill="#fff"/>
        <path id="Shape-3" data-name="Shape" d="M13.076,17.57a1.013,1.013,0,0,0,1.013-1.013V13.013A1.013,1.013,0,0,0,13.076,12H8.013A1.013,1.013,0,0,0,7,13.013v3.544A1.013,1.013,0,0,0,8.013,17.57ZM8.013,13.013h5.063v3.544H8.013Z" transform="translate(-3.961 -5.924)" fill="#fff"/>
        <path id="Shape-4" data-name="Shape" d="M25.013,17.57h5.063a1.013,1.013,0,0,0,1.013-1.013V13.013A1.013,1.013,0,0,0,30.076,12H25.013A1.013,1.013,0,0,0,24,13.013v3.544A1.013,1.013,0,0,0,25.013,17.57Zm0-4.557h5.063v3.544H25.013Z" transform="translate(-12.354 -5.924)" fill="#fff"/>
        <path id="Shape-5" data-name="Shape" d="M47.076,12H42.013A1.013,1.013,0,0,0,41,13.013v3.544a1.013,1.013,0,0,0,1.013,1.013h5.063a1.013,1.013,0,0,0,1.013-1.013V13.013A1.013,1.013,0,0,0,47.076,12Zm-5.063,4.557V13.013h5.063v3.544Z" transform="translate(-20.746 -5.924)" fill="#fff"/>
        <path id="Shape-6" data-name="Shape" d="M13.57,25H8.506a.506.506,0,1,0,0,1.013H13.57a.506.506,0,0,0,0-1.013Z" transform="translate(-4.455 -12.342)" fill="#fff"/>
        <path id="Shape-7" data-name="Shape" d="M13.57,29H8.506a.506.506,0,0,0,0,1.013H13.57a.506.506,0,0,0,0-1.013Z" transform="translate(-4.455 -14.317)" fill="#fff"/>
        <path id="Shape-8" data-name="Shape" d="M30.57,25H25.506a.506.506,0,0,0,0,1.013H30.57a.506.506,0,0,0,0-1.013Z" transform="translate(-12.847 -12.342)" fill="#fff"/>
        <path id="Shape-9" data-name="Shape" d="M30.57,29H25.506a.506.506,0,0,0,0,1.013H30.57a.506.506,0,0,0,0-1.013Z" transform="translate(-12.847 -14.317)" fill="#fff"/>
        <path id="Shape-10" data-name="Shape" d="M47.57,25H42.506a.506.506,0,1,0,0,1.013H47.57a.506.506,0,0,0,0-1.013Z" transform="translate(-21.24 -12.342)" fill="#fff"/>
        <path id="Shape-11" data-name="Shape" d="M27.712,36.117c-.008-.008-.01-.019-.018-.026a.431.431,0,0,0-.042-.028,12,12,0,0,0-16.014,0,.431.431,0,0,0-.042.028c-.008.008-.01.018-.018.026A10.881,10.881,0,0,0,8,44.139a.506.506,0,0,0,.506.506H30.785a.506.506,0,0,0,.506-.506A10.881,10.881,0,0,0,27.712,36.117Zm-6.641,7.516H18.22a1.51,1.51,0,0,1,2.852,0Zm1.055,0a2.532,2.532,0,0,0-.977-1.519l2.5-5.356a.506.506,0,1,0-.917-.428l-2.5,5.354a2.5,2.5,0,0,0-.587-.076,2.536,2.536,0,0,0-2.481,2.025H9.026a9.856,9.856,0,0,1,2.931-6.466l1.255,1.255a.506.506,0,0,0,.716-.716l-1.219-1.22a10.863,10.863,0,0,1,6.43-2.449v2a.506.506,0,0,0,1.013,0v-2a10.863,10.863,0,0,1,6.43,2.449l-1.22,1.22a.506.506,0,1,0,.716.716l1.255-1.255a9.856,9.856,0,0,1,2.932,6.466Z" transform="translate(-4.455 -16.291)" fill="#fff"/>
        <path id="Shape-12" data-name="Shape" d="M47.57,29H42.506a.506.506,0,0,0,0,1.013H47.57a.506.506,0,0,0,0-1.013Z" transform="translate(-21.24 -14.317)" fill="#fff"/>
      </g>
    </g>
  </g>
</svg>
