<svg xmlns="http://www.w3.org/2000/svg" width="71" height="73" viewBox="0 0 71 73">
  <g id="Group_10145" data-name="Group 10145" transform="translate(-174 90)">
    <rect id="Rectangle_1387" data-name="Rectangle 1387" width="71" height="73" rx="12" transform="translate(174 -90)" fill="#fc5d5d" opacity="0.14"/>
    <g id="_005-coding" data-name="005-coding" transform="translate(194 -76.533)">
      <g id="Group_10071" data-name="Group 10071" transform="translate(-1 7.533)">
        <g id="Group_10070" data-name="Group 10070">
          <path id="Path_16177" data-name="Path 16177" d="M29.278,7.533H1.455A2.445,2.445,0,0,0-1,9.988V30.174a2.445,2.445,0,0,0,2.455,2.455h9.728a2.661,2.661,0,0,1-1.108,2.4l-.982.709a.651.651,0,0,0-.233.239,1.64,1.64,0,0,0,.506,3.2h12a1.638,1.638,0,0,0,.4-3.228.672.672,0,0,0-.179-.209l-.982-.709a2.633,2.633,0,0,1-1.088-2.4h9.762a2.445,2.445,0,0,0,2.455-2.455V9.988A2.445,2.445,0,0,0,29.278,7.533ZM.091,9.988A1.351,1.351,0,0,1,1.455,8.624H29.278a1.351,1.351,0,0,1,1.364,1.364v16.64H.091Zm21.277,28.1h-12a.546.546,0,1,1,0-1.091h12a.546.546,0,1,1,0,1.091ZM19.895,35.9H10.784a3.86,3.86,0,0,0,1.528-3.273h6.11A3.814,3.814,0,0,0,19.895,35.9Zm10.747-5.728a1.351,1.351,0,0,1-1.364,1.364H1.455A1.351,1.351,0,0,1,.091,30.174V27.719H30.642v2.455Z" transform="translate(1 -7.533)" fill="#f36290"/>
          <path id="Path_16178" data-name="Path 16178" d="M128.276,97.777l3.983-3.983a.54.54,0,0,0-.764-.764L127.13,97.4a.5.5,0,0,0-.109.6.752.752,0,0,0,.164.218l4.31,4.31a.527.527,0,0,0,.764,0,.527.527,0,0,0,0-.764Z" transform="translate(-118.783 -87.411)" fill="#f36290"/>
          <path id="Path_16179" data-name="Path 16179" d="M302.9,97.341l-4.31-4.31a.54.54,0,0,0-.764.764l3.983,3.983-3.983,3.983a.527.527,0,0,0,0,.764.527.527,0,0,0,.764,0l4.364-4.364a.5.5,0,0,0,.109-.6A.755.755,0,0,0,302.9,97.341Z" transform="translate(-278.572 -87.412)" fill="#f36290"/>
          <path id="Path_16180" data-name="Path 16180" d="M232.671,93.3a.518.518,0,0,0-.655.382l-2.182,8.729a.518.518,0,0,0,.382.655h.109a.542.542,0,0,0,.546-.382l2.182-8.729A.518.518,0,0,0,232.671,93.3Z" transform="translate(-215.049 -87.79)" fill="#f36290"/>
        </g>
      </g>
    </g>
  </g>
</svg>
