<svg xmlns="http://www.w3.org/2000/svg" width="71" height="73" viewBox="0 0 71 73">
  <g id="Hybrid_Angular_js_apps" data-name="Hybrid Angular js apps" transform="translate(-175 90)">
    <rect id="Rectangle_1382" data-name="Rectangle 1382" width="71" height="73" rx="12" transform="translate(175 -90)" fill="#3199dc" opacity="0.15"/>
    <g id="_004-app" data-name="004-app" transform="translate(198 -73)">
      <path id="Path_16211" data-name="Path 16211" d="M4.046,40.463H21.581a4.05,4.05,0,0,0,4.046-4.046V4.046A4.05,4.05,0,0,0,21.581,0H4.046A4.05,4.05,0,0,0,0,4.046V36.417a4.05,4.05,0,0,0,4.046,4.046Zm17.534-1.349H4.046a2.7,2.7,0,0,1-2.7-2.7V35.068H24.278v1.349a2.7,2.7,0,0,1-2.7,2.7ZM1.349,6.743H8.093V33.719H1.349Zm22.929,0V33.719H9.441V6.743ZM4.046,1.348h8.093V2.7a.674.674,0,1,0,1.349,0V1.348h8.093a2.7,2.7,0,0,1,2.7,2.7V5.395H1.349V4.046a2.7,2.7,0,0,1,2.7-2.7Zm0,0" fill="#3199dc"/>
      <path id="Path_16212" data-name="Path 16212" d="M132.721,460.8h-4.046a.674.674,0,1,0,0,1.349h4.046a.674.674,0,0,0,0-1.349Zm0,0" transform="translate(-117.884 -424.384)" fill="#3199dc"/>
      <path id="Path_16213" data-name="Path 16213" d="M34.807,103.747h2.7a.674.674,0,0,0,0-1.349h-2.7a.674.674,0,1,0,0,1.349Zm0,0" transform="translate(-31.435 -94.306)" fill="#3199dc"/>
      <path id="Path_16214" data-name="Path 16214" d="M37.5,162.133h-2.7a.674.674,0,1,0,0,1.349h2.7a.674.674,0,0,0,0-1.349Zm0,0" transform="translate(-31.435 -149.32)" fill="#3199dc"/>
      <path id="Path_16215" data-name="Path 16215" d="M37.5,196.266h-2.7a.674.674,0,1,0,0,1.349h2.7a.674.674,0,0,0,0-1.349Zm0,0" transform="translate(-31.435 -180.755)" fill="#3199dc"/>
      <path id="Path_16216" data-name="Path 16216" d="M37.5,230.4h-2.7a.674.674,0,1,0,0,1.349h2.7a.674.674,0,0,0,0-1.349Zm0,0" transform="translate(-31.435 -212.19)" fill="#3199dc"/>
      <path id="Path_16217" data-name="Path 16217" d="M37.5,264.535h-2.7a.674.674,0,1,0,0,1.349h2.7a.674.674,0,0,0,0-1.349Zm0,0" transform="translate(-31.435 -243.629)" fill="#3199dc"/>
      <path id="Path_16218" data-name="Path 16218" d="M37.5,298.668h-2.7a.674.674,0,1,0,0,1.349h2.7a.674.674,0,0,0,0-1.349Zm0,0" transform="translate(-31.435 -275.064)" fill="#3199dc"/>
      <path id="Path_16219" data-name="Path 16219" d="M37.5,332.8h-2.7a.674.674,0,1,0,0,1.349h2.7a.674.674,0,0,0,0-1.349Zm0,0" transform="translate(-31.435 -306.5)" fill="#3199dc"/>
      <path id="Path_16220" data-name="Path 16220" d="M137.884,127.119a1.349,1.349,0,0,0-1.349,1.349v1.349a1.349,1.349,0,0,0,1.349,1.349h5.4a1.349,1.349,0,0,0,1.349-1.349v-1.349a1.349,1.349,0,0,0-1.349-1.349h-2.023V125.77h2.023a1.349,1.349,0,0,0,1.349-1.349v-1.349a1.349,1.349,0,0,0-1.349-1.349h-2.023v-1.349h2.023a1.349,1.349,0,0,0,1.349-1.349v-1.349a1.349,1.349,0,0,0-1.349-1.349h-2.023V114.98h6.07a1.349,1.349,0,0,0,1.349-1.349v-1.349a1.349,1.349,0,0,0-1.349-1.349h-9.441a1.349,1.349,0,0,0-1.349,1.349v1.349a1.349,1.349,0,0,0,1.349,1.349h2.023v1.349h-2.023a1.349,1.349,0,0,0-1.349,1.349v1.349a1.349,1.349,0,0,0,1.349,1.349h2.023v1.349h-2.023a1.349,1.349,0,0,0-1.349,1.349v1.349a1.349,1.349,0,0,0,1.349,1.349h2.023v1.349Zm0-14.837h9.441v1.349h-9.441Zm0,5.4h5.4v1.349h-5.4Zm0,5.4h5.4v1.349h-5.4Zm5.4,6.744h-5.4v-1.349h5.4Zm0,0" transform="translate(-125.745 -102.166)" fill="#3199dc"/>
    </g>
  </g>
</svg>
