<svg xmlns="http://www.w3.org/2000/svg" width="71" height="73" viewBox="0 0 71 73">
  <g id="Group_10142" data-name="Group 10142" transform="translate(-171 90)">
    <rect id="Rectangle_1384" data-name="Rectangle 1384" width="71" height="73" rx="12" transform="translate(171 -90)" fill="#7e75e4" opacity="0.15"/>
    <g id="Page-1" transform="translate(186.938 -77.075)">
      <g id="_124---Script-Folder" data-name="124---Script-Folder" transform="translate(5.063 6.075)">
        <path id="Shape" d="M5.261,35.075H26.306a2.926,2.926,0,0,0,2.923-2.923V5.261a2.923,2.923,0,0,0-2.392-2.869A2.923,2.923,0,0,0,23.968,0H8.184a.585.585,0,0,0-.413.171l-7.6,7.6A.585.585,0,0,0,0,8.184v21.63a2.923,2.923,0,0,0,2.392,2.869A2.923,2.923,0,0,0,5.261,35.075ZM28.06,5.261V32.152a1.754,1.754,0,0,1-1.754,1.754H5.261a1.754,1.754,0,0,1-1.646-1.169H23.968a2.926,2.926,0,0,0,2.923-2.923V3.615A1.754,1.754,0,0,1,28.06,5.261ZM7.6,2v3.85A1.754,1.754,0,0,1,5.846,7.6H2ZM1.169,29.814V8.769H5.846A2.926,2.926,0,0,0,8.769,5.846V1.169h15.2a1.754,1.754,0,0,1,1.754,1.754V29.814a1.754,1.754,0,0,1-1.754,1.754H2.923A1.754,1.754,0,0,1,1.169,29.814Z" transform="translate(0)" fill="#7e75e4"/>
        <path id="Shape-2" data-name="Shape" d="M28.585,5.169h3.508a.585.585,0,0,0,0-1.169H28.585a.585.585,0,1,0,0,1.169Z" transform="translate(-11.632 -1.662)" fill="#7e75e4"/>
        <path id="Shape-3" data-name="Shape" d="M38.585,5.169h1.169a.585.585,0,0,0,0-1.169H38.585a.585.585,0,0,0,0,1.169Z" transform="translate(-15.786 -1.662)" fill="#7e75e4"/>
        <path id="Shape-4" data-name="Shape" d="M9.585,21.261c.669,0,1.169.339,1.169.643v1.637a2.1,2.1,0,0,0,2.338,1.812.585.585,0,1,0,0-1.169c-.669,0-1.169-.339-1.169-.643V21.9a1.605,1.605,0,0,0-.614-1.228,1.605,1.605,0,0,0,.614-1.228V17.812c0-.3.5-.643,1.169-.643a.585.585,0,0,0,0-1.169,2.1,2.1,0,0,0-2.338,1.812v1.637c0,.3-.5.643-1.169.643a.585.585,0,1,0,0,1.169Z" transform="translate(-3.739 -6.647)" fill="#7e75e4"/>
        <path id="Shape-5" data-name="Shape" d="M33.923,17.812A2.1,2.1,0,0,0,31.585,16a.585.585,0,0,0,0,1.169c.669,0,1.169.339,1.169.643v1.637a1.605,1.605,0,0,0,.614,1.228,1.605,1.605,0,0,0-.614,1.228v1.637c0,.3-.5.643-1.169.643a.585.585,0,0,0,0,1.169,2.1,2.1,0,0,0,2.338-1.812V21.9c0-.3.5-.643,1.169-.643a.585.585,0,0,0,0-1.169c-.669,0-1.169-.339-1.169-.643Z" transform="translate(-12.878 -6.647)" fill="#7e75e4"/>
        <ellipse id="Oval" cx="1" cy="0.5" rx="1" ry="0.5" transform="translate(10.615 15.538)" fill="#7e75e4"/>
        <circle id="Oval-2" data-name="Oval" cx="0.5" cy="0.5" r="0.5" transform="translate(13.615 15.538)" fill="#7e75e4"/>
        <circle id="Oval-3" data-name="Oval" cx="0.5" cy="0.5" r="0.5" transform="translate(15.615 15.538)" fill="#7e75e4"/>
        <path id="Shape-6" data-name="Shape" d="M5.585,38.169h.585a.585.585,0,0,0,0-1.169H5.585a.585.585,0,0,0,0,1.169Z" transform="translate(-2.077 -15.37)" fill="#7e75e4"/>
        <path id="Shape-7" data-name="Shape" d="M10.585,38.169h5.261a.585.585,0,0,0,0-1.169H10.585a.585.585,0,1,0,0,1.169Z" transform="translate(-4.154 -15.37)" fill="#7e75e4"/>
        <path id="Shape-8" data-name="Shape" d="M33.353,37H24.585a.585.585,0,1,0,0,1.169h8.769a.585.585,0,1,0,0-1.169Z" transform="translate(-9.97 -15.37)" fill="#7e75e4"/>
        <path id="Shape-9" data-name="Shape" d="M5.585,43.169h.585a.585.585,0,0,0,0-1.169H5.585a.585.585,0,0,0,0,1.169Z" transform="translate(-2.077 -17.447)" fill="#7e75e4"/>
        <path id="Shape-10" data-name="Shape" d="M35.846,42H30.585a.585.585,0,0,0,0,1.169h5.261a.585.585,0,0,0,0-1.169Z" transform="translate(-12.462 -17.447)" fill="#7e75e4"/>
        <path id="Shape-11" data-name="Shape" d="M10.585,43.169h8.769a.585.585,0,0,0,0-1.169H10.585a.585.585,0,0,0,0,1.169Z" transform="translate(-4.154 -17.447)" fill="#7e75e4"/>
        <path id="Shape-12" data-name="Shape" d="M5.585,48.169h.585a.585.585,0,1,0,0-1.169H5.585a.585.585,0,1,0,0,1.169Z" transform="translate(-2.077 -19.525)" fill="#7e75e4"/>
        <path id="Shape-13" data-name="Shape" d="M15.846,47H10.585a.585.585,0,1,0,0,1.169h5.261a.585.585,0,1,0,0-1.169Z" transform="translate(-4.154 -19.525)" fill="#7e75e4"/>
        <path id="Shape-14" data-name="Shape" d="M33.353,47H24.585a.585.585,0,1,0,0,1.169h8.769a.585.585,0,1,0,0-1.169Z" transform="translate(-9.97 -19.525)" fill="#7e75e4"/>
      </g>
    </g>
  </g>
</svg>
