<svg xmlns="http://www.w3.org/2000/svg" width="70" height="70" viewBox="0 0 70 70">
  <g id="_1" data-name="1" transform="translate(-301 -1864)">
    <path id="Path_16222" data-name="Path 16222" d="M35,0A35,35,0,1,1,0,35,35,35,0,0,1,35,0Z" transform="translate(301 1864)" fill="#0094c4"/>
    <g id="_001-3d-modeling" data-name="001-3d-modeling" transform="translate(320 1883)">
      <g id="Group_10086" data-name="Group 10086">
        <g id="Group_10085" data-name="Group 10085">
          <path id="Path_16223" data-name="Path 16223" d="M143.6,55.909a1.555,1.555,0,0,0-2.7-1.082l-3.557-1.853a1.541,1.541,0,0,0,.022-.214,1.56,1.56,0,1,0-3.119,0,1.542,1.542,0,0,0,.022.214L130.7,54.827a1.555,1.555,0,1,0-1.663,2.516v3.831a1.556,1.556,0,1,0,1.635,2.55l3.589,2.3a1.56,1.56,0,1,0,3.068,0l3.589-2.3a1.556,1.556,0,1,0,1.635-2.55V57.344A1.556,1.556,0,0,0,143.6,55.909Zm-7.8-3.669a.52.52,0,1,1-.52.52A.52.52,0,0,1,135.8,52.241Zm-4.688,3.547,3.628-1.89a1.541,1.541,0,0,0,2.12,0l3.628,1.89c0,.031-.009.061-.009.092a1.548,1.548,0,0,0,.026.253l-3.695,2.207a1.529,1.529,0,0,0-2.019,0l-3.695-2.207a1.539,1.539,0,0,0,.026-.253C131.119,55.848,131.112,55.819,131.11,55.788Zm5.208,3.731a.52.52,0,1,1-.52-.52A.52.52,0,0,1,136.318,59.519ZM129.56,55.36a.52.52,0,1,1-.52.52A.52.52,0,0,1,129.56,55.36Zm0,7.8a.52.52,0,1,1,.52-.52A.52.52,0,0,1,129.56,63.158Zm5.211,1.955-3.664-2.347c0-.043.013-.084.013-.128a1.557,1.557,0,0,0-1.04-1.464V57.343a1.553,1.553,0,0,0,.509-.3l3.678,2.2a1.531,1.531,0,0,0,1.011,1.743v3.831A1.551,1.551,0,0,0,134.77,65.112ZM135.8,66.8a.52.52,0,1,1,.52-.52A.52.52,0,0,1,135.8,66.8Zm5.718-5.623a1.557,1.557,0,0,0-1.04,1.464c0,.044.009.085.013.128l-3.664,2.347a1.552,1.552,0,0,0-.507-.3V60.982a1.531,1.531,0,0,0,1.011-1.743l3.678-2.2a1.551,1.551,0,0,0,.509.3v3.831Zm.52,1.984a.52.52,0,1,1,.52-.52A.52.52,0,0,1,142.036,63.158Zm0-6.758a.52.52,0,1,1,.52-.52A.52.52,0,0,1,142.036,56.4Z" transform="translate(-120.202 -48.082)" fill="#fff"/>
          <path id="Path_16224" data-name="Path 16224" d="M28.592,0H2.6A2.6,2.6,0,0,0,0,2.6V24.433a2.6,2.6,0,0,0,2.6,2.6h8.318v1.04H7.278a.52.52,0,0,0-.52.52v2.079a.52.52,0,0,0,.52.52H23.913a.52.52,0,0,0,.52-.52V28.592a.52.52,0,0,0-.52-.52H20.274v-1.04h8.318a2.6,2.6,0,0,0,2.6-2.6V2.6A2.6,2.6,0,0,0,28.592,0Zm-5.2,29.112v1.04H7.8v-1.04Zm-11.437-1.04v-1.04h7.278v1.04Zm18.195-3.639a1.561,1.561,0,0,1-1.56,1.56H2.6a1.561,1.561,0,0,1-1.56-1.56v-1.56H30.151v1.56Zm0-2.6H1.04V2.6A1.561,1.561,0,0,1,2.6,1.04H28.592a1.561,1.561,0,0,1,1.56,1.56V21.834Z" fill="#fff"/>
        </g>
      </g>
    </g>
  </g>
</svg>
