<svg xmlns="http://www.w3.org/2000/svg" xmlns:xlink="http://www.w3.org/1999/xlink" width="766.132" height="943.987" viewBox="0 0 766.132 943.987">
  <defs>
    <linearGradient id="linear-gradient" y1="0.5" x2="1" y2="0.5" gradientUnits="objectBoundingBox">
      <stop offset="0" stop-color="#a0e1ef"/>
      <stop offset="0.876" stop-color="#0094c4"/>
      <stop offset="1" stop-color="#0094c4"/>
    </linearGradient>
    <linearGradient id="linear-gradient-2" y1="0.5" x2="1" y2="0.5" gradientUnits="objectBoundingBox">
      <stop offset="0" stop-color="#9ba5fa"/>
      <stop offset="0.876" stop-color="#0094c4"/>
      <stop offset="1" stop-color="#5641c8"/>
    </linearGradient>
    <linearGradient id="linear-gradient-3" x1="0.136" y1="0.309" x2="4.136" y2="2.403" xlink:href="#linear-gradient-2"/>
    <linearGradient id="linear-gradient-4" x1="-3.93" y1="-1.837" x2="1.633" y2="1.097" gradientUnits="objectBoundingBox">
      <stop offset="0" stop-color="#9ba5fa"/>
      <stop offset="0.876" stop-color="#5641c8"/>
    </linearGradient>
    <linearGradient id="linear-gradient-5" x1="-6.036" y1="-2.927" x2="3.74" y2="2.199" xlink:href="#linear-gradient-4"/>
    <linearGradient id="linear-gradient-6" x1="-5.208" y1="-2.493" x2="4.567" y2="2.633" xlink:href="#linear-gradient-2"/>
    <linearGradient id="linear-gradient-7" x1="-4.382" y1="-2.057" x2="5.397" y2="3.065" gradientUnits="objectBoundingBox">
      <stop offset="0" stop-color="#9ba5fa"/>
      <stop offset="0.4" stop-color="#64a9ec"/>
      <stop offset="0.876" stop-color="#22addb"/>
      <stop offset="1" stop-color="#5641c8"/>
    </linearGradient>
    <linearGradient id="linear-gradient-8" x1="-3.554" y1="-1.622" x2="6.226" y2="3.497" xlink:href="#linear-gradient-2"/>
    <linearGradient id="linear-gradient-9" x1="-2.726" y1="-1.192" x2="7.053" y2="3.937" xlink:href="#linear-gradient-2"/>
    <linearGradient id="linear-gradient-10" x1="-1.898" y1="-0.757" x2="7.881" y2="4.37" xlink:href="#linear-gradient-2"/>
    <linearGradient id="linear-gradient-11" x1="-2.201" y1="-0.928" x2="1.655" y2="1.11" xlink:href="#linear-gradient-2"/>
    <linearGradient id="linear-gradient-12" x1="-4.692" y1="-2.218" x2="5.089" y2="2.903" xlink:href="#linear-gradient-2"/>
    <linearGradient id="linear-gradient-13" x1="-3.864" y1="-1.787" x2="5.916" y2="3.339" xlink:href="#linear-gradient-2"/>
    <linearGradient id="linear-gradient-14" x1="-3.036" y1="-1.355" x2="6.746" y2="3.777" xlink:href="#linear-gradient-2"/>
    <linearGradient id="linear-gradient-15" x1="-2.208" y1="-0.919" x2="7.573" y2="4.206" xlink:href="#linear-gradient-2"/>
    <linearGradient id="linear-gradient-16" x1="-1.38" y1="-0.484" x2="8.402" y2="4.636" xlink:href="#linear-gradient-2"/>
    <linearGradient id="linear-gradient-17" x1="-8.211" y1="-4.068" x2="1.566" y2="1.059" xlink:href="#linear-gradient-4"/>
    <linearGradient id="linear-gradient-18" x1="-7.384" y1="-3.632" x2="2.394" y2="1.492" xlink:href="#linear-gradient-4"/>
    <linearGradient id="linear-gradient-19" x1="-6.56" y1="-3.199" x2="3.223" y2="1.926" xlink:href="#linear-gradient-4"/>
    <linearGradient id="linear-gradient-20" x1="-5.729" y1="-2.764" x2="4.051" y2="2.36" xlink:href="#linear-gradient-2"/>
    <linearGradient id="linear-gradient-21" x1="-4.901" y1="-2.331" x2="4.878" y2="2.795" xlink:href="#linear-gradient-2"/>
    <linearGradient id="linear-gradient-22" x1="-4.075" y1="-1.897" x2="5.708" y2="3.23" xlink:href="#linear-gradient-2"/>
    <linearGradient id="linear-gradient-23" x1="-3.246" y1="-1.463" x2="6.537" y2="3.663" xlink:href="#linear-gradient-2"/>
    <linearGradient id="linear-gradient-24" x1="-2.417" y1="-1.029" x2="7.363" y2="4.096" xlink:href="#linear-gradient-2"/>
    <linearGradient id="linear-gradient-25" x1="-1.588" y1="-0.595" x2="8.19" y2="4.53" xlink:href="#linear-gradient-2"/>
    <linearGradient id="linear-gradient-26" x1="-0.761" y1="-0.161" x2="9.021" y2="4.963" xlink:href="#linear-gradient-2"/>
    <linearGradient id="linear-gradient-27" y1="0.5" x2="1" y2="0.5" gradientUnits="objectBoundingBox">
      <stop offset="0" stop-color="#9ba5fa"/>
      <stop offset="0.876" stop-color="#0094c4"/>
      <stop offset="1" stop-color="#0094c4"/>
    </linearGradient>
    <linearGradient id="linear-gradient-28" x1="0.5" x2="0.5" y2="1" gradientUnits="objectBoundingBox">
      <stop offset="0" stop-opacity="0.502"/>
      <stop offset="1" stop-color="#fff" stop-opacity="0"/>
    </linearGradient>
    <radialGradient id="radial-gradient" cx="0.52" cy="-0.636" r="4.782" gradientTransform="matrix(0.24, 0.076, -0.006, 0.324, 0.391, -0.469)" gradientUnits="objectBoundingBox">
      <stop offset="0" stop-opacity="0.502"/>
      <stop offset="0.862" stop-color="#c3c3c3" stop-opacity="0.118"/>
      <stop offset="0.959" stop-color="#fff" stop-opacity="0"/>
    </radialGradient>
    <linearGradient id="linear-gradient-29" x1="0.29" y1="0.879" x2="0.636" y2="0.015" gradientUnits="objectBoundingBox">
      <stop offset="0" stop-color="#1f3445"/>
      <stop offset="1" stop-color="#1f3445"/>
    </linearGradient>
    <linearGradient id="linear-gradient-30" x1="0.5" y1="0.269" x2="0.5" y2="1.05" xlink:href="#linear-gradient-28"/>
  </defs>
  <g id="OBJECT" transform="translate(-1170.217 -1593.472)">
    <path id="Path_16221" data-name="Path 16221" d="M2000.588,1576.4c-466.018,14.543-718.7,278.4-764.867,483.776,2,104.374,278.761,452.555,764.867,460.211C2000.989,2361.523,2003.221,1802.567,2000.588,1576.4Z" transform="translate(-65.504 17.076)" fill="rgba(0,148,196,0.11)"/>
    <g id="Group_44" data-name="Group 44" transform="translate(1355.774 1817.296)">
      <path id="Path_4" data-name="Path 4" d="M531.755,251.209l-54.937,32.334L810.606,473.151l54.955-32.315Z" transform="translate(-362.183 26.325)" fill="#0094c4" opacity="0.25"/>
      <path id="Path_5" data-name="Path 5" d="M738.411,516.82l115.05-67.654L540.615,271.442l-115.024,67.68Z" transform="translate(-425.591 51.369)" fill="#9ba5fa" opacity="0.25"/>
      <g id="Group_17" data-name="Group 17" transform="translate(26.768 0)">
        <g id="Group_4" data-name="Group 4" transform="translate(107.26)">
          <path id="Path_6" data-name="Path 6" d="M591.541,239.911v97.977c0,7.407-5.252,16.49-11.681,20.209L517.38,394.733,581.045,431.9l62.513-36.68c6.427-3.686,11.672-12.791,11.672-20.2V277.054Z" transform="translate(-446.003 12.34)" fill="#0d96c9"/>
          <g id="Group_3" data-name="Group 3">
            <path id="Path_7" data-name="Path 7" d="M803.121,293.25,520.848,130.265c-5.881-3.4-11.218-3.845-15.338-2.005l-.043-.072-.387.23a8.562,8.562,0,0,0-1.383.85l-14.465,8.678,8.3,11.026V339.658c0,14.814,10.535,33.03,23.32,40.419L787.513,534.064l15.376,20.42L818,545.262a11.549,11.549,0,0,0,3.388-2.059l.374-.235-.047-.047c2.929-2.818,4.74-7.3,4.74-13.322V333.665C826.455,318.844,815.951,300.642,803.121,293.25Z" transform="translate(-480.845 -127.188)" fill="url(#linear-gradient)"/>
            <path id="Path_8" data-name="Path 8" d="M814.414,338.1c0-14.819-10.524-33.01-23.345-40.419L508.815,134.728c-12.809-7.425-23.331-1.352-23.331,13.467V344.119c0,14.814,10.522,32.992,23.331,40.412l282.254,162.95c12.82,7.434,23.345,1.361,23.345-13.451Z" transform="translate(-485.484 -121.779)" fill="#fff"/>
            <path id="Path_9" data-name="Path 9" d="M485.484,226.545c0,14.814,10.522,32.992,23.331,40.412l282.254,162.95c12.82,7.434,23.345,1.361,23.345-13.451Z" transform="translate(-485.484 -4.205)" fill="#48b7db"/>
            <g id="Path_10" data-name="Path 10" transform="translate(-485.484 -121.779)" fill="none" stroke-miterlimit="10">
              <path d="M814.414,338.1c0-14.819-10.524-33.01-23.345-40.419L508.815,134.728c-12.809-7.425-23.331-1.352-23.331,13.467V344.119c0,14.814,10.522,32.992,23.331,40.412l282.254,162.95c12.82,7.434,23.345,1.361,23.345-13.451Z" stroke="none"/>
              <path d="M 498.4541625976563 134.0172729492188 C 496.913818359375 134.0172729492188 495.4949951171875 134.31591796875 494.237060546875 134.9048461914063 C 492.9990844726563 135.4845581054688 491.9140014648438 136.3477783203125 491.0120849609375 137.470458984375 C 489.0042114257813 139.9699096679688 487.9429321289063 143.6785278320313 487.9429321289063 148.1954956054688 L 487.9429321289063 344.1190185546875 C 487.9429321289063 347.4955444335938 488.527587890625 351.1310119628906 489.6807861328125 354.9245300292969 C 490.806884765625 358.6288452148438 492.4199829101563 362.3106689453125 494.4752807617188 365.8677062988281 C 496.5292358398438 369.422607421875 498.9133911132813 372.659912109375 501.5613403320313 375.4896545410156 C 504.2703247070313 378.3846740722656 507.1256103515625 380.7109069824219 510.044677734375 382.4020080566406 L 792.30224609375 545.3538818359375 C 795.5111083984375 547.214599609375 798.672119140625 548.1980590820313 801.443603515625 548.1980590820313 C 802.9846801757813 548.1980590820313 804.4039306640625 547.8995361328125 805.662109375 547.310791015625 C 806.900146484375 546.7314453125 807.985107421875 545.8687744140625 808.8868408203125 544.7467041015625 C 810.8939819335938 542.2493286132813 811.954833984375 538.5433349609375 811.954833984375 534.029541015625 L 811.954833984375 338.099365234375 C 811.954833984375 334.721435546875 811.3699951171875 331.0844421386719 810.2163696289063 327.2892456054688 C 809.0897827148438 323.5828247070313 807.47607421875 319.8994750976563 805.4199829101563 316.341552734375 C 803.3648071289063 312.7850036621094 800.9794311523438 309.5473022460938 798.330322265625 306.7183532714844 C 795.61962890625 303.8236694335938 792.7625732421875 301.4990844726563 789.8394775390625 299.8097229003906 L 507.5822143554688 136.8556518554688 C 504.3790283203125 134.9989013671875 501.2228393554688 134.0173950195313 498.45458984375 134.0172729492188 L 498.4542236328125 134.0172729492188 L 498.4541625976563 134.0172729492188 M 498.4550170898438 131.5584106445313 C 501.58251953125 131.55859375 505.1033325195313 132.5767211914063 508.8153076171875 134.7284545898438 L 791.06884765625 297.6802978515625 C 803.88916015625 305.089599609375 814.4136962890625 323.2806701660156 814.4136962890625 338.099365234375 L 814.4136962890625 534.029541015625 C 814.4136962890625 544.5463256835938 809.109619140625 550.6568603515625 801.443603515625 550.6568603515625 C 798.312744140625 550.6568603515625 794.7864990234375 549.6366577148438 791.06884765625 547.48095703125 L 508.8153076171875 384.5314331054688 C 496.0062255859375 377.11083984375 485.4840698242188 358.9332580566406 485.4840698242188 344.1190185546875 L 485.4840698242188 148.1954956054688 C 485.4840698242188 137.6712036132813 490.79052734375 131.5579833984375 498.4550170898438 131.5584106445313 Z" stroke="none" fill="#0989b2"/>
            </g>
          </g>
        </g>
        <g id="Group_5" data-name="Group 5" transform="translate(0 329.645)">
          <path id="Path_11" data-name="Path 11" d="M723.887,495.114l93.172-54.643v-7.362L530.7,277.779l-93.146,47.31v7.362Z" transform="translate(-437.553 -270.432)" fill="url(#linear-gradient-2)"/>
          <path id="Path_12" data-name="Path 12" d="M723.887,491.8l93.172-54.631L530.7,274.5l-93.146,54.658Z" transform="translate(-437.553 -274.496)" fill="#fff"/>
          <path id="Path_13" data-name="Path 13" d="M449.219,308.048c-2.316,1.385-2,3.748.649,5.274l38.866,22.092c2.735,1.51,6.843,1.661,9.146.311l34.776-20.415c2.33-1.374,2.09-3.764-.631-5.3l-38.842-22.085c-2.685-1.531-6.825-1.658-9.132-.293Z" transform="translate(-425.038 -259.408)" fill="url(#linear-gradient-3)"/>
          <path id="Path_14" data-name="Path 14" d="M557.993,349.352c-2.329,1.383-2.065,3.746.658,5.277l38.859,22.094c2.688,1.524,6.8,1.665,9.166.28l10.388-6.131c2.379-1.392,2.086-3.755-.6-5.261L577.585,343.52c-2.683-1.528-6.812-1.638-9.141-.259Z" transform="translate(-290.431 -190.574)" fill="url(#linear-gradient-4)"/>
          <path id="Path_15" data-name="Path 15" d="M545.585,342.294c-2.39,1.4-2.021,3.753.629,5.272l12.06,6.863c2.679,1.5,6.787,1.643,9.128.262l10.43-6.107c2.341-1.381,2.052-3.746-.631-5.274l-12.021-6.832c-2.685-1.542-6.825-1.654-9.177-.293Z" transform="translate(-305.805 -199.31)" fill="url(#linear-gradient-5)"/>
          <path id="Path_16" data-name="Path 16" d="M533.38,335.355c-2.359,1.383-2.063,3.746.638,5.29l12.037,6.83c2.679,1.528,6.821,1.676,9.132.266l10.422-6.085c2.376-1.374,2.07-3.744-.638-5.308l-12-6.805c-2.712-1.535-6.841-1.658-9.141-.275Z" transform="translate(-320.913 -207.89)" fill="url(#linear-gradient-6)"/>
          <path id="Path_17" data-name="Path 17" d="M521.155,328.437c-2.327,1.387-2.036,3.746.633,5.29l12.035,6.814c2.71,1.542,6.807,1.669,9.15.313l10.448-6.158c2.345-1.361,2.036-3.735-.654-5.25l-12.015-6.828c-2.692-1.544-6.834-1.685-9.166-.3Z" transform="translate(-336.018 -216.483)" fill="url(#linear-gradient-7)"/>
          <path id="Path_18" data-name="Path 18" d="M508.961,321.521c-2.359,1.345-2.045,3.721.638,5.284l12.028,6.821c2.681,1.535,6.805,1.663,9.155.28l10.413-6.134c2.339-1.378,2.072-3.753-.633-5.272l-12.021-6.843c-2.7-1.515-6.794-1.651-9.135-.277Z" transform="translate(-351.131 -225.068)" fill="url(#linear-gradient-8)"/>
          <path id="Path_19" data-name="Path 19" d="M496.748,314.565c-2.37,1.376-2.023,3.739.654,5.272l12.006,6.834c2.7,1.517,6.794,1.654,9.173.278l10.446-6.111c2.309-1.363,2.043-3.737-.694-5.272l-11.981-6.843c-2.706-1.517-6.841-1.636-9.177-.275Z" transform="translate(-366.242 -233.644)" fill="url(#linear-gradient-9)"/>
          <path id="Path_20" data-name="Path 20" d="M484.524,307.6c-2.311,1.4-2.039,3.762.676,5.3l12,6.843c2.708,1.522,6.816,1.652,9.166.282l10.439-6.118c2.318-1.381,2.025-3.762-.651-5.286l-12.039-6.827c-2.7-1.5-6.789-1.643-9.161-.309Z" transform="translate(-381.348 -242.225)" fill="url(#linear-gradient-10)"/>
          <path id="Path_21" data-name="Path 21" d="M534.77,348.775c-2.334,1.343-2.032,3.721.629,5.254l66.443,37.743c2.717,1.544,6.879,1.669,9.206.3l10.41-6.132c2.329-1.383,2.041-3.717-.633-5.266l-66.476-37.747c-2.694-1.549-6.814-1.674-9.142-.278Z" transform="translate(-319.168 -191.34)" fill="url(#linear-gradient-11)"/>
          <path id="Path_22" data-name="Path 22" d="M522.473,341.762c-2.361,1.372-2.032,3.757.667,5.3l12.039,6.814c2.647,1.535,6.8,1.658,9.126.284l10.43-6.132c2.323-1.363,2.039-3.719-.665-5.266l-12.031-6.83c-2.679-1.535-6.783-1.674-9.117-.32Z" transform="translate(-334.398 -199.992)" fill="url(#linear-gradient-12)"/>
          <path id="Path_23" data-name="Path 23" d="M510.262,334.822c-2.314,1.381-2.041,3.764.636,5.279l12.03,6.832c2.712,1.531,6.832,1.66,9.18.284l10.417-6.118c2.357-1.358,2.055-3.717-.64-5.257l-12.039-6.848c-2.679-1.542-6.839-1.66-9.139-.275Z" transform="translate(-349.497 -208.573)" fill="url(#linear-gradient-13)"/>
          <path id="Path_24" data-name="Path 24" d="M498.069,327.89c-2.361,1.354-2.068,3.735.64,5.259l12.035,6.857c2.674,1.513,6.794,1.638,9.15.262l10.433-6.091c2.305-1.387,2.043-3.755-.64-5.295l-12.053-6.832c-2.692-1.513-6.805-1.631-9.112-.286Z" transform="translate(-364.623 -217.146)" fill="url(#linear-gradient-14)"/>
          <path id="Path_25" data-name="Path 25" d="M485.859,320.957c-2.334,1.356-2.05,3.728.638,5.274l11.988,6.828c2.7,1.54,6.843,1.665,9.2.3l10.428-6.147c2.316-1.338,2.043-3.726-.649-5.266L505.393,315.1c-2.658-1.495-6.774-1.636-9.146-.273Z" transform="translate(-379.716 -225.735)" fill="url(#linear-gradient-15)"/>
          <path id="Path_26" data-name="Path 26" d="M473.628,314.03c-2.316,1.383-2.019,3.755.667,5.286l12.028,6.821c2.688,1.544,6.794,1.669,9.115.3l10.475-6.147c2.318-1.363,2.027-3.746-.638-5.261l-12.06-6.834c-2.728-1.537-6.816-1.676-9.137-.293Z" transform="translate(-394.831 -234.329)" fill="url(#linear-gradient-16)"/>
          <path id="Path_27" data-name="Path 27" d="M580.893,349.77c-2.341,1.376-2.074,3.742.635,5.295l12.035,6.841c2.681,1.517,6.8,1.638,9.137.26l10.446-6.107c2.352-1.358,2.045-3.73-.662-5.29l-12.021-6.83c-2.7-1.5-6.783-1.643-9.112-.282Z" transform="translate(-262.097 -190.049)" fill="url(#linear-gradient-17)"/>
          <path id="Path_28" data-name="Path 28" d="M568.69,342.848c-2.349,1.383-2.065,3.751.647,5.266l12.026,6.832c2.667,1.54,6.776,1.676,9.144.313l10.412-6.161c2.352-1.338,2.079-3.71-.669-5.236l-11.994-6.845c-2.7-1.526-6.816-1.656-9.166-.282Z" transform="translate(-277.201 -198.636)" fill="url(#linear-gradient-18)"/>
          <path id="Path_29" data-name="Path 29" d="M556.489,335.943c-2.374,1.34-2.052,3.71.635,5.254l12.013,6.814c2.714,1.533,6.8,1.685,9.141.311l10.457-6.134c2.332-1.379,2.027-3.739-.656-5.279l-12.033-6.825c-2.7-1.52-6.8-1.676-9.173-.289Z" transform="translate(-292.312 -207.225)" fill="url(#linear-gradient-19)"/>
          <path id="Path_30" data-name="Path 30" d="M544.276,328.988c-2.352,1.372-2.09,3.735.656,5.252l12.019,6.852c2.688,1.513,6.8,1.656,9.15.318l10.421-6.156c2.334-1.361,2.032-3.744-.676-5.268l-11.961-6.832c-2.752-1.54-6.866-1.672-9.2-.289Z" transform="translate(-307.432 -215.81)" fill="url(#linear-gradient-20)"/>
          <path id="Path_31" data-name="Path 31" d="M532.027,322.048c-2.3,1.367-2.034,3.733.707,5.286l11.988,6.805c2.73,1.544,6.843,1.667,9.184.311l10.395-6.136c2.361-1.356,2.052-3.746-.651-5.239l-12.012-6.857c-2.663-1.535-6.8-1.667-9.137-.3Z" transform="translate(-322.539 -224.393)" fill="url(#linear-gradient-21)"/>
          <path id="Path_32" data-name="Path 32" d="M519.829,315.1c-2.318,1.392-2.019,3.744.656,5.261l12.041,6.863c2.668,1.515,6.783,1.669,9.144.275l10.408-6.111c2.354-1.385,2.074-3.753-.611-5.277l-12.031-6.819c-2.712-1.537-6.816-1.663-9.159-.311Z" transform="translate(-337.646 -232.971)" fill="url(#linear-gradient-22)"/>
          <path id="Path_33" data-name="Path 33" d="M507.638,308.185c-2.336,1.361-2.045,3.746.671,5.248l12,6.843c2.67,1.533,6.814,1.665,9.164.3l10.417-6.138c2.321-1.349,2.047-3.733-.672-5.266l-12.012-6.819c-2.667-1.549-6.805-1.672-9.166-.289Z" transform="translate(-352.754 -241.557)" fill="url(#linear-gradient-23)"/>
          <path id="Path_34" data-name="Path 34" d="M495.44,301.272c-2.361,1.331-2.036,3.721.638,5.232l12.059,6.845c2.683,1.533,6.756,1.651,9.1.3l10.448-6.134c2.341-1.381,2.063-3.751-.64-5.263l-12.039-6.845c-2.69-1.526-6.821-1.665-9.146-.282Z" transform="translate(-367.865 -250.145)" fill="url(#linear-gradient-24)"/>
          <path id="Path_35" data-name="Path 35" d="M483.221,294.308c-2.343,1.376-2.065,3.748.676,5.256l12.021,6.841c2.69,1.533,6.81,1.683,9.148.3l10.392-6.132c2.365-1.347,2.072-3.735-.6-5.268l-12.046-6.834c-2.676-1.519-6.8-1.66-9.13-.307Z" transform="translate(-382.988 -258.729)" fill="url(#linear-gradient-25)"/>
          <path id="Path_36" data-name="Path 36" d="M470.99,287.362c-2.318,1.383-1.989,3.733.64,5.295l12.086,6.816c2.636,1.54,6.807,1.665,9.135.3l10.415-6.125c2.329-1.363,2.048-3.762-.636-5.272l-12-6.843c-2.723-1.524-6.863-1.66-9.211-.3Z" transform="translate(-398.088 -267.312)" fill="url(#linear-gradient-26)"/>
        </g>
        <g id="Group_16" data-name="Group 16" transform="translate(132.701 39.42)">
          <g id="Group_6" data-name="Group 6">
            <path id="Path_37" data-name="Path 37" d="M575.524,199.3l-55.6-32.1v-9.079l55.6,32.1Z" transform="translate(-468.293 -128.315)" fill="#108db5"/>
            <path id="Path_38" data-name="Path 38" d="M538.615,177.992l-41.762-24.113V144.8l41.762,24.111Z" transform="translate(-496.853 -144.804)" fill="#108db5"/>
            <path id="Path_39" data-name="Path 39" d="M655.886,245.7l-95.1-54.91v-9.078l95.1,54.911Z" transform="translate(-417.72 -99.118)" fill="#108db5"/>
            <path id="Path_40" data-name="Path 40" d="M565.27,193.381l-16.086-9.29v-9.076l16.086,9.29Z" transform="translate(-432.079 -107.408)" fill="#108db5"/>
            <path id="Path_41" data-name="Path 41" d="M623.78,227.164l-16.086-9.289V208.8l16.086,9.288Z" transform="translate(-359.654 -65.591)" fill="#108db5"/>
          </g>
          <g id="Group_7" data-name="Group 7" transform="translate(0 55.321)">
            <path id="Path_42" data-name="Path 42" d="M538.615,202.715,496.853,178.6v-9.079l41.762,24.113Z" transform="translate(-496.853 -169.525)" fill="#108db5"/>
            <path id="Path_43" data-name="Path 43" d="M575.524,224.025l-55.6-32.1v-9.077l55.6,32.1Z" transform="translate(-468.293 -153.034)" fill="#108db5"/>
            <path id="Path_44" data-name="Path 44" d="M616.379,247.613l-55.6-32.1v-9.077l55.6,32.1Z" transform="translate(-417.72 -123.837)" fill="#108db5"/>
            <path id="Path_45" data-name="Path 45" d="M565.27,218.1l-16.086-9.283v-9.08l16.086,9.288Z" transform="translate(-432.079 -132.126)" fill="#108db5"/>
          </g>
          <g id="Group_8" data-name="Group 8" transform="translate(0 36.883)">
            <path id="Path_46" data-name="Path 46" d="M538.615,194.469l-41.762-24.108v-9.076l41.762,24.108Z" transform="translate(-496.853 -161.286)" fill="#108db5"/>
            <path id="Path_47" data-name="Path 47" d="M536.013,192.976l-16.086-9.3v-9.076l16.086,9.294Z" transform="translate(-468.293 -144.798)" fill="#108db5"/>
            <path id="Path_48" data-name="Path 48" d="M657.985,263.394,543.127,197.078V188l114.858,66.315Z" transform="translate(-439.574 -128.217)" fill="#108db5"/>
            <path id="Path_49" data-name="Path 49" d="M547.617,199.669l-16.091-9.287v-9.077l16.091,9.283Z" transform="translate(-453.935 -136.505)" fill="#108db5"/>
            <path id="Path_50" data-name="Path 50" d="M654.468,261.358l-55.6-32.1v-9.077l55.6,32.1Z" transform="translate(-370.582 -88.383)" fill="#108db5"/>
          </g>
          <g id="Group_9" data-name="Group 9" transform="translate(0 18.441)">
            <path id="Path_51" data-name="Path 51" d="M587.126,214.239l-55.6-32.1v-9.077l55.6,32.1Z" transform="translate(-453.935 -128.263)" fill="#108db5"/>
            <path id="Path_52" data-name="Path 52" d="M616.379,231.13l-55.6-32.1v-9.077l55.6,32.1Z" transform="translate(-417.72 -107.357)" fill="#108db5"/>
            <path id="Path_53" data-name="Path 53" d="M538.615,186.232l-41.762-24.11v-9.078l41.762,24.11Z" transform="translate(-496.853 -153.044)" fill="#108db5"/>
            <path id="Path_54" data-name="Path 54" d="M536.013,184.735l-16.086-9.293v-9.077l16.086,9.292Z" transform="translate(-468.293 -136.556)" fill="#108db5"/>
          </g>
          <g id="Group_10" data-name="Group 10" transform="translate(0 73.766)">
            <path id="Path_55" data-name="Path 55" d="M538.615,210.956l-41.762-24.113v-9.076l41.762,24.111Z" transform="translate(-496.853 -177.768)" fill="#108db5"/>
            <path id="Path_56" data-name="Path 56" d="M549.183,207.98l95.109,54.91v9.076l-95.109-54.91Z" transform="translate(-432.079 -140.371)" fill="#108db5"/>
            <path id="Path_57" data-name="Path 57" d="M519.926,191.088l55.6,32.1v9.078l-55.6-32.1Z" transform="translate(-468.293 -161.279)" fill="#108db5"/>
            <path id="Path_58" data-name="Path 58" d="M596.092,235.064l16.084,9.287v9.076l-16.084-9.283Z" transform="translate(-374.015 -106.846)" fill="#108db5"/>
          </g>
          <g id="Group_11" data-name="Group 11" transform="translate(0 165.967)">
            <path id="Path_59" data-name="Path 59" d="M538.615,252.164l-41.762-24.115v-9.079l41.762,24.119Z" transform="translate(-496.853 -218.969)" fill="#108db5"/>
            <path id="Path_60" data-name="Path 60" d="M590.039,272.774l55.6,32.1v9.078l-55.6-32.1Z" transform="translate(-381.508 -152.369)" fill="#108db5"/>
            <path id="Path_61" data-name="Path 61" d="M531.526,238.99l95.109,54.919v9.078l-95.109-54.921Z" transform="translate(-453.935 -194.188)" fill="#108db5"/>
            <path id="Path_62" data-name="Path 62" d="M578.439,266.077l16.087,9.292v9.078l-16.087-9.29Z" transform="translate(-395.866 -160.659)" fill="#108db5"/>
            <path id="Path_63" data-name="Path 63" d="M519.926,232.294l16.086,9.285v9.078l-16.086-9.287Z" transform="translate(-468.293 -202.476)" fill="#108db5"/>
          </g>
          <g id="Group_12" data-name="Group 12" transform="translate(0 110.651)">
            <path id="Path_64" data-name="Path 64" d="M538.615,227.438l-41.762-24.112V194.25l41.762,24.112Z" transform="translate(-496.853 -194.25)" fill="#108db5"/>
            <path id="Path_65" data-name="Path 65" d="M560.784,231.16l55.6,32.1v9.078l-55.6-32.1Z" transform="translate(-417.72 -148.563)" fill="#108db5"/>
            <path id="Path_66" data-name="Path 66" d="M519.926,207.571l55.6,32.1v9.08l-55.6-32.1Z" transform="translate(-468.293 -177.761)" fill="#108db5"/>
            <path id="Path_67" data-name="Path 67" d="M549.183,224.463l16.086,9.286v9.075l-16.086-9.283Z" transform="translate(-432.079 -156.852)" fill="#108db5"/>
          </g>
          <g id="Group_13" data-name="Group 13" transform="translate(0 129.089)">
            <path id="Path_68" data-name="Path 68" d="M538.615,235.679l-41.762-24.112v-9.078L538.615,226.6Z" transform="translate(-496.853 -202.489)" fill="#108db5"/>
            <path id="Path_69" data-name="Path 69" d="M616.521,271.586l16.082,9.281v9.078l-16.082-9.283Z" transform="translate(-348.728 -116.962)" fill="#108db5"/>
            <path id="Path_70" data-name="Path 70" d="M549.183,232.7l114.855,66.323V308.1L549.183,241.78Z" transform="translate(-432.079 -165.091)" fill="#108db5"/>
            <path id="Path_71" data-name="Path 71" d="M604.919,264.888l16.091,9.29v9.074l-16.091-9.288Z" transform="translate(-363.089 -125.253)" fill="#108db5"/>
            <path id="Path_72" data-name="Path 72" d="M519.926,215.812l55.6,32.1v9.076l-55.6-32.1Z" transform="translate(-468.293 -185.999)" fill="#108db5"/>
          </g>
          <g id="Group_14" data-name="Group 14" transform="translate(0 147.53)">
            <path id="Path_73" data-name="Path 73" d="M538.615,243.921l-41.762-24.115V210.73l41.762,24.115Z" transform="translate(-496.853 -210.73)" fill="#108db5"/>
            <path id="Path_74" data-name="Path 74" d="M540.353,235.847l55.6,32.1v9.081l-55.6-32.1Z" transform="translate(-443.009 -179.641)" fill="#108db5"/>
            <path id="Path_75" data-name="Path 75" d="M519.926,224.053l35.838,20.693v9.077l-35.838-20.691Z" transform="translate(-468.293 -194.239)" fill="#108db5"/>
            <path id="Path_76" data-name="Path 76" d="M569.609,252.738,585.7,262.03v9.08l-16.086-9.292Z" transform="translate(-406.796 -158.732)" fill="#108db5"/>
          </g>
          <g id="Group_15" data-name="Group 15" transform="translate(0 92.208)">
            <path id="Path_77" data-name="Path 77" d="M538.615,219.2l-41.762-24.11v-9.077l41.762,24.111Z" transform="translate(-496.853 -186.008)" fill="#108db5"/>
            <path id="Path_78" data-name="Path 78" d="M626.635,270.012,531.526,215.1v-9.077l95.109,54.908Z" transform="translate(-453.935 -161.229)" fill="#108db5"/>
            <path id="Path_79" data-name="Path 79" d="M634.032,274.29l-55.593-32.1v-9.079l55.593,32.105Z" transform="translate(-395.866 -127.707)" fill="#108db5"/>
            <path id="Path_80" data-name="Path 80" d="M536.013,217.7l-16.086-9.293v-9.078l16.086,9.293Z" transform="translate(-468.293 -169.52)" fill="#108db5"/>
          </g>
        </g>
      </g>
    </g>
    <g id="Group_45" data-name="Group 45" transform="translate(1170.217 1904.794)">
      <g id="Group_19" data-name="Group 19" transform="translate(455.52 184.11)">
        <path id="Path_81" data-name="Path 81" d="M657.435,314.892,549.128,252.359V334.35a7.5,7.5,0,0,0,3.254,4.614l108.3,62.526V319.509A7.581,7.581,0,0,0,657.435,314.892Z" transform="translate(-542.641 -243.86)" fill="#7e75e4"/>
        <path id="Path_82" data-name="Path 82" d="M552.716,257.06l108.307,62.533a7.581,7.581,0,0,1,3.243,4.617v81.982l-108.3-62.526a7.5,7.5,0,0,1-3.254-4.614V257.06m-3.218-8.5c-1.949,0-3.269,1.352-3.269,3.746v86.744c0,3.572,2.927,8.179,6.5,10.242l111.536,64.4a6.629,6.629,0,0,0,3.229,1c1.949,0,3.267-1.352,3.267-3.739V324.21c0-3.567-2.929-8.17-6.5-10.233L552.73,249.559a6.7,6.7,0,0,0-3.231-1Z" transform="translate(-546.229 -248.561)" fill="#fff"/>
        <text id="C_" data-name="C++" transform="translate(59.545 89.274)" fill="#fff" font-size="23" font-family="Montserrat-Bold, Montserrat" font-weight="700"><tspan x="-22.207" y="0">C++</tspan></text>
      </g>
      <g id="Group_20" data-name="Group 20" transform="translate(454.557 303.593)">
        <path id="Path_83" data-name="Path 83" d="M679.314,381.584,549.28,306.513V404.94c0,1.105,1.676,4.272,3.907,5.545L683.21,485.552V387.127C683.21,386.026,681.518,382.86,679.314,381.584Z" transform="translate(-541.49 -296.311)" fill="#0094c4"/>
        <path id="Path_84" data-name="Path 84" d="M553.589,312.156l130.034,75.071c2.2,1.276,3.9,4.442,3.9,5.543V491.2L557.5,416.129c-2.231-1.273-3.907-4.44-3.907-5.545V312.156m-3.867-10.2c-2.336,0-3.923,1.622-3.923,4.5V410.583c0,4.292,3.518,9.826,7.81,12.3L687.519,500.2a7.925,7.925,0,0,0,3.878,1.193c2.334,0,3.918-1.613,3.918-4.484V392.77c0-4.288-3.516-9.815-7.8-12.29l-133.91-77.329a8.036,8.036,0,0,0-3.887-1.2Z" transform="translate(-545.799 -301.954)" fill="#fff"/>
        <text id="JAVA" transform="translate(70.287 107.412)" fill="#fff" font-size="29" font-family="Montserrat-Bold, Montserrat" font-weight="700"><tspan x="-39.556" y="0">JAVA</tspan></text>
      </g>
      <g id="Group_21" data-name="Group 21" transform="translate(154.683 7.369)">
        <path id="Path_85" data-name="Path 85" d="M523,235.9l-108.3-62.52v81.975a7.5,7.5,0,0,0,3.256,4.614L526.241,322.5V240.512A7.579,7.579,0,0,0,523,235.9Z" transform="translate(-408.202 -164.881)" fill="#7e75e4"/>
        <path id="Path_86" data-name="Path 86" d="M418.291,178.078,526.6,240.6a7.58,7.58,0,0,1,3.238,4.614V327.2L421.547,264.667a7.5,7.5,0,0,1-3.256-4.614V178.078m-3.222-8.5c-1.951,0-3.274,1.349-3.274,3.744v86.728c0,3.572,2.936,8.184,6.51,10.24l111.53,64.4a6.647,6.647,0,0,0,3.234.994c1.947,0,3.267-1.349,3.267-3.739V245.212c0-3.567-2.929-8.175-6.5-10.238l-111.53-64.4a6.711,6.711,0,0,0-3.236-1Z" transform="translate(-411.795 -169.581)" fill="#fff"/>
        <text id="PYTHON" transform="translate(51.122 88.221)" fill="#fff" font-size="12" font-family="Montserrat-Bold, Montserrat" font-weight="700"><tspan x="-26.778" y="0">PYTHON</tspan></text>
      </g>
      <g id="Group_22" data-name="Group 22" transform="translate(454.168 91.103)">
        <path id="Path_87" data-name="Path 87" d="M638.295,262.262l-90.253-52.1v68.311a6.234,6.234,0,0,0,2.708,3.844L641,334.433V266.111A6.333,6.333,0,0,0,638.295,262.262Z" transform="translate(-542.633 -203.081)" fill="#f36290"/>
        <path id="Path_88" data-name="Path 88" d="M551.034,214.082l90.253,52.1a6.333,6.333,0,0,1,2.7,3.849v68.322l-90.248-52.114a6.234,6.234,0,0,1-2.708-3.844V214.082M548.346,207c-1.622,0-2.721,1.126-2.721,3.12v72.274c0,2.979,2.437,6.821,5.415,8.535L643.99,344.6a5.524,5.524,0,0,0,2.692.83c1.62,0,2.719-1.128,2.719-3.12V270.029c0-2.976-2.437-6.814-5.411-8.533L551.04,207.831a5.534,5.534,0,0,0-2.694-.832Z" transform="translate(-545.625 -206.999)" fill="#fff"/>
        <text id="HTML" transform="translate(44.145 71.088)" fill="#fff" font-size="16" font-family="Montserrat-Bold, Montserrat" font-weight="700"><tspan x="-23.88" y="0">HTML</tspan></text>
      </g>
      <g id="Group_23" data-name="Group 23" transform="translate(295.472 0)">
        <path id="Path_89" data-name="Path 89" d="M567.381,221.552l-90.253-52.1v68.313a6.217,6.217,0,0,0,2.712,3.847l90.239,52.1V225.4A6.322,6.322,0,0,0,567.381,221.552Z" transform="translate(-471.715 -162.372)" fill="#f36290"/>
        <path id="Path_90" data-name="Path 90" d="M480.122,173.368l90.253,52.1a6.322,6.322,0,0,1,2.7,3.849v68.315l-90.239-52.1a6.217,6.217,0,0,1-2.712-3.847V173.368m-2.69-7.08c-1.62,0-2.723,1.128-2.723,3.119v72.274c0,2.976,2.441,6.821,5.42,8.535l92.945,53.667a5.531,5.531,0,0,0,2.695.83c1.618,0,2.719-1.123,2.719-3.117V229.318c0-2.976-2.439-6.812-5.413-8.533l-92.945-53.667a5.606,5.606,0,0,0-2.7-.83Z" transform="translate(-474.709 -166.288)" fill="#fff"/>
        <text id="CSS" transform="translate(47.331 71.082)" fill="#fff" font-size="16" font-family="Montserrat-Bold, Montserrat" font-weight="700"><tspan x="-16.024" y="0">CSS</tspan></text>
      </g>
      <g id="Group_24" data-name="Group 24" transform="translate(0 42.373)">
        <path id="Path_91" data-name="Path 91" d="M476.123,264.8,346.152,189.78v98.371c0,1.1,1.678,4.265,3.907,5.534l129.951,75.04V270.341C480.01,269.242,478.319,266.075,476.123,264.8Z" transform="translate(-338.364 -179.582)" fill="#0094c4"/>
        <path id="Path_92" data-name="Path 92" d="M350.46,195.421l129.971,75.022c2.2,1.273,3.887,4.44,3.887,5.539v98.385l-129.951-75.04c-2.229-1.269-3.907-4.437-3.907-5.534V195.421m-3.865-10.2c-2.339,0-3.923,1.625-3.923,4.491V293.792c0,4.288,3.516,9.819,7.805,12.288l133.84,77.285a7.976,7.976,0,0,0,3.878,1.2c2.334,0,3.916-1.62,3.916-4.491V275.981c0-4.281-3.52-9.808-7.794-12.285l-133.84-77.273a8,8,0,0,0-3.883-1.2Z" transform="translate(-342.672 -185.223)" fill="#fff"/>
        <text id="PHP" transform="translate(71.183 106.346)" fill="#fff" font-size="28" font-family="Montserrat-Bold, Montserrat" font-weight="700"><tspan x="-31.668" y="0">PHP</tspan></text>
      </g>
    </g>
    <g id="Group_46" data-name="Group 46" transform="translate(1332.949 2101.347)">
      <g id="Group_26" data-name="Group 26" transform="translate(0 268.335)" opacity="0.25">
        <path id="Path_93" data-name="Path 93" d="M506.034,391.068c39.9,0,73.615,18.164,73.615,39.663S545.936,470.4,506.034,470.4s-73.621-18.171-73.621-39.669,33.708-39.663,73.621-39.663m0-17.036c-50.829,0-90.642,24.9-90.642,56.7s39.813,56.695,90.642,56.695,90.647-24.9,90.647-56.695-39.815-56.7-90.647-56.7Z" transform="translate(-415.392 -374.032)" fill="#9ba5fa"/>
      </g>
      <g id="Group_31" data-name="Group 31" transform="translate(15.575 0)">
        <g id="Group_29" data-name="Group 29" transform="translate(0 263.967)">
          <g id="Group_27" data-name="Group 27" transform="translate(0 9.446)">
            <path id="Path_94" data-name="Path 94" d="M497.419,390.4c33.048,0,60.964,15.043,60.964,32.846s-27.917,32.855-60.964,32.855S436.45,441.058,436.45,423.25,464.362,390.4,497.419,390.4m0-14.1c-40.952,0-75.067,37.51-75.067,37.51v12.97c0,26.334,32.972,46.958,75.067,46.958s75.069-20.624,75.069-46.958V413.522S538.375,376.3,497.419,376.3Z" transform="translate(-422.352 -376.301)" fill="url(#linear-gradient-27)"/>
          </g>
          <path id="Path_95" data-name="Path 95" d="M428.652,413.774c0-17.806,27.912-32.851,60.969-32.851s60.964,15.045,60.964,32.851-27.916,32.851-60.964,32.851S428.652,431.58,428.652,413.774Z" transform="translate(-414.554 -361.134)" fill="#d9fbfc"/>
          <g id="Group_28" data-name="Group 28">
            <path id="Path_96" data-name="Path 96" d="M497.419,386.187c33.048,0,60.964,15.042,60.964,32.849s-27.917,32.851-60.964,32.851S436.45,436.84,436.45,419.036s27.912-32.849,60.969-32.849m0-14.107c-42.1,0-75.067,20.626-75.067,46.956s32.972,46.951,75.067,46.951,75.069-20.619,75.069-46.951-32.974-46.956-75.069-46.956Z" transform="translate(-422.352 -372.08)" fill="#fff"/>
          </g>
        </g>
        <g id="Group_30" data-name="Group 30" transform="translate(41.572 0)">
          <path id="Path_97" data-name="Path 97" d="M442.939,394.635c-.454,2.273.107,3.938,2.833,3.938,2.721.459,9.2-1.956,13.964-4.388,2.354-1.2,13.912-10.119,6.6-9.9-6.288.186-8.027,2.938-15.221,3.547C451.112,387.828,443.848,391.46,442.939,394.635Z" transform="translate(-438.616 -93.015)" fill="#f99746"/>
          <path id="Path_98" data-name="Path 98" d="M443.508,476.383c.383,1.775,6.7.434,8.645-1.575s5.885-18.4,8.152-23.394a252.461,252.461,0,0,0,11.35-41.307c2.723-15.888,4.084-32.683,2.267-49.023-1.358-14.528-5.445-28.6-9.531-42.675l-20.427,12.713c2.267,16.8,4.54,33.14,4.99,49.932.456,21.792-1.813,43.127-4.084,64.914C443.964,454.142,443.123,474.611,443.508,476.383Z" transform="translate(-437.855 -174.548)" fill="#25355a"/>
          <path id="Path_99" data-name="Path 99" d="M473.616,361.083c-1.358-14.528-5.445-28.6-9.531-42.675l-20.427,12.713c1.238,9.166,2.466,18.2,3.408,27.247,1.562,2.012,3.334,4.194,5.268,6.716,10.475,14.409,3.332,40.421,17.6,51.733.481-2.236.98-4.471,1.414-6.711C474.073,394.218,475.434,377.423,473.616,361.083Z" transform="translate(-437.55 -174.548)" fill="url(#linear-gradient-28)" style="mix-blend-mode: multiply;isolation: isolate"/>
          <path id="Path_100" data-name="Path 100" d="M469.223,274.275c-4.9,1.808-9.8,3.357-14.7,5.165-4.641,1.8-10.5,3.605-12.312,8.246-.515,1.808.452,5.42,1.739,6.971,1.808,1.546,4.643,1.546,6.966,1.546,5.928-.257,11.865-2.576,17.795-3.867,4.127-.777,8.508-1.291,12.637-2.061h-.257Z" transform="translate(-439.521 -229.176)" fill="#f99746"/>
          <path id="Path_101" data-name="Path 101" d="M468.832,400.249c-2.394,1.222-5.975,3.231-5.556,6.163,0,2.938,5.438,2.455,7.132,2.1a54.127,54.127,0,0,0,6.512-1.739,30.25,30.25,0,0,0,9.84-5.809c1.936-1.851,6.288-5.033,4.617-7.971-1.262-2.095-8.392,1.262-10.489,1.678a54.223,54.223,0,0,0-7.548,2.667S472.764,398.233,468.832,400.249Z" transform="translate(-413.31 -83.07)" fill="#f99746"/>
          <path id="Path_102" data-name="Path 102" d="M483.405,403.818c-.452,14.071,1.813,34.044,1.813,47.661,0,8.172,1,38.134,1.989,40.721s8.821.676,9.813-1.676,8.3-76.17,7.266-87.612c-2.271-24.967-1.363-62.647-4.086-78.531l-54.47-2.726c-1,12.256,8.054,23.765,16.34,31.322C477.824,367.344,483.405,394.283,483.405,403.818Z" transform="translate(-435.08 -170.529)" fill="#304474"/>
          <path id="Path_103" data-name="Path 103" d="M485.821,290.513c-7.873-2.361-20.588-9.5-28.134-12.232-11.053-4.01-19.485,8.4-15.938,20.885,2.721,9.575,5.509,44.859,4.724,54.3,0,11.048-.342,14.423.333,30.541,0,0,21.082,7.492,32.889,7.492,10.133-.338,27.713-4.769,27.713-4.769s2.524-21.071,2.524-31.851c.79-9.446-.336-13.776.284-31.318.425-11.981-2.406-25.739-8.177-28.319S485.821,290.513,485.821,290.513Z" transform="translate(-440.929 -225.167)" fill="#f99746"/>
          <path id="Path_104" data-name="Path 104" d="M453.983,302.956c12.731-6.883,23.98-9.737,37.523-13.416,13.581-9.636,25.155-15.647,36.252-21.778,1.159-.642,2.408-4.8,4.666-7.1,5.127-5.214,9.694-7.425,11.7-6.225,2.533,1.515-2.522,10.4-5.272,12.462-5.849,4.131-4.4.714-10.113,6.72-8.969,9.439-21.758,16.356-29.787,21.026-8.177,6.425-10.8,8.725-19.164,11.748-6.881,2.412-15.568,9.441-23.134,8.067Z" transform="translate(-424.771 -254.122)" fill="#eed8ce"/>
          <path id="Path_105" data-name="Path 105" d="M456.33,279.754c-1.271,8.669-6.187,14.555-3.641,18.372,1.992,2.99,5.384,5.091,12.364,5.292,3.146.089,7.642-3.021,8.289-3.775.251-3.538.87-10.694.64-13.937-.848-11.2-.436-15.777-14.593-15.351Z" transform="translate(-427.266 -234.061)" fill="#eed8ce"/>
          <path id="Path_106" data-name="Path 106" d="M466.793,291.894c10.77-2.35,16.645,3.525,18.524-7.568a27.042,27.042,0,0,0,.213-6.973c4.861-.242-.15-6.273-2.025-9.034-6.469-9.533-19.952-4.281-25.869-.054-8.029,6.127-6.76,12.894-1.479,20.711Z" transform="translate(-427.343 -243.183)" fill="#eed8ce"/>
          <path id="Path_107" data-name="Path 107" d="M504.04,337.34c-.168-3.417-.365-6.635-.615-9.515-2.62.645-18.039,4.357-27.29,4.664-10.723,0-29.042-6.163-32.327-7.3q.608,4.471,1.186,8.906c3.616,2.538,8.853,3.433,15.839,3.616,9.4,0,18.8,1.958,28.2,1.958A65.814,65.814,0,0,0,504.04,337.34Z" transform="translate(-437.367 -166.152)" fill="url(#radial-gradient)" style="mix-blend-mode: multiply;isolation: isolate"/>
          <path id="Path_108" data-name="Path 108" d="M461.459,301.1c-4.165,2.086-11.621-1.9-12.467-8.667-.421-3.8-.215-3.384-1.9-6.767-5.915-10.773,11.232-26.829,19.227-22.4-3-8.98,21.816-9.714,21.344-1.054,5.172-.879,7.293,2.7,7.08,7.344-.419,5.283-7.291,3.869-8.77,8.083-.911,2.6,2.9,5.006-.481,8.806-1.9,2.327-4.267,2.388-5.691,2.569,2.13,1.213,3.064,5.606.734,8.226-1.761,1.983-5.55,1.956-5.55,1.956a5.361,5.361,0,0,1,1,2.824c.13,4.744-8.244,6.152-11.1,4.939S460.994,302.633,461.459,301.1Z" transform="translate(-434.809 -251.659)" fill="url(#linear-gradient-29)"/>
          <path id="Path_109" data-name="Path 109" d="M480.579,264.683c-.1-.1-.208-.172-.307-.266a5.283,5.283,0,0,0-3.164,2.945c-.911,2.6,2.9,5.006-.481,8.806-1.9,2.327-4.268,2.388-5.691,2.569,2.13,1.213,3.064,5.606.734,8.226-1.761,1.983-5.55,1.956-5.55,1.956a5.36,5.36,0,0,1,1,2.824c.13,4.744-8.244,6.152-11.1,4.939a5.834,5.834,0,0,1-2.833-2.6c-.052.15-.1.324-.15.474a6.214,6.214,0,0,0,3.354,3.524c3.039,1.287,11.936-.21,11.8-5.252a5.675,5.675,0,0,0-1.059-3s4.021.027,5.894-2.079c2.473-2.784,1.481-7.447-.779-8.739,1.513-.192,4.021-.257,6.044-2.728,3.585-4.039-.457-6.6.51-9.356A4.556,4.556,0,0,1,480.579,264.683Z" transform="translate(-425.946 -241.378)" fill="#a1a1a1" opacity="0.35" style="mix-blend-mode: multiply;isolation: isolate"/>
          <path id="Path_110" data-name="Path 110" d="M480.76,344.955c.79-9.446-.336-13.776.284-31.318.416-11.715-2.287-25.1-7.8-28.1a68.263,68.263,0,0,0-1.408,8.257l-7.338,1.419c.264,29.584,7.852,21.991,12.787,51.592.929,5.577.132,17.186,1.276,27.171C479.238,367.888,480.76,353.331,480.76,344.955Z" transform="translate(-411.756 -215.238)" fill="url(#linear-gradient-30)" style="mix-blend-mode: multiply;isolation: isolate"/>
          <path id="Path_111" data-name="Path 111" d="M478.316,307.663c2.665,6.664,9.683,14.57,13.324,19.719a94.864,94.864,0,0,0,9.325-9.949c5.6-7.282,13.161-11.93,13.161-17.09,0-4.923,4.189-15.674,10.383-13.953,2.186.521,4.082,1.752,4.453,3.124.857,3.155-2.878,7.656-4.8,10.294-4.124,5.5-5.14,3.057-8.553,7.806-2.618,3.641-7.96,14.561-10.71,18.345-3.786,4.814-9.981,13.075-17.2,11.352-8.258-1.723-14.452-15.483-18.578-21.678Z" transform="translate(-406.04 -214.408)" fill="#eed8ce"/>
          <path id="Path_112" data-name="Path 112" d="M485.691,312.847c.649-1.166-2.958-9.929-4.567-14.895-1.618-4.713-4.252-10.5-8.817-12.482-1.786-.589-7.36-.575-7.79,8.2-.286,5.93,1.593,12.068,3.157,17.936,1.166,4.382,3.912,10.444,5.136,10.444S481.762,319.887,485.691,312.847Z" transform="translate(-411.768 -215.587)" fill="#f99746"/>
        </g>
      </g>
    </g>
    <g id="Group_47" data-name="Group 47" transform="translate(1204.807 1783.83)">
      <text id="PYTHON-2" data-name="PYTHON" transform="translate(135.325 74.556)" fill="#0094c4" font-size="23" font-family="Poppins-Regular, Poppins"><tspan x="-44.367" y="0">PYTHON</tspan></text>
      <text id="_" data-name="{ }" transform="translate(560.332 120.552)" fill="#0094c4" font-size="27" font-family="Poppins-Regular, Poppins"><tspan x="-13.325" y="0">{ }</tspan></text>
      <text id="Js" transform="translate(46.823 161.073)" fill="#0094c4" font-size="41" font-family="Poppins-Regular, Poppins"><tspan x="-20.521" y="0">Js</tspan></text>
      <text id="_2" data-name="( )" transform="translate(643.27 577.923)" fill="#0094c4" font-size="26" font-family="Poppins-Regular, Poppins"><tspan x="-13.182" y="0">( )</tspan></text>
      <text id="SQL" transform="translate(32 415.471)" fill="#0094c4" font-size="35" font-family="Poppins-Regular, Poppins"><tspan x="-31.377" y="0">SQL</tspan></text>
      <text id="_3" data-name="&lt;/&gt;" transform="translate(695.178 294.487)" fill="#0094c4" font-size="41" font-family="Poppins-Regular, Poppins"><tspan x="-24.949" y="0">&lt;/&gt;</tspan></text>
      <text id="C_2" data-name="C++" transform="translate(402.312 34)" fill="#0094c4" font-size="32" font-family="Poppins-Regular, Poppins"><tspan x="-30.64" y="0">C++</tspan></text>
    </g>
  </g>
</svg>
