<svg xmlns="http://www.w3.org/2000/svg" width="70" height="70" viewBox="0 0 70 70">
  <g id="_4" data-name="4" transform="translate(-301 -2254)">
    <circle id="Ellipse_221" data-name="Ellipse 221" cx="35" cy="35" r="35" transform="translate(301 2254)" fill="#82c1ff"/>
    <g id="_004-coding" data-name="004-coding" transform="translate(322 2258.933)">
      <g id="Group_10090" data-name="Group 10090" transform="translate(-1 16.067)">
        <g id="Group_10089" data-name="Group 10089" transform="translate(0 0)">
          <path id="Path_16228" data-name="Path 16228" d="M27.346,16.067H1.3a2.289,2.289,0,0,0-2.3,2.3V36.241a2.289,2.289,0,0,0,2.3,2.3H11.1L10.338,41.6h-.1a2.529,2.529,0,0,0-2.554,2.554.483.483,0,0,0,.511.511H20.451a.483.483,0,0,0,.511-.511A2.529,2.529,0,0,0,18.408,41.6h-.1L17.54,38.54h9.806a2.289,2.289,0,0,0,2.3-2.3V18.365A2.289,2.289,0,0,0,27.346,16.067ZM.022,18.365A1.264,1.264,0,0,1,1.3,17.089H27.346a1.264,1.264,0,0,1,1.277,1.277V33.432H.022ZM19.889,43.647H8.806a1.488,1.488,0,0,1,1.43-1.022h8.223A1.488,1.488,0,0,1,19.889,43.647ZM17.233,41.6H11.411l.766-3.064h4.29Zm11.39-5.363a1.264,1.264,0,0,1-1.277,1.277H1.3A1.264,1.264,0,0,1,.022,36.241V34.454h28.6v1.788Z" transform="translate(1 -16.067)" fill="#fff"/>
          <path id="Path_16229" data-name="Path 16229" d="M297.306,263.533h-7.661a.511.511,0,0,0,0,1.021h7.661a.511.511,0,0,0,0-1.021Z" transform="translate(-271.769 -248.722)" fill="#fff"/>
          <path id="Path_16230" data-name="Path 16230" d="M81.929,212.845a.483.483,0,0,0-.511-.511H76.311a.511.511,0,1,0,0,1.021h5.107A.483.483,0,0,0,81.929,212.845Z" transform="translate(-71.203 -200.587)" fill="#fff"/>
          <path id="Path_16231" data-name="Path 16231" d="M246.978,213.355h7.661a.511.511,0,1,0,0-1.021h-7.661a.511.511,0,1,0,0,1.021Z" transform="translate(-231.655 -200.587)" fill="#fff"/>
          <path id="Path_16232" data-name="Path 16232" d="M126.639,263.533h-7.661a.511.511,0,0,0,0,1.021h7.661a.511.511,0,0,0,0-1.021Z" transform="translate(-111.317 -248.722)" fill="#fff"/>
          <path id="Path_16233" data-name="Path 16233" d="M297.306,109.933h-7.661a.511.511,0,0,0,0,1.021h7.661a.511.511,0,0,0,0-1.021Z" transform="translate(-271.769 -104.315)" fill="#fff"/>
          <path id="Path_16234" data-name="Path 16234" d="M337.419,161.133h-5.107a.511.511,0,0,0,0,1.021h5.107a.511.511,0,0,0,0-1.021Z" transform="translate(-311.882 -152.45)" fill="#fff"/>
          <path id="Path_16235" data-name="Path 16235" d="M246.978,162.155H248a.511.511,0,1,0,0-1.021h-1.021a.511.511,0,1,0,0,1.021Z" transform="translate(-231.655 -152.451)" fill="#fff"/>
          <path id="Path_16236" data-name="Path 16236" d="M246.978,59.755h7.661a.511.511,0,1,0,0-1.021h-7.661a.511.511,0,1,0,0,1.021Z" transform="translate(-231.655 -56.18)" fill="#fff"/>
          <path id="Path_16237" data-name="Path 16237" d="M83.972,50.2H75.8v8.172h8.172ZM82.95,57.35H76.822V51.222H82.95Z" transform="translate(-71.203 -48.157)" fill="#fff"/>
        </g>
      </g>
    </g>
  </g>
</svg>
