<svg xmlns="http://www.w3.org/2000/svg" width="70" height="70" viewBox="0 0 70 70">
  <g id="_3" data-name="3" transform="translate(-301 -2124)">
    <circle id="Ellipse_221" data-name="Ellipse 221" cx="35" cy="35" r="35" transform="translate(301 2124)" fill="#7e75e4"/>
    <g id="_003-data" data-name="003-data" transform="translate(320 2143.892)">
      <g id="Group_10088" data-name="Group 10088" transform="translate(1 0.108)">
        <g id="Group_10087" data-name="Group 10087" transform="translate(0 0)">
          <path id="Path_16225" data-name="Path 16225" d="M31.918,9.263a.511.511,0,0,0-.059-.162l0-.006h0a.513.513,0,0,0-.122-.132.471.471,0,0,0-.042-.029.512.512,0,0,0-.044-.03L25.472,5.815a.487.487,0,0,0-.054-.015.507.507,0,0,0-.1-.027.556.556,0,0,0-.192.008.494.494,0,0,0-.1.036.476.476,0,0,0-.053.019L17.523,10.39V3.7c0-.016-.005-.032-.007-.048a.493.493,0,0,0-.007-.052.511.511,0,0,0-.059-.162l0-.006h0a.512.512,0,0,0-.122-.132.492.492,0,0,0-.043-.029.507.507,0,0,0-.043-.03L11.063.155A.493.493,0,0,0,11.009.14a.5.5,0,0,0-.1-.027.555.555,0,0,0-.192.008.5.5,0,0,0-.1.036.482.482,0,0,0-.052.019L1.3,5.836h0a.51.51,0,0,0-.131.122c-.009.012-.018.023-.026.036a.51.51,0,0,0-.071.156c0,.007,0,.014,0,.021a.511.511,0,0,0-.013.1V21.714a.514.514,0,0,0,.284.46l6.175,3.088s.01,0,.014,0a.516.516,0,0,0,.215.051h0a.366.366,0,0,0,.192-.043.5.5,0,0,0,.076-.033l7.451-4.554v6.688a.514.514,0,0,0,.284.46l6.175,3.088s.01,0,.014,0a.516.516,0,0,0,.215.051h0a.511.511,0,0,0,.138-.019c.012,0,.023-.011.035-.015a.513.513,0,0,0,.094-.041l9.263-5.661a.489.489,0,0,0,.043-.04.439.439,0,0,0,.131-.152.5.5,0,0,0,.04-.087.5.5,0,0,0,.021-.1.48.48,0,0,0,.011-.056V9.363c0-.016-.005-.032-.007-.048A.45.45,0,0,0,31.918,9.263ZM7.231,23.968,2.085,21.4V14.827L7.231,17.4Zm0-7.719L2.085,13.676V12.254l5.146,2.573Zm0-2.573L2.085,11.1V9.681l5.146,2.573Zm0-2.573L2.085,8.531V7.108L7.231,9.681Zm.49-2.328L2.631,6.231,10.858,1.2l5.089,2.545Zm7.99,2.722h0a.51.51,0,0,0-.131.122c-.009.012-.018.023-.026.036a.51.51,0,0,0-.071.156c0,.007,0,.014,0,.021a.507.507,0,0,0-.013.1v7.545l-7.2,4.4V9.652L16.494,4.62v6.4ZM21.64,29.629l-5.146-2.573V20.488l5.146,2.573Zm0-7.719-5.146-2.573V17.915l5.146,2.573Zm0-2.573-5.146-2.573V15.342l5.146,2.573Zm0-2.573-5.146-2.573V12.769l5.146,2.573Zm.49-2.328L17.04,11.891l8.227-5.028,5.089,2.545ZM30.9,24.512l-8.233,5.032V15.313L30.9,10.281Z" transform="translate(-1.053 -0.108)" fill="#fff"/>
          <path id="Path_16226" data-name="Path 16226" d="M274.638,26.614h10.806a.515.515,0,0,1,.515.515V28.46l-.665-.665a.515.515,0,0,0-.728.728l1.544,1.544a.513.513,0,0,0,.559.112h0a.508.508,0,0,0,.151-.1s.011-.006.016-.01l1.544-1.544a.515.515,0,1,0-.728-.728l-.665.665V27.129a1.545,1.545,0,0,0-1.544-1.544H274.638a.515.515,0,0,0,0,1.029Z" transform="translate(-257.653 -24.049)" fill="#fff"/>
          <path id="Path_16227" data-name="Path 16227" d="M14.9,413.247H4.091a.515.515,0,0,1-.515-.515V411.4l.665.665a.515.515,0,1,0,.728-.728L3.425,409.8a.509.509,0,0,0-.153-.1.5.5,0,0,0-.051-.018.644.644,0,0,0-.18-.027.512.512,0,0,0-.161.031l-.014,0h0a.509.509,0,0,0-.151.1s-.011.006-.016.01L1.154,411.34a.514.514,0,1,0,.728.728l.665-.665v1.331a1.545,1.545,0,0,0,1.544,1.544H14.9a.515.515,0,1,0,0-1.029Z" transform="translate(-1 -384.952)" fill="#fff"/>
        </g>
      </g>
    </g>
  </g>
</svg>
