<svg xmlns="http://www.w3.org/2000/svg" width="71" height="73" viewBox="0 0 71 73">
  <g id="Group_10144" data-name="Group 10144" transform="translate(-174 90)">
    <rect id="Rectangle_1386" data-name="Rectangle 1386" width="71" height="73" rx="12" transform="translate(174 -90)" fill="#2d9f55" opacity="0.13"/>
    <g id="Page-1" transform="translate(192.001 -71.002)">
      <g id="_057---Design-Ad-Website" data-name="057---Design-Ad-Website" transform="translate(-0.001 0.002)">
        <path id="Shape" d="M2.788,29.813h9.768L11.364,32.2H9.347a1.789,1.789,0,1,0,0,3.577H26.042a1.789,1.789,0,1,0,0-3.577H24.025l-1.192-2.385H32.6a1.848,1.848,0,0,0,1.789-1.9V6.657l.571-.571,0-.007L36.246,4.8a1.81,1.81,0,0,0,0-2.556L34.531.53a1.81,1.81,0,0,0-2.556,0L30.7,1.81l-.007,0-.571.571H2.788A1.848,1.848,0,0,0,1,4.282V27.917A1.848,1.848,0,0,0,2.788,29.813Zm23.85,4.174a.6.6,0,0,1-.6.6H9.347a.6.6,0,1,1,0-1.192H26.042A.6.6,0,0,1,26.638,33.987ZM22.692,32.2h-10l1.192-2.385H21.5ZM25.367,9.325l2.082,2.082-3.193,1.105Zm2.306.62,5.151-5.151.871.871-5.149,5.151Zm5.145-8.573a.615.615,0,0,1,.87,0L35.4,3.087a.615.615,0,0,1,0,.87l-.865.864L31.954,2.238ZM31.11,3.08l.871.871L26.83,9.1l-.871-.873Zm-28.322.5H28.925L24.692,7.812a.585.585,0,0,0-.137.229h0l-1.423,4.083a1.192,1.192,0,0,0,1.123,1.591,1.231,1.231,0,0,0,.405-.069l4.083-1.421v0a.585.585,0,0,0,.229-.137L33.2,7.849V25.043H6.962a.6.6,0,1,0,0,1.192H33.2v1.681a.665.665,0,0,1-.6.7H2.788a.665.665,0,0,1-.6-.7V26.236H4.577a.6.6,0,0,0,0-1.192H2.192V4.282a.665.665,0,0,1,.6-.7Z" transform="translate(-0.999 -0.002)" fill="#12bf66"/>
        <path id="Shape-2" data-name="Shape" d="M6.789,16.347H21.1a1.789,1.789,0,0,0,1.789-1.789V9.789A1.789,1.789,0,0,0,21.1,8H6.789A1.789,1.789,0,0,0,5,9.789v4.77A1.789,1.789,0,0,0,6.789,16.347ZM21.695,9.789v1.789H19.906a.6.6,0,0,1-.6-.6V9.192H21.1A.6.6,0,0,1,21.695,9.789Zm-15.5,0a.6.6,0,0,1,.6-.6H18.117v1.789a1.789,1.789,0,0,0,1.789,1.789h1.789v1.789a.6.6,0,0,1-.6.6H6.789a.6.6,0,0,1-.6-.6Z" transform="translate(-2.614 -3.231)" fill="#12bf66"/>
        <path id="Shape-3" data-name="Shape" d="M14.944,24H7.192A1.192,1.192,0,0,0,6,25.192v7.155A1.192,1.192,0,0,0,7.192,33.54h7.751a1.192,1.192,0,0,0,1.192-1.192V25.192A1.192,1.192,0,0,0,14.944,24Zm0,1.192v4.77H7.192v-4.77ZM7.192,32.347V31.155h7.751v1.192Z" transform="translate(-3.018 -9.691)" fill="#12bf66"/>
        <path id="Shape-4" data-name="Shape" d="M13.175,30.215a.6.6,0,0,0,.843,0l.6-.6a.6.6,0,0,0,0-.843l-.6-.6a.6.6,0,0,0-.843.843l.175.175-.175.175A.6.6,0,0,0,13.175,30.215Z" transform="translate(-5.844 -11.311)" fill="#12bf66"/>
        <path id="Shape-5" data-name="Shape" d="M25,25.6a.6.6,0,0,0,.6.6H41.1A.6.6,0,0,0,41.1,25H25.6A.6.6,0,0,0,25,25.6Z" transform="translate(-10.689 -10.095)" fill="#12bf66"/>
        <path id="Shape-6" data-name="Shape" d="M49.981,29H47.6a.6.6,0,1,0,0,1.192h2.385a.6.6,0,1,0,0-1.192Z" transform="translate(-19.572 -11.71)" fill="#12bf66"/>
        <path id="Shape-7" data-name="Shape" d="M25.6,30.192H36.329a.6.6,0,0,0,0-1.192H25.6a.6.6,0,1,0,0,1.192Z" transform="translate(-10.689 -11.71)" fill="#12bf66"/>
        <path id="Shape-8" data-name="Shape" d="M43.925,33H32.6a.6.6,0,0,0,0,1.192H43.925a.6.6,0,1,0,0-1.192Z" transform="translate(-13.516 -13.325)" fill="#12bf66"/>
        <path id="Shape-9" data-name="Shape" d="M25.6,34.192h1.789a.6.6,0,0,0,0-1.192H25.6a.6.6,0,1,0,0,1.192Z" transform="translate(-10.689 -13.325)" fill="#12bf66"/>
        <path id="Shape-10" data-name="Shape" d="M33.347,37H25.6a.6.6,0,0,0,0,1.192h7.751a.6.6,0,0,0,0-1.192Z" transform="translate(-10.689 -14.94)" fill="#12bf66"/>
      </g>
    </g>
  </g>
</svg>
